<?xml version="1.0" encoding="UTF-8" standalone="no"?>
<!DOCTYPE svg PUBLIC "-//W3C//DTD SVG 1.1//EN"
 "http://www.w3.org/Graphics/SVG/1.1/DTD/svg11.dtd">
<!-- Generated by graphviz version 2.43.0 (0)
 -->
<!-- Title: Bit Pages: 1 -->
<svg width="3661pt" height="723pt"
 viewBox="0.00 0.00 3661.43 723.00" xmlns="http://www.w3.org/2000/svg" xmlns:xlink="http://www.w3.org/1999/xlink">
<g id="graph0" class="graph" transform="scale(1 1) rotate(0) translate(4 719)">
<title>Bit</title>
<polygon fill="white" stroke="transparent" points="-4,4 -4,-719 3657.43,-719 3657.43,4 -4,4"/>
<text text-anchor="middle" x="1826.71" y="-7.8" font-family="Times,serif" font-size="14.00">Bit</text>
<!-- n1 -->
<g id="node1" class="node">
<title>n1</title>
<polygon fill="none" stroke="black" points="1195.01,-379 1102.34,-361 1195.01,-343 1287.68,-361 1195.01,-379"/>
<text text-anchor="middle" x="1195.01" y="-357.3" font-family="Times,serif" font-size="14.00">_1_out_wire</text>
</g>
<!-- n2 -->
<g id="node2" class="node">
<title>n2</title>
<polygon fill="none" stroke="black" points="60.06,-99.54 60.06,-114.46 44.25,-125 21.88,-125 6.06,-114.46 6.06,-99.54 21.88,-89 44.25,-89 60.06,-99.54"/>
<text text-anchor="middle" x="33.06" y="-103.3" font-family="Times,serif" font-size="14.00">in</text>
</g>
<!-- c42 -->
<g id="node40" class="node">
<title>c42</title>
<polygon fill="none" stroke="black" points="102.13,-144 102.13,-190 333.13,-190 333.13,-144 102.13,-144"/>
<text text-anchor="middle" x="115.13" y="-174.8" font-family="Times,serif" font-size="14.00">a</text>
<polyline fill="none" stroke="black" points="102.13,-167 128.13,-167 "/>
<text text-anchor="middle" x="115.13" y="-151.8" font-family="Times,serif" font-size="14.00">b</text>
<polyline fill="none" stroke="black" points="128.13,-144 128.13,-190 "/>
<text text-anchor="middle" x="210.63" y="-170.8" font-family="Times,serif" font-size="14.00">mux_0.and_2.nand_0</text>
<text text-anchor="middle" x="210.63" y="-155.8" font-family="Times,serif" font-size="14.00">Nand</text>
<polyline fill="none" stroke="black" points="293.13,-144 293.13,-190 "/>
<text text-anchor="middle" x="313.13" y="-163.3" font-family="Times,serif" font-size="14.00">out</text>
</g>
<!-- n2&#45;&gt;c42 -->
<g id="edge32" class="edge">
<title>n2:e&#45;&gt;c42:w</title>
<path fill="none" stroke="black" d="M61.06,-107C84.97,-107 77.58,-141.81 92.2,-152.14"/>
<polygon fill="black" stroke="black" points="91.55,-155.6 102.13,-155 93.49,-148.87 91.55,-155.6"/>
</g>
<!-- x4 -->
<g id="node50" class="node">
<title>x4</title>
<path fill="none" stroke="black" d="M232.63,-125C232.63,-125 202.63,-125 202.63,-125 196.63,-125 190.63,-119 190.63,-113 190.63,-113 190.63,-101 190.63,-101 190.63,-95 196.63,-89 202.63,-89 202.63,-89 232.63,-89 232.63,-89 238.63,-89 244.63,-95 244.63,-101 244.63,-101 244.63,-113 244.63,-113 244.63,-119 238.63,-125 232.63,-125"/>
<text text-anchor="middle" x="217.63" y="-103.3" font-family="Times,serif" font-size="14.00">BUF</text>
</g>
<!-- n2&#45;&gt;x4 -->
<g id="edge34" class="edge">
<title>n2:e&#45;&gt;x4:w</title>
<path fill="none" stroke="black" d="M61.06,-107C114.63,-107 130.54,-107 179.4,-107"/>
<polygon fill="black" stroke="black" points="179.63,-110.5 189.63,-107 179.63,-103.5 179.63,-110.5"/>
</g>
<!-- x16 -->
<g id="node62" class="node">
<title>x16</title>
<path fill="none" stroke="black" d="M232.63,-71C232.63,-71 202.63,-71 202.63,-71 196.63,-71 190.63,-65 190.63,-59 190.63,-59 190.63,-47 190.63,-47 190.63,-41 196.63,-35 202.63,-35 202.63,-35 232.63,-35 232.63,-35 238.63,-35 244.63,-41 244.63,-47 244.63,-47 244.63,-59 244.63,-59 244.63,-65 238.63,-71 232.63,-71"/>
<text text-anchor="middle" x="217.63" y="-49.3" font-family="Times,serif" font-size="14.00">BUF</text>
</g>
<!-- n2&#45;&gt;x16 -->
<g id="edge33" class="edge">
<title>n2:e&#45;&gt;x16:w</title>
<path fill="none" stroke="black" d="M61.06,-107C82.91,-107 82.37,-89.31 102.13,-80 135.63,-64.21 146.92,-54.8 179.36,-53.23"/>
<polygon fill="black" stroke="black" points="179.71,-56.73 189.63,-53 179.55,-49.73 179.71,-56.73"/>
</g>
<!-- n3 -->
<g id="node3" class="node">
<title>n3</title>
<polygon fill="none" stroke="black" points="66.19,-431.54 66.19,-446.46 46.79,-457 19.34,-457 -0.06,-446.46 -0.06,-431.54 19.34,-421 46.79,-421 66.19,-431.54"/>
<text text-anchor="middle" x="33.06" y="-435.3" font-family="Times,serif" font-size="14.00">load</text>
</g>
<!-- n3&#45;&gt;c42 -->
<g id="edge55" class="edge">
<title>n3:e&#45;&gt;c42:w</title>
<path fill="none" stroke="black" d="M66.13,-439C120.58,-439 53.9,-212.38 92.27,-182.29"/>
<polygon fill="black" stroke="black" points="93.75,-185.48 102.13,-179 91.53,-178.84 93.75,-185.48"/>
</g>
<!-- c44 -->
<g id="node42" class="node">
<title>c44</title>
<polygon fill="none" stroke="black" points="103.63,-452 103.63,-498 331.63,-498 331.63,-452 103.63,-452"/>
<text text-anchor="middle" x="116.63" y="-482.8" font-family="Times,serif" font-size="14.00">a</text>
<polyline fill="none" stroke="black" points="103.63,-475 129.63,-475 "/>
<text text-anchor="middle" x="116.63" y="-459.8" font-family="Times,serif" font-size="14.00">b</text>
<polyline fill="none" stroke="black" points="129.63,-452 129.63,-498 "/>
<text text-anchor="middle" x="210.63" y="-478.8" font-family="Times,serif" font-size="14.00">mux_0.not_0.nand_0</text>
<text text-anchor="middle" x="210.63" y="-463.8" font-family="Times,serif" font-size="14.00">Nand</text>
<polyline fill="none" stroke="black" points="291.63,-452 291.63,-498 "/>
<text text-anchor="middle" x="311.63" y="-471.3" font-family="Times,serif" font-size="14.00">out</text>
</g>
<!-- n3&#45;&gt;c44 -->
<g id="edge56" class="edge">
<title>n3:e&#45;&gt;c44:w</title>
<path fill="none" stroke="black" d="M66.13,-439C88.74,-439 80.1,-473.17 92.95,-483.85"/>
<polygon fill="black" stroke="black" points="92.04,-487.24 102.63,-487 94.2,-480.58 92.04,-487.24"/>
</g>
<!-- n3&#45;&gt;c44 -->
<g id="edge57" class="edge">
<title>n3:e&#45;&gt;c44:w</title>
<path fill="none" stroke="black" d="M66.13,-439C81.45,-439 83.23,-453.94 92.84,-460.25"/>
<polygon fill="black" stroke="black" points="92.05,-463.66 102.63,-463 93.95,-456.92 92.05,-463.66"/>
</g>
<!-- x5 -->
<g id="node51" class="node">
<title>x5</title>
<path fill="none" stroke="black" d="M232.63,-433C232.63,-433 202.63,-433 202.63,-433 196.63,-433 190.63,-427 190.63,-421 190.63,-421 190.63,-409 190.63,-409 190.63,-403 196.63,-397 202.63,-397 202.63,-397 232.63,-397 232.63,-397 238.63,-397 244.63,-403 244.63,-409 244.63,-409 244.63,-421 244.63,-421 244.63,-427 238.63,-433 232.63,-433"/>
<text text-anchor="middle" x="217.63" y="-411.3" font-family="Times,serif" font-size="14.00">BUF</text>
</g>
<!-- n3&#45;&gt;x5 -->
<g id="edge59" class="edge">
<title>n3:e&#45;&gt;x5:w</title>
<path fill="none" stroke="black" d="M66.13,-439C118.44,-439 132.02,-417.99 179.34,-415.29"/>
<polygon fill="black" stroke="black" points="179.73,-418.78 189.63,-415 179.53,-411.78 179.73,-418.78"/>
</g>
<!-- x7 -->
<g id="node53" class="node">
<title>x7</title>
<path fill="none" stroke="black" d="M232.63,-379C232.63,-379 202.63,-379 202.63,-379 196.63,-379 190.63,-373 190.63,-367 190.63,-367 190.63,-355 190.63,-355 190.63,-349 196.63,-343 202.63,-343 202.63,-343 232.63,-343 232.63,-343 238.63,-343 244.63,-349 244.63,-355 244.63,-355 244.63,-367 244.63,-367 244.63,-373 238.63,-379 232.63,-379"/>
<text text-anchor="middle" x="217.63" y="-357.3" font-family="Times,serif" font-size="14.00">BUF</text>
</g>
<!-- n3&#45;&gt;x7 -->
<g id="edge60" class="edge">
<title>n3:e&#45;&gt;x7:w</title>
<path fill="none" stroke="black" d="M66.13,-439C93.87,-439 79.67,-404.29 102.13,-388 132.11,-366.25 146.29,-361.72 179.28,-361.09"/>
<polygon fill="black" stroke="black" points="179.66,-364.58 189.63,-361 179.6,-357.59 179.66,-364.58"/>
</g>
<!-- x14 -->
<g id="node60" class="node">
<title>x14</title>
<path fill="none" stroke="black" d="M232.63,-610C232.63,-610 202.63,-610 202.63,-610 196.63,-610 190.63,-604 190.63,-598 190.63,-598 190.63,-586 190.63,-586 190.63,-580 196.63,-574 202.63,-574 202.63,-574 232.63,-574 232.63,-574 238.63,-574 244.63,-580 244.63,-586 244.63,-586 244.63,-598 244.63,-598 244.63,-604 238.63,-610 232.63,-610"/>
<text text-anchor="middle" x="217.63" y="-588.3" font-family="Times,serif" font-size="14.00">BUF</text>
</g>
<!-- n3&#45;&gt;x14 -->
<g id="edge58" class="edge">
<title>n3:e&#45;&gt;x14:w</title>
<path fill="none" stroke="black" d="M66.13,-439C100.72,-439 81.38,-480.33 102.13,-508 132.32,-548.27 135.42,-586.56 179.56,-591.47"/>
<polygon fill="black" stroke="black" points="179.46,-594.97 189.63,-592 179.83,-587.98 179.46,-594.97"/>
</g>
<!-- n4 -->
<g id="node4" class="node">
<title>n4</title>
<polygon fill="none" stroke="black" points="1195.01,-487 1151.61,-469 1195.01,-451 1238.41,-469 1195.01,-487"/>
<text text-anchor="middle" x="1195.01" y="-465.3" font-family="Times,serif" font-size="14.00">loop</text>
</g>
<!-- n5 -->
<g id="node5" class="node">
<title>n5</title>
<polygon fill="none" stroke="black" points="3569.78,-443 3501.75,-425 3569.78,-407 3637.82,-425 3569.78,-443"/>
<text text-anchor="middle" x="3569.78" y="-421.3" font-family="Times,serif" font-size="14.00">muxOut</text>
</g>
<!-- n6 -->
<g id="node6" class="node">
<title>n6</title>
<polygon fill="none" stroke="black" points="1195.01,-715 1088.26,-697 1195.01,-679 1301.75,-697 1195.01,-715"/>
<text text-anchor="middle" x="1195.01" y="-693.3" font-family="Times,serif" font-size="14.00">mux_0.NotSel</text>
</g>
<!-- n7 -->
<g id="node7" class="node">
<title>n7</title>
<polygon fill="none" stroke="black" points="2532.37,-518 2453.27,-500 2532.37,-482 2611.46,-500 2532.37,-518"/>
<text text-anchor="middle" x="2532.37" y="-496.3" font-family="Times,serif" font-size="14.00">mux_0.Sa</text>
</g>
<!-- n8 -->
<g id="node8" class="node">
<title>n8</title>
<polygon fill="none" stroke="black" points="1874.74,-179 1795.65,-161 1874.74,-143 1953.84,-161 1874.74,-179"/>
<text text-anchor="middle" x="1874.74" y="-157.3" font-family="Times,serif" font-size="14.00">mux_0.Sb</text>
</g>
<!-- n9 -->
<g id="node9" class="node">
<title>n9</title>
<polygon fill="none" stroke="black" points="1195.01,-541 1125.3,-523 1195.01,-505 1264.72,-523 1195.01,-541"/>
<text text-anchor="middle" x="1195.01" y="-519.3" font-family="Times,serif" font-size="14.00">mux_0.a</text>
</g>
<!-- n10 -->
<g id="node10" class="node">
<title>n10</title>
<polygon fill="none" stroke="black" points="525.39,-613 413.11,-595 525.39,-577 637.66,-595 525.39,-613"/>
<text text-anchor="middle" x="525.39" y="-591.3" font-family="Times,serif" font-size="14.00">mux_0.and_1.a</text>
</g>
<!-- c40 -->
<g id="node38" class="node">
<title>c40</title>
<polygon fill="none" stroke="black" points="739.64,-560 739.64,-606 970.64,-606 970.64,-560 739.64,-560"/>
<text text-anchor="middle" x="752.64" y="-590.8" font-family="Times,serif" font-size="14.00">a</text>
<polyline fill="none" stroke="black" points="739.64,-583 765.64,-583 "/>
<text text-anchor="middle" x="752.64" y="-567.8" font-family="Times,serif" font-size="14.00">b</text>
<polyline fill="none" stroke="black" points="765.64,-560 765.64,-606 "/>
<text text-anchor="middle" x="848.14" y="-586.8" font-family="Times,serif" font-size="14.00">mux_0.and_1.nand_0</text>
<text text-anchor="middle" x="848.14" y="-571.8" font-family="Times,serif" font-size="14.00">Nand</text>
<polyline fill="none" stroke="black" points="930.64,-560 930.64,-606 "/>
<text text-anchor="middle" x="950.64" y="-579.3" font-family="Times,serif" font-size="14.00">out</text>
</g>
<!-- n10&#45;&gt;c40 -->
<g id="edge3" class="edge">
<title>n10:e&#45;&gt;c40:w</title>
<path fill="none" stroke="black" d="M638.39,-595C679.08,-595 691.76,-595 727.87,-595"/>
<polygon fill="black" stroke="black" points="728.14,-598.5 738.14,-595 728.14,-591.5 728.14,-598.5"/>
</g>
<!-- x6 -->
<g id="node52" class="node">
<title>x6</title>
<path fill="none" stroke="black" d="M870.14,-661C870.14,-661 840.14,-661 840.14,-661 834.14,-661 828.14,-655 828.14,-649 828.14,-649 828.14,-637 828.14,-637 828.14,-631 834.14,-625 840.14,-625 840.14,-625 870.14,-625 870.14,-625 876.14,-625 882.14,-631 882.14,-637 882.14,-637 882.14,-649 882.14,-649 882.14,-655 876.14,-661 870.14,-661"/>
<text text-anchor="middle" x="855.14" y="-639.3" font-family="Times,serif" font-size="14.00">BUF</text>
</g>
<!-- n10&#45;&gt;x6 -->
<g id="edge5" class="edge">
<title>n10:e&#45;&gt;x6:w</title>
<path fill="none" stroke="black" d="M638.39,-595C674.83,-595 682.34,-606.97 717.64,-616 762.79,-627.55 775.31,-640.96 817.12,-642.79"/>
<polygon fill="black" stroke="black" points="817.07,-646.29 827.14,-643 817.22,-639.29 817.07,-646.29"/>
</g>
<!-- x20 -->
<g id="node66" class="node">
<title>x20</title>
<path fill="none" stroke="black" d="M870.14,-715C870.14,-715 840.14,-715 840.14,-715 834.14,-715 828.14,-709 828.14,-703 828.14,-703 828.14,-691 828.14,-691 828.14,-685 834.14,-679 840.14,-679 840.14,-679 870.14,-679 870.14,-679 876.14,-679 882.14,-685 882.14,-691 882.14,-691 882.14,-703 882.14,-703 882.14,-709 876.14,-715 870.14,-715"/>
<text text-anchor="middle" x="855.14" y="-693.3" font-family="Times,serif" font-size="14.00">BUF</text>
</g>
<!-- n10&#45;&gt;x20 -->
<g id="edge4" class="edge">
<title>n10:e&#45;&gt;x20:w</title>
<path fill="none" stroke="black" d="M638.39,-595C661.05,-595 664.95,-606.67 681.64,-622 701.29,-640.03 695.4,-655.29 717.64,-670 756.5,-695.71 774.43,-696.95 817.03,-697"/>
<polygon fill="black" stroke="black" points="817.14,-700.5 827.14,-697 817.14,-693.5 817.14,-700.5"/>
</g>
<!-- n11 -->
<g id="node11" class="node">
<title>n11</title>
<polygon fill="none" stroke="black" points="1195.01,-598 1039,-580 1195.01,-562 1351.02,-580 1195.01,-598"/>
<text text-anchor="middle" x="1195.01" y="-576.3" font-family="Times,serif" font-size="14.00">mux_0.and_1.aNandb</text>
</g>
<!-- c41 -->
<g id="node39" class="node">
<title>c41</title>
<polygon fill="none" stroke="black" points="1397.38,-542 1397.38,-588 1672.38,-588 1672.38,-542 1397.38,-542"/>
<text text-anchor="middle" x="1410.38" y="-572.8" font-family="Times,serif" font-size="14.00">a</text>
<polyline fill="none" stroke="black" points="1397.38,-565 1423.38,-565 "/>
<text text-anchor="middle" x="1410.38" y="-549.8" font-family="Times,serif" font-size="14.00">b</text>
<polyline fill="none" stroke="black" points="1423.38,-542 1423.38,-588 "/>
<text text-anchor="middle" x="1527.88" y="-568.8" font-family="Times,serif" font-size="14.00">mux_0.and_1.not_1.nand_0</text>
<text text-anchor="middle" x="1527.88" y="-553.8" font-family="Times,serif" font-size="14.00">Nand</text>
<polyline fill="none" stroke="black" points="1632.38,-542 1632.38,-588 "/>
<text text-anchor="middle" x="1652.38" y="-561.3" font-family="Times,serif" font-size="14.00">out</text>
</g>
<!-- n11&#45;&gt;c41 -->
<g id="edge7" class="edge">
<title>n11:e&#45;&gt;c41:w</title>
<path fill="none" stroke="black" d="M1352.01,-580C1368.27,-580 1374.65,-578.06 1387.05,-577.3"/>
<polygon fill="black" stroke="black" points="1387.48,-580.79 1397.38,-577 1387.28,-573.79 1387.48,-580.79"/>
</g>
<!-- n11&#45;&gt;c41 -->
<g id="edge8" class="edge">
<title>n11:e&#45;&gt;c41:w</title>
<path fill="none" stroke="black" d="M1352.01,-580C1371.44,-580 1373.71,-561.48 1387.24,-555.12"/>
<polygon fill="black" stroke="black" points="1388.3,-558.47 1397.38,-553 1386.87,-551.62 1388.3,-558.47"/>
</g>
<!-- x0 -->
<g id="node46" class="node">
<title>x0</title>
<path fill="none" stroke="black" d="M1549.88,-643C1549.88,-643 1519.88,-643 1519.88,-643 1513.88,-643 1507.88,-637 1507.88,-631 1507.88,-631 1507.88,-619 1507.88,-619 1507.88,-613 1513.88,-607 1519.88,-607 1519.88,-607 1549.88,-607 1549.88,-607 1555.88,-607 1561.88,-613 1561.88,-619 1561.88,-619 1561.88,-631 1561.88,-631 1561.88,-637 1555.88,-643 1549.88,-643"/>
<text text-anchor="middle" x="1534.88" y="-621.3" font-family="Times,serif" font-size="14.00">BUF</text>
</g>
<!-- n11&#45;&gt;x0 -->
<g id="edge9" class="edge">
<title>n11:e&#45;&gt;x0:w</title>
<path fill="none" stroke="black" d="M1352.01,-580C1373.7,-580 1376.72,-591.39 1397.38,-598 1441.76,-612.2 1454.94,-623.33 1496.85,-624.83"/>
<polygon fill="black" stroke="black" points="1496.82,-628.33 1506.88,-625 1496.94,-621.33 1496.82,-628.33"/>
</g>
<!-- n12 -->
<g id="node12" class="node">
<title>n12</title>
<polygon fill="none" stroke="black" points="525.39,-487 412.27,-469 525.39,-451 638.5,-469 525.39,-487"/>
<text text-anchor="middle" x="525.39" y="-465.3" font-family="Times,serif" font-size="14.00">mux_0.and_1.b</text>
</g>
<!-- n12&#45;&gt;c40 -->
<g id="edge11" class="edge">
<title>n12:e&#45;&gt;c40:w</title>
<path fill="none" stroke="black" d="M639.39,-469C698.79,-469 677.95,-559.4 727.95,-569.99"/>
<polygon fill="black" stroke="black" points="727.85,-573.5 738.14,-571 728.54,-566.53 727.85,-573.5"/>
</g>
<!-- x17 -->
<g id="node63" class="node">
<title>x17</title>
<path fill="none" stroke="black" d="M870.14,-541C870.14,-541 840.14,-541 840.14,-541 834.14,-541 828.14,-535 828.14,-529 828.14,-529 828.14,-517 828.14,-517 828.14,-511 834.14,-505 840.14,-505 840.14,-505 870.14,-505 870.14,-505 876.14,-505 882.14,-511 882.14,-517 882.14,-517 882.14,-529 882.14,-529 882.14,-535 876.14,-541 870.14,-541"/>
<text text-anchor="middle" x="855.14" y="-519.3" font-family="Times,serif" font-size="14.00">BUF</text>
</g>
<!-- n12&#45;&gt;x17 -->
<g id="edge12" class="edge">
<title>n12:e&#45;&gt;x17:w</title>
<path fill="none" stroke="black" d="M639.39,-469C676.18,-469 682.35,-485.59 717.64,-496 762.34,-509.19 775.25,-521.19 817.12,-522.81"/>
<polygon fill="black" stroke="black" points="817.08,-526.31 827.14,-523 817.21,-519.31 817.08,-526.31"/>
</g>
<!-- x21 -->
<g id="node67" class="node">
<title>x21</title>
<path fill="none" stroke="black" d="M870.14,-379C870.14,-379 840.14,-379 840.14,-379 834.14,-379 828.14,-373 828.14,-367 828.14,-367 828.14,-355 828.14,-355 828.14,-349 834.14,-343 840.14,-343 840.14,-343 870.14,-343 870.14,-343 876.14,-343 882.14,-349 882.14,-355 882.14,-355 882.14,-367 882.14,-367 882.14,-373 876.14,-379 870.14,-379"/>
<text text-anchor="middle" x="855.14" y="-357.3" font-family="Times,serif" font-size="14.00">BUF</text>
</g>
<!-- n12&#45;&gt;x21 -->
<g id="edge13" class="edge">
<title>n12:e&#45;&gt;x21:w</title>
<path fill="none" stroke="black" d="M639.39,-469C661.67,-469 665.73,-457.61 681.64,-442 702.24,-421.8 694.04,-404.58 717.64,-388 755.78,-361.22 774.32,-360.9 817.02,-360.98"/>
<polygon fill="black" stroke="black" points="817.14,-364.48 827.14,-361 817.15,-357.48 817.14,-364.48"/>
</g>
<!-- x22 -->
<g id="node68" class="node">
<title>x22</title>
<path fill="none" stroke="black" d="M870.14,-487C870.14,-487 840.14,-487 840.14,-487 834.14,-487 828.14,-481 828.14,-475 828.14,-475 828.14,-463 828.14,-463 828.14,-457 834.14,-451 840.14,-451 840.14,-451 870.14,-451 870.14,-451 876.14,-451 882.14,-457 882.14,-463 882.14,-463 882.14,-475 882.14,-475 882.14,-481 876.14,-487 870.14,-487"/>
<text text-anchor="middle" x="855.14" y="-465.3" font-family="Times,serif" font-size="14.00">BUF</text>
</g>
<!-- n12&#45;&gt;x22 -->
<g id="edge14" class="edge">
<title>n12:e&#45;&gt;x22:w</title>
<path fill="none" stroke="black" d="M639.39,-469C719.25,-469 741.79,-469 816.72,-469"/>
<polygon fill="black" stroke="black" points="817.14,-472.5 827.14,-469 817.14,-465.5 817.14,-472.5"/>
</g>
<!-- x24 -->
<g id="node70" class="node">
<title>x24</title>
<path fill="none" stroke="black" d="M870.14,-433C870.14,-433 840.14,-433 840.14,-433 834.14,-433 828.14,-427 828.14,-421 828.14,-421 828.14,-409 828.14,-409 828.14,-403 834.14,-397 840.14,-397 840.14,-397 870.14,-397 870.14,-397 876.14,-397 882.14,-403 882.14,-409 882.14,-409 882.14,-421 882.14,-421 882.14,-427 876.14,-433 870.14,-433"/>
<text text-anchor="middle" x="855.14" y="-411.3" font-family="Times,serif" font-size="14.00">BUF</text>
</g>
<!-- n12&#45;&gt;x24 -->
<g id="edge15" class="edge">
<title>n12:e&#45;&gt;x24:w</title>
<path fill="none" stroke="black" d="M639.39,-469C676.18,-469 682.35,-452.41 717.64,-442 762.34,-428.81 775.25,-416.81 817.12,-415.19"/>
<polygon fill="black" stroke="black" points="817.21,-418.69 827.14,-415 817.08,-411.69 817.21,-418.69"/>
</g>
<!-- n13 -->
<g id="node13" class="node">
<title>n13</title>
<polygon fill="none" stroke="black" points="1874.74,-643 1717.39,-625 1874.74,-607 2032.1,-625 1874.74,-643"/>
<text text-anchor="middle" x="1874.74" y="-621.3" font-family="Times,serif" font-size="14.00">mux_0.and_1.not_1.in</text>
</g>
<!-- n14 -->
<g id="node14" class="node">
<title>n14</title>
<polygon fill="none" stroke="black" points="1874.74,-572 1708.51,-554 1874.74,-536 2040.98,-554 1874.74,-572"/>
<text text-anchor="middle" x="1874.74" y="-550.3" font-family="Times,serif" font-size="14.00">mux_0.and_1.not_1.out</text>
</g>
<!-- c46 -->
<g id="node44" class="node">
<title>c46</title>
<polygon fill="none" stroke="black" points="2077.11,-417 2077.11,-463 2340.11,-463 2340.11,-417 2077.11,-417"/>
<text text-anchor="middle" x="2090.11" y="-447.8" font-family="Times,serif" font-size="14.00">a</text>
<polyline fill="none" stroke="black" points="2077.11,-440 2103.11,-440 "/>
<text text-anchor="middle" x="2090.11" y="-424.8" font-family="Times,serif" font-size="14.00">b</text>
<polyline fill="none" stroke="black" points="2103.11,-417 2103.11,-463 "/>
<text text-anchor="middle" x="2201.61" y="-443.8" font-family="Times,serif" font-size="14.00">mux_0.or_3.not_0.nand_0</text>
<text text-anchor="middle" x="2201.61" y="-428.8" font-family="Times,serif" font-size="14.00">Nand</text>
<polyline fill="none" stroke="black" points="2300.11,-417 2300.11,-463 "/>
<text text-anchor="middle" x="2320.11" y="-436.3" font-family="Times,serif" font-size="14.00">out</text>
</g>
<!-- n14&#45;&gt;c46 -->
<g id="edge18" class="edge">
<title>n14:e&#45;&gt;c46:w</title>
<path fill="none" stroke="black" d="M2041.11,-554C2085.05,-554 2038.58,-468.78 2066.98,-454.13"/>
<polygon fill="black" stroke="black" points="2068.05,-457.48 2077.11,-452 2066.61,-450.63 2068.05,-457.48"/>
</g>
<!-- n14&#45;&gt;c46 -->
<g id="edge19" class="edge">
<title>n14:e&#45;&gt;c46:w</title>
<path fill="none" stroke="black" d="M2041.11,-554C2095.26,-554 2029.5,-445.1 2066.79,-429.78"/>
<polygon fill="black" stroke="black" points="2067.85,-433.15 2077.11,-428 2066.66,-426.25 2067.85,-433.15"/>
</g>
<!-- x1 -->
<g id="node47" class="node">
<title>x1</title>
<path fill="none" stroke="black" d="M2223.61,-680C2223.61,-680 2193.61,-680 2193.61,-680 2187.61,-680 2181.61,-674 2181.61,-668 2181.61,-668 2181.61,-656 2181.61,-656 2181.61,-650 2187.61,-644 2193.61,-644 2193.61,-644 2223.61,-644 2223.61,-644 2229.61,-644 2235.61,-650 2235.61,-656 2235.61,-656 2235.61,-668 2235.61,-668 2235.61,-674 2229.61,-680 2223.61,-680"/>
<text text-anchor="middle" x="2208.61" y="-658.3" font-family="Times,serif" font-size="14.00">BUF</text>
</g>
<!-- n14&#45;&gt;x1 -->
<g id="edge20" class="edge">
<title>n14:e&#45;&gt;x1:w</title>
<path fill="none" stroke="black" d="M2041.11,-554C2080.51,-554 2047.08,-609.5 2077.11,-635 2110.66,-663.48 2130.05,-662.37 2170.47,-662.05"/>
<polygon fill="black" stroke="black" points="2170.63,-665.55 2180.61,-662 2170.6,-658.55 2170.63,-665.55"/>
</g>
<!-- x9 -->
<g id="node55" class="node">
<title>x9</title>
<path fill="none" stroke="black" d="M2223.61,-626C2223.61,-626 2193.61,-626 2193.61,-626 2187.61,-626 2181.61,-620 2181.61,-614 2181.61,-614 2181.61,-602 2181.61,-602 2181.61,-596 2187.61,-590 2193.61,-590 2193.61,-590 2223.61,-590 2223.61,-590 2229.61,-590 2235.61,-596 2235.61,-602 2235.61,-602 2235.61,-614 2235.61,-614 2235.61,-620 2229.61,-626 2223.61,-626"/>
<text text-anchor="middle" x="2208.61" y="-604.3" font-family="Times,serif" font-size="14.00">BUF</text>
</g>
<!-- n14&#45;&gt;x9 -->
<g id="edge23" class="edge">
<title>n14:e&#45;&gt;x9:w</title>
<path fill="none" stroke="black" d="M2041.11,-554C2061.11,-554 2059.1,-572.31 2077.11,-581 2116.75,-600.12 2130.96,-606.98 2170.57,-607.89"/>
<polygon fill="black" stroke="black" points="2170.57,-611.39 2180.61,-608 2170.65,-604.39 2170.57,-611.39"/>
</g>
<!-- x13 -->
<g id="node59" class="node">
<title>x13</title>
<path fill="none" stroke="black" d="M2223.61,-572C2223.61,-572 2193.61,-572 2193.61,-572 2187.61,-572 2181.61,-566 2181.61,-560 2181.61,-560 2181.61,-548 2181.61,-548 2181.61,-542 2187.61,-536 2193.61,-536 2193.61,-536 2223.61,-536 2223.61,-536 2229.61,-536 2235.61,-542 2235.61,-548 2235.61,-548 2235.61,-560 2235.61,-560 2235.61,-566 2229.61,-572 2223.61,-572"/>
<text text-anchor="middle" x="2208.61" y="-550.3" font-family="Times,serif" font-size="14.00">BUF</text>
</g>
<!-- n14&#45;&gt;x13 -->
<g id="edge21" class="edge">
<title>n14:e&#45;&gt;x13:w</title>
<path fill="none" stroke="black" d="M2041.11,-554C2099.6,-554 2116.71,-554 2170.51,-554"/>
<polygon fill="black" stroke="black" points="2170.61,-557.5 2180.61,-554 2170.61,-550.5 2170.61,-557.5"/>
</g>
<!-- x19 -->
<g id="node65" class="node">
<title>x19</title>
<path fill="none" stroke="black" d="M2223.61,-518C2223.61,-518 2193.61,-518 2193.61,-518 2187.61,-518 2181.61,-512 2181.61,-506 2181.61,-506 2181.61,-494 2181.61,-494 2181.61,-488 2187.61,-482 2193.61,-482 2193.61,-482 2223.61,-482 2223.61,-482 2229.61,-482 2235.61,-488 2235.61,-494 2235.61,-494 2235.61,-506 2235.61,-506 2235.61,-512 2229.61,-518 2223.61,-518"/>
<text text-anchor="middle" x="2208.61" y="-496.3" font-family="Times,serif" font-size="14.00">BUF</text>
</g>
<!-- n14&#45;&gt;x19 -->
<g id="edge22" class="edge">
<title>n14:e&#45;&gt;x19:w</title>
<path fill="none" stroke="black" d="M2041.11,-554C2061.11,-554 2059.1,-535.69 2077.11,-527 2116.75,-507.88 2130.96,-501.02 2170.57,-500.11"/>
<polygon fill="black" stroke="black" points="2170.65,-503.61 2180.61,-500 2170.57,-496.61 2170.65,-503.61"/>
</g>
<!-- n15 -->
<g id="node15" class="node">
<title>n15</title>
<polygon fill="none" stroke="black" points="2532.37,-680 2406.52,-662 2532.37,-644 2658.22,-662 2532.37,-680"/>
<text text-anchor="middle" x="2532.37" y="-658.3" font-family="Times,serif" font-size="14.00">mux_0.and_1.out</text>
</g>
<!-- n16 -->
<g id="node16" class="node">
<title>n16</title>
<polygon fill="none" stroke="black" points="525.39,-433 413.11,-415 525.39,-397 637.66,-415 525.39,-433"/>
<text text-anchor="middle" x="525.39" y="-411.3" font-family="Times,serif" font-size="14.00">mux_0.and_2.a</text>
</g>
<!-- n17 -->
<g id="node17" class="node">
<title>n17</title>
<polygon fill="none" stroke="black" points="525.39,-182 369.37,-164 525.39,-146 681.4,-164 525.39,-182"/>
<text text-anchor="middle" x="525.39" y="-160.3" font-family="Times,serif" font-size="14.00">mux_0.and_2.aNandb</text>
</g>
<!-- c43 -->
<g id="node41" class="node">
<title>c43</title>
<polygon fill="none" stroke="black" points="717.64,-141 717.64,-187 992.64,-187 992.64,-141 717.64,-141"/>
<text text-anchor="middle" x="730.64" y="-171.8" font-family="Times,serif" font-size="14.00">a</text>
<polyline fill="none" stroke="black" points="717.64,-164 743.64,-164 "/>
<text text-anchor="middle" x="730.64" y="-148.8" font-family="Times,serif" font-size="14.00">b</text>
<polyline fill="none" stroke="black" points="743.64,-141 743.64,-187 "/>
<text text-anchor="middle" x="848.14" y="-167.8" font-family="Times,serif" font-size="14.00">mux_0.and_2.not_1.nand_0</text>
<text text-anchor="middle" x="848.14" y="-152.8" font-family="Times,serif" font-size="14.00">Nand</text>
<polyline fill="none" stroke="black" points="952.64,-141 952.64,-187 "/>
<text text-anchor="middle" x="972.64" y="-160.3" font-family="Times,serif" font-size="14.00">out</text>
</g>
<!-- n17&#45;&gt;c43 -->
<g id="edge27" class="edge">
<title>n17:e&#45;&gt;c43:w</title>
<path fill="none" stroke="black" d="M681.64,-164C694.42,-164 698.82,-170.89 707.54,-174.23"/>
<polygon fill="black" stroke="black" points="707.19,-177.72 717.64,-176 708.4,-170.83 707.19,-177.72"/>
</g>
<!-- n17&#45;&gt;c43 -->
<g id="edge28" class="edge">
<title>n17:e&#45;&gt;c43:w</title>
<path fill="none" stroke="black" d="M681.64,-164C694.42,-164 698.82,-157.11 707.54,-153.77"/>
<polygon fill="black" stroke="black" points="708.4,-157.17 717.64,-152 707.19,-150.28 708.4,-157.17"/>
</g>
<!-- x2 -->
<g id="node48" class="node">
<title>x2</title>
<path fill="none" stroke="black" d="M870.14,-122C870.14,-122 840.14,-122 840.14,-122 834.14,-122 828.14,-116 828.14,-110 828.14,-110 828.14,-98 828.14,-98 828.14,-92 834.14,-86 840.14,-86 840.14,-86 870.14,-86 870.14,-86 876.14,-86 882.14,-92 882.14,-98 882.14,-98 882.14,-110 882.14,-110 882.14,-116 876.14,-122 870.14,-122"/>
<text text-anchor="middle" x="855.14" y="-100.3" font-family="Times,serif" font-size="14.00">BUF</text>
</g>
<!-- n17&#45;&gt;x2 -->
<g id="edge29" class="edge">
<title>n17:e&#45;&gt;x2:w</title>
<path fill="none" stroke="black" d="M681.64,-164C703.35,-164 698.51,-141.25 717.64,-131 758.72,-108.99 774.74,-104.57 817.06,-104.06"/>
<polygon fill="black" stroke="black" points="817.16,-107.55 827.14,-104 817.12,-100.56 817.16,-107.55"/>
</g>
<!-- n18 -->
<g id="node18" class="node">
<title>n18</title>
<polygon fill="none" stroke="black" points="525.39,-125 412.27,-107 525.39,-89 638.5,-107 525.39,-125"/>
<text text-anchor="middle" x="525.39" y="-103.3" font-family="Times,serif" font-size="14.00">mux_0.and_2.b</text>
</g>
<!-- n19 -->
<g id="node19" class="node">
<title>n19</title>
<polygon fill="none" stroke="black" points="1195.01,-122 1037.66,-104 1195.01,-86 1352.36,-104 1195.01,-122"/>
<text text-anchor="middle" x="1195.01" y="-100.3" font-family="Times,serif" font-size="14.00">mux_0.and_2.not_1.in</text>
</g>
<!-- n20 -->
<g id="node20" class="node">
<title>n20</title>
<polygon fill="none" stroke="black" points="1195.01,-179 1028.77,-161 1195.01,-143 1361.24,-161 1195.01,-179"/>
<text text-anchor="middle" x="1195.01" y="-157.3" font-family="Times,serif" font-size="14.00">mux_0.and_2.not_1.out</text>
</g>
<!-- c47 -->
<g id="node45" class="node">
<title>c47</title>
<polygon fill="none" stroke="black" points="1403.38,-78 1403.38,-124 1666.38,-124 1666.38,-78 1403.38,-78"/>
<text text-anchor="middle" x="1416.38" y="-108.8" font-family="Times,serif" font-size="14.00">a</text>
<polyline fill="none" stroke="black" points="1403.38,-101 1429.38,-101 "/>
<text text-anchor="middle" x="1416.38" y="-85.8" font-family="Times,serif" font-size="14.00">b</text>
<polyline fill="none" stroke="black" points="1429.38,-78 1429.38,-124 "/>
<text text-anchor="middle" x="1527.88" y="-104.8" font-family="Times,serif" font-size="14.00">mux_0.or_3.not_1.nand_0</text>
<text text-anchor="middle" x="1527.88" y="-89.8" font-family="Times,serif" font-size="14.00">Nand</text>
<polyline fill="none" stroke="black" points="1626.38,-78 1626.38,-124 "/>
<text text-anchor="middle" x="1646.38" y="-97.3" font-family="Times,serif" font-size="14.00">out</text>
</g>
<!-- n20&#45;&gt;c47 -->
<g id="edge36" class="edge">
<title>n20:e&#45;&gt;c47:w</title>
<path fill="none" stroke="black" d="M1361.38,-161C1385.15,-161 1377.56,-126.19 1392.02,-115.86"/>
<polygon fill="black" stroke="black" points="1393.25,-119.15 1401.88,-113 1391.3,-112.42 1393.25,-119.15"/>
</g>
<!-- n20&#45;&gt;c47 -->
<g id="edge37" class="edge">
<title>n20:e&#45;&gt;c47:w</title>
<path fill="none" stroke="black" d="M1361.38,-161C1394.08,-161 1371.53,-103.89 1392.15,-91.4"/>
<polygon fill="black" stroke="black" points="1393,-94.79 1401.88,-89 1391.33,-87.99 1393,-94.79"/>
</g>
<!-- x3 -->
<g id="node49" class="node">
<title>x3</title>
<path fill="none" stroke="black" d="M1549.88,-59C1549.88,-59 1519.88,-59 1519.88,-59 1513.88,-59 1507.88,-53 1507.88,-47 1507.88,-47 1507.88,-35 1507.88,-35 1507.88,-29 1513.88,-23 1519.88,-23 1519.88,-23 1549.88,-23 1549.88,-23 1555.88,-23 1561.88,-29 1561.88,-35 1561.88,-35 1561.88,-47 1561.88,-47 1561.88,-53 1555.88,-59 1549.88,-59"/>
<text text-anchor="middle" x="1534.88" y="-37.3" font-family="Times,serif" font-size="14.00">BUF</text>
</g>
<!-- n20&#45;&gt;x3 -->
<g id="edge41" class="edge">
<title>n20:e&#45;&gt;x3:w</title>
<path fill="none" stroke="black" d="M1361.38,-161C1405.7,-161 1364.1,-97.28 1397.38,-68 1432.36,-37.22 1453.62,-40.33 1496.71,-40.93"/>
<polygon fill="black" stroke="black" points="1496.85,-44.43 1506.88,-41 1496.9,-37.43 1496.85,-44.43"/>
</g>
<!-- x11 -->
<g id="node57" class="node">
<title>x11</title>
<path fill="none" stroke="black" d="M1549.88,-287C1549.88,-287 1519.88,-287 1519.88,-287 1513.88,-287 1507.88,-281 1507.88,-275 1507.88,-275 1507.88,-263 1507.88,-263 1507.88,-257 1513.88,-251 1519.88,-251 1519.88,-251 1549.88,-251 1549.88,-251 1555.88,-251 1561.88,-257 1561.88,-263 1561.88,-263 1561.88,-275 1561.88,-275 1561.88,-281 1555.88,-287 1549.88,-287"/>
<text text-anchor="middle" x="1534.88" y="-265.3" font-family="Times,serif" font-size="14.00">BUF</text>
</g>
<!-- n20&#45;&gt;x11 -->
<g id="edge38" class="edge">
<title>n20:e&#45;&gt;x11:w</title>
<path fill="none" stroke="black" d="M1361.38,-161C1400.77,-161 1367.17,-216.71 1397.38,-242 1433.1,-271.92 1453.72,-269.54 1496.72,-269.06"/>
<polygon fill="black" stroke="black" points="1496.9,-272.56 1506.88,-269 1496.86,-265.56 1496.9,-272.56"/>
</g>
<!-- x12 -->
<g id="node58" class="node">
<title>x12</title>
<path fill="none" stroke="black" d="M1549.88,-233C1549.88,-233 1519.88,-233 1519.88,-233 1513.88,-233 1507.88,-227 1507.88,-221 1507.88,-221 1507.88,-209 1507.88,-209 1507.88,-203 1513.88,-197 1519.88,-197 1519.88,-197 1549.88,-197 1549.88,-197 1555.88,-197 1561.88,-203 1561.88,-209 1561.88,-209 1561.88,-221 1561.88,-221 1561.88,-227 1555.88,-233 1549.88,-233"/>
<text text-anchor="middle" x="1534.88" y="-211.3" font-family="Times,serif" font-size="14.00">BUF</text>
</g>
<!-- n20&#45;&gt;x12 -->
<g id="edge39" class="edge">
<title>n20:e&#45;&gt;x12:w</title>
<path fill="none" stroke="black" d="M1361.38,-161C1381.38,-161 1379.3,-179.43 1397.38,-188 1439.49,-207.96 1454.62,-214.14 1496.81,-214.91"/>
<polygon fill="black" stroke="black" points="1496.85,-218.41 1506.88,-215 1496.91,-211.41 1496.85,-218.41"/>
</g>
<!-- x18 -->
<g id="node64" class="node">
<title>x18</title>
<path fill="none" stroke="black" d="M1549.88,-179C1549.88,-179 1519.88,-179 1519.88,-179 1513.88,-179 1507.88,-173 1507.88,-167 1507.88,-167 1507.88,-155 1507.88,-155 1507.88,-149 1513.88,-143 1519.88,-143 1519.88,-143 1549.88,-143 1549.88,-143 1555.88,-143 1561.88,-149 1561.88,-155 1561.88,-155 1561.88,-167 1561.88,-167 1561.88,-173 1555.88,-179 1549.88,-179"/>
<text text-anchor="middle" x="1534.88" y="-157.3" font-family="Times,serif" font-size="14.00">BUF</text>
</g>
<!-- n20&#45;&gt;x18 -->
<g id="edge40" class="edge">
<title>n20:e&#45;&gt;x18:w</title>
<path fill="none" stroke="black" d="M1361.38,-161C1422.51,-161 1440.3,-161 1496.69,-161"/>
<polygon fill="black" stroke="black" points="1496.88,-164.5 1506.88,-161 1496.88,-157.5 1496.88,-164.5"/>
</g>
<!-- n21 -->
<g id="node21" class="node">
<title>n21</title>
<polygon fill="none" stroke="black" points="1874.74,-59 1748.9,-41 1874.74,-23 2000.59,-41 1874.74,-59"/>
<text text-anchor="middle" x="1874.74" y="-37.3" font-family="Times,serif" font-size="14.00">mux_0.and_2.out</text>
</g>
<!-- n22 -->
<g id="node22" class="node">
<title>n22</title>
<polygon fill="none" stroke="black" points="525.39,-71 454.83,-53 525.39,-35 595.94,-53 525.39,-71"/>
<text text-anchor="middle" x="525.39" y="-49.3" font-family="Times,serif" font-size="14.00">mux_0.b</text>
</g>
<!-- n23 -->
<g id="node23" class="node">
<title>n23</title>
<polygon fill="none" stroke="black" points="525.39,-379 410.6,-361 525.39,-343 640.17,-361 525.39,-379"/>
<text text-anchor="middle" x="525.39" y="-357.3" font-family="Times,serif" font-size="14.00">mux_0.not_0.in</text>
</g>
<!-- n24 -->
<g id="node24" class="node">
<title>n24</title>
<polygon fill="none" stroke="black" points="1195.01,-661 1071.67,-643 1195.01,-625 1318.34,-643 1195.01,-661"/>
<text text-anchor="middle" x="1195.01" y="-639.3" font-family="Times,serif" font-size="14.00">mux_0.not_0.out</text>
</g>
<!-- n25 -->
<g id="node25" class="node">
<title>n25</title>
<polygon fill="none" stroke="black" points="2532.37,-572 2430.32,-554 2532.37,-536 2634.42,-554 2532.37,-572"/>
<text text-anchor="middle" x="2532.37" y="-550.3" font-family="Times,serif" font-size="14.00">mux_0.or_3.a</text>
</g>
<!-- n26 -->
<g id="node26" class="node">
<title>n26</title>
<polygon fill="none" stroke="black" points="1874.74,-233 1771.85,-215 1874.74,-197 1977.64,-215 1874.74,-233"/>
<text text-anchor="middle" x="1874.74" y="-211.3" font-family="Times,serif" font-size="14.00">mux_0.or_3.b</text>
</g>
<!-- n27 -->
<g id="node27" class="node">
<title>n27</title>
<polygon fill="none" stroke="black" points="2532.37,-452 2422.27,-434 2532.37,-416 2642.47,-434 2532.37,-452"/>
<text text-anchor="middle" x="2532.37" y="-430.3" font-family="Times,serif" font-size="14.00">mux_0.or_3.na</text>
</g>
<!-- c45 -->
<g id="node43" class="node">
<title>c45</title>
<polygon fill="none" stroke="black" points="2724.63,-348 2724.63,-394 2944.63,-394 2944.63,-348 2724.63,-348"/>
<text text-anchor="middle" x="2737.63" y="-378.8" font-family="Times,serif" font-size="14.00">a</text>
<polyline fill="none" stroke="black" points="2724.63,-371 2750.63,-371 "/>
<text text-anchor="middle" x="2737.63" y="-355.8" font-family="Times,serif" font-size="14.00">b</text>
<polyline fill="none" stroke="black" points="2750.63,-348 2750.63,-394 "/>
<text text-anchor="middle" x="2827.63" y="-374.8" font-family="Times,serif" font-size="14.00">mux_0.or_3.nand_2</text>
<text text-anchor="middle" x="2827.63" y="-359.8" font-family="Times,serif" font-size="14.00">Nand</text>
<polyline fill="none" stroke="black" points="2904.63,-348 2904.63,-394 "/>
<text text-anchor="middle" x="2924.63" y="-367.3" font-family="Times,serif" font-size="14.00">out</text>
</g>
<!-- n27&#45;&gt;c45 -->
<g id="edge49" class="edge">
<title>n27:e&#45;&gt;c45:w</title>
<path fill="none" stroke="black" d="M2643.37,-434C2682.34,-434 2682.33,-391.39 2714.61,-384.07"/>
<polygon fill="black" stroke="black" points="2715.05,-387.54 2724.63,-383 2714.31,-380.58 2715.05,-387.54"/>
</g>
<!-- x8 -->
<g id="node54" class="node">
<title>x8</title>
<path fill="none" stroke="black" d="M2849.63,-452C2849.63,-452 2819.63,-452 2819.63,-452 2813.63,-452 2807.63,-446 2807.63,-440 2807.63,-440 2807.63,-428 2807.63,-428 2807.63,-422 2813.63,-416 2819.63,-416 2819.63,-416 2849.63,-416 2849.63,-416 2855.63,-416 2861.63,-422 2861.63,-428 2861.63,-428 2861.63,-440 2861.63,-440 2861.63,-446 2855.63,-452 2849.63,-452"/>
<text text-anchor="middle" x="2834.63" y="-430.3" font-family="Times,serif" font-size="14.00">BUF</text>
</g>
<!-- n27&#45;&gt;x8 -->
<g id="edge50" class="edge">
<title>n27:e&#45;&gt;x8:w</title>
<path fill="none" stroke="black" d="M2643.37,-434C2712.38,-434 2732.17,-434 2796.37,-434"/>
<polygon fill="black" stroke="black" points="2796.63,-437.5 2806.63,-434 2796.63,-430.5 2796.63,-437.5"/>
</g>
<!-- n28 -->
<g id="node28" class="node">
<title>n28</title>
<polygon fill="none" stroke="black" points="1874.74,-122 1763.31,-104 1874.74,-86 1986.18,-104 1874.74,-122"/>
<text text-anchor="middle" x="1874.74" y="-100.3" font-family="Times,serif" font-size="14.00">mux_0.or_3.nb</text>
</g>
<!-- n28&#45;&gt;c45 -->
<g id="edge52" class="edge">
<title>n28:e&#45;&gt;c45:w</title>
<path fill="none" stroke="black" d="M1986.74,-104C2007.2,-104 2626.42,-330.93 2714.71,-356.64"/>
<polygon fill="black" stroke="black" points="2714.09,-360.09 2724.63,-359 2715.71,-353.28 2714.09,-360.09"/>
</g>
<!-- x10 -->
<g id="node56" class="node">
<title>x10</title>
<path fill="none" stroke="black" d="M2223.61,-122C2223.61,-122 2193.61,-122 2193.61,-122 2187.61,-122 2181.61,-116 2181.61,-110 2181.61,-110 2181.61,-98 2181.61,-98 2181.61,-92 2187.61,-86 2193.61,-86 2193.61,-86 2223.61,-86 2223.61,-86 2229.61,-86 2235.61,-92 2235.61,-98 2235.61,-98 2235.61,-110 2235.61,-110 2235.61,-116 2229.61,-122 2223.61,-122"/>
<text text-anchor="middle" x="2208.61" y="-100.3" font-family="Times,serif" font-size="14.00">BUF</text>
</g>
<!-- n28&#45;&gt;x10 -->
<g id="edge53" class="edge">
<title>n28:e&#45;&gt;x10:w</title>
<path fill="none" stroke="black" d="M1986.74,-104C2069.37,-104 2092.57,-104 2170.33,-104"/>
<polygon fill="black" stroke="black" points="2170.61,-107.5 2180.61,-104 2170.61,-100.5 2170.61,-107.5"/>
</g>
<!-- n29 -->
<g id="node29" class="node">
<title>n29</title>
<polygon fill="none" stroke="black" points="2532.37,-626 2385.24,-608 2532.37,-590 2679.5,-608 2532.37,-626"/>
<text text-anchor="middle" x="2532.37" y="-604.3" font-family="Times,serif" font-size="14.00">mux_0.or_3.not_0.in</text>
</g>
<!-- n30 -->
<g id="node30" class="node">
<title>n30</title>
<polygon fill="none" stroke="black" points="3136.88,-452 2980.87,-434 3136.88,-416 3292.9,-434 3136.88,-452"/>
<text text-anchor="middle" x="3136.88" y="-430.3" font-family="Times,serif" font-size="14.00">mux_0.or_3.not_0.out</text>
</g>
<!-- n31 -->
<g id="node31" class="node">
<title>n31</title>
<polygon fill="none" stroke="black" points="1874.74,-287 1727.61,-269 1874.74,-251 2021.87,-269 1874.74,-287"/>
<text text-anchor="middle" x="1874.74" y="-265.3" font-family="Times,serif" font-size="14.00">mux_0.or_3.not_1.in</text>
</g>
<!-- n32 -->
<g id="node32" class="node">
<title>n32</title>
<polygon fill="none" stroke="black" points="2532.37,-122 2376.35,-104 2532.37,-86 2688.38,-104 2532.37,-122"/>
<text text-anchor="middle" x="2532.37" y="-100.3" font-family="Times,serif" font-size="14.00">mux_0.or_3.not_1.out</text>
</g>
<!-- n33 -->
<g id="node33" class="node">
<title>n33</title>
<polygon fill="none" stroke="black" points="3136.88,-389 3021.25,-371 3136.88,-353 3252.51,-371 3136.88,-389"/>
<text text-anchor="middle" x="3136.88" y="-367.3" font-family="Times,serif" font-size="14.00">mux_0.or_3.out</text>
</g>
<!-- c37 -->
<g id="node37" class="node">
<title>c37</title>
<polygon fill="none" stroke="black" points="3329.14,-296 3329.14,-334 3450.14,-334 3450.14,-296 3329.14,-296"/>
<text text-anchor="middle" x="3344.14" y="-311.3" font-family="Times,serif" font-size="14.00">in</text>
<polyline fill="none" stroke="black" points="3359.14,-296 3359.14,-334 "/>
<text text-anchor="middle" x="3384.64" y="-318.8" font-family="Times,serif" font-size="14.00">dff_1</text>
<text text-anchor="middle" x="3384.64" y="-303.8" font-family="Times,serif" font-size="14.00">DFF</text>
<polyline fill="none" stroke="black" points="3410.14,-296 3410.14,-334 "/>
<text text-anchor="middle" x="3430.14" y="-311.3" font-family="Times,serif" font-size="14.00">out</text>
</g>
<!-- n33&#45;&gt;c37 -->
<g id="edge65" class="edge">
<title>n33:e&#45;&gt;c37:w</title>
<path fill="none" stroke="black" d="M3253.88,-371C3291.83,-371 3288.51,-324.61 3319.04,-316.27"/>
<polygon fill="black" stroke="black" points="3319.66,-319.72 3329.14,-315 3318.78,-312.78 3319.66,-319.72"/>
</g>
<!-- x15 -->
<g id="node61" class="node">
<title>x15</title>
<path fill="none" stroke="black" d="M3404.64,-389C3404.64,-389 3374.64,-389 3374.64,-389 3368.64,-389 3362.64,-383 3362.64,-377 3362.64,-377 3362.64,-365 3362.64,-365 3362.64,-359 3368.64,-353 3374.64,-353 3374.64,-353 3404.64,-353 3404.64,-353 3410.64,-353 3416.64,-359 3416.64,-365 3416.64,-365 3416.64,-377 3416.64,-377 3416.64,-383 3410.64,-389 3404.64,-389"/>
<text text-anchor="middle" x="3389.64" y="-367.3" font-family="Times,serif" font-size="14.00">BUF</text>
</g>
<!-- n33&#45;&gt;x15 -->
<g id="edge66" class="edge">
<title>n33:e&#45;&gt;x15:w</title>
<path fill="none" stroke="black" d="M3253.88,-371C3298.22,-371 3311.77,-371 3351.54,-371"/>
<polygon fill="black" stroke="black" points="3351.64,-374.5 3361.64,-371 3351.64,-367.5 3351.64,-374.5"/>
</g>
<!-- x23 -->
<g id="node69" class="node">
<title>x23</title>
<path fill="none" stroke="black" d="M3404.64,-443C3404.64,-443 3374.64,-443 3374.64,-443 3368.64,-443 3362.64,-437 3362.64,-431 3362.64,-431 3362.64,-419 3362.64,-419 3362.64,-413 3368.64,-407 3374.64,-407 3374.64,-407 3404.64,-407 3404.64,-407 3410.64,-407 3416.64,-413 3416.64,-419 3416.64,-419 3416.64,-431 3416.64,-431 3416.64,-437 3410.64,-443 3404.64,-443"/>
<text text-anchor="middle" x="3389.64" y="-421.3" font-family="Times,serif" font-size="14.00">BUF</text>
</g>
<!-- n33&#45;&gt;x23 -->
<g id="edge67" class="edge">
<title>n33:e&#45;&gt;x23:w</title>
<path fill="none" stroke="black" d="M3253.88,-371C3303.89,-371 3307.75,-418.07 3351.64,-424.32"/>
<polygon fill="black" stroke="black" points="3351.42,-427.81 3361.64,-425 3351.9,-420.83 3351.42,-427.81"/>
</g>
<!-- n34 -->
<g id="node34" class="node">
<title>n34</title>
<polygon fill="none" stroke="black" points="3569.78,-389 3485.99,-371 3569.78,-353 3653.57,-371 3569.78,-389"/>
<text text-anchor="middle" x="3569.78" y="-367.3" font-family="Times,serif" font-size="14.00">mux_0.out</text>
</g>
<!-- n35 -->
<g id="node35" class="node">
<title>n35</title>
<polygon fill="none" stroke="black" points="525.39,-667 444.61,-649 525.39,-631 606.16,-649 525.39,-667"/>
<text text-anchor="middle" x="525.39" y="-645.3" font-family="Times,serif" font-size="14.00">mux_0.sel</text>
</g>
<!-- n36 -->
<g id="node36" class="node">
<title>n36</title>
<polygon fill="none" stroke="black" points="1223.29,-407.54 1223.29,-422.46 1206.72,-433 1183.3,-433 1166.73,-422.46 1166.73,-407.54 1183.3,-397 1206.72,-397 1223.29,-407.54"/>
<text text-anchor="middle" x="1195.01" y="-411.3" font-family="Times,serif" font-size="14.00">out</text>
</g>
<!-- c37&#45;&gt;n12 -->
<g id="edge10" class="edge">
<title>c37:e&#45;&gt;n12:w</title>
<path fill="none" stroke="black" d="M3451.64,-315C3460.32,-315 3456.93,-328.52 3450.64,-334.5 3431.06,-353.1 3356.13,-335.03 3329.14,-334.5 3109.67,-330.17 3055.14,-315 2835.63,-315 1194.01,-315 1194.01,-315 1194.01,-315 982.12,-315 887.03,-206.71 717.64,-334 677.19,-364.4 707.8,-398.69 681.64,-442 667.31,-465.73 663.95,-476.13 638.44,-487 546.02,-526.39 485.37,-556.04 412.39,-487 410.02,-484.76 408.09,-481.37 407.17,-478.14"/>
<polygon fill="black" stroke="black" points="410.37,-479.55 411.39,-469 404.02,-476.61 410.37,-479.55"/>
</g>
<!-- c40&#45;&gt;n11 -->
<g id="edge6" class="edge">
<title>c40:e&#45;&gt;n11:w</title>
<path fill="none" stroke="black" d="M972.14,-583C997.78,-583 1006.55,-580.7 1027.97,-580.13"/>
<polygon fill="black" stroke="black" points="1028.06,-583.63 1038.01,-580 1027.97,-576.63 1028.06,-583.63"/>
</g>
<!-- c41&#45;&gt;n14 -->
<g id="edge17" class="edge">
<title>c41:e&#45;&gt;n14:w</title>
<path fill="none" stroke="black" d="M1672.38,-565C1685.06,-565 1689.58,-558.68 1698.32,-555.62"/>
<polygon fill="black" stroke="black" points="1699.06,-559.05 1708.38,-554 1697.95,-552.14 1699.06,-559.05"/>
</g>
<!-- c42&#45;&gt;n17 -->
<g id="edge26" class="edge">
<title>c42:e&#45;&gt;n17:w</title>
<path fill="none" stroke="black" d="M333.13,-167C345.17,-167 350.37,-165.31 358.99,-164.47"/>
<polygon fill="black" stroke="black" points="359.3,-167.96 369.13,-164 358.98,-160.97 359.3,-167.96"/>
</g>
<!-- c43&#45;&gt;n20 -->
<g id="edge35" class="edge">
<title>c43:e&#45;&gt;n20:w</title>
<path fill="none" stroke="black" d="M992.64,-164C1004.68,-164 1009.88,-162.31 1018.5,-161.47"/>
<polygon fill="black" stroke="black" points="1018.81,-164.96 1028.64,-161 1018.49,-157.97 1018.81,-164.96"/>
</g>
<!-- c44&#45;&gt;n10 -->
<g id="edge2" class="edge">
<title>c44:e&#45;&gt;n10:w</title>
<path fill="none" stroke="black" d="M332.63,-475C392.91,-475 353.62,-581.35 402.24,-593.81"/>
<polygon fill="black" stroke="black" points="402.05,-597.31 412.39,-595 402.86,-590.36 402.05,-597.31"/>
</g>
<!-- c45&#45;&gt;n33 -->
<g id="edge64" class="edge">
<title>c45:e&#45;&gt;n33:w</title>
<path fill="none" stroke="black" d="M2944.63,-371C2974.41,-371 2984.31,-371 3009.74,-371"/>
<polygon fill="black" stroke="black" points="3009.88,-374.5 3019.88,-371 3009.88,-367.5 3009.88,-374.5"/>
</g>
<!-- c46&#45;&gt;n27 -->
<g id="edge48" class="edge">
<title>c46:e&#45;&gt;n27:w</title>
<path fill="none" stroke="black" d="M2340.11,-440C2372.65,-440 2383.08,-435.16 2411.12,-434.17"/>
<polygon fill="black" stroke="black" points="2411.43,-437.67 2421.37,-434 2411.31,-430.67 2411.43,-437.67"/>
</g>
<!-- c47&#45;&gt;n28 -->
<g id="edge51" class="edge">
<title>c47:e&#45;&gt;n28:w</title>
<path fill="none" stroke="black" d="M1667.88,-101C1706.44,-101 1718.52,-103.51 1752.53,-103.94"/>
<polygon fill="black" stroke="black" points="1752.72,-107.44 1762.74,-104 1752.77,-100.44 1752.72,-107.44"/>
</g>
<!-- x0&#45;&gt;n13 -->
<g id="edge16" class="edge">
<title>x0:e&#45;&gt;n13:w</title>
<path fill="none" stroke="black" d="M1562.88,-625C1627.79,-625 1646.49,-625 1706.71,-625"/>
<polygon fill="black" stroke="black" points="1706.74,-628.5 1716.74,-625 1706.74,-621.5 1706.74,-628.5"/>
</g>
<!-- x1&#45;&gt;n15 -->
<g id="edge24" class="edge">
<title>x1:e&#45;&gt;n15:w</title>
<path fill="none" stroke="black" d="M2236.61,-662C2308.1,-662 2328.48,-662 2395.18,-662"/>
<polygon fill="black" stroke="black" points="2395.37,-665.5 2405.37,-662 2395.37,-658.5 2395.37,-665.5"/>
</g>
<!-- x2&#45;&gt;n19 -->
<g id="edge31" class="edge">
<title>x2:e&#45;&gt;n19:w</title>
<path fill="none" stroke="black" d="M883.14,-104C948.05,-104 966.76,-104 1026.97,-104"/>
<polygon fill="black" stroke="black" points="1027.01,-107.5 1037.01,-104 1027.01,-100.5 1027.01,-107.5"/>
</g>
<!-- x3&#45;&gt;n21 -->
<g id="edge42" class="edge">
<title>x3:e&#45;&gt;n21:w</title>
<path fill="none" stroke="black" d="M1562.88,-41C1641.51,-41 1663.7,-41 1737.48,-41"/>
<polygon fill="black" stroke="black" points="1737.74,-44.5 1747.74,-41 1737.74,-37.5 1737.74,-44.5"/>
</g>
<!-- x4&#45;&gt;n18 -->
<g id="edge30" class="edge">
<title>x4:e&#45;&gt;n18:w</title>
<path fill="none" stroke="black" d="M245.63,-107C315.84,-107 335.87,-107 401.38,-107"/>
<polygon fill="black" stroke="black" points="401.39,-110.5 411.39,-107 401.38,-103.5 401.39,-110.5"/>
</g>
<!-- x5&#45;&gt;n16 -->
<g id="edge25" class="edge">
<title>x5:e&#45;&gt;n16:w</title>
<path fill="none" stroke="black" d="M245.63,-415C316.27,-415 336.41,-415 402.32,-415"/>
<polygon fill="black" stroke="black" points="402.39,-418.5 412.39,-415 402.38,-411.5 402.39,-418.5"/>
</g>
<!-- x6&#45;&gt;n24 -->
<g id="edge45" class="edge">
<title>x6:e&#45;&gt;n24:w</title>
<path fill="none" stroke="black" d="M883.14,-643C963.05,-643 985.6,-643 1060.58,-643"/>
<polygon fill="black" stroke="black" points="1061.01,-646.5 1071.01,-643 1061.01,-639.5 1061.01,-646.5"/>
</g>
<!-- x7&#45;&gt;n23 -->
<g id="edge44" class="edge">
<title>x7:e&#45;&gt;n23:w</title>
<path fill="none" stroke="black" d="M245.63,-361C314.86,-361 334.7,-361 399.1,-361"/>
<polygon fill="black" stroke="black" points="399.39,-364.5 409.39,-361 399.38,-357.5 399.39,-364.5"/>
</g>
<!-- x8&#45;&gt;n30 -->
<g id="edge61" class="edge">
<title>x8:e&#45;&gt;n30:w</title>
<path fill="none" stroke="black" d="M2862.63,-434C2911.48,-434 2926.2,-434 2970.4,-434"/>
<polygon fill="black" stroke="black" points="2970.63,-437.5 2980.63,-434 2970.63,-430.5 2970.63,-437.5"/>
</g>
<!-- x9&#45;&gt;n29 -->
<g id="edge54" class="edge">
<title>x9:e&#45;&gt;n29:w</title>
<path fill="none" stroke="black" d="M2236.61,-608C2298.69,-608 2316.76,-608 2374.02,-608"/>
<polygon fill="black" stroke="black" points="2374.37,-611.5 2384.37,-608 2374.37,-604.5 2374.37,-611.5"/>
</g>
<!-- x10&#45;&gt;n32 -->
<g id="edge63" class="edge">
<title>x10:e&#45;&gt;n32:w</title>
<path fill="none" stroke="black" d="M2236.61,-104C2295.1,-104 2312.21,-104 2366.01,-104"/>
<polygon fill="black" stroke="black" points="2366.11,-107.5 2376.11,-104 2366.11,-100.5 2366.11,-107.5"/>
</g>
<!-- x11&#45;&gt;n31 -->
<g id="edge62" class="edge">
<title>x11:e&#45;&gt;n31:w</title>
<path fill="none" stroke="black" d="M1562.88,-269C1632.15,-269 1652.01,-269 1716.45,-269"/>
<polygon fill="black" stroke="black" points="1716.74,-272.5 1726.74,-269 1716.74,-265.5 1716.74,-272.5"/>
</g>
<!-- x12&#45;&gt;n26 -->
<g id="edge47" class="edge">
<title>x12:e&#45;&gt;n26:w</title>
<path fill="none" stroke="black" d="M1562.88,-215C1651.83,-215 1676.55,-215 1760.74,-215"/>
<polygon fill="black" stroke="black" points="1760.74,-218.5 1770.74,-215 1760.74,-211.5 1760.74,-218.5"/>
</g>
<!-- x13&#45;&gt;n25 -->
<g id="edge46" class="edge">
<title>x13:e&#45;&gt;n25:w</title>
<path fill="none" stroke="black" d="M2236.61,-554C2318.77,-554 2341.83,-554 2419.14,-554"/>
<polygon fill="black" stroke="black" points="2419.37,-557.5 2429.37,-554 2419.37,-550.5 2419.37,-557.5"/>
</g>
<!-- x14&#45;&gt;n35 -->
<g id="edge69" class="edge">
<title>x14:e&#45;&gt;n35:w</title>
<path fill="none" stroke="black" d="M245.63,-592C333.61,-592 350.68,-644.74 433.26,-648.76"/>
<polygon fill="black" stroke="black" points="433.3,-652.26 443.39,-649 433.47,-645.26 433.3,-652.26"/>
</g>
<!-- x15&#45;&gt;n34 -->
<g id="edge68" class="edge">
<title>x15:e&#45;&gt;n34:w</title>
<path fill="none" stroke="black" d="M3417.64,-371C3444.4,-371 3453.52,-371 3476,-371"/>
<polygon fill="black" stroke="black" points="3476.14,-374.5 3486.14,-371 3476.14,-367.5 3476.14,-374.5"/>
</g>
<!-- x16&#45;&gt;n22 -->
<g id="edge43" class="edge">
<title>x16:e&#45;&gt;n22:w</title>
<path fill="none" stroke="black" d="M245.63,-53C334.54,-53 359.24,-53 443.38,-53"/>
<polygon fill="black" stroke="black" points="443.39,-56.5 453.39,-53 443.38,-49.5 443.39,-56.5"/>
</g>
<!-- x17&#45;&gt;n9 -->
<g id="edge76" class="edge">
<title>x17:e&#45;&gt;n9:w</title>
<path fill="none" stroke="black" d="M883.14,-523C986.74,-523 1015.15,-523 1113.9,-523"/>
<polygon fill="black" stroke="black" points="1114.01,-526.5 1124.01,-523 1114.01,-519.5 1114.01,-526.5"/>
</g>
<!-- x18&#45;&gt;n8 -->
<g id="edge75" class="edge">
<title>x18:e&#45;&gt;n8:w</title>
<path fill="none" stroke="black" d="M1562.88,-161C1662.51,-161 1689.9,-161 1784.73,-161"/>
<polygon fill="black" stroke="black" points="1784.74,-164.5 1794.74,-161 1784.74,-157.5 1784.74,-164.5"/>
</g>
<!-- x19&#45;&gt;n7 -->
<g id="edge74" class="edge">
<title>x19:e&#45;&gt;n7:w</title>
<path fill="none" stroke="black" d="M2236.61,-500C2329.04,-500 2354.65,-500 2442.25,-500"/>
<polygon fill="black" stroke="black" points="2442.37,-503.5 2452.37,-500 2442.37,-496.5 2442.37,-503.5"/>
</g>
<!-- x20&#45;&gt;n6 -->
<g id="edge73" class="edge">
<title>x20:e&#45;&gt;n6:w</title>
<path fill="none" stroke="black" d="M883.14,-697C970.3,-697 994.58,-697 1076.94,-697"/>
<polygon fill="black" stroke="black" points="1077.01,-700.5 1087.01,-697 1077.01,-693.5 1077.01,-700.5"/>
</g>
<!-- x21&#45;&gt;n1 -->
<g id="edge1" class="edge">
<title>x21:e&#45;&gt;n1:w</title>
<path fill="none" stroke="black" d="M883.14,-361C976.47,-361 1002.34,-361 1090.79,-361"/>
<polygon fill="black" stroke="black" points="1091.01,-364.5 1101.01,-361 1091.01,-357.5 1091.01,-364.5"/>
</g>
<!-- x22&#45;&gt;n4 -->
<g id="edge71" class="edge">
<title>x22:e&#45;&gt;n4:w</title>
<path fill="none" stroke="black" d="M883.14,-469C998.27,-469 1029.59,-469 1139.81,-469"/>
<polygon fill="black" stroke="black" points="1140.01,-472.5 1150.01,-469 1140.01,-465.5 1140.01,-472.5"/>
</g>
<!-- x23&#45;&gt;n5 -->
<g id="edge72" class="edge">
<title>x23:e&#45;&gt;n5:w</title>
<path fill="none" stroke="black" d="M3417.64,-425C3450.98,-425 3461.76,-425 3490.7,-425"/>
<polygon fill="black" stroke="black" points="3490.78,-428.5 3500.78,-425 3490.78,-421.5 3490.78,-428.5"/>
</g>
<!-- x24&#45;&gt;n36 -->
<g id="edge70" class="edge">
<title>x24:e&#45;&gt;n36:w</title>
<path fill="none" stroke="black" d="M883.14,-415C1005.42,-415 1038.5,-415 1155.9,-415"/>
<polygon fill="black" stroke="black" points="1156.01,-418.5 1166.01,-415 1156.01,-411.5 1156.01,-418.5"/>
</g>
</g>
</svg>
