<?xml version="1.0" encoding="UTF-8" standalone="no"?>
<!DOCTYPE svg PUBLIC "-//W3C//DTD SVG 1.1//EN"
 "http://www.w3.org/Graphics/SVG/1.1/DTD/svg11.dtd">
<!-- Generated by graphviz version 2.43.0 (0)
 -->
<!-- Title: PC Pages: 1 -->
<svg width="1862pt" height="348pt"
 viewBox="0.00 0.00 1861.51 348.00" xmlns="http://www.w3.org/2000/svg" xmlns:xlink="http://www.w3.org/1999/xlink">
<g id="graph0" class="graph" transform="scale(1 1) rotate(0) translate(4 344)">
<title>PC</title>
<polygon fill="white" stroke="transparent" points="-4,4 -4,-344 1857.51,-344 1857.51,4 -4,4"/>
<text text-anchor="middle" x="926.76" y="-7.8" font-family="Times,serif" font-size="14.00">PC</text>
<!-- n1 -->
<g id="node1" class="node">
<title>n1</title>
<polygon fill="none" stroke="black" points="98.22,-159 5.55,-141 98.22,-123 190.89,-141 98.22,-159"/>
<text text-anchor="middle" x="98.22" y="-137.3" font-family="Times,serif" font-size="14.00">_4_out_wire</text>
</g>
<!-- c12 -->
<g id="node12" class="node">
<title>c12</title>
<polygon fill="none" stroke="black" points="227.05,-195 227.05,-233 368.05,-233 368.05,-195 227.05,-195"/>
<text text-anchor="middle" x="242.05" y="-210.3" font-family="Times,serif" font-size="14.00">in</text>
<polyline fill="none" stroke="black" points="257.05,-195 257.05,-233 "/>
<text text-anchor="middle" x="292.55" y="-217.8" font-family="Times,serif" font-size="14.00">inc16_2</text>
<text text-anchor="middle" x="292.55" y="-202.8" font-family="Times,serif" font-size="14.00">Inc16</text>
<polyline fill="none" stroke="black" points="328.05,-195 328.05,-233 "/>
<text text-anchor="middle" x="348.05" y="-210.3" font-family="Times,serif" font-size="14.00">out</text>
</g>
<!-- n1&#45;&gt;c12 -->
<g id="edge2" class="edge">
<title>n1:e&#45;&gt;c12:w</title>
<path fill="none" stroke="black" stroke-width="3" d="M191.05,-141C223.13,-141 198.18,-198.4 217.34,-211.4"/>
<polygon fill="black" stroke="black" stroke-width="3" points="216.49,-214.8 227.05,-214 218.3,-208.03 216.49,-214.8"/>
</g>
<!-- c18 -->
<g id="node16" class="node">
<title>c18</title>
<polygon fill="none" stroke="black" points="563.22,-217.5 563.22,-286.5 721.22,-286.5 721.22,-217.5 563.22,-217.5"/>
<text text-anchor="middle" x="581.72" y="-271.3" font-family="Times,serif" font-size="14.00">a</text>
<polyline fill="none" stroke="black" points="563.22,-263.5 600.22,-263.5 "/>
<text text-anchor="middle" x="581.72" y="-248.3" font-family="Times,serif" font-size="14.00">b</text>
<polyline fill="none" stroke="black" points="563.22,-240.5 600.22,-240.5 "/>
<text text-anchor="middle" x="581.72" y="-225.3" font-family="Times,serif" font-size="14.00">sel</text>
<polyline fill="none" stroke="black" points="600.22,-217.5 600.22,-286.5 "/>
<text text-anchor="middle" x="640.72" y="-255.8" font-family="Times,serif" font-size="14.00">mux16_3</text>
<text text-anchor="middle" x="640.72" y="-240.8" font-family="Times,serif" font-size="14.00">Mux16</text>
<polyline fill="none" stroke="black" points="681.22,-217.5 681.22,-286.5 "/>
<text text-anchor="middle" x="701.22" y="-248.3" font-family="Times,serif" font-size="14.00">out</text>
</g>
<!-- n1&#45;&gt;c18 -->
<g id="edge3" class="edge">
<title>n1:e&#45;&gt;c18:w</title>
<path fill="none" stroke="black" stroke-width="3" d="M191.05,-141C239.13,-141 189.85,-212.55 227.05,-243 340.47,-335.83 409.83,-277.87 552.8,-275.1"/>
<polygon fill="black" stroke="black" stroke-width="3" points="553.25,-278.6 563.22,-275 553.19,-271.6 553.25,-278.6"/>
</g>
<!-- x2 -->
<g id="node19" class="node">
<title>x2</title>
<path fill="none" stroke="black" d="M312.55,-113C312.55,-113 282.55,-113 282.55,-113 276.55,-113 270.55,-107 270.55,-101 270.55,-101 270.55,-89 270.55,-89 270.55,-83 276.55,-77 282.55,-77 282.55,-77 312.55,-77 312.55,-77 318.55,-77 324.55,-83 324.55,-89 324.55,-89 324.55,-101 324.55,-101 324.55,-107 318.55,-113 312.55,-113"/>
<text text-anchor="middle" x="297.55" y="-91.3" font-family="Times,serif" font-size="14.00">BUF</text>
</g>
<!-- n1&#45;&gt;x2 -->
<g id="edge4" class="edge">
<title>n1:e&#45;&gt;x2:w</title>
<path fill="none" stroke="black" stroke-width="3" d="M191.05,-141C227.7,-141 229.18,-103.22 259.24,-96.14"/>
<polygon fill="black" stroke="black" stroke-width="3" points="260,-99.57 269.55,-95 259.23,-92.62 260,-99.57"/>
</g>
<!-- x3 -->
<g id="node20" class="node">
<title>x3</title>
<path fill="none" stroke="black" d="M312.55,-59C312.55,-59 282.55,-59 282.55,-59 276.55,-59 270.55,-53 270.55,-47 270.55,-47 270.55,-35 270.55,-35 270.55,-29 276.55,-23 282.55,-23 282.55,-23 312.55,-23 312.55,-23 318.55,-23 324.55,-29 324.55,-35 324.55,-35 324.55,-47 324.55,-47 324.55,-53 318.55,-59 312.55,-59"/>
<text text-anchor="middle" x="297.55" y="-37.3" font-family="Times,serif" font-size="14.00">BUF</text>
</g>
<!-- n1&#45;&gt;x3 -->
<g id="edge5" class="edge">
<title>n1:e&#45;&gt;x3:w</title>
<path fill="none" stroke="black" stroke-width="3" d="M191.05,-141C227.23,-141 202.89,-94.92 227.05,-68 239.43,-54.21 245.11,-44.74 259.4,-41.9"/>
<polygon fill="black" stroke="black" stroke-width="3" points="259.9,-45.37 269.55,-41 259.28,-38.39 259.9,-45.37"/>
</g>
<!-- n2 -->
<g id="node2" class="node">
<title>n2</title>
<polygon fill="none" stroke="black" points="829.26,-260.54 829.26,-275.46 813.44,-286 791.07,-286 775.26,-275.46 775.26,-260.54 791.07,-250 813.44,-250 829.26,-260.54"/>
<text text-anchor="middle" x="802.26" y="-264.3" font-family="Times,serif" font-size="14.00">in</text>
</g>
<!-- c17 -->
<g id="node15" class="node">
<title>c17</title>
<polygon fill="none" stroke="black" points="883.3,-246.5 883.3,-315.5 1041.3,-315.5 1041.3,-246.5 883.3,-246.5"/>
<text text-anchor="middle" x="901.8" y="-300.3" font-family="Times,serif" font-size="14.00">a</text>
<polyline fill="none" stroke="black" points="883.3,-292.5 920.3,-292.5 "/>
<text text-anchor="middle" x="901.8" y="-277.3" font-family="Times,serif" font-size="14.00">b</text>
<polyline fill="none" stroke="black" points="883.3,-269.5 920.3,-269.5 "/>
<text text-anchor="middle" x="901.8" y="-254.3" font-family="Times,serif" font-size="14.00">sel</text>
<polyline fill="none" stroke="black" points="920.3,-246.5 920.3,-315.5 "/>
<text text-anchor="middle" x="960.8" y="-284.8" font-family="Times,serif" font-size="14.00">mux16_1</text>
<text text-anchor="middle" x="960.8" y="-269.8" font-family="Times,serif" font-size="14.00">Mux16</text>
<polyline fill="none" stroke="black" points="1001.3,-246.5 1001.3,-315.5 "/>
<text text-anchor="middle" x="1021.3" y="-277.3" font-family="Times,serif" font-size="14.00">out</text>
</g>
<!-- n2&#45;&gt;c17 -->
<g id="edge9" class="edge">
<title>n2:e&#45;&gt;c17:w</title>
<path fill="none" stroke="black" stroke-width="3" d="M830.26,-268C850.74,-268 857.14,-277.25 873.22,-280.15"/>
<polygon fill="black" stroke="black" stroke-width="3" points="873.04,-283.64 883.3,-281 873.63,-276.67 873.04,-283.64"/>
</g>
<!-- n3 -->
<g id="node3" class="node">
<title>n3</title>
<polygon fill="none" stroke="black" points="492.64,-179.54 492.64,-194.46 476.82,-205 454.45,-205 438.64,-194.46 438.64,-179.54 454.45,-169 476.82,-169 492.64,-179.54"/>
<text text-anchor="middle" x="465.64" y="-183.3" font-family="Times,serif" font-size="14.00">inc</text>
</g>
<!-- n3&#45;&gt;c18 -->
<g id="edge10" class="edge">
<title>n3:e&#45;&gt;c18:w</title>
<path fill="none" stroke="black" d="M493.64,-187C525.95,-187 527.23,-220.61 552.99,-227.7"/>
<polygon fill="black" stroke="black" points="552.86,-231.21 563.22,-229 553.74,-224.26 552.86,-231.21"/>
</g>
<!-- n4 -->
<g id="node4" class="node">
<title>n4</title>
<polygon fill="none" stroke="black" points="835.39,-206.54 835.39,-221.46 815.98,-232 788.54,-232 769.13,-221.46 769.13,-206.54 788.54,-196 815.98,-196 835.39,-206.54"/>
<text text-anchor="middle" x="802.26" y="-210.3" font-family="Times,serif" font-size="14.00">load</text>
</g>
<!-- n4&#45;&gt;c17 -->
<g id="edge11" class="edge">
<title>n4:e&#45;&gt;c17:w</title>
<path fill="none" stroke="black" d="M836.26,-214C860.86,-214 856.77,-246.5 873.31,-255.63"/>
<polygon fill="black" stroke="black" points="872.76,-259.1 883.3,-258 874.37,-252.29 872.76,-259.1"/>
</g>
<!-- n5 -->
<g id="node5" class="node">
<title>n5</title>
<polygon fill="none" stroke="black" points="493.92,-33.54 493.92,-48.46 477.35,-59 453.92,-59 437.36,-48.46 437.36,-33.54 453.92,-23 477.35,-23 493.92,-33.54"/>
<text text-anchor="middle" x="465.64" y="-37.3" font-family="Times,serif" font-size="14.00">out</text>
</g>
<!-- n6 -->
<g id="node6" class="node">
<title>n6</title>
<polygon fill="none" stroke="black" points="802.26,-340 757.18,-322 802.26,-304 847.34,-322 802.26,-340"/>
<text text-anchor="middle" x="802.26" y="-318.3" font-family="Times,serif" font-size="14.00">out1</text>
</g>
<!-- n6&#45;&gt;c17 -->
<g id="edge14" class="edge">
<title>n6:e&#45;&gt;c17:w</title>
<path fill="none" stroke="black" stroke-width="3" d="M847.3,-322C861.13,-322 864.4,-311.23 873.45,-306.35"/>
<polygon fill="black" stroke="black" stroke-width="3" points="874.38,-309.73 883.3,-304 872.76,-302.92 874.38,-309.73"/>
</g>
<!-- n7 -->
<g id="node7" class="node">
<title>n7</title>
<polygon fill="none" stroke="black" points="1195.59,-313 1150.51,-295 1195.59,-277 1240.66,-295 1195.59,-313"/>
<text text-anchor="middle" x="1195.59" y="-291.3" font-family="Times,serif" font-size="14.00">out2</text>
</g>
<!-- c16 -->
<g id="node14" class="node">
<title>c16</title>
<polygon fill="none" stroke="black" points="1349.88,-190.5 1349.88,-259.5 1507.88,-259.5 1507.88,-190.5 1349.88,-190.5"/>
<text text-anchor="middle" x="1368.38" y="-244.3" font-family="Times,serif" font-size="14.00">a</text>
<polyline fill="none" stroke="black" points="1349.88,-236.5 1386.88,-236.5 "/>
<text text-anchor="middle" x="1368.38" y="-221.3" font-family="Times,serif" font-size="14.00">b</text>
<polyline fill="none" stroke="black" points="1349.88,-213.5 1386.88,-213.5 "/>
<text text-anchor="middle" x="1368.38" y="-198.3" font-family="Times,serif" font-size="14.00">sel</text>
<polyline fill="none" stroke="black" points="1386.88,-190.5 1386.88,-259.5 "/>
<text text-anchor="middle" x="1427.38" y="-228.8" font-family="Times,serif" font-size="14.00">mux16_0</text>
<text text-anchor="middle" x="1427.38" y="-213.8" font-family="Times,serif" font-size="14.00">Mux16</text>
<polyline fill="none" stroke="black" points="1467.88,-190.5 1467.88,-259.5 "/>
<text text-anchor="middle" x="1487.88" y="-221.3" font-family="Times,serif" font-size="14.00">out</text>
</g>
<!-- n7&#45;&gt;c16 -->
<g id="edge16" class="edge">
<title>n7:e&#45;&gt;c16:w</title>
<path fill="none" stroke="black" stroke-width="3" d="M1241.59,-295C1275.88,-295 1282.73,-282.37 1313.88,-268 1326.86,-262.01 1330.36,-253.17 1339.99,-249.59"/>
<polygon fill="black" stroke="black" stroke-width="3" points="1340.56,-253.05 1349.88,-248 1339.45,-246.14 1340.56,-253.05"/>
</g>
<!-- n8 -->
<g id="node8" class="node">
<title>n8</title>
<polygon fill="none" stroke="black" points="1588.91,-232 1543.84,-214 1588.91,-196 1633.99,-214 1588.91,-232"/>
<text text-anchor="middle" x="1588.91" y="-210.3" font-family="Times,serif" font-size="14.00">out3</text>
</g>
<!-- c19 -->
<g id="node18" class="node">
<title>c19</title>
<polygon fill="none" stroke="black" points="1669.95,-118 1669.95,-164 1845.95,-164 1845.95,-118 1669.95,-118"/>
<text text-anchor="middle" x="1693.45" y="-148.8" font-family="Times,serif" font-size="14.00">in</text>
<polyline fill="none" stroke="black" points="1669.95,-141 1716.95,-141 "/>
<text text-anchor="middle" x="1693.45" y="-125.8" font-family="Times,serif" font-size="14.00">load</text>
<polyline fill="none" stroke="black" points="1716.95,-118 1716.95,-164 "/>
<text text-anchor="middle" x="1761.45" y="-144.8" font-family="Times,serif" font-size="14.00">register_4</text>
<text text-anchor="middle" x="1761.45" y="-129.8" font-family="Times,serif" font-size="14.00">Register</text>
<polyline fill="none" stroke="black" points="1805.95,-118 1805.95,-164 "/>
<text text-anchor="middle" x="1825.95" y="-137.3" font-family="Times,serif" font-size="14.00">out</text>
</g>
<!-- n8&#45;&gt;c19 -->
<g id="edge18" class="edge">
<title>n8:e&#45;&gt;c19:w</title>
<path fill="none" stroke="black" stroke-width="3" d="M1633.95,-214C1661.25,-214 1644.6,-168.13 1660.23,-155.94"/>
<polygon fill="black" stroke="black" stroke-width="3" points="1661.4,-159.25 1669.95,-153 1659.37,-152.55 1661.4,-159.25"/>
</g>
<!-- n9 -->
<g id="node9" class="node">
<title>n9</title>
<polygon fill="none" stroke="black" points="1232.66,-179.54 1232.66,-194.46 1210.94,-205 1180.23,-205 1158.51,-194.46 1158.51,-179.54 1180.23,-169 1210.94,-169 1232.66,-179.54"/>
<text text-anchor="middle" x="1195.59" y="-183.3" font-family="Times,serif" font-size="14.00">reset</text>
</g>
<!-- n9&#45;&gt;c16 -->
<g id="edge19" class="edge">
<title>n9:e&#45;&gt;c16:w</title>
<path fill="none" stroke="black" d="M1233.59,-187C1282.14,-187 1295.93,-200.02 1339.72,-201.8"/>
<polygon fill="black" stroke="black" points="1339.81,-205.3 1349.88,-202 1339.95,-198.3 1339.81,-205.3"/>
</g>
<!-- n10 -->
<g id="node10" class="node">
<title>n10</title>
<polygon fill="none" stroke="black" points="465.64,-113 424.41,-95 465.64,-77 506.86,-95 465.64,-113"/>
<text text-anchor="middle" x="465.64" y="-91.3" font-family="Times,serif" font-size="14.00">tmp</text>
</g>
<!-- n11 -->
<g id="node11" class="node">
<title>n11</title>
<polygon fill="none" stroke="black" points="465.64,-259 403.97,-241 465.64,-223 527.3,-241 465.64,-259"/>
<text text-anchor="middle" x="465.64" y="-237.3" font-family="Times,serif" font-size="14.00">tmpInc</text>
</g>
<!-- n11&#45;&gt;c18 -->
<g id="edge8" class="edge">
<title>n11:e&#45;&gt;c18:w</title>
<path fill="none" stroke="black" stroke-width="3" d="M527.22,-241C539.9,-241 544.43,-247.32 553.16,-250.38"/>
<polygon fill="black" stroke="black" stroke-width="3" points="552.79,-253.86 563.22,-252 553.9,-246.95 552.79,-253.86"/>
</g>
<!-- c12&#45;&gt;n11 -->
<g id="edge7" class="edge">
<title>c12:e&#45;&gt;n11:w</title>
<path fill="none" stroke="black" stroke-width="3" d="M368.05,-214C383.99,-214 384.69,-231.15 394.43,-238.11"/>
<polygon fill="black" stroke="black" stroke-width="3" points="393.47,-241.48 404.05,-241 395.48,-234.77 393.47,-241.48"/>
</g>
<!-- v0 -->
<g id="node13" class="node">
<title>v0</title>
<ellipse fill="none" stroke="black" cx="1195.59" cy="-241" rx="118.08" ry="18"/>
<text text-anchor="middle" x="1195.59" y="-237.3" font-family="Times,serif" font-size="14.00">16&#39;0000000000000000</text>
</g>
<!-- v0&#45;&gt;c16 -->
<g id="edge20" class="edge">
<title>v0:e&#45;&gt;c16:w</title>
<path fill="none" stroke="black" stroke-width="3" d="M1313.88,-241C1327.28,-241 1331,-231.62 1339.86,-227.22"/>
<polygon fill="black" stroke="black" stroke-width="3" points="1340.87,-230.59 1349.88,-225 1339.35,-223.75 1340.87,-230.59"/>
</g>
<!-- c16&#45;&gt;n8 -->
<g id="edge17" class="edge">
<title>c16:e&#45;&gt;n8:w</title>
<path fill="none" stroke="black" stroke-width="3" d="M1507.88,-225C1520.55,-225 1525.08,-218.68 1533.81,-215.62"/>
<polygon fill="black" stroke="black" stroke-width="3" points="1534.56,-219.05 1543.88,-214 1533.45,-212.14 1534.56,-219.05"/>
</g>
<!-- c17&#45;&gt;n7 -->
<g id="edge15" class="edge">
<title>c17:e&#45;&gt;n7:w</title>
<path fill="none" stroke="black" stroke-width="3" d="M1041.3,-281C1086.22,-281 1099.18,-293 1139.37,-294.78"/>
<polygon fill="black" stroke="black" stroke-width="3" points="1139.51,-298.28 1149.59,-295 1139.66,-291.29 1139.51,-298.28"/>
</g>
<!-- c18&#45;&gt;n6 -->
<g id="edge13" class="edge">
<title>c18:e&#45;&gt;n6:w</title>
<path fill="none" stroke="black" stroke-width="3" d="M721.22,-252C752.1,-252 729.25,-306.56 747.54,-319.34"/>
<polygon fill="black" stroke="black" stroke-width="3" points="746.65,-322.73 757.22,-322 748.5,-315.98 746.65,-322.73"/>
</g>
<!-- v1 -->
<g id="node17" class="node">
<title>v1</title>
<ellipse fill="none" stroke="black" cx="1588.91" cy="-95" rx="27" ry="18"/>
<text text-anchor="middle" x="1588.91" y="-91.3" font-family="Times,serif" font-size="14.00">1&#39;1</text>
</g>
<!-- v1&#45;&gt;c19 -->
<g id="edge21" class="edge">
<title>v1:e&#45;&gt;c19:w</title>
<path fill="none" stroke="black" d="M1616.91,-95C1640.98,-95 1642.17,-120.11 1659.81,-127.17"/>
<polygon fill="black" stroke="black" points="1659.49,-130.67 1669.95,-129 1660.73,-123.78 1659.49,-130.67"/>
</g>
<!-- c19&#45;&gt;n1 -->
<g id="edge1" class="edge">
<title>c19:e&#45;&gt;n1:w</title>
<path fill="none" stroke="black" stroke-width="3" d="M1846.95,-141C1857.41,-141 1853.5,-157.27 1845.95,-164.5 1789.48,-218.62 1748.08,-168.31 1669.95,-164.5 1562.87,-159.27 1537.09,-141 1429.88,-141 464.64,-141 464.64,-141 464.64,-141 342.78,-141 312.84,-155 191.05,-159 108.5,-161.71 65.22,-215.76 5.22,-159 2.85,-156.76 0.92,-153.37 0,-150.14"/>
<polygon fill="black" stroke="black" stroke-width="3" points="3.2,-151.55 4.22,-141 -3.15,-148.61 3.2,-151.55"/>
</g>
<!-- x2&#45;&gt;n10 -->
<g id="edge6" class="edge">
<title>x2:e&#45;&gt;n10:w</title>
<path fill="none" stroke="black" stroke-width="3" d="M325.55,-95C365.57,-95 378.04,-95 413.53,-95"/>
<polygon fill="black" stroke="black" stroke-width="3" points="413.64,-98.5 423.64,-95 413.64,-91.5 413.64,-98.5"/>
</g>
<!-- x3&#45;&gt;n5 -->
<g id="edge12" class="edge">
<title>x3:e&#45;&gt;n5:w</title>
<path fill="none" stroke="black" stroke-width="3" d="M325.55,-41C371.35,-41 385.29,-41 426.48,-41"/>
<polygon fill="black" stroke="black" stroke-width="3" points="426.64,-44.5 436.64,-41 426.64,-37.5 426.64,-44.5"/>
</g>
</g>
</svg>
