<?xml version="1.0" encoding="UTF-8" standalone="no"?>
<!DOCTYPE svg PUBLIC "-//W3C//DTD SVG 1.1//EN"
 "http://www.w3.org/Graphics/SVG/1.1/DTD/svg11.dtd">
<!-- Generated by graphviz version 2.43.0 (0)
 -->
<!-- Title: DMux Pages: 1 -->
<svg width="630pt" height="161pt"
 viewBox="0.00 0.00 630.49 160.50" xmlns="http://www.w3.org/2000/svg" xmlns:xlink="http://www.w3.org/1999/xlink">
<g id="graph0" class="graph" transform="scale(1 1) rotate(0) translate(4 156.5)">
<title>DMux</title>
<polygon fill="white" stroke="transparent" points="-4,4 -4,-156.5 626.49,-156.5 626.49,4 -4,4"/>
<text text-anchor="middle" x="311.25" y="-7.8" font-family="Times,serif" font-size="14.00">DMux</text>
<!-- n1 -->
<g id="node1" class="node">
<title>n1</title>
<polygon fill="none" stroke="black" points="311.75,-64.5 251.75,-46.5 311.75,-28.5 371.74,-46.5 311.75,-64.5"/>
<text text-anchor="middle" x="311.75" y="-42.8" font-family="Times,serif" font-size="14.00">NotSel</text>
</g>
<!-- c7 -->
<g id="node6" class="node">
<title>c7</title>
<polygon fill="none" stroke="black" points="407.49,-76.5 407.49,-122.5 532.49,-122.5 532.49,-76.5 407.49,-76.5"/>
<text text-anchor="middle" x="420.49" y="-107.3" font-family="Times,serif" font-size="14.00">a</text>
<polyline fill="none" stroke="black" points="407.49,-99.5 433.49,-99.5 "/>
<text text-anchor="middle" x="420.49" y="-84.3" font-family="Times,serif" font-size="14.00">b</text>
<polyline fill="none" stroke="black" points="433.49,-76.5 433.49,-122.5 "/>
<text text-anchor="middle" x="462.99" y="-103.3" font-family="Times,serif" font-size="14.00">and_1</text>
<text text-anchor="middle" x="462.99" y="-88.3" font-family="Times,serif" font-size="14.00">And</text>
<polyline fill="none" stroke="black" points="492.49,-76.5 492.49,-122.5 "/>
<text text-anchor="middle" x="512.49" y="-95.8" font-family="Times,serif" font-size="14.00">out</text>
</g>
<!-- n1&#45;&gt;c7 -->
<g id="edge2" class="edge">
<title>n1:e&#45;&gt;c7:w</title>
<path fill="none" stroke="black" d="M371.49,-46.5C391.57,-46.5 386.45,-74.62 397.87,-84.28"/>
<polygon fill="black" stroke="black" points="396.9,-87.65 407.49,-87.5 399.12,-81.01 396.9,-87.65"/>
</g>
<!-- n2 -->
<g id="node2" class="node">
<title>n2</title>
<polygon fill="none" stroke="black" points="622.49,-92.04 622.49,-106.96 606.67,-117.5 584.31,-117.5 568.49,-106.96 568.49,-92.04 584.31,-81.5 606.67,-81.5 622.49,-92.04"/>
<text text-anchor="middle" x="595.49" y="-95.8" font-family="Times,serif" font-size="14.00">a</text>
</g>
<!-- n3 -->
<g id="node3" class="node">
<title>n3</title>
<polygon fill="none" stroke="black" points="338.75,-96.04 338.75,-110.96 322.93,-121.5 300.56,-121.5 284.75,-110.96 284.75,-96.04 300.56,-85.5 322.93,-85.5 338.75,-96.04"/>
<text text-anchor="middle" x="311.75" y="-99.8" font-family="Times,serif" font-size="14.00">b</text>
</g>
<!-- n4 -->
<g id="node4" class="node">
<title>n4</title>
<polygon fill="none" stroke="black" points="54,-127.04 54,-141.96 38.18,-152.5 15.82,-152.5 0,-141.96 0,-127.04 15.82,-116.5 38.18,-116.5 54,-127.04"/>
<text text-anchor="middle" x="27" y="-130.8" font-family="Times,serif" font-size="14.00">in</text>
</g>
<!-- n4&#45;&gt;c7 -->
<g id="edge5" class="edge">
<title>n4:e&#45;&gt;c7:w</title>
<path fill="none" stroke="black" d="M54,-134.5C70.02,-134.5 73.98,-136.06 90,-136.5 215.09,-139.97 250.63,-162.92 371.49,-130.5 385.01,-126.87 388.33,-117.49 397.51,-113.43"/>
<polygon fill="black" stroke="black" points="398.33,-116.83 407.49,-111.5 397.01,-109.96 398.33,-116.83"/>
</g>
<!-- c8 -->
<g id="node7" class="node">
<title>c8</title>
<polygon fill="none" stroke="black" points="90.5,-80.5 90.5,-126.5 215.5,-126.5 215.5,-80.5 90.5,-80.5"/>
<text text-anchor="middle" x="103.5" y="-111.3" font-family="Times,serif" font-size="14.00">a</text>
<polyline fill="none" stroke="black" points="90.5,-103.5 116.5,-103.5 "/>
<text text-anchor="middle" x="103.5" y="-88.3" font-family="Times,serif" font-size="14.00">b</text>
<polyline fill="none" stroke="black" points="116.5,-80.5 116.5,-126.5 "/>
<text text-anchor="middle" x="146" y="-107.3" font-family="Times,serif" font-size="14.00">and_2</text>
<text text-anchor="middle" x="146" y="-92.3" font-family="Times,serif" font-size="14.00">And</text>
<polyline fill="none" stroke="black" points="175.5,-80.5 175.5,-126.5 "/>
<text text-anchor="middle" x="195.5" y="-99.8" font-family="Times,serif" font-size="14.00">out</text>
</g>
<!-- n4&#45;&gt;c8 -->
<g id="edge6" class="edge">
<title>n4:e&#45;&gt;c8:w</title>
<path fill="none" stroke="black" d="M54,-134.5C67.99,-134.5 71.05,-123.13 80.09,-117.98"/>
<polygon fill="black" stroke="black" points="81.15,-121.33 90,-115.5 79.45,-114.54 81.15,-121.33"/>
</g>
<!-- n5 -->
<g id="node5" class="node">
<title>n5</title>
<polygon fill="none" stroke="black" points="54,-64.04 54,-78.96 38.18,-89.5 15.82,-89.5 0,-78.96 0,-64.04 15.82,-53.5 38.18,-53.5 54,-64.04"/>
<text text-anchor="middle" x="27" y="-67.8" font-family="Times,serif" font-size="14.00">sel</text>
</g>
<!-- n5&#45;&gt;c8 -->
<g id="edge7" class="edge">
<title>n5:e&#45;&gt;c8:w</title>
<path fill="none" stroke="black" d="M54,-71.5C68.16,-71.5 71,-83.46 80.03,-88.89"/>
<polygon fill="black" stroke="black" points="79.44,-92.35 90,-91.5 81.22,-85.58 79.44,-92.35"/>
</g>
<!-- c9 -->
<g id="node8" class="node">
<title>c9</title>
<polygon fill="none" stroke="black" points="90,-23.5 90,-61.5 216,-61.5 216,-23.5 90,-23.5"/>
<text text-anchor="middle" x="105" y="-38.8" font-family="Times,serif" font-size="14.00">in</text>
<polyline fill="none" stroke="black" points="120,-23.5 120,-61.5 "/>
<text text-anchor="middle" x="148" y="-46.3" font-family="Times,serif" font-size="14.00">not_0</text>
<text text-anchor="middle" x="148" y="-31.3" font-family="Times,serif" font-size="14.00">Not</text>
<polyline fill="none" stroke="black" points="176,-23.5 176,-61.5 "/>
<text text-anchor="middle" x="196" y="-38.8" font-family="Times,serif" font-size="14.00">out</text>
</g>
<!-- n5&#45;&gt;c9 -->
<g id="edge8" class="edge">
<title>n5:e&#45;&gt;c9:w</title>
<path fill="none" stroke="black" d="M54,-71.5C70.37,-71.5 70.46,-53.08 80.22,-45.6"/>
<polygon fill="black" stroke="black" points="81.53,-48.86 90,-42.5 79.41,-42.19 81.53,-48.86"/>
</g>
<!-- c7&#45;&gt;n2 -->
<g id="edge3" class="edge">
<title>c7:e&#45;&gt;n2:w</title>
<path fill="none" stroke="black" d="M532.49,-99.5C544.49,-99.5 549.74,-99.5 558.37,-99.5"/>
<polygon fill="black" stroke="black" points="558.49,-103 568.49,-99.5 558.49,-96 558.49,-103"/>
</g>
<!-- c8&#45;&gt;n3 -->
<g id="edge4" class="edge">
<title>c8:e&#45;&gt;n3:w</title>
<path fill="none" stroke="black" d="M216,-103.5C242.46,-103.5 251.48,-103.5 273.72,-103.5"/>
<polygon fill="black" stroke="black" points="273.75,-107 283.75,-103.5 273.75,-100 273.75,-107"/>
</g>
<!-- c9&#45;&gt;n1 -->
<g id="edge1" class="edge">
<title>c9:e&#45;&gt;n1:w</title>
<path fill="none" stroke="black" d="M216,-42.5C228.07,-42.5 233.23,-44.75 241.85,-45.88"/>
<polygon fill="black" stroke="black" points="241.8,-49.38 252,-46.5 242.23,-42.39 241.8,-49.38"/>
</g>
</g>
</svg>
