<?xml version="1.0" encoding="UTF-8" standalone="no"?>
<!DOCTYPE svg PUBLIC "-//W3C//DTD SVG 1.1//EN"
 "http://www.w3.org/Graphics/SVG/1.1/DTD/svg11.dtd">
<!-- Generated by graphviz version 2.43.0 (0)
 -->
<!-- Title: And Pages: 1 -->
<svg width="655pt" height="121pt"
 viewBox="0.00 0.00 654.64 121.00" xmlns="http://www.w3.org/2000/svg" xmlns:xlink="http://www.w3.org/1999/xlink">
<g id="graph0" class="graph" transform="scale(1 1) rotate(0) translate(4 117)">
<title>And</title>
<polygon fill="white" stroke="transparent" points="-4,4 -4,-117 650.64,-117 650.64,4 -4,4"/>
<text text-anchor="middle" x="323.32" y="-7.8" font-family="Times,serif" font-size="14.00">And</text>
<!-- n1 -->
<g id="node1" class="node">
<title>n1</title>
<polygon fill="none" stroke="black" points="54,-87.54 54,-102.46 38.18,-113 15.82,-113 0,-102.46 0,-87.54 15.82,-77 38.18,-77 54,-87.54"/>
<text text-anchor="middle" x="27" y="-91.3" font-family="Times,serif" font-size="14.00">a</text>
</g>
<!-- c5 -->
<g id="node5" class="node">
<title>c5</title>
<polygon fill="none" stroke="black" points="90,-45 90,-91 224,-91 224,-45 90,-45"/>
<text text-anchor="middle" x="103" y="-75.8" font-family="Times,serif" font-size="14.00">a</text>
<polyline fill="none" stroke="black" points="90,-68 116,-68 "/>
<text text-anchor="middle" x="103" y="-52.8" font-family="Times,serif" font-size="14.00">b</text>
<polyline fill="none" stroke="black" points="116,-45 116,-91 "/>
<text text-anchor="middle" x="150" y="-71.8" font-family="Times,serif" font-size="14.00">nand_0</text>
<text text-anchor="middle" x="150" y="-56.8" font-family="Times,serif" font-size="14.00">Nand</text>
<polyline fill="none" stroke="black" points="184,-45 184,-91 "/>
<text text-anchor="middle" x="204" y="-64.3" font-family="Times,serif" font-size="14.00">out</text>
</g>
<!-- n1&#45;&gt;c5 -->
<g id="edge1" class="edge">
<title>n1:e&#45;&gt;c5:w</title>
<path fill="none" stroke="black" d="M54,-95C67.27,-95 71.16,-86.21 80.04,-82.09"/>
<polygon fill="black" stroke="black" points="80.93,-85.47 90,-80 79.49,-78.62 80.93,-85.47"/>
</g>
<!-- n2 -->
<g id="node2" class="node">
<title>n2</title>
<polygon fill="none" stroke="black" points="326.18,-86 259.82,-68 326.18,-50 392.54,-68 326.18,-86"/>
<text text-anchor="middle" x="326.18" y="-64.3" font-family="Times,serif" font-size="14.00">aNandb</text>
</g>
<!-- c7 -->
<g id="node6" class="node">
<title>c7</title>
<polygon fill="none" stroke="black" points="428.36,-49 428.36,-87 554.36,-87 554.36,-49 428.36,-49"/>
<text text-anchor="middle" x="443.36" y="-64.3" font-family="Times,serif" font-size="14.00">in</text>
<polyline fill="none" stroke="black" points="458.36,-49 458.36,-87 "/>
<text text-anchor="middle" x="486.36" y="-71.8" font-family="Times,serif" font-size="14.00">not_1</text>
<text text-anchor="middle" x="486.36" y="-56.8" font-family="Times,serif" font-size="14.00">Not</text>
<polyline fill="none" stroke="black" points="514.36,-49 514.36,-87 "/>
<text text-anchor="middle" x="534.36" y="-64.3" font-family="Times,serif" font-size="14.00">out</text>
</g>
<!-- n2&#45;&gt;c7 -->
<g id="edge3" class="edge">
<title>n2:e&#45;&gt;c7:w</title>
<path fill="none" stroke="black" d="M392.36,-68C404.36,-68 409.61,-68 418.23,-68"/>
<polygon fill="black" stroke="black" points="418.36,-71.5 428.36,-68 418.36,-64.5 418.36,-71.5"/>
</g>
<!-- n3 -->
<g id="node3" class="node">
<title>n3</title>
<polygon fill="none" stroke="black" points="54,-33.54 54,-48.46 38.18,-59 15.82,-59 0,-48.46 0,-33.54 15.82,-23 38.18,-23 54,-33.54"/>
<text text-anchor="middle" x="27" y="-37.3" font-family="Times,serif" font-size="14.00">b</text>
</g>
<!-- n3&#45;&gt;c5 -->
<g id="edge4" class="edge">
<title>n3:e&#45;&gt;c5:w</title>
<path fill="none" stroke="black" d="M54,-41C67.27,-41 71.16,-49.79 80.04,-53.91"/>
<polygon fill="black" stroke="black" points="79.49,-57.38 90,-56 80.93,-50.53 79.49,-57.38"/>
</g>
<!-- n4 -->
<g id="node4" class="node">
<title>n4</title>
<polygon fill="none" stroke="black" points="646.78,-60.54 646.78,-75.46 630.21,-86 606.78,-86 590.22,-75.46 590.22,-60.54 606.78,-50 630.21,-50 646.78,-60.54"/>
<text text-anchor="middle" x="618.5" y="-64.3" font-family="Times,serif" font-size="14.00">out</text>
</g>
<!-- c5&#45;&gt;n2 -->
<g id="edge2" class="edge">
<title>c5:e&#45;&gt;n2:w</title>
<path fill="none" stroke="black" d="M224,-68C236,-68 241.25,-68 249.87,-68"/>
<polygon fill="black" stroke="black" points="250,-71.5 260,-68 250,-64.5 250,-71.5"/>
</g>
<!-- c7&#45;&gt;n4 -->
<g id="edge5" class="edge">
<title>c7:e&#45;&gt;n4:w</title>
<path fill="none" stroke="black" d="M554.36,-68C566.36,-68 571.61,-68 580.23,-68"/>
<polygon fill="black" stroke="black" points="580.36,-71.5 590.36,-68 580.36,-64.5 580.36,-71.5"/>
</g>
</g>
</svg>
