<?xml version="1.0" encoding="UTF-8" standalone="no"?>
<!DOCTYPE svg PUBLIC "-//W3C//DTD SVG 1.1//EN"
 "http://www.w3.org/Graphics/SVG/1.1/DTD/svg11.dtd">
<!-- Generated by graphviz version 2.43.0 (0)
 -->
<!-- Title: And16 Pages: 1 -->
<svg width="646pt" height="1773pt"
 viewBox="0.00 0.00 646.28 1773.00" xmlns="http://www.w3.org/2000/svg" xmlns:xlink="http://www.w3.org/1999/xlink">
<g id="graph0" class="graph" transform="scale(1 1) rotate(0) translate(4 1769)">
<title>And16</title>
<polygon fill="white" stroke="transparent" points="-4,4 -4,-1769 642.28,-1769 642.28,4 -4,4"/>
<text text-anchor="middle" x="319.14" y="-7.8" font-family="Times,serif" font-size="14.00">And16</text>
<!-- n1 -->
<g id="node1" class="node">
<title>n1</title>
<polygon fill="none" stroke="black" points="54,-969.04 54,-983.96 38.18,-994.5 15.82,-994.5 0,-983.96 0,-969.04 15.82,-958.5 38.18,-958.5 54,-969.04"/>
<text text-anchor="middle" x="27" y="-972.8" font-family="Times,serif" font-size="14.00">a</text>
</g>
<!-- x0 -->
<g id="node5" class="node">
<title>x0</title>
<path fill="none" stroke="black" d="M106.5,-1728.5C106.5,-1728.5 198.5,-1728.5 198.5,-1728.5 204.5,-1728.5 210.5,-1734.5 210.5,-1740.5 210.5,-1740.5 210.5,-1752.5 210.5,-1752.5 210.5,-1758.5 204.5,-1764.5 198.5,-1764.5 198.5,-1764.5 106.5,-1764.5 106.5,-1764.5 100.5,-1764.5 94.5,-1758.5 94.5,-1752.5 94.5,-1752.5 94.5,-1740.5 94.5,-1740.5 94.5,-1734.5 100.5,-1728.5 106.5,-1728.5"/>
<text text-anchor="middle" x="152.5" y="-1742.8" font-family="Times,serif" font-size="14.00">slice [0] to [0]</text>
</g>
<!-- n1&#45;&gt;x0 -->
<g id="edge49" class="edge">
<title>n1:e&#45;&gt;x0:w</title>
<path fill="none" stroke="black" d="M54,-976.5C136.15,-976.5 18.28,-1684.63 84.03,-1742.72"/>
<polygon fill="black" stroke="black" points="82.91,-1746.04 93.5,-1746.5 85.51,-1739.54 82.91,-1746.04"/>
</g>
<!-- x3 -->
<g id="node9" class="node">
<title>x3</title>
<path fill="none" stroke="black" d="M106.5,-1673.5C106.5,-1673.5 198.5,-1673.5 198.5,-1673.5 204.5,-1673.5 210.5,-1679.5 210.5,-1685.5 210.5,-1685.5 210.5,-1697.5 210.5,-1697.5 210.5,-1703.5 204.5,-1709.5 198.5,-1709.5 198.5,-1709.5 106.5,-1709.5 106.5,-1709.5 100.5,-1709.5 94.5,-1703.5 94.5,-1697.5 94.5,-1697.5 94.5,-1685.5 94.5,-1685.5 94.5,-1679.5 100.5,-1673.5 106.5,-1673.5"/>
<text text-anchor="middle" x="152.5" y="-1687.8" font-family="Times,serif" font-size="14.00">slice [1] to [0]</text>
</g>
<!-- n1&#45;&gt;x3 -->
<g id="edge60" class="edge">
<title>n1:e&#45;&gt;x3:w</title>
<path fill="none" stroke="black" d="M54,-976.5C129.99,-976.5 24.28,-1628.7 83.95,-1687.3"/>
<polygon fill="black" stroke="black" points="82.94,-1690.68 93.5,-1691.5 85.75,-1684.27 82.94,-1690.68"/>
</g>
<!-- x6 -->
<g id="node13" class="node">
<title>x6</title>
<path fill="none" stroke="black" d="M102,-1233.5C102,-1233.5 203,-1233.5 203,-1233.5 209,-1233.5 215,-1239.5 215,-1245.5 215,-1245.5 215,-1257.5 215,-1257.5 215,-1263.5 209,-1269.5 203,-1269.5 203,-1269.5 102,-1269.5 102,-1269.5 96,-1269.5 90,-1263.5 90,-1257.5 90,-1257.5 90,-1245.5 90,-1245.5 90,-1239.5 96,-1233.5 102,-1233.5"/>
<text text-anchor="middle" x="152.5" y="-1247.8" font-family="Times,serif" font-size="14.00">slice [10] to [0]</text>
</g>
<!-- n1&#45;&gt;x6 -->
<g id="edge63" class="edge">
<title>n1:e&#45;&gt;x6:w</title>
<path fill="none" stroke="black" d="M54,-976.5C111.9,-976.5 38.39,-1219.21 80.38,-1248.6"/>
<polygon fill="black" stroke="black" points="79.42,-1251.96 90,-1251.5 81.44,-1245.26 79.42,-1251.96"/>
</g>
<!-- x9 -->
<g id="node17" class="node">
<title>x9</title>
<path fill="none" stroke="black" d="M102,-793.5C102,-793.5 203,-793.5 203,-793.5 209,-793.5 215,-799.5 215,-805.5 215,-805.5 215,-817.5 215,-817.5 215,-823.5 209,-829.5 203,-829.5 203,-829.5 102,-829.5 102,-829.5 96,-829.5 90,-823.5 90,-817.5 90,-817.5 90,-805.5 90,-805.5 90,-799.5 96,-793.5 102,-793.5"/>
<text text-anchor="middle" x="152.5" y="-807.8" font-family="Times,serif" font-size="14.00">slice [11] to [0]</text>
</g>
<!-- n1&#45;&gt;x9 -->
<g id="edge64" class="edge">
<title>n1:e&#45;&gt;x9:w</title>
<path fill="none" stroke="black" d="M54,-976.5C125.25,-976.5 26.04,-827.83 79.98,-812.73"/>
<polygon fill="black" stroke="black" points="80.5,-816.2 90,-811.5 79.65,-809.25 80.5,-816.2"/>
</g>
<!-- x12 -->
<g id="node21" class="node">
<title>x12</title>
<path fill="none" stroke="black" d="M102,-1013.5C102,-1013.5 203,-1013.5 203,-1013.5 209,-1013.5 215,-1019.5 215,-1025.5 215,-1025.5 215,-1037.5 215,-1037.5 215,-1043.5 209,-1049.5 203,-1049.5 203,-1049.5 102,-1049.5 102,-1049.5 96,-1049.5 90,-1043.5 90,-1037.5 90,-1037.5 90,-1025.5 90,-1025.5 90,-1019.5 96,-1013.5 102,-1013.5"/>
<text text-anchor="middle" x="152.5" y="-1027.8" font-family="Times,serif" font-size="14.00">slice [12] to [0]</text>
</g>
<!-- n1&#45;&gt;x12 -->
<g id="edge50" class="edge">
<title>n1:e&#45;&gt;x12:w</title>
<path fill="none" stroke="black" d="M54,-976.5C78.88,-976.5 66.31,-1016.38 80.07,-1028.22"/>
<polygon fill="black" stroke="black" points="79.41,-1031.69 90,-1031.5 81.6,-1025.04 79.41,-1031.69"/>
</g>
<!-- x15 -->
<g id="node25" class="node">
<title>x15</title>
<path fill="none" stroke="black" d="M102,-1563.5C102,-1563.5 203,-1563.5 203,-1563.5 209,-1563.5 215,-1569.5 215,-1575.5 215,-1575.5 215,-1587.5 215,-1587.5 215,-1593.5 209,-1599.5 203,-1599.5 203,-1599.5 102,-1599.5 102,-1599.5 96,-1599.5 90,-1593.5 90,-1587.5 90,-1587.5 90,-1575.5 90,-1575.5 90,-1569.5 96,-1563.5 102,-1563.5"/>
<text text-anchor="middle" x="152.5" y="-1577.8" font-family="Times,serif" font-size="14.00">slice [13] to [0]</text>
</g>
<!-- n1&#45;&gt;x15 -->
<g id="edge51" class="edge">
<title>n1:e&#45;&gt;x15:w</title>
<path fill="none" stroke="black" d="M54,-976.5C117.92,-976.5 32.25,-1521.61 80.98,-1576.98"/>
<polygon fill="black" stroke="black" points="79.49,-1580.15 90,-1581.5 82.63,-1573.89 79.49,-1580.15"/>
</g>
<!-- x18 -->
<g id="node29" class="node">
<title>x18</title>
<path fill="none" stroke="black" d="M102,-683.5C102,-683.5 203,-683.5 203,-683.5 209,-683.5 215,-689.5 215,-695.5 215,-695.5 215,-707.5 215,-707.5 215,-713.5 209,-719.5 203,-719.5 203,-719.5 102,-719.5 102,-719.5 96,-719.5 90,-713.5 90,-707.5 90,-707.5 90,-695.5 90,-695.5 90,-689.5 96,-683.5 102,-683.5"/>
<text text-anchor="middle" x="152.5" y="-697.8" font-family="Times,serif" font-size="14.00">slice [14] to [0]</text>
</g>
<!-- n1&#45;&gt;x18 -->
<g id="edge52" class="edge">
<title>n1:e&#45;&gt;x18:w</title>
<path fill="none" stroke="black" d="M54,-976.5C111.9,-976.5 38.39,-733.79 80.38,-704.4"/>
<polygon fill="black" stroke="black" points="81.44,-707.74 90,-701.5 79.42,-701.04 81.44,-707.74"/>
</g>
<!-- x21 -->
<g id="node33" class="node">
<title>x21</title>
<path fill="none" stroke="black" d="M102,-353.5C102,-353.5 203,-353.5 203,-353.5 209,-353.5 215,-359.5 215,-365.5 215,-365.5 215,-377.5 215,-377.5 215,-383.5 209,-389.5 203,-389.5 203,-389.5 102,-389.5 102,-389.5 96,-389.5 90,-383.5 90,-377.5 90,-377.5 90,-365.5 90,-365.5 90,-359.5 96,-353.5 102,-353.5"/>
<text text-anchor="middle" x="152.5" y="-367.8" font-family="Times,serif" font-size="14.00">slice [15] to [0]</text>
</g>
<!-- n1&#45;&gt;x21 -->
<g id="edge53" class="edge">
<title>n1:e&#45;&gt;x21:w</title>
<path fill="none" stroke="black" d="M54,-976.5C117.92,-976.5 32.25,-431.39 80.98,-376.02"/>
<polygon fill="black" stroke="black" points="82.63,-379.11 90,-371.5 79.49,-372.85 82.63,-379.11"/>
</g>
<!-- x24 -->
<g id="node37" class="node">
<title>x24</title>
<path fill="none" stroke="black" d="M106.5,-573.5C106.5,-573.5 198.5,-573.5 198.5,-573.5 204.5,-573.5 210.5,-579.5 210.5,-585.5 210.5,-585.5 210.5,-597.5 210.5,-597.5 210.5,-603.5 204.5,-609.5 198.5,-609.5 198.5,-609.5 106.5,-609.5 106.5,-609.5 100.5,-609.5 94.5,-603.5 94.5,-597.5 94.5,-597.5 94.5,-585.5 94.5,-585.5 94.5,-579.5 100.5,-573.5 106.5,-573.5"/>
<text text-anchor="middle" x="152.5" y="-587.8" font-family="Times,serif" font-size="14.00">slice [2] to [0]</text>
</g>
<!-- n1&#45;&gt;x24 -->
<g id="edge54" class="edge">
<title>n1:e&#45;&gt;x24:w</title>
<path fill="none" stroke="black" d="M54,-976.5C136.31,-976.5 18.48,-623.88 83.59,-593.57"/>
<polygon fill="black" stroke="black" points="84.43,-596.97 93.5,-591.5 83,-590.12 84.43,-596.97"/>
</g>
<!-- x27 -->
<g id="node41" class="node">
<title>x27</title>
<path fill="none" stroke="black" d="M106.5,-133.5C106.5,-133.5 198.5,-133.5 198.5,-133.5 204.5,-133.5 210.5,-139.5 210.5,-145.5 210.5,-145.5 210.5,-157.5 210.5,-157.5 210.5,-163.5 204.5,-169.5 198.5,-169.5 198.5,-169.5 106.5,-169.5 106.5,-169.5 100.5,-169.5 94.5,-163.5 94.5,-157.5 94.5,-157.5 94.5,-145.5 94.5,-145.5 94.5,-139.5 100.5,-133.5 106.5,-133.5"/>
<text text-anchor="middle" x="152.5" y="-147.8" font-family="Times,serif" font-size="14.00">slice [3] to [0]</text>
</g>
<!-- n1&#45;&gt;x27 -->
<g id="edge55" class="edge">
<title>n1:e&#45;&gt;x27:w</title>
<path fill="none" stroke="black" d="M54,-976.5C142.19,-976.5 12.62,-214.69 83.8,-155.18"/>
<polygon fill="black" stroke="black" points="85.39,-158.32 93.5,-151.5 82.91,-151.77 85.39,-158.32"/>
</g>
<!-- x30 -->
<g id="node45" class="node">
<title>x30</title>
<path fill="none" stroke="black" d="M106.5,-903.5C106.5,-903.5 198.5,-903.5 198.5,-903.5 204.5,-903.5 210.5,-909.5 210.5,-915.5 210.5,-915.5 210.5,-927.5 210.5,-927.5 210.5,-933.5 204.5,-939.5 198.5,-939.5 198.5,-939.5 106.5,-939.5 106.5,-939.5 100.5,-939.5 94.5,-933.5 94.5,-927.5 94.5,-927.5 94.5,-915.5 94.5,-915.5 94.5,-909.5 100.5,-903.5 106.5,-903.5"/>
<text text-anchor="middle" x="152.5" y="-917.8" font-family="Times,serif" font-size="14.00">slice [4] to [0]</text>
</g>
<!-- n1&#45;&gt;x30 -->
<g id="edge56" class="edge">
<title>n1:e&#45;&gt;x30:w</title>
<path fill="none" stroke="black" d="M54,-976.5C79.86,-976.5 68.22,-935.88 83.53,-924.46"/>
<polygon fill="black" stroke="black" points="84.91,-927.7 93.5,-921.5 82.92,-920.99 84.91,-927.7"/>
</g>
<!-- x33 -->
<g id="node49" class="node">
<title>x33</title>
<path fill="none" stroke="black" d="M106.5,-1343.5C106.5,-1343.5 198.5,-1343.5 198.5,-1343.5 204.5,-1343.5 210.5,-1349.5 210.5,-1355.5 210.5,-1355.5 210.5,-1367.5 210.5,-1367.5 210.5,-1373.5 204.5,-1379.5 198.5,-1379.5 198.5,-1379.5 106.5,-1379.5 106.5,-1379.5 100.5,-1379.5 94.5,-1373.5 94.5,-1367.5 94.5,-1367.5 94.5,-1355.5 94.5,-1355.5 94.5,-1349.5 100.5,-1343.5 106.5,-1343.5"/>
<text text-anchor="middle" x="152.5" y="-1357.8" font-family="Times,serif" font-size="14.00">slice [5] to [0]</text>
</g>
<!-- n1&#45;&gt;x33 -->
<g id="edge57" class="edge">
<title>n1:e&#45;&gt;x33:w</title>
<path fill="none" stroke="black" d="M54,-976.5C136.31,-976.5 18.48,-1329.12 83.59,-1359.43"/>
<polygon fill="black" stroke="black" points="83,-1362.88 93.5,-1361.5 84.43,-1356.03 83,-1362.88"/>
</g>
<!-- x36 -->
<g id="node53" class="node">
<title>x36</title>
<path fill="none" stroke="black" d="M106.5,-1123.5C106.5,-1123.5 198.5,-1123.5 198.5,-1123.5 204.5,-1123.5 210.5,-1129.5 210.5,-1135.5 210.5,-1135.5 210.5,-1147.5 210.5,-1147.5 210.5,-1153.5 204.5,-1159.5 198.5,-1159.5 198.5,-1159.5 106.5,-1159.5 106.5,-1159.5 100.5,-1159.5 94.5,-1153.5 94.5,-1147.5 94.5,-1147.5 94.5,-1135.5 94.5,-1135.5 94.5,-1129.5 100.5,-1123.5 106.5,-1123.5"/>
<text text-anchor="middle" x="152.5" y="-1137.8" font-family="Times,serif" font-size="14.00">slice [6] to [0]</text>
</g>
<!-- n1&#45;&gt;x36 -->
<g id="edge58" class="edge">
<title>n1:e&#45;&gt;x36:w</title>
<path fill="none" stroke="black" d="M54,-976.5C125.58,-976.5 28.92,-1125.17 83.41,-1140.27"/>
<polygon fill="black" stroke="black" points="83.15,-1143.76 93.5,-1141.5 84,-1136.81 83.15,-1143.76"/>
</g>
<!-- x39 -->
<g id="node57" class="node">
<title>x39</title>
<path fill="none" stroke="black" d="M106.5,-243.5C106.5,-243.5 198.5,-243.5 198.5,-243.5 204.5,-243.5 210.5,-249.5 210.5,-255.5 210.5,-255.5 210.5,-267.5 210.5,-267.5 210.5,-273.5 204.5,-279.5 198.5,-279.5 198.5,-279.5 106.5,-279.5 106.5,-279.5 100.5,-279.5 94.5,-273.5 94.5,-267.5 94.5,-267.5 94.5,-255.5 94.5,-255.5 94.5,-249.5 100.5,-243.5 106.5,-243.5"/>
<text text-anchor="middle" x="152.5" y="-257.8" font-family="Times,serif" font-size="14.00">slice [7] to [0]</text>
</g>
<!-- n1&#45;&gt;x39 -->
<g id="edge59" class="edge">
<title>n1:e&#45;&gt;x39:w</title>
<path fill="none" stroke="black" d="M54,-976.5C129.99,-976.5 24.28,-324.3 83.95,-265.7"/>
<polygon fill="black" stroke="black" points="85.75,-268.73 93.5,-261.5 82.94,-262.32 85.75,-268.73"/>
</g>
<!-- x42 -->
<g id="node61" class="node">
<title>x42</title>
<path fill="none" stroke="black" d="M106.5,-463.5C106.5,-463.5 198.5,-463.5 198.5,-463.5 204.5,-463.5 210.5,-469.5 210.5,-475.5 210.5,-475.5 210.5,-487.5 210.5,-487.5 210.5,-493.5 204.5,-499.5 198.5,-499.5 198.5,-499.5 106.5,-499.5 106.5,-499.5 100.5,-499.5 94.5,-493.5 94.5,-487.5 94.5,-487.5 94.5,-475.5 94.5,-475.5 94.5,-469.5 100.5,-463.5 106.5,-463.5"/>
<text text-anchor="middle" x="152.5" y="-477.8" font-family="Times,serif" font-size="14.00">slice [8] to [0]</text>
</g>
<!-- n1&#45;&gt;x42 -->
<g id="edge61" class="edge">
<title>n1:e&#45;&gt;x42:w</title>
<path fill="none" stroke="black" d="M54,-976.5C105.83,-976.5 46.44,-539.63 84.81,-486.72"/>
<polygon fill="black" stroke="black" points="86.73,-489.65 93.5,-481.5 83.13,-483.65 86.73,-489.65"/>
</g>
<!-- x45 -->
<g id="node65" class="node">
<title>x45</title>
<path fill="none" stroke="black" d="M106.5,-1453.5C106.5,-1453.5 198.5,-1453.5 198.5,-1453.5 204.5,-1453.5 210.5,-1459.5 210.5,-1465.5 210.5,-1465.5 210.5,-1477.5 210.5,-1477.5 210.5,-1483.5 204.5,-1489.5 198.5,-1489.5 198.5,-1489.5 106.5,-1489.5 106.5,-1489.5 100.5,-1489.5 94.5,-1483.5 94.5,-1477.5 94.5,-1477.5 94.5,-1465.5 94.5,-1465.5 94.5,-1459.5 100.5,-1453.5 106.5,-1453.5"/>
<text text-anchor="middle" x="152.5" y="-1467.8" font-family="Times,serif" font-size="14.00">slice [9] to [0]</text>
</g>
<!-- n1&#45;&gt;x45 -->
<g id="edge62" class="edge">
<title>n1:e&#45;&gt;x45:w</title>
<path fill="none" stroke="black" d="M54,-976.5C105.83,-976.5 46.44,-1413.37 84.81,-1466.28"/>
<polygon fill="black" stroke="black" points="83.13,-1469.35 93.5,-1471.5 86.73,-1463.35 83.13,-1469.35"/>
</g>
<!-- n2 -->
<g id="node2" class="node">
<title>n2</title>
<polygon fill="none" stroke="black" points="54,-804.04 54,-818.96 38.18,-829.5 15.82,-829.5 0,-818.96 0,-804.04 15.82,-793.5 38.18,-793.5 54,-804.04"/>
<text text-anchor="middle" x="27" y="-807.8" font-family="Times,serif" font-size="14.00">b</text>
</g>
<!-- x1 -->
<g id="node6" class="node">
<title>x1</title>
<path fill="none" stroke="black" d="M106.5,-1618.5C106.5,-1618.5 198.5,-1618.5 198.5,-1618.5 204.5,-1618.5 210.5,-1624.5 210.5,-1630.5 210.5,-1630.5 210.5,-1642.5 210.5,-1642.5 210.5,-1648.5 204.5,-1654.5 198.5,-1654.5 198.5,-1654.5 106.5,-1654.5 106.5,-1654.5 100.5,-1654.5 94.5,-1648.5 94.5,-1642.5 94.5,-1642.5 94.5,-1630.5 94.5,-1630.5 94.5,-1624.5 100.5,-1618.5 106.5,-1618.5"/>
<text text-anchor="middle" x="152.5" y="-1632.8" font-family="Times,serif" font-size="14.00">slice [0] to [0]</text>
</g>
<!-- n2&#45;&gt;x1 -->
<g id="edge69" class="edge">
<title>n2:e&#45;&gt;x1:w</title>
<path fill="none" stroke="black" d="M54,-811.5C142.19,-811.5 12.62,-1573.31 83.8,-1632.82"/>
<polygon fill="black" stroke="black" points="82.91,-1636.23 93.5,-1636.5 85.39,-1629.68 82.91,-1636.23"/>
</g>
<!-- x4 -->
<g id="node10" class="node">
<title>x4</title>
<path fill="none" stroke="black" d="M106.5,-1508.5C106.5,-1508.5 198.5,-1508.5 198.5,-1508.5 204.5,-1508.5 210.5,-1514.5 210.5,-1520.5 210.5,-1520.5 210.5,-1532.5 210.5,-1532.5 210.5,-1538.5 204.5,-1544.5 198.5,-1544.5 198.5,-1544.5 106.5,-1544.5 106.5,-1544.5 100.5,-1544.5 94.5,-1538.5 94.5,-1532.5 94.5,-1532.5 94.5,-1520.5 94.5,-1520.5 94.5,-1514.5 100.5,-1508.5 106.5,-1508.5"/>
<text text-anchor="middle" x="152.5" y="-1522.8" font-family="Times,serif" font-size="14.00">slice [1] to [0]</text>
</g>
<!-- n2&#45;&gt;x4 -->
<g id="edge79" class="edge">
<title>n2:e&#45;&gt;x4:w</title>
<path fill="none" stroke="black" d="M54,-811.5C129.99,-811.5 24.28,-1463.7 83.95,-1522.3"/>
<polygon fill="black" stroke="black" points="82.94,-1525.68 93.5,-1526.5 85.75,-1519.27 82.94,-1525.68"/>
</g>
<!-- x7 -->
<g id="node14" class="node">
<title>x7</title>
<path fill="none" stroke="black" d="M102,-1068.5C102,-1068.5 203,-1068.5 203,-1068.5 209,-1068.5 215,-1074.5 215,-1080.5 215,-1080.5 215,-1092.5 215,-1092.5 215,-1098.5 209,-1104.5 203,-1104.5 203,-1104.5 102,-1104.5 102,-1104.5 96,-1104.5 90,-1098.5 90,-1092.5 90,-1092.5 90,-1080.5 90,-1080.5 90,-1074.5 96,-1068.5 102,-1068.5"/>
<text text-anchor="middle" x="152.5" y="-1082.8" font-family="Times,serif" font-size="14.00">slice [10] to [0]</text>
</g>
<!-- n2&#45;&gt;x7 -->
<g id="edge80" class="edge">
<title>n2:e&#45;&gt;x7:w</title>
<path fill="none" stroke="black" d="M54,-811.5C111.9,-811.5 38.39,-1054.21 80.38,-1083.6"/>
<polygon fill="black" stroke="black" points="79.42,-1086.96 90,-1086.5 81.44,-1080.26 79.42,-1086.96"/>
</g>
<!-- x10 -->
<g id="node18" class="node">
<title>x10</title>
<path fill="none" stroke="black" d="M102,-628.5C102,-628.5 203,-628.5 203,-628.5 209,-628.5 215,-634.5 215,-640.5 215,-640.5 215,-652.5 215,-652.5 215,-658.5 209,-664.5 203,-664.5 203,-664.5 102,-664.5 102,-664.5 96,-664.5 90,-658.5 90,-652.5 90,-652.5 90,-640.5 90,-640.5 90,-634.5 96,-628.5 102,-628.5"/>
<text text-anchor="middle" x="152.5" y="-642.8" font-family="Times,serif" font-size="14.00">slice [11] to [0]</text>
</g>
<!-- n2&#45;&gt;x10 -->
<g id="edge65" class="edge">
<title>n2:e&#45;&gt;x10:w</title>
<path fill="none" stroke="black" d="M54,-811.5C125.25,-811.5 26.04,-662.83 79.98,-647.73"/>
<polygon fill="black" stroke="black" points="80.5,-651.2 90,-646.5 79.65,-644.25 80.5,-651.2"/>
</g>
<!-- x13 -->
<g id="node22" class="node">
<title>x13</title>
<path fill="none" stroke="black" d="M102,-848.5C102,-848.5 203,-848.5 203,-848.5 209,-848.5 215,-854.5 215,-860.5 215,-860.5 215,-872.5 215,-872.5 215,-878.5 209,-884.5 203,-884.5 203,-884.5 102,-884.5 102,-884.5 96,-884.5 90,-878.5 90,-872.5 90,-872.5 90,-860.5 90,-860.5 90,-854.5 96,-848.5 102,-848.5"/>
<text text-anchor="middle" x="152.5" y="-862.8" font-family="Times,serif" font-size="14.00">slice [12] to [0]</text>
</g>
<!-- n2&#45;&gt;x13 -->
<g id="edge66" class="edge">
<title>n2:e&#45;&gt;x13:w</title>
<path fill="none" stroke="black" d="M54,-811.5C78.88,-811.5 66.31,-851.38 80.07,-863.22"/>
<polygon fill="black" stroke="black" points="79.41,-866.69 90,-866.5 81.6,-860.04 79.41,-866.69"/>
</g>
<!-- x16 -->
<g id="node26" class="node">
<title>x16</title>
<path fill="none" stroke="black" d="M102,-1398.5C102,-1398.5 203,-1398.5 203,-1398.5 209,-1398.5 215,-1404.5 215,-1410.5 215,-1410.5 215,-1422.5 215,-1422.5 215,-1428.5 209,-1434.5 203,-1434.5 203,-1434.5 102,-1434.5 102,-1434.5 96,-1434.5 90,-1428.5 90,-1422.5 90,-1422.5 90,-1410.5 90,-1410.5 90,-1404.5 96,-1398.5 102,-1398.5"/>
<text text-anchor="middle" x="152.5" y="-1412.8" font-family="Times,serif" font-size="14.00">slice [13] to [0]</text>
</g>
<!-- n2&#45;&gt;x16 -->
<g id="edge67" class="edge">
<title>n2:e&#45;&gt;x16:w</title>
<path fill="none" stroke="black" d="M54,-811.5C117.92,-811.5 32.25,-1356.61 80.98,-1411.98"/>
<polygon fill="black" stroke="black" points="79.49,-1415.15 90,-1416.5 82.63,-1408.89 79.49,-1415.15"/>
</g>
<!-- x19 -->
<g id="node30" class="node">
<title>x19</title>
<path fill="none" stroke="black" d="M102,-518.5C102,-518.5 203,-518.5 203,-518.5 209,-518.5 215,-524.5 215,-530.5 215,-530.5 215,-542.5 215,-542.5 215,-548.5 209,-554.5 203,-554.5 203,-554.5 102,-554.5 102,-554.5 96,-554.5 90,-548.5 90,-542.5 90,-542.5 90,-530.5 90,-530.5 90,-524.5 96,-518.5 102,-518.5"/>
<text text-anchor="middle" x="152.5" y="-532.8" font-family="Times,serif" font-size="14.00">slice [14] to [0]</text>
</g>
<!-- n2&#45;&gt;x19 -->
<g id="edge68" class="edge">
<title>n2:e&#45;&gt;x19:w</title>
<path fill="none" stroke="black" d="M54,-811.5C111.9,-811.5 38.39,-568.79 80.38,-539.4"/>
<polygon fill="black" stroke="black" points="81.44,-542.74 90,-536.5 79.42,-536.04 81.44,-542.74"/>
</g>
<!-- x22 -->
<g id="node34" class="node">
<title>x22</title>
<path fill="none" stroke="black" d="M102,-188.5C102,-188.5 203,-188.5 203,-188.5 209,-188.5 215,-194.5 215,-200.5 215,-200.5 215,-212.5 215,-212.5 215,-218.5 209,-224.5 203,-224.5 203,-224.5 102,-224.5 102,-224.5 96,-224.5 90,-218.5 90,-212.5 90,-212.5 90,-200.5 90,-200.5 90,-194.5 96,-188.5 102,-188.5"/>
<text text-anchor="middle" x="152.5" y="-202.8" font-family="Times,serif" font-size="14.00">slice [15] to [0]</text>
</g>
<!-- n2&#45;&gt;x22 -->
<g id="edge70" class="edge">
<title>n2:e&#45;&gt;x22:w</title>
<path fill="none" stroke="black" d="M54,-811.5C117.92,-811.5 32.25,-266.39 80.98,-211.02"/>
<polygon fill="black" stroke="black" points="82.63,-214.11 90,-206.5 79.49,-207.85 82.63,-214.11"/>
</g>
<!-- x25 -->
<g id="node38" class="node">
<title>x25</title>
<path fill="none" stroke="black" d="M106.5,-408.5C106.5,-408.5 198.5,-408.5 198.5,-408.5 204.5,-408.5 210.5,-414.5 210.5,-420.5 210.5,-420.5 210.5,-432.5 210.5,-432.5 210.5,-438.5 204.5,-444.5 198.5,-444.5 198.5,-444.5 106.5,-444.5 106.5,-444.5 100.5,-444.5 94.5,-438.5 94.5,-432.5 94.5,-432.5 94.5,-420.5 94.5,-420.5 94.5,-414.5 100.5,-408.5 106.5,-408.5"/>
<text text-anchor="middle" x="152.5" y="-422.8" font-family="Times,serif" font-size="14.00">slice [2] to [0]</text>
</g>
<!-- n2&#45;&gt;x25 -->
<g id="edge71" class="edge">
<title>n2:e&#45;&gt;x25:w</title>
<path fill="none" stroke="black" d="M54,-811.5C136.31,-811.5 18.48,-458.88 83.59,-428.57"/>
<polygon fill="black" stroke="black" points="84.43,-431.97 93.5,-426.5 83,-425.12 84.43,-431.97"/>
</g>
<!-- x28 -->
<g id="node42" class="node">
<title>x28</title>
<path fill="none" stroke="black" d="M106.5,-23.5C106.5,-23.5 198.5,-23.5 198.5,-23.5 204.5,-23.5 210.5,-29.5 210.5,-35.5 210.5,-35.5 210.5,-47.5 210.5,-47.5 210.5,-53.5 204.5,-59.5 198.5,-59.5 198.5,-59.5 106.5,-59.5 106.5,-59.5 100.5,-59.5 94.5,-53.5 94.5,-47.5 94.5,-47.5 94.5,-35.5 94.5,-35.5 94.5,-29.5 100.5,-23.5 106.5,-23.5"/>
<text text-anchor="middle" x="152.5" y="-37.8" font-family="Times,serif" font-size="14.00">slice [3] to [0]</text>
</g>
<!-- n2&#45;&gt;x28 -->
<g id="edge72" class="edge">
<title>n2:e&#45;&gt;x28:w</title>
<path fill="none" stroke="black" d="M54,-811.5C136.15,-811.5 18.28,-103.37 84.03,-45.28"/>
<polygon fill="black" stroke="black" points="85.51,-48.46 93.5,-41.5 82.91,-41.96 85.51,-48.46"/>
</g>
<!-- x31 -->
<g id="node46" class="node">
<title>x31</title>
<path fill="none" stroke="black" d="M106.5,-738.5C106.5,-738.5 198.5,-738.5 198.5,-738.5 204.5,-738.5 210.5,-744.5 210.5,-750.5 210.5,-750.5 210.5,-762.5 210.5,-762.5 210.5,-768.5 204.5,-774.5 198.5,-774.5 198.5,-774.5 106.5,-774.5 106.5,-774.5 100.5,-774.5 94.5,-768.5 94.5,-762.5 94.5,-762.5 94.5,-750.5 94.5,-750.5 94.5,-744.5 100.5,-738.5 106.5,-738.5"/>
<text text-anchor="middle" x="152.5" y="-752.8" font-family="Times,serif" font-size="14.00">slice [4] to [0]</text>
</g>
<!-- n2&#45;&gt;x31 -->
<g id="edge73" class="edge">
<title>n2:e&#45;&gt;x31:w</title>
<path fill="none" stroke="black" d="M54,-811.5C79.86,-811.5 68.22,-770.88 83.53,-759.46"/>
<polygon fill="black" stroke="black" points="84.91,-762.7 93.5,-756.5 82.92,-755.99 84.91,-762.7"/>
</g>
<!-- x34 -->
<g id="node50" class="node">
<title>x34</title>
<path fill="none" stroke="black" d="M106.5,-1178.5C106.5,-1178.5 198.5,-1178.5 198.5,-1178.5 204.5,-1178.5 210.5,-1184.5 210.5,-1190.5 210.5,-1190.5 210.5,-1202.5 210.5,-1202.5 210.5,-1208.5 204.5,-1214.5 198.5,-1214.5 198.5,-1214.5 106.5,-1214.5 106.5,-1214.5 100.5,-1214.5 94.5,-1208.5 94.5,-1202.5 94.5,-1202.5 94.5,-1190.5 94.5,-1190.5 94.5,-1184.5 100.5,-1178.5 106.5,-1178.5"/>
<text text-anchor="middle" x="152.5" y="-1192.8" font-family="Times,serif" font-size="14.00">slice [5] to [0]</text>
</g>
<!-- n2&#45;&gt;x34 -->
<g id="edge74" class="edge">
<title>n2:e&#45;&gt;x34:w</title>
<path fill="none" stroke="black" d="M54,-811.5C136.31,-811.5 18.48,-1164.12 83.59,-1194.43"/>
<polygon fill="black" stroke="black" points="83,-1197.88 93.5,-1196.5 84.43,-1191.03 83,-1197.88"/>
</g>
<!-- x37 -->
<g id="node54" class="node">
<title>x37</title>
<path fill="none" stroke="black" d="M106.5,-958.5C106.5,-958.5 198.5,-958.5 198.5,-958.5 204.5,-958.5 210.5,-964.5 210.5,-970.5 210.5,-970.5 210.5,-982.5 210.5,-982.5 210.5,-988.5 204.5,-994.5 198.5,-994.5 198.5,-994.5 106.5,-994.5 106.5,-994.5 100.5,-994.5 94.5,-988.5 94.5,-982.5 94.5,-982.5 94.5,-970.5 94.5,-970.5 94.5,-964.5 100.5,-958.5 106.5,-958.5"/>
<text text-anchor="middle" x="152.5" y="-972.8" font-family="Times,serif" font-size="14.00">slice [6] to [0]</text>
</g>
<!-- n2&#45;&gt;x37 -->
<g id="edge75" class="edge">
<title>n2:e&#45;&gt;x37:w</title>
<path fill="none" stroke="black" d="M54,-811.5C125.58,-811.5 28.92,-960.17 83.41,-975.27"/>
<polygon fill="black" stroke="black" points="83.15,-978.76 93.5,-976.5 84,-971.81 83.15,-978.76"/>
</g>
<!-- x40 -->
<g id="node58" class="node">
<title>x40</title>
<path fill="none" stroke="black" d="M106.5,-78.5C106.5,-78.5 198.5,-78.5 198.5,-78.5 204.5,-78.5 210.5,-84.5 210.5,-90.5 210.5,-90.5 210.5,-102.5 210.5,-102.5 210.5,-108.5 204.5,-114.5 198.5,-114.5 198.5,-114.5 106.5,-114.5 106.5,-114.5 100.5,-114.5 94.5,-108.5 94.5,-102.5 94.5,-102.5 94.5,-90.5 94.5,-90.5 94.5,-84.5 100.5,-78.5 106.5,-78.5"/>
<text text-anchor="middle" x="152.5" y="-92.8" font-family="Times,serif" font-size="14.00">slice [7] to [0]</text>
</g>
<!-- n2&#45;&gt;x40 -->
<g id="edge76" class="edge">
<title>n2:e&#45;&gt;x40:w</title>
<path fill="none" stroke="black" d="M54,-811.5C129.99,-811.5 24.28,-159.3 83.95,-100.7"/>
<polygon fill="black" stroke="black" points="85.75,-103.73 93.5,-96.5 82.94,-97.32 85.75,-103.73"/>
</g>
<!-- x43 -->
<g id="node62" class="node">
<title>x43</title>
<path fill="none" stroke="black" d="M106.5,-298.5C106.5,-298.5 198.5,-298.5 198.5,-298.5 204.5,-298.5 210.5,-304.5 210.5,-310.5 210.5,-310.5 210.5,-322.5 210.5,-322.5 210.5,-328.5 204.5,-334.5 198.5,-334.5 198.5,-334.5 106.5,-334.5 106.5,-334.5 100.5,-334.5 94.5,-328.5 94.5,-322.5 94.5,-322.5 94.5,-310.5 94.5,-310.5 94.5,-304.5 100.5,-298.5 106.5,-298.5"/>
<text text-anchor="middle" x="152.5" y="-312.8" font-family="Times,serif" font-size="14.00">slice [8] to [0]</text>
</g>
<!-- n2&#45;&gt;x43 -->
<g id="edge77" class="edge">
<title>n2:e&#45;&gt;x43:w</title>
<path fill="none" stroke="black" d="M54,-811.5C105.83,-811.5 46.44,-374.63 84.81,-321.72"/>
<polygon fill="black" stroke="black" points="86.73,-324.65 93.5,-316.5 83.13,-318.65 86.73,-324.65"/>
</g>
<!-- x46 -->
<g id="node66" class="node">
<title>x46</title>
<path fill="none" stroke="black" d="M106.5,-1288.5C106.5,-1288.5 198.5,-1288.5 198.5,-1288.5 204.5,-1288.5 210.5,-1294.5 210.5,-1300.5 210.5,-1300.5 210.5,-1312.5 210.5,-1312.5 210.5,-1318.5 204.5,-1324.5 198.5,-1324.5 198.5,-1324.5 106.5,-1324.5 106.5,-1324.5 100.5,-1324.5 94.5,-1318.5 94.5,-1312.5 94.5,-1312.5 94.5,-1300.5 94.5,-1300.5 94.5,-1294.5 100.5,-1288.5 106.5,-1288.5"/>
<text text-anchor="middle" x="152.5" y="-1302.8" font-family="Times,serif" font-size="14.00">slice [9] to [0]</text>
</g>
<!-- n2&#45;&gt;x46 -->
<g id="edge78" class="edge">
<title>n2:e&#45;&gt;x46:w</title>
<path fill="none" stroke="black" d="M54,-811.5C105.83,-811.5 46.44,-1248.37 84.81,-1301.28"/>
<polygon fill="black" stroke="black" points="83.13,-1304.35 93.5,-1306.5 86.73,-1298.35 83.13,-1304.35"/>
</g>
<!-- n3 -->
<g id="node3" class="node">
<title>n3</title>
<polygon fill="none" stroke="black" points="638.42,-886.04 638.42,-900.96 621.85,-911.5 598.43,-911.5 581.86,-900.96 581.86,-886.04 598.43,-875.5 621.85,-875.5 638.42,-886.04"/>
<text text-anchor="middle" x="610.14" y="-889.8" font-family="Times,serif" font-size="14.00">out</text>
</g>
<!-- c4 -->
<g id="node4" class="node">
<title>c4</title>
<polygon fill="none" stroke="black" points="255.5,-1625.5 255.5,-1671.5 380.5,-1671.5 380.5,-1625.5 255.5,-1625.5"/>
<text text-anchor="middle" x="268.5" y="-1656.3" font-family="Times,serif" font-size="14.00">a</text>
<polyline fill="none" stroke="black" points="255.5,-1648.5 281.5,-1648.5 "/>
<text text-anchor="middle" x="268.5" y="-1633.3" font-family="Times,serif" font-size="14.00">b</text>
<polyline fill="none" stroke="black" points="281.5,-1625.5 281.5,-1671.5 "/>
<text text-anchor="middle" x="311" y="-1652.3" font-family="Times,serif" font-size="14.00">and_0</text>
<text text-anchor="middle" x="311" y="-1637.3" font-family="Times,serif" font-size="14.00">And</text>
<polyline fill="none" stroke="black" points="340.5,-1625.5 340.5,-1671.5 "/>
<text text-anchor="middle" x="360.5" y="-1644.8" font-family="Times,serif" font-size="14.00">out</text>
</g>
<!-- x2 -->
<g id="node7" class="node">
<title>x2</title>
<path fill="none" stroke="black" d="M437.5,-1578.5C437.5,-1578.5 529.5,-1578.5 529.5,-1578.5 535.5,-1578.5 541.5,-1584.5 541.5,-1590.5 541.5,-1590.5 541.5,-1602.5 541.5,-1602.5 541.5,-1608.5 535.5,-1614.5 529.5,-1614.5 529.5,-1614.5 437.5,-1614.5 437.5,-1614.5 431.5,-1614.5 425.5,-1608.5 425.5,-1602.5 425.5,-1602.5 425.5,-1590.5 425.5,-1590.5 425.5,-1584.5 431.5,-1578.5 437.5,-1578.5"/>
<text text-anchor="middle" x="483.5" y="-1592.8" font-family="Times,serif" font-size="14.00">slice [0] to [0]</text>
</g>
<!-- c4&#45;&gt;x2 -->
<g id="edge3" class="edge">
<title>c4:e&#45;&gt;x2:w</title>
<path fill="none" stroke="black" d="M393.7,-1644.42C404.56,-1634.65 401.97,-1610.02 412.98,-1600.42"/>
<polygon fill="none" stroke="black" points="393.33,-1644.55 388.98,-1650.3 382,-1648.5 386.35,-1642.75 393.33,-1644.55"/>
<polygon fill="none" stroke="black" points="413.14,-1600.37 417.53,-1594.65 424.5,-1596.5 420.11,-1602.22 413.14,-1600.37"/>
</g>
<!-- x0&#45;&gt;c4 -->
<g id="edge1" class="edge">
<title>x0:e&#45;&gt;c4:w</title>
<path fill="none" stroke="black" d="M223.25,-1743.23C242.36,-1729.61 223.14,-1677.4 242.25,-1663.77"/>
<polygon fill="none" stroke="black" points="223.06,-1743.28 218.35,-1748.75 211.5,-1746.5 216.21,-1741.04 223.06,-1743.28"/>
<polygon fill="none" stroke="black" points="242.44,-1663.72 247.15,-1658.25 254,-1660.5 249.29,-1665.96 242.44,-1663.72"/>
</g>
<!-- x1&#45;&gt;c4 -->
<g id="edge2" class="edge">
<title>x1:e&#45;&gt;c4:w</title>
<path fill="none" stroke="black" d="M223.77,-1636.5C230.33,-1636.5 235.26,-1636.5 241.84,-1636.5"/>
<polygon fill="none" stroke="black" points="223.5,-1636.5 217.5,-1640.5 211.5,-1636.5 217.5,-1632.5 223.5,-1636.5"/>
<polygon fill="none" stroke="black" points="242,-1636.5 248,-1632.5 254,-1636.5 248,-1640.5 242,-1636.5"/>
</g>
<!-- x2&#45;&gt;n3 -->
<g id="edge88" class="edge">
<title>x2:e&#45;&gt;n3:w</title>
<path fill="none" stroke="black" d="M542.5,-1596.5C617.22,-1596.5 513.88,-955.24 572.6,-897.63"/>
<polygon fill="black" stroke="black" points="574.25,-900.73 582,-893.5 571.44,-894.32 574.25,-900.73"/>
</g>
<!-- c5 -->
<g id="node8" class="node">
<title>c5</title>
<polygon fill="none" stroke="black" points="255.5,-1515.5 255.5,-1561.5 380.5,-1561.5 380.5,-1515.5 255.5,-1515.5"/>
<text text-anchor="middle" x="268.5" y="-1546.3" font-family="Times,serif" font-size="14.00">a</text>
<polyline fill="none" stroke="black" points="255.5,-1538.5 281.5,-1538.5 "/>
<text text-anchor="middle" x="268.5" y="-1523.3" font-family="Times,serif" font-size="14.00">b</text>
<polyline fill="none" stroke="black" points="281.5,-1515.5 281.5,-1561.5 "/>
<text text-anchor="middle" x="311" y="-1542.3" font-family="Times,serif" font-size="14.00">and_1</text>
<text text-anchor="middle" x="311" y="-1527.3" font-family="Times,serif" font-size="14.00">And</text>
<polyline fill="none" stroke="black" points="340.5,-1515.5 340.5,-1561.5 "/>
<text text-anchor="middle" x="360.5" y="-1534.8" font-family="Times,serif" font-size="14.00">out</text>
</g>
<!-- x5 -->
<g id="node11" class="node">
<title>x5</title>
<path fill="none" stroke="black" d="M437.5,-1469.5C437.5,-1469.5 529.5,-1469.5 529.5,-1469.5 535.5,-1469.5 541.5,-1475.5 541.5,-1481.5 541.5,-1481.5 541.5,-1493.5 541.5,-1493.5 541.5,-1499.5 535.5,-1505.5 529.5,-1505.5 529.5,-1505.5 437.5,-1505.5 437.5,-1505.5 431.5,-1505.5 425.5,-1499.5 425.5,-1493.5 425.5,-1493.5 425.5,-1481.5 425.5,-1481.5 425.5,-1475.5 431.5,-1469.5 437.5,-1469.5"/>
<text text-anchor="middle" x="483.5" y="-1483.8" font-family="Times,serif" font-size="14.00">slice [0] to [1]</text>
</g>
<!-- c5&#45;&gt;x5 -->
<g id="edge6" class="edge">
<title>c5:e&#45;&gt;x5:w</title>
<path fill="none" stroke="black" d="M393.6,-1534.5C404.43,-1524.92 402.11,-1500.76 413.08,-1491.34"/>
<polygon fill="none" stroke="black" points="393.34,-1534.59 388.98,-1540.33 382,-1538.5 386.37,-1532.76 393.34,-1534.59"/>
<polygon fill="none" stroke="black" points="413.13,-1491.33 417.54,-1485.62 424.5,-1487.5 420.09,-1493.2 413.13,-1491.33"/>
</g>
<!-- x3&#45;&gt;c5 -->
<g id="edge4" class="edge">
<title>x3:e&#45;&gt;c5:w</title>
<path fill="none" stroke="black" d="M223.4,-1689.4C261.73,-1673.23 203.79,-1568.83 242.08,-1552.61"/>
<polygon fill="none" stroke="black" points="223.32,-1689.41 218.1,-1694.39 211.5,-1691.5 216.71,-1686.52 223.32,-1689.41"/>
<polygon fill="none" stroke="black" points="242.18,-1552.6 247.39,-1547.61 254,-1550.5 248.79,-1555.49 242.18,-1552.6"/>
</g>
<!-- x4&#45;&gt;c5 -->
<g id="edge5" class="edge">
<title>x4:e&#45;&gt;c5:w</title>
<path fill="none" stroke="black" d="M223.77,-1526.5C230.33,-1526.5 235.26,-1526.5 241.84,-1526.5"/>
<polygon fill="none" stroke="black" points="223.5,-1526.5 217.5,-1530.5 211.5,-1526.5 217.5,-1522.5 223.5,-1526.5"/>
<polygon fill="none" stroke="black" points="242,-1526.5 248,-1522.5 254,-1526.5 248,-1530.5 242,-1526.5"/>
</g>
<!-- x5&#45;&gt;n3 -->
<g id="edge95" class="edge">
<title>x5:e&#45;&gt;n3:w</title>
<path fill="none" stroke="black" d="M542.5,-1487.5C605.16,-1487.5 525.2,-954.5 572.81,-898.28"/>
<polygon fill="black" stroke="black" points="574.75,-901.22 582,-893.5 571.51,-895.01 574.75,-901.22"/>
</g>
<!-- c6 -->
<g id="node12" class="node">
<title>c6</title>
<polygon fill="none" stroke="black" points="251,-1075.5 251,-1121.5 385,-1121.5 385,-1075.5 251,-1075.5"/>
<text text-anchor="middle" x="264" y="-1106.3" font-family="Times,serif" font-size="14.00">a</text>
<polyline fill="none" stroke="black" points="251,-1098.5 277,-1098.5 "/>
<text text-anchor="middle" x="264" y="-1083.3" font-family="Times,serif" font-size="14.00">b</text>
<polyline fill="none" stroke="black" points="277,-1075.5 277,-1121.5 "/>
<text text-anchor="middle" x="311" y="-1102.3" font-family="Times,serif" font-size="14.00">and_10</text>
<text text-anchor="middle" x="311" y="-1087.3" font-family="Times,serif" font-size="14.00">And</text>
<polyline fill="none" stroke="black" points="345,-1075.5 345,-1121.5 "/>
<text text-anchor="middle" x="365" y="-1094.8" font-family="Times,serif" font-size="14.00">out</text>
</g>
<!-- x8 -->
<g id="node15" class="node">
<title>x8</title>
<path fill="none" stroke="black" d="M433,-1052.5C433,-1052.5 534,-1052.5 534,-1052.5 540,-1052.5 546,-1058.5 546,-1064.5 546,-1064.5 546,-1076.5 546,-1076.5 546,-1082.5 540,-1088.5 534,-1088.5 534,-1088.5 433,-1088.5 433,-1088.5 427,-1088.5 421,-1082.5 421,-1076.5 421,-1076.5 421,-1064.5 421,-1064.5 421,-1058.5 427,-1052.5 433,-1052.5"/>
<text text-anchor="middle" x="483.5" y="-1066.8" font-family="Times,serif" font-size="14.00">slice [0] to [10]</text>
</g>
<!-- c6&#45;&gt;x8 -->
<g id="edge9" class="edge">
<title>c6:e&#45;&gt;x8:w</title>
<path fill="none" stroke="black" d="M396.33,-1094.12C401.72,-1088.96 404.12,-1080.4 409.42,-1075.12"/>
<polygon fill="none" stroke="black" points="396.19,-1094.18 392.04,-1100.07 385,-1098.5 389.16,-1092.61 396.19,-1094.18"/>
<polygon fill="none" stroke="black" points="409.86,-1074.95 413.94,-1069.01 421,-1070.5 416.91,-1076.44 409.86,-1074.95"/>
</g>
<!-- x6&#45;&gt;c6 -->
<g id="edge7" class="edge">
<title>x6:e&#45;&gt;c6:w</title>
<path fill="none" stroke="black" d="M226.92,-1249.29C263.43,-1232.82 202.74,-1129.63 238.86,-1112.82"/>
<polygon fill="none" stroke="black" points="226.8,-1249.31 221.63,-1254.34 215,-1251.5 220.17,-1246.47 226.8,-1249.31"/>
<polygon fill="none" stroke="black" points="239.21,-1112.75 244.36,-1107.7 251,-1110.5 245.86,-1115.55 239.21,-1112.75"/>
</g>
<!-- x7&#45;&gt;c6 -->
<g id="edge8" class="edge">
<title>x7:e&#45;&gt;c6:w</title>
<path fill="none" stroke="black" d="M227.22,-1086.5C231.29,-1086.5 234.73,-1086.5 238.81,-1086.5"/>
<polygon fill="none" stroke="black" points="227,-1086.5 221,-1090.5 215,-1086.5 221,-1082.5 227,-1086.5"/>
<polygon fill="none" stroke="black" points="239,-1086.5 245,-1082.5 251,-1086.5 245,-1090.5 239,-1086.5"/>
</g>
<!-- x8&#45;&gt;n3 -->
<g id="edge96" class="edge">
<title>x8:e&#45;&gt;n3:w</title>
<path fill="none" stroke="black" d="M546,-1070.5C622.51,-1070.5 512.95,-909.7 572.02,-894.63"/>
<polygon fill="black" stroke="black" points="572.46,-898.1 582,-893.5 571.67,-891.15 572.46,-898.1"/>
</g>
<!-- c7 -->
<g id="node16" class="node">
<title>c7</title>
<polygon fill="none" stroke="black" points="251,-773.5 251,-819.5 385,-819.5 385,-773.5 251,-773.5"/>
<text text-anchor="middle" x="264" y="-804.3" font-family="Times,serif" font-size="14.00">a</text>
<polyline fill="none" stroke="black" points="251,-796.5 277,-796.5 "/>
<text text-anchor="middle" x="264" y="-781.3" font-family="Times,serif" font-size="14.00">b</text>
<polyline fill="none" stroke="black" points="277,-773.5 277,-819.5 "/>
<text text-anchor="middle" x="311" y="-800.3" font-family="Times,serif" font-size="14.00">and_11</text>
<text text-anchor="middle" x="311" y="-785.3" font-family="Times,serif" font-size="14.00">And</text>
<polyline fill="none" stroke="black" points="345,-773.5 345,-819.5 "/>
<text text-anchor="middle" x="365" y="-792.8" font-family="Times,serif" font-size="14.00">out</text>
</g>
<!-- x11 -->
<g id="node19" class="node">
<title>x11</title>
<path fill="none" stroke="black" d="M433,-790.5C433,-790.5 534,-790.5 534,-790.5 540,-790.5 546,-796.5 546,-802.5 546,-802.5 546,-814.5 546,-814.5 546,-820.5 540,-826.5 534,-826.5 534,-826.5 433,-826.5 433,-826.5 427,-826.5 421,-820.5 421,-814.5 421,-814.5 421,-802.5 421,-802.5 421,-796.5 427,-790.5 433,-790.5"/>
<text text-anchor="middle" x="483.5" y="-804.8" font-family="Times,serif" font-size="14.00">slice [0] to [11]</text>
</g>
<!-- c7&#45;&gt;x11 -->
<g id="edge12" class="edge">
<title>c7:e&#45;&gt;x11:w</title>
<path fill="none" stroke="black" d="M396.93,-799.04C401.3,-801.08 404.7,-803.92 409.08,-805.96"/>
<polygon fill="none" stroke="black" points="396.74,-799 390.03,-801.66 385,-796.5 391.7,-793.84 396.74,-799"/>
<polygon fill="none" stroke="black" points="409.26,-806 415.97,-803.34 421,-808.5 414.3,-811.16 409.26,-806"/>
</g>
<!-- x9&#45;&gt;c7 -->
<g id="edge10" class="edge">
<title>x9:e&#45;&gt;c7:w</title>
<path fill="none" stroke="black" d="M227.23,-810.8C231.3,-810.32 234.73,-809.68 238.8,-809.19"/>
<polygon fill="none" stroke="black" points="226.98,-810.82 221.22,-815.15 215,-811.5 220.76,-807.17 226.98,-810.82"/>
<polygon fill="none" stroke="black" points="239.02,-809.18 244.78,-804.85 251,-808.5 245.24,-812.83 239.02,-809.18"/>
</g>
<!-- x10&#45;&gt;c7 -->
<g id="edge11" class="edge">
<title>x10:e&#45;&gt;c7:w</title>
<path fill="none" stroke="black" d="M226.94,-648.78C262.29,-665.25 203.67,-765.85 239.11,-782.24"/>
<polygon fill="none" stroke="black" points="226.79,-648.75 220.14,-651.55 215,-646.5 221.64,-643.7 226.79,-648.75"/>
<polygon fill="none" stroke="black" points="239.21,-782.26 245.85,-779.45 251,-784.5 244.36,-787.31 239.21,-782.26"/>
</g>
<!-- x11&#45;&gt;n3 -->
<g id="edge81" class="edge">
<title>x11:e&#45;&gt;n3:w</title>
<path fill="none" stroke="black" d="M546,-808.5C582.86,-808.5 549.43,-877.11 572.01,-891.05"/>
<polygon fill="black" stroke="black" points="571.45,-894.51 582,-893.5 573.12,-887.72 571.45,-894.51"/>
</g>
<!-- c8 -->
<g id="node20" class="node">
<title>c8</title>
<polygon fill="none" stroke="black" points="251,-903.5 251,-949.5 385,-949.5 385,-903.5 251,-903.5"/>
<text text-anchor="middle" x="264" y="-934.3" font-family="Times,serif" font-size="14.00">a</text>
<polyline fill="none" stroke="black" points="251,-926.5 277,-926.5 "/>
<text text-anchor="middle" x="264" y="-911.3" font-family="Times,serif" font-size="14.00">b</text>
<polyline fill="none" stroke="black" points="277,-903.5 277,-949.5 "/>
<text text-anchor="middle" x="311" y="-930.3" font-family="Times,serif" font-size="14.00">and_12</text>
<text text-anchor="middle" x="311" y="-915.3" font-family="Times,serif" font-size="14.00">And</text>
<polyline fill="none" stroke="black" points="345,-903.5 345,-949.5 "/>
<text text-anchor="middle" x="365" y="-922.8" font-family="Times,serif" font-size="14.00">out</text>
</g>
<!-- x14 -->
<g id="node23" class="node">
<title>x14</title>
<path fill="none" stroke="black" d="M433,-905.5C433,-905.5 534,-905.5 534,-905.5 540,-905.5 546,-911.5 546,-917.5 546,-917.5 546,-929.5 546,-929.5 546,-935.5 540,-941.5 534,-941.5 534,-941.5 433,-941.5 433,-941.5 427,-941.5 421,-935.5 421,-929.5 421,-929.5 421,-917.5 421,-917.5 421,-911.5 427,-905.5 433,-905.5"/>
<text text-anchor="middle" x="483.5" y="-919.8" font-family="Times,serif" font-size="14.00">slice [0] to [12]</text>
</g>
<!-- c8&#45;&gt;x14 -->
<g id="edge15" class="edge">
<title>c8:e&#45;&gt;x14:w</title>
<path fill="none" stroke="black" d="M397.23,-925.8C401.3,-925.32 404.73,-924.68 408.8,-924.19"/>
<polygon fill="none" stroke="black" points="396.98,-925.82 391.22,-930.15 385,-926.5 390.76,-922.17 396.98,-925.82"/>
<polygon fill="none" stroke="black" points="409.02,-924.18 414.78,-919.85 421,-923.5 415.24,-927.83 409.02,-924.18"/>
</g>
<!-- x12&#45;&gt;c8 -->
<g id="edge13" class="edge">
<title>x12:e&#45;&gt;c8:w</title>
<path fill="none" stroke="black" d="M226.61,-1028.19C245.71,-1013.82 220.47,-956.93 239.06,-942.07"/>
<polygon fill="none" stroke="black" points="226.54,-1028.21 221.87,-1033.7 215,-1031.5 219.67,-1026.01 226.54,-1028.21"/>
<polygon fill="none" stroke="black" points="239.5,-941.93 244.11,-936.38 251,-938.5 246.4,-944.05 239.5,-941.93"/>
</g>
<!-- x13&#45;&gt;c8 -->
<g id="edge14" class="edge">
<title>x13:e&#45;&gt;c8:w</title>
<path fill="none" stroke="black" d="M226.25,-871.28C234.07,-880.48 231.93,-900.56 239.77,-909.74"/>
<polygon fill="none" stroke="black" points="226.04,-871.19 218.96,-872.53 215,-866.5 222.09,-865.16 226.04,-871.19"/>
<polygon fill="none" stroke="black" points="239.95,-909.82 247.04,-908.48 251,-914.5 243.91,-915.84 239.95,-909.82"/>
</g>
<!-- x14&#45;&gt;n3 -->
<g id="edge82" class="edge">
<title>x14:e&#45;&gt;n3:w</title>
<path fill="none" stroke="black" d="M546,-923.5C562.76,-923.5 562.37,-904.07 572.43,-896.49"/>
<polygon fill="black" stroke="black" points="573.5,-899.82 582,-893.5 571.41,-893.14 573.5,-899.82"/>
</g>
<!-- c9 -->
<g id="node24" class="node">
<title>c9</title>
<polygon fill="none" stroke="black" points="251,-1405.5 251,-1451.5 385,-1451.5 385,-1405.5 251,-1405.5"/>
<text text-anchor="middle" x="264" y="-1436.3" font-family="Times,serif" font-size="14.00">a</text>
<polyline fill="none" stroke="black" points="251,-1428.5 277,-1428.5 "/>
<text text-anchor="middle" x="264" y="-1413.3" font-family="Times,serif" font-size="14.00">b</text>
<polyline fill="none" stroke="black" points="277,-1405.5 277,-1451.5 "/>
<text text-anchor="middle" x="311" y="-1432.3" font-family="Times,serif" font-size="14.00">and_13</text>
<text text-anchor="middle" x="311" y="-1417.3" font-family="Times,serif" font-size="14.00">And</text>
<polyline fill="none" stroke="black" points="345,-1405.5 345,-1451.5 "/>
<text text-anchor="middle" x="365" y="-1424.8" font-family="Times,serif" font-size="14.00">out</text>
</g>
<!-- x17 -->
<g id="node27" class="node">
<title>x17</title>
<path fill="none" stroke="black" d="M433,-1361.5C433,-1361.5 534,-1361.5 534,-1361.5 540,-1361.5 546,-1367.5 546,-1373.5 546,-1373.5 546,-1385.5 546,-1385.5 546,-1391.5 540,-1397.5 534,-1397.5 534,-1397.5 433,-1397.5 433,-1397.5 427,-1397.5 421,-1391.5 421,-1385.5 421,-1385.5 421,-1373.5 421,-1373.5 421,-1367.5 427,-1361.5 433,-1361.5"/>
<text text-anchor="middle" x="483.5" y="-1375.8" font-family="Times,serif" font-size="14.00">slice [0] to [13]</text>
</g>
<!-- c9&#45;&gt;x17 -->
<g id="edge18" class="edge">
<title>c9:e&#45;&gt;x17:w</title>
<path fill="none" stroke="black" d="M396.35,-1423.62C404.19,-1414.23 401.81,-1393.73 409.67,-1384.36"/>
<polygon fill="none" stroke="black" points="396.02,-1423.76 392.09,-1429.81 385,-1428.5 388.93,-1422.46 396.02,-1423.76"/>
<polygon fill="none" stroke="black" points="409.97,-1384.23 413.91,-1378.19 421,-1379.5 417.06,-1385.54 409.97,-1384.23"/>
</g>
<!-- x15&#45;&gt;c9 -->
<g id="edge16" class="edge">
<title>x15:e&#45;&gt;c9:w</title>
<path fill="none" stroke="black" d="M226.92,-1579.29C263.43,-1562.82 202.74,-1459.63 238.86,-1442.82"/>
<polygon fill="none" stroke="black" points="226.8,-1579.31 221.63,-1584.34 215,-1581.5 220.17,-1576.47 226.8,-1579.31"/>
<polygon fill="none" stroke="black" points="239.21,-1442.75 244.36,-1437.7 251,-1440.5 245.86,-1445.55 239.21,-1442.75"/>
</g>
<!-- x16&#45;&gt;c9 -->
<g id="edge17" class="edge">
<title>x16:e&#45;&gt;c9:w</title>
<path fill="none" stroke="black" d="M227.22,-1416.5C231.29,-1416.5 234.73,-1416.5 238.81,-1416.5"/>
<polygon fill="none" stroke="black" points="227,-1416.5 221,-1420.5 215,-1416.5 221,-1412.5 227,-1416.5"/>
<polygon fill="none" stroke="black" points="239,-1416.5 245,-1412.5 251,-1416.5 245,-1420.5 239,-1416.5"/>
</g>
<!-- x17&#45;&gt;n3 -->
<g id="edge83" class="edge">
<title>x17:e&#45;&gt;n3:w</title>
<path fill="none" stroke="black" d="M546,-1379.5C596.76,-1379.5 536.4,-952.35 573.27,-898.96"/>
<polygon fill="black" stroke="black" points="575.38,-901.77 582,-893.5 571.67,-895.83 575.38,-901.77"/>
</g>
<!-- c10 -->
<g id="node28" class="node">
<title>c10</title>
<polygon fill="none" stroke="black" points="251,-666.5 251,-712.5 385,-712.5 385,-666.5 251,-666.5"/>
<text text-anchor="middle" x="264" y="-697.3" font-family="Times,serif" font-size="14.00">a</text>
<polyline fill="none" stroke="black" points="251,-689.5 277,-689.5 "/>
<text text-anchor="middle" x="264" y="-674.3" font-family="Times,serif" font-size="14.00">b</text>
<polyline fill="none" stroke="black" points="277,-666.5 277,-712.5 "/>
<text text-anchor="middle" x="311" y="-693.3" font-family="Times,serif" font-size="14.00">and_14</text>
<text text-anchor="middle" x="311" y="-678.3" font-family="Times,serif" font-size="14.00">And</text>
<polyline fill="none" stroke="black" points="345,-666.5 345,-712.5 "/>
<text text-anchor="middle" x="365" y="-685.8" font-family="Times,serif" font-size="14.00">out</text>
</g>
<!-- x20 -->
<g id="node31" class="node">
<title>x20</title>
<path fill="none" stroke="black" d="M433,-730.5C433,-730.5 534,-730.5 534,-730.5 540,-730.5 546,-736.5 546,-742.5 546,-742.5 546,-754.5 546,-754.5 546,-760.5 540,-766.5 534,-766.5 534,-766.5 433,-766.5 433,-766.5 427,-766.5 421,-760.5 421,-754.5 421,-754.5 421,-742.5 421,-742.5 421,-736.5 427,-730.5 433,-730.5"/>
<text text-anchor="middle" x="483.5" y="-744.8" font-family="Times,serif" font-size="14.00">slice [0] to [14]</text>
</g>
<!-- c10&#45;&gt;x20 -->
<g id="edge21" class="edge">
<title>c10:e&#45;&gt;x20:w</title>
<path fill="none" stroke="black" d="M396.43,-694.13C406.16,-705.21 399.83,-733.16 409.73,-744.05"/>
<polygon fill="none" stroke="black" points="396.12,-694 389.06,-695.46 385,-689.5 392.06,-688.04 396.12,-694"/>
<polygon fill="none" stroke="black" points="409.84,-744.1 416.89,-742.58 421,-748.5 413.95,-750.02 409.84,-744.1"/>
</g>
<!-- x18&#45;&gt;c10 -->
<g id="edge19" class="edge">
<title>x18:e&#45;&gt;c10:w</title>
<path fill="none" stroke="black" d="M227.22,-701.5C231.29,-701.5 234.73,-701.5 238.81,-701.5"/>
<polygon fill="none" stroke="black" points="227,-701.5 221,-705.5 215,-701.5 221,-697.5 227,-701.5"/>
<polygon fill="none" stroke="black" points="239,-701.5 245,-697.5 251,-701.5 245,-705.5 239,-701.5"/>
</g>
<!-- x19&#45;&gt;c10 -->
<g id="edge20" class="edge">
<title>x19:e&#45;&gt;c10:w</title>
<path fill="none" stroke="black" d="M226.92,-538.71C263.43,-555.18 202.74,-658.37 238.86,-675.18"/>
<polygon fill="none" stroke="black" points="226.8,-538.69 220.17,-541.53 215,-536.5 221.63,-533.66 226.8,-538.69"/>
<polygon fill="none" stroke="black" points="239.21,-675.25 245.86,-672.45 251,-677.5 244.36,-680.3 239.21,-675.25"/>
</g>
<!-- x20&#45;&gt;n3 -->
<g id="edge84" class="edge">
<title>x20:e&#45;&gt;n3:w</title>
<path fill="none" stroke="black" d="M546,-748.5C608.51,-748.5 526.38,-877.01 571.94,-892.06"/>
<polygon fill="black" stroke="black" points="571.61,-895.55 582,-893.5 572.59,-888.62 571.61,-895.55"/>
</g>
<!-- c11 -->
<g id="node32" class="node">
<title>c11</title>
<polygon fill="none" stroke="black" points="251,-336.5 251,-382.5 385,-382.5 385,-336.5 251,-336.5"/>
<text text-anchor="middle" x="264" y="-367.3" font-family="Times,serif" font-size="14.00">a</text>
<polyline fill="none" stroke="black" points="251,-359.5 277,-359.5 "/>
<text text-anchor="middle" x="264" y="-344.3" font-family="Times,serif" font-size="14.00">b</text>
<polyline fill="none" stroke="black" points="277,-336.5 277,-382.5 "/>
<text text-anchor="middle" x="311" y="-363.3" font-family="Times,serif" font-size="14.00">and_15</text>
<text text-anchor="middle" x="311" y="-348.3" font-family="Times,serif" font-size="14.00">And</text>
<polyline fill="none" stroke="black" points="345,-336.5 345,-382.5 "/>
<text text-anchor="middle" x="365" y="-355.8" font-family="Times,serif" font-size="14.00">out</text>
</g>
<!-- x23 -->
<g id="node35" class="node">
<title>x23</title>
<path fill="none" stroke="black" d="M433,-492.5C433,-492.5 534,-492.5 534,-492.5 540,-492.5 546,-498.5 546,-504.5 546,-504.5 546,-516.5 546,-516.5 546,-522.5 540,-528.5 534,-528.5 534,-528.5 433,-528.5 433,-528.5 427,-528.5 421,-522.5 421,-516.5 421,-516.5 421,-504.5 421,-504.5 421,-498.5 427,-492.5 433,-492.5"/>
<text text-anchor="middle" x="483.5" y="-506.8" font-family="Times,serif" font-size="14.00">slice [0] to [15]</text>
</g>
<!-- c11&#45;&gt;x23 -->
<g id="edge24" class="edge">
<title>c11:e&#45;&gt;x23:w</title>
<path fill="none" stroke="black" d="M396.86,-361.52C437.58,-378.11 368.51,-491.67 409.03,-508.43"/>
<polygon fill="none" stroke="black" points="396.83,-361.52 390.24,-364.45 385,-359.5 391.59,-356.56 396.83,-361.52"/>
<polygon fill="none" stroke="black" points="409.17,-508.46 415.77,-505.54 421,-510.5 414.41,-513.42 409.17,-508.46"/>
</g>
<!-- x21&#45;&gt;c11 -->
<g id="edge22" class="edge">
<title>x21:e&#45;&gt;c11:w</title>
<path fill="none" stroke="black" d="M227.22,-371.5C231.29,-371.5 234.73,-371.5 238.81,-371.5"/>
<polygon fill="none" stroke="black" points="227,-371.5 221,-375.5 215,-371.5 221,-367.5 227,-371.5"/>
<polygon fill="none" stroke="black" points="239,-371.5 245,-367.5 251,-371.5 245,-375.5 239,-371.5"/>
</g>
<!-- x22&#45;&gt;c11 -->
<g id="edge23" class="edge">
<title>x22:e&#45;&gt;c11:w</title>
<path fill="none" stroke="black" d="M226.92,-208.71C263.43,-225.18 202.74,-328.37 238.86,-345.18"/>
<polygon fill="none" stroke="black" points="226.8,-208.69 220.17,-211.53 215,-206.5 221.63,-203.66 226.8,-208.69"/>
<polygon fill="none" stroke="black" points="239.21,-345.25 245.86,-342.45 251,-347.5 244.36,-350.3 239.21,-345.25"/>
</g>
<!-- x23&#45;&gt;n3 -->
<g id="edge85" class="edge">
<title>x23:e&#45;&gt;n3:w</title>
<path fill="none" stroke="black" d="M546,-510.5C627.81,-510.5 507.71,-861.29 572.17,-891.44"/>
<polygon fill="black" stroke="black" points="571.49,-894.87 582,-893.5 572.93,-888.02 571.49,-894.87"/>
</g>
<!-- c12 -->
<g id="node36" class="node">
<title>c12</title>
<polygon fill="none" stroke="black" points="255.5,-556.5 255.5,-602.5 380.5,-602.5 380.5,-556.5 255.5,-556.5"/>
<text text-anchor="middle" x="268.5" y="-587.3" font-family="Times,serif" font-size="14.00">a</text>
<polyline fill="none" stroke="black" points="255.5,-579.5 281.5,-579.5 "/>
<text text-anchor="middle" x="268.5" y="-564.3" font-family="Times,serif" font-size="14.00">b</text>
<polyline fill="none" stroke="black" points="281.5,-556.5 281.5,-602.5 "/>
<text text-anchor="middle" x="311" y="-583.3" font-family="Times,serif" font-size="14.00">and_2</text>
<text text-anchor="middle" x="311" y="-568.3" font-family="Times,serif" font-size="14.00">And</text>
<polyline fill="none" stroke="black" points="340.5,-556.5 340.5,-602.5 "/>
<text text-anchor="middle" x="360.5" y="-575.8" font-family="Times,serif" font-size="14.00">out</text>
</g>
<!-- x26 -->
<g id="node39" class="node">
<title>x26</title>
<path fill="none" stroke="black" d="M437.5,-665.5C437.5,-665.5 529.5,-665.5 529.5,-665.5 535.5,-665.5 541.5,-671.5 541.5,-677.5 541.5,-677.5 541.5,-689.5 541.5,-689.5 541.5,-695.5 535.5,-701.5 529.5,-701.5 529.5,-701.5 437.5,-701.5 437.5,-701.5 431.5,-701.5 425.5,-695.5 425.5,-689.5 425.5,-689.5 425.5,-677.5 425.5,-677.5 425.5,-671.5 431.5,-665.5 437.5,-665.5"/>
<text text-anchor="middle" x="483.5" y="-679.8" font-family="Times,serif" font-size="14.00">slice [0] to [2]</text>
</g>
<!-- c12&#45;&gt;x26 -->
<g id="edge27" class="edge">
<title>c12:e&#45;&gt;x26:w</title>
<path fill="none" stroke="black" d="M393.76,-582.28C418.69,-597.01 387.86,-665.79 412.64,-680.66"/>
<polygon fill="none" stroke="black" points="393.68,-582.26 386.92,-584.77 382,-579.5 388.76,-576.99 393.68,-582.26"/>
<polygon fill="none" stroke="black" points="412.83,-680.71 419.6,-678.21 424.5,-683.5 417.73,-685.99 412.83,-680.71"/>
</g>
<!-- x24&#45;&gt;c12 -->
<g id="edge25" class="edge">
<title>x24:e&#45;&gt;c12:w</title>
<path fill="none" stroke="black" d="M223.77,-591.5C230.33,-591.5 235.26,-591.5 241.84,-591.5"/>
<polygon fill="none" stroke="black" points="223.5,-591.5 217.5,-595.5 211.5,-591.5 217.5,-587.5 223.5,-591.5"/>
<polygon fill="none" stroke="black" points="242,-591.5 248,-587.5 254,-591.5 248,-595.5 242,-591.5"/>
</g>
<!-- x25&#45;&gt;c12 -->
<g id="edge26" class="edge">
<title>x25:e&#45;&gt;c12:w</title>
<path fill="none" stroke="black" d="M223.4,-428.6C261.73,-444.77 203.79,-549.17 242.08,-565.39"/>
<polygon fill="none" stroke="black" points="223.32,-428.59 216.71,-431.48 211.5,-426.5 218.1,-423.61 223.32,-428.59"/>
<polygon fill="none" stroke="black" points="242.18,-565.4 248.79,-562.51 254,-567.5 247.39,-570.39 242.18,-565.4"/>
</g>
<!-- x26&#45;&gt;n3 -->
<g id="edge86" class="edge">
<title>x26:e&#45;&gt;n3:w</title>
<path fill="none" stroke="black" d="M542.5,-683.5C633.76,-683.5 498.41,-877.41 571.96,-892.56"/>
<polygon fill="black" stroke="black" points="571.72,-896.06 582,-893.5 572.37,-889.09 571.72,-896.06"/>
</g>
<!-- c13 -->
<g id="node40" class="node">
<title>c13</title>
<polygon fill="none" stroke="black" points="255.5,-116.5 255.5,-162.5 380.5,-162.5 380.5,-116.5 255.5,-116.5"/>
<text text-anchor="middle" x="268.5" y="-147.3" font-family="Times,serif" font-size="14.00">a</text>
<polyline fill="none" stroke="black" points="255.5,-139.5 281.5,-139.5 "/>
<text text-anchor="middle" x="268.5" y="-124.3" font-family="Times,serif" font-size="14.00">b</text>
<polyline fill="none" stroke="black" points="281.5,-116.5 281.5,-162.5 "/>
<text text-anchor="middle" x="311" y="-143.3" font-family="Times,serif" font-size="14.00">and_3</text>
<text text-anchor="middle" x="311" y="-128.3" font-family="Times,serif" font-size="14.00">And</text>
<polyline fill="none" stroke="black" points="340.5,-116.5 340.5,-162.5 "/>
<text text-anchor="middle" x="360.5" y="-135.8" font-family="Times,serif" font-size="14.00">out</text>
</g>
<!-- x29 -->
<g id="node43" class="node">
<title>x29</title>
<path fill="none" stroke="black" d="M437.5,-132.5C437.5,-132.5 529.5,-132.5 529.5,-132.5 535.5,-132.5 541.5,-138.5 541.5,-144.5 541.5,-144.5 541.5,-156.5 541.5,-156.5 541.5,-162.5 535.5,-168.5 529.5,-168.5 529.5,-168.5 437.5,-168.5 437.5,-168.5 431.5,-168.5 425.5,-162.5 425.5,-156.5 425.5,-156.5 425.5,-144.5 425.5,-144.5 425.5,-138.5 431.5,-132.5 437.5,-132.5"/>
<text text-anchor="middle" x="483.5" y="-146.8" font-family="Times,serif" font-size="14.00">slice [0] to [3]</text>
</g>
<!-- c13&#45;&gt;x29 -->
<g id="edge30" class="edge">
<title>c13:e&#45;&gt;x29:w</title>
<path fill="none" stroke="black" d="M394.13,-141.22C400.93,-143.3 405.7,-146.77 412.53,-148.83"/>
<polygon fill="none" stroke="black" points="393.88,-141.18 387.38,-144.3 382,-139.5 388.5,-136.38 393.88,-141.18"/>
<polygon fill="none" stroke="black" points="412.62,-148.84 419.11,-145.71 424.5,-150.5 418,-153.63 412.62,-148.84"/>
</g>
<!-- x27&#45;&gt;c13 -->
<g id="edge28" class="edge">
<title>x27:e&#45;&gt;c13:w</title>
<path fill="none" stroke="black" d="M223.77,-151.5C230.33,-151.5 235.26,-151.5 241.84,-151.5"/>
<polygon fill="none" stroke="black" points="223.5,-151.5 217.5,-155.5 211.5,-151.5 217.5,-147.5 223.5,-151.5"/>
<polygon fill="none" stroke="black" points="242,-151.5 248,-147.5 254,-151.5 248,-155.5 242,-151.5"/>
</g>
<!-- x28&#45;&gt;c13 -->
<g id="edge29" class="edge">
<title>x28:e&#45;&gt;c13:w</title>
<path fill="none" stroke="black" d="M223.25,-44.77C242.36,-58.39 223.14,-110.6 242.25,-124.23"/>
<polygon fill="none" stroke="black" points="223.06,-44.72 216.21,-46.96 211.5,-41.5 218.35,-39.25 223.06,-44.72"/>
<polygon fill="none" stroke="black" points="242.44,-124.28 249.29,-122.04 254,-127.5 247.15,-129.75 242.44,-124.28"/>
</g>
<!-- x29&#45;&gt;n3 -->
<g id="edge87" class="edge">
<title>x29:e&#45;&gt;n3:w</title>
<path fill="none" stroke="black" d="M542.5,-150.5C621.62,-150.5 509.76,-831.02 572.46,-889.5"/>
<polygon fill="black" stroke="black" points="571.42,-892.86 582,-893.5 574.13,-886.41 571.42,-892.86"/>
</g>
<!-- c14 -->
<g id="node44" class="node">
<title>c14</title>
<polygon fill="none" stroke="black" points="255.5,-838.5 255.5,-884.5 380.5,-884.5 380.5,-838.5 255.5,-838.5"/>
<text text-anchor="middle" x="268.5" y="-869.3" font-family="Times,serif" font-size="14.00">a</text>
<polyline fill="none" stroke="black" points="255.5,-861.5 281.5,-861.5 "/>
<text text-anchor="middle" x="268.5" y="-846.3" font-family="Times,serif" font-size="14.00">b</text>
<polyline fill="none" stroke="black" points="281.5,-838.5 281.5,-884.5 "/>
<text text-anchor="middle" x="311" y="-865.3" font-family="Times,serif" font-size="14.00">and_4</text>
<text text-anchor="middle" x="311" y="-850.3" font-family="Times,serif" font-size="14.00">And</text>
<polyline fill="none" stroke="black" points="340.5,-838.5 340.5,-884.5 "/>
<text text-anchor="middle" x="360.5" y="-857.8" font-family="Times,serif" font-size="14.00">out</text>
</g>
<!-- x32 -->
<g id="node47" class="node">
<title>x32</title>
<path fill="none" stroke="black" d="M437.5,-848.5C437.5,-848.5 529.5,-848.5 529.5,-848.5 535.5,-848.5 541.5,-854.5 541.5,-860.5 541.5,-860.5 541.5,-872.5 541.5,-872.5 541.5,-878.5 535.5,-884.5 529.5,-884.5 529.5,-884.5 437.5,-884.5 437.5,-884.5 431.5,-884.5 425.5,-878.5 425.5,-872.5 425.5,-872.5 425.5,-860.5 425.5,-860.5 425.5,-854.5 431.5,-848.5 437.5,-848.5"/>
<text text-anchor="middle" x="483.5" y="-862.8" font-family="Times,serif" font-size="14.00">slice [0] to [4]</text>
</g>
<!-- c14&#45;&gt;x32 -->
<g id="edge33" class="edge">
<title>c14:e&#45;&gt;x32:w</title>
<path fill="none" stroke="black" d="M393.99,-862.28C400.66,-863.2 405.57,-864.73 412.19,-865.67"/>
<polygon fill="none" stroke="black" points="393.97,-862.28 387.73,-865.88 382,-861.5 388.25,-857.9 393.97,-862.28"/>
<polygon fill="none" stroke="black" points="412.53,-865.7 418.78,-862.11 424.5,-866.5 418.25,-870.09 412.53,-865.7"/>
</g>
<!-- x30&#45;&gt;c14 -->
<g id="edge31" class="edge">
<title>x30:e&#45;&gt;c14:w</title>
<path fill="none" stroke="black" d="M223.2,-917.41C233.34,-908.34 232.17,-886.64 242.32,-877.58"/>
<polygon fill="none" stroke="black" points="222.83,-917.54 218.48,-923.29 211.5,-921.5 215.84,-915.74 222.83,-917.54"/>
<polygon fill="none" stroke="black" points="242.67,-877.46 247.02,-871.7 254,-873.5 249.66,-879.26 242.67,-877.46"/>
</g>
<!-- x31&#45;&gt;c14 -->
<g id="edge32" class="edge">
<title>x31:e&#45;&gt;c14:w</title>
<path fill="none" stroke="black" d="M223.29,-759.59C244.55,-773.78 220.9,-832.48 242.34,-846.49"/>
<polygon fill="none" stroke="black" points="223.11,-759.55 216.29,-761.89 211.5,-756.5 218.32,-754.15 223.11,-759.55"/>
<polygon fill="none" stroke="black" points="242.38,-846.5 249.19,-844.13 254,-849.5 247.19,-851.87 242.38,-846.5"/>
</g>
<!-- x32&#45;&gt;n3 -->
<g id="edge89" class="edge">
<title>x32:e&#45;&gt;n3:w</title>
<path fill="none" stroke="black" d="M542.5,-866.5C559.78,-866.5 561.02,-884.32 572.28,-891.01"/>
<polygon fill="black" stroke="black" points="571.44,-894.41 582,-893.5 573.18,-887.63 571.44,-894.41"/>
</g>
<!-- c15 -->
<g id="node48" class="node">
<title>c15</title>
<polygon fill="none" stroke="black" points="255.5,-1185.5 255.5,-1231.5 380.5,-1231.5 380.5,-1185.5 255.5,-1185.5"/>
<text text-anchor="middle" x="268.5" y="-1216.3" font-family="Times,serif" font-size="14.00">a</text>
<polyline fill="none" stroke="black" points="255.5,-1208.5 281.5,-1208.5 "/>
<text text-anchor="middle" x="268.5" y="-1193.3" font-family="Times,serif" font-size="14.00">b</text>
<polyline fill="none" stroke="black" points="281.5,-1185.5 281.5,-1231.5 "/>
<text text-anchor="middle" x="311" y="-1212.3" font-family="Times,serif" font-size="14.00">and_5</text>
<text text-anchor="middle" x="311" y="-1197.3" font-family="Times,serif" font-size="14.00">And</text>
<polyline fill="none" stroke="black" points="340.5,-1185.5 340.5,-1231.5 "/>
<text text-anchor="middle" x="360.5" y="-1204.8" font-family="Times,serif" font-size="14.00">out</text>
</g>
<!-- x35 -->
<g id="node51" class="node">
<title>x35</title>
<path fill="none" stroke="black" d="M437.5,-1150.5C437.5,-1150.5 529.5,-1150.5 529.5,-1150.5 535.5,-1150.5 541.5,-1156.5 541.5,-1162.5 541.5,-1162.5 541.5,-1174.5 541.5,-1174.5 541.5,-1180.5 535.5,-1186.5 529.5,-1186.5 529.5,-1186.5 437.5,-1186.5 437.5,-1186.5 431.5,-1186.5 425.5,-1180.5 425.5,-1174.5 425.5,-1174.5 425.5,-1162.5 425.5,-1162.5 425.5,-1156.5 431.5,-1150.5 437.5,-1150.5"/>
<text text-anchor="middle" x="483.5" y="-1164.8" font-family="Times,serif" font-size="14.00">slice [0] to [5]</text>
</g>
<!-- c15&#45;&gt;x35 -->
<g id="edge36" class="edge">
<title>c15:e&#45;&gt;x35:w</title>
<path fill="none" stroke="black" d="M393.68,-1204.52C402.73,-1196.85 403.78,-1180.12 412.84,-1172.47"/>
<polygon fill="none" stroke="black" points="393.36,-1204.63 388.97,-1210.35 382,-1208.5 386.39,-1202.78 393.36,-1204.63"/>
<polygon fill="none" stroke="black" points="413.14,-1172.36 417.53,-1166.64 424.5,-1168.5 420.11,-1174.22 413.14,-1172.36"/>
</g>
<!-- x33&#45;&gt;c15 -->
<g id="edge34" class="edge">
<title>x33:e&#45;&gt;c15:w</title>
<path fill="none" stroke="black" d="M223.4,-1359.4C261.73,-1343.23 203.79,-1238.83 242.08,-1222.61"/>
<polygon fill="none" stroke="black" points="223.32,-1359.41 218.1,-1364.39 211.5,-1361.5 216.71,-1356.52 223.32,-1359.41"/>
<polygon fill="none" stroke="black" points="242.18,-1222.6 247.39,-1217.61 254,-1220.5 248.79,-1225.49 242.18,-1222.6"/>
</g>
<!-- x34&#45;&gt;c15 -->
<g id="edge35" class="edge">
<title>x34:e&#45;&gt;c15:w</title>
<path fill="none" stroke="black" d="M223.77,-1196.5C230.33,-1196.5 235.26,-1196.5 241.84,-1196.5"/>
<polygon fill="none" stroke="black" points="223.5,-1196.5 217.5,-1200.5 211.5,-1196.5 217.5,-1192.5 223.5,-1196.5"/>
<polygon fill="none" stroke="black" points="242,-1196.5 248,-1192.5 254,-1196.5 248,-1200.5 242,-1196.5"/>
</g>
<!-- x35&#45;&gt;n3 -->
<g id="edge90" class="edge">
<title>x35:e&#45;&gt;n3:w</title>
<path fill="none" stroke="black" d="M542.5,-1168.5C600.5,-1168.5 529.9,-925.79 572.32,-896.4"/>
<polygon fill="black" stroke="black" points="573.43,-899.73 582,-893.5 571.42,-893.02 573.43,-899.73"/>
</g>
<!-- c16 -->
<g id="node52" class="node">
<title>c16</title>
<polygon fill="none" stroke="black" points="255.5,-968.5 255.5,-1014.5 380.5,-1014.5 380.5,-968.5 255.5,-968.5"/>
<text text-anchor="middle" x="268.5" y="-999.3" font-family="Times,serif" font-size="14.00">a</text>
<polyline fill="none" stroke="black" points="255.5,-991.5 281.5,-991.5 "/>
<text text-anchor="middle" x="268.5" y="-976.3" font-family="Times,serif" font-size="14.00">b</text>
<polyline fill="none" stroke="black" points="281.5,-968.5 281.5,-1014.5 "/>
<text text-anchor="middle" x="311" y="-995.3" font-family="Times,serif" font-size="14.00">and_6</text>
<text text-anchor="middle" x="311" y="-980.3" font-family="Times,serif" font-size="14.00">And</text>
<polyline fill="none" stroke="black" points="340.5,-968.5 340.5,-1014.5 "/>
<text text-anchor="middle" x="360.5" y="-987.8" font-family="Times,serif" font-size="14.00">out</text>
</g>
<!-- x38 -->
<g id="node55" class="node">
<title>x38</title>
<path fill="none" stroke="black" d="M437.5,-966.5C437.5,-966.5 529.5,-966.5 529.5,-966.5 535.5,-966.5 541.5,-972.5 541.5,-978.5 541.5,-978.5 541.5,-990.5 541.5,-990.5 541.5,-996.5 535.5,-1002.5 529.5,-1002.5 529.5,-1002.5 437.5,-1002.5 437.5,-1002.5 431.5,-1002.5 425.5,-996.5 425.5,-990.5 425.5,-990.5 425.5,-978.5 425.5,-978.5 425.5,-972.5 431.5,-966.5 437.5,-966.5"/>
<text text-anchor="middle" x="483.5" y="-980.8" font-family="Times,serif" font-size="14.00">slice [0] to [6]</text>
</g>
<!-- c16&#45;&gt;x38 -->
<g id="edge39" class="edge">
<title>c16:e&#45;&gt;x38:w</title>
<path fill="none" stroke="black" d="M394.02,-990.41C400.69,-989.11 405.55,-986.97 412.16,-985.66"/>
<polygon fill="none" stroke="black" points="393.95,-990.41 388.34,-994.94 382,-991.5 387.61,-986.97 393.95,-990.41"/>
<polygon fill="none" stroke="black" points="412.55,-985.62 418.15,-981.08 424.5,-984.5 418.9,-989.04 412.55,-985.62"/>
</g>
<!-- x36&#45;&gt;c16 -->
<g id="edge37" class="edge">
<title>x36:e&#45;&gt;c16:w</title>
<path fill="none" stroke="black" d="M223.43,-1139.33C260.45,-1123.22 205.2,-1022.23 241.84,-1005.77"/>
<polygon fill="none" stroke="black" points="223.31,-1139.36 218.12,-1144.36 211.5,-1141.5 216.69,-1136.49 223.31,-1139.36"/>
<polygon fill="none" stroke="black" points="242.2,-1005.7 247.37,-1000.67 254,-1003.5 248.83,-1008.53 242.2,-1005.7"/>
</g>
<!-- x37&#45;&gt;c16 -->
<g id="edge38" class="edge">
<title>x37:e&#45;&gt;c16:w</title>
<path fill="none" stroke="black" d="M223.78,-977C230.34,-977.55 235.25,-978.46 241.83,-979.01"/>
<polygon fill="none" stroke="black" points="223.49,-976.98 217.33,-980.74 211.5,-976.5 217.66,-972.75 223.49,-976.98"/>
<polygon fill="none" stroke="black" points="242.01,-979.02 248.16,-975.26 254,-979.5 247.85,-983.26 242.01,-979.02"/>
</g>
<!-- x38&#45;&gt;n3 -->
<g id="edge91" class="edge">
<title>x38:e&#45;&gt;n3:w</title>
<path fill="none" stroke="black" d="M542.5,-984.5C582.46,-984.5 546.22,-909.76 571.89,-895.75"/>
<polygon fill="black" stroke="black" points="573,-899.09 582,-893.5 571.48,-892.26 573,-899.09"/>
</g>
<!-- c17 -->
<g id="node56" class="node">
<title>c17</title>
<polygon fill="none" stroke="black" points="255.5,-226.5 255.5,-272.5 380.5,-272.5 380.5,-226.5 255.5,-226.5"/>
<text text-anchor="middle" x="268.5" y="-257.3" font-family="Times,serif" font-size="14.00">a</text>
<polyline fill="none" stroke="black" points="255.5,-249.5 281.5,-249.5 "/>
<text text-anchor="middle" x="268.5" y="-234.3" font-family="Times,serif" font-size="14.00">b</text>
<polyline fill="none" stroke="black" points="281.5,-226.5 281.5,-272.5 "/>
<text text-anchor="middle" x="311" y="-253.3" font-family="Times,serif" font-size="14.00">and_7</text>
<text text-anchor="middle" x="311" y="-238.3" font-family="Times,serif" font-size="14.00">And</text>
<polyline fill="none" stroke="black" points="340.5,-226.5 340.5,-272.5 "/>
<text text-anchor="middle" x="360.5" y="-245.8" font-family="Times,serif" font-size="14.00">out</text>
</g>
<!-- x41 -->
<g id="node59" class="node">
<title>x41</title>
<path fill="none" stroke="black" d="M437.5,-354.5C437.5,-354.5 529.5,-354.5 529.5,-354.5 535.5,-354.5 541.5,-360.5 541.5,-366.5 541.5,-366.5 541.5,-378.5 541.5,-378.5 541.5,-384.5 535.5,-390.5 529.5,-390.5 529.5,-390.5 437.5,-390.5 437.5,-390.5 431.5,-390.5 425.5,-384.5 425.5,-378.5 425.5,-378.5 425.5,-366.5 425.5,-366.5 425.5,-360.5 431.5,-354.5 437.5,-354.5"/>
<text text-anchor="middle" x="483.5" y="-368.8" font-family="Times,serif" font-size="14.00">slice [0] to [7]</text>
</g>
<!-- c17&#45;&gt;x41 -->
<g id="edge42" class="edge">
<title>c17:e&#45;&gt;x41:w</title>
<path fill="none" stroke="black" d="M394.17,-252.07C425.04,-268.08 381.45,-353.98 412.35,-369.95"/>
<polygon fill="none" stroke="black" points="393.74,-251.98 387.04,-254.65 382,-249.5 388.7,-246.82 393.74,-251.98"/>
<polygon fill="none" stroke="black" points="412.76,-370.03 419.45,-367.35 424.5,-372.5 417.81,-375.18 412.76,-370.03"/>
</g>
<!-- x39&#45;&gt;c17 -->
<g id="edge40" class="edge">
<title>x39:e&#45;&gt;c17:w</title>
<path fill="none" stroke="black" d="M223.77,-261.5C230.33,-261.5 235.26,-261.5 241.84,-261.5"/>
<polygon fill="none" stroke="black" points="223.5,-261.5 217.5,-265.5 211.5,-261.5 217.5,-257.5 223.5,-261.5"/>
<polygon fill="none" stroke="black" points="242,-261.5 248,-257.5 254,-261.5 248,-265.5 242,-261.5"/>
</g>
<!-- x40&#45;&gt;c17 -->
<g id="edge41" class="edge">
<title>x40:e&#45;&gt;c17:w</title>
<path fill="none" stroke="black" d="M223.4,-98.6C261.73,-114.77 203.79,-219.17 242.08,-235.39"/>
<polygon fill="none" stroke="black" points="223.32,-98.59 216.71,-101.48 211.5,-96.5 218.1,-93.61 223.32,-98.59"/>
<polygon fill="none" stroke="black" points="242.18,-235.4 248.79,-232.51 254,-237.5 247.39,-240.39 242.18,-235.4"/>
</g>
<!-- x41&#45;&gt;n3 -->
<g id="edge92" class="edge">
<title>x41:e&#45;&gt;n3:w</title>
<path fill="none" stroke="black" d="M542.5,-372.5C597.15,-372.5 532.46,-834.23 573.13,-888.34"/>
<polygon fill="black" stroke="black" points="571.6,-891.5 582,-893.5 575.11,-885.45 571.6,-891.5"/>
</g>
<!-- c18 -->
<g id="node60" class="node">
<title>c18</title>
<polygon fill="none" stroke="black" points="255.5,-446.5 255.5,-492.5 380.5,-492.5 380.5,-446.5 255.5,-446.5"/>
<text text-anchor="middle" x="268.5" y="-477.3" font-family="Times,serif" font-size="14.00">a</text>
<polyline fill="none" stroke="black" points="255.5,-469.5 281.5,-469.5 "/>
<text text-anchor="middle" x="268.5" y="-454.3" font-family="Times,serif" font-size="14.00">b</text>
<polyline fill="none" stroke="black" points="281.5,-446.5 281.5,-492.5 "/>
<text text-anchor="middle" x="311" y="-473.3" font-family="Times,serif" font-size="14.00">and_8</text>
<text text-anchor="middle" x="311" y="-458.3" font-family="Times,serif" font-size="14.00">And</text>
<polyline fill="none" stroke="black" points="340.5,-446.5 340.5,-492.5 "/>
<text text-anchor="middle" x="360.5" y="-465.8" font-family="Times,serif" font-size="14.00">out</text>
</g>
<!-- x44 -->
<g id="node63" class="node">
<title>x44</title>
<path fill="none" stroke="black" d="M437.5,-589.5C437.5,-589.5 529.5,-589.5 529.5,-589.5 535.5,-589.5 541.5,-595.5 541.5,-601.5 541.5,-601.5 541.5,-613.5 541.5,-613.5 541.5,-619.5 535.5,-625.5 529.5,-625.5 529.5,-625.5 437.5,-625.5 437.5,-625.5 431.5,-625.5 425.5,-619.5 425.5,-613.5 425.5,-613.5 425.5,-601.5 425.5,-601.5 425.5,-595.5 431.5,-589.5 437.5,-589.5"/>
<text text-anchor="middle" x="483.5" y="-603.8" font-family="Times,serif" font-size="14.00">slice [0] to [8]</text>
</g>
<!-- c18&#45;&gt;x44 -->
<g id="edge45" class="edge">
<title>c18:e&#45;&gt;x44:w</title>
<path fill="none" stroke="black" d="M393.93,-471.67C430.95,-487.78 375.7,-588.77 412.34,-605.23"/>
<polygon fill="none" stroke="black" points="393.81,-471.64 387.19,-474.51 382,-469.5 388.62,-466.64 393.81,-471.64"/>
<polygon fill="none" stroke="black" points="412.7,-605.3 419.33,-602.47 424.5,-607.5 417.87,-610.33 412.7,-605.3"/>
</g>
<!-- x42&#45;&gt;c18 -->
<g id="edge43" class="edge">
<title>x42:e&#45;&gt;c18:w</title>
<path fill="none" stroke="black" d="M223.77,-481.5C230.33,-481.5 235.26,-481.5 241.84,-481.5"/>
<polygon fill="none" stroke="black" points="223.5,-481.5 217.5,-485.5 211.5,-481.5 217.5,-477.5 223.5,-481.5"/>
<polygon fill="none" stroke="black" points="242,-481.5 248,-477.5 254,-481.5 248,-485.5 242,-481.5"/>
</g>
<!-- x43&#45;&gt;c18 -->
<g id="edge44" class="edge">
<title>x43:e&#45;&gt;c18:w</title>
<path fill="none" stroke="black" d="M223.4,-318.6C261.73,-334.77 203.79,-439.17 242.08,-455.39"/>
<polygon fill="none" stroke="black" points="223.32,-318.59 216.71,-321.48 211.5,-316.5 218.1,-313.61 223.32,-318.59"/>
<polygon fill="none" stroke="black" points="242.18,-455.4 248.79,-452.51 254,-457.5 247.39,-460.39 242.18,-455.4"/>
</g>
<!-- x44&#45;&gt;n3 -->
<g id="edge93" class="edge">
<title>x44:e&#45;&gt;n3:w</title>
<path fill="none" stroke="black" d="M542.5,-607.5C602.9,-607.5 527.72,-860.97 572.24,-890.67"/>
<polygon fill="black" stroke="black" points="571.42,-894.08 582,-893.5 573.37,-887.35 571.42,-894.08"/>
</g>
<!-- c19 -->
<g id="node64" class="node">
<title>c19</title>
<polygon fill="none" stroke="black" points="255.5,-1295.5 255.5,-1341.5 380.5,-1341.5 380.5,-1295.5 255.5,-1295.5"/>
<text text-anchor="middle" x="268.5" y="-1326.3" font-family="Times,serif" font-size="14.00">a</text>
<polyline fill="none" stroke="black" points="255.5,-1318.5 281.5,-1318.5 "/>
<text text-anchor="middle" x="268.5" y="-1303.3" font-family="Times,serif" font-size="14.00">b</text>
<polyline fill="none" stroke="black" points="281.5,-1295.5 281.5,-1341.5 "/>
<text text-anchor="middle" x="311" y="-1322.3" font-family="Times,serif" font-size="14.00">and_9</text>
<text text-anchor="middle" x="311" y="-1307.3" font-family="Times,serif" font-size="14.00">And</text>
<polyline fill="none" stroke="black" points="340.5,-1295.5 340.5,-1341.5 "/>
<text text-anchor="middle" x="360.5" y="-1314.8" font-family="Times,serif" font-size="14.00">out</text>
</g>
<!-- x47 -->
<g id="node67" class="node">
<title>x47</title>
<path fill="none" stroke="black" d="M437.5,-1254.5C437.5,-1254.5 529.5,-1254.5 529.5,-1254.5 535.5,-1254.5 541.5,-1260.5 541.5,-1266.5 541.5,-1266.5 541.5,-1278.5 541.5,-1278.5 541.5,-1284.5 535.5,-1290.5 529.5,-1290.5 529.5,-1290.5 437.5,-1290.5 437.5,-1290.5 431.5,-1290.5 425.5,-1284.5 425.5,-1278.5 425.5,-1278.5 425.5,-1266.5 425.5,-1266.5 425.5,-1260.5 431.5,-1254.5 437.5,-1254.5"/>
<text text-anchor="middle" x="483.5" y="-1268.8" font-family="Times,serif" font-size="14.00">slice [0] to [9]</text>
</g>
<!-- c19&#45;&gt;x47 -->
<g id="edge48" class="edge">
<title>c19:e&#45;&gt;x47:w</title>
<path fill="none" stroke="black" d="M393.51,-1314.58C403.6,-1305.89 402.9,-1285.09 413,-1276.41"/>
<polygon fill="none" stroke="black" points="393.36,-1314.63 388.97,-1320.35 382,-1318.5 386.39,-1312.78 393.36,-1314.63"/>
<polygon fill="none" stroke="black" points="413.14,-1276.37 417.53,-1270.65 424.5,-1272.5 420.11,-1278.22 413.14,-1276.37"/>
</g>
<!-- x45&#45;&gt;c19 -->
<g id="edge46" class="edge">
<title>x45:e&#45;&gt;c19:w</title>
<path fill="none" stroke="black" d="M223.4,-1469.4C261.73,-1453.23 203.79,-1348.83 242.08,-1332.61"/>
<polygon fill="none" stroke="black" points="223.32,-1469.41 218.1,-1474.39 211.5,-1471.5 216.71,-1466.52 223.32,-1469.41"/>
<polygon fill="none" stroke="black" points="242.18,-1332.6 247.39,-1327.61 254,-1330.5 248.79,-1335.49 242.18,-1332.6"/>
</g>
<!-- x46&#45;&gt;c19 -->
<g id="edge47" class="edge">
<title>x46:e&#45;&gt;c19:w</title>
<path fill="none" stroke="black" d="M223.77,-1306.5C230.33,-1306.5 235.26,-1306.5 241.84,-1306.5"/>
<polygon fill="none" stroke="black" points="223.5,-1306.5 217.5,-1310.5 211.5,-1306.5 217.5,-1302.5 223.5,-1306.5"/>
<polygon fill="none" stroke="black" points="242,-1306.5 248,-1302.5 254,-1306.5 248,-1310.5 242,-1306.5"/>
</g>
<!-- x47&#45;&gt;n3 -->
<g id="edge94" class="edge">
<title>x47:e&#45;&gt;n3:w</title>
<path fill="none" stroke="black" d="M542.5,-1272.5C623.37,-1272.5 508.56,-926.79 571.85,-895.73"/>
<polygon fill="black" stroke="black" points="572.98,-899.06 582,-893.5 571.48,-892.22 572.98,-899.06"/>
</g>
</g>
</svg>
