<?xml version="1.0" encoding="UTF-8" standalone="no"?>
<!DOCTYPE svg PUBLIC "-//W3C//DTD SVG 1.1//EN"
 "http://www.w3.org/Graphics/SVG/1.1/DTD/svg11.dtd">
<!-- Generated by graphviz version 2.43.0 (0)
 -->
<!-- Title: DMux8Way Pages: 1 -->
<svg width="794pt" height="445pt"
 viewBox="0.00 0.00 794.18 445.00" xmlns="http://www.w3.org/2000/svg" xmlns:xlink="http://www.w3.org/1999/xlink">
<g id="graph0" class="graph" transform="scale(1 1) rotate(0) translate(4 441)">
<title>DMux8Way</title>
<polygon fill="white" stroke="transparent" points="-4,4 -4,-441 790.18,-441 790.18,4 -4,4"/>
<text text-anchor="middle" x="393.09" y="-7.8" font-family="Times,serif" font-size="14.00">DMux8Way</text>
<!-- n1 -->
<g id="node1" class="node">
<title>n1</title>
<polygon fill="none" stroke="black" points="454.09,-244 420.91,-226 454.09,-208 487.27,-226 454.09,-244"/>
<text text-anchor="middle" x="454.09" y="-222.3" font-family="Times,serif" font-size="14.00">Da</text>
</g>
<!-- c13 -->
<g id="node13" class="node">
<title>c13</title>
<polygon fill="none" stroke="black" points="523.18,-261 523.18,-353 696.18,-353 696.18,-261 523.18,-261"/>
<text text-anchor="middle" x="541.68" y="-326.3" font-family="Times,serif" font-size="14.00">in</text>
<polyline fill="none" stroke="black" points="523.18,-307 560.18,-307 "/>
<text text-anchor="middle" x="541.68" y="-280.3" font-family="Times,serif" font-size="14.00">sel</text>
<polyline fill="none" stroke="black" points="560.18,-261 560.18,-353 "/>
<text text-anchor="middle" x="615.18" y="-310.8" font-family="Times,serif" font-size="14.00">dmux4way_1</text>
<text text-anchor="middle" x="615.18" y="-295.8" font-family="Times,serif" font-size="14.00">DMux4Way</text>
<polyline fill="none" stroke="black" points="670.18,-261 670.18,-353 "/>
<text text-anchor="middle" x="683.18" y="-337.8" font-family="Times,serif" font-size="14.00">a</text>
<polyline fill="none" stroke="black" points="670.18,-330 696.18,-330 "/>
<text text-anchor="middle" x="683.18" y="-314.8" font-family="Times,serif" font-size="14.00">b</text>
<polyline fill="none" stroke="black" points="670.18,-307 696.18,-307 "/>
<text text-anchor="middle" x="683.18" y="-291.8" font-family="Times,serif" font-size="14.00">c</text>
<polyline fill="none" stroke="black" points="670.18,-284 696.18,-284 "/>
<text text-anchor="middle" x="683.18" y="-268.8" font-family="Times,serif" font-size="14.00">d</text>
</g>
<!-- n1&#45;&gt;c13 -->
<g id="edge5" class="edge">
<title>n1:e&#45;&gt;c13:w</title>
<path fill="none" stroke="black" d="M487.18,-226C532.08,-226 483.66,-313.64 513.26,-328.02"/>
<polygon fill="black" stroke="black" points="512.69,-331.47 523.18,-330 514.06,-324.61 512.69,-331.47"/>
</g>
<!-- n2 -->
<g id="node2" class="node">
<title>n2</title>
<polygon fill="none" stroke="black" points="454.09,-181 420.91,-163 454.09,-145 487.27,-163 454.09,-181"/>
<text text-anchor="middle" x="454.09" y="-159.3" font-family="Times,serif" font-size="14.00">De</text>
</g>
<!-- c14 -->
<g id="node15" class="node">
<title>c14</title>
<polygon fill="none" stroke="black" points="523.18,-93 523.18,-185 696.18,-185 696.18,-93 523.18,-93"/>
<text text-anchor="middle" x="541.68" y="-158.3" font-family="Times,serif" font-size="14.00">in</text>
<polyline fill="none" stroke="black" points="523.18,-139 560.18,-139 "/>
<text text-anchor="middle" x="541.68" y="-112.3" font-family="Times,serif" font-size="14.00">sel</text>
<polyline fill="none" stroke="black" points="560.18,-93 560.18,-185 "/>
<text text-anchor="middle" x="615.18" y="-142.8" font-family="Times,serif" font-size="14.00">dmux4way_2</text>
<text text-anchor="middle" x="615.18" y="-127.8" font-family="Times,serif" font-size="14.00">DMux4Way</text>
<polyline fill="none" stroke="black" points="670.18,-93 670.18,-185 "/>
<text text-anchor="middle" x="683.18" y="-169.8" font-family="Times,serif" font-size="14.00">a</text>
<polyline fill="none" stroke="black" points="670.18,-162 696.18,-162 "/>
<text text-anchor="middle" x="683.18" y="-146.8" font-family="Times,serif" font-size="14.00">b</text>
<polyline fill="none" stroke="black" points="670.18,-139 696.18,-139 "/>
<text text-anchor="middle" x="683.18" y="-123.8" font-family="Times,serif" font-size="14.00">c</text>
<polyline fill="none" stroke="black" points="670.18,-116 696.18,-116 "/>
<text text-anchor="middle" x="683.18" y="-100.8" font-family="Times,serif" font-size="14.00">d</text>
</g>
<!-- n2&#45;&gt;c14 -->
<g id="edge12" class="edge">
<title>n2:e&#45;&gt;c14:w</title>
<path fill="none" stroke="black" d="M487.18,-163C499.18,-163 504.43,-162.44 513.05,-162.16"/>
<polygon fill="black" stroke="black" points="513.23,-165.65 523.18,-162 513.13,-158.65 513.23,-165.65"/>
</g>
<!-- n3 -->
<g id="node3" class="node">
<title>n3</title>
<polygon fill="none" stroke="black" points="786.18,-411.54 786.18,-426.46 770.36,-437 748,-437 732.18,-426.46 732.18,-411.54 748,-401 770.36,-401 786.18,-411.54"/>
<text text-anchor="middle" x="759.18" y="-415.3" font-family="Times,serif" font-size="14.00">a</text>
</g>
<!-- n4 -->
<g id="node4" class="node">
<title>n4</title>
<polygon fill="none" stroke="black" points="786.18,-357.54 786.18,-372.46 770.36,-383 748,-383 732.18,-372.46 732.18,-357.54 748,-347 770.36,-347 786.18,-357.54"/>
<text text-anchor="middle" x="759.18" y="-361.3" font-family="Times,serif" font-size="14.00">b</text>
</g>
<!-- n5 -->
<g id="node5" class="node">
<title>n5</title>
<polygon fill="none" stroke="black" points="786.18,-303.54 786.18,-318.46 770.36,-329 748,-329 732.18,-318.46 732.18,-303.54 748,-293 770.36,-293 786.18,-303.54"/>
<text text-anchor="middle" x="759.18" y="-307.3" font-family="Times,serif" font-size="14.00">c</text>
</g>
<!-- n6 -->
<g id="node6" class="node">
<title>n6</title>
<polygon fill="none" stroke="black" points="786.18,-249.54 786.18,-264.46 770.36,-275 748,-275 732.18,-264.46 732.18,-249.54 748,-239 770.36,-239 786.18,-249.54"/>
<text text-anchor="middle" x="759.18" y="-253.3" font-family="Times,serif" font-size="14.00">d</text>
</g>
<!-- n7 -->
<g id="node7" class="node">
<title>n7</title>
<polygon fill="none" stroke="black" points="786.18,-195.54 786.18,-210.46 770.36,-221 748,-221 732.18,-210.46 732.18,-195.54 748,-185 770.36,-185 786.18,-195.54"/>
<text text-anchor="middle" x="759.18" y="-199.3" font-family="Times,serif" font-size="14.00">e</text>
</g>
<!-- n8 -->
<g id="node8" class="node">
<title>n8</title>
<polygon fill="none" stroke="black" points="786.18,-141.54 786.18,-156.46 770.36,-167 748,-167 732.18,-156.46 732.18,-141.54 748,-131 770.36,-131 786.18,-141.54"/>
<text text-anchor="middle" x="759.18" y="-145.3" font-family="Times,serif" font-size="14.00">f</text>
</g>
<!-- n9 -->
<g id="node9" class="node">
<title>n9</title>
<polygon fill="none" stroke="black" points="786.18,-87.54 786.18,-102.46 770.36,-113 748,-113 732.18,-102.46 732.18,-87.54 748,-77 770.36,-77 786.18,-87.54"/>
<text text-anchor="middle" x="759.18" y="-91.3" font-family="Times,serif" font-size="14.00">g</text>
</g>
<!-- n10 -->
<g id="node10" class="node">
<title>n10</title>
<polygon fill="none" stroke="black" points="786.18,-33.54 786.18,-48.46 770.36,-59 748,-59 732.18,-48.46 732.18,-33.54 748,-23 770.36,-23 786.18,-33.54"/>
<text text-anchor="middle" x="759.18" y="-37.3" font-family="Times,serif" font-size="14.00">h</text>
</g>
<!-- n11 -->
<g id="node11" class="node">
<title>n11</title>
<polygon fill="none" stroke="black" points="175,-217.54 175,-232.46 159.18,-243 136.82,-243 121,-232.46 121,-217.54 136.82,-207 159.18,-207 175,-217.54"/>
<text text-anchor="middle" x="148" y="-221.3" font-family="Times,serif" font-size="14.00">in</text>
</g>
<!-- c15 -->
<g id="node17" class="node">
<title>c15</title>
<polygon fill="none" stroke="black" points="246,-178 246,-224 381,-224 381,-178 246,-178"/>
<text text-anchor="middle" x="264.5" y="-208.8" font-family="Times,serif" font-size="14.00">in</text>
<polyline fill="none" stroke="black" points="246,-201 283,-201 "/>
<text text-anchor="middle" x="264.5" y="-185.8" font-family="Times,serif" font-size="14.00">sel</text>
<polyline fill="none" stroke="black" points="283,-178 283,-224 "/>
<text text-anchor="middle" x="319" y="-204.8" font-family="Times,serif" font-size="14.00">dmux_0</text>
<text text-anchor="middle" x="319" y="-189.8" font-family="Times,serif" font-size="14.00">DMux</text>
<polyline fill="none" stroke="black" points="355,-178 355,-224 "/>
<text text-anchor="middle" x="368" y="-208.8" font-family="Times,serif" font-size="14.00">a</text>
<polyline fill="none" stroke="black" points="355,-201 381,-201 "/>
<text text-anchor="middle" x="368" y="-185.8" font-family="Times,serif" font-size="14.00">b</text>
</g>
<!-- n11&#45;&gt;c15 -->
<g id="edge7" class="edge">
<title>n11:e&#45;&gt;c15:w</title>
<path fill="none" stroke="black" d="M176,-225C203.17,-225 211.62,-215.73 234.25,-213.49"/>
<polygon fill="black" stroke="black" points="234.68,-216.97 244.5,-213 234.35,-209.98 234.68,-216.97"/>
</g>
<!-- n12 -->
<g id="node12" class="node">
<title>n12</title>
<polygon fill="none" stroke="black" points="54,-162.54 54,-177.46 38.18,-188 15.82,-188 0,-177.46 0,-162.54 15.82,-152 38.18,-152 54,-162.54"/>
<text text-anchor="middle" x="27" y="-166.3" font-family="Times,serif" font-size="14.00">sel</text>
</g>
<!-- x0 -->
<g id="node14" class="node">
<title>x0</title>
<path fill="none" stroke="black" d="M254,-258C254,-258 373,-258 373,-258 379,-258 385,-264 385,-270 385,-270 385,-282 385,-282 385,-288 379,-294 373,-294 373,-294 254,-294 254,-294 248,-294 242,-288 242,-282 242,-282 242,-270 242,-270 242,-264 248,-258 254,-258"/>
<text text-anchor="middle" x="313.5" y="-272.3" font-family="Times,serif" font-size="14.00">slice [1:0] to [1:0]</text>
</g>
<!-- n12&#45;&gt;x0 -->
<g id="edge8" class="edge">
<title>n12:e&#45;&gt;x0:w</title>
<path fill="none" stroke="black" stroke-width="3" d="M54,-170C93.8,-170 58.48,-227.7 90,-252 141.41,-291.64 170.55,-277.65 231.87,-276.13"/>
<polygon fill="black" stroke="black" stroke-width="3" points="232.04,-279.63 242,-276 231.96,-272.63 232.04,-279.63"/>
</g>
<!-- x1 -->
<g id="node16" class="node">
<title>x1</title>
<path fill="none" stroke="black" d="M254,-100C254,-100 373,-100 373,-100 379,-100 385,-106 385,-112 385,-112 385,-124 385,-124 385,-130 379,-136 373,-136 373,-136 254,-136 254,-136 248,-136 242,-130 242,-124 242,-124 242,-112 242,-112 242,-106 248,-100 254,-100"/>
<text text-anchor="middle" x="313.5" y="-114.3" font-family="Times,serif" font-size="14.00">slice [1:0] to [1:0]</text>
</g>
<!-- n12&#45;&gt;x1 -->
<g id="edge9" class="edge">
<title>n12:e&#45;&gt;x1:w</title>
<path fill="none" stroke="black" stroke-width="3" d="M54,-170C74.27,-170 71.4,-150.06 90,-142 149.57,-116.19 171.38,-117.75 231.94,-117.98"/>
<polygon fill="black" stroke="black" stroke-width="3" points="231.99,-121.48 242,-118 232.01,-114.48 231.99,-121.48"/>
</g>
<!-- x2 -->
<g id="node18" class="node">
<title>x2</title>
<path fill="none" stroke="black" d="M102,-152C102,-152 194,-152 194,-152 200,-152 206,-158 206,-164 206,-164 206,-176 206,-176 206,-182 200,-188 194,-188 194,-188 102,-188 102,-188 96,-188 90,-182 90,-176 90,-176 90,-164 90,-164 90,-158 96,-152 102,-152"/>
<text text-anchor="middle" x="148" y="-166.3" font-family="Times,serif" font-size="14.00">slice [2] to [0]</text>
</g>
<!-- n12&#45;&gt;x2 -->
<g id="edge10" class="edge">
<title>n12:e&#45;&gt;x2:w</title>
<path fill="none" stroke="black" d="M54,-170C66,-170 71.25,-170 79.88,-170"/>
<polygon fill="black" stroke="black" points="80,-173.5 90,-170 80,-166.5 80,-173.5"/>
</g>
<!-- c13&#45;&gt;n3 -->
<g id="edge13" class="edge">
<title>c13:e&#45;&gt;n3:w</title>
<path fill="none" stroke="black" d="M696.18,-342C729.83,-342 702.13,-403.08 722.36,-416.44"/>
<polygon fill="black" stroke="black" points="721.62,-419.86 732.18,-419 723.39,-413.09 721.62,-419.86"/>
</g>
<!-- c13&#45;&gt;n4 -->
<g id="edge14" class="edge">
<title>c13:e&#45;&gt;n4:w</title>
<path fill="none" stroke="black" d="M696.18,-319C717.88,-319 710.32,-351.14 722.41,-361.69"/>
<polygon fill="black" stroke="black" points="721.59,-365.11 732.18,-365 723.83,-358.48 721.59,-365.11"/>
</g>
<!-- c13&#45;&gt;n5 -->
<g id="edge15" class="edge">
<title>c13:e&#45;&gt;n5:w</title>
<path fill="none" stroke="black" d="M696.18,-295C709.58,-295 713.3,-304.38 722.17,-308.78"/>
<polygon fill="black" stroke="black" points="721.66,-312.25 732.18,-311 723.18,-305.41 721.66,-312.25"/>
</g>
<!-- c13&#45;&gt;n6 -->
<g id="edge16" class="edge">
<title>c13:e&#45;&gt;n6:w</title>
<path fill="none" stroke="black" d="M696.18,-272C709.45,-272 713.34,-263.21 722.22,-259.09"/>
<polygon fill="black" stroke="black" points="723.11,-262.47 732.18,-257 721.67,-255.62 723.11,-262.47"/>
</g>
<!-- x0&#45;&gt;c13 -->
<g id="edge1" class="edge">
<title>x0:e&#45;&gt;c13:w</title>
<path fill="none" stroke="black" stroke-width="3" d="M397.32,-276.11C445.05,-277.01 463.26,-283.01 511.08,-283.89"/>
<polygon fill="none" stroke="black" stroke-width="3" points="397,-276.11 390.96,-280.05 385,-276 391.04,-272.06 397,-276.11"/>
<polygon fill="none" stroke="black" stroke-width="3" points="511.18,-283.89 517.22,-279.95 523.18,-284 517.14,-287.95 511.18,-283.89"/>
</g>
<!-- c14&#45;&gt;n7 -->
<g id="edge17" class="edge">
<title>c14:e&#45;&gt;n7:w</title>
<path fill="none" stroke="black" d="M696.18,-174C712.55,-174 712.64,-192.42 722.4,-199.9"/>
<polygon fill="black" stroke="black" points="721.59,-203.31 732.18,-203 723.71,-196.64 721.59,-203.31"/>
</g>
<!-- c14&#45;&gt;n8 -->
<g id="edge18" class="edge">
<title>c14:e&#45;&gt;n8:w</title>
<path fill="none" stroke="black" d="M696.18,-151C708.2,-151 713.42,-149.88 722.05,-149.31"/>
<polygon fill="black" stroke="black" points="722.29,-152.81 732.18,-149 722.08,-145.81 722.29,-152.81"/>
</g>
<!-- c14&#45;&gt;n9 -->
<g id="edge19" class="edge">
<title>c14:e&#45;&gt;n9:w</title>
<path fill="none" stroke="black" d="M696.18,-127C713.41,-127 712.36,-106.28 722.45,-98.19"/>
<polygon fill="black" stroke="black" points="723.76,-101.44 732.18,-95 721.59,-94.78 723.76,-101.44"/>
</g>
<!-- c14&#45;&gt;n10 -->
<g id="edge6" class="edge">
<title>c14:e&#45;&gt;n10:w</title>
<path fill="none" stroke="black" d="M696.18,-104C724.15,-104 706.43,-56.62 722.26,-44.04"/>
<polygon fill="black" stroke="black" points="723.64,-47.28 732.18,-41 721.59,-40.58 723.64,-47.28"/>
</g>
<!-- x1&#45;&gt;c14 -->
<g id="edge2" class="edge">
<title>x1:e&#45;&gt;c14:w</title>
<path fill="none" stroke="black" stroke-width="3" d="M397.3,-117.97C444.98,-117.75 463.33,-116.25 511.09,-116.03"/>
<polygon fill="none" stroke="black" stroke-width="3" points="397,-117.97 391.01,-121.99 385,-118 390.99,-113.99 397,-117.97"/>
<polygon fill="none" stroke="black" stroke-width="3" points="511.18,-116.03 517.17,-112.01 523.18,-116 517.19,-120.01 511.18,-116.03"/>
</g>
<!-- c15&#45;&gt;n1 -->
<g id="edge4" class="edge">
<title>c15:e&#45;&gt;n1:w</title>
<path fill="none" stroke="black" d="M382.5,-213C396.61,-213 401.15,-220.93 411.07,-224.41"/>
<polygon fill="black" stroke="black" points="410.57,-227.87 421,-226 411.68,-220.96 410.57,-227.87"/>
</g>
<!-- c15&#45;&gt;n2 -->
<g id="edge11" class="edge">
<title>c15:e&#45;&gt;n2:w</title>
<path fill="none" stroke="black" d="M382.5,-189C399.11,-189 400.55,-172.16 411.24,-165.59"/>
<polygon fill="black" stroke="black" points="412.23,-168.95 421,-163 410.44,-162.18 412.23,-168.95"/>
</g>
<!-- x2&#45;&gt;c15 -->
<g id="edge3" class="edge">
<title>x2:e&#45;&gt;c15:w</title>
<path fill="none" stroke="black" d="M217.66,-173.14C223.32,-176.59 226.93,-182.13 232.52,-185.67"/>
<polygon fill="none" stroke="black" points="217.59,-173.12 210.75,-175.42 206,-170 212.83,-167.7 217.59,-173.12"/>
<polygon fill="none" stroke="black" points="232.94,-185.78 239.79,-183.54 244.5,-189 237.65,-191.24 232.94,-185.78"/>
</g>
</g>
</svg>
