<?xml version="1.0" encoding="UTF-8" standalone="no"?>
<!DOCTYPE svg PUBLIC "-//W3C//DTD SVG 1.1//EN"
 "http://www.w3.org/Graphics/SVG/1.1/DTD/svg11.dtd">
<!-- Generated by graphviz version 2.43.0 (0)
 -->
<!-- Title: Mux Pages: 1 -->
<svg width="2748pt" height="560pt"
 viewBox="0.00 0.00 2747.52 560.00" xmlns="http://www.w3.org/2000/svg" xmlns:xlink="http://www.w3.org/1999/xlink">
<g id="graph0" class="graph" transform="scale(1 1) rotate(0) translate(4 556)">
<title>Mux</title>
<polygon fill="white" stroke="transparent" points="-4,4 -4,-556 2743.52,-556 2743.52,4 -4,4"/>
<text text-anchor="middle" x="1369.76" y="-7.8" font-family="Times,serif" font-size="14.00">Mux</text>
<!-- n1 -->
<g id="node1" class="node">
<title>n1</title>
<polygon fill="none" stroke="black" points="940.25,-540 880.26,-522 940.25,-504 1000.24,-522 940.25,-540"/>
<text text-anchor="middle" x="940.25" y="-518.3" font-family="Times,serif" font-size="14.00">NotSel</text>
</g>
<!-- n2 -->
<g id="node2" class="node">
<title>n2</title>
<polygon fill="none" stroke="black" points="1988.1,-552 1955.76,-534 1988.1,-516 2020.44,-534 1988.1,-552"/>
<text text-anchor="middle" x="1988.1" y="-530.3" font-family="Times,serif" font-size="14.00">Sa</text>
</g>
<!-- n3 -->
<g id="node3" class="node">
<title>n3</title>
<polygon fill="none" stroke="black" points="1475.23,-59 1442.89,-41 1475.23,-23 1507.57,-41 1475.23,-59"/>
<text text-anchor="middle" x="1475.23" y="-37.3" font-family="Times,serif" font-size="14.00">Sb</text>
</g>
<!-- n4 -->
<g id="node4" class="node">
<title>n4</title>
<polygon fill="none" stroke="black" points="442.38,-380.54 442.38,-395.46 426.56,-406 404.2,-406 388.38,-395.46 388.38,-380.54 404.2,-370 426.56,-370 442.38,-380.54"/>
<text text-anchor="middle" x="415.38" y="-384.3" font-family="Times,serif" font-size="14.00">a</text>
</g>
<!-- c31 -->
<g id="node31" class="node">
<title>c31</title>
<polygon fill="none" stroke="black" points="582.76,-385 582.76,-431 762.76,-431 762.76,-385 582.76,-385"/>
<text text-anchor="middle" x="595.76" y="-415.8" font-family="Times,serif" font-size="14.00">a</text>
<polyline fill="none" stroke="black" points="582.76,-408 608.76,-408 "/>
<text text-anchor="middle" x="595.76" y="-392.8" font-family="Times,serif" font-size="14.00">b</text>
<polyline fill="none" stroke="black" points="608.76,-385 608.76,-431 "/>
<text text-anchor="middle" x="665.76" y="-411.8" font-family="Times,serif" font-size="14.00">and_1.nand_0</text>
<text text-anchor="middle" x="665.76" y="-396.8" font-family="Times,serif" font-size="14.00">Nand</text>
<polyline fill="none" stroke="black" points="722.76,-385 722.76,-431 "/>
<text text-anchor="middle" x="742.76" y="-404.3" font-family="Times,serif" font-size="14.00">out</text>
</g>
<!-- n4&#45;&gt;c31 -->
<g id="edge44" class="edge">
<title>n4:e&#45;&gt;c31:w</title>
<path fill="none" stroke="black" d="M443.38,-388C501.5,-388 518.29,-395.12 571.72,-395.93"/>
<polygon fill="black" stroke="black" points="571.73,-399.43 581.76,-396 571.79,-392.43 571.73,-399.43"/>
</g>
<!-- x2 -->
<g id="node41" class="node">
<title>x2</title>
<path fill="none" stroke="black" d="M687.76,-366C687.76,-366 657.76,-366 657.76,-366 651.76,-366 645.76,-360 645.76,-354 645.76,-354 645.76,-342 645.76,-342 645.76,-336 651.76,-330 657.76,-330 657.76,-330 687.76,-330 687.76,-330 693.76,-330 699.76,-336 699.76,-342 699.76,-342 699.76,-354 699.76,-354 699.76,-360 693.76,-366 687.76,-366"/>
<text text-anchor="middle" x="672.76" y="-344.3" font-family="Times,serif" font-size="14.00">BUF</text>
</g>
<!-- n4&#45;&gt;x2 -->
<g id="edge45" class="edge">
<title>n4:e&#45;&gt;x2:w</title>
<path fill="none" stroke="black" d="M443.38,-388C531.15,-388 551.97,-350.99 634.64,-348.17"/>
<polygon fill="black" stroke="black" points="634.82,-351.67 644.76,-348 634.7,-344.67 634.82,-351.67"/>
</g>
<!-- n5 -->
<g id="node5" class="node">
<title>n5</title>
<polygon fill="none" stroke="black" points="415.38,-477 350.36,-459 415.38,-441 480.4,-459 415.38,-477"/>
<text text-anchor="middle" x="415.38" y="-455.3" font-family="Times,serif" font-size="14.00">and_1.a</text>
</g>
<!-- n5&#45;&gt;c31 -->
<g id="edge47" class="edge">
<title>n5:e&#45;&gt;c31:w</title>
<path fill="none" stroke="black" d="M481.38,-459C525.5,-459 532.91,-425.86 571.29,-420.68"/>
<polygon fill="black" stroke="black" points="572.01,-424.14 581.76,-420 571.55,-417.15 572.01,-424.14"/>
</g>
<!-- x7 -->
<g id="node46" class="node">
<title>x7</title>
<path fill="none" stroke="black" d="M687.76,-486C687.76,-486 657.76,-486 657.76,-486 651.76,-486 645.76,-480 645.76,-474 645.76,-474 645.76,-462 645.76,-462 645.76,-456 651.76,-450 657.76,-450 657.76,-450 687.76,-450 687.76,-450 693.76,-450 699.76,-456 699.76,-462 699.76,-462 699.76,-474 699.76,-474 699.76,-480 693.76,-486 687.76,-486"/>
<text text-anchor="middle" x="672.76" y="-464.3" font-family="Times,serif" font-size="14.00">BUF</text>
</g>
<!-- n5&#45;&gt;x7 -->
<g id="edge49" class="edge">
<title>n5:e&#45;&gt;x7:w</title>
<path fill="none" stroke="black" d="M481.38,-459C550.55,-459 570.15,-467.14 634.49,-467.94"/>
<polygon fill="black" stroke="black" points="634.74,-471.44 644.76,-468 634.78,-464.44 634.74,-471.44"/>
</g>
<!-- x15 -->
<g id="node54" class="node">
<title>x15</title>
<path fill="none" stroke="black" d="M687.76,-540C687.76,-540 657.76,-540 657.76,-540 651.76,-540 645.76,-534 645.76,-528 645.76,-528 645.76,-516 645.76,-516 645.76,-510 651.76,-504 657.76,-504 657.76,-504 687.76,-504 687.76,-504 693.76,-504 699.76,-510 699.76,-516 699.76,-516 699.76,-528 699.76,-528 699.76,-534 693.76,-540 687.76,-540"/>
<text text-anchor="middle" x="672.76" y="-518.3" font-family="Times,serif" font-size="14.00">BUF</text>
</g>
<!-- n5&#45;&gt;x15 -->
<g id="edge48" class="edge">
<title>n5:e&#45;&gt;x15:w</title>
<path fill="none" stroke="black" d="M481.38,-459C520.12,-459 524.62,-481.05 560.76,-495 593.91,-507.8 603.76,-519.57 634.5,-521.67"/>
<polygon fill="black" stroke="black" points="634.65,-525.18 644.76,-522 634.88,-518.18 634.65,-525.18"/>
</g>
<!-- n6 -->
<g id="node6" class="node">
<title>n6</title>
<polygon fill="none" stroke="black" points="940.25,-429 830.99,-411 940.25,-393 1049.51,-411 940.25,-429"/>
<text text-anchor="middle" x="940.25" y="-407.3" font-family="Times,serif" font-size="14.00">and_1.aNandb</text>
</g>
<!-- c32 -->
<g id="node32" class="node">
<title>c32</title>
<polygon fill="none" stroke="black" points="1095.74,-388 1095.74,-434 1319.74,-434 1319.74,-388 1095.74,-388"/>
<text text-anchor="middle" x="1108.74" y="-418.8" font-family="Times,serif" font-size="14.00">a</text>
<polyline fill="none" stroke="black" points="1095.74,-411 1121.74,-411 "/>
<text text-anchor="middle" x="1108.74" y="-395.8" font-family="Times,serif" font-size="14.00">b</text>
<polyline fill="none" stroke="black" points="1121.74,-388 1121.74,-434 "/>
<text text-anchor="middle" x="1200.74" y="-414.8" font-family="Times,serif" font-size="14.00">and_1.not_1.nand_0</text>
<text text-anchor="middle" x="1200.74" y="-399.8" font-family="Times,serif" font-size="14.00">Nand</text>
<polyline fill="none" stroke="black" points="1279.74,-388 1279.74,-434 "/>
<text text-anchor="middle" x="1299.74" y="-407.3" font-family="Times,serif" font-size="14.00">out</text>
</g>
<!-- n6&#45;&gt;c32 -->
<g id="edge51" class="edge">
<title>n6:e&#45;&gt;c32:w</title>
<path fill="none" stroke="black" d="M1050.25,-411C1067.24,-411 1072.85,-403.08 1085.57,-400.11"/>
<polygon fill="black" stroke="black" points="1086.18,-403.56 1095.74,-399 1085.42,-396.6 1086.18,-403.56"/>
</g>
<!-- n6&#45;&gt;c32 -->
<g id="edge52" class="edge">
<title>n6:e&#45;&gt;c32:w</title>
<path fill="none" stroke="black" d="M1050.25,-411C1067.24,-411 1072.85,-418.92 1085.57,-421.89"/>
<polygon fill="black" stroke="black" points="1085.42,-425.4 1095.74,-423 1086.18,-418.44 1085.42,-425.4"/>
</g>
<!-- x0 -->
<g id="node39" class="node">
<title>x0</title>
<path fill="none" stroke="black" d="M1222.74,-489C1222.74,-489 1192.74,-489 1192.74,-489 1186.74,-489 1180.74,-483 1180.74,-477 1180.74,-477 1180.74,-465 1180.74,-465 1180.74,-459 1186.74,-453 1192.74,-453 1192.74,-453 1222.74,-453 1222.74,-453 1228.74,-453 1234.74,-459 1234.74,-465 1234.74,-465 1234.74,-477 1234.74,-477 1234.74,-483 1228.74,-489 1222.74,-489"/>
<text text-anchor="middle" x="1207.74" y="-467.3" font-family="Times,serif" font-size="14.00">BUF</text>
</g>
<!-- n6&#45;&gt;x0 -->
<g id="edge53" class="edge">
<title>n6:e&#45;&gt;x0:w</title>
<path fill="none" stroke="black" d="M1050.25,-411C1075.23,-411 1073.46,-432.7 1095.74,-444 1127.44,-460.07 1138.47,-469.19 1169.44,-470.76"/>
<polygon fill="black" stroke="black" points="1169.66,-474.26 1179.74,-471 1169.83,-467.26 1169.66,-474.26"/>
</g>
<!-- n7 -->
<g id="node7" class="node">
<title>n7</title>
<polygon fill="none" stroke="black" points="940.25,-366 873.89,-348 940.25,-330 1006.61,-348 940.25,-366"/>
<text text-anchor="middle" x="940.25" y="-344.3" font-family="Times,serif" font-size="14.00">and_1.b</text>
</g>
<!-- n8 -->
<g id="node8" class="node">
<title>n8</title>
<polygon fill="none" stroke="black" points="1475.23,-489 1365.13,-471 1475.23,-453 1585.33,-471 1475.23,-489"/>
<text text-anchor="middle" x="1475.23" y="-467.3" font-family="Times,serif" font-size="14.00">and_1.not_1.in</text>
</g>
<!-- n9 -->
<g id="node9" class="node">
<title>n9</title>
<polygon fill="none" stroke="black" points="1475.23,-432 1355.75,-414 1475.23,-396 1594.71,-414 1475.23,-432"/>
<text text-anchor="middle" x="1475.23" y="-410.3" font-family="Times,serif" font-size="14.00">and_1.not_1.out</text>
</g>
<!-- c37 -->
<g id="node37" class="node">
<title>c37</title>
<polygon fill="none" stroke="black" points="1630.72,-451 1630.72,-497 1842.72,-497 1842.72,-451 1630.72,-451"/>
<text text-anchor="middle" x="1643.72" y="-481.8" font-family="Times,serif" font-size="14.00">a</text>
<polyline fill="none" stroke="black" points="1630.72,-474 1656.72,-474 "/>
<text text-anchor="middle" x="1643.72" y="-458.8" font-family="Times,serif" font-size="14.00">b</text>
<polyline fill="none" stroke="black" points="1656.72,-451 1656.72,-497 "/>
<text text-anchor="middle" x="1729.72" y="-477.8" font-family="Times,serif" font-size="14.00">or_3.not_0.nand_0</text>
<text text-anchor="middle" x="1729.72" y="-462.8" font-family="Times,serif" font-size="14.00">Nand</text>
<polyline fill="none" stroke="black" points="1802.72,-451 1802.72,-497 "/>
<text text-anchor="middle" x="1822.72" y="-470.3" font-family="Times,serif" font-size="14.00">out</text>
</g>
<!-- n9&#45;&gt;c37 -->
<g id="edge57" class="edge">
<title>n9:e&#45;&gt;c37:w</title>
<path fill="none" stroke="black" d="M1594.72,-414C1617.22,-414 1608.4,-448.17 1621.11,-458.85"/>
<polygon fill="black" stroke="black" points="1620.13,-462.21 1630.72,-462 1622.31,-455.56 1620.13,-462.21"/>
</g>
<!-- n9&#45;&gt;c37 -->
<g id="edge58" class="edge">
<title>n9:e&#45;&gt;c37:w</title>
<path fill="none" stroke="black" d="M1594.72,-414C1626.31,-414 1602.3,-470.11 1620.85,-483.27"/>
<polygon fill="black" stroke="black" points="1620.15,-486.7 1630.72,-486 1622.02,-479.96 1620.15,-486.7"/>
</g>
<!-- x1 -->
<g id="node40" class="node">
<title>x1</title>
<path fill="none" stroke="black" d="M1751.72,-432C1751.72,-432 1721.72,-432 1721.72,-432 1715.72,-432 1709.72,-426 1709.72,-420 1709.72,-420 1709.72,-408 1709.72,-408 1709.72,-402 1715.72,-396 1721.72,-396 1721.72,-396 1751.72,-396 1751.72,-396 1757.72,-396 1763.72,-402 1763.72,-408 1763.72,-408 1763.72,-420 1763.72,-420 1763.72,-426 1757.72,-432 1751.72,-432"/>
<text text-anchor="middle" x="1736.72" y="-410.3" font-family="Times,serif" font-size="14.00">BUF</text>
</g>
<!-- n9&#45;&gt;x1 -->
<g id="edge59" class="edge">
<title>n9:e&#45;&gt;x1:w</title>
<path fill="none" stroke="black" d="M1594.72,-414C1641.83,-414 1656.09,-414 1698.57,-414"/>
<polygon fill="black" stroke="black" points="1698.72,-417.5 1708.72,-414 1698.72,-410.5 1698.72,-417.5"/>
</g>
<!-- x10 -->
<g id="node49" class="node">
<title>x10</title>
<path fill="none" stroke="black" d="M1751.72,-378C1751.72,-378 1721.72,-378 1721.72,-378 1715.72,-378 1709.72,-372 1709.72,-366 1709.72,-366 1709.72,-354 1709.72,-354 1709.72,-348 1715.72,-342 1721.72,-342 1721.72,-342 1751.72,-342 1751.72,-342 1757.72,-342 1763.72,-348 1763.72,-354 1763.72,-354 1763.72,-366 1763.72,-366 1763.72,-372 1757.72,-378 1751.72,-378"/>
<text text-anchor="middle" x="1736.72" y="-356.3" font-family="Times,serif" font-size="14.00">BUF</text>
</g>
<!-- n9&#45;&gt;x10 -->
<g id="edge60" class="edge">
<title>n9:e&#45;&gt;x10:w</title>
<path fill="none" stroke="black" d="M1594.72,-414C1614.72,-414 1613.06,-396.38 1630.72,-387 1659.95,-371.47 1670.07,-361.98 1698.72,-360.28"/>
<polygon fill="black" stroke="black" points="1698.82,-363.78 1708.72,-360 1698.63,-356.78 1698.82,-363.78"/>
</g>
<!-- x14 -->
<g id="node53" class="node">
<title>x14</title>
<path fill="none" stroke="black" d="M1751.72,-324C1751.72,-324 1721.72,-324 1721.72,-324 1715.72,-324 1709.72,-318 1709.72,-312 1709.72,-312 1709.72,-300 1709.72,-300 1709.72,-294 1715.72,-288 1721.72,-288 1721.72,-288 1751.72,-288 1751.72,-288 1757.72,-288 1763.72,-294 1763.72,-300 1763.72,-300 1763.72,-312 1763.72,-312 1763.72,-318 1757.72,-324 1751.72,-324"/>
<text text-anchor="middle" x="1736.72" y="-302.3" font-family="Times,serif" font-size="14.00">BUF</text>
</g>
<!-- n9&#45;&gt;x14 -->
<g id="edge61" class="edge">
<title>n9:e&#45;&gt;x14:w</title>
<path fill="none" stroke="black" d="M1594.72,-414C1634.12,-414 1601.71,-359.65 1630.72,-333 1655.1,-310.61 1669.12,-306.64 1698.58,-306.08"/>
<polygon fill="black" stroke="black" points="1698.75,-309.58 1708.72,-306 1698.69,-302.58 1698.75,-309.58"/>
</g>
<!-- x16 -->
<g id="node55" class="node">
<title>x16</title>
<path fill="none" stroke="black" d="M1751.72,-552C1751.72,-552 1721.72,-552 1721.72,-552 1715.72,-552 1709.72,-546 1709.72,-540 1709.72,-540 1709.72,-528 1709.72,-528 1709.72,-522 1715.72,-516 1721.72,-516 1721.72,-516 1751.72,-516 1751.72,-516 1757.72,-516 1763.72,-522 1763.72,-528 1763.72,-528 1763.72,-540 1763.72,-540 1763.72,-546 1757.72,-552 1751.72,-552"/>
<text text-anchor="middle" x="1736.72" y="-530.3" font-family="Times,serif" font-size="14.00">BUF</text>
</g>
<!-- n9&#45;&gt;x16 -->
<g id="edge62" class="edge">
<title>n9:e&#45;&gt;x16:w</title>
<path fill="none" stroke="black" d="M1594.72,-414C1639.04,-414 1598.82,-476.23 1630.72,-507 1654.55,-529.98 1669.01,-533.47 1698.57,-533.94"/>
<polygon fill="black" stroke="black" points="1698.7,-537.44 1708.72,-534 1698.74,-530.44 1698.7,-537.44"/>
</g>
<!-- n10 -->
<g id="node10" class="node">
<title>n10</title>
<polygon fill="none" stroke="black" points="1988.1,-432 1909.01,-414 1988.1,-396 2067.2,-414 1988.1,-432"/>
<text text-anchor="middle" x="1988.1" y="-410.3" font-family="Times,serif" font-size="14.00">and_1.out</text>
</g>
<!-- n11 -->
<g id="node11" class="node">
<title>n11</title>
<polygon fill="none" stroke="black" points="415.38,-349 350.36,-331 415.38,-313 480.4,-331 415.38,-349"/>
<text text-anchor="middle" x="415.38" y="-327.3" font-family="Times,serif" font-size="14.00">and_2.a</text>
</g>
<!-- n12 -->
<g id="node12" class="node">
<title>n12</title>
<polygon fill="none" stroke="black" points="415.38,-224 306.12,-206 415.38,-188 524.64,-206 415.38,-224"/>
<text text-anchor="middle" x="415.38" y="-202.3" font-family="Times,serif" font-size="14.00">and_2.aNandb</text>
</g>
<!-- c34 -->
<g id="node34" class="node">
<title>c34</title>
<polygon fill="none" stroke="black" points="560.76,-183 560.76,-229 784.76,-229 784.76,-183 560.76,-183"/>
<text text-anchor="middle" x="573.76" y="-213.8" font-family="Times,serif" font-size="14.00">a</text>
<polyline fill="none" stroke="black" points="560.76,-206 586.76,-206 "/>
<text text-anchor="middle" x="573.76" y="-190.8" font-family="Times,serif" font-size="14.00">b</text>
<polyline fill="none" stroke="black" points="586.76,-183 586.76,-229 "/>
<text text-anchor="middle" x="665.76" y="-209.8" font-family="Times,serif" font-size="14.00">and_2.not_1.nand_0</text>
<text text-anchor="middle" x="665.76" y="-194.8" font-family="Times,serif" font-size="14.00">Nand</text>
<polyline fill="none" stroke="black" points="744.76,-183 744.76,-229 "/>
<text text-anchor="middle" x="764.76" y="-202.3" font-family="Times,serif" font-size="14.00">out</text>
</g>
<!-- n12&#45;&gt;c34 -->
<g id="edge5" class="edge">
<title>n12:e&#45;&gt;c34:w</title>
<path fill="none" stroke="black" d="M524.76,-206C537.54,-206 541.94,-199.11 550.66,-195.77"/>
<polygon fill="black" stroke="black" points="551.51,-199.17 560.76,-194 550.31,-192.28 551.51,-199.17"/>
</g>
<!-- n12&#45;&gt;c34 -->
<g id="edge6" class="edge">
<title>n12:e&#45;&gt;c34:w</title>
<path fill="none" stroke="black" d="M524.76,-206C537.54,-206 541.94,-212.89 550.66,-216.23"/>
<polygon fill="black" stroke="black" points="550.31,-219.72 560.76,-218 551.51,-212.83 550.31,-219.72"/>
</g>
<!-- x3 -->
<g id="node42" class="node">
<title>x3</title>
<path fill="none" stroke="black" d="M687.76,-164C687.76,-164 657.76,-164 657.76,-164 651.76,-164 645.76,-158 645.76,-152 645.76,-152 645.76,-140 645.76,-140 645.76,-134 651.76,-128 657.76,-128 657.76,-128 687.76,-128 687.76,-128 693.76,-128 699.76,-134 699.76,-140 699.76,-140 699.76,-152 699.76,-152 699.76,-158 693.76,-164 687.76,-164"/>
<text text-anchor="middle" x="672.76" y="-142.3" font-family="Times,serif" font-size="14.00">BUF</text>
</g>
<!-- n12&#45;&gt;x3 -->
<g id="edge7" class="edge">
<title>n12:e&#45;&gt;x3:w</title>
<path fill="none" stroke="black" d="M524.76,-206C546.46,-206 541.99,-183.91 560.76,-173 591.49,-155.14 603.3,-147.48 634.44,-146.2"/>
<polygon fill="black" stroke="black" points="634.83,-149.69 644.76,-146 634.69,-142.69 634.83,-149.69"/>
</g>
<!-- n13 -->
<g id="node13" class="node">
<title>n13</title>
<polygon fill="none" stroke="black" points="415.38,-167 349.02,-149 415.38,-131 481.74,-149 415.38,-167"/>
<text text-anchor="middle" x="415.38" y="-145.3" font-family="Times,serif" font-size="14.00">and_2.b</text>
</g>
<!-- n14 -->
<g id="node14" class="node">
<title>n14</title>
<polygon fill="none" stroke="black" points="940.25,-164 830.15,-146 940.25,-128 1050.35,-146 940.25,-164"/>
<text text-anchor="middle" x="940.25" y="-142.3" font-family="Times,serif" font-size="14.00">and_2.not_1.in</text>
</g>
<!-- n15 -->
<g id="node15" class="node">
<title>n15</title>
<polygon fill="none" stroke="black" points="940.25,-221 820.77,-203 940.25,-185 1059.73,-203 940.25,-221"/>
<text text-anchor="middle" x="940.25" y="-199.3" font-family="Times,serif" font-size="14.00">and_2.not_1.out</text>
</g>
<!-- c38 -->
<g id="node38" class="node">
<title>c38</title>
<polygon fill="none" stroke="black" points="1101.74,-240 1101.74,-286 1313.74,-286 1313.74,-240 1101.74,-240"/>
<text text-anchor="middle" x="1114.74" y="-270.8" font-family="Times,serif" font-size="14.00">a</text>
<polyline fill="none" stroke="black" points="1101.74,-263 1127.74,-263 "/>
<text text-anchor="middle" x="1114.74" y="-247.8" font-family="Times,serif" font-size="14.00">b</text>
<polyline fill="none" stroke="black" points="1127.74,-240 1127.74,-286 "/>
<text text-anchor="middle" x="1200.74" y="-266.8" font-family="Times,serif" font-size="14.00">or_3.not_1.nand_0</text>
<text text-anchor="middle" x="1200.74" y="-251.8" font-family="Times,serif" font-size="14.00">Nand</text>
<polyline fill="none" stroke="black" points="1273.74,-240 1273.74,-286 "/>
<text text-anchor="middle" x="1293.74" y="-259.3" font-family="Times,serif" font-size="14.00">out</text>
</g>
<!-- n15&#45;&gt;c38 -->
<g id="edge11" class="edge">
<title>n15:e&#45;&gt;c38:w</title>
<path fill="none" stroke="black" d="M1059.74,-203C1083.63,-203 1076.22,-237.81 1090.82,-248.14"/>
<polygon fill="black" stroke="black" points="1090.16,-251.59 1100.74,-251 1092.1,-244.87 1090.16,-251.59"/>
</g>
<!-- n15&#45;&gt;c38 -->
<g id="edge12" class="edge">
<title>n15:e&#45;&gt;c38:w</title>
<path fill="none" stroke="black" d="M1059.74,-203C1092.54,-203 1070.23,-260.11 1090.97,-272.6"/>
<polygon fill="black" stroke="black" points="1090.19,-276.02 1100.74,-275 1091.86,-269.22 1090.19,-276.02"/>
</g>
<!-- x4 -->
<g id="node43" class="node">
<title>x4</title>
<path fill="none" stroke="black" d="M1222.74,-221C1222.74,-221 1192.74,-221 1192.74,-221 1186.74,-221 1180.74,-215 1180.74,-209 1180.74,-209 1180.74,-197 1180.74,-197 1180.74,-191 1186.74,-185 1192.74,-185 1192.74,-185 1222.74,-185 1222.74,-185 1228.74,-185 1234.74,-191 1234.74,-197 1234.74,-197 1234.74,-209 1234.74,-209 1234.74,-215 1228.74,-221 1222.74,-221"/>
<text text-anchor="middle" x="1207.74" y="-199.3" font-family="Times,serif" font-size="14.00">BUF</text>
</g>
<!-- n15&#45;&gt;x4 -->
<g id="edge16" class="edge">
<title>n15:e&#45;&gt;x4:w</title>
<path fill="none" stroke="black" d="M1059.74,-203C1109.53,-203 1124.46,-203 1169.62,-203"/>
<polygon fill="black" stroke="black" points="1169.74,-206.5 1179.74,-203 1169.74,-199.5 1169.74,-206.5"/>
</g>
<!-- x12 -->
<g id="node51" class="node">
<title>x12</title>
<path fill="none" stroke="black" d="M1222.74,-167C1222.74,-167 1192.74,-167 1192.74,-167 1186.74,-167 1180.74,-161 1180.74,-155 1180.74,-155 1180.74,-143 1180.74,-143 1180.74,-137 1186.74,-131 1192.74,-131 1192.74,-131 1222.74,-131 1222.74,-131 1228.74,-131 1234.74,-137 1234.74,-143 1234.74,-143 1234.74,-155 1234.74,-155 1234.74,-161 1228.74,-167 1222.74,-167"/>
<text text-anchor="middle" x="1207.74" y="-145.3" font-family="Times,serif" font-size="14.00">BUF</text>
</g>
<!-- n15&#45;&gt;x12 -->
<g id="edge13" class="edge">
<title>n15:e&#45;&gt;x12:w</title>
<path fill="none" stroke="black" d="M1059.74,-203C1079.74,-203 1077.98,-185.19 1095.74,-176 1127.31,-159.68 1138.44,-150.76 1169.44,-149.24"/>
<polygon fill="black" stroke="black" points="1169.82,-152.73 1179.74,-149 1169.66,-145.73 1169.82,-152.73"/>
</g>
<!-- x13 -->
<g id="node52" class="node">
<title>x13</title>
<path fill="none" stroke="black" d="M1222.74,-113C1222.74,-113 1192.74,-113 1192.74,-113 1186.74,-113 1180.74,-107 1180.74,-101 1180.74,-101 1180.74,-89 1180.74,-89 1180.74,-83 1186.74,-77 1192.74,-77 1192.74,-77 1222.74,-77 1222.74,-77 1228.74,-77 1234.74,-83 1234.74,-89 1234.74,-89 1234.74,-101 1234.74,-101 1234.74,-107 1228.74,-113 1222.74,-113"/>
<text text-anchor="middle" x="1207.74" y="-91.3" font-family="Times,serif" font-size="14.00">BUF</text>
</g>
<!-- n15&#45;&gt;x13 -->
<g id="edge14" class="edge">
<title>n15:e&#45;&gt;x13:w</title>
<path fill="none" stroke="black" d="M1059.74,-203C1099.14,-203 1066.43,-148.32 1095.74,-122 1122.29,-98.15 1137.61,-95.35 1169.72,-95.04"/>
<polygon fill="black" stroke="black" points="1169.75,-98.54 1179.74,-95 1169.73,-91.54 1169.75,-98.54"/>
</g>
<!-- x17 -->
<g id="node56" class="node">
<title>x17</title>
<path fill="none" stroke="black" d="M1222.74,-59C1222.74,-59 1192.74,-59 1192.74,-59 1186.74,-59 1180.74,-53 1180.74,-47 1180.74,-47 1180.74,-35 1180.74,-35 1180.74,-29 1186.74,-23 1192.74,-23 1192.74,-23 1222.74,-23 1222.74,-23 1228.74,-23 1234.74,-29 1234.74,-35 1234.74,-35 1234.74,-47 1234.74,-47 1234.74,-53 1228.74,-59 1222.74,-59"/>
<text text-anchor="middle" x="1207.74" y="-37.3" font-family="Times,serif" font-size="14.00">BUF</text>
</g>
<!-- n15&#45;&gt;x17 -->
<g id="edge15" class="edge">
<title>n15:e&#45;&gt;x17:w</title>
<path fill="none" stroke="black" d="M1059.74,-203C1121.84,-203 1052.95,-113 1095.74,-68 1120.33,-42.13 1137.26,-40.99 1169.67,-40.99"/>
<polygon fill="black" stroke="black" points="1169.74,-44.49 1179.74,-41 1169.74,-37.49 1169.74,-44.49"/>
</g>
<!-- n16 -->
<g id="node16" class="node">
<title>n16</title>
<polygon fill="none" stroke="black" points="1475.23,-221 1396.14,-203 1475.23,-185 1554.33,-203 1475.23,-221"/>
<text text-anchor="middle" x="1475.23" y="-199.3" font-family="Times,serif" font-size="14.00">and_2.out</text>
</g>
<!-- n17 -->
<g id="node17" class="node">
<title>n17</title>
<polygon fill="none" stroke="black" points="54,-165.54 54,-180.46 38.18,-191 15.82,-191 0,-180.46 0,-165.54 15.82,-155 38.18,-155 54,-165.54"/>
<text text-anchor="middle" x="27" y="-169.3" font-family="Times,serif" font-size="14.00">b</text>
</g>
<!-- c33 -->
<g id="node33" class="node">
<title>c33</title>
<polygon fill="none" stroke="black" points="90,-186 90,-232 270,-232 270,-186 90,-186"/>
<text text-anchor="middle" x="103" y="-216.8" font-family="Times,serif" font-size="14.00">a</text>
<polyline fill="none" stroke="black" points="90,-209 116,-209 "/>
<text text-anchor="middle" x="103" y="-193.8" font-family="Times,serif" font-size="14.00">b</text>
<polyline fill="none" stroke="black" points="116,-186 116,-232 "/>
<text text-anchor="middle" x="173" y="-212.8" font-family="Times,serif" font-size="14.00">and_2.nand_0</text>
<text text-anchor="middle" x="173" y="-197.8" font-family="Times,serif" font-size="14.00">Nand</text>
<polyline fill="none" stroke="black" points="230,-186 230,-232 "/>
<text text-anchor="middle" x="250" y="-205.3" font-family="Times,serif" font-size="14.00">out</text>
</g>
<!-- n17&#45;&gt;c33 -->
<g id="edge18" class="edge">
<title>n17:e&#45;&gt;c33:w</title>
<path fill="none" stroke="black" d="M54,-173C69.17,-173 70.84,-187.94 80.32,-194.25"/>
<polygon fill="black" stroke="black" points="79.42,-197.63 90,-197 81.34,-190.9 79.42,-197.63"/>
</g>
<!-- x5 -->
<g id="node44" class="node">
<title>x5</title>
<path fill="none" stroke="black" d="M195,-167C195,-167 165,-167 165,-167 159,-167 153,-161 153,-155 153,-155 153,-143 153,-143 153,-137 159,-131 165,-131 165,-131 195,-131 195,-131 201,-131 207,-137 207,-143 207,-143 207,-155 207,-155 207,-161 201,-167 195,-167"/>
<text text-anchor="middle" x="180" y="-145.3" font-family="Times,serif" font-size="14.00">BUF</text>
</g>
<!-- n17&#45;&gt;x5 -->
<g id="edge19" class="edge">
<title>n17:e&#45;&gt;x5:w</title>
<path fill="none" stroke="black" d="M54,-173C95.16,-173 105.55,-152.78 141.66,-149.46"/>
<polygon fill="black" stroke="black" points="142.16,-152.94 152,-149 141.85,-145.95 142.16,-152.94"/>
</g>
<!-- n18 -->
<g id="node18" class="node">
<title>n18</title>
<polygon fill="none" stroke="black" points="415.38,-295 347.34,-277 415.38,-259 483.41,-277 415.38,-295"/>
<text text-anchor="middle" x="415.38" y="-273.3" font-family="Times,serif" font-size="14.00">not_0.in</text>
</g>
<!-- n19 -->
<g id="node19" class="node">
<title>n19</title>
<polygon fill="none" stroke="black" points="940.25,-486 864.17,-468 940.25,-450 1016.33,-468 940.25,-486"/>
<text text-anchor="middle" x="940.25" y="-464.3" font-family="Times,serif" font-size="14.00">not_0.out</text>
</g>
<!-- n20 -->
<g id="node20" class="node">
<title>n20</title>
<polygon fill="none" stroke="black" points="1988.1,-324 1932.8,-306 1988.1,-288 2043.4,-306 1988.1,-324"/>
<text text-anchor="middle" x="1988.1" y="-302.3" font-family="Times,serif" font-size="14.00">or_3.a</text>
</g>
<!-- n21 -->
<g id="node21" class="node">
<title>n21</title>
<polygon fill="none" stroke="black" points="1475.23,-113 1419.09,-95 1475.23,-77 1531.37,-95 1475.23,-113"/>
<text text-anchor="middle" x="1475.23" y="-91.3" font-family="Times,serif" font-size="14.00">or_3.b</text>
</g>
<!-- n22 -->
<g id="node22" class="node">
<title>n22</title>
<polygon fill="none" stroke="black" points="1988.1,-489 1924.76,-471 1988.1,-453 2051.44,-471 1988.1,-489"/>
<text text-anchor="middle" x="1988.1" y="-467.3" font-family="Times,serif" font-size="14.00">or_3.na</text>
</g>
<!-- c36 -->
<g id="node36" class="node">
<title>c36</title>
<polygon fill="none" stroke="black" points="2133.48,-319 2133.48,-365 2302.48,-365 2302.48,-319 2133.48,-319"/>
<text text-anchor="middle" x="2146.48" y="-349.8" font-family="Times,serif" font-size="14.00">a</text>
<polyline fill="none" stroke="black" points="2133.48,-342 2159.48,-342 "/>
<text text-anchor="middle" x="2146.48" y="-326.8" font-family="Times,serif" font-size="14.00">b</text>
<polyline fill="none" stroke="black" points="2159.48,-319 2159.48,-365 "/>
<text text-anchor="middle" x="2210.98" y="-345.8" font-family="Times,serif" font-size="14.00">or_3.nand_2</text>
<text text-anchor="middle" x="2210.98" y="-330.8" font-family="Times,serif" font-size="14.00">Nand</text>
<polyline fill="none" stroke="black" points="2262.48,-319 2262.48,-365 "/>
<text text-anchor="middle" x="2282.48" y="-338.3" font-family="Times,serif" font-size="14.00">out</text>
</g>
<!-- n22&#45;&gt;c36 -->
<g id="edge26" class="edge">
<title>n22:e&#45;&gt;c36:w</title>
<path fill="none" stroke="black" d="M2052.1,-471C2076.28,-471 2082.1,-459.65 2097.48,-441 2121.61,-411.74 2097.2,-364.06 2123.56,-355.38"/>
<polygon fill="black" stroke="black" points="2124.06,-358.84 2133.48,-354 2123.09,-351.91 2124.06,-358.84"/>
</g>
<!-- x9 -->
<g id="node48" class="node">
<title>x9</title>
<path fill="none" stroke="black" d="M2232.98,-489C2232.98,-489 2202.98,-489 2202.98,-489 2196.98,-489 2190.98,-483 2190.98,-477 2190.98,-477 2190.98,-465 2190.98,-465 2190.98,-459 2196.98,-453 2202.98,-453 2202.98,-453 2232.98,-453 2232.98,-453 2238.98,-453 2244.98,-459 2244.98,-465 2244.98,-465 2244.98,-477 2244.98,-477 2244.98,-483 2238.98,-489 2232.98,-489"/>
<text text-anchor="middle" x="2217.98" y="-467.3" font-family="Times,serif" font-size="14.00">BUF</text>
</g>
<!-- n22&#45;&gt;x9 -->
<g id="edge27" class="edge">
<title>n22:e&#45;&gt;x9:w</title>
<path fill="none" stroke="black" d="M2052.1,-471C2109.79,-471 2126.75,-471 2179.66,-471"/>
<polygon fill="black" stroke="black" points="2179.98,-474.5 2189.98,-471 2179.98,-467.5 2179.98,-474.5"/>
</g>
<!-- n23 -->
<g id="node23" class="node">
<title>n23</title>
<polygon fill="none" stroke="black" points="1475.23,-278 1411.05,-260 1475.23,-242 1539.41,-260 1475.23,-278"/>
<text text-anchor="middle" x="1475.23" y="-256.3" font-family="Times,serif" font-size="14.00">or_3.nb</text>
</g>
<!-- n23&#45;&gt;c36 -->
<g id="edge29" class="edge">
<title>n23:e&#45;&gt;c36:w</title>
<path fill="none" stroke="black" d="M1540.23,-260C1664.14,-260 1988.45,-220.13 2097.48,-279 2118.08,-290.12 2109.79,-318.78 2123.37,-327.47"/>
<polygon fill="black" stroke="black" points="2122.93,-330.97 2133.48,-330 2124.63,-324.18 2122.93,-330.97"/>
</g>
<!-- x11 -->
<g id="node50" class="node">
<title>x11</title>
<path fill="none" stroke="black" d="M1751.72,-232C1751.72,-232 1721.72,-232 1721.72,-232 1715.72,-232 1709.72,-226 1709.72,-220 1709.72,-220 1709.72,-208 1709.72,-208 1709.72,-202 1715.72,-196 1721.72,-196 1721.72,-196 1751.72,-196 1751.72,-196 1757.72,-196 1763.72,-202 1763.72,-208 1763.72,-208 1763.72,-220 1763.72,-220 1763.72,-226 1757.72,-232 1751.72,-232"/>
<text text-anchor="middle" x="1736.72" y="-210.3" font-family="Times,serif" font-size="14.00">BUF</text>
</g>
<!-- n23&#45;&gt;x11 -->
<g id="edge30" class="edge">
<title>n23:e&#45;&gt;x11:w</title>
<path fill="none" stroke="black" d="M1540.23,-260C1614.37,-260 1629.78,-218.04 1698.64,-214.27"/>
<polygon fill="black" stroke="black" points="1698.82,-217.77 1708.72,-214 1698.63,-210.77 1698.82,-217.77"/>
</g>
<!-- n24 -->
<g id="node24" class="node">
<title>n24</title>
<polygon fill="none" stroke="black" points="1988.1,-378 1887.72,-360 1988.1,-342 2088.48,-360 1988.1,-378"/>
<text text-anchor="middle" x="1988.1" y="-356.3" font-family="Times,serif" font-size="14.00">or_3.not_0.in</text>
</g>
<!-- n25 -->
<g id="node25" class="node">
<title>n25</title>
<polygon fill="none" stroke="black" points="2447.86,-489 2338.6,-471 2447.86,-453 2557.12,-471 2447.86,-489"/>
<text text-anchor="middle" x="2447.86" y="-467.3" font-family="Times,serif" font-size="14.00">or_3.not_0.out</text>
</g>
<!-- n26 -->
<g id="node26" class="node">
<title>n26</title>
<polygon fill="none" stroke="black" points="1475.23,-167 1374.85,-149 1475.23,-131 1575.61,-149 1475.23,-167"/>
<text text-anchor="middle" x="1475.23" y="-145.3" font-family="Times,serif" font-size="14.00">or_3.not_1.in</text>
</g>
<!-- n27 -->
<g id="node27" class="node">
<title>n27</title>
<polygon fill="none" stroke="black" points="1988.1,-232 1878.84,-214 1988.1,-196 2097.36,-214 1988.1,-232"/>
<text text-anchor="middle" x="1988.1" y="-210.3" font-family="Times,serif" font-size="14.00">or_3.not_1.out</text>
</g>
<!-- n28 -->
<g id="node28" class="node">
<title>n28</title>
<polygon fill="none" stroke="black" points="2447.86,-360 2378.99,-342 2447.86,-324 2516.73,-342 2447.86,-360"/>
<text text-anchor="middle" x="2447.86" y="-338.3" font-family="Times,serif" font-size="14.00">or_3.out</text>
</g>
<!-- x18 -->
<g id="node57" class="node">
<title>x18</title>
<path fill="none" stroke="black" d="M2635.24,-360C2635.24,-360 2605.24,-360 2605.24,-360 2599.24,-360 2593.24,-354 2593.24,-348 2593.24,-348 2593.24,-336 2593.24,-336 2593.24,-330 2599.24,-324 2605.24,-324 2605.24,-324 2635.24,-324 2635.24,-324 2641.24,-324 2647.24,-330 2647.24,-336 2647.24,-336 2647.24,-348 2647.24,-348 2647.24,-354 2641.24,-360 2635.24,-360"/>
<text text-anchor="middle" x="2620.24" y="-338.3" font-family="Times,serif" font-size="14.00">BUF</text>
</g>
<!-- n28&#45;&gt;x18 -->
<g id="edge36" class="edge">
<title>n28:e&#45;&gt;x18:w</title>
<path fill="none" stroke="black" d="M2517.86,-342C2547.7,-342 2557.61,-342 2583.08,-342"/>
<polygon fill="black" stroke="black" points="2583.24,-345.5 2593.24,-342 2583.24,-338.5 2583.24,-345.5"/>
</g>
<!-- n29 -->
<g id="node29" class="node">
<title>n29</title>
<polygon fill="none" stroke="black" points="2739.66,-334.54 2739.66,-349.46 2723.09,-360 2699.67,-360 2683.1,-349.46 2683.1,-334.54 2699.67,-324 2723.09,-324 2739.66,-334.54"/>
<text text-anchor="middle" x="2711.38" y="-338.3" font-family="Times,serif" font-size="14.00">out</text>
</g>
<!-- n30 -->
<g id="node30" class="node">
<title>n30</title>
<polygon fill="none" stroke="black" points="54,-323.54 54,-338.46 38.18,-349 15.82,-349 0,-338.46 0,-323.54 15.82,-313 38.18,-313 54,-323.54"/>
<text text-anchor="middle" x="27" y="-327.3" font-family="Times,serif" font-size="14.00">sel</text>
</g>
<!-- n30&#45;&gt;c33 -->
<g id="edge39" class="edge">
<title>n30:e&#45;&gt;c33:w</title>
<path fill="none" stroke="black" d="M54,-331C101.42,-331 48.29,-237.52 80,-222.91"/>
<polygon fill="black" stroke="black" points="80.83,-226.31 90,-221 79.52,-219.44 80.83,-226.31"/>
</g>
<!-- c35 -->
<g id="node35" class="node">
<title>c35</title>
<polygon fill="none" stroke="black" points="91.5,-368 91.5,-414 268.5,-414 268.5,-368 91.5,-368"/>
<text text-anchor="middle" x="104.5" y="-398.8" font-family="Times,serif" font-size="14.00">a</text>
<polyline fill="none" stroke="black" points="91.5,-391 117.5,-391 "/>
<text text-anchor="middle" x="104.5" y="-375.8" font-family="Times,serif" font-size="14.00">b</text>
<polyline fill="none" stroke="black" points="117.5,-368 117.5,-414 "/>
<text text-anchor="middle" x="173" y="-394.8" font-family="Times,serif" font-size="14.00">not_0.nand_0</text>
<text text-anchor="middle" x="173" y="-379.8" font-family="Times,serif" font-size="14.00">Nand</text>
<polyline fill="none" stroke="black" points="228.5,-368 228.5,-414 "/>
<text text-anchor="middle" x="248.5" y="-387.3" font-family="Times,serif" font-size="14.00">out</text>
</g>
<!-- n30&#45;&gt;c35 -->
<g id="edge40" class="edge">
<title>n30:e&#45;&gt;c35:w</title>
<path fill="none" stroke="black" d="M54,-331C76.5,-331 67.68,-365.17 80.39,-375.85"/>
<polygon fill="black" stroke="black" points="79.41,-379.21 90,-379 81.59,-372.56 79.41,-379.21"/>
</g>
<!-- n30&#45;&gt;c35 -->
<g id="edge41" class="edge">
<title>n30:e&#45;&gt;c35:w</title>
<path fill="none" stroke="black" d="M54,-331C85.58,-331 61.58,-387.11 80.13,-400.27"/>
<polygon fill="black" stroke="black" points="79.43,-403.7 90,-403 81.3,-396.96 79.43,-403.7"/>
</g>
<!-- x6 -->
<g id="node45" class="node">
<title>x6</title>
<path fill="none" stroke="black" d="M195,-349C195,-349 165,-349 165,-349 159,-349 153,-343 153,-337 153,-337 153,-325 153,-325 153,-319 159,-313 165,-313 165,-313 195,-313 195,-313 201,-313 207,-319 207,-325 207,-325 207,-337 207,-337 207,-343 201,-349 195,-349"/>
<text text-anchor="middle" x="180" y="-327.3" font-family="Times,serif" font-size="14.00">BUF</text>
</g>
<!-- n30&#45;&gt;x6 -->
<g id="edge42" class="edge">
<title>n30:e&#45;&gt;x6:w</title>
<path fill="none" stroke="black" d="M54,-331C93.98,-331 106.44,-331 141.9,-331"/>
<polygon fill="black" stroke="black" points="142,-334.5 152,-331 142,-327.5 142,-334.5"/>
</g>
<!-- x8 -->
<g id="node47" class="node">
<title>x8</title>
<path fill="none" stroke="black" d="M195,-295C195,-295 165,-295 165,-295 159,-295 153,-289 153,-283 153,-283 153,-271 153,-271 153,-265 159,-259 165,-259 165,-259 195,-259 195,-259 201,-259 207,-265 207,-271 207,-271 207,-283 207,-283 207,-289 201,-295 195,-295"/>
<text text-anchor="middle" x="180" y="-273.3" font-family="Times,serif" font-size="14.00">BUF</text>
</g>
<!-- n30&#45;&gt;x8 -->
<g id="edge43" class="edge">
<title>n30:e&#45;&gt;x8:w</title>
<path fill="none" stroke="black" d="M54,-331C74,-331 72.71,-314.06 90,-304 112.73,-290.77 120.14,-280.02 141.77,-277.54"/>
<polygon fill="black" stroke="black" points="142.2,-281.02 152,-277 141.83,-274.03 142.2,-281.02"/>
</g>
<!-- c31&#45;&gt;n6 -->
<g id="edge50" class="edge">
<title>c31:e&#45;&gt;n6:w</title>
<path fill="none" stroke="black" d="M763.76,-408C789.64,-408 798.49,-410.3 820.11,-410.87"/>
<polygon fill="black" stroke="black" points="820.21,-414.37 830.25,-411 820.3,-407.37 820.21,-414.37"/>
</g>
<!-- c32&#45;&gt;n9 -->
<g id="edge56" class="edge">
<title>c32:e&#45;&gt;n9:w</title>
<path fill="none" stroke="black" d="M1319.74,-411C1331.78,-411 1336.98,-412.69 1345.6,-413.53"/>
<polygon fill="black" stroke="black" points="1345.59,-417.03 1355.74,-414 1345.91,-410.04 1345.59,-417.03"/>
</g>
<!-- c33&#45;&gt;n12 -->
<g id="edge4" class="edge">
<title>c33:e&#45;&gt;n12:w</title>
<path fill="none" stroke="black" d="M270,-209C282.04,-209 287.24,-207.31 295.86,-206.47"/>
<polygon fill="black" stroke="black" points="296.17,-209.96 306,-206 295.85,-202.97 296.17,-209.96"/>
</g>
<!-- c34&#45;&gt;n15 -->
<g id="edge10" class="edge">
<title>c34:e&#45;&gt;n15:w</title>
<path fill="none" stroke="black" d="M784.76,-206C796.8,-206 802,-204.31 810.62,-203.47"/>
<polygon fill="black" stroke="black" points="810.93,-206.96 820.76,-203 810.61,-199.97 810.93,-206.96"/>
</g>
<!-- c35&#45;&gt;n5 -->
<g id="edge46" class="edge">
<title>c35:e&#45;&gt;n5:w</title>
<path fill="none" stroke="black" d="M270,-391C312.64,-391 304.74,-448.3 339.09,-457.7"/>
<polygon fill="black" stroke="black" points="339.02,-461.22 349.38,-459 339.9,-454.28 339.02,-461.22"/>
</g>
<!-- c36&#45;&gt;n28 -->
<g id="edge35" class="edge">
<title>c36:e&#45;&gt;n28:w</title>
<path fill="none" stroke="black" d="M2302.48,-342C2332.32,-342 2342.23,-342 2367.7,-342"/>
<polygon fill="black" stroke="black" points="2367.86,-345.5 2377.86,-342 2367.86,-338.5 2367.86,-345.5"/>
</g>
<!-- c37&#45;&gt;n22 -->
<g id="edge25" class="edge">
<title>c37:e&#45;&gt;n22:w</title>
<path fill="none" stroke="black" d="M1842.72,-474C1875.24,-474 1885.8,-471.58 1913.86,-471.09"/>
<polygon fill="black" stroke="black" points="1914.13,-474.58 1924.1,-471 1914.07,-467.58 1914.13,-474.58"/>
</g>
<!-- c38&#45;&gt;n23 -->
<g id="edge28" class="edge">
<title>c38:e&#45;&gt;n23:w</title>
<path fill="none" stroke="black" d="M1314.74,-263C1353.55,-263 1365.72,-260.49 1399.95,-260.06"/>
<polygon fill="black" stroke="black" points="1400.25,-263.56 1410.23,-260 1400.21,-256.56 1400.25,-263.56"/>
</g>
<!-- x0&#45;&gt;n8 -->
<g id="edge55" class="edge">
<title>x0:e&#45;&gt;n8:w</title>
<path fill="none" stroke="black" d="M1235.74,-471C1289.28,-471 1305.17,-471 1354,-471"/>
<polygon fill="black" stroke="black" points="1354.23,-474.5 1364.23,-471 1354.23,-467.5 1354.23,-474.5"/>
</g>
<!-- x1&#45;&gt;n10 -->
<g id="edge2" class="edge">
<title>x1:e&#45;&gt;n10:w</title>
<path fill="none" stroke="black" d="M1764.72,-414C1824.96,-414 1842.49,-414 1898.06,-414"/>
<polygon fill="black" stroke="black" points="1898.1,-417.5 1908.1,-414 1898.1,-410.5 1898.1,-417.5"/>
</g>
<!-- x2&#45;&gt;n7 -->
<g id="edge54" class="edge">
<title>x2:e&#45;&gt;n7:w</title>
<path fill="none" stroke="black" d="M700.76,-348C773.83,-348 794.66,-348 862.84,-348"/>
<polygon fill="black" stroke="black" points="863.25,-351.5 873.25,-348 863.25,-344.5 863.25,-351.5"/>
</g>
<!-- x3&#45;&gt;n14 -->
<g id="edge9" class="edge">
<title>x3:e&#45;&gt;n14:w</title>
<path fill="none" stroke="black" d="M700.76,-146C754.3,-146 770.19,-146 819.02,-146"/>
<polygon fill="black" stroke="black" points="819.25,-149.5 829.25,-146 819.25,-142.5 819.25,-149.5"/>
</g>
<!-- x4&#45;&gt;n16 -->
<g id="edge17" class="edge">
<title>x4:e&#45;&gt;n16:w</title>
<path fill="none" stroke="black" d="M1235.74,-203C1303.16,-203 1322.49,-203 1385.22,-203"/>
<polygon fill="black" stroke="black" points="1385.23,-206.5 1395.23,-203 1385.23,-199.5 1385.23,-206.5"/>
</g>
<!-- x5&#45;&gt;n13 -->
<g id="edge8" class="edge">
<title>x5:e&#45;&gt;n13:w</title>
<path fill="none" stroke="black" d="M208,-149C266.86,-149 284.07,-149 338.21,-149"/>
<polygon fill="black" stroke="black" points="338.38,-152.5 348.38,-149 338.38,-145.5 338.38,-152.5"/>
</g>
<!-- x6&#45;&gt;n11 -->
<g id="edge3" class="edge">
<title>x6:e&#45;&gt;n11:w</title>
<path fill="none" stroke="black" d="M208,-331C267.28,-331 284.61,-331 339.14,-331"/>
<polygon fill="black" stroke="black" points="339.38,-334.5 349.38,-331 339.38,-327.5 339.38,-334.5"/>
</g>
<!-- x7&#45;&gt;n19 -->
<g id="edge21" class="edge">
<title>x7:e&#45;&gt;n19:w</title>
<path fill="none" stroke="black" d="M700.76,-468C769.45,-468 789.14,-468 853.05,-468"/>
<polygon fill="black" stroke="black" points="853.25,-471.5 863.25,-468 853.25,-464.5 853.25,-471.5"/>
</g>
<!-- x8&#45;&gt;n18 -->
<g id="edge20" class="edge">
<title>x8:e&#45;&gt;n18:w</title>
<path fill="none" stroke="black" d="M208,-277C266.02,-277 282.99,-277 336.36,-277"/>
<polygon fill="black" stroke="black" points="336.38,-280.5 346.38,-277 336.38,-273.5 336.38,-280.5"/>
</g>
<!-- x9&#45;&gt;n25 -->
<g id="edge32" class="edge">
<title>x9:e&#45;&gt;n25:w</title>
<path fill="none" stroke="black" d="M2245.98,-471C2283.4,-471 2295.27,-471 2328.1,-471"/>
<polygon fill="black" stroke="black" points="2328.48,-474.5 2338.48,-471 2328.48,-467.5 2328.48,-474.5"/>
</g>
<!-- x10&#45;&gt;n24 -->
<g id="edge31" class="edge">
<title>x10:e&#45;&gt;n24:w</title>
<path fill="none" stroke="black" d="M1764.72,-360C1815.61,-360 1830.79,-360 1877.07,-360"/>
<polygon fill="black" stroke="black" points="1877.1,-363.5 1887.1,-360 1877.1,-356.5 1877.1,-363.5"/>
</g>
<!-- x11&#45;&gt;n27 -->
<g id="edge34" class="edge">
<title>x11:e&#45;&gt;n27:w</title>
<path fill="none" stroke="black" d="M1764.72,-214C1811.83,-214 1826.09,-214 1868.57,-214"/>
<polygon fill="black" stroke="black" points="1868.72,-217.5 1878.72,-214 1868.72,-210.5 1868.72,-217.5"/>
</g>
<!-- x12&#45;&gt;n26 -->
<g id="edge33" class="edge">
<title>x12:e&#45;&gt;n26:w</title>
<path fill="none" stroke="black" d="M1235.74,-149C1293.81,-149 1310.79,-149 1364.2,-149"/>
<polygon fill="black" stroke="black" points="1364.23,-152.5 1374.23,-149 1364.23,-145.5 1364.23,-152.5"/>
</g>
<!-- x13&#45;&gt;n21 -->
<g id="edge24" class="edge">
<title>x13:e&#45;&gt;n21:w</title>
<path fill="none" stroke="black" d="M1235.74,-95C1313.36,-95 1335.27,-95 1408.1,-95"/>
<polygon fill="black" stroke="black" points="1408.23,-98.5 1418.23,-95 1408.23,-91.5 1408.23,-98.5"/>
</g>
<!-- x14&#45;&gt;n20 -->
<g id="edge23" class="edge">
<title>x14:e&#45;&gt;n20:w</title>
<path fill="none" stroke="black" d="M1764.72,-306C1835.63,-306 1855.84,-306 1922,-306"/>
<polygon fill="black" stroke="black" points="1922.1,-309.5 1932.1,-306 1922.1,-302.5 1922.1,-309.5"/>
</g>
<!-- x15&#45;&gt;n1 -->
<g id="edge1" class="edge">
<title>x15:e&#45;&gt;n1:w</title>
<path fill="none" stroke="black" d="M700.76,-522C776.52,-522 798.02,-522 868.91,-522"/>
<polygon fill="black" stroke="black" points="869.25,-525.5 879.25,-522 869.25,-518.5 869.25,-525.5"/>
</g>
<!-- x16&#45;&gt;n2 -->
<g id="edge22" class="edge">
<title>x16:e&#45;&gt;n2:w</title>
<path fill="none" stroke="black" d="M1764.72,-534C1845.86,-534 1868.65,-534 1945,-534"/>
<polygon fill="black" stroke="black" points="1945.1,-537.5 1955.1,-534 1945.1,-530.5 1945.1,-537.5"/>
</g>
<!-- x17&#45;&gt;n3 -->
<g id="edge38" class="edge">
<title>x17:e&#45;&gt;n3:w</title>
<path fill="none" stroke="black" d="M1235.74,-41C1324.02,-41 1348.61,-41 1432.04,-41"/>
<polygon fill="black" stroke="black" points="1432.23,-44.5 1442.23,-41 1432.23,-37.5 1432.23,-44.5"/>
</g>
<!-- x18&#45;&gt;n29 -->
<g id="edge37" class="edge">
<title>x18:e&#45;&gt;n29:w</title>
<path fill="none" stroke="black" d="M2647.24,-342C2659.24,-342 2664.49,-342 2673.12,-342"/>
<polygon fill="black" stroke="black" points="2673.24,-345.5 2683.24,-342 2673.24,-338.5 2673.24,-345.5"/>
</g>
</g>
</svg>
