<?xml version="1.0" encoding="UTF-8" standalone="no"?>
<!DOCTYPE svg PUBLIC "-//W3C//DTD SVG 1.1//EN"
 "http://www.w3.org/Graphics/SVG/1.1/DTD/svg11.dtd">
<!-- Generated by graphviz version 2.43.0 (0)
 -->
<!-- Title: Mux16 Pages: 1 -->
<svg width="661pt" height="1828pt"
 viewBox="0.00 0.00 661.28 1828.00" xmlns="http://www.w3.org/2000/svg" xmlns:xlink="http://www.w3.org/1999/xlink">
<g id="graph0" class="graph" transform="scale(1 1) rotate(0) translate(4 1824)">
<title>Mux16</title>
<polygon fill="white" stroke="transparent" points="-4,4 -4,-1824 657.28,-1824 657.28,4 -4,4"/>
<text text-anchor="middle" x="326.64" y="-7.8" font-family="Times,serif" font-size="14.00">Mux16</text>
<!-- n1 -->
<g id="node1" class="node">
<title>n1</title>
<polygon fill="none" stroke="black" points="54,-955.04 54,-969.96 38.18,-980.5 15.82,-980.5 0,-969.96 0,-955.04 15.82,-944.5 38.18,-944.5 54,-955.04"/>
<text text-anchor="middle" x="27" y="-958.8" font-family="Times,serif" font-size="14.00">a</text>
</g>
<!-- x0 -->
<g id="node6" class="node">
<title>x0</title>
<path fill="none" stroke="black" d="M106.5,-1783.5C106.5,-1783.5 198.5,-1783.5 198.5,-1783.5 204.5,-1783.5 210.5,-1789.5 210.5,-1795.5 210.5,-1795.5 210.5,-1807.5 210.5,-1807.5 210.5,-1813.5 204.5,-1819.5 198.5,-1819.5 198.5,-1819.5 106.5,-1819.5 106.5,-1819.5 100.5,-1819.5 94.5,-1813.5 94.5,-1807.5 94.5,-1807.5 94.5,-1795.5 94.5,-1795.5 94.5,-1789.5 100.5,-1783.5 106.5,-1783.5"/>
<text text-anchor="middle" x="152.5" y="-1797.8" font-family="Times,serif" font-size="14.00">slice [0] to [0]</text>
</g>
<!-- n1&#45;&gt;x0 -->
<g id="edge49" class="edge">
<title>n1:e&#45;&gt;x0:w</title>
<path fill="none" stroke="black" d="M54,-962.5C143.86,-962.5 10.76,-1740.39 84.08,-1798.12"/>
<polygon fill="black" stroke="black" points="82.91,-1801.42 93.5,-1801.5 85.27,-1794.83 82.91,-1801.42"/>
</g>
<!-- x3 -->
<g id="node10" class="node">
<title>x3</title>
<path fill="none" stroke="black" d="M106.5,-1728.5C106.5,-1728.5 198.5,-1728.5 198.5,-1728.5 204.5,-1728.5 210.5,-1734.5 210.5,-1740.5 210.5,-1740.5 210.5,-1752.5 210.5,-1752.5 210.5,-1758.5 204.5,-1764.5 198.5,-1764.5 198.5,-1764.5 106.5,-1764.5 106.5,-1764.5 100.5,-1764.5 94.5,-1758.5 94.5,-1752.5 94.5,-1752.5 94.5,-1740.5 94.5,-1740.5 94.5,-1734.5 100.5,-1728.5 106.5,-1728.5"/>
<text text-anchor="middle" x="152.5" y="-1742.8" font-family="Times,serif" font-size="14.00">slice [1] to [0]</text>
</g>
<!-- n1&#45;&gt;x3 -->
<g id="edge60" class="edge">
<title>n1:e&#45;&gt;x3:w</title>
<path fill="none" stroke="black" d="M54,-962.5C137.64,-962.5 16.97,-1683.51 83.86,-1742.65"/>
<polygon fill="black" stroke="black" points="82.92,-1746.04 93.5,-1746.5 85.51,-1739.54 82.92,-1746.04"/>
</g>
<!-- x6 -->
<g id="node14" class="node">
<title>x6</title>
<path fill="none" stroke="black" d="M102,-1618.5C102,-1618.5 203,-1618.5 203,-1618.5 209,-1618.5 215,-1624.5 215,-1630.5 215,-1630.5 215,-1642.5 215,-1642.5 215,-1648.5 209,-1654.5 203,-1654.5 203,-1654.5 102,-1654.5 102,-1654.5 96,-1654.5 90,-1648.5 90,-1642.5 90,-1642.5 90,-1630.5 90,-1630.5 90,-1624.5 96,-1618.5 102,-1618.5"/>
<text text-anchor="middle" x="152.5" y="-1632.8" font-family="Times,serif" font-size="14.00">slice [10] to [0]</text>
</g>
<!-- n1&#45;&gt;x6 -->
<g id="edge63" class="edge">
<title>n1:e&#45;&gt;x6:w</title>
<path fill="none" stroke="black" d="M54,-962.5C125.48,-962.5 25.28,-1574.79 80.66,-1632.2"/>
<polygon fill="black" stroke="black" points="79.45,-1635.49 90,-1636.5 82.38,-1629.14 79.45,-1635.49"/>
</g>
<!-- x9 -->
<g id="node18" class="node">
<title>x9</title>
<path fill="none" stroke="black" d="M102,-1508.5C102,-1508.5 203,-1508.5 203,-1508.5 209,-1508.5 215,-1514.5 215,-1520.5 215,-1520.5 215,-1532.5 215,-1532.5 215,-1538.5 209,-1544.5 203,-1544.5 203,-1544.5 102,-1544.5 102,-1544.5 96,-1544.5 90,-1538.5 90,-1532.5 90,-1532.5 90,-1520.5 90,-1520.5 90,-1514.5 96,-1508.5 102,-1508.5"/>
<text text-anchor="middle" x="152.5" y="-1522.8" font-family="Times,serif" font-size="14.00">slice [11] to [0]</text>
</g>
<!-- n1&#45;&gt;x9 -->
<g id="edge64" class="edge">
<title>n1:e&#45;&gt;x9:w</title>
<path fill="none" stroke="black" d="M54,-962.5C113.36,-962.5 36.55,-1466.5 81.02,-1521.62"/>
<polygon fill="black" stroke="black" points="79.54,-1524.81 90,-1526.5 82.88,-1518.65 79.54,-1524.81"/>
</g>
<!-- x12 -->
<g id="node22" class="node">
<title>x12</title>
<path fill="none" stroke="black" d="M102,-1398.5C102,-1398.5 203,-1398.5 203,-1398.5 209,-1398.5 215,-1404.5 215,-1410.5 215,-1410.5 215,-1422.5 215,-1422.5 215,-1428.5 209,-1434.5 203,-1434.5 203,-1434.5 102,-1434.5 102,-1434.5 96,-1434.5 90,-1428.5 90,-1422.5 90,-1422.5 90,-1410.5 90,-1410.5 90,-1404.5 96,-1398.5 102,-1398.5"/>
<text text-anchor="middle" x="152.5" y="-1412.8" font-family="Times,serif" font-size="14.00">slice [12] to [0]</text>
</g>
<!-- n1&#45;&gt;x12 -->
<g id="edge50" class="edge">
<title>n1:e&#45;&gt;x12:w</title>
<path fill="none" stroke="black" d="M54,-962.5C151.45,-962.5 0.78,-1383.43 79.81,-1414.67"/>
<polygon fill="black" stroke="black" points="79.54,-1418.18 90,-1416.5 80.78,-1411.29 79.54,-1418.18"/>
</g>
<!-- x15 -->
<g id="node26" class="node">
<title>x15</title>
<path fill="none" stroke="black" d="M102,-1288.5C102,-1288.5 203,-1288.5 203,-1288.5 209,-1288.5 215,-1294.5 215,-1300.5 215,-1300.5 215,-1312.5 215,-1312.5 215,-1318.5 209,-1324.5 203,-1324.5 203,-1324.5 102,-1324.5 102,-1324.5 96,-1324.5 90,-1318.5 90,-1312.5 90,-1312.5 90,-1300.5 90,-1300.5 90,-1294.5 96,-1288.5 102,-1288.5"/>
<text text-anchor="middle" x="152.5" y="-1302.8" font-family="Times,serif" font-size="14.00">slice [13] to [0]</text>
</g>
<!-- n1&#45;&gt;x15 -->
<g id="edge51" class="edge">
<title>n1:e&#45;&gt;x15:w</title>
<path fill="none" stroke="black" d="M54,-962.5C127.11,-962.5 24.17,-1273.73 80.09,-1304.12"/>
<polygon fill="black" stroke="black" points="79.46,-1307.57 90,-1306.5 81.09,-1300.76 79.46,-1307.57"/>
</g>
<!-- x18 -->
<g id="node30" class="node">
<title>x18</title>
<path fill="none" stroke="black" d="M102,-1178.5C102,-1178.5 203,-1178.5 203,-1178.5 209,-1178.5 215,-1184.5 215,-1190.5 215,-1190.5 215,-1202.5 215,-1202.5 215,-1208.5 209,-1214.5 203,-1214.5 203,-1214.5 102,-1214.5 102,-1214.5 96,-1214.5 90,-1208.5 90,-1202.5 90,-1202.5 90,-1190.5 90,-1190.5 90,-1184.5 96,-1178.5 102,-1178.5"/>
<text text-anchor="middle" x="152.5" y="-1192.8" font-family="Times,serif" font-size="14.00">slice [14] to [0]</text>
</g>
<!-- n1&#45;&gt;x18 -->
<g id="edge52" class="edge">
<title>n1:e&#45;&gt;x18:w</title>
<path fill="none" stroke="black" d="M54,-962.5C155.52,-962.5 -3.3,-1180.34 79.91,-1195.65"/>
<polygon fill="black" stroke="black" points="79.74,-1199.15 90,-1196.5 80.33,-1192.17 79.74,-1199.15"/>
</g>
<!-- x21 -->
<g id="node34" class="node">
<title>x21</title>
<path fill="none" stroke="black" d="M102,-1068.5C102,-1068.5 203,-1068.5 203,-1068.5 209,-1068.5 215,-1074.5 215,-1080.5 215,-1080.5 215,-1092.5 215,-1092.5 215,-1098.5 209,-1104.5 203,-1104.5 203,-1104.5 102,-1104.5 102,-1104.5 96,-1104.5 90,-1098.5 90,-1092.5 90,-1092.5 90,-1080.5 90,-1080.5 90,-1074.5 96,-1068.5 102,-1068.5"/>
<text text-anchor="middle" x="152.5" y="-1082.8" font-family="Times,serif" font-size="14.00">slice [15] to [0]</text>
</g>
<!-- n1&#45;&gt;x21 -->
<g id="edge53" class="edge">
<title>n1:e&#45;&gt;x21:w</title>
<path fill="none" stroke="black" d="M54,-962.5C107.35,-962.5 43.02,-1069.68 79.82,-1084.75"/>
<polygon fill="black" stroke="black" points="79.55,-1088.25 90,-1086.5 80.74,-1081.35 79.55,-1088.25"/>
</g>
<!-- x24 -->
<g id="node38" class="node">
<title>x24</title>
<path fill="none" stroke="black" d="M106.5,-793.5C106.5,-793.5 198.5,-793.5 198.5,-793.5 204.5,-793.5 210.5,-799.5 210.5,-805.5 210.5,-805.5 210.5,-817.5 210.5,-817.5 210.5,-823.5 204.5,-829.5 198.5,-829.5 198.5,-829.5 106.5,-829.5 106.5,-829.5 100.5,-829.5 94.5,-823.5 94.5,-817.5 94.5,-817.5 94.5,-805.5 94.5,-805.5 94.5,-799.5 100.5,-793.5 106.5,-793.5"/>
<text text-anchor="middle" x="152.5" y="-807.8" font-family="Times,serif" font-size="14.00">slice [2] to [0]</text>
</g>
<!-- n1&#45;&gt;x24 -->
<g id="edge54" class="edge">
<title>n1:e&#45;&gt;x24:w</title>
<path fill="none" stroke="black" d="M54,-962.5C119.58,-962.5 34.48,-827.56 83.58,-812.81"/>
<polygon fill="black" stroke="black" points="84.04,-816.27 93.5,-811.5 83.13,-809.33 84.04,-816.27"/>
</g>
<!-- x27 -->
<g id="node42" class="node">
<title>x27</title>
<path fill="none" stroke="black" d="M106.5,-683.5C106.5,-683.5 198.5,-683.5 198.5,-683.5 204.5,-683.5 210.5,-689.5 210.5,-695.5 210.5,-695.5 210.5,-707.5 210.5,-707.5 210.5,-713.5 204.5,-719.5 198.5,-719.5 198.5,-719.5 106.5,-719.5 106.5,-719.5 100.5,-719.5 94.5,-713.5 94.5,-707.5 94.5,-707.5 94.5,-695.5 94.5,-695.5 94.5,-689.5 100.5,-683.5 106.5,-683.5"/>
<text text-anchor="middle" x="152.5" y="-697.8" font-family="Times,serif" font-size="14.00">slice [3] to [0]</text>
</g>
<!-- n1&#45;&gt;x27 -->
<g id="edge55" class="edge">
<title>n1:e&#45;&gt;x27:w</title>
<path fill="none" stroke="black" d="M54,-962.5C108.77,-962.5 44.57,-735.01 83.54,-704.8"/>
<polygon fill="black" stroke="black" points="85.11,-707.97 93.5,-701.5 82.91,-701.32 85.11,-707.97"/>
</g>
<!-- x30 -->
<g id="node46" class="node">
<title>x30</title>
<path fill="none" stroke="black" d="M106.5,-573.5C106.5,-573.5 198.5,-573.5 198.5,-573.5 204.5,-573.5 210.5,-579.5 210.5,-585.5 210.5,-585.5 210.5,-597.5 210.5,-597.5 210.5,-603.5 204.5,-609.5 198.5,-609.5 198.5,-609.5 106.5,-609.5 106.5,-609.5 100.5,-609.5 94.5,-603.5 94.5,-597.5 94.5,-597.5 94.5,-585.5 94.5,-585.5 94.5,-579.5 100.5,-573.5 106.5,-573.5"/>
<text text-anchor="middle" x="152.5" y="-587.8" font-family="Times,serif" font-size="14.00">slice [4] to [0]</text>
</g>
<!-- n1&#45;&gt;x30 -->
<g id="edge56" class="edge">
<title>n1:e&#45;&gt;x30:w</title>
<path fill="none" stroke="black" d="M54,-962.5C133.19,-962.5 21.52,-624.08 83.56,-593.68"/>
<polygon fill="black" stroke="black" points="84.48,-597.06 93.5,-591.5 82.98,-590.22 84.48,-597.06"/>
</g>
<!-- x33 -->
<g id="node50" class="node">
<title>x33</title>
<path fill="none" stroke="black" d="M106.5,-243.5C106.5,-243.5 198.5,-243.5 198.5,-243.5 204.5,-243.5 210.5,-249.5 210.5,-255.5 210.5,-255.5 210.5,-267.5 210.5,-267.5 210.5,-273.5 204.5,-279.5 198.5,-279.5 198.5,-279.5 106.5,-279.5 106.5,-279.5 100.5,-279.5 94.5,-273.5 94.5,-267.5 94.5,-267.5 94.5,-255.5 94.5,-255.5 94.5,-249.5 100.5,-243.5 106.5,-243.5"/>
<text text-anchor="middle" x="152.5" y="-257.8" font-family="Times,serif" font-size="14.00">slice [5] to [0]</text>
</g>
<!-- n1&#45;&gt;x33 -->
<g id="edge57" class="edge">
<title>n1:e&#45;&gt;x33:w</title>
<path fill="none" stroke="black" d="M54,-962.5C128.51,-962.5 25.56,-323.07 84.13,-265.62"/>
<polygon fill="black" stroke="black" points="85.75,-268.73 93.5,-261.5 82.94,-262.32 85.75,-268.73"/>
</g>
<!-- x36 -->
<g id="node54" class="node">
<title>x36</title>
<path fill="none" stroke="black" d="M106.5,-133.5C106.5,-133.5 198.5,-133.5 198.5,-133.5 204.5,-133.5 210.5,-139.5 210.5,-145.5 210.5,-145.5 210.5,-157.5 210.5,-157.5 210.5,-163.5 204.5,-169.5 198.5,-169.5 198.5,-169.5 106.5,-169.5 106.5,-169.5 100.5,-169.5 94.5,-163.5 94.5,-157.5 94.5,-157.5 94.5,-145.5 94.5,-145.5 94.5,-139.5 100.5,-133.5 106.5,-133.5"/>
<text text-anchor="middle" x="152.5" y="-147.8" font-family="Times,serif" font-size="14.00">slice [6] to [0]</text>
</g>
<!-- n1&#45;&gt;x36 -->
<g id="edge58" class="edge">
<title>n1:e&#45;&gt;x36:w</title>
<path fill="none" stroke="black" d="M54,-962.5C140.69,-962.5 13.94,-213.62 83.96,-155.12"/>
<polygon fill="black" stroke="black" points="85.39,-158.32 93.5,-151.5 82.91,-151.77 85.39,-158.32"/>
</g>
<!-- x39 -->
<g id="node58" class="node">
<title>x39</title>
<path fill="none" stroke="black" d="M106.5,-463.5C106.5,-463.5 198.5,-463.5 198.5,-463.5 204.5,-463.5 210.5,-469.5 210.5,-475.5 210.5,-475.5 210.5,-487.5 210.5,-487.5 210.5,-493.5 204.5,-499.5 198.5,-499.5 198.5,-499.5 106.5,-499.5 106.5,-499.5 100.5,-499.5 94.5,-493.5 94.5,-487.5 94.5,-487.5 94.5,-475.5 94.5,-475.5 94.5,-469.5 100.5,-463.5 106.5,-463.5"/>
<text text-anchor="middle" x="152.5" y="-477.8" font-family="Times,serif" font-size="14.00">slice [7] to [0]</text>
</g>
<!-- n1&#45;&gt;x39 -->
<g id="edge59" class="edge">
<title>n1:e&#45;&gt;x39:w</title>
<path fill="none" stroke="black" d="M54,-962.5C104.27,-962.5 47.87,-539.75 84.81,-486.9"/>
<polygon fill="black" stroke="black" points="86.85,-489.75 93.5,-481.5 83.16,-483.81 86.85,-489.75"/>
</g>
<!-- x42 -->
<g id="node62" class="node">
<title>x42</title>
<path fill="none" stroke="black" d="M106.5,-353.5C106.5,-353.5 198.5,-353.5 198.5,-353.5 204.5,-353.5 210.5,-359.5 210.5,-365.5 210.5,-365.5 210.5,-377.5 210.5,-377.5 210.5,-383.5 204.5,-389.5 198.5,-389.5 198.5,-389.5 106.5,-389.5 106.5,-389.5 100.5,-389.5 94.5,-383.5 94.5,-377.5 94.5,-377.5 94.5,-365.5 94.5,-365.5 94.5,-359.5 100.5,-353.5 106.5,-353.5"/>
<text text-anchor="middle" x="152.5" y="-367.8" font-family="Times,serif" font-size="14.00">slice [8] to [0]</text>
</g>
<!-- n1&#45;&gt;x42 -->
<g id="edge61" class="edge">
<title>n1:e&#45;&gt;x42:w</title>
<path fill="none" stroke="black" d="M54,-962.5C116.34,-962.5 36.96,-432.19 84.36,-376.26"/>
<polygon fill="black" stroke="black" points="86.25,-379.22 93.5,-371.5 83.01,-373.01 86.25,-379.22"/>
</g>
<!-- x45 -->
<g id="node66" class="node">
<title>x45</title>
<path fill="none" stroke="black" d="M106.5,-848.5C106.5,-848.5 198.5,-848.5 198.5,-848.5 204.5,-848.5 210.5,-854.5 210.5,-860.5 210.5,-860.5 210.5,-872.5 210.5,-872.5 210.5,-878.5 204.5,-884.5 198.5,-884.5 198.5,-884.5 106.5,-884.5 106.5,-884.5 100.5,-884.5 94.5,-878.5 94.5,-872.5 94.5,-872.5 94.5,-860.5 94.5,-860.5 94.5,-854.5 100.5,-848.5 106.5,-848.5"/>
<text text-anchor="middle" x="152.5" y="-862.8" font-family="Times,serif" font-size="14.00">slice [9] to [0]</text>
</g>
<!-- n1&#45;&gt;x45 -->
<g id="edge62" class="edge">
<title>n1:e&#45;&gt;x45:w</title>
<path fill="none" stroke="black" d="M54,-962.5C96.17,-962.5 55.7,-882.29 83.67,-868.51"/>
<polygon fill="black" stroke="black" points="84.4,-871.93 93.5,-866.5 83,-865.07 84.4,-871.93"/>
</g>
<!-- n2 -->
<g id="node2" class="node">
<title>n2</title>
<polygon fill="none" stroke="black" points="54,-873.04 54,-887.96 38.18,-898.5 15.82,-898.5 0,-887.96 0,-873.04 15.82,-862.5 38.18,-862.5 54,-873.04"/>
<text text-anchor="middle" x="27" y="-876.8" font-family="Times,serif" font-size="14.00">b</text>
</g>
<!-- x1 -->
<g id="node7" class="node">
<title>x1</title>
<path fill="none" stroke="black" d="M106.5,-1673.5C106.5,-1673.5 198.5,-1673.5 198.5,-1673.5 204.5,-1673.5 210.5,-1679.5 210.5,-1685.5 210.5,-1685.5 210.5,-1697.5 210.5,-1697.5 210.5,-1703.5 204.5,-1709.5 198.5,-1709.5 198.5,-1709.5 106.5,-1709.5 106.5,-1709.5 100.5,-1709.5 94.5,-1703.5 94.5,-1697.5 94.5,-1697.5 94.5,-1685.5 94.5,-1685.5 94.5,-1679.5 100.5,-1673.5 106.5,-1673.5"/>
<text text-anchor="middle" x="152.5" y="-1687.8" font-family="Times,serif" font-size="14.00">slice [0] to [0]</text>
</g>
<!-- n2&#45;&gt;x1 -->
<g id="edge69" class="edge">
<title>n2:e&#45;&gt;x1:w</title>
<path fill="none" stroke="black" d="M54,-880.5C140.69,-880.5 13.94,-1629.38 83.96,-1687.88"/>
<polygon fill="black" stroke="black" points="82.91,-1691.23 93.5,-1691.5 85.39,-1684.68 82.91,-1691.23"/>
</g>
<!-- x4 -->
<g id="node11" class="node">
<title>x4</title>
<path fill="none" stroke="black" d="M106.5,-1563.5C106.5,-1563.5 198.5,-1563.5 198.5,-1563.5 204.5,-1563.5 210.5,-1569.5 210.5,-1575.5 210.5,-1575.5 210.5,-1587.5 210.5,-1587.5 210.5,-1593.5 204.5,-1599.5 198.5,-1599.5 198.5,-1599.5 106.5,-1599.5 106.5,-1599.5 100.5,-1599.5 94.5,-1593.5 94.5,-1587.5 94.5,-1587.5 94.5,-1575.5 94.5,-1575.5 94.5,-1569.5 100.5,-1563.5 106.5,-1563.5"/>
<text text-anchor="middle" x="152.5" y="-1577.8" font-family="Times,serif" font-size="14.00">slice [1] to [0]</text>
</g>
<!-- n2&#45;&gt;x4 -->
<g id="edge79" class="edge">
<title>n2:e&#45;&gt;x4:w</title>
<path fill="none" stroke="black" d="M54,-880.5C128.51,-880.5 25.56,-1519.93 84.13,-1577.38"/>
<polygon fill="black" stroke="black" points="82.94,-1580.68 93.5,-1581.5 85.75,-1574.27 82.94,-1580.68"/>
</g>
<!-- x7 -->
<g id="node15" class="node">
<title>x7</title>
<path fill="none" stroke="black" d="M102,-1453.5C102,-1453.5 203,-1453.5 203,-1453.5 209,-1453.5 215,-1459.5 215,-1465.5 215,-1465.5 215,-1477.5 215,-1477.5 215,-1483.5 209,-1489.5 203,-1489.5 203,-1489.5 102,-1489.5 102,-1489.5 96,-1489.5 90,-1483.5 90,-1477.5 90,-1477.5 90,-1465.5 90,-1465.5 90,-1459.5 96,-1453.5 102,-1453.5"/>
<text text-anchor="middle" x="152.5" y="-1467.8" font-family="Times,serif" font-size="14.00">slice [10] to [0]</text>
</g>
<!-- n2&#45;&gt;x7 -->
<g id="edge80" class="edge">
<title>n2:e&#45;&gt;x7:w</title>
<path fill="none" stroke="black" d="M54,-880.5C116.32,-880.5 33.84,-1410.81 80.89,-1466.74"/>
<polygon fill="black" stroke="black" points="79.52,-1469.97 90,-1471.5 82.76,-1463.77 79.52,-1469.97"/>
</g>
<!-- x10 -->
<g id="node19" class="node">
<title>x10</title>
<path fill="none" stroke="black" d="M102,-1343.5C102,-1343.5 203,-1343.5 203,-1343.5 209,-1343.5 215,-1349.5 215,-1355.5 215,-1355.5 215,-1367.5 215,-1367.5 215,-1373.5 209,-1379.5 203,-1379.5 203,-1379.5 102,-1379.5 102,-1379.5 96,-1379.5 90,-1373.5 90,-1367.5 90,-1367.5 90,-1355.5 90,-1355.5 90,-1349.5 96,-1343.5 102,-1343.5"/>
<text text-anchor="middle" x="152.5" y="-1357.8" font-family="Times,serif" font-size="14.00">slice [11] to [0]</text>
</g>
<!-- n2&#45;&gt;x10 -->
<g id="edge65" class="edge">
<title>n2:e&#45;&gt;x10:w</title>
<path fill="none" stroke="black" d="M54,-880.5C157.52,-880.5 -5.33,-1329.18 79.99,-1359.85"/>
<polygon fill="black" stroke="black" points="79.56,-1363.33 90,-1361.5 80.7,-1356.42 79.56,-1363.33"/>
</g>
<!-- x13 -->
<g id="node23" class="node">
<title>x13</title>
<path fill="none" stroke="black" d="M102,-1233.5C102,-1233.5 203,-1233.5 203,-1233.5 209,-1233.5 215,-1239.5 215,-1245.5 215,-1245.5 215,-1257.5 215,-1257.5 215,-1263.5 209,-1269.5 203,-1269.5 203,-1269.5 102,-1269.5 102,-1269.5 96,-1269.5 90,-1263.5 90,-1257.5 90,-1257.5 90,-1245.5 90,-1245.5 90,-1239.5 96,-1233.5 102,-1233.5"/>
<text text-anchor="middle" x="152.5" y="-1247.8" font-family="Times,serif" font-size="14.00">slice [12] to [0]</text>
</g>
<!-- n2&#45;&gt;x13 -->
<g id="edge66" class="edge">
<title>n2:e&#45;&gt;x13:w</title>
<path fill="none" stroke="black" d="M54,-880.5C133.11,-880.5 18.39,-1218.92 80.09,-1249.32"/>
<polygon fill="black" stroke="black" points="79.48,-1252.77 90,-1251.5 80.98,-1245.94 79.48,-1252.77"/>
</g>
<!-- x16 -->
<g id="node27" class="node">
<title>x16</title>
<path fill="none" stroke="black" d="M102,-1123.5C102,-1123.5 203,-1123.5 203,-1123.5 209,-1123.5 215,-1129.5 215,-1135.5 215,-1135.5 215,-1147.5 215,-1147.5 215,-1153.5 209,-1159.5 203,-1159.5 203,-1159.5 102,-1159.5 102,-1159.5 96,-1159.5 90,-1153.5 90,-1147.5 90,-1147.5 90,-1135.5 90,-1135.5 90,-1129.5 96,-1123.5 102,-1123.5"/>
<text text-anchor="middle" x="152.5" y="-1137.8" font-family="Times,serif" font-size="14.00">slice [13] to [0]</text>
</g>
<!-- n2&#45;&gt;x16 -->
<g id="edge67" class="edge">
<title>n2:e&#45;&gt;x16:w</title>
<path fill="none" stroke="black" d="M54,-880.5C108.66,-880.5 41.61,-1107.99 80.1,-1138.2"/>
<polygon fill="black" stroke="black" points="79.41,-1141.66 90,-1141.5 81.62,-1135.02 79.41,-1141.66"/>
</g>
<!-- x19 -->
<g id="node31" class="node">
<title>x19</title>
<path fill="none" stroke="black" d="M102,-1013.5C102,-1013.5 203,-1013.5 203,-1013.5 209,-1013.5 215,-1019.5 215,-1025.5 215,-1025.5 215,-1037.5 215,-1037.5 215,-1043.5 209,-1049.5 203,-1049.5 203,-1049.5 102,-1049.5 102,-1049.5 96,-1049.5 90,-1043.5 90,-1037.5 90,-1037.5 90,-1025.5 90,-1025.5 90,-1019.5 96,-1013.5 102,-1013.5"/>
<text text-anchor="middle" x="152.5" y="-1027.8" font-family="Times,serif" font-size="14.00">slice [14] to [0]</text>
</g>
<!-- n2&#45;&gt;x19 -->
<g id="edge68" class="edge">
<title>n2:e&#45;&gt;x19:w</title>
<path fill="none" stroke="black" d="M54,-880.5C119.08,-880.5 32.01,-1014.88 79.86,-1030.1"/>
<polygon fill="black" stroke="black" points="79.62,-1033.6 90,-1031.5 80.57,-1026.67 79.62,-1033.6"/>
</g>
<!-- x22 -->
<g id="node35" class="node">
<title>x22</title>
<path fill="none" stroke="black" d="M102,-958.5C102,-958.5 203,-958.5 203,-958.5 209,-958.5 215,-964.5 215,-970.5 215,-970.5 215,-982.5 215,-982.5 215,-988.5 209,-994.5 203,-994.5 203,-994.5 102,-994.5 102,-994.5 96,-994.5 90,-988.5 90,-982.5 90,-982.5 90,-970.5 90,-970.5 90,-964.5 96,-958.5 102,-958.5"/>
<text text-anchor="middle" x="152.5" y="-972.8" font-family="Times,serif" font-size="14.00">slice [15] to [0]</text>
</g>
<!-- n2&#45;&gt;x22 -->
<g id="edge70" class="edge">
<title>n2:e&#45;&gt;x22:w</title>
<path fill="none" stroke="black" d="M54,-880.5C95.47,-880.5 53.53,-960.02 80.01,-974.31"/>
<polygon fill="black" stroke="black" points="79.48,-977.78 90,-976.5 80.98,-970.94 79.48,-977.78"/>
</g>
<!-- x25 -->
<g id="node39" class="node">
<title>x25</title>
<path fill="none" stroke="black" d="M106.5,-628.5C106.5,-628.5 198.5,-628.5 198.5,-628.5 204.5,-628.5 210.5,-634.5 210.5,-640.5 210.5,-640.5 210.5,-652.5 210.5,-652.5 210.5,-658.5 204.5,-664.5 198.5,-664.5 198.5,-664.5 106.5,-664.5 106.5,-664.5 100.5,-664.5 94.5,-658.5 94.5,-652.5 94.5,-652.5 94.5,-640.5 94.5,-640.5 94.5,-634.5 100.5,-628.5 106.5,-628.5"/>
<text text-anchor="middle" x="152.5" y="-642.8" font-family="Times,serif" font-size="14.00">slice [2] to [0]</text>
</g>
<!-- n2&#45;&gt;x25 -->
<g id="edge71" class="edge">
<title>n2:e&#45;&gt;x25:w</title>
<path fill="none" stroke="black" d="M54,-880.5C155.76,-880.5 -0.26,-662.66 83.38,-647.35"/>
<polygon fill="black" stroke="black" points="83.83,-650.82 93.5,-646.5 83.24,-643.85 83.83,-650.82"/>
</g>
<!-- x28 -->
<g id="node43" class="node">
<title>x28</title>
<path fill="none" stroke="black" d="M106.5,-518.5C106.5,-518.5 198.5,-518.5 198.5,-518.5 204.5,-518.5 210.5,-524.5 210.5,-530.5 210.5,-530.5 210.5,-542.5 210.5,-542.5 210.5,-548.5 204.5,-554.5 198.5,-554.5 198.5,-554.5 106.5,-554.5 106.5,-554.5 100.5,-554.5 94.5,-548.5 94.5,-542.5 94.5,-542.5 94.5,-530.5 94.5,-530.5 94.5,-524.5 100.5,-518.5 106.5,-518.5"/>
<text text-anchor="middle" x="152.5" y="-532.8" font-family="Times,serif" font-size="14.00">slice [3] to [0]</text>
</g>
<!-- n2&#45;&gt;x28 -->
<g id="edge72" class="edge">
<title>n2:e&#45;&gt;x28:w</title>
<path fill="none" stroke="black" d="M54,-880.5C127.19,-880.5 27.27,-569.27 83.55,-538.88"/>
<polygon fill="black" stroke="black" points="84.59,-542.23 93.5,-536.5 82.96,-535.42 84.59,-542.23"/>
</g>
<!-- x31 -->
<g id="node47" class="node">
<title>x31</title>
<path fill="none" stroke="black" d="M106.5,-408.5C106.5,-408.5 198.5,-408.5 198.5,-408.5 204.5,-408.5 210.5,-414.5 210.5,-420.5 210.5,-420.5 210.5,-432.5 210.5,-432.5 210.5,-438.5 204.5,-444.5 198.5,-444.5 198.5,-444.5 106.5,-444.5 106.5,-444.5 100.5,-444.5 94.5,-438.5 94.5,-432.5 94.5,-432.5 94.5,-420.5 94.5,-420.5 94.5,-414.5 100.5,-408.5 106.5,-408.5"/>
<text text-anchor="middle" x="152.5" y="-422.8" font-family="Times,serif" font-size="14.00">slice [4] to [0]</text>
</g>
<!-- n2&#45;&gt;x31 -->
<g id="edge73" class="edge">
<title>n2:e&#45;&gt;x31:w</title>
<path fill="none" stroke="black" d="M54,-880.5C151.51,-880.5 3.97,-459.57 83.29,-428.33"/>
<polygon fill="black" stroke="black" points="84.27,-431.71 93.5,-426.5 83.04,-424.82 84.27,-431.71"/>
</g>
<!-- x34 -->
<g id="node51" class="node">
<title>x34</title>
<path fill="none" stroke="black" d="M106.5,-78.5C106.5,-78.5 198.5,-78.5 198.5,-78.5 204.5,-78.5 210.5,-84.5 210.5,-90.5 210.5,-90.5 210.5,-102.5 210.5,-102.5 210.5,-108.5 204.5,-114.5 198.5,-114.5 198.5,-114.5 106.5,-114.5 106.5,-114.5 100.5,-114.5 94.5,-108.5 94.5,-102.5 94.5,-102.5 94.5,-90.5 94.5,-90.5 94.5,-84.5 100.5,-78.5 106.5,-78.5"/>
<text text-anchor="middle" x="152.5" y="-92.8" font-family="Times,serif" font-size="14.00">slice [5] to [0]</text>
</g>
<!-- n2&#45;&gt;x34 -->
<g id="edge74" class="edge">
<title>n2:e&#45;&gt;x34:w</title>
<path fill="none" stroke="black" d="M54,-880.5C137.64,-880.5 16.97,-159.49 83.86,-100.35"/>
<polygon fill="black" stroke="black" points="85.51,-103.46 93.5,-96.5 82.92,-96.96 85.51,-103.46"/>
</g>
<!-- x37 -->
<g id="node55" class="node">
<title>x37</title>
<path fill="none" stroke="black" d="M106.5,-23.5C106.5,-23.5 198.5,-23.5 198.5,-23.5 204.5,-23.5 210.5,-29.5 210.5,-35.5 210.5,-35.5 210.5,-47.5 210.5,-47.5 210.5,-53.5 204.5,-59.5 198.5,-59.5 198.5,-59.5 106.5,-59.5 106.5,-59.5 100.5,-59.5 94.5,-53.5 94.5,-47.5 94.5,-47.5 94.5,-35.5 94.5,-35.5 94.5,-29.5 100.5,-23.5 106.5,-23.5"/>
<text text-anchor="middle" x="152.5" y="-37.8" font-family="Times,serif" font-size="14.00">slice [6] to [0]</text>
</g>
<!-- n2&#45;&gt;x37 -->
<g id="edge75" class="edge">
<title>n2:e&#45;&gt;x37:w</title>
<path fill="none" stroke="black" d="M54,-880.5C143.86,-880.5 10.76,-102.61 84.08,-44.88"/>
<polygon fill="black" stroke="black" points="85.27,-48.17 93.5,-41.5 82.91,-41.58 85.27,-48.17"/>
</g>
<!-- x40 -->
<g id="node59" class="node">
<title>x40</title>
<path fill="none" stroke="black" d="M106.5,-298.5C106.5,-298.5 198.5,-298.5 198.5,-298.5 204.5,-298.5 210.5,-304.5 210.5,-310.5 210.5,-310.5 210.5,-322.5 210.5,-322.5 210.5,-328.5 204.5,-334.5 198.5,-334.5 198.5,-334.5 106.5,-334.5 106.5,-334.5 100.5,-334.5 94.5,-328.5 94.5,-322.5 94.5,-322.5 94.5,-310.5 94.5,-310.5 94.5,-304.5 100.5,-298.5 106.5,-298.5"/>
<text text-anchor="middle" x="152.5" y="-312.8" font-family="Times,serif" font-size="14.00">slice [7] to [0]</text>
</g>
<!-- n2&#45;&gt;x40 -->
<g id="edge76" class="edge">
<title>n2:e&#45;&gt;x40:w</title>
<path fill="none" stroke="black" d="M54,-880.5C113.38,-880.5 39.66,-376.5 84.48,-321.38"/>
<polygon fill="black" stroke="black" points="86.37,-324.33 93.5,-316.5 83.04,-318.18 86.37,-324.33"/>
</g>
<!-- x43 -->
<g id="node63" class="node">
<title>x43</title>
<path fill="none" stroke="black" d="M106.5,-188.5C106.5,-188.5 198.5,-188.5 198.5,-188.5 204.5,-188.5 210.5,-194.5 210.5,-200.5 210.5,-200.5 210.5,-212.5 210.5,-212.5 210.5,-218.5 204.5,-224.5 198.5,-224.5 198.5,-224.5 106.5,-224.5 106.5,-224.5 100.5,-224.5 94.5,-218.5 94.5,-212.5 94.5,-212.5 94.5,-200.5 94.5,-200.5 94.5,-194.5 100.5,-188.5 106.5,-188.5"/>
<text text-anchor="middle" x="152.5" y="-202.8" font-family="Times,serif" font-size="14.00">slice [8] to [0]</text>
</g>
<!-- n2&#45;&gt;x43 -->
<g id="edge77" class="edge">
<title>n2:e&#45;&gt;x43:w</title>
<path fill="none" stroke="black" d="M54,-880.5C125.5,-880.5 28.44,-268.21 84.14,-210.8"/>
<polygon fill="black" stroke="black" points="85.88,-213.86 93.5,-206.5 82.95,-207.5 85.88,-213.86"/>
</g>
<!-- x46 -->
<g id="node67" class="node">
<title>x46</title>
<path fill="none" stroke="black" d="M106.5,-738.5C106.5,-738.5 198.5,-738.5 198.5,-738.5 204.5,-738.5 210.5,-744.5 210.5,-750.5 210.5,-750.5 210.5,-762.5 210.5,-762.5 210.5,-768.5 204.5,-774.5 198.5,-774.5 198.5,-774.5 106.5,-774.5 106.5,-774.5 100.5,-774.5 94.5,-768.5 94.5,-762.5 94.5,-762.5 94.5,-750.5 94.5,-750.5 94.5,-744.5 100.5,-738.5 106.5,-738.5"/>
<text text-anchor="middle" x="152.5" y="-752.8" font-family="Times,serif" font-size="14.00">slice [9] to [0]</text>
</g>
<!-- n2&#45;&gt;x46 -->
<g id="edge78" class="edge">
<title>n2:e&#45;&gt;x46:w</title>
<path fill="none" stroke="black" d="M54,-880.5C107.77,-880.5 45.71,-773.32 83.19,-758.25"/>
<polygon fill="black" stroke="black" points="84.23,-761.63 93.5,-756.5 83.05,-754.73 84.23,-761.63"/>
</g>
<!-- n3 -->
<g id="node3" class="node">
<title>n3</title>
<polygon fill="none" stroke="black" points="653.42,-889.04 653.42,-903.96 636.85,-914.5 613.43,-914.5 596.86,-903.96 596.86,-889.04 613.43,-878.5 636.85,-878.5 653.42,-889.04"/>
<text text-anchor="middle" x="625.14" y="-892.8" font-family="Times,serif" font-size="14.00">out</text>
</g>
<!-- n4 -->
<g id="node4" class="node">
<title>n4</title>
<polygon fill="none" stroke="black" points="179.5,-914.04 179.5,-928.96 163.68,-939.5 141.32,-939.5 125.5,-928.96 125.5,-914.04 141.32,-903.5 163.68,-903.5 179.5,-914.04"/>
<text text-anchor="middle" x="152.5" y="-917.8" font-family="Times,serif" font-size="14.00">sel</text>
</g>
<!-- c5 -->
<g id="node5" class="node">
<title>c5</title>
<polygon fill="none" stroke="black" points="255.5,-1640 255.5,-1709 395.5,-1709 395.5,-1640 255.5,-1640"/>
<text text-anchor="middle" x="274" y="-1693.8" font-family="Times,serif" font-size="14.00">a</text>
<polyline fill="none" stroke="black" points="255.5,-1686 292.5,-1686 "/>
<text text-anchor="middle" x="274" y="-1670.8" font-family="Times,serif" font-size="14.00">b</text>
<polyline fill="none" stroke="black" points="255.5,-1663 292.5,-1663 "/>
<text text-anchor="middle" x="274" y="-1647.8" font-family="Times,serif" font-size="14.00">sel</text>
<polyline fill="none" stroke="black" points="292.5,-1640 292.5,-1709 "/>
<text text-anchor="middle" x="324" y="-1678.3" font-family="Times,serif" font-size="14.00">mux_0</text>
<text text-anchor="middle" x="324" y="-1663.3" font-family="Times,serif" font-size="14.00">Mux</text>
<polyline fill="none" stroke="black" points="355.5,-1640 355.5,-1709 "/>
<text text-anchor="middle" x="375.5" y="-1670.8" font-family="Times,serif" font-size="14.00">out</text>
</g>
<!-- n4&#45;&gt;c5 -->
<g id="edge108" class="edge">
<title>n4:e&#45;&gt;c5:w</title>
<path fill="none" stroke="black" d="M180.5,-921.5C310.23,-921.5 169.34,-407.62 251,-1608.5 251.93,-1622.25 243.43,-1638.45 245.69,-1646.47"/>
<polygon fill="black" stroke="black" points="244.08,-1649.58 254.5,-1651.5 247.55,-1643.5 244.08,-1649.58"/>
</g>
<!-- c6 -->
<g id="node9" class="node">
<title>c6</title>
<polygon fill="none" stroke="black" points="255.5,-1530 255.5,-1599 395.5,-1599 395.5,-1530 255.5,-1530"/>
<text text-anchor="middle" x="274" y="-1583.8" font-family="Times,serif" font-size="14.00">a</text>
<polyline fill="none" stroke="black" points="255.5,-1576 292.5,-1576 "/>
<text text-anchor="middle" x="274" y="-1560.8" font-family="Times,serif" font-size="14.00">b</text>
<polyline fill="none" stroke="black" points="255.5,-1553 292.5,-1553 "/>
<text text-anchor="middle" x="274" y="-1537.8" font-family="Times,serif" font-size="14.00">sel</text>
<polyline fill="none" stroke="black" points="292.5,-1530 292.5,-1599 "/>
<text text-anchor="middle" x="324" y="-1568.3" font-family="Times,serif" font-size="14.00">mux_1</text>
<text text-anchor="middle" x="324" y="-1553.3" font-family="Times,serif" font-size="14.00">Mux</text>
<polyline fill="none" stroke="black" points="355.5,-1530 355.5,-1599 "/>
<text text-anchor="middle" x="375.5" y="-1560.8" font-family="Times,serif" font-size="14.00">out</text>
</g>
<!-- n4&#45;&gt;c6 -->
<g id="edge109" class="edge">
<title>n4:e&#45;&gt;c6:w</title>
<path fill="none" stroke="black" d="M180.5,-921.5C291.74,-921.5 190.56,-686.99 251,-1499.5 251.99,-1512.78 243.87,-1528.41 245.83,-1536.33"/>
<polygon fill="black" stroke="black" points="244.12,-1539.38 254.5,-1541.5 247.7,-1533.37 244.12,-1539.38"/>
</g>
<!-- c7 -->
<g id="node13" class="node">
<title>c7</title>
<polygon fill="none" stroke="black" points="251,-1421 251,-1490 400,-1490 400,-1421 251,-1421"/>
<text text-anchor="middle" x="269.5" y="-1474.8" font-family="Times,serif" font-size="14.00">a</text>
<polyline fill="none" stroke="black" points="251,-1467 288,-1467 "/>
<text text-anchor="middle" x="269.5" y="-1451.8" font-family="Times,serif" font-size="14.00">b</text>
<polyline fill="none" stroke="black" points="251,-1444 288,-1444 "/>
<text text-anchor="middle" x="269.5" y="-1428.8" font-family="Times,serif" font-size="14.00">sel</text>
<polyline fill="none" stroke="black" points="288,-1421 288,-1490 "/>
<text text-anchor="middle" x="324" y="-1459.3" font-family="Times,serif" font-size="14.00">mux_10</text>
<text text-anchor="middle" x="324" y="-1444.3" font-family="Times,serif" font-size="14.00">Mux</text>
<polyline fill="none" stroke="black" points="360,-1421 360,-1490 "/>
<text text-anchor="middle" x="380" y="-1451.8" font-family="Times,serif" font-size="14.00">out</text>
</g>
<!-- n4&#45;&gt;c7 -->
<g id="edge110" class="edge">
<title>n4:e&#45;&gt;c7:w</title>
<path fill="none" stroke="black" d="M180.5,-921.5C200.25,-921.5 205.85,-932 215,-949.5 238.37,-994.21 202.26,-1379.6 242,-1427.6"/>
<polygon fill="black" stroke="black" points="240.54,-1430.79 251,-1432.5 243.89,-1424.64 240.54,-1430.79"/>
</g>
<!-- c8 -->
<g id="node17" class="node">
<title>c8</title>
<polygon fill="none" stroke="black" points="251,-1312 251,-1381 400,-1381 400,-1312 251,-1312"/>
<text text-anchor="middle" x="269.5" y="-1365.8" font-family="Times,serif" font-size="14.00">a</text>
<polyline fill="none" stroke="black" points="251,-1358 288,-1358 "/>
<text text-anchor="middle" x="269.5" y="-1342.8" font-family="Times,serif" font-size="14.00">b</text>
<polyline fill="none" stroke="black" points="251,-1335 288,-1335 "/>
<text text-anchor="middle" x="269.5" y="-1319.8" font-family="Times,serif" font-size="14.00">sel</text>
<polyline fill="none" stroke="black" points="288,-1312 288,-1381 "/>
<text text-anchor="middle" x="324" y="-1350.3" font-family="Times,serif" font-size="14.00">mux_11</text>
<text text-anchor="middle" x="324" y="-1335.3" font-family="Times,serif" font-size="14.00">Mux</text>
<polyline fill="none" stroke="black" points="360,-1312 360,-1381 "/>
<text text-anchor="middle" x="380" y="-1342.8" font-family="Times,serif" font-size="14.00">out</text>
</g>
<!-- n4&#45;&gt;c8 -->
<g id="edge111" class="edge">
<title>n4:e&#45;&gt;c8:w</title>
<path fill="none" stroke="black" d="M180.5,-921.5C200.25,-921.5 205.66,-932.1 215,-949.5 233.24,-983.48 212.87,-1273.87 242.58,-1317.91"/>
<polygon fill="black" stroke="black" points="240.73,-1320.89 251,-1323.5 244.6,-1315.05 240.73,-1320.89"/>
</g>
<!-- c9 -->
<g id="node21" class="node">
<title>c9</title>
<polygon fill="none" stroke="black" points="251,-1205 251,-1274 400,-1274 400,-1205 251,-1205"/>
<text text-anchor="middle" x="269.5" y="-1258.8" font-family="Times,serif" font-size="14.00">a</text>
<polyline fill="none" stroke="black" points="251,-1251 288,-1251 "/>
<text text-anchor="middle" x="269.5" y="-1235.8" font-family="Times,serif" font-size="14.00">b</text>
<polyline fill="none" stroke="black" points="251,-1228 288,-1228 "/>
<text text-anchor="middle" x="269.5" y="-1212.8" font-family="Times,serif" font-size="14.00">sel</text>
<polyline fill="none" stroke="black" points="288,-1205 288,-1274 "/>
<text text-anchor="middle" x="324" y="-1243.3" font-family="Times,serif" font-size="14.00">mux_12</text>
<text text-anchor="middle" x="324" y="-1228.3" font-family="Times,serif" font-size="14.00">Mux</text>
<polyline fill="none" stroke="black" points="360,-1205 360,-1274 "/>
<text text-anchor="middle" x="380" y="-1235.8" font-family="Times,serif" font-size="14.00">out</text>
</g>
<!-- n4&#45;&gt;c9 -->
<g id="edge112" class="edge">
<title>n4:e&#45;&gt;c9:w</title>
<path fill="none" stroke="black" d="M180.5,-921.5C200.25,-921.5 205.33,-932.28 215,-949.5 242.48,-998.44 197.45,-1190.29 241.05,-1214.08"/>
<polygon fill="black" stroke="black" points="240.46,-1217.53 251,-1216.5 242.11,-1210.73 240.46,-1217.53"/>
</g>
<!-- c10 -->
<g id="node25" class="node">
<title>c10</title>
<polygon fill="none" stroke="black" points="251,-1101 251,-1170 400,-1170 400,-1101 251,-1101"/>
<text text-anchor="middle" x="269.5" y="-1154.8" font-family="Times,serif" font-size="14.00">a</text>
<polyline fill="none" stroke="black" points="251,-1147 288,-1147 "/>
<text text-anchor="middle" x="269.5" y="-1131.8" font-family="Times,serif" font-size="14.00">b</text>
<polyline fill="none" stroke="black" points="251,-1124 288,-1124 "/>
<text text-anchor="middle" x="269.5" y="-1108.8" font-family="Times,serif" font-size="14.00">sel</text>
<polyline fill="none" stroke="black" points="288,-1101 288,-1170 "/>
<text text-anchor="middle" x="324" y="-1139.3" font-family="Times,serif" font-size="14.00">mux_13</text>
<text text-anchor="middle" x="324" y="-1124.3" font-family="Times,serif" font-size="14.00">Mux</text>
<polyline fill="none" stroke="black" points="360,-1101 360,-1170 "/>
<text text-anchor="middle" x="380" y="-1131.8" font-family="Times,serif" font-size="14.00">out</text>
</g>
<!-- n4&#45;&gt;c10 -->
<g id="edge97" class="edge">
<title>n4:e&#45;&gt;c10:w</title>
<path fill="none" stroke="black" d="M180.5,-921.5C200.25,-921.5 204.62,-932.7 215,-949.5 252,-1009.42 184.35,-1102.45 240.83,-1111.75"/>
<polygon fill="black" stroke="black" points="240.77,-1115.25 251,-1112.5 241.29,-1108.27 240.77,-1115.25"/>
</g>
<!-- c11 -->
<g id="node29" class="node">
<title>c11</title>
<polygon fill="none" stroke="black" points="251,-1003 251,-1072 400,-1072 400,-1003 251,-1003"/>
<text text-anchor="middle" x="269.5" y="-1056.8" font-family="Times,serif" font-size="14.00">a</text>
<polyline fill="none" stroke="black" points="251,-1049 288,-1049 "/>
<text text-anchor="middle" x="269.5" y="-1033.8" font-family="Times,serif" font-size="14.00">b</text>
<polyline fill="none" stroke="black" points="251,-1026 288,-1026 "/>
<text text-anchor="middle" x="269.5" y="-1010.8" font-family="Times,serif" font-size="14.00">sel</text>
<polyline fill="none" stroke="black" points="288,-1003 288,-1072 "/>
<text text-anchor="middle" x="324" y="-1041.3" font-family="Times,serif" font-size="14.00">mux_14</text>
<text text-anchor="middle" x="324" y="-1026.3" font-family="Times,serif" font-size="14.00">Mux</text>
<polyline fill="none" stroke="black" points="360,-1003 360,-1072 "/>
<text text-anchor="middle" x="380" y="-1033.8" font-family="Times,serif" font-size="14.00">out</text>
</g>
<!-- n4&#45;&gt;c11 -->
<g id="edge98" class="edge">
<title>n4:e&#45;&gt;c11:w</title>
<path fill="none" stroke="black" d="M180.5,-921.5C200.25,-921.5 202.32,-934.36 215,-949.5 233.64,-971.75 221.81,-1005.1 241.1,-1012.85"/>
<polygon fill="black" stroke="black" points="240.56,-1016.31 251,-1014.5 241.71,-1009.4 240.56,-1016.31"/>
</g>
<!-- c12 -->
<g id="node33" class="node">
<title>c12</title>
<polygon fill="none" stroke="black" points="251,-915 251,-984 400,-984 400,-915 251,-915"/>
<text text-anchor="middle" x="269.5" y="-968.8" font-family="Times,serif" font-size="14.00">a</text>
<polyline fill="none" stroke="black" points="251,-961 288,-961 "/>
<text text-anchor="middle" x="269.5" y="-945.8" font-family="Times,serif" font-size="14.00">b</text>
<polyline fill="none" stroke="black" points="251,-938 288,-938 "/>
<text text-anchor="middle" x="269.5" y="-922.8" font-family="Times,serif" font-size="14.00">sel</text>
<polyline fill="none" stroke="black" points="288,-915 288,-984 "/>
<text text-anchor="middle" x="324" y="-953.3" font-family="Times,serif" font-size="14.00">mux_15</text>
<text text-anchor="middle" x="324" y="-938.3" font-family="Times,serif" font-size="14.00">Mux</text>
<polyline fill="none" stroke="black" points="360,-915 360,-984 "/>
<text text-anchor="middle" x="380" y="-945.8" font-family="Times,serif" font-size="14.00">out</text>
</g>
<!-- n4&#45;&gt;c12 -->
<g id="edge99" class="edge">
<title>n4:e&#45;&gt;c12:w</title>
<path fill="none" stroke="black" d="M180.5,-921.5C208.23,-921.5 217.46,-925.4 240.86,-926.31"/>
<polygon fill="black" stroke="black" points="240.94,-929.81 251,-926.5 241.07,-922.81 240.94,-929.81"/>
</g>
<!-- c13 -->
<g id="node37" class="node">
<title>c13</title>
<polygon fill="none" stroke="black" points="255.5,-739 255.5,-808 395.5,-808 395.5,-739 255.5,-739"/>
<text text-anchor="middle" x="274" y="-792.8" font-family="Times,serif" font-size="14.00">a</text>
<polyline fill="none" stroke="black" points="255.5,-785 292.5,-785 "/>
<text text-anchor="middle" x="274" y="-769.8" font-family="Times,serif" font-size="14.00">b</text>
<polyline fill="none" stroke="black" points="255.5,-762 292.5,-762 "/>
<text text-anchor="middle" x="274" y="-746.8" font-family="Times,serif" font-size="14.00">sel</text>
<polyline fill="none" stroke="black" points="292.5,-739 292.5,-808 "/>
<text text-anchor="middle" x="324" y="-777.3" font-family="Times,serif" font-size="14.00">mux_2</text>
<text text-anchor="middle" x="324" y="-762.3" font-family="Times,serif" font-size="14.00">Mux</text>
<polyline fill="none" stroke="black" points="355.5,-739 355.5,-808 "/>
<text text-anchor="middle" x="375.5" y="-769.8" font-family="Times,serif" font-size="14.00">out</text>
</g>
<!-- n4&#45;&gt;c13 -->
<g id="edge100" class="edge">
<title>n4:e&#45;&gt;c13:w</title>
<path fill="none" stroke="black" d="M180.5,-921.5C259.59,-921.5 179.57,-765.52 244.36,-751.5"/>
<polygon fill="black" stroke="black" points="244.89,-754.97 254.5,-750.5 244.2,-748 244.89,-754.97"/>
</g>
<!-- c14 -->
<g id="node41" class="node">
<title>c14</title>
<polygon fill="none" stroke="black" points="255.5,-647 255.5,-716 395.5,-716 395.5,-647 255.5,-647"/>
<text text-anchor="middle" x="274" y="-700.8" font-family="Times,serif" font-size="14.00">a</text>
<polyline fill="none" stroke="black" points="255.5,-693 292.5,-693 "/>
<text text-anchor="middle" x="274" y="-677.8" font-family="Times,serif" font-size="14.00">b</text>
<polyline fill="none" stroke="black" points="255.5,-670 292.5,-670 "/>
<text text-anchor="middle" x="274" y="-654.8" font-family="Times,serif" font-size="14.00">sel</text>
<polyline fill="none" stroke="black" points="292.5,-647 292.5,-716 "/>
<text text-anchor="middle" x="324" y="-685.3" font-family="Times,serif" font-size="14.00">mux_3</text>
<text text-anchor="middle" x="324" y="-670.3" font-family="Times,serif" font-size="14.00">Mux</text>
<polyline fill="none" stroke="black" points="355.5,-647 355.5,-716 "/>
<text text-anchor="middle" x="375.5" y="-677.8" font-family="Times,serif" font-size="14.00">out</text>
</g>
<!-- n4&#45;&gt;c14 -->
<g id="edge101" class="edge">
<title>n4:e&#45;&gt;c14:w</title>
<path fill="none" stroke="black" d="M180.5,-921.5C200.25,-921.5 205.05,-910.56 215,-893.5 239.79,-850.97 206.86,-684.4 244.65,-661.19"/>
<polygon fill="black" stroke="black" points="245.78,-664.51 254.5,-658.5 243.93,-657.76 245.78,-664.51"/>
</g>
<!-- c15 -->
<g id="node45" class="node">
<title>c15</title>
<polygon fill="none" stroke="black" points="255.5,-556 255.5,-625 395.5,-625 395.5,-556 255.5,-556"/>
<text text-anchor="middle" x="274" y="-609.8" font-family="Times,serif" font-size="14.00">a</text>
<polyline fill="none" stroke="black" points="255.5,-602 292.5,-602 "/>
<text text-anchor="middle" x="274" y="-586.8" font-family="Times,serif" font-size="14.00">b</text>
<polyline fill="none" stroke="black" points="255.5,-579 292.5,-579 "/>
<text text-anchor="middle" x="274" y="-563.8" font-family="Times,serif" font-size="14.00">sel</text>
<polyline fill="none" stroke="black" points="292.5,-556 292.5,-625 "/>
<text text-anchor="middle" x="324" y="-594.3" font-family="Times,serif" font-size="14.00">mux_4</text>
<text text-anchor="middle" x="324" y="-579.3" font-family="Times,serif" font-size="14.00">Mux</text>
<polyline fill="none" stroke="black" points="355.5,-556 355.5,-625 "/>
<text text-anchor="middle" x="375.5" y="-586.8" font-family="Times,serif" font-size="14.00">out</text>
</g>
<!-- n4&#45;&gt;c15 -->
<g id="edge102" class="edge">
<title>n4:e&#45;&gt;c15:w</title>
<path fill="none" stroke="black" d="M180.5,-921.5C200.25,-921.5 205.45,-910.78 215,-893.5 248.5,-832.87 188.24,-593.61 244.45,-569.47"/>
<polygon fill="black" stroke="black" points="245.36,-572.86 254.5,-567.5 244.01,-565.99 245.36,-572.86"/>
</g>
<!-- c16 -->
<g id="node49" class="node">
<title>c16</title>
<polygon fill="none" stroke="black" points="255.5,-244 255.5,-313 395.5,-313 395.5,-244 255.5,-244"/>
<text text-anchor="middle" x="274" y="-297.8" font-family="Times,serif" font-size="14.00">a</text>
<polyline fill="none" stroke="black" points="255.5,-290 292.5,-290 "/>
<text text-anchor="middle" x="274" y="-274.8" font-family="Times,serif" font-size="14.00">b</text>
<polyline fill="none" stroke="black" points="255.5,-267 292.5,-267 "/>
<text text-anchor="middle" x="274" y="-251.8" font-family="Times,serif" font-size="14.00">sel</text>
<polyline fill="none" stroke="black" points="292.5,-244 292.5,-313 "/>
<text text-anchor="middle" x="324" y="-282.3" font-family="Times,serif" font-size="14.00">mux_5</text>
<text text-anchor="middle" x="324" y="-267.3" font-family="Times,serif" font-size="14.00">Mux</text>
<polyline fill="none" stroke="black" points="355.5,-244 355.5,-313 "/>
<text text-anchor="middle" x="375.5" y="-274.8" font-family="Times,serif" font-size="14.00">out</text>
</g>
<!-- n4&#45;&gt;c16 -->
<g id="edge103" class="edge">
<title>n4:e&#45;&gt;c16:w</title>
<path fill="none" stroke="black" d="M180.5,-921.5C200.25,-921.5 205.96,-911.06 215,-893.5 245.92,-833.44 189.5,-310.42 245.04,-259.49"/>
<polygon fill="black" stroke="black" points="246.64,-262.61 254.5,-255.5 243.93,-256.15 246.64,-262.61"/>
</g>
<!-- c17 -->
<g id="node53" class="node">
<title>c17</title>
<polygon fill="none" stroke="black" points="255.5,-101 255.5,-170 395.5,-170 395.5,-101 255.5,-101"/>
<text text-anchor="middle" x="274" y="-154.8" font-family="Times,serif" font-size="14.00">a</text>
<polyline fill="none" stroke="black" points="255.5,-147 292.5,-147 "/>
<text text-anchor="middle" x="274" y="-131.8" font-family="Times,serif" font-size="14.00">b</text>
<polyline fill="none" stroke="black" points="255.5,-124 292.5,-124 "/>
<text text-anchor="middle" x="274" y="-108.8" font-family="Times,serif" font-size="14.00">sel</text>
<polyline fill="none" stroke="black" points="292.5,-101 292.5,-170 "/>
<text text-anchor="middle" x="324" y="-139.3" font-family="Times,serif" font-size="14.00">mux_6</text>
<text text-anchor="middle" x="324" y="-124.3" font-family="Times,serif" font-size="14.00">Mux</text>
<polyline fill="none" stroke="black" points="355.5,-101 355.5,-170 "/>
<text text-anchor="middle" x="375.5" y="-131.8" font-family="Times,serif" font-size="14.00">out</text>
</g>
<!-- n4&#45;&gt;c17 -->
<g id="edge104" class="edge">
<title>n4:e&#45;&gt;c17:w</title>
<path fill="none" stroke="black" d="M180.5,-921.5C200.25,-921.5 206.06,-911.11 215,-893.5 233.51,-857.03 213.67,-197.07 247.53,-119.85"/>
<polygon fill="black" stroke="black" points="250.16,-122.17 254.5,-112.5 245.08,-117.35 250.16,-122.17"/>
</g>
<!-- c18 -->
<g id="node57" class="node">
<title>c18</title>
<polygon fill="none" stroke="black" points="255.5,-461 255.5,-530 395.5,-530 395.5,-461 255.5,-461"/>
<text text-anchor="middle" x="274" y="-514.8" font-family="Times,serif" font-size="14.00">a</text>
<polyline fill="none" stroke="black" points="255.5,-507 292.5,-507 "/>
<text text-anchor="middle" x="274" y="-491.8" font-family="Times,serif" font-size="14.00">b</text>
<polyline fill="none" stroke="black" points="255.5,-484 292.5,-484 "/>
<text text-anchor="middle" x="274" y="-468.8" font-family="Times,serif" font-size="14.00">sel</text>
<polyline fill="none" stroke="black" points="292.5,-461 292.5,-530 "/>
<text text-anchor="middle" x="324" y="-499.3" font-family="Times,serif" font-size="14.00">mux_7</text>
<text text-anchor="middle" x="324" y="-484.3" font-family="Times,serif" font-size="14.00">Mux</text>
<polyline fill="none" stroke="black" points="355.5,-461 355.5,-530 "/>
<text text-anchor="middle" x="375.5" y="-491.8" font-family="Times,serif" font-size="14.00">out</text>
</g>
<!-- n4&#45;&gt;c18 -->
<g id="edge105" class="edge">
<title>n4:e&#45;&gt;c18:w</title>
<path fill="none" stroke="black" d="M180.5,-921.5C200.25,-921.5 205.68,-910.91 215,-893.5 235.61,-854.99 211.43,-524.21 245.68,-477.88"/>
<polygon fill="black" stroke="black" points="247.79,-480.7 254.5,-472.5 244.14,-474.72 247.79,-480.7"/>
</g>
<!-- c19 -->
<g id="node61" class="node">
<title>c19</title>
<polygon fill="none" stroke="black" points="255.5,-359 255.5,-428 395.5,-428 395.5,-359 255.5,-359"/>
<text text-anchor="middle" x="274" y="-412.8" font-family="Times,serif" font-size="14.00">a</text>
<polyline fill="none" stroke="black" points="255.5,-405 292.5,-405 "/>
<text text-anchor="middle" x="274" y="-389.8" font-family="Times,serif" font-size="14.00">b</text>
<polyline fill="none" stroke="black" points="255.5,-382 292.5,-382 "/>
<text text-anchor="middle" x="274" y="-366.8" font-family="Times,serif" font-size="14.00">sel</text>
<polyline fill="none" stroke="black" points="292.5,-359 292.5,-428 "/>
<text text-anchor="middle" x="324" y="-397.3" font-family="Times,serif" font-size="14.00">mux_8</text>
<text text-anchor="middle" x="324" y="-382.3" font-family="Times,serif" font-size="14.00">Mux</text>
<polyline fill="none" stroke="black" points="355.5,-359 355.5,-428 "/>
<text text-anchor="middle" x="375.5" y="-389.8" font-family="Times,serif" font-size="14.00">out</text>
</g>
<!-- n4&#45;&gt;c19 -->
<g id="edge106" class="edge">
<title>n4:e&#45;&gt;c19:w</title>
<path fill="none" stroke="black" d="M180.5,-921.5C200.25,-921.5 205.84,-911 215,-893.5 240.44,-844.89 201.34,-424.3 245.29,-375.18"/>
<polygon fill="black" stroke="black" points="247.17,-378.15 254.5,-370.5 244,-371.91 247.17,-378.15"/>
</g>
<!-- c20 -->
<g id="node65" class="node">
<title>c20</title>
<polygon fill="none" stroke="black" points="255.5,-827 255.5,-896 395.5,-896 395.5,-827 255.5,-827"/>
<text text-anchor="middle" x="274" y="-880.8" font-family="Times,serif" font-size="14.00">a</text>
<polyline fill="none" stroke="black" points="255.5,-873 292.5,-873 "/>
<text text-anchor="middle" x="274" y="-857.8" font-family="Times,serif" font-size="14.00">b</text>
<polyline fill="none" stroke="black" points="255.5,-850 292.5,-850 "/>
<text text-anchor="middle" x="274" y="-834.8" font-family="Times,serif" font-size="14.00">sel</text>
<polyline fill="none" stroke="black" points="292.5,-827 292.5,-896 "/>
<text text-anchor="middle" x="324" y="-865.3" font-family="Times,serif" font-size="14.00">mux_9</text>
<text text-anchor="middle" x="324" y="-850.3" font-family="Times,serif" font-size="14.00">Mux</text>
<polyline fill="none" stroke="black" points="355.5,-827 355.5,-896 "/>
<text text-anchor="middle" x="375.5" y="-857.8" font-family="Times,serif" font-size="14.00">out</text>
</g>
<!-- n4&#45;&gt;c20 -->
<g id="edge107" class="edge">
<title>n4:e&#45;&gt;c20:w</title>
<path fill="none" stroke="black" d="M180.5,-921.5C200.25,-921.5 201.45,-907.87 215,-893.5 232.9,-874.51 226.83,-847.09 244.52,-840.15"/>
<polygon fill="black" stroke="black" points="245.2,-843.58 254.5,-838.5 244.06,-836.68 245.2,-843.58"/>
</g>
<!-- x2 -->
<g id="node8" class="node">
<title>x2</title>
<path fill="none" stroke="black" d="M452.5,-1522.5C452.5,-1522.5 544.5,-1522.5 544.5,-1522.5 550.5,-1522.5 556.5,-1528.5 556.5,-1534.5 556.5,-1534.5 556.5,-1546.5 556.5,-1546.5 556.5,-1552.5 550.5,-1558.5 544.5,-1558.5 544.5,-1558.5 452.5,-1558.5 452.5,-1558.5 446.5,-1558.5 440.5,-1552.5 440.5,-1546.5 440.5,-1546.5 440.5,-1534.5 440.5,-1534.5 440.5,-1528.5 446.5,-1522.5 452.5,-1522.5"/>
<text text-anchor="middle" x="498.5" y="-1536.8" font-family="Times,serif" font-size="14.00">slice [0] to [0]</text>
</g>
<!-- c5&#45;&gt;x2 -->
<g id="edge3" class="edge">
<title>c5:e&#45;&gt;x2:w</title>
<path fill="none" stroke="black" d="M408.4,-1672.29C444.18,-1656.29 391.79,-1558.61 427.65,-1542.69"/>
<polygon fill="none" stroke="black" points="408.3,-1672.31 403.13,-1677.34 396.5,-1674.5 401.67,-1669.47 408.3,-1672.31"/>
<polygon fill="none" stroke="black" points="427.7,-1542.68 432.87,-1537.66 439.5,-1540.5 434.33,-1545.52 427.7,-1542.68"/>
</g>
<!-- x0&#45;&gt;c5 -->
<g id="edge1" class="edge">
<title>x0:e&#45;&gt;c5:w</title>
<path fill="none" stroke="black" d="M223.29,-1798.72C248.32,-1783.99 217.72,-1715.21 242.61,-1700.34"/>
<polygon fill="none" stroke="black" points="223.18,-1798.74 218.26,-1804.02 211.5,-1801.5 216.42,-1796.23 223.18,-1798.74"/>
<polygon fill="none" stroke="black" points="242.83,-1700.29 247.73,-1695 254.5,-1697.5 249.59,-1702.78 242.83,-1700.29"/>
</g>
<!-- x1&#45;&gt;c5 -->
<g id="edge2" class="edge">
<title>x1:e&#45;&gt;c5:w</title>
<path fill="none" stroke="black" d="M223.36,-1689.14C230.73,-1685.89 235.3,-1680.08 242.69,-1676.84"/>
<polygon fill="none" stroke="black" points="223.27,-1689.15 218.17,-1694.25 211.5,-1691.5 216.6,-1686.4 223.27,-1689.15"/>
<polygon fill="none" stroke="black" points="242.73,-1676.84 247.84,-1671.74 254.5,-1674.5 249.39,-1679.59 242.73,-1676.84"/>
</g>
<!-- x2&#45;&gt;n3 -->
<g id="edge88" class="edge">
<title>x2:e&#45;&gt;n3:w</title>
<path fill="none" stroke="black" d="M557.5,-1540.5C625.69,-1540.5 535.04,-957.86 587.71,-900.96"/>
<polygon fill="black" stroke="black" points="589.5,-903.98 597,-896.5 586.47,-897.67 589.5,-903.98"/>
</g>
<!-- x5 -->
<g id="node12" class="node">
<title>x5</title>
<path fill="none" stroke="black" d="M452.5,-1434.5C452.5,-1434.5 544.5,-1434.5 544.5,-1434.5 550.5,-1434.5 556.5,-1440.5 556.5,-1446.5 556.5,-1446.5 556.5,-1458.5 556.5,-1458.5 556.5,-1464.5 550.5,-1470.5 544.5,-1470.5 544.5,-1470.5 452.5,-1470.5 452.5,-1470.5 446.5,-1470.5 440.5,-1464.5 440.5,-1458.5 440.5,-1458.5 440.5,-1446.5 440.5,-1446.5 440.5,-1440.5 446.5,-1434.5 452.5,-1434.5"/>
<text text-anchor="middle" x="498.5" y="-1448.8" font-family="Times,serif" font-size="14.00">slice [0] to [1]</text>
</g>
<!-- c6&#45;&gt;x5 -->
<g id="edge6" class="edge">
<title>c6:e&#45;&gt;x5:w</title>
<path fill="none" stroke="black" d="M408.61,-1561.73C435.84,-1546.24 400.07,-1470.41 427.57,-1455.17"/>
<polygon fill="none" stroke="black" points="408.2,-1561.82 403.24,-1567.06 396.5,-1564.5 401.46,-1559.26 408.2,-1561.82"/>
<polygon fill="none" stroke="black" points="427.79,-1455.12 432.77,-1449.91 439.5,-1452.5 434.52,-1457.71 427.79,-1455.12"/>
</g>
<!-- x3&#45;&gt;c6 -->
<g id="edge4" class="edge">
<title>x3:e&#45;&gt;c6:w</title>
<path fill="none" stroke="black" d="M223.55,-1744.6C268.79,-1727.89 197.15,-1605.96 242.53,-1589.37"/>
<polygon fill="none" stroke="black" points="223.35,-1744.63 218.05,-1749.52 211.5,-1746.5 216.81,-1741.62 223.35,-1744.63"/>
<polygon fill="none" stroke="black" points="242.64,-1589.35 247.96,-1584.47 254.5,-1587.5 249.19,-1592.38 242.64,-1589.35"/>
</g>
<!-- x4&#45;&gt;c6 -->
<g id="edge5" class="edge">
<title>x4:e&#45;&gt;c6:w</title>
<path fill="none" stroke="black" d="M223.36,-1579.14C230.73,-1575.89 235.3,-1570.08 242.69,-1566.84"/>
<polygon fill="none" stroke="black" points="223.27,-1579.15 218.17,-1584.25 211.5,-1581.5 216.6,-1576.4 223.27,-1579.15"/>
<polygon fill="none" stroke="black" points="242.73,-1566.84 247.84,-1561.74 254.5,-1564.5 249.39,-1569.59 242.73,-1566.84"/>
</g>
<!-- x5&#45;&gt;n3 -->
<g id="edge95" class="edge">
<title>x5:e&#45;&gt;n3:w</title>
<path fill="none" stroke="black" d="M557.5,-1452.5C616.05,-1452.5 543.86,-955.65 588.1,-901.31"/>
<polygon fill="black" stroke="black" points="589.87,-904.33 597,-896.5 586.54,-898.17 589.87,-904.33"/>
</g>
<!-- x8 -->
<g id="node16" class="node">
<title>x8</title>
<path fill="none" stroke="black" d="M448,-1346.5C448,-1346.5 549,-1346.5 549,-1346.5 555,-1346.5 561,-1352.5 561,-1358.5 561,-1358.5 561,-1370.5 561,-1370.5 561,-1376.5 555,-1382.5 549,-1382.5 549,-1382.5 448,-1382.5 448,-1382.5 442,-1382.5 436,-1376.5 436,-1370.5 436,-1370.5 436,-1358.5 436,-1358.5 436,-1352.5 442,-1346.5 448,-1346.5"/>
<text text-anchor="middle" x="498.5" y="-1360.8" font-family="Times,serif" font-size="14.00">slice [0] to [10]</text>
</g>
<!-- c7&#45;&gt;x8 -->
<g id="edge9" class="edge">
<title>c7:e&#45;&gt;x8:w</title>
<path fill="none" stroke="black" d="M411.7,-1452.04C430.03,-1437.63 405.97,-1382.38 424.29,-1367.96"/>
<polygon fill="none" stroke="black" points="411.51,-1452.1 406.89,-1457.64 400,-1455.5 404.62,-1449.96 411.51,-1452.1"/>
<polygon fill="none" stroke="black" points="424.49,-1367.9 429.11,-1362.36 436,-1364.5 431.38,-1370.04 424.49,-1367.9"/>
</g>
<!-- x6&#45;&gt;c7 -->
<g id="edge7" class="edge">
<title>x6:e&#45;&gt;c7:w</title>
<path fill="none" stroke="black" d="M227.07,-1634.5C270.2,-1617.5 195.7,-1497.28 239.04,-1480.45"/>
<polygon fill="none" stroke="black" points="226.84,-1634.54 221.57,-1639.47 215,-1636.5 220.27,-1631.57 226.84,-1634.54"/>
<polygon fill="none" stroke="black" points="239.16,-1480.43 244.43,-1475.52 251,-1478.5 245.72,-1483.41 239.16,-1480.43"/>
</g>
<!-- x7&#45;&gt;c7 -->
<g id="edge8" class="edge">
<title>x7:e&#45;&gt;c7:w</title>
<path fill="none" stroke="black" d="M226.84,-1468.26C231.36,-1465.49 234.64,-1461.51 239.17,-1458.73"/>
<polygon fill="none" stroke="black" points="226.57,-1468.33 221.84,-1473.78 215,-1471.5 219.73,-1466.06 226.57,-1468.33"/>
<polygon fill="none" stroke="black" points="239.42,-1458.66 244.16,-1453.22 251,-1455.5 246.27,-1460.94 239.42,-1458.66"/>
</g>
<!-- x8&#45;&gt;n3 -->
<g id="edge96" class="edge">
<title>x8:e&#45;&gt;n3:w</title>
<path fill="none" stroke="black" d="M561,-1364.5C661.64,-1364.5 504.49,-928.83 587,-898.19"/>
<polygon fill="black" stroke="black" points="587.73,-901.62 597,-896.5 586.56,-894.72 587.73,-901.62"/>
</g>
<!-- x11 -->
<g id="node20" class="node">
<title>x11</title>
<path fill="none" stroke="black" d="M448,-1259.5C448,-1259.5 549,-1259.5 549,-1259.5 555,-1259.5 561,-1265.5 561,-1271.5 561,-1271.5 561,-1283.5 561,-1283.5 561,-1289.5 555,-1295.5 549,-1295.5 549,-1295.5 448,-1295.5 448,-1295.5 442,-1295.5 436,-1289.5 436,-1283.5 436,-1283.5 436,-1271.5 436,-1271.5 436,-1265.5 442,-1259.5 448,-1259.5"/>
<text text-anchor="middle" x="498.5" y="-1273.8" font-family="Times,serif" font-size="14.00">slice [0] to [11]</text>
</g>
<!-- c8&#45;&gt;x11 -->
<g id="edge12" class="edge">
<title>c8:e&#45;&gt;x11:w</title>
<path fill="none" stroke="black" d="M411.37,-1342.39C423.56,-1330.21 412.5,-1294.35 424.4,-1281.85"/>
<polygon fill="none" stroke="black" points="411.29,-1342.42 407,-1348.22 400,-1346.5 404.28,-1340.7 411.29,-1342.42"/>
<polygon fill="none" stroke="black" points="424.76,-1281.71 428.98,-1275.86 436,-1277.5 431.79,-1283.35 424.76,-1281.71"/>
</g>
<!-- x9&#45;&gt;c8 -->
<g id="edge10" class="edge">
<title>x9:e&#45;&gt;c8:w</title>
<path fill="none" stroke="black" d="M227,-1524.51C269.9,-1507.62 196.01,-1388.16 239.11,-1371.44"/>
<polygon fill="none" stroke="black" points="226.84,-1524.54 221.57,-1529.47 215,-1526.5 220.27,-1521.57 226.84,-1524.54"/>
<polygon fill="none" stroke="black" points="239.16,-1371.43 244.43,-1366.52 251,-1369.5 245.72,-1374.41 239.16,-1371.43"/>
</g>
<!-- x10&#45;&gt;c8 -->
<g id="edge11" class="edge">
<title>x10:e&#45;&gt;c8:w</title>
<path fill="none" stroke="black" d="M226.79,-1358.46C231.33,-1355.86 234.67,-1352.13 239.21,-1349.53"/>
<polygon fill="none" stroke="black" points="226.62,-1358.51 221.81,-1363.88 215,-1361.5 219.81,-1356.13 226.62,-1358.51"/>
<polygon fill="none" stroke="black" points="239.38,-1349.49 244.19,-1344.12 251,-1346.5 246.19,-1351.87 239.38,-1349.49"/>
</g>
<!-- x11&#45;&gt;n3 -->
<g id="edge81" class="edge">
<title>x11:e&#45;&gt;n3:w</title>
<path fill="none" stroke="black" d="M561,-1277.5C642.22,-1277.5 523.56,-929.96 586.83,-898.74"/>
<polygon fill="black" stroke="black" points="587.99,-902.07 597,-896.5 586.48,-895.23 587.99,-902.07"/>
</g>
<!-- x14 -->
<g id="node24" class="node">
<title>x14</title>
<path fill="none" stroke="black" d="M448,-1172.5C448,-1172.5 549,-1172.5 549,-1172.5 555,-1172.5 561,-1178.5 561,-1184.5 561,-1184.5 561,-1196.5 561,-1196.5 561,-1202.5 555,-1208.5 549,-1208.5 549,-1208.5 448,-1208.5 448,-1208.5 442,-1208.5 436,-1202.5 436,-1196.5 436,-1196.5 436,-1184.5 436,-1184.5 436,-1178.5 442,-1172.5 448,-1172.5"/>
<text text-anchor="middle" x="498.5" y="-1186.8" font-family="Times,serif" font-size="14.00">slice [0] to [12]</text>
</g>
<!-- c9&#45;&gt;x14 -->
<g id="edge15" class="edge">
<title>c9:e&#45;&gt;x14:w</title>
<path fill="none" stroke="black" d="M411.35,-1234.62C419.19,-1225.23 416.81,-1204.73 424.67,-1195.36"/>
<polygon fill="none" stroke="black" points="411.02,-1234.76 407.09,-1240.81 400,-1239.5 403.93,-1233.46 411.02,-1234.76"/>
<polygon fill="none" stroke="black" points="424.97,-1195.23 428.91,-1189.19 436,-1190.5 432.06,-1196.54 424.97,-1195.23"/>
</g>
<!-- x12&#45;&gt;c9 -->
<g id="edge13" class="edge">
<title>x12:e&#45;&gt;c9:w</title>
<path fill="none" stroke="black" d="M227.08,-1414.44C268.58,-1397.49 197.3,-1281.22 239.07,-1264.5"/>
<polygon fill="none" stroke="black" points="226.83,-1414.48 221.59,-1419.43 215,-1416.5 220.24,-1411.55 226.83,-1414.48"/>
<polygon fill="none" stroke="black" points="239.17,-1264.48 244.42,-1259.55 251,-1262.5 245.74,-1267.44 239.17,-1264.48"/>
</g>
<!-- x13&#45;&gt;c9 -->
<g id="edge14" class="edge">
<title>x13:e&#45;&gt;c9:w</title>
<path fill="none" stroke="black" d="M226.93,-1248.96C231.3,-1246.92 234.7,-1244.08 239.08,-1242.04"/>
<polygon fill="none" stroke="black" points="226.74,-1249 221.7,-1254.16 215,-1251.5 220.03,-1246.34 226.74,-1249"/>
<polygon fill="none" stroke="black" points="239.26,-1242 244.3,-1236.84 251,-1239.5 245.97,-1244.66 239.26,-1242"/>
</g>
<!-- x14&#45;&gt;n3 -->
<g id="edge82" class="edge">
<title>x14:e&#45;&gt;n3:w</title>
<path fill="none" stroke="black" d="M561,-1190.5C623.09,-1190.5 541.5,-928.86 587.31,-899.22"/>
<polygon fill="black" stroke="black" points="588.32,-902.57 597,-896.5 586.43,-895.84 588.32,-902.57"/>
</g>
<!-- x17 -->
<g id="node28" class="node">
<title>x17</title>
<path fill="none" stroke="black" d="M448,-1086.5C448,-1086.5 549,-1086.5 549,-1086.5 555,-1086.5 561,-1092.5 561,-1098.5 561,-1098.5 561,-1110.5 561,-1110.5 561,-1116.5 555,-1122.5 549,-1122.5 549,-1122.5 448,-1122.5 448,-1122.5 442,-1122.5 436,-1116.5 436,-1110.5 436,-1110.5 436,-1098.5 436,-1098.5 436,-1092.5 442,-1086.5 448,-1086.5"/>
<text text-anchor="middle" x="498.5" y="-1100.8" font-family="Times,serif" font-size="14.00">slice [0] to [13]</text>
</g>
<!-- c10&#45;&gt;x17 -->
<g id="edge18" class="edge">
<title>c10:e&#45;&gt;x17:w</title>
<path fill="none" stroke="black" d="M411.31,-1130.93C416.95,-1125.13 418.93,-1115.19 424.48,-1109.3"/>
<polygon fill="none" stroke="black" points="411.12,-1131 407.06,-1136.96 400,-1135.5 404.06,-1129.54 411.12,-1131"/>
<polygon fill="none" stroke="black" points="424.92,-1109.11 428.92,-1103.11 436,-1104.5 432,-1110.5 424.92,-1109.11"/>
</g>
<!-- x15&#45;&gt;c10 -->
<g id="edge16" class="edge">
<title>x15:e&#45;&gt;c10:w</title>
<path fill="none" stroke="black" d="M226.92,-1304.41C266.3,-1287.79 199.76,-1177.35 239.01,-1160.62"/>
<polygon fill="none" stroke="black" points="226.82,-1304.43 221.6,-1309.4 215,-1306.5 220.22,-1301.52 226.82,-1304.43"/>
<polygon fill="none" stroke="black" points="239.18,-1160.59 244.39,-1155.61 251,-1158.5 245.79,-1163.48 239.18,-1160.59"/>
</g>
<!-- x16&#45;&gt;c10 -->
<g id="edge17" class="edge">
<title>x16:e&#45;&gt;c10:w</title>
<path fill="none" stroke="black" d="M227.02,-1140.17C231.26,-1139.17 234.75,-1137.82 239,-1136.83"/>
<polygon fill="none" stroke="black" points="226.93,-1140.18 221.4,-1144.81 215,-1141.5 220.52,-1136.86 226.93,-1140.18"/>
<polygon fill="none" stroke="black" points="239.07,-1136.82 244.6,-1132.18 251,-1135.5 245.48,-1140.14 239.07,-1136.82"/>
</g>
<!-- x17&#45;&gt;n3 -->
<g id="edge83" class="edge">
<title>x17:e&#45;&gt;n3:w</title>
<path fill="none" stroke="black" d="M561,-1104.5C650.97,-1104.5 515.21,-913.21 586.66,-897.52"/>
<polygon fill="black" stroke="black" points="587.39,-900.97 597,-896.5 586.7,-894 587.39,-900.97"/>
</g>
<!-- x20 -->
<g id="node32" class="node">
<title>x20</title>
<path fill="none" stroke="black" d="M448,-1002.5C448,-1002.5 549,-1002.5 549,-1002.5 555,-1002.5 561,-1008.5 561,-1014.5 561,-1014.5 561,-1026.5 561,-1026.5 561,-1032.5 555,-1038.5 549,-1038.5 549,-1038.5 448,-1038.5 448,-1038.5 442,-1038.5 436,-1032.5 436,-1026.5 436,-1026.5 436,-1014.5 436,-1014.5 436,-1008.5 442,-1002.5 448,-1002.5"/>
<text text-anchor="middle" x="498.5" y="-1016.8" font-family="Times,serif" font-size="14.00">slice [0] to [14]</text>
</g>
<!-- c11&#45;&gt;x20 -->
<g id="edge21" class="edge">
<title>c11:e&#45;&gt;x20:w</title>
<path fill="none" stroke="black" d="M411.64,-1034.22C416.36,-1031.21 419.65,-1026.77 424.38,-1023.77"/>
<polygon fill="none" stroke="black" points="411.55,-1034.25 406.86,-1039.72 400,-1037.5 404.69,-1032.02 411.55,-1034.25"/>
<polygon fill="none" stroke="black" points="424.45,-1023.75 429.14,-1018.27 436,-1020.5 431.31,-1025.97 424.45,-1023.75"/>
</g>
<!-- x18&#45;&gt;c11 -->
<g id="edge19" class="edge">
<title>x18:e&#45;&gt;c11:w</title>
<path fill="none" stroke="black" d="M227.02,-1194.14C261.31,-1177.63 204.79,-1079.65 238.84,-1062.93"/>
<polygon fill="none" stroke="black" points="226.78,-1194.19 221.66,-1199.27 215,-1196.5 220.12,-1191.42 226.78,-1194.19"/>
<polygon fill="none" stroke="black" points="239.23,-1062.85 244.33,-1057.75 251,-1060.5 245.9,-1065.6 239.23,-1062.85"/>
</g>
<!-- x19&#45;&gt;c11 -->
<g id="edge20" class="edge">
<title>x19:e&#45;&gt;c11:w</title>
<path fill="none" stroke="black" d="M227.02,-1032.83C231.26,-1033.83 234.75,-1035.18 239,-1036.17"/>
<polygon fill="none" stroke="black" points="226.93,-1032.82 220.52,-1036.14 215,-1031.5 221.4,-1028.19 226.93,-1032.82"/>
<polygon fill="none" stroke="black" points="239.07,-1036.18 245.48,-1032.86 251,-1037.5 244.6,-1040.82 239.07,-1036.18"/>
</g>
<!-- x20&#45;&gt;n3 -->
<g id="edge84" class="edge">
<title>x20:e&#45;&gt;n3:w</title>
<path fill="none" stroke="black" d="M561,-1020.5C614.35,-1020.5 550.02,-913.32 586.82,-898.25"/>
<polygon fill="black" stroke="black" points="587.74,-901.65 597,-896.5 586.55,-894.75 587.74,-901.65"/>
</g>
<!-- x23 -->
<g id="node36" class="node">
<title>x23</title>
<path fill="none" stroke="black" d="M448,-922.5C448,-922.5 549,-922.5 549,-922.5 555,-922.5 561,-928.5 561,-934.5 561,-934.5 561,-946.5 561,-946.5 561,-952.5 555,-958.5 549,-958.5 549,-958.5 448,-958.5 448,-958.5 442,-958.5 436,-952.5 436,-946.5 436,-946.5 436,-934.5 436,-934.5 436,-928.5 442,-922.5 448,-922.5"/>
<text text-anchor="middle" x="498.5" y="-936.8" font-family="Times,serif" font-size="14.00">slice [0] to [15]</text>
</g>
<!-- c12&#45;&gt;x23 -->
<g id="edge24" class="edge">
<title>c12:e&#45;&gt;x23:w</title>
<path fill="none" stroke="black" d="M412.08,-947.5C416.3,-946.01 419.71,-943.98 423.93,-942.49"/>
<polygon fill="none" stroke="black" points="411.84,-947.54 406.57,-952.47 400,-949.5 405.27,-944.58 411.84,-947.54"/>
<polygon fill="none" stroke="black" points="424.16,-942.45 429.43,-937.53 436,-940.5 430.73,-945.42 424.16,-942.45"/>
</g>
<!-- x21&#45;&gt;c12 -->
<g id="edge22" class="edge">
<title>x21:e&#45;&gt;c12:w</title>
<path fill="none" stroke="black" d="M226.89,-1083.68C253.08,-1067.91 212.8,-990.73 239.27,-975.22"/>
<polygon fill="none" stroke="black" points="226.68,-1083.73 221.76,-1089.01 215,-1086.5 219.92,-1081.22 226.68,-1083.73"/>
<polygon fill="none" stroke="black" points="239.31,-975.21 244.25,-969.96 251,-972.5 246.06,-977.75 239.31,-975.21"/>
</g>
<!-- x22&#45;&gt;c12 -->
<g id="edge23" class="edge">
<title>x22:e&#45;&gt;c12:w</title>
<path fill="none" stroke="black" d="M226.25,-972.28C231.66,-967.3 234.17,-959.04 239.49,-953.96"/>
<polygon fill="none" stroke="black" points="226.24,-972.29 222.02,-978.14 215,-976.5 219.21,-970.65 226.24,-972.29"/>
<polygon fill="none" stroke="black" points="239.81,-953.84 243.96,-947.94 251,-949.5 246.85,-955.4 239.81,-953.84"/>
</g>
<!-- x23&#45;&gt;n3 -->
<g id="edge85" class="edge">
<title>x23:e&#45;&gt;n3:w</title>
<path fill="none" stroke="black" d="M561,-940.5C582.12,-940.5 575.43,-909.75 587.43,-899.66"/>
<polygon fill="black" stroke="black" points="588.6,-902.96 597,-896.5 586.41,-896.32 588.6,-902.96"/>
</g>
<!-- x26 -->
<g id="node40" class="node">
<title>x26</title>
<path fill="none" stroke="black" d="M452.5,-771.5C452.5,-771.5 544.5,-771.5 544.5,-771.5 550.5,-771.5 556.5,-777.5 556.5,-783.5 556.5,-783.5 556.5,-795.5 556.5,-795.5 556.5,-801.5 550.5,-807.5 544.5,-807.5 544.5,-807.5 452.5,-807.5 452.5,-807.5 446.5,-807.5 440.5,-801.5 440.5,-795.5 440.5,-795.5 440.5,-783.5 440.5,-783.5 440.5,-777.5 446.5,-771.5 452.5,-771.5"/>
<text text-anchor="middle" x="498.5" y="-785.8" font-family="Times,serif" font-size="14.00">slice [0] to [2]</text>
</g>
<!-- c13&#45;&gt;x26 -->
<g id="edge27" class="edge">
<title>c13:e&#45;&gt;x26:w</title>
<path fill="none" stroke="black" d="M408.31,-775.72C415.61,-778.75 420.24,-784.12 427.49,-787.19"/>
<polygon fill="none" stroke="black" points="408.29,-775.72 401.66,-778.54 396.5,-773.5 403.14,-770.68 408.29,-775.72"/>
<polygon fill="none" stroke="black" points="427.72,-787.23 434.36,-784.44 439.5,-789.5 432.85,-792.3 427.72,-787.23"/>
</g>
<!-- x24&#45;&gt;c13 -->
<g id="edge25" class="edge">
<title>x24:e&#45;&gt;c13:w</title>
<path fill="none" stroke="black" d="M223.59,-809.29C230.75,-806.42 235.42,-801.45 242.63,-798.63"/>
<polygon fill="none" stroke="black" points="223.3,-809.34 218.12,-814.35 211.5,-811.5 216.68,-806.48 223.3,-809.34"/>
<polygon fill="none" stroke="black" points="242.69,-798.62 247.89,-793.62 254.5,-796.5 249.3,-801.49 242.69,-798.62"/>
</g>
<!-- x25&#45;&gt;c13 -->
<g id="edge26" class="edge">
<title>x25:e&#45;&gt;c13:w</title>
<path fill="none" stroke="black" d="M223.57,-648.92C256.28,-664.9 209.75,-754.99 242.37,-771.05"/>
<polygon fill="none" stroke="black" points="223.27,-648.86 216.6,-651.6 211.5,-646.5 218.17,-643.76 223.27,-648.86"/>
<polygon fill="none" stroke="black" points="242.74,-771.12 249.41,-768.39 254.5,-773.5 247.83,-776.23 242.74,-771.12"/>
</g>
<!-- x26&#45;&gt;n3 -->
<g id="edge86" class="edge">
<title>x26:e&#45;&gt;n3:w</title>
<path fill="none" stroke="black" d="M557.5,-789.5C604.23,-789.5 555.29,-880.43 587.07,-894.64"/>
<polygon fill="black" stroke="black" points="586.53,-898.1 597,-896.5 587.81,-891.22 586.53,-898.1"/>
</g>
<!-- x29 -->
<g id="node44" class="node">
<title>x29</title>
<path fill="none" stroke="black" d="M452.5,-691.5C452.5,-691.5 544.5,-691.5 544.5,-691.5 550.5,-691.5 556.5,-697.5 556.5,-703.5 556.5,-703.5 556.5,-715.5 556.5,-715.5 556.5,-721.5 550.5,-727.5 544.5,-727.5 544.5,-727.5 452.5,-727.5 452.5,-727.5 446.5,-727.5 440.5,-721.5 440.5,-715.5 440.5,-715.5 440.5,-703.5 440.5,-703.5 440.5,-697.5 446.5,-691.5 452.5,-691.5"/>
<text text-anchor="middle" x="498.5" y="-705.8" font-family="Times,serif" font-size="14.00">slice [0] to [3]</text>
</g>
<!-- c14&#45;&gt;x29 -->
<g id="edge30" class="edge">
<title>c14:e&#45;&gt;x29:w</title>
<path fill="none" stroke="black" d="M408.35,-684.93C416.36,-690.37 419.77,-700.87 427.87,-706.21"/>
<polygon fill="none" stroke="black" points="408.03,-684.84 401.15,-687.01 396.5,-681.5 403.38,-679.33 408.03,-684.84"/>
<polygon fill="none" stroke="black" points="427.95,-706.24 434.81,-704.02 439.5,-709.5 432.64,-711.72 427.95,-706.24"/>
</g>
<!-- x27&#45;&gt;c14 -->
<g id="edge28" class="edge">
<title>x27:e&#45;&gt;c14:w</title>
<path fill="none" stroke="black" d="M223.61,-701.97C230.36,-702.52 235.37,-703.44 242.07,-704"/>
<polygon fill="none" stroke="black" points="223.49,-701.96 217.34,-705.73 211.5,-701.5 217.65,-697.74 223.49,-701.96"/>
<polygon fill="none" stroke="black" points="242.51,-704.02 248.66,-700.26 254.5,-704.5 248.35,-708.26 242.51,-704.02"/>
</g>
<!-- x28&#45;&gt;c14 -->
<g id="edge29" class="edge">
<title>x28:e&#45;&gt;c14:w</title>
<path fill="none" stroke="black" d="M223.44,-538.55C263.35,-554.83 202.69,-663.03 242.49,-679.42"/>
<polygon fill="none" stroke="black" points="223.33,-538.53 216.74,-541.46 211.5,-536.5 218.09,-533.57 223.33,-538.53"/>
<polygon fill="none" stroke="black" points="242.68,-679.45 249.27,-676.54 254.5,-681.5 247.91,-684.42 242.68,-679.45"/>
</g>
<!-- x29&#45;&gt;n3 -->
<g id="edge87" class="edge">
<title>x29:e&#45;&gt;n3:w</title>
<path fill="none" stroke="black" d="M557.5,-709.5C638.63,-709.5 523.34,-880.08 586.82,-895.4"/>
<polygon fill="black" stroke="black" points="586.68,-898.91 597,-896.5 587.43,-891.95 586.68,-898.91"/>
</g>
<!-- x32 -->
<g id="node48" class="node">
<title>x32</title>
<path fill="none" stroke="black" d="M452.5,-604.5C452.5,-604.5 544.5,-604.5 544.5,-604.5 550.5,-604.5 556.5,-610.5 556.5,-616.5 556.5,-616.5 556.5,-628.5 556.5,-628.5 556.5,-634.5 550.5,-640.5 544.5,-640.5 544.5,-640.5 452.5,-640.5 452.5,-640.5 446.5,-640.5 440.5,-634.5 440.5,-628.5 440.5,-628.5 440.5,-616.5 440.5,-616.5 440.5,-610.5 446.5,-604.5 452.5,-604.5"/>
<text text-anchor="middle" x="498.5" y="-618.8" font-family="Times,serif" font-size="14.00">slice [0] to [4]</text>
</g>
<!-- c15&#45;&gt;x32 -->
<g id="edge33" class="edge">
<title>c15:e&#45;&gt;x32:w</title>
<path fill="none" stroke="black" d="M408.31,-594.17C416.62,-600.34 419.41,-612.73 427.75,-618.87"/>
<polygon fill="none" stroke="black" points="407.96,-594.06 401.04,-596.1 396.5,-590.5 403.42,-588.46 407.96,-594.06"/>
<polygon fill="none" stroke="black" points="428.03,-618.96 434.95,-616.91 439.5,-622.5 432.59,-624.55 428.03,-618.96"/>
</g>
<!-- x30&#45;&gt;c15 -->
<g id="edge31" class="edge">
<title>x30:e&#45;&gt;c15:w</title>
<path fill="none" stroke="black" d="M223.29,-594.38C230.97,-598.62 235.11,-606.49 242.83,-610.69"/>
<polygon fill="none" stroke="black" points="223.16,-594.34 216.38,-596.81 211.5,-591.5 218.28,-589.04 223.16,-594.34"/>
<polygon fill="none" stroke="black" points="242.83,-610.69 249.6,-608.21 254.5,-613.5 247.73,-615.99 242.83,-610.69"/>
</g>
<!-- x31&#45;&gt;c15 -->
<g id="edge32" class="edge">
<title>x31:e&#45;&gt;c15:w</title>
<path fill="none" stroke="black" d="M223.57,-428.34C270.75,-445.16 195.22,-571.91 242.47,-588.67"/>
<polygon fill="none" stroke="black" points="223.36,-428.31 216.83,-431.36 211.5,-426.5 218.03,-423.45 223.36,-428.31"/>
<polygon fill="none" stroke="black" points="242.64,-588.7 249.17,-585.64 254.5,-590.5 247.97,-593.55 242.64,-588.7"/>
</g>
<!-- x32&#45;&gt;n3 -->
<g id="edge89" class="edge">
<title>x32:e&#45;&gt;n3:w</title>
<path fill="none" stroke="black" d="M557.5,-622.5C615.29,-622.5 545.07,-864.32 587.36,-893.61"/>
<polygon fill="black" stroke="black" points="586.42,-896.98 597,-896.5 588.43,-890.28 586.42,-896.98"/>
</g>
<!-- x35 -->
<g id="node52" class="node">
<title>x35</title>
<path fill="none" stroke="black" d="M452.5,-290.5C452.5,-290.5 544.5,-290.5 544.5,-290.5 550.5,-290.5 556.5,-296.5 556.5,-302.5 556.5,-302.5 556.5,-314.5 556.5,-314.5 556.5,-320.5 550.5,-326.5 544.5,-326.5 544.5,-326.5 452.5,-326.5 452.5,-326.5 446.5,-326.5 440.5,-320.5 440.5,-314.5 440.5,-314.5 440.5,-302.5 440.5,-302.5 440.5,-296.5 446.5,-290.5 452.5,-290.5"/>
<text text-anchor="middle" x="498.5" y="-304.8" font-family="Times,serif" font-size="14.00">slice [0] to [5]</text>
</g>
<!-- c16&#45;&gt;x35 -->
<g id="edge36" class="edge">
<title>c16:e&#45;&gt;x35:w</title>
<path fill="none" stroke="black" d="M408.16,-281.94C416.47,-287.73 419.56,-299.34 427.9,-305.1"/>
<polygon fill="none" stroke="black" points="408.01,-281.9 401.12,-284.03 396.5,-278.5 403.39,-276.36 408.01,-281.9"/>
<polygon fill="none" stroke="black" points="427.98,-305.12 434.87,-302.97 439.5,-308.5 432.62,-310.65 427.98,-305.12"/>
</g>
<!-- x33&#45;&gt;c16 -->
<g id="edge34" class="edge">
<title>x33:e&#45;&gt;c16:w</title>
<path fill="none" stroke="black" d="M222.92,-265.19C232.47,-272.77 233.48,-290.03 242.94,-297.7"/>
<polygon fill="none" stroke="black" points="222.92,-265.19 215.98,-267.15 211.5,-261.5 218.44,-259.54 222.92,-265.19"/>
<polygon fill="none" stroke="black" points="243.1,-297.75 250.05,-295.83 254.5,-301.5 247.55,-303.43 243.1,-297.75"/>
</g>
<!-- x34&#45;&gt;c16 -->
<g id="edge35" class="edge">
<title>x34:e&#45;&gt;c16:w</title>
<path fill="none" stroke="black" d="M223.71,-98.19C277.94,-115.46 187.86,-260.01 242.54,-276.89"/>
<polygon fill="none" stroke="black" points="223.39,-98.14 216.9,-101.28 211.5,-96.5 217.99,-93.36 223.39,-98.14"/>
<polygon fill="none" stroke="black" points="242.61,-276.9 249.09,-273.74 254.5,-278.5 248.02,-281.67 242.61,-276.9"/>
</g>
<!-- x35&#45;&gt;n3 -->
<g id="edge90" class="edge">
<title>x35:e&#45;&gt;n3:w</title>
<path fill="none" stroke="black" d="M557.5,-308.5C619.53,-308.5 540.73,-836.12 587.9,-891.77"/>
<polygon fill="black" stroke="black" points="586.51,-894.99 597,-896.5 589.74,-888.78 586.51,-894.99"/>
</g>
<!-- x38 -->
<g id="node56" class="node">
<title>x38</title>
<path fill="none" stroke="black" d="M452.5,-219.5C452.5,-219.5 544.5,-219.5 544.5,-219.5 550.5,-219.5 556.5,-225.5 556.5,-231.5 556.5,-231.5 556.5,-243.5 556.5,-243.5 556.5,-249.5 550.5,-255.5 544.5,-255.5 544.5,-255.5 452.5,-255.5 452.5,-255.5 446.5,-255.5 440.5,-249.5 440.5,-243.5 440.5,-243.5 440.5,-231.5 440.5,-231.5 440.5,-225.5 446.5,-219.5 452.5,-219.5"/>
<text text-anchor="middle" x="498.5" y="-233.8" font-family="Times,serif" font-size="14.00">slice [0] to [6]</text>
</g>
<!-- c17&#45;&gt;x38 -->
<g id="edge39" class="edge">
<title>c17:e&#45;&gt;x38:w</title>
<path fill="none" stroke="black" d="M408.47,-138.44C432.46,-153.27 403.55,-219.69 427.51,-234.55"/>
<polygon fill="none" stroke="black" points="408.15,-138.36 401.37,-140.82 396.5,-135.5 403.28,-133.05 408.15,-138.36"/>
<polygon fill="none" stroke="black" points="427.85,-234.63 434.63,-232.18 439.5,-237.5 432.72,-239.95 427.85,-234.63"/>
</g>
<!-- x36&#45;&gt;c17 -->
<g id="edge37" class="edge">
<title>x36:e&#45;&gt;c17:w</title>
<path fill="none" stroke="black" d="M223.66,-152.59C230.57,-153.92 235.56,-156.13 242.5,-157.44"/>
<polygon fill="none" stroke="black" points="223.45,-152.57 217.12,-156.02 211.5,-151.5 217.83,-148.05 223.45,-152.57"/>
<polygon fill="none" stroke="black" points="242.55,-157.44 248.88,-153.99 254.5,-158.5 248.17,-161.96 242.55,-157.44"/>
</g>
<!-- x37&#45;&gt;c17 -->
<g id="edge38" class="edge">
<title>x37:e&#45;&gt;c17:w</title>
<path fill="none" stroke="black" d="M223.42,-44.63C244.92,-58.96 221.03,-118.3 242.71,-132.46"/>
<polygon fill="none" stroke="black" points="223.11,-44.55 216.29,-46.89 211.5,-41.5 218.32,-39.15 223.11,-44.55"/>
<polygon fill="none" stroke="black" points="242.88,-132.5 249.69,-130.13 254.5,-135.5 247.69,-137.87 242.88,-132.5"/>
</g>
<!-- x38&#45;&gt;n3 -->
<g id="edge91" class="edge">
<title>x38:e&#45;&gt;n3:w</title>
<path fill="none" stroke="black" d="M557.5,-237.5C627.42,-237.5 533.3,-836.17 587.84,-892.29"/>
<polygon fill="black" stroke="black" points="586.45,-895.51 597,-896.5 589.37,-889.15 586.45,-895.51"/>
</g>
<!-- x41 -->
<g id="node60" class="node">
<title>x41</title>
<path fill="none" stroke="black" d="M452.5,-513.5C452.5,-513.5 544.5,-513.5 544.5,-513.5 550.5,-513.5 556.5,-519.5 556.5,-525.5 556.5,-525.5 556.5,-537.5 556.5,-537.5 556.5,-543.5 550.5,-549.5 544.5,-549.5 544.5,-549.5 452.5,-549.5 452.5,-549.5 446.5,-549.5 440.5,-543.5 440.5,-537.5 440.5,-537.5 440.5,-525.5 440.5,-525.5 440.5,-519.5 446.5,-513.5 452.5,-513.5"/>
<text text-anchor="middle" x="498.5" y="-527.8" font-family="Times,serif" font-size="14.00">slice [0] to [7]</text>
</g>
<!-- c18&#45;&gt;x41 -->
<g id="edge42" class="edge">
<title>c18:e&#45;&gt;x41:w</title>
<path fill="none" stroke="black" d="M408.29,-499.35C417.04,-506.32 419.05,-520.92 427.88,-527.78"/>
<polygon fill="none" stroke="black" points="407.91,-499.23 400.96,-501.17 396.5,-495.5 403.45,-493.56 407.91,-499.23"/>
<polygon fill="none" stroke="black" points="428.07,-527.84 435,-525.86 439.5,-531.5 432.57,-533.48 428.07,-527.84"/>
</g>
<!-- x39&#45;&gt;c18 -->
<g id="edge40" class="edge">
<title>x39:e&#45;&gt;c18:w</title>
<path fill="none" stroke="black" d="M223.02,-485.18C232.14,-492.28 233.87,-507.75 243,-514.83"/>
<polygon fill="none" stroke="black" points="222.93,-485.15 216,-487.14 211.5,-481.5 218.43,-479.52 222.93,-485.15"/>
<polygon fill="none" stroke="black" points="243.07,-514.85 250,-512.87 254.5,-518.5 247.57,-520.49 243.07,-514.85"/>
</g>
<!-- x40&#45;&gt;c18 -->
<g id="edge41" class="edge">
<title>x40:e&#45;&gt;c18:w</title>
<path fill="none" stroke="black" d="M223.53,-318.16C276.86,-335.11 189.2,-476.73 242.39,-493.81"/>
<polygon fill="none" stroke="black" points="223.39,-318.14 216.9,-321.28 211.5,-316.5 217.99,-313.36 223.39,-318.14"/>
<polygon fill="none" stroke="black" points="242.61,-493.85 249.11,-490.71 254.5,-495.5 248.01,-498.64 242.61,-493.85"/>
</g>
<!-- x41&#45;&gt;n3 -->
<g id="edge92" class="edge">
<title>x41:e&#45;&gt;n3:w</title>
<path fill="none" stroke="black" d="M557.5,-531.5C635.42,-531.5 526.11,-864.44 587.21,-894.36"/>
<polygon fill="black" stroke="black" points="586.48,-897.78 597,-896.5 587.98,-890.94 586.48,-897.78"/>
</g>
<!-- x44 -->
<g id="node64" class="node">
<title>x44</title>
<path fill="none" stroke="black" d="M452.5,-416.5C452.5,-416.5 544.5,-416.5 544.5,-416.5 550.5,-416.5 556.5,-422.5 556.5,-428.5 556.5,-428.5 556.5,-440.5 556.5,-440.5 556.5,-446.5 550.5,-452.5 544.5,-452.5 544.5,-452.5 452.5,-452.5 452.5,-452.5 446.5,-452.5 440.5,-446.5 440.5,-440.5 440.5,-440.5 440.5,-428.5 440.5,-428.5 440.5,-422.5 446.5,-416.5 452.5,-416.5"/>
<text text-anchor="middle" x="498.5" y="-430.8" font-family="Times,serif" font-size="14.00">slice [0] to [8]</text>
</g>
<!-- c19&#45;&gt;x44 -->
<g id="edge45" class="edge">
<title>c19:e&#45;&gt;x44:w</title>
<path fill="none" stroke="black" d="M408.01,-397.28C417.57,-405.05 418.37,-422.74 427.85,-430.61"/>
<polygon fill="none" stroke="black" points="407.9,-397.25 400.95,-399.17 396.5,-393.5 403.45,-391.57 407.9,-397.25"/>
<polygon fill="none" stroke="black" points="428.12,-430.69 435.08,-428.8 439.5,-434.5 432.54,-436.39 428.12,-430.69"/>
</g>
<!-- x42&#45;&gt;c19 -->
<g id="edge43" class="edge">
<title>x42:e&#45;&gt;c19:w</title>
<path fill="none" stroke="black" d="M223,-375.34C233.18,-383.84 232.83,-404.18 243.01,-412.67"/>
<polygon fill="none" stroke="black" points="222.88,-375.3 215.93,-377.19 211.5,-371.5 218.46,-369.6 222.88,-375.3"/>
<polygon fill="none" stroke="black" points="243.11,-412.71 250.07,-410.81 254.5,-416.5 247.54,-418.4 243.11,-412.71"/>
</g>
<!-- x43&#45;&gt;c19 -->
<g id="edge44" class="edge">
<title>x43:e&#45;&gt;c19:w</title>
<path fill="none" stroke="black" d="M223.65,-208.12C280.08,-225.36 185.75,-375.05 242.57,-391.95"/>
<polygon fill="none" stroke="black" points="223.4,-208.08 216.92,-211.26 211.5,-206.5 217.98,-203.33 223.4,-208.08"/>
<polygon fill="none" stroke="black" points="242.6,-391.95 249.07,-388.76 254.5,-393.5 248.03,-396.69 242.6,-391.95"/>
</g>
<!-- x44&#45;&gt;n3 -->
<g id="edge93" class="edge">
<title>x44:e&#45;&gt;n3:w</title>
<path fill="none" stroke="black" d="M557.5,-434.5C656.92,-434.5 505.34,-864.59 587.11,-894.83"/>
<polygon fill="black" stroke="black" points="586.56,-898.28 597,-896.5 587.72,-891.38 586.56,-898.28"/>
</g>
<!-- x47 -->
<g id="node68" class="node">
<title>x47</title>
<path fill="none" stroke="black" d="M452.5,-851.5C452.5,-851.5 544.5,-851.5 544.5,-851.5 550.5,-851.5 556.5,-857.5 556.5,-863.5 556.5,-863.5 556.5,-875.5 556.5,-875.5 556.5,-881.5 550.5,-887.5 544.5,-887.5 544.5,-887.5 452.5,-887.5 452.5,-887.5 446.5,-887.5 440.5,-881.5 440.5,-875.5 440.5,-875.5 440.5,-863.5 440.5,-863.5 440.5,-857.5 446.5,-851.5 452.5,-851.5"/>
<text text-anchor="middle" x="498.5" y="-865.8" font-family="Times,serif" font-size="14.00">slice [0] to [9]</text>
</g>
<!-- c20&#45;&gt;x47 -->
<g id="edge48" class="edge">
<title>c20:e&#45;&gt;x47:w</title>
<path fill="none" stroke="black" d="M408.69,-862.75C415.59,-864.26 420.54,-866.79 427.47,-868.28"/>
<polygon fill="none" stroke="black" points="408.44,-862.72 402.06,-866.09 396.5,-861.5 402.88,-858.13 408.44,-862.72"/>
<polygon fill="none" stroke="black" points="427.56,-868.29 433.93,-864.92 439.5,-869.5 433.13,-872.88 427.56,-868.29"/>
</g>
<!-- x45&#45;&gt;c20 -->
<g id="edge46" class="edge">
<title>x45:e&#45;&gt;c20:w</title>
<path fill="none" stroke="black" d="M223.4,-869C230.77,-872.44 235.26,-878.59 242.64,-882.02"/>
<polygon fill="none" stroke="black" points="223.24,-868.97 216.55,-871.65 211.5,-866.5 218.19,-863.82 223.24,-868.97"/>
<polygon fill="none" stroke="black" points="242.75,-882.04 249.45,-879.36 254.5,-884.5 247.81,-887.19 242.75,-882.04"/>
</g>
<!-- x46&#45;&gt;c20 -->
<g id="edge47" class="edge">
<title>x46:e&#45;&gt;c20:w</title>
<path fill="none" stroke="black" d="M223.38,-759.31C248.57,-774.18 217.48,-843.62 242.53,-858.63"/>
<polygon fill="none" stroke="black" points="223.18,-759.26 216.42,-761.77 211.5,-756.5 218.26,-753.99 223.18,-759.26"/>
<polygon fill="none" stroke="black" points="242.83,-858.71 249.6,-856.21 254.5,-861.5 247.73,-863.99 242.83,-858.71"/>
</g>
<!-- x47&#45;&gt;n3 -->
<g id="edge94" class="edge">
<title>x47:e&#45;&gt;n3:w</title>
<path fill="none" stroke="black" d="M557.5,-869.5C574.78,-869.5 576.02,-887.32 587.28,-894.01"/>
<polygon fill="black" stroke="black" points="586.44,-897.41 597,-896.5 588.18,-890.63 586.44,-897.41"/>
</g>
</g>
</svg>
