<?xml version="1.0" encoding="UTF-8" standalone="no"?>
<!DOCTYPE svg PUBLIC "-//W3C//DTD SVG 1.1//EN"
 "http://www.w3.org/Graphics/SVG/1.1/DTD/svg11.dtd">
<!-- Generated by graphviz version 2.43.0 (0)
 -->
<!-- Title: Mux8Way16 Pages: 1 -->
<svg width="878pt" height="575pt"
 viewBox="0.00 0.00 878.02 574.71" xmlns="http://www.w3.org/2000/svg" xmlns:xlink="http://www.w3.org/1999/xlink">
<g id="graph0" class="graph" transform="scale(1 1) rotate(0) translate(4 570.71)">
<title>Mux8Way16</title>
<polygon fill="white" stroke="transparent" points="-4,4 -4,-570.71 874.02,-570.71 874.02,4 -4,4"/>
<text text-anchor="middle" x="435.01" y="-7.8" font-family="Times,serif" font-size="14.00">Mux8Way16</text>
<!-- n1 -->
<g id="node1" class="node">
<title>n1</title>
<polygon fill="none" stroke="black" points="508.37,-333.71 433.13,-315.71 508.37,-297.71 583.61,-315.71 508.37,-333.71"/>
<text text-anchor="middle" x="508.37" y="-312.01" font-family="Times,serif" font-size="14.00">MuxaTod</text>
</g>
<!-- c13 -->
<g id="node13" class="node">
<title>c13</title>
<polygon fill="none" stroke="black" points="619.74,-134.21 619.74,-203.21 777.74,-203.21 777.74,-134.21 619.74,-134.21"/>
<text text-anchor="middle" x="638.24" y="-188.01" font-family="Times,serif" font-size="14.00">a</text>
<polyline fill="none" stroke="black" points="619.74,-180.21 656.74,-180.21 "/>
<text text-anchor="middle" x="638.24" y="-165.01" font-family="Times,serif" font-size="14.00">b</text>
<polyline fill="none" stroke="black" points="619.74,-157.21 656.74,-157.21 "/>
<text text-anchor="middle" x="638.24" y="-142.01" font-family="Times,serif" font-size="14.00">sel</text>
<polyline fill="none" stroke="black" points="656.74,-134.21 656.74,-203.21 "/>
<text text-anchor="middle" x="697.24" y="-172.51" font-family="Times,serif" font-size="14.00">mux16_2</text>
<text text-anchor="middle" x="697.24" y="-157.51" font-family="Times,serif" font-size="14.00">Mux16</text>
<polyline fill="none" stroke="black" points="737.74,-134.21 737.74,-203.21 "/>
<text text-anchor="middle" x="757.74" y="-165.01" font-family="Times,serif" font-size="14.00">out</text>
</g>
<!-- n1&#45;&gt;c13 -->
<g id="edge5" class="edge">
<title>n1:e&#45;&gt;c13:w</title>
<path fill="none" stroke="black" stroke-width="3" d="M583.74,-315.71C637.09,-315.71 572.76,-208.53 609.56,-193.46"/>
<polygon fill="black" stroke="black" stroke-width="3" points="610.48,-196.86 619.74,-191.71 609.29,-189.96 610.48,-196.86"/>
</g>
<!-- n2 -->
<g id="node2" class="node">
<title>n2</title>
<polygon fill="none" stroke="black" points="508.37,-186.71 433.13,-168.71 508.37,-150.71 583.61,-168.71 508.37,-186.71"/>
<text text-anchor="middle" x="508.37" y="-165.01" font-family="Times,serif" font-size="14.00">MuxeToh</text>
</g>
<!-- n2&#45;&gt;c13 -->
<g id="edge12" class="edge">
<title>n2:e&#45;&gt;c13:w</title>
<path fill="none" stroke="black" stroke-width="3" d="M583.74,-168.71C595.74,-168.71 600.99,-168.71 609.62,-168.71"/>
<polygon fill="black" stroke="black" stroke-width="3" points="609.74,-172.21 619.74,-168.71 609.74,-165.21 609.74,-172.21"/>
</g>
<!-- n3 -->
<g id="node3" class="node">
<title>n3</title>
<polygon fill="none" stroke="black" points="154.5,-541.25 154.5,-556.17 138.68,-566.71 116.32,-566.71 100.5,-556.17 100.5,-541.25 116.32,-530.71 138.68,-530.71 154.5,-541.25"/>
<text text-anchor="middle" x="127.5" y="-545.01" font-family="Times,serif" font-size="14.00">a</text>
</g>
<!-- c14 -->
<g id="node15" class="node">
<title>c14</title>
<polygon fill="none" stroke="black" points="201,-367.21 201,-482.21 397,-482.21 397,-367.21 201,-367.21"/>
<text text-anchor="middle" x="219.5" y="-467.01" font-family="Times,serif" font-size="14.00">a</text>
<polyline fill="none" stroke="black" points="201,-459.21 238,-459.21 "/>
<text text-anchor="middle" x="219.5" y="-444.01" font-family="Times,serif" font-size="14.00">b</text>
<polyline fill="none" stroke="black" points="201,-436.21 238,-436.21 "/>
<text text-anchor="middle" x="219.5" y="-421.01" font-family="Times,serif" font-size="14.00">c</text>
<polyline fill="none" stroke="black" points="201,-413.21 238,-413.21 "/>
<text text-anchor="middle" x="219.5" y="-398.01" font-family="Times,serif" font-size="14.00">d</text>
<polyline fill="none" stroke="black" points="201,-390.21 238,-390.21 "/>
<text text-anchor="middle" x="219.5" y="-375.01" font-family="Times,serif" font-size="14.00">sel</text>
<polyline fill="none" stroke="black" points="238,-367.21 238,-482.21 "/>
<text text-anchor="middle" x="297.5" y="-428.51" font-family="Times,serif" font-size="14.00">mux4way16_0</text>
<text text-anchor="middle" x="297.5" y="-413.51" font-family="Times,serif" font-size="14.00">Mux4Way16</text>
<polyline fill="none" stroke="black" points="357,-367.21 357,-482.21 "/>
<text text-anchor="middle" x="377" y="-421.01" font-family="Times,serif" font-size="14.00">out</text>
</g>
<!-- n3&#45;&gt;c14 -->
<g id="edge13" class="edge">
<title>n3:e&#45;&gt;c14:w</title>
<path fill="none" stroke="black" stroke-width="3" d="M155.5,-548.71C191.56,-548.71 167.16,-485.75 190.93,-472.96"/>
<polygon fill="black" stroke="black" stroke-width="3" points="192,-476.31 201,-470.71 190.48,-469.48 192,-476.31"/>
</g>
<!-- n4 -->
<g id="node4" class="node">
<title>n4</title>
<polygon fill="none" stroke="black" points="154.5,-487.25 154.5,-502.17 138.68,-512.71 116.32,-512.71 100.5,-502.17 100.5,-487.25 116.32,-476.71 138.68,-476.71 154.5,-487.25"/>
<text text-anchor="middle" x="127.5" y="-491.01" font-family="Times,serif" font-size="14.00">b</text>
</g>
<!-- n4&#45;&gt;c14 -->
<g id="edge14" class="edge">
<title>n4:e&#45;&gt;c14:w</title>
<path fill="none" stroke="black" stroke-width="3" d="M155.5,-494.71C180.49,-494.71 174.66,-460 190.98,-450.24"/>
<polygon fill="black" stroke="black" stroke-width="3" points="192.16,-453.55 201,-447.71 190.45,-446.76 192.16,-453.55"/>
</g>
<!-- n5 -->
<g id="node5" class="node">
<title>n5</title>
<polygon fill="none" stroke="black" points="154.5,-433.25 154.5,-448.17 138.68,-458.71 116.32,-458.71 100.5,-448.17 100.5,-433.25 116.32,-422.71 138.68,-422.71 154.5,-433.25"/>
<text text-anchor="middle" x="127.5" y="-437.01" font-family="Times,serif" font-size="14.00">c</text>
</g>
<!-- n5&#45;&gt;c14 -->
<g id="edge15" class="edge">
<title>n5:e&#45;&gt;c14:w</title>
<path fill="none" stroke="black" stroke-width="3" d="M155.5,-440.71C173.08,-440.71 178.01,-429.94 191.05,-426.07"/>
<polygon fill="black" stroke="black" stroke-width="3" points="191.57,-429.54 201,-424.71 190.62,-422.6 191.57,-429.54"/>
</g>
<!-- n6 -->
<g id="node6" class="node">
<title>n6</title>
<polygon fill="none" stroke="black" points="154.5,-379.25 154.5,-394.17 138.68,-404.71 116.32,-404.71 100.5,-394.17 100.5,-379.25 116.32,-368.71 138.68,-368.71 154.5,-379.25"/>
<text text-anchor="middle" x="127.5" y="-383.01" font-family="Times,serif" font-size="14.00">d</text>
</g>
<!-- n6&#45;&gt;c14 -->
<g id="edge16" class="edge">
<title>n6:e&#45;&gt;c14:w</title>
<path fill="none" stroke="black" stroke-width="3" d="M155.5,-386.71C172.8,-386.71 177.97,-396.61 190.72,-400.33"/>
<polygon fill="black" stroke="black" stroke-width="3" points="190.62,-403.84 201,-401.71 191.56,-396.91 190.62,-403.84"/>
</g>
<!-- n7 -->
<g id="node7" class="node">
<title>n7</title>
<polygon fill="none" stroke="black" points="154.5,-269.25 154.5,-284.17 138.68,-294.71 116.32,-294.71 100.5,-284.17 100.5,-269.25 116.32,-258.71 138.68,-258.71 154.5,-269.25"/>
<text text-anchor="middle" x="127.5" y="-273.01" font-family="Times,serif" font-size="14.00">e</text>
</g>
<!-- c15 -->
<g id="node17" class="node">
<title>c15</title>
<polygon fill="none" stroke="black" points="201,-111.21 201,-226.21 397,-226.21 397,-111.21 201,-111.21"/>
<text text-anchor="middle" x="219.5" y="-211.01" font-family="Times,serif" font-size="14.00">a</text>
<polyline fill="none" stroke="black" points="201,-203.21 238,-203.21 "/>
<text text-anchor="middle" x="219.5" y="-188.01" font-family="Times,serif" font-size="14.00">b</text>
<polyline fill="none" stroke="black" points="201,-180.21 238,-180.21 "/>
<text text-anchor="middle" x="219.5" y="-165.01" font-family="Times,serif" font-size="14.00">c</text>
<polyline fill="none" stroke="black" points="201,-157.21 238,-157.21 "/>
<text text-anchor="middle" x="219.5" y="-142.01" font-family="Times,serif" font-size="14.00">d</text>
<polyline fill="none" stroke="black" points="201,-134.21 238,-134.21 "/>
<text text-anchor="middle" x="219.5" y="-119.01" font-family="Times,serif" font-size="14.00">sel</text>
<polyline fill="none" stroke="black" points="238,-111.21 238,-226.21 "/>
<text text-anchor="middle" x="297.5" y="-172.51" font-family="Times,serif" font-size="14.00">mux4way16_1</text>
<text text-anchor="middle" x="297.5" y="-157.51" font-family="Times,serif" font-size="14.00">Mux4Way16</text>
<polyline fill="none" stroke="black" points="357,-111.21 357,-226.21 "/>
<text text-anchor="middle" x="377" y="-165.01" font-family="Times,serif" font-size="14.00">out</text>
</g>
<!-- n7&#45;&gt;c15 -->
<g id="edge17" class="edge">
<title>n7:e&#45;&gt;c15:w</title>
<path fill="none" stroke="black" stroke-width="3" d="M155.5,-276.71C185.67,-276.71 171.39,-228.39 191.15,-217.07"/>
<polygon fill="black" stroke="black" stroke-width="3" points="192.09,-220.44 201,-214.71 190.46,-213.63 192.09,-220.44"/>
</g>
<!-- n8 -->
<g id="node8" class="node">
<title>n8</title>
<polygon fill="none" stroke="black" points="154.5,-215.25 154.5,-230.17 138.68,-240.71 116.32,-240.71 100.5,-230.17 100.5,-215.25 116.32,-204.71 138.68,-204.71 154.5,-215.25"/>
<text text-anchor="middle" x="127.5" y="-219.01" font-family="Times,serif" font-size="14.00">f</text>
</g>
<!-- n8&#45;&gt;c15 -->
<g id="edge18" class="edge">
<title>n8:e&#45;&gt;c15:w</title>
<path fill="none" stroke="black" stroke-width="3" d="M155.5,-222.71C175.96,-222.71 176.91,-201.05 190.96,-193.94"/>
<polygon fill="black" stroke="black" stroke-width="3" points="192,-197.3 201,-191.71 190.48,-190.46 192,-197.3"/>
</g>
<!-- n9 -->
<g id="node9" class="node">
<title>n9</title>
<polygon fill="none" stroke="black" points="154.5,-161.25 154.5,-176.17 138.68,-186.71 116.32,-186.71 100.5,-176.17 100.5,-161.25 116.32,-150.71 138.68,-150.71 154.5,-161.25"/>
<text text-anchor="middle" x="127.5" y="-165.01" font-family="Times,serif" font-size="14.00">g</text>
</g>
<!-- n9&#45;&gt;c15 -->
<g id="edge19" class="edge">
<title>n9:e&#45;&gt;c15:w</title>
<path fill="none" stroke="black" stroke-width="3" d="M155.5,-168.71C171.77,-168.71 178.22,-168.71 190.66,-168.71"/>
<polygon fill="black" stroke="black" stroke-width="3" points="191,-172.21 201,-168.71 191,-165.21 191,-172.21"/>
</g>
<!-- n10 -->
<g id="node10" class="node">
<title>n10</title>
<polygon fill="none" stroke="black" points="154.5,-107.25 154.5,-122.17 138.68,-132.71 116.32,-132.71 100.5,-122.17 100.5,-107.25 116.32,-96.71 138.68,-96.71 154.5,-107.25"/>
<text text-anchor="middle" x="127.5" y="-111.01" font-family="Times,serif" font-size="14.00">h</text>
</g>
<!-- n10&#45;&gt;c15 -->
<g id="edge6" class="edge">
<title>n10:e&#45;&gt;c15:w</title>
<path fill="none" stroke="black" stroke-width="3" d="M155.5,-114.71C175.96,-114.71 176.91,-136.37 190.96,-143.48"/>
<polygon fill="black" stroke="black" stroke-width="3" points="190.48,-146.96 201,-145.71 192,-140.13 190.48,-146.96"/>
</g>
<!-- n11 -->
<g id="node11" class="node">
<title>n11</title>
<polygon fill="none" stroke="black" points="870.16,-161.25 870.16,-176.17 853.6,-186.71 830.17,-186.71 813.6,-176.17 813.6,-161.25 830.17,-150.71 853.6,-150.71 870.16,-161.25"/>
<text text-anchor="middle" x="841.88" y="-165.01" font-family="Times,serif" font-size="14.00">out</text>
</g>
<!-- n12 -->
<g id="node12" class="node">
<title>n12</title>
<polygon fill="none" stroke="black" points="54,-52.25 54,-67.17 38.18,-77.71 15.82,-77.71 0,-67.17 0,-52.25 15.82,-41.71 38.18,-41.71 54,-52.25"/>
<text text-anchor="middle" x="27" y="-56.01" font-family="Times,serif" font-size="14.00">sel</text>
</g>
<!-- x0 -->
<g id="node14" class="node">
<title>x0</title>
<path fill="none" stroke="black" d="M273.5,-25.71C273.5,-25.71 324.5,-25.71 324.5,-25.71 330.5,-25.71 336.5,-31.71 336.5,-37.71 336.5,-37.71 336.5,-49.71 336.5,-49.71 336.5,-55.71 330.5,-61.71 324.5,-61.71 324.5,-61.71 273.5,-61.71 273.5,-61.71 267.5,-61.71 261.5,-55.71 261.5,-49.71 261.5,-49.71 261.5,-37.71 261.5,-37.71 261.5,-31.71 267.5,-25.71 273.5,-25.71"/>
<text text-anchor="middle" x="299" y="-40.01" font-family="Times,serif" font-size="14.00">2:2 &#45; 0:0</text>
</g>
<!-- n12&#45;&gt;x0 -->
<g id="edge8" class="edge">
<title>n12:e&#45;&gt;x0:w</title>
<path fill="none" stroke="black" d="M54,-59.71C74.27,-59.71 70.83,-38.29 90,-31.71 158.29,-8.28 182.03,-40.42 249.69,-43.48"/>
<polygon fill="black" stroke="black" points="249.92,-46.99 260,-43.71 250.08,-39.99 249.92,-46.99"/>
</g>
<!-- x1 -->
<g id="node16" class="node">
<title>x1</title>
<path fill="none" stroke="black" d="M102,-313.71C102,-313.71 153,-313.71 153,-313.71 159,-313.71 165,-319.71 165,-325.71 165,-325.71 165,-337.71 165,-337.71 165,-343.71 159,-349.71 153,-349.71 153,-349.71 102,-349.71 102,-349.71 96,-349.71 90,-343.71 90,-337.71 90,-337.71 90,-325.71 90,-325.71 90,-319.71 96,-313.71 102,-313.71"/>
<text text-anchor="middle" x="127.5" y="-328.01" font-family="Times,serif" font-size="14.00">1:0 &#45; 1:0</text>
</g>
<!-- n12&#45;&gt;x1 -->
<g id="edge9" class="edge">
<title>n12:e&#45;&gt;x1:w</title>
<path fill="none" stroke="black" stroke-width="3" d="M54,-59.71C111.16,-59.71 39.2,-298.77 80.22,-328.66"/>
<polygon fill="black" stroke="black" stroke-width="3" points="79.41,-332.07 90,-331.71 81.5,-325.39 79.41,-332.07"/>
</g>
<!-- x2 -->
<g id="node18" class="node">
<title>x2</title>
<path fill="none" stroke="black" d="M102,-41.71C102,-41.71 153,-41.71 153,-41.71 159,-41.71 165,-47.71 165,-53.71 165,-53.71 165,-65.71 165,-65.71 165,-71.71 159,-77.71 153,-77.71 153,-77.71 102,-77.71 102,-77.71 96,-77.71 90,-71.71 90,-65.71 90,-65.71 90,-53.71 90,-53.71 90,-47.71 96,-41.71 102,-41.71"/>
<text text-anchor="middle" x="127.5" y="-56.01" font-family="Times,serif" font-size="14.00">1:0 &#45; 1:0</text>
</g>
<!-- n12&#45;&gt;x2 -->
<g id="edge10" class="edge">
<title>n12:e&#45;&gt;x2:w</title>
<path fill="none" stroke="black" stroke-width="3" d="M54,-59.71C66,-59.71 71.25,-59.71 79.88,-59.71"/>
<polygon fill="black" stroke="black" stroke-width="3" points="80,-63.21 90,-59.71 80,-56.21 80,-63.21"/>
</g>
<!-- c13&#45;&gt;n11 -->
<g id="edge7" class="edge">
<title>c13:e&#45;&gt;n11:w</title>
<path fill="none" stroke="black" stroke-width="3" d="M777.74,-168.71C789.74,-168.71 794.99,-168.71 803.62,-168.71"/>
<polygon fill="black" stroke="black" stroke-width="3" points="803.74,-172.21 813.74,-168.71 803.74,-165.21 803.74,-172.21"/>
</g>
<!-- x0&#45;&gt;c13 -->
<g id="edge1" class="edge">
<title>x0:e&#45;&gt;c13:w</title>
<path fill="none" stroke="black" d="M350.07,-44.66C416.85,-54.32 540.72,-135.01 607.56,-144.75"/>
<polygon fill="none" stroke="black" points="349.96,-44.65 343.67,-48.17 338,-43.71 344.29,-40.19 349.96,-44.65"/>
<polygon fill="none" stroke="black" points="607.78,-144.77 614.07,-141.25 619.74,-145.71 613.45,-149.23 607.78,-144.77"/>
</g>
<!-- c14&#45;&gt;n1 -->
<g id="edge4" class="edge">
<title>c14:e&#45;&gt;n1:w</title>
<path fill="none" stroke="black" stroke-width="3" d="M397,-424.71C444.03,-424.71 391.59,-332.08 423.07,-317.6"/>
<polygon fill="black" stroke="black" stroke-width="3" points="423.83,-321.02 433,-315.71 422.52,-314.14 423.83,-321.02"/>
</g>
<!-- x1&#45;&gt;c14 -->
<g id="edge2" class="edge">
<title>x1:e&#45;&gt;c14:w</title>
<path fill="none" stroke="black" stroke-width="3" d="M176.14,-336.39C183.96,-345.4 182.04,-365.06 189.87,-374.05"/>
<polygon fill="none" stroke="black" stroke-width="3" points="176.06,-336.36 168.98,-337.72 165,-331.71 172.08,-330.34 176.06,-336.36"/>
<polygon fill="none" stroke="black" stroke-width="3" points="189.93,-374.08 197.01,-372.7 201,-378.71 193.92,-380.08 189.93,-374.08"/>
</g>
<!-- c15&#45;&gt;n2 -->
<g id="edge11" class="edge">
<title>c15:e&#45;&gt;n2:w</title>
<path fill="none" stroke="black" stroke-width="3" d="M397,-168.71C409,-168.71 414.25,-168.71 422.88,-168.71"/>
<polygon fill="black" stroke="black" stroke-width="3" points="423,-172.21 433,-168.71 423,-165.21 423,-172.21"/>
</g>
<!-- x2&#45;&gt;c15 -->
<g id="edge3" class="edge">
<title>x2:e&#45;&gt;c15:w</title>
<path fill="none" stroke="black" stroke-width="3" d="M176.5,-64.24C186.99,-75.87 179.01,-106.64 189.53,-118.22"/>
<polygon fill="none" stroke="black" stroke-width="3" points="176.17,-64.11 169.12,-65.63 165,-59.71 172.05,-58.19 176.17,-64.11"/>
<polygon fill="none" stroke="black" stroke-width="3" points="189.83,-118.34 196.87,-116.8 201,-122.71 193.95,-124.25 189.83,-118.34"/>
</g>
</g>
</svg>
