<?xml version="1.0" encoding="UTF-8" standalone="no"?>
<!DOCTYPE svg PUBLIC "-//W3C//DTD SVG 1.1//EN"
 "http://www.w3.org/Graphics/SVG/1.1/DTD/svg11.dtd">
<!-- Generated by graphviz version 2.43.0 (0)
 -->
<!-- Title: Not16 Pages: 1 -->
<svg width="647pt" height="925pt"
 viewBox="0.00 0.00 647.28 925.00" xmlns="http://www.w3.org/2000/svg" xmlns:xlink="http://www.w3.org/1999/xlink">
<g id="graph0" class="graph" transform="scale(1 1) rotate(0) translate(4 921)">
<title>Not16</title>
<polygon fill="white" stroke="transparent" points="-4,4 -4,-921 643.28,-921 643.28,4 -4,4"/>
<text text-anchor="middle" x="319.64" y="-7.8" font-family="Times,serif" font-size="14.00">Not16</text>
<!-- n1 -->
<g id="node1" class="node">
<title>n1</title>
<polygon fill="none" stroke="black" points="54,-462.04 54,-476.96 38.18,-487.5 15.82,-487.5 0,-476.96 0,-462.04 15.82,-451.5 38.18,-451.5 54,-462.04"/>
<text text-anchor="middle" x="27" y="-465.8" font-family="Times,serif" font-size="14.00">in</text>
</g>
<!-- x0 -->
<g id="node4" class="node">
<title>x0</title>
<path fill="none" stroke="black" d="M106.5,-877.5C106.5,-877.5 198.5,-877.5 198.5,-877.5 204.5,-877.5 210.5,-883.5 210.5,-889.5 210.5,-889.5 210.5,-901.5 210.5,-901.5 210.5,-907.5 204.5,-913.5 198.5,-913.5 198.5,-913.5 106.5,-913.5 106.5,-913.5 100.5,-913.5 94.5,-907.5 94.5,-901.5 94.5,-901.5 94.5,-889.5 94.5,-889.5 94.5,-883.5 100.5,-877.5 106.5,-877.5"/>
<text text-anchor="middle" x="152.5" y="-891.8" font-family="Times,serif" font-size="14.00">slice [0] to [0]</text>
</g>
<!-- n1&#45;&gt;x0 -->
<g id="edge33" class="edge">
<title>n1:e&#45;&gt;x0:w</title>
<path fill="none" stroke="black" d="M54,-469.5C145.36,-469.5 9.82,-862.87 83.45,-893.6"/>
<polygon fill="black" stroke="black" points="83.02,-897.08 93.5,-895.5 84.32,-890.2 83.02,-897.08"/>
</g>
<!-- x2 -->
<g id="node7" class="node">
<title>x2</title>
<path fill="none" stroke="black" d="M106.5,-820.5C106.5,-820.5 198.5,-820.5 198.5,-820.5 204.5,-820.5 210.5,-826.5 210.5,-832.5 210.5,-832.5 210.5,-844.5 210.5,-844.5 210.5,-850.5 204.5,-856.5 198.5,-856.5 198.5,-856.5 106.5,-856.5 106.5,-856.5 100.5,-856.5 94.5,-850.5 94.5,-844.5 94.5,-844.5 94.5,-832.5 94.5,-832.5 94.5,-826.5 100.5,-820.5 106.5,-820.5"/>
<text text-anchor="middle" x="152.5" y="-834.8" font-family="Times,serif" font-size="14.00">slice [1] to [0]</text>
</g>
<!-- n1&#45;&gt;x2 -->
<g id="edge44" class="edge">
<title>n1:e&#45;&gt;x2:w</title>
<path fill="none" stroke="black" d="M54,-469.5C132.76,-469.5 21.88,-806.09 83.61,-836.33"/>
<polygon fill="black" stroke="black" points="82.98,-839.78 93.5,-838.5 84.48,-832.94 82.98,-839.78"/>
</g>
<!-- x4 -->
<g id="node10" class="node">
<title>x4</title>
<path fill="none" stroke="black" d="M102,-763.5C102,-763.5 203,-763.5 203,-763.5 209,-763.5 215,-769.5 215,-775.5 215,-775.5 215,-787.5 215,-787.5 215,-793.5 209,-799.5 203,-799.5 203,-799.5 102,-799.5 102,-799.5 96,-799.5 90,-793.5 90,-787.5 90,-787.5 90,-775.5 90,-775.5 90,-769.5 96,-763.5 102,-763.5"/>
<text text-anchor="middle" x="152.5" y="-777.8" font-family="Times,serif" font-size="14.00">slice [10] to [0]</text>
</g>
<!-- n1&#45;&gt;x4 -->
<g id="edge46" class="edge">
<title>n1:e&#45;&gt;x4:w</title>
<path fill="none" stroke="black" d="M54,-469.5C119.98,-469.5 31.02,-748.31 80.05,-778.8"/>
<polygon fill="black" stroke="black" points="79.43,-782.26 90,-781.5 81.26,-775.51 79.43,-782.26"/>
</g>
<!-- x6 -->
<g id="node13" class="node">
<title>x6</title>
<path fill="none" stroke="black" d="M102,-706.5C102,-706.5 203,-706.5 203,-706.5 209,-706.5 215,-712.5 215,-718.5 215,-718.5 215,-730.5 215,-730.5 215,-736.5 209,-742.5 203,-742.5 203,-742.5 102,-742.5 102,-742.5 96,-742.5 90,-736.5 90,-730.5 90,-730.5 90,-718.5 90,-718.5 90,-712.5 96,-706.5 102,-706.5"/>
<text text-anchor="middle" x="152.5" y="-720.8" font-family="Times,serif" font-size="14.00">slice [11] to [0]</text>
</g>
<!-- n1&#45;&gt;x6 -->
<g id="edge47" class="edge">
<title>n1:e&#45;&gt;x6:w</title>
<path fill="none" stroke="black" d="M54,-469.5C107.43,-469.5 42.59,-691.76 80.31,-721.28"/>
<polygon fill="black" stroke="black" points="79.41,-724.66 90,-724.5 81.62,-718.02 79.41,-724.66"/>
</g>
<!-- x8 -->
<g id="node16" class="node">
<title>x8</title>
<path fill="none" stroke="black" d="M102,-649.5C102,-649.5 203,-649.5 203,-649.5 209,-649.5 215,-655.5 215,-661.5 215,-661.5 215,-673.5 215,-673.5 215,-679.5 209,-685.5 203,-685.5 203,-685.5 102,-685.5 102,-685.5 96,-685.5 90,-679.5 90,-673.5 90,-673.5 90,-661.5 90,-661.5 90,-655.5 96,-649.5 102,-649.5"/>
<text text-anchor="middle" x="152.5" y="-663.8" font-family="Times,serif" font-size="14.00">slice [12] to [0]</text>
</g>
<!-- n1&#45;&gt;x8 -->
<g id="edge48" class="edge">
<title>n1:e&#45;&gt;x8:w</title>
<path fill="none" stroke="black" d="M54,-469.5C139.6,-469.5 12.41,-650.85 79.72,-666.43"/>
<polygon fill="black" stroke="black" points="79.69,-669.95 90,-667.5 80.41,-662.99 79.69,-669.95"/>
</g>
<!-- x10 -->
<g id="node19" class="node">
<title>x10</title>
<path fill="none" stroke="black" d="M102,-592.5C102,-592.5 203,-592.5 203,-592.5 209,-592.5 215,-598.5 215,-604.5 215,-604.5 215,-616.5 215,-616.5 215,-622.5 209,-628.5 203,-628.5 203,-628.5 102,-628.5 102,-628.5 96,-628.5 90,-622.5 90,-616.5 90,-616.5 90,-604.5 90,-604.5 90,-598.5 96,-592.5 102,-592.5"/>
<text text-anchor="middle" x="152.5" y="-606.8" font-family="Times,serif" font-size="14.00">slice [13] to [0]</text>
</g>
<!-- n1&#45;&gt;x10 -->
<g id="edge34" class="edge">
<title>n1:e&#45;&gt;x10:w</title>
<path fill="none" stroke="black" d="M54,-469.5C114.76,-469.5 36.05,-593.94 79.92,-609.01"/>
<polygon fill="black" stroke="black" points="79.6,-612.5 90,-610.5 80.62,-605.58 79.6,-612.5"/>
</g>
<!-- x12 -->
<g id="node22" class="node">
<title>x12</title>
<path fill="none" stroke="black" d="M102,-535.5C102,-535.5 203,-535.5 203,-535.5 209,-535.5 215,-541.5 215,-547.5 215,-547.5 215,-559.5 215,-559.5 215,-565.5 209,-571.5 203,-571.5 203,-571.5 102,-571.5 102,-571.5 96,-571.5 90,-565.5 90,-559.5 90,-559.5 90,-547.5 90,-547.5 90,-541.5 96,-535.5 102,-535.5"/>
<text text-anchor="middle" x="152.5" y="-549.8" font-family="Times,serif" font-size="14.00">slice [14] to [0]</text>
</g>
<!-- n1&#45;&gt;x12 -->
<g id="edge35" class="edge">
<title>n1:e&#45;&gt;x12:w</title>
<path fill="none" stroke="black" d="M54,-469.5C90.49,-469.5 57.69,-537.3 80.1,-551.08"/>
<polygon fill="black" stroke="black" points="79.45,-554.52 90,-553.5 81.12,-547.72 79.45,-554.52"/>
</g>
<!-- x14 -->
<g id="node25" class="node">
<title>x14</title>
<path fill="none" stroke="black" d="M102,-479.5C102,-479.5 203,-479.5 203,-479.5 209,-479.5 215,-485.5 215,-491.5 215,-491.5 215,-503.5 215,-503.5 215,-509.5 209,-515.5 203,-515.5 203,-515.5 102,-515.5 102,-515.5 96,-515.5 90,-509.5 90,-503.5 90,-503.5 90,-491.5 90,-491.5 90,-485.5 96,-479.5 102,-479.5"/>
<text text-anchor="middle" x="152.5" y="-493.8" font-family="Times,serif" font-size="14.00">slice [15] to [0]</text>
</g>
<!-- n1&#45;&gt;x14 -->
<g id="edge36" class="edge">
<title>n1:e&#45;&gt;x14:w</title>
<path fill="none" stroke="black" d="M54,-469.5C70.15,-469.5 70.55,-487.28 80.3,-494.5"/>
<polygon fill="black" stroke="black" points="79.41,-497.89 90,-497.5 81.48,-491.2 79.41,-497.89"/>
</g>
<!-- x16 -->
<g id="node28" class="node">
<title>x16</title>
<path fill="none" stroke="black" d="M106.5,-424.5C106.5,-424.5 198.5,-424.5 198.5,-424.5 204.5,-424.5 210.5,-430.5 210.5,-436.5 210.5,-436.5 210.5,-448.5 210.5,-448.5 210.5,-454.5 204.5,-460.5 198.5,-460.5 198.5,-460.5 106.5,-460.5 106.5,-460.5 100.5,-460.5 94.5,-454.5 94.5,-448.5 94.5,-448.5 94.5,-436.5 94.5,-436.5 94.5,-430.5 100.5,-424.5 106.5,-424.5"/>
<text text-anchor="middle" x="152.5" y="-438.8" font-family="Times,serif" font-size="14.00">slice [2] to [0]</text>
</g>
<!-- n1&#45;&gt;x16 -->
<g id="edge37" class="edge">
<title>n1:e&#45;&gt;x16:w</title>
<path fill="none" stroke="black" d="M54,-469.5C71.28,-469.5 72.52,-451.68 83.78,-444.99"/>
<polygon fill="black" stroke="black" points="84.68,-448.37 93.5,-442.5 82.94,-441.59 84.68,-448.37"/>
</g>
<!-- x18 -->
<g id="node31" class="node">
<title>x18</title>
<path fill="none" stroke="black" d="M106.5,-369.5C106.5,-369.5 198.5,-369.5 198.5,-369.5 204.5,-369.5 210.5,-375.5 210.5,-381.5 210.5,-381.5 210.5,-393.5 210.5,-393.5 210.5,-399.5 204.5,-405.5 198.5,-405.5 198.5,-405.5 106.5,-405.5 106.5,-405.5 100.5,-405.5 94.5,-399.5 94.5,-393.5 94.5,-393.5 94.5,-381.5 94.5,-381.5 94.5,-375.5 100.5,-369.5 106.5,-369.5"/>
<text text-anchor="middle" x="152.5" y="-383.8" font-family="Times,serif" font-size="14.00">slice [3] to [0]</text>
</g>
<!-- n1&#45;&gt;x18 -->
<g id="edge38" class="edge">
<title>n1:e&#45;&gt;x18:w</title>
<path fill="none" stroke="black" d="M54,-469.5C90.34,-469.5 60.61,-403.31 83.54,-389.87"/>
<polygon fill="black" stroke="black" points="84.58,-393.22 93.5,-387.5 82.96,-386.4 84.58,-393.22"/>
</g>
<!-- x20 -->
<g id="node34" class="node">
<title>x20</title>
<path fill="none" stroke="black" d="M106.5,-314.5C106.5,-314.5 198.5,-314.5 198.5,-314.5 204.5,-314.5 210.5,-320.5 210.5,-326.5 210.5,-326.5 210.5,-338.5 210.5,-338.5 210.5,-344.5 204.5,-350.5 198.5,-350.5 198.5,-350.5 106.5,-350.5 106.5,-350.5 100.5,-350.5 94.5,-344.5 94.5,-338.5 94.5,-338.5 94.5,-326.5 94.5,-326.5 94.5,-320.5 100.5,-314.5 106.5,-314.5"/>
<text text-anchor="middle" x="152.5" y="-328.8" font-family="Times,serif" font-size="14.00">slice [4] to [0]</text>
</g>
<!-- n1&#45;&gt;x20 -->
<g id="edge39" class="edge">
<title>n1:e&#45;&gt;x20:w</title>
<path fill="none" stroke="black" d="M54,-469.5C113.53,-469.5 40.14,-348.59 83.58,-333.95"/>
<polygon fill="black" stroke="black" points="84.11,-337.41 93.5,-332.5 83.1,-330.48 84.11,-337.41"/>
</g>
<!-- x22 -->
<g id="node37" class="node">
<title>x22</title>
<path fill="none" stroke="black" d="M106.5,-259.5C106.5,-259.5 198.5,-259.5 198.5,-259.5 204.5,-259.5 210.5,-265.5 210.5,-271.5 210.5,-271.5 210.5,-283.5 210.5,-283.5 210.5,-289.5 204.5,-295.5 198.5,-295.5 198.5,-295.5 106.5,-295.5 106.5,-295.5 100.5,-295.5 94.5,-289.5 94.5,-283.5 94.5,-283.5 94.5,-271.5 94.5,-271.5 94.5,-265.5 100.5,-259.5 106.5,-259.5"/>
<text text-anchor="middle" x="152.5" y="-273.8" font-family="Times,serif" font-size="14.00">slice [5] to [0]</text>
</g>
<!-- n1&#45;&gt;x22 -->
<g id="edge40" class="edge">
<title>n1:e&#45;&gt;x22:w</title>
<path fill="none" stroke="black" d="M54,-469.5C137.38,-469.5 17.55,-293.65 83.46,-278.53"/>
<polygon fill="black" stroke="black" points="83.91,-282.01 93.5,-277.5 83.19,-275.04 83.91,-282.01"/>
</g>
<!-- x24 -->
<g id="node40" class="node">
<title>x24</title>
<path fill="none" stroke="black" d="M106.5,-203.5C106.5,-203.5 198.5,-203.5 198.5,-203.5 204.5,-203.5 210.5,-209.5 210.5,-215.5 210.5,-215.5 210.5,-227.5 210.5,-227.5 210.5,-233.5 204.5,-239.5 198.5,-239.5 198.5,-239.5 106.5,-239.5 106.5,-239.5 100.5,-239.5 94.5,-233.5 94.5,-227.5 94.5,-227.5 94.5,-215.5 94.5,-215.5 94.5,-209.5 100.5,-203.5 106.5,-203.5"/>
<text text-anchor="middle" x="152.5" y="-217.8" font-family="Times,serif" font-size="14.00">slice [6] to [0]</text>
</g>
<!-- n1&#45;&gt;x24 -->
<g id="edge41" class="edge">
<title>n1:e&#45;&gt;x24:w</title>
<path fill="none" stroke="black" d="M54,-469.5C106.1,-469.5 46.71,-253.34 84,-224.64"/>
<polygon fill="black" stroke="black" points="85.1,-227.96 93.5,-221.5 82.91,-221.31 85.1,-227.96"/>
</g>
<!-- x26 -->
<g id="node43" class="node">
<title>x26</title>
<path fill="none" stroke="black" d="M106.5,-146.5C106.5,-146.5 198.5,-146.5 198.5,-146.5 204.5,-146.5 210.5,-152.5 210.5,-158.5 210.5,-158.5 210.5,-170.5 210.5,-170.5 210.5,-176.5 204.5,-182.5 198.5,-182.5 198.5,-182.5 106.5,-182.5 106.5,-182.5 100.5,-182.5 94.5,-176.5 94.5,-170.5 94.5,-170.5 94.5,-158.5 94.5,-158.5 94.5,-152.5 100.5,-146.5 106.5,-146.5"/>
<text text-anchor="middle" x="152.5" y="-160.8" font-family="Times,serif" font-size="14.00">slice [7] to [0]</text>
</g>
<!-- n1&#45;&gt;x26 -->
<g id="edge42" class="edge">
<title>n1:e&#45;&gt;x26:w</title>
<path fill="none" stroke="black" d="M54,-469.5C118.61,-469.5 35.29,-196.95 83.72,-167.14"/>
<polygon fill="black" stroke="black" points="84.76,-170.48 93.5,-164.5 82.93,-163.72 84.76,-170.48"/>
</g>
<!-- x28 -->
<g id="node46" class="node">
<title>x28</title>
<path fill="none" stroke="black" d="M106.5,-88.5C106.5,-88.5 198.5,-88.5 198.5,-88.5 204.5,-88.5 210.5,-94.5 210.5,-100.5 210.5,-100.5 210.5,-112.5 210.5,-112.5 210.5,-118.5 204.5,-124.5 198.5,-124.5 198.5,-124.5 106.5,-124.5 106.5,-124.5 100.5,-124.5 94.5,-118.5 94.5,-112.5 94.5,-112.5 94.5,-100.5 94.5,-100.5 94.5,-94.5 100.5,-88.5 106.5,-88.5"/>
<text text-anchor="middle" x="152.5" y="-102.8" font-family="Times,serif" font-size="14.00">slice [8] to [0]</text>
</g>
<!-- n1&#45;&gt;x28 -->
<g id="edge43" class="edge">
<title>n1:e&#45;&gt;x28:w</title>
<path fill="none" stroke="black" d="M54,-469.5C131.34,-469.5 23.42,-139.73 83.39,-108.82"/>
<polygon fill="black" stroke="black" points="84.54,-112.15 93.5,-106.5 82.97,-105.32 84.54,-112.15"/>
</g>
<!-- x30 -->
<g id="node49" class="node">
<title>x30</title>
<path fill="none" stroke="black" d="M106.5,-26.5C106.5,-26.5 198.5,-26.5 198.5,-26.5 204.5,-26.5 210.5,-32.5 210.5,-38.5 210.5,-38.5 210.5,-50.5 210.5,-50.5 210.5,-56.5 204.5,-62.5 198.5,-62.5 198.5,-62.5 106.5,-62.5 106.5,-62.5 100.5,-62.5 94.5,-56.5 94.5,-50.5 94.5,-50.5 94.5,-38.5 94.5,-38.5 94.5,-32.5 100.5,-26.5 106.5,-26.5"/>
<text text-anchor="middle" x="152.5" y="-40.8" font-family="Times,serif" font-size="14.00">slice [9] to [0]</text>
</g>
<!-- n1&#45;&gt;x30 -->
<g id="edge45" class="edge">
<title>n1:e&#45;&gt;x30:w</title>
<path fill="none" stroke="black" d="M54,-469.5C145.15,-469.5 10.01,-77.05 83.48,-46.39"/>
<polygon fill="black" stroke="black" points="84.32,-49.8 93.5,-44.5 83.02,-42.92 84.32,-49.8"/>
</g>
<!-- n2 -->
<g id="node2" class="node">
<title>n2</title>
<polygon fill="none" stroke="black" points="639.42,-462.04 639.42,-476.96 622.85,-487.5 599.43,-487.5 582.86,-476.96 582.86,-462.04 599.43,-451.5 622.85,-451.5 639.42,-462.04"/>
<text text-anchor="middle" x="611.14" y="-465.8" font-family="Times,serif" font-size="14.00">out</text>
</g>
<!-- c3 -->
<g id="node3" class="node">
<title>c3</title>
<polygon fill="none" stroke="black" points="255.5,-878.5 255.5,-916.5 381.5,-916.5 381.5,-878.5 255.5,-878.5"/>
<text text-anchor="middle" x="270.5" y="-893.8" font-family="Times,serif" font-size="14.00">in</text>
<polyline fill="none" stroke="black" points="285.5,-878.5 285.5,-916.5 "/>
<text text-anchor="middle" x="313.5" y="-901.3" font-family="Times,serif" font-size="14.00">not_0</text>
<text text-anchor="middle" x="313.5" y="-886.3" font-family="Times,serif" font-size="14.00">Not</text>
<polyline fill="none" stroke="black" points="341.5,-878.5 341.5,-916.5 "/>
<text text-anchor="middle" x="361.5" y="-893.8" font-family="Times,serif" font-size="14.00">out</text>
</g>
<!-- x1 -->
<g id="node5" class="node">
<title>x1</title>
<path fill="none" stroke="black" d="M438.5,-877.5C438.5,-877.5 530.5,-877.5 530.5,-877.5 536.5,-877.5 542.5,-883.5 542.5,-889.5 542.5,-889.5 542.5,-901.5 542.5,-901.5 542.5,-907.5 536.5,-913.5 530.5,-913.5 530.5,-913.5 438.5,-913.5 438.5,-913.5 432.5,-913.5 426.5,-907.5 426.5,-901.5 426.5,-901.5 426.5,-889.5 426.5,-889.5 426.5,-883.5 432.5,-877.5 438.5,-877.5"/>
<text text-anchor="middle" x="484.5" y="-891.8" font-family="Times,serif" font-size="14.00">slice [0] to [0]</text>
</g>
<!-- c3&#45;&gt;x1 -->
<g id="edge2" class="edge">
<title>c3:e&#45;&gt;x1:w</title>
<path fill="none" stroke="black" d="M394.6,-897.19C401.36,-896.82 406.37,-896.21 413.08,-895.83"/>
<polygon fill="none" stroke="black" points="394.5,-897.19 388.6,-901.34 382.5,-897.5 388.39,-893.35 394.5,-897.19"/>
<polygon fill="none" stroke="black" points="413.5,-895.82 419.4,-891.66 425.5,-895.5 419.61,-899.66 413.5,-895.82"/>
</g>
<!-- x0&#45;&gt;c3 -->
<g id="edge1" class="edge">
<title>x0:e&#45;&gt;c3:w</title>
<path fill="none" stroke="black" d="M223.6,-895.81C230.36,-896.18 235.37,-896.79 242.08,-897.17"/>
<polygon fill="none" stroke="black" points="223.5,-895.81 217.39,-899.65 211.5,-895.5 217.6,-891.66 223.5,-895.81"/>
<polygon fill="none" stroke="black" points="242.5,-897.18 248.61,-893.34 254.5,-897.5 248.4,-901.34 242.5,-897.18"/>
</g>
<!-- x1&#45;&gt;n2 -->
<g id="edge54" class="edge">
<title>x1:e&#45;&gt;n2:w</title>
<path fill="none" stroke="black" d="M543.5,-895.5C634.86,-895.5 499.32,-502.13 572.95,-471.4"/>
<polygon fill="black" stroke="black" points="573.82,-474.8 583,-469.5 572.52,-467.92 573.82,-474.8"/>
</g>
<!-- c4 -->
<g id="node6" class="node">
<title>c4</title>
<polygon fill="none" stroke="black" points="255.5,-821.5 255.5,-859.5 381.5,-859.5 381.5,-821.5 255.5,-821.5"/>
<text text-anchor="middle" x="270.5" y="-836.8" font-family="Times,serif" font-size="14.00">in</text>
<polyline fill="none" stroke="black" points="285.5,-821.5 285.5,-859.5 "/>
<text text-anchor="middle" x="313.5" y="-844.3" font-family="Times,serif" font-size="14.00">not_1</text>
<text text-anchor="middle" x="313.5" y="-829.3" font-family="Times,serif" font-size="14.00">Not</text>
<polyline fill="none" stroke="black" points="341.5,-821.5 341.5,-859.5 "/>
<text text-anchor="middle" x="361.5" y="-836.8" font-family="Times,serif" font-size="14.00">out</text>
</g>
<!-- x3 -->
<g id="node8" class="node">
<title>x3</title>
<path fill="none" stroke="black" d="M438.5,-820.5C438.5,-820.5 530.5,-820.5 530.5,-820.5 536.5,-820.5 542.5,-826.5 542.5,-832.5 542.5,-832.5 542.5,-844.5 542.5,-844.5 542.5,-850.5 536.5,-856.5 530.5,-856.5 530.5,-856.5 438.5,-856.5 438.5,-856.5 432.5,-856.5 426.5,-850.5 426.5,-844.5 426.5,-844.5 426.5,-832.5 426.5,-832.5 426.5,-826.5 432.5,-820.5 438.5,-820.5"/>
<text text-anchor="middle" x="484.5" y="-834.8" font-family="Times,serif" font-size="14.00">slice [0] to [1]</text>
</g>
<!-- c4&#45;&gt;x3 -->
<g id="edge4" class="edge">
<title>c4:e&#45;&gt;x3:w</title>
<path fill="none" stroke="black" d="M394.6,-840.19C401.36,-839.82 406.37,-839.21 413.08,-838.83"/>
<polygon fill="none" stroke="black" points="394.5,-840.19 388.6,-844.34 382.5,-840.5 388.39,-836.35 394.5,-840.19"/>
<polygon fill="none" stroke="black" points="413.5,-838.82 419.4,-834.66 425.5,-838.5 419.61,-842.66 413.5,-838.82"/>
</g>
<!-- x2&#45;&gt;c4 -->
<g id="edge3" class="edge">
<title>x2:e&#45;&gt;c4:w</title>
<path fill="none" stroke="black" d="M223.6,-838.81C230.36,-839.18 235.37,-839.79 242.08,-840.17"/>
<polygon fill="none" stroke="black" points="223.5,-838.81 217.39,-842.65 211.5,-838.5 217.6,-834.66 223.5,-838.81"/>
<polygon fill="none" stroke="black" points="242.5,-840.18 248.61,-836.34 254.5,-840.5 248.4,-844.34 242.5,-840.18"/>
</g>
<!-- x3&#45;&gt;n2 -->
<g id="edge61" class="edge">
<title>x3:e&#45;&gt;n2:w</title>
<path fill="none" stroke="black" d="M543.5,-838.5C622.26,-838.5 511.38,-501.91 573.11,-471.67"/>
<polygon fill="black" stroke="black" points="573.98,-475.06 583,-469.5 572.48,-468.22 573.98,-475.06"/>
</g>
<!-- c5 -->
<g id="node9" class="node">
<title>c5</title>
<polygon fill="none" stroke="black" points="251,-764.5 251,-802.5 386,-802.5 386,-764.5 251,-764.5"/>
<text text-anchor="middle" x="266" y="-779.8" font-family="Times,serif" font-size="14.00">in</text>
<polyline fill="none" stroke="black" points="281,-764.5 281,-802.5 "/>
<text text-anchor="middle" x="313.5" y="-787.3" font-family="Times,serif" font-size="14.00">not_10</text>
<text text-anchor="middle" x="313.5" y="-772.3" font-family="Times,serif" font-size="14.00">Not</text>
<polyline fill="none" stroke="black" points="346,-764.5 346,-802.5 "/>
<text text-anchor="middle" x="366" y="-779.8" font-family="Times,serif" font-size="14.00">out</text>
</g>
<!-- x5 -->
<g id="node11" class="node">
<title>x5</title>
<path fill="none" stroke="black" d="M434,-763.5C434,-763.5 535,-763.5 535,-763.5 541,-763.5 547,-769.5 547,-775.5 547,-775.5 547,-787.5 547,-787.5 547,-793.5 541,-799.5 535,-799.5 535,-799.5 434,-799.5 434,-799.5 428,-799.5 422,-793.5 422,-787.5 422,-787.5 422,-775.5 422,-775.5 422,-769.5 428,-763.5 434,-763.5"/>
<text text-anchor="middle" x="484.5" y="-777.8" font-family="Times,serif" font-size="14.00">slice [0] to [10]</text>
</g>
<!-- c5&#45;&gt;x5 -->
<g id="edge6" class="edge">
<title>c5:e&#45;&gt;x5:w</title>
<path fill="none" stroke="black" d="M398.22,-783.04C402.3,-782.71 405.73,-782.28 409.81,-781.96"/>
<polygon fill="none" stroke="black" points="397.99,-783.04 392.15,-787.27 386,-783.5 391.84,-779.28 397.99,-783.04"/>
<polygon fill="none" stroke="black" points="410.01,-781.95 415.85,-777.73 422,-781.5 416.16,-785.72 410.01,-781.95"/>
</g>
<!-- x4&#45;&gt;c5 -->
<g id="edge5" class="edge">
<title>x4:e&#45;&gt;c5:w</title>
<path fill="none" stroke="black" d="M227.22,-781.96C231.3,-782.29 234.73,-782.72 238.81,-783.04"/>
<polygon fill="none" stroke="black" points="226.99,-781.96 220.84,-785.72 215,-781.5 221.15,-777.73 226.99,-781.96"/>
<polygon fill="none" stroke="black" points="239.01,-783.05 245.16,-779.28 251,-783.5 244.85,-787.27 239.01,-783.05"/>
</g>
<!-- x5&#45;&gt;n2 -->
<g id="edge62" class="edge">
<title>x5:e&#45;&gt;n2:w</title>
<path fill="none" stroke="black" d="M547,-781.5C612.98,-781.5 524.02,-502.69 573.05,-472.2"/>
<polygon fill="black" stroke="black" points="574.26,-475.49 583,-469.5 572.43,-468.74 574.26,-475.49"/>
</g>
<!-- c6 -->
<g id="node12" class="node">
<title>c6</title>
<polygon fill="none" stroke="black" points="251,-707.5 251,-745.5 386,-745.5 386,-707.5 251,-707.5"/>
<text text-anchor="middle" x="266" y="-722.8" font-family="Times,serif" font-size="14.00">in</text>
<polyline fill="none" stroke="black" points="281,-707.5 281,-745.5 "/>
<text text-anchor="middle" x="313.5" y="-730.3" font-family="Times,serif" font-size="14.00">not_11</text>
<text text-anchor="middle" x="313.5" y="-715.3" font-family="Times,serif" font-size="14.00">Not</text>
<polyline fill="none" stroke="black" points="346,-707.5 346,-745.5 "/>
<text text-anchor="middle" x="366" y="-722.8" font-family="Times,serif" font-size="14.00">out</text>
</g>
<!-- x7 -->
<g id="node14" class="node">
<title>x7</title>
<path fill="none" stroke="black" d="M434,-706.5C434,-706.5 535,-706.5 535,-706.5 541,-706.5 547,-712.5 547,-718.5 547,-718.5 547,-730.5 547,-730.5 547,-736.5 541,-742.5 535,-742.5 535,-742.5 434,-742.5 434,-742.5 428,-742.5 422,-736.5 422,-730.5 422,-730.5 422,-718.5 422,-718.5 422,-712.5 428,-706.5 434,-706.5"/>
<text text-anchor="middle" x="484.5" y="-720.8" font-family="Times,serif" font-size="14.00">slice [0] to [11]</text>
</g>
<!-- c6&#45;&gt;x7 -->
<g id="edge8" class="edge">
<title>c6:e&#45;&gt;x7:w</title>
<path fill="none" stroke="black" d="M398.22,-726.04C402.3,-725.71 405.73,-725.28 409.81,-724.96"/>
<polygon fill="none" stroke="black" points="397.99,-726.04 392.15,-730.27 386,-726.5 391.84,-722.28 397.99,-726.04"/>
<polygon fill="none" stroke="black" points="410.01,-724.95 415.85,-720.73 422,-724.5 416.16,-728.72 410.01,-724.95"/>
</g>
<!-- x6&#45;&gt;c6 -->
<g id="edge7" class="edge">
<title>x6:e&#45;&gt;c6:w</title>
<path fill="none" stroke="black" d="M227.22,-724.96C231.3,-725.29 234.73,-725.72 238.81,-726.04"/>
<polygon fill="none" stroke="black" points="226.99,-724.96 220.84,-728.72 215,-724.5 221.15,-720.73 226.99,-724.96"/>
<polygon fill="none" stroke="black" points="239.01,-726.05 245.16,-722.28 251,-726.5 244.85,-730.27 239.01,-726.05"/>
</g>
<!-- x7&#45;&gt;n2 -->
<g id="edge63" class="edge">
<title>x7:e&#45;&gt;n2:w</title>
<path fill="none" stroke="black" d="M547,-724.5C600.43,-724.5 535.59,-502.24 573.31,-472.72"/>
<polygon fill="black" stroke="black" points="574.62,-475.98 583,-469.5 572.41,-469.34 574.62,-475.98"/>
</g>
<!-- c7 -->
<g id="node15" class="node">
<title>c7</title>
<polygon fill="none" stroke="black" points="251,-650.5 251,-688.5 386,-688.5 386,-650.5 251,-650.5"/>
<text text-anchor="middle" x="266" y="-665.8" font-family="Times,serif" font-size="14.00">in</text>
<polyline fill="none" stroke="black" points="281,-650.5 281,-688.5 "/>
<text text-anchor="middle" x="313.5" y="-673.3" font-family="Times,serif" font-size="14.00">not_12</text>
<text text-anchor="middle" x="313.5" y="-658.3" font-family="Times,serif" font-size="14.00">Not</text>
<polyline fill="none" stroke="black" points="346,-650.5 346,-688.5 "/>
<text text-anchor="middle" x="366" y="-665.8" font-family="Times,serif" font-size="14.00">out</text>
</g>
<!-- x9 -->
<g id="node17" class="node">
<title>x9</title>
<path fill="none" stroke="black" d="M434,-649.5C434,-649.5 535,-649.5 535,-649.5 541,-649.5 547,-655.5 547,-661.5 547,-661.5 547,-673.5 547,-673.5 547,-679.5 541,-685.5 535,-685.5 535,-685.5 434,-685.5 434,-685.5 428,-685.5 422,-679.5 422,-673.5 422,-673.5 422,-661.5 422,-661.5 422,-655.5 428,-649.5 434,-649.5"/>
<text text-anchor="middle" x="484.5" y="-663.8" font-family="Times,serif" font-size="14.00">slice [0] to [12]</text>
</g>
<!-- c7&#45;&gt;x9 -->
<g id="edge10" class="edge">
<title>c7:e&#45;&gt;x9:w</title>
<path fill="none" stroke="black" d="M398.22,-669.04C402.3,-668.71 405.73,-668.28 409.81,-667.96"/>
<polygon fill="none" stroke="black" points="397.99,-669.04 392.15,-673.27 386,-669.5 391.84,-665.28 397.99,-669.04"/>
<polygon fill="none" stroke="black" points="410.01,-667.95 415.85,-663.73 422,-667.5 416.16,-671.72 410.01,-667.95"/>
</g>
<!-- x8&#45;&gt;c7 -->
<g id="edge9" class="edge">
<title>x8:e&#45;&gt;c7:w</title>
<path fill="none" stroke="black" d="M227.22,-667.96C231.3,-668.29 234.73,-668.72 238.81,-669.04"/>
<polygon fill="none" stroke="black" points="226.99,-667.96 220.84,-671.72 215,-667.5 221.15,-663.73 226.99,-667.96"/>
<polygon fill="none" stroke="black" points="239.01,-669.05 245.16,-665.28 251,-669.5 244.85,-673.27 239.01,-669.05"/>
</g>
<!-- x9&#45;&gt;n2 -->
<g id="edge64" class="edge">
<title>x9:e&#45;&gt;n2:w</title>
<path fill="none" stroke="black" d="M547,-667.5C632.6,-667.5 505.41,-486.15 572.72,-470.57"/>
<polygon fill="black" stroke="black" points="573.41,-474.01 583,-469.5 572.69,-467.05 573.41,-474.01"/>
</g>
<!-- c8 -->
<g id="node18" class="node">
<title>c8</title>
<polygon fill="none" stroke="black" points="251,-593.5 251,-631.5 386,-631.5 386,-593.5 251,-593.5"/>
<text text-anchor="middle" x="266" y="-608.8" font-family="Times,serif" font-size="14.00">in</text>
<polyline fill="none" stroke="black" points="281,-593.5 281,-631.5 "/>
<text text-anchor="middle" x="313.5" y="-616.3" font-family="Times,serif" font-size="14.00">not_13</text>
<text text-anchor="middle" x="313.5" y="-601.3" font-family="Times,serif" font-size="14.00">Not</text>
<polyline fill="none" stroke="black" points="346,-593.5 346,-631.5 "/>
<text text-anchor="middle" x="366" y="-608.8" font-family="Times,serif" font-size="14.00">out</text>
</g>
<!-- x11 -->
<g id="node20" class="node">
<title>x11</title>
<path fill="none" stroke="black" d="M434,-592.5C434,-592.5 535,-592.5 535,-592.5 541,-592.5 547,-598.5 547,-604.5 547,-604.5 547,-616.5 547,-616.5 547,-622.5 541,-628.5 535,-628.5 535,-628.5 434,-628.5 434,-628.5 428,-628.5 422,-622.5 422,-616.5 422,-616.5 422,-604.5 422,-604.5 422,-598.5 428,-592.5 434,-592.5"/>
<text text-anchor="middle" x="484.5" y="-606.8" font-family="Times,serif" font-size="14.00">slice [0] to [13]</text>
</g>
<!-- c8&#45;&gt;x11 -->
<g id="edge12" class="edge">
<title>c8:e&#45;&gt;x11:w</title>
<path fill="none" stroke="black" d="M398.22,-612.04C402.3,-611.71 405.73,-611.28 409.81,-610.96"/>
<polygon fill="none" stroke="black" points="397.99,-612.04 392.15,-616.27 386,-612.5 391.84,-608.28 397.99,-612.04"/>
<polygon fill="none" stroke="black" points="410.01,-610.95 415.85,-606.73 422,-610.5 416.16,-614.72 410.01,-610.95"/>
</g>
<!-- x10&#45;&gt;c8 -->
<g id="edge11" class="edge">
<title>x10:e&#45;&gt;c8:w</title>
<path fill="none" stroke="black" d="M227.22,-610.96C231.3,-611.29 234.73,-611.72 238.81,-612.04"/>
<polygon fill="none" stroke="black" points="226.99,-610.96 220.84,-614.72 215,-610.5 221.15,-606.73 226.99,-610.96"/>
<polygon fill="none" stroke="black" points="239.01,-612.05 245.16,-608.28 251,-612.5 244.85,-616.27 239.01,-612.05"/>
</g>
<!-- x11&#45;&gt;n2 -->
<g id="edge49" class="edge">
<title>x11:e&#45;&gt;n2:w</title>
<path fill="none" stroke="black" d="M547,-610.5C607.76,-610.5 529.05,-486.06 572.92,-470.99"/>
<polygon fill="black" stroke="black" points="573.62,-474.42 583,-469.5 572.6,-467.5 573.62,-474.42"/>
</g>
<!-- c9 -->
<g id="node21" class="node">
<title>c9</title>
<polygon fill="none" stroke="black" points="251,-536.5 251,-574.5 386,-574.5 386,-536.5 251,-536.5"/>
<text text-anchor="middle" x="266" y="-551.8" font-family="Times,serif" font-size="14.00">in</text>
<polyline fill="none" stroke="black" points="281,-536.5 281,-574.5 "/>
<text text-anchor="middle" x="313.5" y="-559.3" font-family="Times,serif" font-size="14.00">not_14</text>
<text text-anchor="middle" x="313.5" y="-544.3" font-family="Times,serif" font-size="14.00">Not</text>
<polyline fill="none" stroke="black" points="346,-536.5 346,-574.5 "/>
<text text-anchor="middle" x="366" y="-551.8" font-family="Times,serif" font-size="14.00">out</text>
</g>
<!-- x13 -->
<g id="node23" class="node">
<title>x13</title>
<path fill="none" stroke="black" d="M434,-535.5C434,-535.5 535,-535.5 535,-535.5 541,-535.5 547,-541.5 547,-547.5 547,-547.5 547,-559.5 547,-559.5 547,-565.5 541,-571.5 535,-571.5 535,-571.5 434,-571.5 434,-571.5 428,-571.5 422,-565.5 422,-559.5 422,-559.5 422,-547.5 422,-547.5 422,-541.5 428,-535.5 434,-535.5"/>
<text text-anchor="middle" x="484.5" y="-549.8" font-family="Times,serif" font-size="14.00">slice [0] to [14]</text>
</g>
<!-- c9&#45;&gt;x13 -->
<g id="edge14" class="edge">
<title>c9:e&#45;&gt;x13:w</title>
<path fill="none" stroke="black" d="M398.22,-555.04C402.3,-554.71 405.73,-554.28 409.81,-553.96"/>
<polygon fill="none" stroke="black" points="397.99,-555.04 392.15,-559.27 386,-555.5 391.84,-551.28 397.99,-555.04"/>
<polygon fill="none" stroke="black" points="410.01,-553.95 415.85,-549.73 422,-553.5 416.16,-557.72 410.01,-553.95"/>
</g>
<!-- x12&#45;&gt;c9 -->
<g id="edge13" class="edge">
<title>x12:e&#45;&gt;c9:w</title>
<path fill="none" stroke="black" d="M227.22,-553.96C231.3,-554.29 234.73,-554.72 238.81,-555.04"/>
<polygon fill="none" stroke="black" points="226.99,-553.96 220.84,-557.72 215,-553.5 221.15,-549.73 226.99,-553.96"/>
<polygon fill="none" stroke="black" points="239.01,-555.05 245.16,-551.28 251,-555.5 244.85,-559.27 239.01,-555.05"/>
</g>
<!-- x13&#45;&gt;n2 -->
<g id="edge50" class="edge">
<title>x13:e&#45;&gt;n2:w</title>
<path fill="none" stroke="black" d="M547,-553.5C583.49,-553.5 550.69,-485.7 573.1,-471.92"/>
<polygon fill="black" stroke="black" points="574.12,-475.28 583,-469.5 572.45,-468.48 574.12,-475.28"/>
</g>
<!-- c10 -->
<g id="node24" class="node">
<title>c10</title>
<polygon fill="none" stroke="black" points="251,-479.5 251,-517.5 386,-517.5 386,-479.5 251,-479.5"/>
<text text-anchor="middle" x="266" y="-494.8" font-family="Times,serif" font-size="14.00">in</text>
<polyline fill="none" stroke="black" points="281,-479.5 281,-517.5 "/>
<text text-anchor="middle" x="313.5" y="-502.3" font-family="Times,serif" font-size="14.00">not_15</text>
<text text-anchor="middle" x="313.5" y="-487.3" font-family="Times,serif" font-size="14.00">Not</text>
<polyline fill="none" stroke="black" points="346,-479.5 346,-517.5 "/>
<text text-anchor="middle" x="366" y="-494.8" font-family="Times,serif" font-size="14.00">out</text>
</g>
<!-- x15 -->
<g id="node26" class="node">
<title>x15</title>
<path fill="none" stroke="black" d="M434,-479.5C434,-479.5 535,-479.5 535,-479.5 541,-479.5 547,-485.5 547,-491.5 547,-491.5 547,-503.5 547,-503.5 547,-509.5 541,-515.5 535,-515.5 535,-515.5 434,-515.5 434,-515.5 428,-515.5 422,-509.5 422,-503.5 422,-503.5 422,-491.5 422,-491.5 422,-485.5 428,-479.5 434,-479.5"/>
<text text-anchor="middle" x="484.5" y="-493.8" font-family="Times,serif" font-size="14.00">slice [0] to [15]</text>
</g>
<!-- c10&#45;&gt;x15 -->
<g id="edge16" class="edge">
<title>c10:e&#45;&gt;x15:w</title>
<path fill="none" stroke="black" d="M398.22,-498.27C402.29,-498.11 405.73,-497.89 409.81,-497.73"/>
<polygon fill="none" stroke="black" points="398,-498.27 392.07,-502.39 386,-498.5 391.92,-494.39 398,-498.27"/>
<polygon fill="none" stroke="black" points="410,-497.73 415.93,-493.61 422,-497.5 416.08,-501.61 410,-497.73"/>
</g>
<!-- x14&#45;&gt;c10 -->
<g id="edge15" class="edge">
<title>x14:e&#45;&gt;c10:w</title>
<path fill="none" stroke="black" d="M227.22,-497.73C231.29,-497.89 234.73,-498.11 238.81,-498.27"/>
<polygon fill="none" stroke="black" points="227,-497.73 220.92,-501.61 215,-497.5 221.07,-493.61 227,-497.73"/>
<polygon fill="none" stroke="black" points="239,-498.27 245.08,-494.39 251,-498.5 244.93,-502.39 239,-498.27"/>
</g>
<!-- x15&#45;&gt;n2 -->
<g id="edge51" class="edge">
<title>x15:e&#45;&gt;n2:w</title>
<path fill="none" stroke="black" d="M547,-497.5C563.15,-497.5 563.55,-479.72 573.3,-472.5"/>
<polygon fill="black" stroke="black" points="574.48,-475.8 583,-469.5 572.41,-469.11 574.48,-475.8"/>
</g>
<!-- c11 -->
<g id="node27" class="node">
<title>c11</title>
<polygon fill="none" stroke="black" points="255.5,-422.5 255.5,-460.5 381.5,-460.5 381.5,-422.5 255.5,-422.5"/>
<text text-anchor="middle" x="270.5" y="-437.8" font-family="Times,serif" font-size="14.00">in</text>
<polyline fill="none" stroke="black" points="285.5,-422.5 285.5,-460.5 "/>
<text text-anchor="middle" x="313.5" y="-445.3" font-family="Times,serif" font-size="14.00">not_2</text>
<text text-anchor="middle" x="313.5" y="-430.3" font-family="Times,serif" font-size="14.00">Not</text>
<polyline fill="none" stroke="black" points="341.5,-422.5 341.5,-460.5 "/>
<text text-anchor="middle" x="361.5" y="-437.8" font-family="Times,serif" font-size="14.00">out</text>
</g>
<!-- x17 -->
<g id="node29" class="node">
<title>x17</title>
<path fill="none" stroke="black" d="M438.5,-424.5C438.5,-424.5 530.5,-424.5 530.5,-424.5 536.5,-424.5 542.5,-430.5 542.5,-436.5 542.5,-436.5 542.5,-448.5 542.5,-448.5 542.5,-454.5 536.5,-460.5 530.5,-460.5 530.5,-460.5 438.5,-460.5 438.5,-460.5 432.5,-460.5 426.5,-454.5 426.5,-448.5 426.5,-448.5 426.5,-436.5 426.5,-436.5 426.5,-430.5 432.5,-424.5 438.5,-424.5"/>
<text text-anchor="middle" x="484.5" y="-438.8" font-family="Times,serif" font-size="14.00">slice [0] to [2]</text>
</g>
<!-- c11&#45;&gt;x17 -->
<g id="edge18" class="edge">
<title>c11:e&#45;&gt;x17:w</title>
<path fill="none" stroke="black" d="M394.6,-441.66C401.36,-441.84 406.38,-442.15 413.08,-442.33"/>
<polygon fill="none" stroke="black" points="394.5,-441.66 388.45,-445.58 382.5,-441.5 388.55,-437.58 394.5,-441.66"/>
<polygon fill="none" stroke="black" points="413.5,-442.34 419.55,-438.42 425.5,-442.5 419.45,-446.42 413.5,-442.34"/>
</g>
<!-- x16&#45;&gt;c11 -->
<g id="edge17" class="edge">
<title>x16:e&#45;&gt;c11:w</title>
<path fill="none" stroke="black" d="M223.6,-442.34C230.36,-442.16 235.38,-441.85 242.08,-441.67"/>
<polygon fill="none" stroke="black" points="223.5,-442.34 217.55,-446.42 211.5,-442.5 217.45,-438.42 223.5,-442.34"/>
<polygon fill="none" stroke="black" points="242.5,-441.66 248.45,-437.58 254.5,-441.5 248.55,-445.58 242.5,-441.66"/>
</g>
<!-- x17&#45;&gt;n2 -->
<g id="edge52" class="edge">
<title>x17:e&#45;&gt;n2:w</title>
<path fill="none" stroke="black" d="M543.5,-442.5C560.78,-442.5 562.02,-460.32 573.28,-467.01"/>
<polygon fill="black" stroke="black" points="572.44,-470.41 583,-469.5 574.18,-463.63 572.44,-470.41"/>
</g>
<!-- c12 -->
<g id="node30" class="node">
<title>c12</title>
<polygon fill="none" stroke="black" points="255.5,-365.5 255.5,-403.5 381.5,-403.5 381.5,-365.5 255.5,-365.5"/>
<text text-anchor="middle" x="270.5" y="-380.8" font-family="Times,serif" font-size="14.00">in</text>
<polyline fill="none" stroke="black" points="285.5,-365.5 285.5,-403.5 "/>
<text text-anchor="middle" x="313.5" y="-388.3" font-family="Times,serif" font-size="14.00">not_3</text>
<text text-anchor="middle" x="313.5" y="-373.3" font-family="Times,serif" font-size="14.00">Not</text>
<polyline fill="none" stroke="black" points="341.5,-365.5 341.5,-403.5 "/>
<text text-anchor="middle" x="361.5" y="-380.8" font-family="Times,serif" font-size="14.00">out</text>
</g>
<!-- x19 -->
<g id="node32" class="node">
<title>x19</title>
<path fill="none" stroke="black" d="M438.5,-369.5C438.5,-369.5 530.5,-369.5 530.5,-369.5 536.5,-369.5 542.5,-375.5 542.5,-381.5 542.5,-381.5 542.5,-393.5 542.5,-393.5 542.5,-399.5 536.5,-405.5 530.5,-405.5 530.5,-405.5 438.5,-405.5 438.5,-405.5 432.5,-405.5 426.5,-399.5 426.5,-393.5 426.5,-393.5 426.5,-381.5 426.5,-381.5 426.5,-375.5 432.5,-369.5 438.5,-369.5"/>
<text text-anchor="middle" x="484.5" y="-383.8" font-family="Times,serif" font-size="14.00">slice [0] to [3]</text>
</g>
<!-- c12&#45;&gt;x19 -->
<g id="edge20" class="edge">
<title>c12:e&#45;&gt;x19:w</title>
<path fill="none" stroke="black" d="M394.61,-384.97C401.36,-385.52 406.37,-386.44 413.07,-387"/>
<polygon fill="none" stroke="black" points="394.49,-384.96 388.34,-388.73 382.5,-384.5 388.65,-380.74 394.49,-384.96"/>
<polygon fill="none" stroke="black" points="413.51,-387.02 419.66,-383.26 425.5,-387.5 419.35,-391.26 413.51,-387.02"/>
</g>
<!-- x18&#45;&gt;c12 -->
<g id="edge19" class="edge">
<title>x18:e&#45;&gt;c12:w</title>
<path fill="none" stroke="black" d="M223.61,-387.03C230.36,-386.48 235.37,-385.56 242.07,-385"/>
<polygon fill="none" stroke="black" points="223.49,-387.04 217.65,-391.26 211.5,-387.5 217.34,-383.27 223.49,-387.04"/>
<polygon fill="none" stroke="black" points="242.51,-384.98 248.35,-380.74 254.5,-384.5 248.66,-388.74 242.51,-384.98"/>
</g>
<!-- x19&#45;&gt;n2 -->
<g id="edge53" class="edge">
<title>x19:e&#45;&gt;n2:w</title>
<path fill="none" stroke="black" d="M543.5,-387.5C579.84,-387.5 550.11,-453.69 573.04,-467.13"/>
<polygon fill="black" stroke="black" points="572.46,-470.6 583,-469.5 574.08,-463.78 572.46,-470.6"/>
</g>
<!-- c13 -->
<g id="node33" class="node">
<title>c13</title>
<polygon fill="none" stroke="black" points="255.5,-308.5 255.5,-346.5 381.5,-346.5 381.5,-308.5 255.5,-308.5"/>
<text text-anchor="middle" x="270.5" y="-323.8" font-family="Times,serif" font-size="14.00">in</text>
<polyline fill="none" stroke="black" points="285.5,-308.5 285.5,-346.5 "/>
<text text-anchor="middle" x="313.5" y="-331.3" font-family="Times,serif" font-size="14.00">not_4</text>
<text text-anchor="middle" x="313.5" y="-316.3" font-family="Times,serif" font-size="14.00">Not</text>
<polyline fill="none" stroke="black" points="341.5,-308.5 341.5,-346.5 "/>
<text text-anchor="middle" x="361.5" y="-323.8" font-family="Times,serif" font-size="14.00">out</text>
</g>
<!-- x21 -->
<g id="node35" class="node">
<title>x21</title>
<path fill="none" stroke="black" d="M438.5,-314.5C438.5,-314.5 530.5,-314.5 530.5,-314.5 536.5,-314.5 542.5,-320.5 542.5,-326.5 542.5,-326.5 542.5,-338.5 542.5,-338.5 542.5,-344.5 536.5,-350.5 530.5,-350.5 530.5,-350.5 438.5,-350.5 438.5,-350.5 432.5,-350.5 426.5,-344.5 426.5,-338.5 426.5,-338.5 426.5,-326.5 426.5,-326.5 426.5,-320.5 432.5,-314.5 438.5,-314.5"/>
<text text-anchor="middle" x="484.5" y="-328.8" font-family="Times,serif" font-size="14.00">slice [0] to [4]</text>
</g>
<!-- c13&#45;&gt;x21 -->
<g id="edge22" class="edge">
<title>c13:e&#45;&gt;x21:w</title>
<path fill="none" stroke="black" d="M394.63,-328.28C401.38,-329.2 406.35,-330.73 413.05,-331.67"/>
<polygon fill="none" stroke="black" points="394.48,-328.27 388.23,-331.88 382.5,-327.5 388.74,-323.89 394.48,-328.27"/>
<polygon fill="none" stroke="black" points="413.53,-331.71 419.78,-328.11 425.5,-332.5 419.25,-336.09 413.53,-331.71"/>
</g>
<!-- x20&#45;&gt;c13 -->
<g id="edge21" class="edge">
<title>x20:e&#45;&gt;c13:w</title>
<path fill="none" stroke="black" d="M223.63,-331.72C230.38,-330.8 235.35,-329.27 242.05,-328.33"/>
<polygon fill="none" stroke="black" points="223.48,-331.73 217.74,-336.11 211.5,-332.5 217.23,-328.12 223.48,-331.73"/>
<polygon fill="none" stroke="black" points="242.53,-328.29 248.25,-323.91 254.5,-327.5 248.78,-331.89 242.53,-328.29"/>
</g>
<!-- x21&#45;&gt;n2 -->
<g id="edge55" class="edge">
<title>x21:e&#45;&gt;n2:w</title>
<path fill="none" stroke="black" d="M543.5,-332.5C603.03,-332.5 529.64,-453.41 573.08,-468.05"/>
<polygon fill="black" stroke="black" points="572.6,-471.52 583,-469.5 573.61,-464.59 572.6,-471.52"/>
</g>
<!-- c14 -->
<g id="node36" class="node">
<title>c14</title>
<polygon fill="none" stroke="black" points="255.5,-251.5 255.5,-289.5 381.5,-289.5 381.5,-251.5 255.5,-251.5"/>
<text text-anchor="middle" x="270.5" y="-266.8" font-family="Times,serif" font-size="14.00">in</text>
<polyline fill="none" stroke="black" points="285.5,-251.5 285.5,-289.5 "/>
<text text-anchor="middle" x="313.5" y="-274.3" font-family="Times,serif" font-size="14.00">not_5</text>
<text text-anchor="middle" x="313.5" y="-259.3" font-family="Times,serif" font-size="14.00">Not</text>
<polyline fill="none" stroke="black" points="341.5,-251.5 341.5,-289.5 "/>
<text text-anchor="middle" x="361.5" y="-266.8" font-family="Times,serif" font-size="14.00">out</text>
</g>
<!-- x23 -->
<g id="node38" class="node">
<title>x23</title>
<path fill="none" stroke="black" d="M438.5,-259.5C438.5,-259.5 530.5,-259.5 530.5,-259.5 536.5,-259.5 542.5,-265.5 542.5,-271.5 542.5,-271.5 542.5,-283.5 542.5,-283.5 542.5,-289.5 536.5,-295.5 530.5,-295.5 530.5,-295.5 438.5,-295.5 438.5,-295.5 432.5,-295.5 426.5,-289.5 426.5,-283.5 426.5,-283.5 426.5,-271.5 426.5,-271.5 426.5,-265.5 432.5,-259.5 438.5,-259.5"/>
<text text-anchor="middle" x="484.5" y="-273.8" font-family="Times,serif" font-size="14.00">slice [0] to [5]</text>
</g>
<!-- c14&#45;&gt;x23 -->
<g id="edge24" class="edge">
<title>c14:e&#45;&gt;x23:w</title>
<path fill="none" stroke="black" d="M394.66,-271.59C401.57,-272.92 406.56,-275.13 413.5,-276.44"/>
<polygon fill="none" stroke="black" points="394.45,-271.57 388.12,-275.02 382.5,-270.5 388.83,-267.05 394.45,-271.57"/>
<polygon fill="none" stroke="black" points="413.55,-276.44 419.88,-272.99 425.5,-277.5 419.17,-280.96 413.55,-276.44"/>
</g>
<!-- x22&#45;&gt;c14 -->
<g id="edge23" class="edge">
<title>x22:e&#45;&gt;c14:w</title>
<path fill="none" stroke="black" d="M223.66,-276.41C230.57,-275.08 235.56,-272.87 242.5,-271.56"/>
<polygon fill="none" stroke="black" points="223.45,-276.43 217.83,-280.95 211.5,-277.5 217.12,-272.98 223.45,-276.43"/>
<polygon fill="none" stroke="black" points="242.55,-271.56 248.17,-267.04 254.5,-270.5 248.88,-275.01 242.55,-271.56"/>
</g>
<!-- x23&#45;&gt;n2 -->
<g id="edge56" class="edge">
<title>x23:e&#45;&gt;n2:w</title>
<path fill="none" stroke="black" d="M543.5,-277.5C626.88,-277.5 507.05,-453.35 572.96,-468.47"/>
<polygon fill="black" stroke="black" points="572.69,-471.96 583,-469.5 573.41,-464.99 572.69,-471.96"/>
</g>
<!-- c15 -->
<g id="node39" class="node">
<title>c15</title>
<polygon fill="none" stroke="black" points="255.5,-194.5 255.5,-232.5 381.5,-232.5 381.5,-194.5 255.5,-194.5"/>
<text text-anchor="middle" x="270.5" y="-209.8" font-family="Times,serif" font-size="14.00">in</text>
<polyline fill="none" stroke="black" points="285.5,-194.5 285.5,-232.5 "/>
<text text-anchor="middle" x="313.5" y="-217.3" font-family="Times,serif" font-size="14.00">not_6</text>
<text text-anchor="middle" x="313.5" y="-202.3" font-family="Times,serif" font-size="14.00">Not</text>
<polyline fill="none" stroke="black" points="341.5,-194.5 341.5,-232.5 "/>
<text text-anchor="middle" x="361.5" y="-209.8" font-family="Times,serif" font-size="14.00">out</text>
</g>
<!-- x25 -->
<g id="node41" class="node">
<title>x25</title>
<path fill="none" stroke="black" d="M438.5,-203.5C438.5,-203.5 530.5,-203.5 530.5,-203.5 536.5,-203.5 542.5,-209.5 542.5,-215.5 542.5,-215.5 542.5,-227.5 542.5,-227.5 542.5,-233.5 536.5,-239.5 530.5,-239.5 530.5,-239.5 438.5,-239.5 438.5,-239.5 432.5,-239.5 426.5,-233.5 426.5,-227.5 426.5,-227.5 426.5,-215.5 426.5,-215.5 426.5,-209.5 432.5,-203.5 438.5,-203.5"/>
<text text-anchor="middle" x="484.5" y="-217.8" font-family="Times,serif" font-size="14.00">slice [0] to [6]</text>
</g>
<!-- c15&#45;&gt;x25 -->
<g id="edge26" class="edge">
<title>c15:e&#45;&gt;x25:w</title>
<path fill="none" stroke="black" d="M394.69,-214.75C401.59,-216.26 406.54,-218.79 413.47,-220.28"/>
<polygon fill="none" stroke="black" points="394.44,-214.72 388.06,-218.09 382.5,-213.5 388.88,-210.13 394.44,-214.72"/>
<polygon fill="none" stroke="black" points="413.56,-220.29 419.93,-216.92 425.5,-221.5 419.13,-224.88 413.56,-220.29"/>
</g>
<!-- x24&#45;&gt;c15 -->
<g id="edge25" class="edge">
<title>x24:e&#45;&gt;c15:w</title>
<path fill="none" stroke="black" d="M223.69,-220.25C230.59,-218.74 235.54,-216.21 242.47,-214.72"/>
<polygon fill="none" stroke="black" points="223.44,-220.28 217.88,-224.87 211.5,-221.5 217.06,-216.91 223.44,-220.28"/>
<polygon fill="none" stroke="black" points="242.56,-214.71 248.13,-210.12 254.5,-213.5 248.93,-218.08 242.56,-214.71"/>
</g>
<!-- x25&#45;&gt;n2 -->
<g id="edge57" class="edge">
<title>x25:e&#45;&gt;n2:w</title>
<path fill="none" stroke="black" d="M543.5,-221.5C595.6,-221.5 536.21,-437.66 573.5,-466.36"/>
<polygon fill="black" stroke="black" points="572.41,-469.69 583,-469.5 574.6,-463.04 572.41,-469.69"/>
</g>
<!-- c16 -->
<g id="node42" class="node">
<title>c16</title>
<polygon fill="none" stroke="black" points="255.5,-137.5 255.5,-175.5 381.5,-175.5 381.5,-137.5 255.5,-137.5"/>
<text text-anchor="middle" x="270.5" y="-152.8" font-family="Times,serif" font-size="14.00">in</text>
<polyline fill="none" stroke="black" points="285.5,-137.5 285.5,-175.5 "/>
<text text-anchor="middle" x="313.5" y="-160.3" font-family="Times,serif" font-size="14.00">not_7</text>
<text text-anchor="middle" x="313.5" y="-145.3" font-family="Times,serif" font-size="14.00">Not</text>
<polyline fill="none" stroke="black" points="341.5,-137.5 341.5,-175.5 "/>
<text text-anchor="middle" x="361.5" y="-152.8" font-family="Times,serif" font-size="14.00">out</text>
</g>
<!-- x27 -->
<g id="node44" class="node">
<title>x27</title>
<path fill="none" stroke="black" d="M438.5,-146.5C438.5,-146.5 530.5,-146.5 530.5,-146.5 536.5,-146.5 542.5,-152.5 542.5,-158.5 542.5,-158.5 542.5,-170.5 542.5,-170.5 542.5,-176.5 536.5,-182.5 530.5,-182.5 530.5,-182.5 438.5,-182.5 438.5,-182.5 432.5,-182.5 426.5,-176.5 426.5,-170.5 426.5,-170.5 426.5,-158.5 426.5,-158.5 426.5,-152.5 432.5,-146.5 438.5,-146.5"/>
<text text-anchor="middle" x="484.5" y="-160.8" font-family="Times,serif" font-size="14.00">slice [0] to [7]</text>
</g>
<!-- c16&#45;&gt;x27 -->
<g id="edge28" class="edge">
<title>c16:e&#45;&gt;x27:w</title>
<path fill="none" stroke="black" d="M394.69,-157.75C401.59,-159.26 406.54,-161.79 413.47,-163.28"/>
<polygon fill="none" stroke="black" points="394.44,-157.72 388.06,-161.09 382.5,-156.5 388.88,-153.13 394.44,-157.72"/>
<polygon fill="none" stroke="black" points="413.56,-163.29 419.93,-159.92 425.5,-164.5 419.13,-167.88 413.56,-163.29"/>
</g>
<!-- x26&#45;&gt;c16 -->
<g id="edge27" class="edge">
<title>x26:e&#45;&gt;c16:w</title>
<path fill="none" stroke="black" d="M223.69,-163.25C230.59,-161.74 235.54,-159.21 242.47,-157.72"/>
<polygon fill="none" stroke="black" points="223.44,-163.28 217.88,-167.87 211.5,-164.5 217.06,-159.91 223.44,-163.28"/>
<polygon fill="none" stroke="black" points="242.56,-157.71 248.13,-153.12 254.5,-156.5 248.93,-161.08 242.56,-157.71"/>
</g>
<!-- x27&#45;&gt;n2 -->
<g id="edge58" class="edge">
<title>x27:e&#45;&gt;n2:w</title>
<path fill="none" stroke="black" d="M543.5,-164.5C608.11,-164.5 524.79,-437.05 573.22,-466.86"/>
<polygon fill="black" stroke="black" points="572.43,-470.28 583,-469.5 574.26,-463.52 572.43,-470.28"/>
</g>
<!-- c17 -->
<g id="node45" class="node">
<title>c17</title>
<polygon fill="none" stroke="black" points="255.5,-80.5 255.5,-118.5 381.5,-118.5 381.5,-80.5 255.5,-80.5"/>
<text text-anchor="middle" x="270.5" y="-95.8" font-family="Times,serif" font-size="14.00">in</text>
<polyline fill="none" stroke="black" points="285.5,-80.5 285.5,-118.5 "/>
<text text-anchor="middle" x="313.5" y="-103.3" font-family="Times,serif" font-size="14.00">not_8</text>
<text text-anchor="middle" x="313.5" y="-88.3" font-family="Times,serif" font-size="14.00">Not</text>
<polyline fill="none" stroke="black" points="341.5,-80.5 341.5,-118.5 "/>
<text text-anchor="middle" x="361.5" y="-95.8" font-family="Times,serif" font-size="14.00">out</text>
</g>
<!-- x29 -->
<g id="node47" class="node">
<title>x29</title>
<path fill="none" stroke="black" d="M438.5,-88.5C438.5,-88.5 530.5,-88.5 530.5,-88.5 536.5,-88.5 542.5,-94.5 542.5,-100.5 542.5,-100.5 542.5,-112.5 542.5,-112.5 542.5,-118.5 536.5,-124.5 530.5,-124.5 530.5,-124.5 438.5,-124.5 438.5,-124.5 432.5,-124.5 426.5,-118.5 426.5,-112.5 426.5,-112.5 426.5,-100.5 426.5,-100.5 426.5,-94.5 432.5,-88.5 438.5,-88.5"/>
<text text-anchor="middle" x="484.5" y="-102.8" font-family="Times,serif" font-size="14.00">slice [0] to [8]</text>
</g>
<!-- c17&#45;&gt;x29 -->
<g id="edge30" class="edge">
<title>c17:e&#45;&gt;x29:w</title>
<path fill="none" stroke="black" d="M394.66,-100.59C401.57,-101.92 406.56,-104.13 413.5,-105.44"/>
<polygon fill="none" stroke="black" points="394.45,-100.57 388.12,-104.02 382.5,-99.5 388.83,-96.05 394.45,-100.57"/>
<polygon fill="none" stroke="black" points="413.55,-105.44 419.88,-101.99 425.5,-106.5 419.17,-109.96 413.55,-105.44"/>
</g>
<!-- x28&#45;&gt;c17 -->
<g id="edge29" class="edge">
<title>x28:e&#45;&gt;c17:w</title>
<path fill="none" stroke="black" d="M223.66,-105.41C230.57,-104.08 235.56,-101.87 242.5,-100.56"/>
<polygon fill="none" stroke="black" points="223.45,-105.43 217.83,-109.95 211.5,-106.5 217.12,-101.98 223.45,-105.43"/>
<polygon fill="none" stroke="black" points="242.55,-100.56 248.17,-96.04 254.5,-99.5 248.88,-104.01 242.55,-100.56"/>
</g>
<!-- x29&#45;&gt;n2 -->
<g id="edge59" class="edge">
<title>x29:e&#45;&gt;n2:w</title>
<path fill="none" stroke="black" d="M543.5,-106.5C620.84,-106.5 512.92,-436.27 572.89,-467.18"/>
<polygon fill="black" stroke="black" points="572.47,-470.68 583,-469.5 574.04,-463.85 572.47,-470.68"/>
</g>
<!-- c18 -->
<g id="node48" class="node">
<title>c18</title>
<polygon fill="none" stroke="black" points="255.5,-23.5 255.5,-61.5 381.5,-61.5 381.5,-23.5 255.5,-23.5"/>
<text text-anchor="middle" x="270.5" y="-38.8" font-family="Times,serif" font-size="14.00">in</text>
<polyline fill="none" stroke="black" points="285.5,-23.5 285.5,-61.5 "/>
<text text-anchor="middle" x="313.5" y="-46.3" font-family="Times,serif" font-size="14.00">not_9</text>
<text text-anchor="middle" x="313.5" y="-31.3" font-family="Times,serif" font-size="14.00">Not</text>
<polyline fill="none" stroke="black" points="341.5,-23.5 341.5,-61.5 "/>
<text text-anchor="middle" x="361.5" y="-38.8" font-family="Times,serif" font-size="14.00">out</text>
</g>
<!-- x31 -->
<g id="node50" class="node">
<title>x31</title>
<path fill="none" stroke="black" d="M438.5,-26.5C438.5,-26.5 530.5,-26.5 530.5,-26.5 536.5,-26.5 542.5,-32.5 542.5,-38.5 542.5,-38.5 542.5,-50.5 542.5,-50.5 542.5,-56.5 536.5,-62.5 530.5,-62.5 530.5,-62.5 438.5,-62.5 438.5,-62.5 432.5,-62.5 426.5,-56.5 426.5,-50.5 426.5,-50.5 426.5,-38.5 426.5,-38.5 426.5,-32.5 432.5,-26.5 438.5,-26.5"/>
<text text-anchor="middle" x="484.5" y="-40.8" font-family="Times,serif" font-size="14.00">slice [0] to [9]</text>
</g>
<!-- c18&#45;&gt;x31 -->
<g id="edge32" class="edge">
<title>c18:e&#45;&gt;x31:w</title>
<path fill="none" stroke="black" d="M394.6,-42.81C401.36,-43.18 406.37,-43.79 413.08,-44.17"/>
<polygon fill="none" stroke="black" points="394.5,-42.81 388.39,-46.65 382.5,-42.5 388.6,-38.66 394.5,-42.81"/>
<polygon fill="none" stroke="black" points="413.5,-44.18 419.61,-40.34 425.5,-44.5 419.4,-48.34 413.5,-44.18"/>
</g>
<!-- x30&#45;&gt;c18 -->
<g id="edge31" class="edge">
<title>x30:e&#45;&gt;c18:w</title>
<path fill="none" stroke="black" d="M223.6,-44.19C230.36,-43.82 235.37,-43.21 242.08,-42.83"/>
<polygon fill="none" stroke="black" points="223.5,-44.19 217.6,-48.34 211.5,-44.5 217.39,-40.35 223.5,-44.19"/>
<polygon fill="none" stroke="black" points="242.5,-42.82 248.4,-38.66 254.5,-42.5 248.61,-46.66 242.5,-42.82"/>
</g>
<!-- x31&#45;&gt;n2 -->
<g id="edge60" class="edge">
<title>x31:e&#45;&gt;n2:w</title>
<path fill="none" stroke="black" d="M543.5,-44.5C634.65,-44.5 499.51,-436.95 572.98,-467.61"/>
<polygon fill="black" stroke="black" points="572.52,-471.08 583,-469.5 573.82,-464.2 572.52,-471.08"/>
</g>
</g>
</svg>
