<?xml version="1.0" encoding="UTF-8" standalone="no"?>
<!DOCTYPE svg PUBLIC "-//W3C//DTD SVG 1.1//EN"
 "http://www.w3.org/Graphics/SVG/1.1/DTD/svg11.dtd">
<!-- Generated by graphviz version 2.43.0 (0)
 -->
<!-- Title: Or Pages: 1 -->
<svg width="734pt" height="253pt"
 viewBox="0.00 0.00 733.92 252.50" xmlns="http://www.w3.org/2000/svg" xmlns:xlink="http://www.w3.org/1999/xlink">
<g id="graph0" class="graph" transform="scale(1 1) rotate(0) translate(4 248.5)">
<title>Or</title>
<polygon fill="white" stroke="transparent" points="-4,4 -4,-248.5 729.92,-248.5 729.92,4 -4,4"/>
<text text-anchor="middle" x="362.96" y="-7.8" font-family="Times,serif" font-size="14.00">Or</text>
<!-- n1 -->
<g id="node1" class="node">
<title>n1</title>
<polygon fill="none" stroke="black" points="54,-201.54 54,-216.46 38.18,-227 15.82,-227 0,-216.46 0,-201.54 15.82,-191 38.18,-191 54,-201.54"/>
<text text-anchor="middle" x="27" y="-205.3" font-family="Times,serif" font-size="14.00">a</text>
</g>
<!-- c11 -->
<g id="node11" class="node">
<title>c11</title>
<polygon fill="none" stroke="black" points="90,-198 90,-244 267,-244 267,-198 90,-198"/>
<text text-anchor="middle" x="103" y="-228.8" font-family="Times,serif" font-size="14.00">a</text>
<polyline fill="none" stroke="black" points="90,-221 116,-221 "/>
<text text-anchor="middle" x="103" y="-205.8" font-family="Times,serif" font-size="14.00">b</text>
<polyline fill="none" stroke="black" points="116,-198 116,-244 "/>
<text text-anchor="middle" x="171.5" y="-224.8" font-family="Times,serif" font-size="14.00">not_0.nand_0</text>
<text text-anchor="middle" x="171.5" y="-209.8" font-family="Times,serif" font-size="14.00">Nand</text>
<polyline fill="none" stroke="black" points="227,-198 227,-244 "/>
<text text-anchor="middle" x="247" y="-217.3" font-family="Times,serif" font-size="14.00">out</text>
</g>
<!-- n1&#45;&gt;c11 -->
<g id="edge1" class="edge">
<title>n1:e&#45;&gt;c11:w</title>
<path fill="none" stroke="black" d="M54,-209C69.17,-209 70.84,-223.94 80.32,-230.25"/>
<polygon fill="black" stroke="black" points="79.42,-233.63 90,-233 81.34,-226.9 79.42,-233.63"/>
</g>
<!-- n1&#45;&gt;c11 -->
<g id="edge2" class="edge">
<title>n1:e&#45;&gt;c11:w</title>
<path fill="none" stroke="black" d="M54,-209C66,-209 71.25,-209 79.88,-209"/>
<polygon fill="black" stroke="black" points="80,-212.5 90,-209 80,-205.5 80,-212.5"/>
</g>
<!-- x0 -->
<g id="node13" class="node">
<title>x0</title>
<path fill="none" stroke="black" d="M193.5,-179C193.5,-179 163.5,-179 163.5,-179 157.5,-179 151.5,-173 151.5,-167 151.5,-167 151.5,-155 151.5,-155 151.5,-149 157.5,-143 163.5,-143 163.5,-143 193.5,-143 193.5,-143 199.5,-143 205.5,-149 205.5,-155 205.5,-155 205.5,-167 205.5,-167 205.5,-173 199.5,-179 193.5,-179"/>
<text text-anchor="middle" x="178.5" y="-157.3" font-family="Times,serif" font-size="14.00">BUF</text>
</g>
<!-- n1&#45;&gt;x0 -->
<g id="edge3" class="edge">
<title>n1:e&#45;&gt;x0:w</title>
<path fill="none" stroke="black" d="M54,-209C72.3,-209 73.68,-197.29 90,-189 113.11,-177.25 119.41,-164.63 140.48,-161.65"/>
<polygon fill="black" stroke="black" points="140.75,-165.14 150.5,-161 140.29,-158.16 140.75,-165.14"/>
</g>
<!-- n2 -->
<g id="node2" class="node">
<title>n2</title>
<polygon fill="none" stroke="black" points="54,-81.54 54,-96.46 38.18,-107 15.82,-107 0,-96.46 0,-81.54 15.82,-71 38.18,-71 54,-81.54"/>
<text text-anchor="middle" x="27" y="-85.3" font-family="Times,serif" font-size="14.00">b</text>
</g>
<!-- c12 -->
<g id="node12" class="node">
<title>c12</title>
<polygon fill="none" stroke="black" points="90,-78 90,-124 267,-124 267,-78 90,-78"/>
<text text-anchor="middle" x="103" y="-108.8" font-family="Times,serif" font-size="14.00">a</text>
<polyline fill="none" stroke="black" points="90,-101 116,-101 "/>
<text text-anchor="middle" x="103" y="-85.8" font-family="Times,serif" font-size="14.00">b</text>
<polyline fill="none" stroke="black" points="116,-78 116,-124 "/>
<text text-anchor="middle" x="171.5" y="-104.8" font-family="Times,serif" font-size="14.00">not_1.nand_0</text>
<text text-anchor="middle" x="171.5" y="-89.8" font-family="Times,serif" font-size="14.00">Nand</text>
<polyline fill="none" stroke="black" points="227,-78 227,-124 "/>
<text text-anchor="middle" x="247" y="-97.3" font-family="Times,serif" font-size="14.00">out</text>
</g>
<!-- n2&#45;&gt;c12 -->
<g id="edge4" class="edge">
<title>n2:e&#45;&gt;c12:w</title>
<path fill="none" stroke="black" d="M54,-89C69.17,-89 70.84,-103.94 80.32,-110.25"/>
<polygon fill="black" stroke="black" points="79.42,-113.63 90,-113 81.34,-106.9 79.42,-113.63"/>
</g>
<!-- n2&#45;&gt;c12 -->
<g id="edge5" class="edge">
<title>n2:e&#45;&gt;c12:w</title>
<path fill="none" stroke="black" d="M54,-89C66,-89 71.25,-89 79.88,-89"/>
<polygon fill="black" stroke="black" points="80,-92.5 90,-89 80,-85.5 80,-92.5"/>
</g>
<!-- x1 -->
<g id="node14" class="node">
<title>x1</title>
<path fill="none" stroke="black" d="M193.5,-59C193.5,-59 163.5,-59 163.5,-59 157.5,-59 151.5,-53 151.5,-47 151.5,-47 151.5,-35 151.5,-35 151.5,-29 157.5,-23 163.5,-23 163.5,-23 193.5,-23 193.5,-23 199.5,-23 205.5,-29 205.5,-35 205.5,-35 205.5,-47 205.5,-47 205.5,-53 199.5,-59 193.5,-59"/>
<text text-anchor="middle" x="178.5" y="-37.3" font-family="Times,serif" font-size="14.00">BUF</text>
</g>
<!-- n2&#45;&gt;x1 -->
<g id="edge6" class="edge">
<title>n2:e&#45;&gt;x1:w</title>
<path fill="none" stroke="black" d="M54,-89C72.52,-89 73.52,-76.45 90,-68 112.82,-56.29 119.45,-44.49 140.24,-41.65"/>
<polygon fill="black" stroke="black" points="140.74,-45.12 150.5,-41 140.3,-38.14 140.74,-45.12"/>
</g>
<!-- n3 -->
<g id="node3" class="node">
<title>n3</title>
<polygon fill="none" stroke="black" points="693.75,-239 662.75,-221 693.75,-203 724.76,-221 693.75,-239"/>
<text text-anchor="middle" x="693.75" y="-217.3" font-family="Times,serif" font-size="14.00">na</text>
</g>
<!-- n4 -->
<g id="node4" class="node">
<title>n4</title>
<polygon fill="none" stroke="black" points="693.75,-119 661.41,-101 693.75,-83 726.09,-101 693.75,-119"/>
<text text-anchor="middle" x="693.75" y="-97.3" font-family="Times,serif" font-size="14.00">nb</text>
</g>
<!-- n5 -->
<g id="node5" class="node">
<title>n5</title>
<polygon fill="none" stroke="black" points="379.29,-179 311.25,-161 379.29,-143 447.33,-161 379.29,-179"/>
<text text-anchor="middle" x="379.29" y="-157.3" font-family="Times,serif" font-size="14.00">not_0.in</text>
</g>
<!-- n6 -->
<g id="node6" class="node">
<title>n6</title>
<polygon fill="none" stroke="black" points="379.29,-239 303.21,-221 379.29,-203 455.37,-221 379.29,-239"/>
<text text-anchor="middle" x="379.29" y="-217.3" font-family="Times,serif" font-size="14.00">not_0.out</text>
</g>
<!-- c10 -->
<g id="node10" class="node">
<title>c10</title>
<polygon fill="none" stroke="black" points="491.58,-138 491.58,-184 625.58,-184 625.58,-138 491.58,-138"/>
<text text-anchor="middle" x="504.58" y="-168.8" font-family="Times,serif" font-size="14.00">a</text>
<polyline fill="none" stroke="black" points="491.58,-161 517.58,-161 "/>
<text text-anchor="middle" x="504.58" y="-145.8" font-family="Times,serif" font-size="14.00">b</text>
<polyline fill="none" stroke="black" points="517.58,-138 517.58,-184 "/>
<text text-anchor="middle" x="551.58" y="-164.8" font-family="Times,serif" font-size="14.00">nand_2</text>
<text text-anchor="middle" x="551.58" y="-149.8" font-family="Times,serif" font-size="14.00">Nand</text>
<polyline fill="none" stroke="black" points="585.58,-138 585.58,-184 "/>
<text text-anchor="middle" x="605.58" y="-157.3" font-family="Times,serif" font-size="14.00">out</text>
</g>
<!-- n6&#45;&gt;c10 -->
<g id="edge11" class="edge">
<title>n6:e&#45;&gt;c10:w</title>
<path fill="none" stroke="black" d="M455.58,-221C478.08,-221 469.26,-186.83 481.97,-176.15"/>
<polygon fill="black" stroke="black" points="483.17,-179.44 491.58,-173 480.99,-172.79 483.17,-179.44"/>
</g>
<!-- x2 -->
<g id="node15" class="node">
<title>x2</title>
<path fill="none" stroke="black" d="M573.58,-239C573.58,-239 543.58,-239 543.58,-239 537.58,-239 531.58,-233 531.58,-227 531.58,-227 531.58,-215 531.58,-215 531.58,-209 537.58,-203 543.58,-203 543.58,-203 573.58,-203 573.58,-203 579.58,-203 585.58,-209 585.58,-215 585.58,-215 585.58,-227 585.58,-227 585.58,-233 579.58,-239 573.58,-239"/>
<text text-anchor="middle" x="558.58" y="-217.3" font-family="Times,serif" font-size="14.00">BUF</text>
</g>
<!-- n6&#45;&gt;x2 -->
<g id="edge12" class="edge">
<title>n6:e&#45;&gt;x2:w</title>
<path fill="none" stroke="black" d="M455.58,-221C485.27,-221 495.12,-221 520.47,-221"/>
<polygon fill="black" stroke="black" points="520.58,-224.5 530.58,-221 520.58,-217.5 520.58,-224.5"/>
</g>
<!-- n7 -->
<g id="node7" class="node">
<title>n7</title>
<polygon fill="none" stroke="black" points="379.29,-59 311.25,-41 379.29,-23 447.33,-41 379.29,-59"/>
<text text-anchor="middle" x="379.29" y="-37.3" font-family="Times,serif" font-size="14.00">not_1.in</text>
</g>
<!-- n8 -->
<g id="node8" class="node">
<title>n8</title>
<polygon fill="none" stroke="black" points="379.29,-119 303.21,-101 379.29,-83 455.37,-101 379.29,-119"/>
<text text-anchor="middle" x="379.29" y="-97.3" font-family="Times,serif" font-size="14.00">not_1.out</text>
</g>
<!-- n8&#45;&gt;c10 -->
<g id="edge15" class="edge">
<title>n8:e&#45;&gt;c10:w</title>
<path fill="none" stroke="black" d="M455.58,-101C478.08,-101 469.26,-135.17 481.97,-145.85"/>
<polygon fill="black" stroke="black" points="480.99,-149.21 491.58,-149 483.17,-142.56 480.99,-149.21"/>
</g>
<!-- x3 -->
<g id="node16" class="node">
<title>x3</title>
<path fill="none" stroke="black" d="M573.58,-119C573.58,-119 543.58,-119 543.58,-119 537.58,-119 531.58,-113 531.58,-107 531.58,-107 531.58,-95 531.58,-95 531.58,-89 537.58,-83 543.58,-83 543.58,-83 573.58,-83 573.58,-83 579.58,-83 585.58,-89 585.58,-95 585.58,-95 585.58,-107 585.58,-107 585.58,-113 579.58,-119 573.58,-119"/>
<text text-anchor="middle" x="558.58" y="-97.3" font-family="Times,serif" font-size="14.00">BUF</text>
</g>
<!-- n8&#45;&gt;x3 -->
<g id="edge16" class="edge">
<title>n8:e&#45;&gt;x3:w</title>
<path fill="none" stroke="black" d="M455.58,-101C485.27,-101 495.12,-101 520.47,-101"/>
<polygon fill="black" stroke="black" points="520.58,-104.5 530.58,-101 520.58,-97.5 520.58,-104.5"/>
</g>
<!-- n9 -->
<g id="node9" class="node">
<title>n9</title>
<polygon fill="none" stroke="black" points="722.03,-153.54 722.03,-168.46 705.46,-179 682.04,-179 665.47,-168.46 665.47,-153.54 682.04,-143 705.46,-143 722.03,-153.54"/>
<text text-anchor="middle" x="693.75" y="-157.3" font-family="Times,serif" font-size="14.00">out</text>
</g>
<!-- c10&#45;&gt;n9 -->
<g id="edge17" class="edge">
<title>c10:e&#45;&gt;n9:w</title>
<path fill="none" stroke="black" d="M625.58,-161C639.04,-161 644.7,-161 654.62,-161"/>
<polygon fill="black" stroke="black" points="654.75,-164.5 664.75,-161 654.75,-157.5 654.75,-164.5"/>
</g>
<!-- c11&#45;&gt;n6 -->
<g id="edge10" class="edge">
<title>c11:e&#45;&gt;n6:w</title>
<path fill="none" stroke="black" d="M267,-221C279,-221 284.25,-221 292.88,-221"/>
<polygon fill="black" stroke="black" points="293,-224.5 303,-221 293,-217.5 293,-224.5"/>
</g>
<!-- c12&#45;&gt;n8 -->
<g id="edge14" class="edge">
<title>c12:e&#45;&gt;n8:w</title>
<path fill="none" stroke="black" d="M267,-101C279,-101 284.25,-101 292.88,-101"/>
<polygon fill="black" stroke="black" points="293,-104.5 303,-101 293,-97.5 293,-104.5"/>
</g>
<!-- x0&#45;&gt;n5 -->
<g id="edge9" class="edge">
<title>x0:e&#45;&gt;n5:w</title>
<path fill="none" stroke="black" d="M206.5,-161C249.03,-161 262.15,-161 300.08,-161"/>
<polygon fill="black" stroke="black" points="300.29,-164.5 310.29,-161 300.29,-157.5 300.29,-164.5"/>
</g>
<!-- x1&#45;&gt;n7 -->
<g id="edge13" class="edge">
<title>x1:e&#45;&gt;n7:w</title>
<path fill="none" stroke="black" d="M206.5,-41C249.03,-41 262.15,-41 300.08,-41"/>
<polygon fill="black" stroke="black" points="300.29,-44.5 310.29,-41 300.29,-37.5 300.29,-44.5"/>
</g>
<!-- x2&#45;&gt;n3 -->
<g id="edge7" class="edge">
<title>x2:e&#45;&gt;n3:w</title>
<path fill="none" stroke="black" d="M586.58,-221C616.34,-221 626.21,-221 651.62,-221"/>
<polygon fill="black" stroke="black" points="651.75,-224.5 661.75,-221 651.75,-217.5 651.75,-224.5"/>
</g>
<!-- x3&#45;&gt;n4 -->
<g id="edge8" class="edge">
<title>x3:e&#45;&gt;n4:w</title>
<path fill="none" stroke="black" d="M586.58,-101C616.27,-101 626.12,-101 651.47,-101"/>
<polygon fill="black" stroke="black" points="651.58,-104.5 661.58,-101 651.58,-97.5 651.58,-104.5"/>
</g>
</g>
</svg>
