<?xml version="1.0" encoding="UTF-8" standalone="no"?>
<!DOCTYPE svg PUBLIC "-//W3C//DTD SVG 1.1//EN"
 "http://www.w3.org/Graphics/SVG/1.1/DTD/svg11.dtd">
<!-- Generated by graphviz version 2.43.0 (0)
 -->
<!-- Title: Or8Way Pages: 1 -->
<svg width="1057pt" height="453pt"
 viewBox="0.00 0.00 1056.91 453.00" xmlns="http://www.w3.org/2000/svg" xmlns:xlink="http://www.w3.org/1999/xlink">
<g id="graph0" class="graph" transform="scale(1 1) rotate(0) translate(4 449)">
<title>Or8Way</title>
<polygon fill="white" stroke="transparent" points="-4,4 -4,-449 1052.91,-449 1052.91,4 -4,4"/>
<text text-anchor="middle" x="524.45" y="-7.8" font-family="Times,serif" font-size="14.00">Or8Way</text>
<!-- n1 -->
<g id="node1" class="node">
<title>n1</title>
<polygon fill="none" stroke="black" points="54,-226.04 54,-240.96 38.18,-251.5 15.82,-251.5 0,-240.96 0,-226.04 15.82,-215.5 38.18,-215.5 54,-226.04"/>
<text text-anchor="middle" x="27" y="-229.8" font-family="Times,serif" font-size="14.00">in</text>
</g>
<!-- x0 -->
<g id="node10" class="node">
<title>x0</title>
<path fill="none" stroke="black" d="M102,-408.5C102,-408.5 194,-408.5 194,-408.5 200,-408.5 206,-414.5 206,-420.5 206,-420.5 206,-432.5 206,-432.5 206,-438.5 200,-444.5 194,-444.5 194,-444.5 102,-444.5 102,-444.5 96,-444.5 90,-438.5 90,-432.5 90,-432.5 90,-420.5 90,-420.5 90,-414.5 96,-408.5 102,-408.5"/>
<text text-anchor="middle" x="148" y="-422.8" font-family="Times,serif" font-size="14.00">slice [0] to [0]</text>
</g>
<!-- n1&#45;&gt;x0 -->
<g id="edge9" class="edge">
<title>n1:e&#45;&gt;x0:w</title>
<path fill="none" stroke="black" d="M54,-233.5C137.51,-233.5 14.23,-410.27 79.97,-425.46"/>
<polygon fill="black" stroke="black" points="79.69,-428.95 90,-426.5 80.41,-421.99 79.69,-428.95"/>
</g>
<!-- x1 -->
<g id="node11" class="node">
<title>x1</title>
<path fill="none" stroke="black" d="M102,-353.5C102,-353.5 194,-353.5 194,-353.5 200,-353.5 206,-359.5 206,-365.5 206,-365.5 206,-377.5 206,-377.5 206,-383.5 200,-389.5 194,-389.5 194,-389.5 102,-389.5 102,-389.5 96,-389.5 90,-383.5 90,-377.5 90,-377.5 90,-365.5 90,-365.5 90,-359.5 96,-353.5 102,-353.5"/>
<text text-anchor="middle" x="148" y="-367.8" font-family="Times,serif" font-size="14.00">slice [1] to [0]</text>
</g>
<!-- n1&#45;&gt;x1 -->
<g id="edge10" class="edge">
<title>n1:e&#45;&gt;x1:w</title>
<path fill="none" stroke="black" d="M54,-233.5C113.42,-233.5 37.36,-354.79 79.85,-369.95"/>
<polygon fill="black" stroke="black" points="79.59,-373.45 90,-371.5 80.64,-366.53 79.59,-373.45"/>
</g>
<!-- x2 -->
<g id="node13" class="node">
<title>x2</title>
<path fill="none" stroke="black" d="M102,-298.5C102,-298.5 194,-298.5 194,-298.5 200,-298.5 206,-304.5 206,-310.5 206,-310.5 206,-322.5 206,-322.5 206,-328.5 200,-334.5 194,-334.5 194,-334.5 102,-334.5 102,-334.5 96,-334.5 90,-328.5 90,-322.5 90,-322.5 90,-310.5 90,-310.5 90,-304.5 96,-298.5 102,-298.5"/>
<text text-anchor="middle" x="148" y="-312.8" font-family="Times,serif" font-size="14.00">slice [2] to [0]</text>
</g>
<!-- n1&#45;&gt;x2 -->
<g id="edge11" class="edge">
<title>n1:e&#45;&gt;x2:w</title>
<path fill="none" stroke="black" d="M54,-233.5C90.13,-233.5 57.94,-300.5 80.19,-314.11"/>
<polygon fill="black" stroke="black" points="79.46,-317.53 90,-316.5 81.12,-310.73 79.46,-317.53"/>
</g>
<!-- x3 -->
<g id="node14" class="node">
<title>x3</title>
<path fill="none" stroke="black" d="M102,-243.5C102,-243.5 194,-243.5 194,-243.5 200,-243.5 206,-249.5 206,-255.5 206,-255.5 206,-267.5 206,-267.5 206,-273.5 200,-279.5 194,-279.5 194,-279.5 102,-279.5 102,-279.5 96,-279.5 90,-273.5 90,-267.5 90,-267.5 90,-255.5 90,-255.5 90,-249.5 96,-243.5 102,-243.5"/>
<text text-anchor="middle" x="148" y="-257.8" font-family="Times,serif" font-size="14.00">slice [3] to [0]</text>
</g>
<!-- n1&#45;&gt;x3 -->
<g id="edge12" class="edge">
<title>n1:e&#45;&gt;x3:w</title>
<path fill="none" stroke="black" d="M54,-233.5C70.15,-233.5 70.55,-251.28 80.3,-258.5"/>
<polygon fill="black" stroke="black" points="79.41,-261.89 90,-261.5 81.48,-255.2 79.41,-261.89"/>
</g>
<!-- x4 -->
<g id="node16" class="node">
<title>x4</title>
<path fill="none" stroke="black" d="M102,-188.5C102,-188.5 194,-188.5 194,-188.5 200,-188.5 206,-194.5 206,-200.5 206,-200.5 206,-212.5 206,-212.5 206,-218.5 200,-224.5 194,-224.5 194,-224.5 102,-224.5 102,-224.5 96,-224.5 90,-218.5 90,-212.5 90,-212.5 90,-200.5 90,-200.5 90,-194.5 96,-188.5 102,-188.5"/>
<text text-anchor="middle" x="148" y="-202.8" font-family="Times,serif" font-size="14.00">slice [4] to [0]</text>
</g>
<!-- n1&#45;&gt;x4 -->
<g id="edge13" class="edge">
<title>n1:e&#45;&gt;x4:w</title>
<path fill="none" stroke="black" d="M54,-233.5C69.94,-233.5 70.63,-216.35 80.38,-209.39"/>
<polygon fill="black" stroke="black" points="81.43,-212.73 90,-206.5 79.42,-206.02 81.43,-212.73"/>
</g>
<!-- x5 -->
<g id="node17" class="node">
<title>x5</title>
<path fill="none" stroke="black" d="M102,-133.5C102,-133.5 194,-133.5 194,-133.5 200,-133.5 206,-139.5 206,-145.5 206,-145.5 206,-157.5 206,-157.5 206,-163.5 200,-169.5 194,-169.5 194,-169.5 102,-169.5 102,-169.5 96,-169.5 90,-163.5 90,-157.5 90,-157.5 90,-145.5 90,-145.5 90,-139.5 96,-133.5 102,-133.5"/>
<text text-anchor="middle" x="148" y="-147.8" font-family="Times,serif" font-size="14.00">slice [5] to [0]</text>
</g>
<!-- n1&#45;&gt;x5 -->
<g id="edge14" class="edge">
<title>n1:e&#45;&gt;x5:w</title>
<path fill="none" stroke="black" d="M54,-233.5C89.76,-233.5 58.19,-167.31 80.28,-153.87"/>
<polygon fill="black" stroke="black" points="81.11,-157.27 90,-151.5 79.46,-150.46 81.11,-157.27"/>
</g>
<!-- x6 -->
<g id="node19" class="node">
<title>x6</title>
<path fill="none" stroke="black" d="M102,-78.5C102,-78.5 194,-78.5 194,-78.5 200,-78.5 206,-84.5 206,-90.5 206,-90.5 206,-102.5 206,-102.5 206,-108.5 200,-114.5 194,-114.5 194,-114.5 102,-114.5 102,-114.5 96,-114.5 90,-108.5 90,-102.5 90,-102.5 90,-90.5 90,-90.5 90,-84.5 96,-78.5 102,-78.5"/>
<text text-anchor="middle" x="148" y="-92.8" font-family="Times,serif" font-size="14.00">slice [6] to [0]</text>
</g>
<!-- n1&#45;&gt;x6 -->
<g id="edge15" class="edge">
<title>n1:e&#45;&gt;x6:w</title>
<path fill="none" stroke="black" d="M54,-233.5C113.02,-233.5 37.69,-113.09 79.91,-98.04"/>
<polygon fill="black" stroke="black" points="80.64,-101.47 90,-96.5 79.59,-94.55 80.64,-101.47"/>
</g>
<!-- x7 -->
<g id="node20" class="node">
<title>x7</title>
<path fill="none" stroke="black" d="M102,-23.5C102,-23.5 194,-23.5 194,-23.5 200,-23.5 206,-29.5 206,-35.5 206,-35.5 206,-47.5 206,-47.5 206,-53.5 200,-59.5 194,-59.5 194,-59.5 102,-59.5 102,-59.5 96,-59.5 90,-53.5 90,-47.5 90,-47.5 90,-35.5 90,-35.5 90,-29.5 96,-23.5 102,-23.5"/>
<text text-anchor="middle" x="148" y="-37.8" font-family="Times,serif" font-size="14.00">slice [7] to [0]</text>
</g>
<!-- n1&#45;&gt;x7 -->
<g id="edge16" class="edge">
<title>n1:e&#45;&gt;x7:w</title>
<path fill="none" stroke="black" d="M54,-233.5C137.09,-233.5 14.59,-57.65 80.02,-42.53"/>
<polygon fill="black" stroke="black" points="80.41,-46.01 90,-41.5 79.69,-39.05 80.41,-46.01"/>
</g>
<!-- n2 -->
<g id="node2" class="node">
<title>n2</title>
<polygon fill="none" stroke="black" points="436.96,-387.5 391.04,-369.5 436.96,-351.5 482.87,-369.5 436.96,-387.5"/>
<text text-anchor="middle" x="436.96" y="-365.8" font-family="Times,serif" font-size="14.00">or01</text>
</g>
<!-- c15 -->
<g id="node21" class="node">
<title>c15</title>
<polygon fill="none" stroke="black" points="518.92,-276.5 518.92,-322.5 631.92,-322.5 631.92,-276.5 518.92,-276.5"/>
<text text-anchor="middle" x="531.92" y="-307.3" font-family="Times,serif" font-size="14.00">a</text>
<polyline fill="none" stroke="black" points="518.92,-299.5 544.92,-299.5 "/>
<text text-anchor="middle" x="531.92" y="-284.3" font-family="Times,serif" font-size="14.00">b</text>
<polyline fill="none" stroke="black" points="544.92,-276.5 544.92,-322.5 "/>
<text text-anchor="middle" x="568.42" y="-303.3" font-family="Times,serif" font-size="14.00">or_4</text>
<text text-anchor="middle" x="568.42" y="-288.3" font-family="Times,serif" font-size="14.00">Or</text>
<polyline fill="none" stroke="black" points="591.92,-276.5 591.92,-322.5 "/>
<text text-anchor="middle" x="611.92" y="-295.8" font-family="Times,serif" font-size="14.00">out</text>
</g>
<!-- n2&#45;&gt;c15 -->
<g id="edge18" class="edge">
<title>n2:e&#45;&gt;c15:w</title>
<path fill="none" stroke="black" d="M482.92,-369.5C508.99,-369.5 494.43,-326.67 509.07,-314.62"/>
<polygon fill="black" stroke="black" points="510.44,-317.86 518.92,-311.5 508.33,-311.18 510.44,-317.86"/>
</g>
<!-- n3 -->
<g id="node3" class="node">
<title>n3</title>
<polygon fill="none" stroke="black" points="737.77,-297.5 675.27,-279.5 737.77,-261.5 800.28,-279.5 737.77,-297.5"/>
<text text-anchor="middle" x="737.77" y="-275.8" font-family="Times,serif" font-size="14.00">or0123</text>
</g>
<!-- c17 -->
<g id="node23" class="node">
<title>c17</title>
<polygon fill="none" stroke="black" points="843.63,-219.5 843.63,-265.5 956.63,-265.5 956.63,-219.5 843.63,-219.5"/>
<text text-anchor="middle" x="856.63" y="-250.3" font-family="Times,serif" font-size="14.00">a</text>
<polyline fill="none" stroke="black" points="843.63,-242.5 869.63,-242.5 "/>
<text text-anchor="middle" x="856.63" y="-227.3" font-family="Times,serif" font-size="14.00">b</text>
<polyline fill="none" stroke="black" points="869.63,-219.5 869.63,-265.5 "/>
<text text-anchor="middle" x="893.13" y="-246.3" font-family="Times,serif" font-size="14.00">or_6</text>
<text text-anchor="middle" x="893.13" y="-231.3" font-family="Times,serif" font-size="14.00">Or</text>
<polyline fill="none" stroke="black" points="916.63,-219.5 916.63,-265.5 "/>
<text text-anchor="middle" x="936.63" y="-238.8" font-family="Times,serif" font-size="14.00">out</text>
</g>
<!-- n3&#45;&gt;c17 -->
<g id="edge20" class="edge">
<title>n3:e&#45;&gt;c17:w</title>
<path fill="none" stroke="black" d="M801.77,-279.5C819.38,-279.5 821.7,-263 833.58,-256.81"/>
<polygon fill="black" stroke="black" points="834.66,-260.15 843.63,-254.5 833.1,-253.33 834.66,-260.15"/>
</g>
<!-- n4 -->
<g id="node4" class="node">
<title>n4</title>
<polygon fill="none" stroke="black" points="436.96,-305.5 391.04,-287.5 436.96,-269.5 482.87,-287.5 436.96,-305.5"/>
<text text-anchor="middle" x="436.96" y="-283.8" font-family="Times,serif" font-size="14.00">or23</text>
</g>
<!-- n4&#45;&gt;c15 -->
<g id="edge22" class="edge">
<title>n4:e&#45;&gt;c15:w</title>
<path fill="none" stroke="black" d="M482.92,-287.5C494.92,-287.5 500.17,-287.5 508.79,-287.5"/>
<polygon fill="black" stroke="black" points="508.92,-291 518.92,-287.5 508.92,-284 508.92,-291"/>
</g>
<!-- n5 -->
<g id="node5" class="node">
<title>n5</title>
<polygon fill="none" stroke="black" points="436.96,-198.5 391.04,-180.5 436.96,-162.5 482.87,-180.5 436.96,-198.5"/>
<text text-anchor="middle" x="436.96" y="-176.8" font-family="Times,serif" font-size="14.00">or45</text>
</g>
<!-- c16 -->
<g id="node22" class="node">
<title>c16</title>
<polygon fill="none" stroke="black" points="518.92,-145.5 518.92,-191.5 631.92,-191.5 631.92,-145.5 518.92,-145.5"/>
<text text-anchor="middle" x="531.92" y="-176.3" font-family="Times,serif" font-size="14.00">a</text>
<polyline fill="none" stroke="black" points="518.92,-168.5 544.92,-168.5 "/>
<text text-anchor="middle" x="531.92" y="-153.3" font-family="Times,serif" font-size="14.00">b</text>
<polyline fill="none" stroke="black" points="544.92,-145.5 544.92,-191.5 "/>
<text text-anchor="middle" x="568.42" y="-172.3" font-family="Times,serif" font-size="14.00">or_5</text>
<text text-anchor="middle" x="568.42" y="-157.3" font-family="Times,serif" font-size="14.00">Or</text>
<polyline fill="none" stroke="black" points="591.92,-145.5 591.92,-191.5 "/>
<text text-anchor="middle" x="611.92" y="-164.8" font-family="Times,serif" font-size="14.00">out</text>
</g>
<!-- n5&#45;&gt;c16 -->
<g id="edge24" class="edge">
<title>n5:e&#45;&gt;c16:w</title>
<path fill="none" stroke="black" d="M482.92,-180.5C494.92,-180.5 500.17,-180.5 508.79,-180.5"/>
<polygon fill="black" stroke="black" points="508.92,-184 518.92,-180.5 508.92,-177 508.92,-184"/>
</g>
<!-- n6 -->
<g id="node6" class="node">
<title>n6</title>
<polygon fill="none" stroke="black" points="436.96,-116.5 391.04,-98.5 436.96,-80.5 482.87,-98.5 436.96,-116.5"/>
<text text-anchor="middle" x="436.96" y="-94.8" font-family="Times,serif" font-size="14.00">or67</text>
</g>
<!-- n6&#45;&gt;c16 -->
<g id="edge26" class="edge">
<title>n6:e&#45;&gt;c16:w</title>
<path fill="none" stroke="black" d="M482.92,-98.5C508.99,-98.5 494.43,-141.33 509.07,-153.38"/>
<polygon fill="black" stroke="black" points="508.33,-156.82 518.92,-156.5 510.44,-150.14 508.33,-156.82"/>
</g>
<!-- n7 -->
<g id="node7" class="node">
<title>n7</title>
<polygon fill="none" stroke="black" points="1049.05,-235.04 1049.05,-249.96 1032.48,-260.5 1009.05,-260.5 992.49,-249.96 992.49,-235.04 1009.05,-224.5 1032.48,-224.5 1049.05,-235.04"/>
<text text-anchor="middle" x="1020.77" y="-238.8" font-family="Times,serif" font-size="14.00">out</text>
</g>
<!-- n8 -->
<g id="node8" class="node">
<title>n8</title>
<polygon fill="none" stroke="black" points="737.77,-224.5 668.06,-206.5 737.77,-188.5 807.48,-206.5 737.77,-224.5"/>
<text text-anchor="middle" x="737.77" y="-202.8" font-family="Times,serif" font-size="14.00">out4567</text>
</g>
<!-- n8&#45;&gt;c17 -->
<g id="edge29" class="edge">
<title>n8:e&#45;&gt;c17:w</title>
<path fill="none" stroke="black" d="M807.63,-206.5C822.8,-206.5 824.47,-221.44 833.95,-227.75"/>
<polygon fill="black" stroke="black" points="833.05,-231.13 843.63,-230.5 834.97,-224.4 833.05,-231.13"/>
</g>
<!-- c11 -->
<g id="node9" class="node">
<title>c11</title>
<polygon fill="none" stroke="black" points="242,-360.5 242,-406.5 355,-406.5 355,-360.5 242,-360.5"/>
<text text-anchor="middle" x="255" y="-391.3" font-family="Times,serif" font-size="14.00">a</text>
<polyline fill="none" stroke="black" points="242,-383.5 268,-383.5 "/>
<text text-anchor="middle" x="255" y="-368.3" font-family="Times,serif" font-size="14.00">b</text>
<polyline fill="none" stroke="black" points="268,-360.5 268,-406.5 "/>
<text text-anchor="middle" x="291.5" y="-387.3" font-family="Times,serif" font-size="14.00">or_0</text>
<text text-anchor="middle" x="291.5" y="-372.3" font-family="Times,serif" font-size="14.00">Or</text>
<polyline fill="none" stroke="black" points="315,-360.5 315,-406.5 "/>
<text text-anchor="middle" x="335" y="-379.8" font-family="Times,serif" font-size="14.00">out</text>
</g>
<!-- c11&#45;&gt;n2 -->
<g id="edge17" class="edge">
<title>c11:e&#45;&gt;n2:w</title>
<path fill="none" stroke="black" d="M355,-383.5C368.14,-383.5 372.2,-375.29 381.08,-371.45"/>
<polygon fill="black" stroke="black" points="381.86,-374.86 391,-369.5 380.51,-367.99 381.86,-374.86"/>
</g>
<!-- x0&#45;&gt;c11 -->
<g id="edge1" class="edge">
<title>x0:e&#45;&gt;c11:w</title>
<path fill="none" stroke="black" d="M217.31,-421.93C222.95,-416.13 224.93,-406.19 230.48,-400.3"/>
<polygon fill="none" stroke="black" points="217.12,-422 213.06,-427.96 206,-426.5 210.06,-420.54 217.12,-422"/>
<polygon fill="none" stroke="black" points="230.92,-400.11 234.92,-394.11 242,-395.5 238,-401.5 230.92,-400.11"/>
</g>
<!-- x1&#45;&gt;c11 -->
<g id="edge2" class="edge">
<title>x1:e&#45;&gt;c11:w</title>
<path fill="none" stroke="black" d="M218.22,-371.5C222.29,-371.5 225.73,-371.5 229.81,-371.5"/>
<polygon fill="none" stroke="black" points="218,-371.5 212,-375.5 206,-371.5 212,-367.5 218,-371.5"/>
<polygon fill="none" stroke="black" points="230,-371.5 236,-367.5 242,-371.5 236,-375.5 230,-371.5"/>
</g>
<!-- c12 -->
<g id="node12" class="node">
<title>c12</title>
<polygon fill="none" stroke="black" points="242,-264.5 242,-310.5 355,-310.5 355,-264.5 242,-264.5"/>
<text text-anchor="middle" x="255" y="-295.3" font-family="Times,serif" font-size="14.00">a</text>
<polyline fill="none" stroke="black" points="242,-287.5 268,-287.5 "/>
<text text-anchor="middle" x="255" y="-272.3" font-family="Times,serif" font-size="14.00">b</text>
<polyline fill="none" stroke="black" points="268,-264.5 268,-310.5 "/>
<text text-anchor="middle" x="291.5" y="-291.3" font-family="Times,serif" font-size="14.00">or_1</text>
<text text-anchor="middle" x="291.5" y="-276.3" font-family="Times,serif" font-size="14.00">Or</text>
<polyline fill="none" stroke="black" points="315,-264.5 315,-310.5 "/>
<text text-anchor="middle" x="335" y="-283.8" font-family="Times,serif" font-size="14.00">out</text>
</g>
<!-- c12&#45;&gt;n4 -->
<g id="edge21" class="edge">
<title>c12:e&#45;&gt;n4:w</title>
<path fill="none" stroke="black" d="M355,-287.5C367,-287.5 372.25,-287.5 380.88,-287.5"/>
<polygon fill="black" stroke="black" points="381,-291 391,-287.5 381,-284 381,-291"/>
</g>
<!-- x2&#45;&gt;c12 -->
<g id="edge3" class="edge">
<title>x2:e&#45;&gt;c12:w</title>
<path fill="none" stroke="black" d="M217.64,-313.22C222.36,-310.21 225.65,-305.77 230.38,-302.77"/>
<polygon fill="none" stroke="black" points="217.55,-313.25 212.86,-318.72 206,-316.5 210.69,-311.02 217.55,-313.25"/>
<polygon fill="none" stroke="black" points="230.45,-302.75 235.14,-297.27 242,-299.5 237.31,-304.97 230.45,-302.75"/>
</g>
<!-- x3&#45;&gt;c12 -->
<g id="edge4" class="edge">
<title>x3:e&#45;&gt;c12:w</title>
<path fill="none" stroke="black" d="M217.75,-264.33C222.31,-266.76 225.7,-270.24 230.26,-272.67"/>
<polygon fill="none" stroke="black" points="217.67,-264.31 210.9,-266.79 206,-261.5 212.77,-259.02 217.67,-264.31"/>
<polygon fill="none" stroke="black" points="230.33,-272.69 237.1,-270.21 242,-275.5 235.23,-277.98 230.33,-272.69"/>
</g>
<!-- c13 -->
<g id="node15" class="node">
<title>c13</title>
<polygon fill="none" stroke="black" points="242,-157.5 242,-203.5 355,-203.5 355,-157.5 242,-157.5"/>
<text text-anchor="middle" x="255" y="-188.3" font-family="Times,serif" font-size="14.00">a</text>
<polyline fill="none" stroke="black" points="242,-180.5 268,-180.5 "/>
<text text-anchor="middle" x="255" y="-165.3" font-family="Times,serif" font-size="14.00">b</text>
<polyline fill="none" stroke="black" points="268,-157.5 268,-203.5 "/>
<text text-anchor="middle" x="291.5" y="-184.3" font-family="Times,serif" font-size="14.00">or_2</text>
<text text-anchor="middle" x="291.5" y="-169.3" font-family="Times,serif" font-size="14.00">Or</text>
<polyline fill="none" stroke="black" points="315,-157.5 315,-203.5 "/>
<text text-anchor="middle" x="335" y="-176.8" font-family="Times,serif" font-size="14.00">out</text>
</g>
<!-- c13&#45;&gt;n5 -->
<g id="edge23" class="edge">
<title>c13:e&#45;&gt;n5:w</title>
<path fill="none" stroke="black" d="M355,-180.5C367,-180.5 372.25,-180.5 380.88,-180.5"/>
<polygon fill="black" stroke="black" points="381,-184 391,-180.5 381,-177 381,-184"/>
</g>
<!-- x4&#45;&gt;c13 -->
<g id="edge5" class="edge">
<title>x4:e&#45;&gt;c13:w</title>
<path fill="none" stroke="black" d="M217.75,-203.67C222.31,-201.24 225.7,-197.76 230.26,-195.33"/>
<polygon fill="none" stroke="black" points="217.67,-203.69 212.77,-208.98 206,-206.5 210.9,-201.21 217.67,-203.69"/>
<polygon fill="none" stroke="black" points="230.33,-195.31 235.23,-190.02 242,-192.5 237.1,-197.79 230.33,-195.31"/>
</g>
<!-- x5&#45;&gt;c13 -->
<g id="edge6" class="edge">
<title>x5:e&#45;&gt;c13:w</title>
<path fill="none" stroke="black" d="M217.64,-154.78C222.36,-157.79 225.65,-162.23 230.38,-165.23"/>
<polygon fill="none" stroke="black" points="217.55,-154.75 210.69,-156.98 206,-151.5 212.86,-149.28 217.55,-154.75"/>
<polygon fill="none" stroke="black" points="230.45,-165.25 237.31,-163.03 242,-168.5 235.14,-170.73 230.45,-165.25"/>
</g>
<!-- c14 -->
<g id="node18" class="node">
<title>c14</title>
<polygon fill="none" stroke="black" points="242,-61.5 242,-107.5 355,-107.5 355,-61.5 242,-61.5"/>
<text text-anchor="middle" x="255" y="-92.3" font-family="Times,serif" font-size="14.00">a</text>
<polyline fill="none" stroke="black" points="242,-84.5 268,-84.5 "/>
<text text-anchor="middle" x="255" y="-69.3" font-family="Times,serif" font-size="14.00">b</text>
<polyline fill="none" stroke="black" points="268,-61.5 268,-107.5 "/>
<text text-anchor="middle" x="291.5" y="-88.3" font-family="Times,serif" font-size="14.00">or_3</text>
<text text-anchor="middle" x="291.5" y="-73.3" font-family="Times,serif" font-size="14.00">Or</text>
<polyline fill="none" stroke="black" points="315,-61.5 315,-107.5 "/>
<text text-anchor="middle" x="335" y="-80.8" font-family="Times,serif" font-size="14.00">out</text>
</g>
<!-- c14&#45;&gt;n6 -->
<g id="edge25" class="edge">
<title>c14:e&#45;&gt;n6:w</title>
<path fill="none" stroke="black" d="M355,-84.5C368.14,-84.5 372.2,-92.71 381.08,-96.55"/>
<polygon fill="black" stroke="black" points="380.51,-100.01 391,-98.5 381.86,-93.14 380.51,-100.01"/>
</g>
<!-- x6&#45;&gt;c14 -->
<g id="edge7" class="edge">
<title>x6:e&#45;&gt;c14:w</title>
<path fill="none" stroke="black" d="M218.22,-96.5C222.29,-96.5 225.73,-96.5 229.81,-96.5"/>
<polygon fill="none" stroke="black" points="218,-96.5 212,-100.5 206,-96.5 212,-92.5 218,-96.5"/>
<polygon fill="none" stroke="black" points="230,-96.5 236,-92.5 242,-96.5 236,-100.5 230,-96.5"/>
</g>
<!-- x7&#45;&gt;c14 -->
<g id="edge8" class="edge">
<title>x7:e&#45;&gt;c14:w</title>
<path fill="none" stroke="black" d="M217.31,-46.07C222.95,-51.87 224.93,-61.81 230.48,-67.7"/>
<polygon fill="none" stroke="black" points="217.12,-46 210.06,-47.46 206,-41.5 213.06,-40.04 217.12,-46"/>
<polygon fill="none" stroke="black" points="230.92,-67.89 238,-66.5 242,-72.5 234.92,-73.89 230.92,-67.89"/>
</g>
<!-- c15&#45;&gt;n3 -->
<g id="edge19" class="edge">
<title>c15:e&#45;&gt;n3:w</title>
<path fill="none" stroke="black" d="M631.92,-299.5C648.51,-299.5 652.15,-286.55 663.68,-281.49"/>
<polygon fill="black" stroke="black" points="664.64,-284.87 673.77,-279.5 663.28,-278 664.64,-284.87"/>
</g>
<!-- c16&#45;&gt;n8 -->
<g id="edge28" class="edge">
<title>c16:e&#45;&gt;n8:w</title>
<path fill="none" stroke="black" d="M631.92,-168.5C651,-168.5 647.34,-194.07 658.26,-203.26"/>
<polygon fill="black" stroke="black" points="657.32,-206.64 667.92,-206.5 659.55,-200 657.32,-206.64"/>
</g>
<!-- c17&#45;&gt;n7 -->
<g id="edge27" class="edge">
<title>c17:e&#45;&gt;n7:w</title>
<path fill="none" stroke="black" d="M956.63,-242.5C968.63,-242.5 973.88,-242.5 982.5,-242.5"/>
<polygon fill="black" stroke="black" points="982.63,-246 992.63,-242.5 982.63,-239 982.63,-246"/>
</g>
</g>
</svg>
