<?xml version="1.0" encoding="UTF-8" standalone="no"?>
<!DOCTYPE svg PUBLIC "-//W3C//DTD SVG 1.1//EN"
 "http://www.w3.org/Graphics/SVG/1.1/DTD/svg11.dtd">
<!-- Generated by graphviz version 2.43.0 (0)
 -->
<!-- Title: Xor Pages: 1 -->
<svg width="2296pt" height="426pt"
 viewBox="0.00 0.00 2295.97 426.00" xmlns="http://www.w3.org/2000/svg" xmlns:xlink="http://www.w3.org/1999/xlink">
<g id="graph0" class="graph" transform="scale(1 1) rotate(0) translate(4 422)">
<title>Xor</title>
<polygon fill="white" stroke="transparent" points="-4,4 -4,-422 2291.97,-422 2291.97,4 -4,4"/>
<text text-anchor="middle" x="1143.99" y="-7.8" font-family="Times,serif" font-size="14.00">Xor</text>
<!-- n1 -->
<g id="node1" class="node">
<title>n1</title>
<polygon fill="none" stroke="black" points="54,-320.54 54,-335.46 38.18,-346 15.82,-346 0,-335.46 0,-320.54 15.82,-310 38.18,-310 54,-320.54"/>
<text text-anchor="middle" x="27" y="-324.3" font-family="Times,serif" font-size="14.00">a</text>
</g>
<!-- c23 -->
<g id="node23" class="node">
<title>c23</title>
<polygon fill="none" stroke="black" points="129,-197 129,-243 263,-243 263,-197 129,-197"/>
<text text-anchor="middle" x="142" y="-227.8" font-family="Times,serif" font-size="14.00">a</text>
<polyline fill="none" stroke="black" points="129,-220 155,-220 "/>
<text text-anchor="middle" x="142" y="-204.8" font-family="Times,serif" font-size="14.00">b</text>
<polyline fill="none" stroke="black" points="155,-197 155,-243 "/>
<text text-anchor="middle" x="189" y="-223.8" font-family="Times,serif" font-size="14.00">nand_1</text>
<text text-anchor="middle" x="189" y="-208.8" font-family="Times,serif" font-size="14.00">Nand</text>
<polyline fill="none" stroke="black" points="223,-197 223,-243 "/>
<text text-anchor="middle" x="243" y="-216.3" font-family="Times,serif" font-size="14.00">out</text>
</g>
<!-- n1&#45;&gt;c23 -->
<g id="edge1" class="edge">
<title>n1:e&#45;&gt;c23:w</title>
<path fill="none" stroke="black" d="M54,-328C90.97,-328 64.62,-279.88 90,-253 100.56,-241.82 106.17,-235.12 117.77,-232.86"/>
<polygon fill="black" stroke="black" points="118.33,-236.33 128,-232 117.74,-229.35 118.33,-236.33"/>
</g>
<!-- c25 -->
<g id="node25" class="node">
<title>c25</title>
<polygon fill="none" stroke="black" points="90,-317 90,-363 302,-363 302,-317 90,-317"/>
<text text-anchor="middle" x="103" y="-347.8" font-family="Times,serif" font-size="14.00">a</text>
<polyline fill="none" stroke="black" points="90,-340 116,-340 "/>
<text text-anchor="middle" x="103" y="-324.8" font-family="Times,serif" font-size="14.00">b</text>
<polyline fill="none" stroke="black" points="116,-317 116,-363 "/>
<text text-anchor="middle" x="189" y="-343.8" font-family="Times,serif" font-size="14.00">or_0.not_0.nand_0</text>
<text text-anchor="middle" x="189" y="-328.8" font-family="Times,serif" font-size="14.00">Nand</text>
<polyline fill="none" stroke="black" points="262,-317 262,-363 "/>
<text text-anchor="middle" x="282" y="-336.3" font-family="Times,serif" font-size="14.00">out</text>
</g>
<!-- n1&#45;&gt;c25 -->
<g id="edge2" class="edge">
<title>n1:e&#45;&gt;c25:w</title>
<path fill="none" stroke="black" d="M54,-328C69.17,-328 70.84,-342.94 80.32,-349.25"/>
<polygon fill="black" stroke="black" points="79.42,-352.63 90,-352 81.34,-345.9 79.42,-352.63"/>
</g>
<!-- n1&#45;&gt;c25 -->
<g id="edge3" class="edge">
<title>n1:e&#45;&gt;c25:w</title>
<path fill="none" stroke="black" d="M54,-328C66,-328 71.25,-328 79.88,-328"/>
<polygon fill="black" stroke="black" points="80,-331.5 90,-328 80,-324.5 80,-331.5"/>
</g>
<!-- x3 -->
<g id="node30" class="node">
<title>x3</title>
<path fill="none" stroke="black" d="M211,-298C211,-298 181,-298 181,-298 175,-298 169,-292 169,-286 169,-286 169,-274 169,-274 169,-268 175,-262 181,-262 181,-262 211,-262 211,-262 217,-262 223,-268 223,-274 223,-274 223,-286 223,-286 223,-292 217,-298 211,-298"/>
<text text-anchor="middle" x="196" y="-276.3" font-family="Times,serif" font-size="14.00">BUF</text>
</g>
<!-- n1&#45;&gt;x3 -->
<g id="edge4" class="edge">
<title>n1:e&#45;&gt;x3:w</title>
<path fill="none" stroke="black" d="M54,-328C72.3,-328 73.33,-315.56 90,-308 120.27,-294.27 129.43,-282.52 157.99,-280.36"/>
<polygon fill="black" stroke="black" points="158.13,-283.85 168,-280 157.88,-276.86 158.13,-283.85"/>
</g>
<!-- x8 -->
<g id="node35" class="node">
<title>x8</title>
<path fill="none" stroke="black" d="M211,-418C211,-418 181,-418 181,-418 175,-418 169,-412 169,-406 169,-406 169,-394 169,-394 169,-388 175,-382 181,-382 181,-382 211,-382 211,-382 217,-382 223,-388 223,-394 223,-394 223,-406 223,-406 223,-412 217,-418 211,-418"/>
<text text-anchor="middle" x="196" y="-396.3" font-family="Times,serif" font-size="14.00">BUF</text>
</g>
<!-- n1&#45;&gt;x8 -->
<g id="edge5" class="edge">
<title>n1:e&#45;&gt;x8:w</title>
<path fill="none" stroke="black" d="M54,-328C79.61,-328 69.08,-358.23 90,-373 117.04,-392.09 128.92,-398.71 157.94,-399.82"/>
<polygon fill="black" stroke="black" points="157.94,-403.32 168,-400 158.06,-396.33 157.94,-403.32"/>
</g>
<!-- n2 -->
<g id="node2" class="node">
<title>n2</title>
<polygon fill="none" stroke="black" points="888.76,-196 838.15,-178 888.76,-160 939.36,-178 888.76,-196"/>
<text text-anchor="middle" x="888.76" y="-174.3" font-family="Times,serif" font-size="14.00">aNdb</text>
</g>
<!-- n3 -->
<g id="node3" class="node">
<title>n3</title>
<polygon fill="none" stroke="black" points="1359.52,-365 1318.29,-347 1359.52,-329 1400.74,-347 1359.52,-365"/>
<text text-anchor="middle" x="1359.52" y="-343.3" font-family="Times,serif" font-size="14.00">aOb</text>
</g>
<!-- n4 -->
<g id="node4" class="node">
<title>n4</title>
<polygon fill="none" stroke="black" points="888.76,-303 823.73,-285 888.76,-267 953.78,-285 888.76,-303"/>
<text text-anchor="middle" x="888.76" y="-281.3" font-family="Times,serif" font-size="14.00">and_2.a</text>
</g>
<!-- c21 -->
<g id="node21" class="node">
<title>c21</title>
<polygon fill="none" stroke="black" points="1034.14,-210 1034.14,-256 1214.14,-256 1214.14,-210 1034.14,-210"/>
<text text-anchor="middle" x="1047.14" y="-240.8" font-family="Times,serif" font-size="14.00">a</text>
<polyline fill="none" stroke="black" points="1034.14,-233 1060.14,-233 "/>
<text text-anchor="middle" x="1047.14" y="-217.8" font-family="Times,serif" font-size="14.00">b</text>
<polyline fill="none" stroke="black" points="1060.14,-210 1060.14,-256 "/>
<text text-anchor="middle" x="1117.14" y="-236.8" font-family="Times,serif" font-size="14.00">and_2.nand_0</text>
<text text-anchor="middle" x="1117.14" y="-221.8" font-family="Times,serif" font-size="14.00">Nand</text>
<polyline fill="none" stroke="black" points="1174.14,-210 1174.14,-256 "/>
<text text-anchor="middle" x="1194.14" y="-229.3" font-family="Times,serif" font-size="14.00">out</text>
</g>
<!-- n4&#45;&gt;c21 -->
<g id="edge28" class="edge">
<title>n4:e&#45;&gt;c21:w</title>
<path fill="none" stroke="black" d="M954.76,-285C990.56,-285 994.22,-252.15 1023.99,-245.99"/>
<polygon fill="black" stroke="black" points="1024.52,-249.45 1034.14,-245 1023.84,-242.49 1024.52,-249.45"/>
</g>
<!-- x6 -->
<g id="node33" class="node">
<title>x6</title>
<path fill="none" stroke="black" d="M1139.14,-311C1139.14,-311 1109.14,-311 1109.14,-311 1103.14,-311 1097.14,-305 1097.14,-299 1097.14,-299 1097.14,-287 1097.14,-287 1097.14,-281 1103.14,-275 1109.14,-275 1109.14,-275 1139.14,-275 1139.14,-275 1145.14,-275 1151.14,-281 1151.14,-287 1151.14,-287 1151.14,-299 1151.14,-299 1151.14,-305 1145.14,-311 1139.14,-311"/>
<text text-anchor="middle" x="1124.14" y="-289.3" font-family="Times,serif" font-size="14.00">BUF</text>
</g>
<!-- n4&#45;&gt;x6 -->
<g id="edge30" class="edge">
<title>n4:e&#45;&gt;x6:w</title>
<path fill="none" stroke="black" d="M954.76,-285C1014.13,-285 1031.29,-292.12 1085.88,-292.93"/>
<polygon fill="black" stroke="black" points="1086.11,-296.43 1096.14,-293 1086.16,-289.43 1086.11,-296.43"/>
</g>
<!-- x10 -->
<g id="node37" class="node">
<title>x10</title>
<path fill="none" stroke="black" d="M1139.14,-365C1139.14,-365 1109.14,-365 1109.14,-365 1103.14,-365 1097.14,-359 1097.14,-353 1097.14,-353 1097.14,-341 1097.14,-341 1097.14,-335 1103.14,-329 1109.14,-329 1109.14,-329 1139.14,-329 1139.14,-329 1145.14,-329 1151.14,-335 1151.14,-341 1151.14,-341 1151.14,-353 1151.14,-353 1151.14,-359 1145.14,-365 1139.14,-365"/>
<text text-anchor="middle" x="1124.14" y="-343.3" font-family="Times,serif" font-size="14.00">BUF</text>
</g>
<!-- n4&#45;&gt;x10 -->
<g id="edge29" class="edge">
<title>n4:e&#45;&gt;x10:w</title>
<path fill="none" stroke="black" d="M954.76,-285C1019.75,-285 1026.91,-340.63 1085.8,-346.5"/>
<polygon fill="black" stroke="black" points="1085.98,-350.01 1096.14,-347 1086.32,-343.02 1085.98,-350.01"/>
</g>
<!-- n5 -->
<g id="node5" class="node">
<title>n5</title>
<polygon fill="none" stroke="black" points="1359.52,-251 1250.26,-233 1359.52,-215 1468.77,-233 1359.52,-251"/>
<text text-anchor="middle" x="1359.52" y="-229.3" font-family="Times,serif" font-size="14.00">and_2.aNandb</text>
</g>
<!-- c22 -->
<g id="node22" class="node">
<title>c22</title>
<polygon fill="none" stroke="black" points="1504.9,-222 1504.9,-268 1728.9,-268 1728.9,-222 1504.9,-222"/>
<text text-anchor="middle" x="1517.9" y="-252.8" font-family="Times,serif" font-size="14.00">a</text>
<polyline fill="none" stroke="black" points="1504.9,-245 1530.9,-245 "/>
<text text-anchor="middle" x="1517.9" y="-229.8" font-family="Times,serif" font-size="14.00">b</text>
<polyline fill="none" stroke="black" points="1530.9,-222 1530.9,-268 "/>
<text text-anchor="middle" x="1609.9" y="-248.8" font-family="Times,serif" font-size="14.00">and_2.not_1.nand_0</text>
<text text-anchor="middle" x="1609.9" y="-233.8" font-family="Times,serif" font-size="14.00">Nand</text>
<polyline fill="none" stroke="black" points="1688.9,-222 1688.9,-268 "/>
<text text-anchor="middle" x="1708.9" y="-241.3" font-family="Times,serif" font-size="14.00">out</text>
</g>
<!-- n5&#45;&gt;c22 -->
<g id="edge32" class="edge">
<title>n5:e&#45;&gt;c22:w</title>
<path fill="none" stroke="black" d="M1468.9,-233C1484.07,-233 1485.74,-247.94 1495.21,-254.25"/>
<polygon fill="black" stroke="black" points="1494.32,-257.63 1504.9,-257 1496.23,-250.9 1494.32,-257.63"/>
</g>
<!-- n5&#45;&gt;c22 -->
<g id="edge33" class="edge">
<title>n5:e&#45;&gt;c22:w</title>
<path fill="none" stroke="black" d="M1468.9,-233C1480.9,-233 1486.15,-233 1494.77,-233"/>
<polygon fill="black" stroke="black" points="1494.9,-236.5 1504.9,-233 1494.9,-229.5 1494.9,-236.5"/>
</g>
<!-- x0 -->
<g id="node27" class="node">
<title>x0</title>
<path fill="none" stroke="black" d="M1631.9,-203C1631.9,-203 1601.9,-203 1601.9,-203 1595.9,-203 1589.9,-197 1589.9,-191 1589.9,-191 1589.9,-179 1589.9,-179 1589.9,-173 1595.9,-167 1601.9,-167 1601.9,-167 1631.9,-167 1631.9,-167 1637.9,-167 1643.9,-173 1643.9,-179 1643.9,-179 1643.9,-191 1643.9,-191 1643.9,-197 1637.9,-203 1631.9,-203"/>
<text text-anchor="middle" x="1616.9" y="-181.3" font-family="Times,serif" font-size="14.00">BUF</text>
</g>
<!-- n5&#45;&gt;x0 -->
<g id="edge34" class="edge">
<title>n5:e&#45;&gt;x0:w</title>
<path fill="none" stroke="black" d="M1468.9,-233C1487.42,-233 1487.98,-219.55 1504.9,-212 1537.35,-197.52 1547.76,-187.11 1578.62,-185.29"/>
<polygon fill="black" stroke="black" points="1579,-188.78 1588.9,-185 1578.8,-181.78 1579,-188.78"/>
</g>
<!-- n6 -->
<g id="node6" class="node">
<title>n6</title>
<polygon fill="none" stroke="black" points="438.19,-238 371.83,-220 438.19,-202 504.55,-220 438.19,-238"/>
<text text-anchor="middle" x="438.19" y="-216.3" font-family="Times,serif" font-size="14.00">and_2.b</text>
</g>
<!-- n6&#45;&gt;c21 -->
<g id="edge36" class="edge">
<title>n6:e&#45;&gt;c21:w</title>
<path fill="none" stroke="black" d="M505.19,-220C736.83,-220 797.29,-220.97 1023.92,-221"/>
<polygon fill="black" stroke="black" points="1024.14,-224.5 1034.14,-221 1024.14,-217.5 1024.14,-224.5"/>
</g>
<!-- x9 -->
<g id="node36" class="node">
<title>x9</title>
<path fill="none" stroke="black" d="M673.88,-196C673.88,-196 643.88,-196 643.88,-196 637.88,-196 631.88,-190 631.88,-184 631.88,-184 631.88,-172 631.88,-172 631.88,-166 637.88,-160 643.88,-160 643.88,-160 673.88,-160 673.88,-160 679.88,-160 685.88,-166 685.88,-172 685.88,-172 685.88,-184 685.88,-184 685.88,-190 679.88,-196 673.88,-196"/>
<text text-anchor="middle" x="658.88" y="-174.3" font-family="Times,serif" font-size="14.00">BUF</text>
</g>
<!-- n6&#45;&gt;x9 -->
<g id="edge37" class="edge">
<title>n6:e&#45;&gt;x9:w</title>
<path fill="none" stroke="black" d="M505.19,-220C560.52,-220 570.84,-182.93 620.72,-178.44"/>
<polygon fill="black" stroke="black" points="621.04,-181.93 630.88,-178 620.73,-174.94 621.04,-181.93"/>
</g>
<!-- n7 -->
<g id="node7" class="node">
<title>n7</title>
<polygon fill="none" stroke="black" points="1884.39,-203 1774.29,-185 1884.39,-167 1994.48,-185 1884.39,-203"/>
<text text-anchor="middle" x="1884.39" y="-181.3" font-family="Times,serif" font-size="14.00">and_2.not_1.in</text>
</g>
<!-- n8 -->
<g id="node8" class="node">
<title>n8</title>
<polygon fill="none" stroke="black" points="1884.39,-263 1764.9,-245 1884.39,-227 2003.87,-245 1884.39,-263"/>
<text text-anchor="middle" x="1884.39" y="-241.3" font-family="Times,serif" font-size="14.00">and_2.not_1.out</text>
</g>
<!-- x1 -->
<g id="node28" class="node">
<title>x1</title>
<path fill="none" stroke="black" d="M2081.88,-290C2081.88,-290 2051.88,-290 2051.88,-290 2045.88,-290 2039.88,-284 2039.88,-278 2039.88,-278 2039.88,-266 2039.88,-266 2039.88,-260 2045.88,-254 2051.88,-254 2051.88,-254 2081.88,-254 2081.88,-254 2087.88,-254 2093.88,-260 2093.88,-266 2093.88,-266 2093.88,-278 2093.88,-278 2093.88,-284 2087.88,-290 2081.88,-290"/>
<text text-anchor="middle" x="2066.88" y="-268.3" font-family="Times,serif" font-size="14.00">BUF</text>
</g>
<!-- n8&#45;&gt;x1 -->
<g id="edge40" class="edge">
<title>n8:e&#45;&gt;x1:w</title>
<path fill="none" stroke="black" d="M2003.88,-245C2019.81,-245 2020.51,-262.15 2030.26,-269.11"/>
<polygon fill="black" stroke="black" points="2029.29,-272.48 2039.88,-272 2031.31,-265.77 2029.29,-272.48"/>
</g>
<!-- x11 -->
<g id="node38" class="node">
<title>x11</title>
<path fill="none" stroke="black" d="M2081.88,-236C2081.88,-236 2051.88,-236 2051.88,-236 2045.88,-236 2039.88,-230 2039.88,-224 2039.88,-224 2039.88,-212 2039.88,-212 2039.88,-206 2045.88,-200 2051.88,-200 2051.88,-200 2081.88,-200 2081.88,-200 2087.88,-200 2093.88,-206 2093.88,-212 2093.88,-212 2093.88,-224 2093.88,-224 2093.88,-230 2087.88,-236 2081.88,-236"/>
<text text-anchor="middle" x="2066.88" y="-214.3" font-family="Times,serif" font-size="14.00">BUF</text>
</g>
<!-- n8&#45;&gt;x11 -->
<g id="edge41" class="edge">
<title>n8:e&#45;&gt;x11:w</title>
<path fill="none" stroke="black" d="M2003.88,-245C2019.81,-245 2020.51,-227.85 2030.26,-220.89"/>
<polygon fill="black" stroke="black" points="2031.31,-224.23 2039.88,-218 2029.29,-217.52 2031.31,-224.23"/>
</g>
<!-- n9 -->
<g id="node9" class="node">
<title>n9</title>
<polygon fill="none" stroke="black" points="2208.92,-290 2129.83,-272 2208.92,-254 2288.02,-272 2208.92,-290"/>
<text text-anchor="middle" x="2208.92" y="-268.3" font-family="Times,serif" font-size="14.00">and_2.out</text>
</g>
<!-- n10 -->
<g id="node10" class="node">
<title>n10</title>
<polygon fill="none" stroke="black" points="54,-135.54 54,-150.46 38.18,-161 15.82,-161 0,-150.46 0,-135.54 15.82,-125 38.18,-125 54,-135.54"/>
<text text-anchor="middle" x="27" y="-139.3" font-family="Times,serif" font-size="14.00">b</text>
</g>
<!-- n10&#45;&gt;c23 -->
<g id="edge6" class="edge">
<title>n10:e&#45;&gt;c23:w</title>
<path fill="none" stroke="black" d="M54,-143C79.27,-143 70.59,-170.82 90,-187 101.81,-196.85 106.68,-204.34 117.93,-206.97"/>
<polygon fill="black" stroke="black" points="117.7,-210.47 128,-208 118.41,-203.5 117.7,-210.47"/>
</g>
<!-- c26 -->
<g id="node26" class="node">
<title>c26</title>
<polygon fill="none" stroke="black" points="90,-132 90,-178 302,-178 302,-132 90,-132"/>
<text text-anchor="middle" x="103" y="-162.8" font-family="Times,serif" font-size="14.00">a</text>
<polyline fill="none" stroke="black" points="90,-155 116,-155 "/>
<text text-anchor="middle" x="103" y="-139.8" font-family="Times,serif" font-size="14.00">b</text>
<polyline fill="none" stroke="black" points="116,-132 116,-178 "/>
<text text-anchor="middle" x="189" y="-158.8" font-family="Times,serif" font-size="14.00">or_0.not_1.nand_0</text>
<text text-anchor="middle" x="189" y="-143.8" font-family="Times,serif" font-size="14.00">Nand</text>
<polyline fill="none" stroke="black" points="262,-132 262,-178 "/>
<text text-anchor="middle" x="282" y="-151.3" font-family="Times,serif" font-size="14.00">out</text>
</g>
<!-- n10&#45;&gt;c26 -->
<g id="edge7" class="edge">
<title>n10:e&#45;&gt;c26:w</title>
<path fill="none" stroke="black" d="M54,-143C69.17,-143 70.84,-157.94 80.32,-164.25"/>
<polygon fill="black" stroke="black" points="79.42,-167.63 90,-167 81.34,-160.9 79.42,-167.63"/>
</g>
<!-- n10&#45;&gt;c26 -->
<g id="edge8" class="edge">
<title>n10:e&#45;&gt;c26:w</title>
<path fill="none" stroke="black" d="M54,-143C66,-143 71.25,-143 79.88,-143"/>
<polygon fill="black" stroke="black" points="80,-146.5 90,-143 80,-139.5 80,-146.5"/>
</g>
<!-- x5 -->
<g id="node32" class="node">
<title>x5</title>
<path fill="none" stroke="black" d="M211,-59C211,-59 181,-59 181,-59 175,-59 169,-53 169,-47 169,-47 169,-35 169,-35 169,-29 175,-23 181,-23 181,-23 211,-23 211,-23 217,-23 223,-29 223,-35 223,-35 223,-47 223,-47 223,-53 217,-59 211,-59"/>
<text text-anchor="middle" x="196" y="-37.3" font-family="Times,serif" font-size="14.00">BUF</text>
</g>
<!-- n10&#45;&gt;x5 -->
<g id="edge9" class="edge">
<title>n10:e&#45;&gt;x5:w</title>
<path fill="none" stroke="black" d="M54,-143C90.97,-143 62.4,-92.61 90,-68 114.71,-45.97 128.47,-41.71 157.87,-41.09"/>
<polygon fill="black" stroke="black" points="158.03,-44.59 168,-41 157.97,-37.59 158.03,-44.59"/>
</g>
<!-- x7 -->
<g id="node34" class="node">
<title>x7</title>
<path fill="none" stroke="black" d="M211,-113C211,-113 181,-113 181,-113 175,-113 169,-107 169,-101 169,-101 169,-89 169,-89 169,-83 175,-77 181,-77 181,-77 211,-77 211,-77 217,-77 223,-83 223,-89 223,-89 223,-101 223,-101 223,-107 217,-113 211,-113"/>
<text text-anchor="middle" x="196" y="-91.3" font-family="Times,serif" font-size="14.00">BUF</text>
</g>
<!-- n10&#45;&gt;x7 -->
<g id="edge10" class="edge">
<title>n10:e&#45;&gt;x7:w</title>
<path fill="none" stroke="black" d="M54,-143C72.52,-143 73.17,-129.73 90,-122 119.95,-108.24 129.43,-97.41 157.65,-95.35"/>
<polygon fill="black" stroke="black" points="158.13,-98.84 168,-95 157.89,-91.84 158.13,-98.84"/>
</g>
<!-- n11 -->
<g id="node11" class="node">
<title>n11</title>
<polygon fill="none" stroke="black" points="438.19,-418 382.89,-400 438.19,-382 493.49,-400 438.19,-418"/>
<text text-anchor="middle" x="438.19" y="-396.3" font-family="Times,serif" font-size="14.00">or_0.a</text>
</g>
<!-- n12 -->
<g id="node12" class="node">
<title>n12</title>
<polygon fill="none" stroke="black" points="438.19,-113 382.05,-95 438.19,-77 494.33,-95 438.19,-113"/>
<text text-anchor="middle" x="438.19" y="-91.3" font-family="Times,serif" font-size="14.00">or_0.b</text>
</g>
<!-- n13 -->
<g id="node13" class="node">
<title>n13</title>
<polygon fill="none" stroke="black" points="438.19,-358 374.84,-340 438.19,-322 501.53,-340 438.19,-358"/>
<text text-anchor="middle" x="438.19" y="-336.3" font-family="Times,serif" font-size="14.00">or_0.na</text>
</g>
<!-- c24 -->
<g id="node24" class="node">
<title>c24</title>
<polygon fill="none" stroke="black" points="574.38,-259 574.38,-305 743.38,-305 743.38,-259 574.38,-259"/>
<text text-anchor="middle" x="587.38" y="-289.8" font-family="Times,serif" font-size="14.00">a</text>
<polyline fill="none" stroke="black" points="574.38,-282 600.38,-282 "/>
<text text-anchor="middle" x="587.38" y="-266.8" font-family="Times,serif" font-size="14.00">b</text>
<polyline fill="none" stroke="black" points="600.38,-259 600.38,-305 "/>
<text text-anchor="middle" x="651.88" y="-285.8" font-family="Times,serif" font-size="14.00">or_0.nand_2</text>
<text text-anchor="middle" x="651.88" y="-270.8" font-family="Times,serif" font-size="14.00">Nand</text>
<polyline fill="none" stroke="black" points="703.38,-259 703.38,-305 "/>
<text text-anchor="middle" x="723.38" y="-278.3" font-family="Times,serif" font-size="14.00">out</text>
</g>
<!-- n13&#45;&gt;c24 -->
<g id="edge14" class="edge">
<title>n13:e&#45;&gt;c24:w</title>
<path fill="none" stroke="black" d="M502.19,-340C536.52,-340 536.69,-302.55 564.35,-295.23"/>
<polygon fill="black" stroke="black" points="564.88,-298.69 574.38,-294 564.02,-291.74 564.88,-298.69"/>
</g>
<!-- x2 -->
<g id="node29" class="node">
<title>x2</title>
<path fill="none" stroke="black" d="M673.88,-360C673.88,-360 643.88,-360 643.88,-360 637.88,-360 631.88,-354 631.88,-348 631.88,-348 631.88,-336 631.88,-336 631.88,-330 637.88,-324 643.88,-324 643.88,-324 673.88,-324 673.88,-324 679.88,-324 685.88,-330 685.88,-336 685.88,-336 685.88,-348 685.88,-348 685.88,-354 679.88,-360 673.88,-360"/>
<text text-anchor="middle" x="658.88" y="-338.3" font-family="Times,serif" font-size="14.00">BUF</text>
</g>
<!-- n13&#45;&gt;x2 -->
<g id="edge15" class="edge">
<title>n13:e&#45;&gt;x2:w</title>
<path fill="none" stroke="black" d="M502.19,-340C555.81,-340 571.72,-341.76 620.63,-341.98"/>
<polygon fill="black" stroke="black" points="620.87,-345.48 630.88,-342 620.88,-338.48 620.87,-345.48"/>
</g>
<!-- n14 -->
<g id="node14" class="node">
<title>n14</title>
<polygon fill="none" stroke="black" points="438.19,-173 374.01,-155 438.19,-137 502.37,-155 438.19,-173"/>
<text text-anchor="middle" x="438.19" y="-151.3" font-family="Times,serif" font-size="14.00">or_0.nb</text>
</g>
<!-- n14&#45;&gt;c24 -->
<g id="edge17" class="edge">
<title>n14:e&#45;&gt;c24:w</title>
<path fill="none" stroke="black" d="M503.19,-155C526.21,-155 525.53,-173.9 538.38,-193 557.24,-221.04 540.93,-260.53 564.32,-268.55"/>
<polygon fill="black" stroke="black" points="563.98,-272.03 574.38,-270 564.98,-265.11 563.98,-272.03"/>
</g>
<!-- x4 -->
<g id="node31" class="node">
<title>x4</title>
<path fill="none" stroke="black" d="M673.88,-142C673.88,-142 643.88,-142 643.88,-142 637.88,-142 631.88,-136 631.88,-130 631.88,-130 631.88,-118 631.88,-118 631.88,-112 637.88,-106 643.88,-106 643.88,-106 673.88,-106 673.88,-106 679.88,-106 685.88,-112 685.88,-118 685.88,-118 685.88,-130 685.88,-130 685.88,-136 679.88,-142 673.88,-142"/>
<text text-anchor="middle" x="658.88" y="-120.3" font-family="Times,serif" font-size="14.00">BUF</text>
</g>
<!-- n14&#45;&gt;x4 -->
<g id="edge18" class="edge">
<title>n14:e&#45;&gt;x4:w</title>
<path fill="none" stroke="black" d="M503.19,-155C558.05,-155 570.98,-127.64 620.77,-124.33"/>
<polygon fill="black" stroke="black" points="620.99,-127.82 630.88,-124 620.77,-120.83 620.99,-127.82"/>
</g>
<!-- n15 -->
<g id="node15" class="node">
<title>n15</title>
<polygon fill="none" stroke="black" points="438.19,-298 337.81,-280 438.19,-262 538.56,-280 438.19,-298"/>
<text text-anchor="middle" x="438.19" y="-276.3" font-family="Times,serif" font-size="14.00">or_0.not_0.in</text>
</g>
<!-- n16 -->
<g id="node16" class="node">
<title>n16</title>
<polygon fill="none" stroke="black" points="888.76,-360 779.5,-342 888.76,-324 998.02,-342 888.76,-360"/>
<text text-anchor="middle" x="888.76" y="-338.3" font-family="Times,serif" font-size="14.00">or_0.not_0.out</text>
</g>
<!-- n17 -->
<g id="node17" class="node">
<title>n17</title>
<polygon fill="none" stroke="black" points="438.19,-59 337.81,-41 438.19,-23 538.56,-41 438.19,-59"/>
<text text-anchor="middle" x="438.19" y="-37.3" font-family="Times,serif" font-size="14.00">or_0.not_1.in</text>
</g>
<!-- n18 -->
<g id="node18" class="node">
<title>n18</title>
<polygon fill="none" stroke="black" points="888.76,-142 779.5,-124 888.76,-106 998.02,-124 888.76,-142"/>
<text text-anchor="middle" x="888.76" y="-120.3" font-family="Times,serif" font-size="14.00">or_0.not_1.out</text>
</g>
<!-- n19 -->
<g id="node19" class="node">
<title>n19</title>
<polygon fill="none" stroke="black" points="1359.52,-311 1290.64,-293 1359.52,-275 1428.39,-293 1359.52,-311"/>
<text text-anchor="middle" x="1359.52" y="-289.3" font-family="Times,serif" font-size="14.00">or_0.out</text>
</g>
<!-- n20 -->
<g id="node20" class="node">
<title>n20</title>
<polygon fill="none" stroke="black" points="2237.2,-210.54 2237.2,-225.46 2220.64,-236 2197.21,-236 2180.64,-225.46 2180.64,-210.54 2197.21,-200 2220.64,-200 2237.2,-210.54"/>
<text text-anchor="middle" x="2208.92" y="-214.3" font-family="Times,serif" font-size="14.00">out</text>
</g>
<!-- c21&#45;&gt;n5 -->
<g id="edge31" class="edge">
<title>c21:e&#45;&gt;n5:w</title>
<path fill="none" stroke="black" d="M1214.14,-233C1226.14,-233 1231.39,-233 1240.01,-233"/>
<polygon fill="black" stroke="black" points="1240.14,-236.5 1250.14,-233 1240.14,-229.5 1240.14,-236.5"/>
</g>
<!-- c22&#45;&gt;n8 -->
<g id="edge39" class="edge">
<title>c22:e&#45;&gt;n8:w</title>
<path fill="none" stroke="black" d="M1728.9,-245C1740.9,-245 1746.15,-245 1754.77,-245"/>
<polygon fill="black" stroke="black" points="1754.9,-248.5 1764.9,-245 1754.9,-241.5 1754.9,-248.5"/>
</g>
<!-- c23&#45;&gt;n6 -->
<g id="edge35" class="edge">
<title>c23:e&#45;&gt;n6:w</title>
<path fill="none" stroke="black" d="M264,-220C308.1,-220 321.58,-220 361.14,-220"/>
<polygon fill="black" stroke="black" points="361.19,-223.5 371.19,-220 361.19,-216.5 361.19,-223.5"/>
</g>
<!-- c24&#45;&gt;n4 -->
<g id="edge27" class="edge">
<title>c24:e&#45;&gt;n4:w</title>
<path fill="none" stroke="black" d="M743.38,-282C774.96,-282 785.31,-284.4 812.41,-284.91"/>
<polygon fill="black" stroke="black" points="812.72,-288.41 822.76,-285 812.79,-281.41 812.72,-288.41"/>
</g>
<!-- c25&#45;&gt;n13 -->
<g id="edge13" class="edge">
<title>c25:e&#45;&gt;n13:w</title>
<path fill="none" stroke="black" d="M302,-340C330.45,-340 339.98,-340 364.14,-340"/>
<polygon fill="black" stroke="black" points="364.19,-343.5 374.19,-340 364.19,-336.5 364.19,-343.5"/>
</g>
<!-- c26&#45;&gt;n14 -->
<g id="edge16" class="edge">
<title>c26:e&#45;&gt;n14:w</title>
<path fill="none" stroke="black" d="M302,-155C329.93,-155 339.37,-155 362.97,-155"/>
<polygon fill="black" stroke="black" points="363.19,-158.5 373.19,-155 363.19,-151.5 363.19,-158.5"/>
</g>
<!-- x0&#45;&gt;n7 -->
<g id="edge38" class="edge">
<title>x0:e&#45;&gt;n7:w</title>
<path fill="none" stroke="black" d="M1644.9,-185C1698.43,-185 1714.33,-185 1763.16,-185"/>
<polygon fill="black" stroke="black" points="1763.39,-188.5 1773.39,-185 1763.39,-181.5 1763.39,-188.5"/>
</g>
<!-- x1&#45;&gt;n9 -->
<g id="edge42" class="edge">
<title>x1:e&#45;&gt;n9:w</title>
<path fill="none" stroke="black" d="M2093.88,-272C2105.88,-272 2111.13,-272 2119.75,-272"/>
<polygon fill="black" stroke="black" points="2119.88,-275.5 2129.88,-272 2119.88,-268.5 2119.88,-275.5"/>
</g>
<!-- x2&#45;&gt;n16 -->
<g id="edge20" class="edge">
<title>x2:e&#45;&gt;n16:w</title>
<path fill="none" stroke="black" d="M686.88,-342C724.29,-342 736.17,-342 769,-342"/>
<polygon fill="black" stroke="black" points="769.38,-345.5 779.38,-342 769.38,-338.5 769.38,-345.5"/>
</g>
<!-- x3&#45;&gt;n15 -->
<g id="edge19" class="edge">
<title>x3:e&#45;&gt;n15:w</title>
<path fill="none" stroke="black" d="M224,-280C271.1,-280 285.36,-280 327.85,-280"/>
<polygon fill="black" stroke="black" points="328,-283.5 338,-280 328,-276.5 328,-283.5"/>
</g>
<!-- x4&#45;&gt;n18 -->
<g id="edge22" class="edge">
<title>x4:e&#45;&gt;n18:w</title>
<path fill="none" stroke="black" d="M686.88,-124C724.29,-124 736.17,-124 769,-124"/>
<polygon fill="black" stroke="black" points="769.38,-127.5 779.38,-124 769.38,-120.5 769.38,-127.5"/>
</g>
<!-- x5&#45;&gt;n17 -->
<g id="edge21" class="edge">
<title>x5:e&#45;&gt;n17:w</title>
<path fill="none" stroke="black" d="M224,-41C271.1,-41 285.36,-41 327.85,-41"/>
<polygon fill="black" stroke="black" points="328,-44.5 338,-41 328,-37.5 328,-44.5"/>
</g>
<!-- x6&#45;&gt;n19 -->
<g id="edge23" class="edge">
<title>x6:e&#45;&gt;n19:w</title>
<path fill="none" stroke="black" d="M1152.14,-293C1209.62,-293 1226.51,-293 1279.24,-293"/>
<polygon fill="black" stroke="black" points="1279.52,-296.5 1289.52,-293 1279.52,-289.5 1279.52,-296.5"/>
</g>
<!-- x7&#45;&gt;n12 -->
<g id="edge12" class="edge">
<title>x7:e&#45;&gt;n12:w</title>
<path fill="none" stroke="black" d="M224,-95C290.31,-95 309.42,-95 370.94,-95"/>
<polygon fill="black" stroke="black" points="371.19,-98.5 381.19,-95 371.19,-91.5 371.19,-98.5"/>
</g>
<!-- x8&#45;&gt;n11 -->
<g id="edge11" class="edge">
<title>x8:e&#45;&gt;n11:w</title>
<path fill="none" stroke="black" d="M224,-400C290.74,-400 309.96,-400 371.87,-400"/>
<polygon fill="black" stroke="black" points="372.19,-403.5 382.19,-400 372.19,-396.5 372.19,-403.5"/>
</g>
<!-- x9&#45;&gt;n2 -->
<g id="edge24" class="edge">
<title>x9:e&#45;&gt;n2:w</title>
<path fill="none" stroke="black" d="M686.88,-178C749.98,-178 768.25,-178 826.62,-178"/>
<polygon fill="black" stroke="black" points="826.76,-181.5 836.76,-178 826.76,-174.5 826.76,-181.5"/>
</g>
<!-- x10&#45;&gt;n3 -->
<g id="edge26" class="edge">
<title>x10:e&#45;&gt;n3:w</title>
<path fill="none" stroke="black" d="M1152.14,-347C1222.05,-347 1242.09,-347 1307.13,-347"/>
<polygon fill="black" stroke="black" points="1307.52,-350.5 1317.52,-347 1307.52,-343.5 1307.52,-350.5"/>
</g>
<!-- x11&#45;&gt;n20 -->
<g id="edge25" class="edge">
<title>x11:e&#45;&gt;n20:w</title>
<path fill="none" stroke="black" d="M2093.88,-218C2128.53,-218 2139.64,-218 2169.88,-218"/>
<polygon fill="black" stroke="black" points="2169.92,-221.5 2179.92,-218 2169.92,-214.5 2169.92,-221.5"/>
</g>
</g>
</svg>
