<?xml version="1.0" encoding="UTF-8" standalone="no"?>
<!DOCTYPE svg PUBLIC "-//W3C//DTD SVG 1.1//EN"
 "http://www.w3.org/Graphics/SVG/1.1/DTD/svg11.dtd">
<!-- Generated by graphviz version 2.43.0 (0)
 -->
<!-- Title: DMux4Way Pages: 1 -->
<svg width="1791pt" height="583pt"
 viewBox="0.00 0.00 1791.03 583.00" xmlns="http://www.w3.org/2000/svg" xmlns:xlink="http://www.w3.org/1999/xlink">
<g id="graph0" class="graph" transform="scale(1 1) rotate(0) translate(4 579)">
<title>DMux4Way</title>
<polygon fill="white" stroke="transparent" points="-4,4 -4,-579 1787.03,-579 1787.03,4 -4,4"/>
<text text-anchor="middle" x="891.51" y="-7.8" font-family="Times,serif" font-size="14.00">DMux4Way</text>
<!-- n1 -->
<g id="node1" class="node">
<title>n1</title>
<polygon fill="none" stroke="black" points="1520.3,-362.5 1487.12,-344.5 1520.3,-326.5 1553.48,-344.5 1520.3,-362.5"/>
<text text-anchor="middle" x="1520.3" y="-340.8" font-family="Times,serif" font-size="14.00">Da</text>
</g>
<!-- n2 -->
<g id="node2" class="node">
<title>n2</title>
<polygon fill="none" stroke="black" points="1065.68,-327.5 1031.67,-309.5 1065.68,-291.5 1099.7,-309.5 1065.68,-327.5"/>
<text text-anchor="middle" x="1065.68" y="-305.8" font-family="Times,serif" font-size="14.00">Db</text>
</g>
<!-- n3 -->
<g id="node3" class="node">
<title>n3</title>
<polygon fill="none" stroke="black" points="1783.03,-451.04 1783.03,-465.96 1767.21,-476.5 1744.84,-476.5 1729.03,-465.96 1729.03,-451.04 1744.84,-440.5 1767.21,-440.5 1783.03,-451.04"/>
<text text-anchor="middle" x="1756.03" y="-454.8" font-family="Times,serif" font-size="14.00">a</text>
</g>
<!-- n4 -->
<g id="node4" class="node">
<title>n4</title>
<polygon fill="none" stroke="black" points="1783.03,-516.04 1783.03,-530.96 1767.21,-541.5 1744.84,-541.5 1729.03,-530.96 1729.03,-516.04 1744.84,-505.5 1767.21,-505.5 1783.03,-516.04"/>
<text text-anchor="middle" x="1756.03" y="-519.8" font-family="Times,serif" font-size="14.00">b</text>
</g>
<!-- n5 -->
<g id="node5" class="node">
<title>n5</title>
<polygon fill="none" stroke="black" points="1547.3,-79.04 1547.3,-93.96 1531.49,-104.5 1509.12,-104.5 1493.3,-93.96 1493.3,-79.04 1509.12,-68.5 1531.49,-68.5 1547.3,-79.04"/>
<text text-anchor="middle" x="1520.3" y="-82.8" font-family="Times,serif" font-size="14.00">c</text>
</g>
<!-- n6 -->
<g id="node6" class="node">
<title>n6</title>
<polygon fill="none" stroke="black" points="1547.3,-188.04 1547.3,-202.96 1531.49,-213.5 1509.12,-213.5 1493.3,-202.96 1493.3,-188.04 1509.12,-177.5 1531.49,-177.5 1547.3,-188.04"/>
<text text-anchor="middle" x="1520.3" y="-191.8" font-family="Times,serif" font-size="14.00">d</text>
</g>
<!-- n7 -->
<g id="node7" class="node">
<title>n7</title>
<polygon fill="none" stroke="black" points="578.89,-330.5 464.11,-312.5 578.89,-294.5 693.68,-312.5 578.89,-330.5"/>
<text text-anchor="middle" x="578.89" y="-308.8" font-family="Times,serif" font-size="14.00">dmux_0.NotSel</text>
</g>
<!-- c25 -->
<g id="node24" class="node">
<title>c25</title>
<polygon fill="none" stroke="black" points="729.79,-376.5 729.79,-422.5 914.79,-422.5 914.79,-376.5 729.79,-376.5"/>
<text text-anchor="middle" x="742.79" y="-407.3" font-family="Times,serif" font-size="14.00">a</text>
<polyline fill="none" stroke="black" points="729.79,-399.5 755.79,-399.5 "/>
<text text-anchor="middle" x="742.79" y="-384.3" font-family="Times,serif" font-size="14.00">b</text>
<polyline fill="none" stroke="black" points="755.79,-376.5 755.79,-422.5 "/>
<text text-anchor="middle" x="815.29" y="-403.3" font-family="Times,serif" font-size="14.00">dmux_0.and_1</text>
<text text-anchor="middle" x="815.29" y="-388.3" font-family="Times,serif" font-size="14.00">And</text>
<polyline fill="none" stroke="black" points="874.79,-376.5 874.79,-422.5 "/>
<text text-anchor="middle" x="894.79" y="-395.8" font-family="Times,serif" font-size="14.00">out</text>
</g>
<!-- n7&#45;&gt;c25 -->
<g id="edge44" class="edge">
<title>n7:e&#45;&gt;c25:w</title>
<path fill="none" stroke="black" d="M693.79,-312.5C726.58,-312.5 700.45,-371.47 719.89,-384.83"/>
<polygon fill="black" stroke="black" points="719.22,-388.28 729.79,-387.5 721.05,-381.52 719.22,-388.28"/>
</g>
<!-- n8 -->
<g id="node8" class="node">
<title>n8</title>
<polygon fill="none" stroke="black" points="1065.68,-417.5 987.43,-399.5 1065.68,-381.5 1143.94,-399.5 1065.68,-417.5"/>
<text text-anchor="middle" x="1065.68" y="-395.8" font-family="Times,serif" font-size="14.00">dmux_0.a</text>
</g>
<!-- c28 -->
<g id="node29" class="node">
<title>c28</title>
<polygon fill="none" stroke="black" points="1216.58,-435.5 1216.58,-481.5 1401.58,-481.5 1401.58,-435.5 1216.58,-435.5"/>
<text text-anchor="middle" x="1229.58" y="-466.3" font-family="Times,serif" font-size="14.00">a</text>
<polyline fill="none" stroke="black" points="1216.58,-458.5 1242.58,-458.5 "/>
<text text-anchor="middle" x="1229.58" y="-443.3" font-family="Times,serif" font-size="14.00">b</text>
<polyline fill="none" stroke="black" points="1242.58,-435.5 1242.58,-481.5 "/>
<text text-anchor="middle" x="1302.08" y="-462.3" font-family="Times,serif" font-size="14.00">dmux_1.and_1</text>
<text text-anchor="middle" x="1302.08" y="-447.3" font-family="Times,serif" font-size="14.00">And</text>
<polyline fill="none" stroke="black" points="1361.58,-435.5 1361.58,-481.5 "/>
<text text-anchor="middle" x="1381.58" y="-454.8" font-family="Times,serif" font-size="14.00">out</text>
</g>
<!-- n8&#45;&gt;c28 -->
<g id="edge46" class="edge">
<title>n8:e&#45;&gt;c28:w</title>
<path fill="none" stroke="black" d="M1144.68,-399.5C1165.19,-399.5 1165.87,-414.21 1180.58,-428.5 1195.32,-442.82 1193.39,-462.55 1206.72,-468.64"/>
<polygon fill="black" stroke="black" points="1206.1,-472.08 1216.58,-470.5 1207.4,-465.2 1206.1,-472.08"/>
</g>
<!-- c29 -->
<g id="node30" class="node">
<title>c29</title>
<polygon fill="none" stroke="black" points="1216.58,-500.5 1216.58,-546.5 1401.58,-546.5 1401.58,-500.5 1216.58,-500.5"/>
<text text-anchor="middle" x="1229.58" y="-531.3" font-family="Times,serif" font-size="14.00">a</text>
<polyline fill="none" stroke="black" points="1216.58,-523.5 1242.58,-523.5 "/>
<text text-anchor="middle" x="1229.58" y="-508.3" font-family="Times,serif" font-size="14.00">b</text>
<polyline fill="none" stroke="black" points="1242.58,-500.5 1242.58,-546.5 "/>
<text text-anchor="middle" x="1302.08" y="-527.3" font-family="Times,serif" font-size="14.00">dmux_1.and_2</text>
<text text-anchor="middle" x="1302.08" y="-512.3" font-family="Times,serif" font-size="14.00">And</text>
<polyline fill="none" stroke="black" points="1361.58,-500.5 1361.58,-546.5 "/>
<text text-anchor="middle" x="1381.58" y="-519.8" font-family="Times,serif" font-size="14.00">out</text>
</g>
<!-- n8&#45;&gt;c29 -->
<g id="edge47" class="edge">
<title>n8:e&#45;&gt;c29:w</title>
<path fill="none" stroke="black" d="M1144.68,-399.5C1165.19,-399.5 1168.86,-411.67 1180.58,-428.5 1207,-466.47 1172.66,-525.37 1206.44,-534.34"/>
<polygon fill="black" stroke="black" points="1206.25,-537.84 1216.58,-535.5 1207.04,-530.88 1206.25,-537.84"/>
</g>
<!-- x9 -->
<g id="node42" class="node">
<title>x9</title>
<path fill="none" stroke="black" d="M1324.08,-416.5C1324.08,-416.5 1294.08,-416.5 1294.08,-416.5 1288.08,-416.5 1282.08,-410.5 1282.08,-404.5 1282.08,-404.5 1282.08,-392.5 1282.08,-392.5 1282.08,-386.5 1288.08,-380.5 1294.08,-380.5 1294.08,-380.5 1324.08,-380.5 1324.08,-380.5 1330.08,-380.5 1336.08,-386.5 1336.08,-392.5 1336.08,-392.5 1336.08,-404.5 1336.08,-404.5 1336.08,-410.5 1330.08,-416.5 1324.08,-416.5"/>
<text text-anchor="middle" x="1309.08" y="-394.8" font-family="Times,serif" font-size="14.00">BUF</text>
</g>
<!-- n8&#45;&gt;x9 -->
<g id="edge49" class="edge">
<title>n8:e&#45;&gt;x9:w</title>
<path fill="none" stroke="black" d="M1144.68,-399.5C1201.75,-399.5 1218.53,-398.61 1270.87,-398.51"/>
<polygon fill="black" stroke="black" points="1271.08,-402.01 1281.08,-398.5 1271.08,-395.01 1271.08,-402.01"/>
</g>
<!-- x12 -->
<g id="node45" class="node">
<title>x12</title>
<path fill="none" stroke="black" d="M1324.08,-362.5C1324.08,-362.5 1294.08,-362.5 1294.08,-362.5 1288.08,-362.5 1282.08,-356.5 1282.08,-350.5 1282.08,-350.5 1282.08,-338.5 1282.08,-338.5 1282.08,-332.5 1288.08,-326.5 1294.08,-326.5 1294.08,-326.5 1324.08,-326.5 1324.08,-326.5 1330.08,-326.5 1336.08,-332.5 1336.08,-338.5 1336.08,-338.5 1336.08,-350.5 1336.08,-350.5 1336.08,-356.5 1330.08,-362.5 1324.08,-362.5"/>
<text text-anchor="middle" x="1309.08" y="-340.8" font-family="Times,serif" font-size="14.00">BUF</text>
</g>
<!-- n8&#45;&gt;x12 -->
<g id="edge48" class="edge">
<title>n8:e&#45;&gt;x12:w</title>
<path fill="none" stroke="black" d="M1144.68,-399.5C1206.47,-399.5 1214.92,-350.35 1270.87,-344.98"/>
<polygon fill="black" stroke="black" points="1271.25,-348.46 1281.08,-344.5 1270.93,-341.47 1271.25,-348.46"/>
</g>
<!-- n9 -->
<g id="node9" class="node">
<title>n9</title>
<polygon fill="none" stroke="black" points="578.89,-268.5 499.8,-250.5 578.89,-232.5 657.99,-250.5 578.89,-268.5"/>
<text text-anchor="middle" x="578.89" y="-246.8" font-family="Times,serif" font-size="14.00">dmux_0.b</text>
</g>
<!-- c31 -->
<g id="node34" class="node">
<title>c31</title>
<polygon fill="none" stroke="black" points="729.79,-63.5 729.79,-109.5 914.79,-109.5 914.79,-63.5 729.79,-63.5"/>
<text text-anchor="middle" x="742.79" y="-94.3" font-family="Times,serif" font-size="14.00">a</text>
<polyline fill="none" stroke="black" points="729.79,-86.5 755.79,-86.5 "/>
<text text-anchor="middle" x="742.79" y="-71.3" font-family="Times,serif" font-size="14.00">b</text>
<polyline fill="none" stroke="black" points="755.79,-63.5 755.79,-109.5 "/>
<text text-anchor="middle" x="815.29" y="-90.3" font-family="Times,serif" font-size="14.00">dmux_2.and_1</text>
<text text-anchor="middle" x="815.29" y="-75.3" font-family="Times,serif" font-size="14.00">And</text>
<polyline fill="none" stroke="black" points="874.79,-63.5 874.79,-109.5 "/>
<text text-anchor="middle" x="894.79" y="-82.8" font-family="Times,serif" font-size="14.00">out</text>
</g>
<!-- n9&#45;&gt;c31 -->
<g id="edge51" class="edge">
<title>n9:e&#45;&gt;c31:w</title>
<path fill="none" stroke="black" d="M658.89,-250.5C681.18,-250.5 682.42,-233.67 693.79,-214.5 719.39,-171.34 681.85,-108.17 719.82,-99.5"/>
<polygon fill="black" stroke="black" points="720.19,-102.98 729.79,-98.5 719.49,-96.02 720.19,-102.98"/>
</g>
<!-- c32 -->
<g id="node35" class="node">
<title>c32</title>
<polygon fill="none" stroke="black" points="729.79,-172.5 729.79,-218.5 914.79,-218.5 914.79,-172.5 729.79,-172.5"/>
<text text-anchor="middle" x="742.79" y="-203.3" font-family="Times,serif" font-size="14.00">a</text>
<polyline fill="none" stroke="black" points="729.79,-195.5 755.79,-195.5 "/>
<text text-anchor="middle" x="742.79" y="-180.3" font-family="Times,serif" font-size="14.00">b</text>
<polyline fill="none" stroke="black" points="755.79,-172.5 755.79,-218.5 "/>
<text text-anchor="middle" x="815.29" y="-199.3" font-family="Times,serif" font-size="14.00">dmux_2.and_2</text>
<text text-anchor="middle" x="815.29" y="-184.3" font-family="Times,serif" font-size="14.00">And</text>
<polyline fill="none" stroke="black" points="874.79,-172.5 874.79,-218.5 "/>
<text text-anchor="middle" x="894.79" y="-191.8" font-family="Times,serif" font-size="14.00">out</text>
</g>
<!-- n9&#45;&gt;c32 -->
<g id="edge52" class="edge">
<title>n9:e&#45;&gt;c32:w</title>
<path fill="none" stroke="black" d="M658.89,-250.5C692,-250.5 693.1,-215.79 719.71,-208.74"/>
<polygon fill="black" stroke="black" points="720.29,-212.19 729.79,-207.5 719.44,-205.25 720.29,-212.19"/>
</g>
<!-- x11 -->
<g id="node44" class="node">
<title>x11</title>
<path fill="none" stroke="black" d="M837.29,-273.5C837.29,-273.5 807.29,-273.5 807.29,-273.5 801.29,-273.5 795.29,-267.5 795.29,-261.5 795.29,-261.5 795.29,-249.5 795.29,-249.5 795.29,-243.5 801.29,-237.5 807.29,-237.5 807.29,-237.5 837.29,-237.5 837.29,-237.5 843.29,-237.5 849.29,-243.5 849.29,-249.5 849.29,-249.5 849.29,-261.5 849.29,-261.5 849.29,-267.5 843.29,-273.5 837.29,-273.5"/>
<text text-anchor="middle" x="822.29" y="-251.8" font-family="Times,serif" font-size="14.00">BUF</text>
</g>
<!-- n9&#45;&gt;x11 -->
<g id="edge53" class="edge">
<title>n9:e&#45;&gt;x11:w</title>
<path fill="none" stroke="black" d="M658.89,-250.5C715.58,-250.5 732.16,-254.93 784.15,-255.45"/>
<polygon fill="black" stroke="black" points="784.27,-258.95 794.29,-255.5 784.31,-251.95 784.27,-258.95"/>
</g>
<!-- x13 -->
<g id="node46" class="node">
<title>x13</title>
<path fill="none" stroke="black" d="M837.29,-327.5C837.29,-327.5 807.29,-327.5 807.29,-327.5 801.29,-327.5 795.29,-321.5 795.29,-315.5 795.29,-315.5 795.29,-303.5 795.29,-303.5 795.29,-297.5 801.29,-291.5 807.29,-291.5 807.29,-291.5 837.29,-291.5 837.29,-291.5 843.29,-291.5 849.29,-297.5 849.29,-303.5 849.29,-303.5 849.29,-315.5 849.29,-315.5 849.29,-321.5 843.29,-327.5 837.29,-327.5"/>
<text text-anchor="middle" x="822.29" y="-305.8" font-family="Times,serif" font-size="14.00">BUF</text>
</g>
<!-- n9&#45;&gt;x13 -->
<g id="edge54" class="edge">
<title>n9:e&#45;&gt;x13:w</title>
<path fill="none" stroke="black" d="M658.89,-250.5C720.95,-250.5 728.01,-303.22 784.05,-308.99"/>
<polygon fill="black" stroke="black" points="784.13,-312.5 794.29,-309.5 784.48,-305.51 784.13,-312.5"/>
</g>
<!-- n10 -->
<g id="node10" class="node">
<title>n10</title>
<polygon fill="none" stroke="black" points="578.89,-385.5 495.95,-367.5 578.89,-349.5 661.84,-367.5 578.89,-385.5"/>
<text text-anchor="middle" x="578.89" y="-363.8" font-family="Times,serif" font-size="14.00">dmux_0.in</text>
</g>
<!-- n11 -->
<g id="node11" class="node">
<title>n11</title>
<polygon fill="none" stroke="black" points="335,-170.5 245.68,-152.5 335,-134.5 424.32,-152.5 335,-170.5"/>
<text text-anchor="middle" x="335" y="-148.8" font-family="Times,serif" font-size="14.00">dmux_0.sel</text>
</g>
<!-- n12 -->
<g id="node12" class="node">
<title>n12</title>
<polygon fill="none" stroke="black" points="1065.68,-473.5 950.89,-455.5 1065.68,-437.5 1180.47,-455.5 1065.68,-473.5"/>
<text text-anchor="middle" x="1065.68" y="-451.8" font-family="Times,serif" font-size="14.00">dmux_1.NotSel</text>
</g>
<!-- n12&#45;&gt;c28 -->
<g id="edge11" class="edge">
<title>n12:e&#45;&gt;c28:w</title>
<path fill="none" stroke="black" d="M1180.58,-455.5C1193.08,-455.5 1197.84,-450.33 1206.58,-447.83"/>
<polygon fill="black" stroke="black" points="1207.13,-451.29 1216.58,-446.5 1206.2,-444.35 1207.13,-451.29"/>
</g>
<!-- n13 -->
<g id="node13" class="node">
<title>n13</title>
<polygon fill="none" stroke="black" points="1520.3,-476.5 1442.05,-458.5 1520.3,-440.5 1598.56,-458.5 1520.3,-476.5"/>
<text text-anchor="middle" x="1520.3" y="-454.8" font-family="Times,serif" font-size="14.00">dmux_1.a</text>
</g>
<!-- x14 -->
<g id="node47" class="node">
<title>x14</title>
<path fill="none" stroke="black" d="M1681.03,-476.5C1681.03,-476.5 1651.03,-476.5 1651.03,-476.5 1645.03,-476.5 1639.03,-470.5 1639.03,-464.5 1639.03,-464.5 1639.03,-452.5 1639.03,-452.5 1639.03,-446.5 1645.03,-440.5 1651.03,-440.5 1651.03,-440.5 1681.03,-440.5 1681.03,-440.5 1687.03,-440.5 1693.03,-446.5 1693.03,-452.5 1693.03,-452.5 1693.03,-464.5 1693.03,-464.5 1693.03,-470.5 1687.03,-476.5 1681.03,-476.5"/>
<text text-anchor="middle" x="1666.03" y="-454.8" font-family="Times,serif" font-size="14.00">BUF</text>
</g>
<!-- n13&#45;&gt;x14 -->
<g id="edge13" class="edge">
<title>n13:e&#45;&gt;x14:w</title>
<path fill="none" stroke="black" d="M1599.3,-458.5C1612.96,-458.5 1618.69,-458.5 1628.76,-458.5"/>
<polygon fill="black" stroke="black" points="1629.03,-462 1639.03,-458.5 1629.03,-455 1629.03,-462"/>
</g>
<!-- n14 -->
<g id="node14" class="node">
<title>n14</title>
<polygon fill="none" stroke="black" points="1520.3,-541.5 1441.21,-523.5 1520.3,-505.5 1599.4,-523.5 1520.3,-541.5"/>
<text text-anchor="middle" x="1520.3" y="-519.8" font-family="Times,serif" font-size="14.00">dmux_1.b</text>
</g>
<!-- x15 -->
<g id="node48" class="node">
<title>x15</title>
<path fill="none" stroke="black" d="M1681.03,-541.5C1681.03,-541.5 1651.03,-541.5 1651.03,-541.5 1645.03,-541.5 1639.03,-535.5 1639.03,-529.5 1639.03,-529.5 1639.03,-517.5 1639.03,-517.5 1639.03,-511.5 1645.03,-505.5 1651.03,-505.5 1651.03,-505.5 1681.03,-505.5 1681.03,-505.5 1687.03,-505.5 1693.03,-511.5 1693.03,-517.5 1693.03,-517.5 1693.03,-529.5 1693.03,-529.5 1693.03,-535.5 1687.03,-541.5 1681.03,-541.5"/>
<text text-anchor="middle" x="1666.03" y="-519.8" font-family="Times,serif" font-size="14.00">BUF</text>
</g>
<!-- n14&#45;&gt;x15 -->
<g id="edge15" class="edge">
<title>n14:e&#45;&gt;x15:w</title>
<path fill="none" stroke="black" d="M1600.3,-523.5C1613.61,-523.5 1619.2,-523.5 1629.02,-523.5"/>
<polygon fill="black" stroke="black" points="1629.03,-527 1639.03,-523.5 1629.03,-520 1629.03,-527"/>
</g>
<!-- n15 -->
<g id="node15" class="node">
<title>n15</title>
<polygon fill="none" stroke="black" points="1520.3,-416.5 1437.35,-398.5 1520.3,-380.5 1603.25,-398.5 1520.3,-416.5"/>
<text text-anchor="middle" x="1520.3" y="-394.8" font-family="Times,serif" font-size="14.00">dmux_1.in</text>
</g>
<!-- n16 -->
<g id="node16" class="node">
<title>n16</title>
<polygon fill="none" stroke="black" points="335,-116.5 245.68,-98.5 335,-80.5 424.32,-98.5 335,-116.5"/>
<text text-anchor="middle" x="335" y="-94.8" font-family="Times,serif" font-size="14.00">dmux_1.sel</text>
</g>
<!-- n17 -->
<g id="node17" class="node">
<title>n17</title>
<polygon fill="none" stroke="black" points="578.89,-70.5 464.11,-52.5 578.89,-34.5 693.68,-52.5 578.89,-70.5"/>
<text text-anchor="middle" x="578.89" y="-48.8" font-family="Times,serif" font-size="14.00">dmux_2.NotSel</text>
</g>
<!-- n17&#45;&gt;c31 -->
<g id="edge19" class="edge">
<title>n17:e&#45;&gt;c31:w</title>
<path fill="none" stroke="black" d="M693.79,-52.5C708.44,-52.5 710.73,-65.93 719.97,-71.8"/>
<polygon fill="black" stroke="black" points="719.22,-75.23 729.79,-74.5 721.07,-68.48 719.22,-75.23"/>
</g>
<!-- n18 -->
<g id="node18" class="node">
<title>n18</title>
<polygon fill="none" stroke="black" points="1065.68,-104.5 987.43,-86.5 1065.68,-68.5 1143.94,-86.5 1065.68,-104.5"/>
<text text-anchor="middle" x="1065.68" y="-82.8" font-family="Times,serif" font-size="14.00">dmux_2.a</text>
</g>
<!-- x16 -->
<g id="node49" class="node">
<title>x16</title>
<path fill="none" stroke="black" d="M1324.08,-104.5C1324.08,-104.5 1294.08,-104.5 1294.08,-104.5 1288.08,-104.5 1282.08,-98.5 1282.08,-92.5 1282.08,-92.5 1282.08,-80.5 1282.08,-80.5 1282.08,-74.5 1288.08,-68.5 1294.08,-68.5 1294.08,-68.5 1324.08,-68.5 1324.08,-68.5 1330.08,-68.5 1336.08,-74.5 1336.08,-80.5 1336.08,-80.5 1336.08,-92.5 1336.08,-92.5 1336.08,-98.5 1330.08,-104.5 1324.08,-104.5"/>
<text text-anchor="middle" x="1309.08" y="-82.8" font-family="Times,serif" font-size="14.00">BUF</text>
</g>
<!-- n18&#45;&gt;x16 -->
<g id="edge21" class="edge">
<title>n18:e&#45;&gt;x16:w</title>
<path fill="none" stroke="black" d="M1144.68,-86.5C1201.75,-86.5 1218.53,-86.5 1270.87,-86.5"/>
<polygon fill="black" stroke="black" points="1271.08,-90 1281.08,-86.5 1271.08,-83 1271.08,-90"/>
</g>
<!-- n19 -->
<g id="node19" class="node">
<title>n19</title>
<polygon fill="none" stroke="black" points="1065.68,-213.5 986.59,-195.5 1065.68,-177.5 1144.78,-195.5 1065.68,-213.5"/>
<text text-anchor="middle" x="1065.68" y="-191.8" font-family="Times,serif" font-size="14.00">dmux_2.b</text>
</g>
<!-- x17 -->
<g id="node50" class="node">
<title>x17</title>
<path fill="none" stroke="black" d="M1324.08,-213.5C1324.08,-213.5 1294.08,-213.5 1294.08,-213.5 1288.08,-213.5 1282.08,-207.5 1282.08,-201.5 1282.08,-201.5 1282.08,-189.5 1282.08,-189.5 1282.08,-183.5 1288.08,-177.5 1294.08,-177.5 1294.08,-177.5 1324.08,-177.5 1324.08,-177.5 1330.08,-177.5 1336.08,-183.5 1336.08,-189.5 1336.08,-189.5 1336.08,-201.5 1336.08,-201.5 1336.08,-207.5 1330.08,-213.5 1324.08,-213.5"/>
<text text-anchor="middle" x="1309.08" y="-191.8" font-family="Times,serif" font-size="14.00">BUF</text>
</g>
<!-- n19&#45;&gt;x17 -->
<g id="edge23" class="edge">
<title>n19:e&#45;&gt;x17:w</title>
<path fill="none" stroke="black" d="M1145.68,-195.5C1202.33,-195.5 1218.99,-195.5 1270.95,-195.5"/>
<polygon fill="black" stroke="black" points="1271.08,-199 1281.08,-195.5 1271.08,-192 1271.08,-199"/>
</g>
<!-- n20 -->
<g id="node20" class="node">
<title>n20</title>
<polygon fill="none" stroke="black" points="1065.68,-273.5 982.74,-255.5 1065.68,-237.5 1148.63,-255.5 1065.68,-273.5"/>
<text text-anchor="middle" x="1065.68" y="-251.8" font-family="Times,serif" font-size="14.00">dmux_2.in</text>
</g>
<!-- n21 -->
<g id="node21" class="node">
<title>n21</title>
<polygon fill="none" stroke="black" points="335,-574.5 245.68,-556.5 335,-538.5 424.32,-556.5 335,-574.5"/>
<text text-anchor="middle" x="335" y="-552.8" font-family="Times,serif" font-size="14.00">dmux_2.sel</text>
</g>
<!-- n22 -->
<g id="node22" class="node">
<title>n22</title>
<polygon fill="none" stroke="black" points="175,-360.04 175,-374.96 159.18,-385.5 136.82,-385.5 121,-374.96 121,-360.04 136.82,-349.5 159.18,-349.5 175,-360.04"/>
<text text-anchor="middle" x="148" y="-363.8" font-family="Times,serif" font-size="14.00">in</text>
</g>
<!-- n22&#45;&gt;c25 -->
<g id="edge27" class="edge">
<title>n22:e&#45;&gt;c25:w</title>
<path fill="none" stroke="black" d="M176,-367.5C207.69,-367.5 211.01,-387.84 242,-394.5 450.78,-439.34 510.99,-412.37 719.74,-411.52"/>
<polygon fill="black" stroke="black" points="719.8,-415.02 729.79,-411.5 719.78,-408.02 719.8,-415.02"/>
</g>
<!-- c26 -->
<g id="node25" class="node">
<title>c26</title>
<polygon fill="none" stroke="black" points="242.5,-227.5 242.5,-273.5 427.5,-273.5 427.5,-227.5 242.5,-227.5"/>
<text text-anchor="middle" x="255.5" y="-258.3" font-family="Times,serif" font-size="14.00">a</text>
<polyline fill="none" stroke="black" points="242.5,-250.5 268.5,-250.5 "/>
<text text-anchor="middle" x="255.5" y="-235.3" font-family="Times,serif" font-size="14.00">b</text>
<polyline fill="none" stroke="black" points="268.5,-227.5 268.5,-273.5 "/>
<text text-anchor="middle" x="328" y="-254.3" font-family="Times,serif" font-size="14.00">dmux_0.and_2</text>
<text text-anchor="middle" x="328" y="-239.3" font-family="Times,serif" font-size="14.00">And</text>
<polyline fill="none" stroke="black" points="387.5,-227.5 387.5,-273.5 "/>
<text text-anchor="middle" x="407.5" y="-246.8" font-family="Times,serif" font-size="14.00">out</text>
</g>
<!-- n22&#45;&gt;c26 -->
<g id="edge28" class="edge">
<title>n22:e&#45;&gt;c26:w</title>
<path fill="none" stroke="black" d="M176,-367.5C227.24,-367.5 192.61,-276.75 231.78,-263.98"/>
<polygon fill="black" stroke="black" points="232.61,-267.4 242,-262.5 231.6,-260.47 232.61,-267.4"/>
</g>
<!-- x7 -->
<g id="node40" class="node">
<title>x7</title>
<path fill="none" stroke="black" d="M350,-385.5C350,-385.5 320,-385.5 320,-385.5 314,-385.5 308,-379.5 308,-373.5 308,-373.5 308,-361.5 308,-361.5 308,-355.5 314,-349.5 320,-349.5 320,-349.5 350,-349.5 350,-349.5 356,-349.5 362,-355.5 362,-361.5 362,-361.5 362,-373.5 362,-373.5 362,-379.5 356,-385.5 350,-385.5"/>
<text text-anchor="middle" x="335" y="-363.8" font-family="Times,serif" font-size="14.00">BUF</text>
</g>
<!-- n22&#45;&gt;x7 -->
<g id="edge29" class="edge">
<title>n22:e&#45;&gt;x7:w</title>
<path fill="none" stroke="black" d="M176,-367.5C230.7,-367.5 246.86,-367.5 296.89,-367.5"/>
<polygon fill="black" stroke="black" points="297,-371 307,-367.5 297,-364 297,-371"/>
</g>
<!-- n23 -->
<g id="node23" class="node">
<title>n23</title>
<polygon fill="none" stroke="black" points="54,-239.04 54,-253.96 38.18,-264.5 15.82,-264.5 0,-253.96 0,-239.04 15.82,-228.5 38.18,-228.5 54,-239.04"/>
<text text-anchor="middle" x="27" y="-242.8" font-family="Times,serif" font-size="14.00">sel</text>
</g>
<!-- x0 -->
<g id="node26" class="node">
<title>x0</title>
<path fill="none" stroke="black" d="M102,-228.5C102,-228.5 194,-228.5 194,-228.5 200,-228.5 206,-234.5 206,-240.5 206,-240.5 206,-252.5 206,-252.5 206,-258.5 200,-264.5 194,-264.5 194,-264.5 102,-264.5 102,-264.5 96,-264.5 90,-258.5 90,-252.5 90,-252.5 90,-240.5 90,-240.5 90,-234.5 96,-228.5 102,-228.5"/>
<text text-anchor="middle" x="148" y="-242.8" font-family="Times,serif" font-size="14.00">slice [1] to [0]</text>
</g>
<!-- n23&#45;&gt;x0 -->
<g id="edge30" class="edge">
<title>n23:e&#45;&gt;x0:w</title>
<path fill="none" stroke="black" d="M54,-246.5C66,-246.5 71.25,-246.5 79.88,-246.5"/>
<polygon fill="black" stroke="black" points="80,-250 90,-246.5 80,-243 80,-250"/>
</g>
<!-- x1 -->
<g id="node28" class="node">
<title>x1</title>
<path fill="none" stroke="black" d="M102,-288.5C102,-288.5 194,-288.5 194,-288.5 200,-288.5 206,-294.5 206,-300.5 206,-300.5 206,-312.5 206,-312.5 206,-318.5 200,-324.5 194,-324.5 194,-324.5 102,-324.5 102,-324.5 96,-324.5 90,-318.5 90,-312.5 90,-312.5 90,-300.5 90,-300.5 90,-294.5 96,-288.5 102,-288.5"/>
<text text-anchor="middle" x="148" y="-302.8" font-family="Times,serif" font-size="14.00">slice [1] to [0]</text>
</g>
<!-- n23&#45;&gt;x1 -->
<g id="edge32" class="edge">
<title>n23:e&#45;&gt;x1:w</title>
<path fill="none" stroke="black" d="M54,-246.5C80.97,-246.5 64.85,-291.62 80.37,-303.61"/>
<polygon fill="black" stroke="black" points="79.42,-306.97 90,-306.5 81.43,-300.27 79.42,-306.97"/>
</g>
<!-- x2 -->
<g id="node31" class="node">
<title>x2</title>
<path fill="none" stroke="black" d="M776.29,-492.5C776.29,-492.5 868.29,-492.5 868.29,-492.5 874.29,-492.5 880.29,-498.5 880.29,-504.5 880.29,-504.5 880.29,-516.5 880.29,-516.5 880.29,-522.5 874.29,-528.5 868.29,-528.5 868.29,-528.5 776.29,-528.5 776.29,-528.5 770.29,-528.5 764.29,-522.5 764.29,-516.5 764.29,-516.5 764.29,-504.5 764.29,-504.5 764.29,-498.5 770.29,-492.5 776.29,-492.5"/>
<text text-anchor="middle" x="822.29" y="-506.8" font-family="Times,serif" font-size="14.00">slice [0] to [0]</text>
</g>
<!-- n23&#45;&gt;x2 -->
<g id="edge33" class="edge">
<title>n23:e&#45;&gt;x2:w</title>
<path fill="none" stroke="black" d="M54,-246.5C104.2,-246.5 53.99,-434.53 90,-469.5 138.99,-517.08 221.16,-510.59 753.04,-510.5"/>
<polygon fill="black" stroke="black" points="753.29,-514 763.29,-510.5 753.29,-507 753.29,-514"/>
</g>
<!-- x3 -->
<g id="node33" class="node">
<title>x3</title>
<path fill="none" stroke="black" d="M102,-424.5C102,-424.5 194,-424.5 194,-424.5 200,-424.5 206,-430.5 206,-436.5 206,-436.5 206,-448.5 206,-448.5 206,-454.5 200,-460.5 194,-460.5 194,-460.5 102,-460.5 102,-460.5 96,-460.5 90,-454.5 90,-448.5 90,-448.5 90,-436.5 90,-436.5 90,-430.5 96,-424.5 102,-424.5"/>
<text text-anchor="middle" x="148" y="-438.8" font-family="Times,serif" font-size="14.00">slice [0] to [0]</text>
</g>
<!-- n23&#45;&gt;x3 -->
<g id="edge34" class="edge">
<title>n23:e&#45;&gt;x3:w</title>
<path fill="none" stroke="black" d="M54,-246.5C138.76,-246.5 13.14,-426.02 79.82,-441.45"/>
<polygon fill="black" stroke="black" points="79.69,-444.95 90,-442.5 80.41,-437.99 79.69,-444.95"/>
</g>
<!-- x4 -->
<g id="node36" class="node">
<title>x4</title>
<path fill="none" stroke="black" d="M532.89,-169.5C532.89,-169.5 624.89,-169.5 624.89,-169.5 630.89,-169.5 636.89,-175.5 636.89,-181.5 636.89,-181.5 636.89,-193.5 636.89,-193.5 636.89,-199.5 630.89,-205.5 624.89,-205.5 624.89,-205.5 532.89,-205.5 532.89,-205.5 526.89,-205.5 520.89,-199.5 520.89,-193.5 520.89,-193.5 520.89,-181.5 520.89,-181.5 520.89,-175.5 526.89,-169.5 532.89,-169.5"/>
<text text-anchor="middle" x="578.89" y="-183.8" font-family="Times,serif" font-size="14.00">slice [0] to [0]</text>
</g>
<!-- n23&#45;&gt;x4 -->
<g id="edge35" class="edge">
<title>n23:e&#45;&gt;x4:w</title>
<path fill="none" stroke="black" d="M54,-246.5C74.27,-246.5 71.08,-225.76 90,-218.5 176.45,-185.32 408.04,-187.32 509.87,-187.49"/>
<polygon fill="black" stroke="black" points="509.89,-190.99 519.89,-187.5 509.9,-183.99 509.89,-190.99"/>
</g>
<!-- x5 -->
<g id="node38" class="node">
<title>x5</title>
<path fill="none" stroke="black" d="M102,-24.5C102,-24.5 194,-24.5 194,-24.5 200,-24.5 206,-30.5 206,-36.5 206,-36.5 206,-48.5 206,-48.5 206,-54.5 200,-60.5 194,-60.5 194,-60.5 102,-60.5 102,-60.5 96,-60.5 90,-54.5 90,-48.5 90,-48.5 90,-36.5 90,-36.5 90,-30.5 96,-24.5 102,-24.5"/>
<text text-anchor="middle" x="148" y="-38.8" font-family="Times,serif" font-size="14.00">slice [0] to [0]</text>
</g>
<!-- n23&#45;&gt;x5 -->
<g id="edge36" class="edge">
<title>n23:e&#45;&gt;x5:w</title>
<path fill="none" stroke="black" d="M54,-246.5C142.29,-246.5 9.68,-58.89 79.85,-43.5"/>
<polygon fill="black" stroke="black" points="80.39,-46.97 90,-42.5 79.7,-40 80.39,-46.97"/>
</g>
<!-- x6 -->
<g id="node39" class="node">
<title>x6</title>
<path fill="none" stroke="black" d="M102,-134.5C102,-134.5 194,-134.5 194,-134.5 200,-134.5 206,-140.5 206,-146.5 206,-146.5 206,-158.5 206,-158.5 206,-164.5 200,-170.5 194,-170.5 194,-170.5 102,-170.5 102,-170.5 96,-170.5 90,-164.5 90,-158.5 90,-158.5 90,-146.5 90,-146.5 90,-140.5 96,-134.5 102,-134.5"/>
<text text-anchor="middle" x="148" y="-148.8" font-family="Times,serif" font-size="14.00">slice [1] to [0]</text>
</g>
<!-- n23&#45;&gt;x6 -->
<g id="edge37" class="edge">
<title>n23:e&#45;&gt;x6:w</title>
<path fill="none" stroke="black" d="M54,-246.5C94.72,-246.5 54.08,-168.63 80.18,-154.64"/>
<polygon fill="black" stroke="black" points="80.97,-158.05 90,-152.5 79.48,-151.21 80.97,-158.05"/>
</g>
<!-- x8 -->
<g id="node41" class="node">
<title>x8</title>
<path fill="none" stroke="black" d="M102,-79.5C102,-79.5 194,-79.5 194,-79.5 200,-79.5 206,-85.5 206,-91.5 206,-91.5 206,-103.5 206,-103.5 206,-109.5 200,-115.5 194,-115.5 194,-115.5 102,-115.5 102,-115.5 96,-115.5 90,-109.5 90,-103.5 90,-103.5 90,-91.5 90,-91.5 90,-85.5 96,-79.5 102,-79.5"/>
<text text-anchor="middle" x="148" y="-93.8" font-family="Times,serif" font-size="14.00">slice [0] to [0]</text>
</g>
<!-- n23&#45;&gt;x8 -->
<g id="edge38" class="edge">
<title>n23:e&#45;&gt;x8:w</title>
<path fill="none" stroke="black" d="M54,-246.5C118.27,-246.5 32.69,-113.9 79.98,-98.88"/>
<polygon fill="black" stroke="black" points="80.57,-102.33 90,-97.5 79.62,-95.4 80.57,-102.33"/>
</g>
<!-- x10 -->
<g id="node43" class="node">
<title>x10</title>
<path fill="none" stroke="black" d="M102,-538.5C102,-538.5 194,-538.5 194,-538.5 200,-538.5 206,-544.5 206,-550.5 206,-550.5 206,-562.5 206,-562.5 206,-568.5 200,-574.5 194,-574.5 194,-574.5 102,-574.5 102,-574.5 96,-574.5 90,-568.5 90,-562.5 90,-562.5 90,-550.5 90,-550.5 90,-544.5 96,-538.5 102,-538.5"/>
<text text-anchor="middle" x="148" y="-552.8" font-family="Times,serif" font-size="14.00">slice [0] to [0]</text>
</g>
<!-- n23&#45;&gt;x10 -->
<g id="edge31" class="edge">
<title>n23:e&#45;&gt;x10:w</title>
<path fill="none" stroke="black" d="M54,-246.5C119.56,-246.5 31.37,-523.52 80.11,-553.82"/>
<polygon fill="black" stroke="black" points="79.43,-557.26 90,-556.5 81.26,-550.51 79.43,-557.26"/>
</g>
<!-- c25&#45;&gt;n8 -->
<g id="edge45" class="edge">
<title>c25:e&#45;&gt;n8:w</title>
<path fill="none" stroke="black" d="M914.79,-399.5C943.12,-399.5 952.61,-399.5 976.68,-399.5"/>
<polygon fill="black" stroke="black" points="976.68,-403 986.68,-399.5 976.68,-396 976.68,-403"/>
</g>
<!-- c26&#45;&gt;n9 -->
<g id="edge50" class="edge">
<title>c26:e&#45;&gt;n9:w</title>
<path fill="none" stroke="black" d="M428,-250.5C455.82,-250.5 465.22,-250.5 488.71,-250.5"/>
<polygon fill="black" stroke="black" points="488.89,-254 498.89,-250.5 488.89,-247 488.89,-254"/>
</g>
<!-- x0&#45;&gt;c26 -->
<g id="edge1" class="edge">
<title>x0:e&#45;&gt;c26:w</title>
<path fill="none" stroke="black" d="M218.06,-244.72C222.29,-243.4 225.73,-241.6 229.96,-240.27"/>
<polygon fill="none" stroke="black" points="217.87,-244.75 212.52,-249.58 206,-246.5 211.35,-241.67 217.87,-244.75"/>
<polygon fill="none" stroke="black" points="230.13,-240.25 235.48,-235.42 242,-238.5 236.65,-243.33 230.13,-240.25"/>
</g>
<!-- c27 -->
<g id="node27" class="node">
<title>c27</title>
<polygon fill="none" stroke="black" points="242,-292.5 242,-330.5 428,-330.5 428,-292.5 242,-292.5"/>
<text text-anchor="middle" x="257" y="-307.8" font-family="Times,serif" font-size="14.00">in</text>
<polyline fill="none" stroke="black" points="272,-292.5 272,-330.5 "/>
<text text-anchor="middle" x="330" y="-315.3" font-family="Times,serif" font-size="14.00">dmux_0.not_0</text>
<text text-anchor="middle" x="330" y="-300.3" font-family="Times,serif" font-size="14.00">Not</text>
<polyline fill="none" stroke="black" points="388,-292.5 388,-330.5 "/>
<text text-anchor="middle" x="408" y="-307.8" font-family="Times,serif" font-size="14.00">out</text>
</g>
<!-- c27&#45;&gt;n7 -->
<g id="edge43" class="edge">
<title>c27:e&#45;&gt;n7:w</title>
<path fill="none" stroke="black" d="M428,-311.5C440,-311.5 445.25,-312.06 453.87,-312.34"/>
<polygon fill="black" stroke="black" points="453.95,-315.85 464,-312.5 454.06,-308.85 453.95,-315.85"/>
</g>
<!-- x1&#45;&gt;c27 -->
<g id="edge2" class="edge">
<title>x1:e&#45;&gt;c27:w</title>
<path fill="none" stroke="black" d="M218,-307.61C222.25,-308.44 225.76,-309.57 230.02,-310.39"/>
<polygon fill="none" stroke="black" points="217.95,-307.61 211.61,-311.04 206,-306.5 212.34,-303.07 217.95,-307.61"/>
<polygon fill="none" stroke="black" points="230.05,-310.4 236.39,-306.97 242,-311.5 235.66,-314.93 230.05,-310.4"/>
</g>
<!-- c28&#45;&gt;n13 -->
<g id="edge12" class="edge">
<title>c28:e&#45;&gt;n13:w</title>
<path fill="none" stroke="black" d="M1401.58,-458.5C1415.23,-458.5 1420.97,-458.5 1431.03,-458.5"/>
<polygon fill="black" stroke="black" points="1431.3,-462 1441.3,-458.5 1431.3,-455 1431.3,-462"/>
</g>
<!-- c29&#45;&gt;n14 -->
<g id="edge14" class="edge">
<title>c29:e&#45;&gt;n14:w</title>
<path fill="none" stroke="black" d="M1401.58,-523.5C1414.89,-523.5 1420.48,-523.5 1430.29,-523.5"/>
<polygon fill="black" stroke="black" points="1430.3,-527 1440.3,-523.5 1430.3,-520 1430.3,-527"/>
</g>
<!-- x2&#45;&gt;c29 -->
<g id="edge3" class="edge">
<title>x2:e&#45;&gt;c29:w</title>
<path fill="none" stroke="black" d="M893.69,-510.5C1028.58,-510.55 1069.48,-511.45 1204.53,-511.5"/>
<polygon fill="none" stroke="black" points="893.29,-510.5 887.29,-514.5 881.29,-510.5 887.29,-506.5 893.29,-510.5"/>
<polygon fill="none" stroke="black" points="1204.58,-511.5 1210.58,-507.5 1216.58,-511.5 1210.58,-515.5 1204.58,-511.5"/>
</g>
<!-- c30 -->
<g id="node32" class="node">
<title>c30</title>
<polygon fill="none" stroke="black" points="242,-442.5 242,-480.5 428,-480.5 428,-442.5 242,-442.5"/>
<text text-anchor="middle" x="257" y="-457.8" font-family="Times,serif" font-size="14.00">in</text>
<polyline fill="none" stroke="black" points="272,-442.5 272,-480.5 "/>
<text text-anchor="middle" x="330" y="-465.3" font-family="Times,serif" font-size="14.00">dmux_1.not_0</text>
<text text-anchor="middle" x="330" y="-450.3" font-family="Times,serif" font-size="14.00">Not</text>
<polyline fill="none" stroke="black" points="388,-442.5 388,-480.5 "/>
<text text-anchor="middle" x="408" y="-457.8" font-family="Times,serif" font-size="14.00">out</text>
</g>
<!-- c30&#45;&gt;n12 -->
<g id="edge10" class="edge">
<title>c30:e&#45;&gt;n12:w</title>
<path fill="none" stroke="black" d="M428,-461.5C656.96,-461.5 716.68,-455.67 940.69,-455.5"/>
<polygon fill="black" stroke="black" points="940.79,-459 950.79,-455.5 940.79,-452 940.79,-459"/>
</g>
<!-- x3&#45;&gt;c30 -->
<g id="edge4" class="edge">
<title>x3:e&#45;&gt;c30:w</title>
<path fill="none" stroke="black" d="M217.49,-445.98C222.28,-449.33 225.46,-454.36 230.18,-457.78"/>
<polygon fill="none" stroke="black" points="217.48,-445.98 210.58,-448.07 206,-442.5 212.9,-440.41 217.48,-445.98"/>
<polygon fill="none" stroke="black" points="230.55,-457.9 237.48,-455.88 242,-461.5 235.08,-463.51 230.55,-457.9"/>
</g>
<!-- c31&#45;&gt;n18 -->
<g id="edge20" class="edge">
<title>c31:e&#45;&gt;n18:w</title>
<path fill="none" stroke="black" d="M914.79,-86.5C943.12,-86.5 952.61,-86.5 976.68,-86.5"/>
<polygon fill="black" stroke="black" points="976.68,-90 986.68,-86.5 976.68,-83 976.68,-90"/>
</g>
<!-- c32&#45;&gt;n19 -->
<g id="edge22" class="edge">
<title>c32:e&#45;&gt;n19:w</title>
<path fill="none" stroke="black" d="M914.79,-195.5C942.61,-195.5 952,-195.5 975.5,-195.5"/>
<polygon fill="black" stroke="black" points="975.68,-199 985.68,-195.5 975.68,-192 975.68,-199"/>
</g>
<!-- x4&#45;&gt;c32 -->
<g id="edge5" class="edge">
<title>x4:e&#45;&gt;c32:w</title>
<path fill="none" stroke="black" d="M650.29,-187.37C677.6,-186.76 690.19,-184.23 717.56,-183.63"/>
<polygon fill="none" stroke="black" points="649.89,-187.37 643.94,-191.44 637.89,-187.5 643.85,-183.44 649.89,-187.37"/>
<polygon fill="none" stroke="black" points="717.79,-183.63 723.75,-179.56 729.79,-183.5 723.83,-187.56 717.79,-183.63"/>
</g>
<!-- c33 -->
<g id="node37" class="node">
<title>c33</title>
<polygon fill="none" stroke="black" points="242,-23.5 242,-61.5 428,-61.5 428,-23.5 242,-23.5"/>
<text text-anchor="middle" x="257" y="-38.8" font-family="Times,serif" font-size="14.00">in</text>
<polyline fill="none" stroke="black" points="272,-23.5 272,-61.5 "/>
<text text-anchor="middle" x="330" y="-46.3" font-family="Times,serif" font-size="14.00">dmux_2.not_0</text>
<text text-anchor="middle" x="330" y="-31.3" font-family="Times,serif" font-size="14.00">Not</text>
<polyline fill="none" stroke="black" points="388,-23.5 388,-61.5 "/>
<text text-anchor="middle" x="408" y="-38.8" font-family="Times,serif" font-size="14.00">out</text>
</g>
<!-- c33&#45;&gt;n17 -->
<g id="edge18" class="edge">
<title>c33:e&#45;&gt;n17:w</title>
<path fill="none" stroke="black" d="M428,-42.5C440.58,-42.5 445.23,-48.24 453.97,-51.02"/>
<polygon fill="black" stroke="black" points="453.6,-54.51 464,-52.5 454.62,-47.58 453.6,-54.51"/>
</g>
<!-- x5&#45;&gt;c33 -->
<g id="edge6" class="edge">
<title>x5:e&#45;&gt;c33:w</title>
<path fill="none" stroke="black" d="M218.22,-42.5C222.29,-42.5 225.73,-42.5 229.81,-42.5"/>
<polygon fill="none" stroke="black" points="218,-42.5 212,-46.5 206,-42.5 212,-38.5 218,-42.5"/>
<polygon fill="none" stroke="black" points="230,-42.5 236,-38.5 242,-42.5 236,-46.5 230,-42.5"/>
</g>
<!-- x6&#45;&gt;n11 -->
<g id="edge9" class="edge">
<title>x6:e&#45;&gt;n11:w</title>
<path fill="none" stroke="black" d="M206,-152.5C218.93,-152.5 224.44,-152.5 233.89,-152.5"/>
<polygon fill="black" stroke="black" points="234,-156 244,-152.5 234,-149 234,-156"/>
</g>
<!-- x7&#45;&gt;n10 -->
<g id="edge8" class="edge">
<title>x7:e&#45;&gt;n10:w</title>
<path fill="none" stroke="black" d="M363,-367.5C418.07,-367.5 434.34,-367.5 484.71,-367.5"/>
<polygon fill="black" stroke="black" points="484.89,-371 494.89,-367.5 484.89,-364 484.89,-371"/>
</g>
<!-- x8&#45;&gt;n16 -->
<g id="edge17" class="edge">
<title>x8:e&#45;&gt;n16:w</title>
<path fill="none" stroke="black" d="M206,-97.5C218.94,-97.5 224.43,-98.09 233.88,-98.36"/>
<polygon fill="black" stroke="black" points="233.95,-101.86 244,-98.5 234.05,-94.86 233.95,-101.86"/>
</g>
<!-- x9&#45;&gt;n15 -->
<g id="edge16" class="edge">
<title>x9:e&#45;&gt;n15:w</title>
<path fill="none" stroke="black" d="M1337.08,-398.5C1378.08,-398.5 1390.85,-398.5 1427.23,-398.5"/>
<polygon fill="black" stroke="black" points="1427.58,-402 1437.58,-398.5 1427.58,-395 1427.58,-402"/>
</g>
<!-- x10&#45;&gt;n21 -->
<g id="edge26" class="edge">
<title>x10:e&#45;&gt;n21:w</title>
<path fill="none" stroke="black" d="M206,-556.5C218.93,-556.5 224.44,-556.5 233.89,-556.5"/>
<polygon fill="black" stroke="black" points="234,-560 244,-556.5 234,-553 234,-560"/>
</g>
<!-- x11&#45;&gt;n20 -->
<g id="edge25" class="edge">
<title>x11:e&#45;&gt;n20:w</title>
<path fill="none" stroke="black" d="M850.29,-255.5C905.15,-255.5 921.36,-255.5 971.54,-255.5"/>
<polygon fill="black" stroke="black" points="971.68,-259 981.68,-255.5 971.68,-252 971.68,-259"/>
</g>
<!-- x12&#45;&gt;n1 -->
<g id="edge7" class="edge">
<title>x12:e&#45;&gt;n1:w</title>
<path fill="none" stroke="black" d="M1337.08,-344.5C1399.9,-344.5 1418.09,-344.5 1476.21,-344.5"/>
<polygon fill="black" stroke="black" points="1476.3,-348 1486.3,-344.5 1476.3,-341 1476.3,-348"/>
</g>
<!-- x13&#45;&gt;n2 -->
<g id="edge24" class="edge">
<title>x13:e&#45;&gt;n2:w</title>
<path fill="none" stroke="black" d="M850.29,-309.5C927.02,-309.5 948.68,-309.5 1020.67,-309.5"/>
<polygon fill="black" stroke="black" points="1020.68,-313 1030.68,-309.5 1020.68,-306 1020.68,-313"/>
</g>
<!-- x14&#45;&gt;n3 -->
<g id="edge39" class="edge">
<title>x14:e&#45;&gt;n3:w</title>
<path fill="none" stroke="black" d="M1693.03,-458.5C1705.03,-458.5 1710.28,-458.5 1718.9,-458.5"/>
<polygon fill="black" stroke="black" points="1719.03,-462 1729.03,-458.5 1719.03,-455 1719.03,-462"/>
</g>
<!-- x15&#45;&gt;n4 -->
<g id="edge40" class="edge">
<title>x15:e&#45;&gt;n4:w</title>
<path fill="none" stroke="black" d="M1693.03,-523.5C1705.03,-523.5 1710.28,-523.5 1718.9,-523.5"/>
<polygon fill="black" stroke="black" points="1719.03,-527 1729.03,-523.5 1719.03,-520 1719.03,-527"/>
</g>
<!-- x16&#45;&gt;n5 -->
<g id="edge41" class="edge">
<title>x16:e&#45;&gt;n5:w</title>
<path fill="none" stroke="black" d="M1337.08,-86.5C1402.56,-86.5 1421.43,-86.5 1482.18,-86.5"/>
<polygon fill="black" stroke="black" points="1482.3,-90 1492.3,-86.5 1482.3,-83 1482.3,-90"/>
</g>
<!-- x17&#45;&gt;n6 -->
<g id="edge42" class="edge">
<title>x17:e&#45;&gt;n6:w</title>
<path fill="none" stroke="black" d="M1337.08,-195.5C1402.56,-195.5 1421.43,-195.5 1482.18,-195.5"/>
<polygon fill="black" stroke="black" points="1482.3,-199 1492.3,-195.5 1482.3,-192 1482.3,-199"/>
</g>
</g>
</svg>
