<?xml version="1.0" encoding="UTF-8" standalone="no"?>
<!DOCTYPE svg PUBLIC "-//W3C//DTD SVG 1.1//EN"
 "http://www.w3.org/Graphics/SVG/1.1/DTD/svg11.dtd">
<!-- Generated by graphviz version 2.43.0 (0)
 -->
<!-- Title: RAM4K Pages: 1 -->
<svg width="1327pt" height="851pt"
 viewBox="0.00 0.00 1326.66 850.50" xmlns="http://www.w3.org/2000/svg" xmlns:xlink="http://www.w3.org/1999/xlink">
<g id="graph0" class="graph" transform="scale(1 1) rotate(0) translate(4 846.5)">
<title>RAM4K</title>
<polygon fill="white" stroke="transparent" points="-4,4 -4,-846.5 1322.66,-846.5 1322.66,4 -4,4"/>
<text text-anchor="middle" x="659.33" y="-7.8" font-family="Times,serif" font-size="14.00">RAM4K</text>
<!-- n1 -->
<g id="node1" class="node">
<title>n1</title>
<polygon fill="none" stroke="black" points="929.12,-784.5 864.1,-766.5 929.12,-748.5 994.14,-766.5 929.12,-784.5"/>
<text text-anchor="middle" x="929.12" y="-762.8" font-family="Times,serif" font-size="14.00">Rx0000</text>
</g>
<!-- c31 -->
<g id="node23" class="node">
<title>c31</title>
<polygon fill="none" stroke="black" points="1030.38,-326 1030.38,-533 1226.38,-533 1226.38,-326 1030.38,-326"/>
<text text-anchor="middle" x="1048.88" y="-517.8" font-family="Times,serif" font-size="14.00">a</text>
<polyline fill="none" stroke="black" points="1030.38,-510 1067.38,-510 "/>
<text text-anchor="middle" x="1048.88" y="-494.8" font-family="Times,serif" font-size="14.00">b</text>
<polyline fill="none" stroke="black" points="1030.38,-487 1067.38,-487 "/>
<text text-anchor="middle" x="1048.88" y="-471.8" font-family="Times,serif" font-size="14.00">c</text>
<polyline fill="none" stroke="black" points="1030.38,-464 1067.38,-464 "/>
<text text-anchor="middle" x="1048.88" y="-448.8" font-family="Times,serif" font-size="14.00">d</text>
<polyline fill="none" stroke="black" points="1030.38,-441 1067.38,-441 "/>
<text text-anchor="middle" x="1048.88" y="-425.8" font-family="Times,serif" font-size="14.00">e</text>
<polyline fill="none" stroke="black" points="1030.38,-418 1067.38,-418 "/>
<text text-anchor="middle" x="1048.88" y="-402.8" font-family="Times,serif" font-size="14.00">f</text>
<polyline fill="none" stroke="black" points="1030.38,-395 1067.38,-395 "/>
<text text-anchor="middle" x="1048.88" y="-379.8" font-family="Times,serif" font-size="14.00">g</text>
<polyline fill="none" stroke="black" points="1030.38,-372 1067.38,-372 "/>
<text text-anchor="middle" x="1048.88" y="-356.8" font-family="Times,serif" font-size="14.00">h</text>
<polyline fill="none" stroke="black" points="1030.38,-349 1067.38,-349 "/>
<text text-anchor="middle" x="1048.88" y="-333.8" font-family="Times,serif" font-size="14.00">sel</text>
<polyline fill="none" stroke="black" points="1067.38,-326 1067.38,-533 "/>
<text text-anchor="middle" x="1126.88" y="-433.3" font-family="Times,serif" font-size="14.00">mux8way16_9</text>
<text text-anchor="middle" x="1126.88" y="-418.3" font-family="Times,serif" font-size="14.00">Mux8Way16</text>
<polyline fill="none" stroke="black" points="1186.38,-326 1186.38,-533 "/>
<text text-anchor="middle" x="1206.38" y="-425.8" font-family="Times,serif" font-size="14.00">out</text>
</g>
<!-- n1&#45;&gt;c31 -->
<g id="edge12" class="edge">
<title>n1:e&#45;&gt;c31:w</title>
<path fill="none" stroke="black" stroke-width="3" d="M994.38,-766.5C1045.54,-766.5 985.13,-554.74 1020.6,-524.96"/>
<polygon fill="black" stroke="black" stroke-width="3" points="1022.12,-528.14 1030.38,-521.5 1019.78,-521.54 1022.12,-528.14"/>
</g>
<!-- n2 -->
<g id="node2" class="node">
<title>n2</title>
<polygon fill="none" stroke="black" points="929.12,-689.5 864.1,-671.5 929.12,-653.5 994.14,-671.5 929.12,-689.5"/>
<text text-anchor="middle" x="929.12" y="-667.8" font-family="Times,serif" font-size="14.00">Rx1000</text>
</g>
<!-- n2&#45;&gt;c31 -->
<g id="edge39" class="edge">
<title>n2:e&#45;&gt;c31:w</title>
<path fill="none" stroke="black" stroke-width="3" d="M994.38,-671.5C1069.08,-671.5 963.19,-514.98 1020.26,-499.7"/>
<polygon fill="black" stroke="black" stroke-width="3" points="1020.86,-503.15 1030.38,-498.5 1020.04,-496.2 1020.86,-503.15"/>
</g>
<!-- n3 -->
<g id="node3" class="node">
<title>n3</title>
<polygon fill="none" stroke="black" points="929.12,-597.5 864.1,-579.5 929.12,-561.5 994.14,-579.5 929.12,-597.5"/>
<text text-anchor="middle" x="929.12" y="-575.8" font-family="Times,serif" font-size="14.00">Rx2000</text>
</g>
<!-- n3&#45;&gt;c31 -->
<g id="edge42" class="edge">
<title>n3:e&#45;&gt;c31:w</title>
<path fill="none" stroke="black" stroke-width="3" d="M994.38,-579.5C1039.28,-579.5 990.86,-491.86 1020.46,-477.48"/>
<polygon fill="black" stroke="black" stroke-width="3" points="1021.26,-480.89 1030.38,-475.5 1019.89,-474.03 1021.26,-480.89"/>
</g>
<!-- n4 -->
<g id="node4" class="node">
<title>n4</title>
<polygon fill="none" stroke="black" points="929.12,-518.5 864.1,-500.5 929.12,-482.5 994.14,-500.5 929.12,-518.5"/>
<text text-anchor="middle" x="929.12" y="-496.8" font-family="Times,serif" font-size="14.00">Rx3000</text>
</g>
<!-- n4&#45;&gt;c31 -->
<g id="edge44" class="edge">
<title>n4:e&#45;&gt;c31:w</title>
<path fill="none" stroke="black" stroke-width="3" d="M994.38,-500.5C1016.88,-500.5 1008.06,-466.33 1020.77,-455.65"/>
<polygon fill="black" stroke="black" stroke-width="3" points="1021.97,-458.94 1030.38,-452.5 1019.79,-452.29 1021.97,-458.94"/>
</g>
<!-- n5 -->
<g id="node5" class="node">
<title>n5</title>
<polygon fill="none" stroke="black" points="929.12,-447.5 864.1,-429.5 929.12,-411.5 994.14,-429.5 929.12,-447.5"/>
<text text-anchor="middle" x="929.12" y="-425.8" font-family="Times,serif" font-size="14.00">Rx4000</text>
</g>
<!-- n5&#45;&gt;c31 -->
<g id="edge46" class="edge">
<title>n5:e&#45;&gt;c31:w</title>
<path fill="none" stroke="black" stroke-width="3" d="M994.38,-429.5C1006.38,-429.5 1011.63,-429.5 1020.25,-429.5"/>
<polygon fill="black" stroke="black" stroke-width="3" points="1020.38,-433 1030.38,-429.5 1020.38,-426 1020.38,-433"/>
</g>
<!-- n6 -->
<g id="node6" class="node">
<title>n6</title>
<polygon fill="none" stroke="black" points="929.12,-376.5 864.1,-358.5 929.12,-340.5 994.14,-358.5 929.12,-376.5"/>
<text text-anchor="middle" x="929.12" y="-354.8" font-family="Times,serif" font-size="14.00">Rx5000</text>
</g>
<!-- n6&#45;&gt;c31 -->
<g id="edge48" class="edge">
<title>n6:e&#45;&gt;c31:w</title>
<path fill="none" stroke="black" stroke-width="3" d="M994.38,-358.5C1016.88,-358.5 1008.06,-392.67 1020.77,-403.35"/>
<polygon fill="black" stroke="black" stroke-width="3" points="1019.79,-406.71 1030.38,-406.5 1021.97,-400.06 1019.79,-406.71"/>
</g>
<!-- n7 -->
<g id="node7" class="node">
<title>n7</title>
<polygon fill="none" stroke="black" points="929.12,-286.5 864.1,-268.5 929.12,-250.5 994.14,-268.5 929.12,-286.5"/>
<text text-anchor="middle" x="929.12" y="-264.8" font-family="Times,serif" font-size="14.00">Rx6000</text>
</g>
<!-- n7&#45;&gt;c31 -->
<g id="edge50" class="edge">
<title>n7:e&#45;&gt;c31:w</title>
<path fill="none" stroke="black" stroke-width="3" d="M994.38,-268.5C1043.96,-268.5 986.69,-367.06 1020.41,-381.69"/>
<polygon fill="black" stroke="black" stroke-width="3" points="1019.92,-385.16 1030.38,-383.5 1021.16,-378.27 1019.92,-385.16"/>
</g>
<!-- n8 -->
<g id="node8" class="node">
<title>n8</title>
<polygon fill="none" stroke="black" points="929.12,-206.5 864.1,-188.5 929.12,-170.5 994.14,-188.5 929.12,-206.5"/>
<text text-anchor="middle" x="929.12" y="-184.8" font-family="Times,serif" font-size="14.00">Rx7000</text>
</g>
<!-- n8&#45;&gt;c31 -->
<g id="edge52" class="edge">
<title>n8:e&#45;&gt;c31:w</title>
<path fill="none" stroke="black" stroke-width="3" d="M994.38,-188.5C1068.67,-188.5 963.54,-344.11 1020.31,-359.31"/>
<polygon fill="black" stroke="black" stroke-width="3" points="1020.04,-362.8 1030.38,-360.5 1020.86,-355.85 1020.04,-362.8"/>
</g>
<!-- n9 -->
<g id="node9" class="node">
<title>n9</title>
<polygon fill="none" stroke="black" points="102.57,-380.04 102.57,-394.96 72.57,-405.5 30.14,-405.5 0.14,-394.96 0.14,-380.04 30.14,-369.5 72.57,-369.5 102.57,-380.04"/>
<text text-anchor="middle" x="51.35" y="-383.8" font-family="Times,serif" font-size="14.00">address</text>
</g>
<!-- x0 -->
<g id="node22" class="node">
<title>x0</title>
<path fill="none" stroke="black" d="M150.71,-513.5C150.71,-513.5 278.71,-513.5 278.71,-513.5 284.71,-513.5 290.71,-519.5 290.71,-525.5 290.71,-525.5 290.71,-537.5 290.71,-537.5 290.71,-543.5 284.71,-549.5 278.71,-549.5 278.71,-549.5 150.71,-549.5 150.71,-549.5 144.71,-549.5 138.71,-543.5 138.71,-537.5 138.71,-537.5 138.71,-525.5 138.71,-525.5 138.71,-519.5 144.71,-513.5 150.71,-513.5"/>
<text text-anchor="middle" x="214.71" y="-527.8" font-family="Times,serif" font-size="14.00">slice [11:9] to [2:0]</text>
</g>
<!-- n9&#45;&gt;x0 -->
<g id="edge53" class="edge">
<title>n9:e&#45;&gt;x0:w</title>
<path fill="none" stroke="black" stroke-width="3" d="M102.71,-387.5C164.81,-387.5 83.43,-515.12 128.72,-530.07"/>
<polygon fill="black" stroke="black" stroke-width="3" points="128.32,-533.55 138.71,-531.5 129.3,-526.62 128.32,-533.55"/>
</g>
<!-- x1 -->
<g id="node24" class="node">
<title>x1</title>
<path fill="none" stroke="black" d="M349.21,-23.5C349.21,-23.5 477.21,-23.5 477.21,-23.5 483.21,-23.5 489.21,-29.5 489.21,-35.5 489.21,-35.5 489.21,-47.5 489.21,-47.5 489.21,-53.5 483.21,-59.5 477.21,-59.5 477.21,-59.5 349.21,-59.5 349.21,-59.5 343.21,-59.5 337.21,-53.5 337.21,-47.5 337.21,-47.5 337.21,-35.5 337.21,-35.5 337.21,-29.5 343.21,-23.5 349.21,-23.5"/>
<text text-anchor="middle" x="413.21" y="-37.8" font-family="Times,serif" font-size="14.00">slice [11:9] to [2:0]</text>
</g>
<!-- n9&#45;&gt;x1 -->
<g id="edge54" class="edge">
<title>n9:e&#45;&gt;x1:w</title>
<path fill="none" stroke="black" stroke-width="3" d="M102.71,-387.5C161.48,-387.5 103.02,-172.19 138.71,-125.5 194.54,-52.45 237.61,-42.18 326.07,-41.53"/>
<polygon fill="black" stroke="black" stroke-width="3" points="326.22,-45.03 336.21,-41.5 326.2,-38.03 326.22,-45.03"/>
</g>
<!-- x2 -->
<g id="node26" class="node">
<title>x2</title>
<path fill="none" stroke="black" d="M353.71,-797.5C353.71,-797.5 472.71,-797.5 472.71,-797.5 478.71,-797.5 484.71,-803.5 484.71,-809.5 484.71,-809.5 484.71,-821.5 484.71,-821.5 484.71,-827.5 478.71,-833.5 472.71,-833.5 472.71,-833.5 353.71,-833.5 353.71,-833.5 347.71,-833.5 341.71,-827.5 341.71,-821.5 341.71,-821.5 341.71,-809.5 341.71,-809.5 341.71,-803.5 347.71,-797.5 353.71,-797.5"/>
<text text-anchor="middle" x="413.21" y="-811.8" font-family="Times,serif" font-size="14.00">slice [8:0] to [8:0]</text>
</g>
<!-- n9&#45;&gt;x2 -->
<g id="edge55" class="edge">
<title>n9:e&#45;&gt;x2:w</title>
<path fill="none" stroke="black" stroke-width="3" d="M102.71,-387.5C176.04,-387.5 96.72,-655.39 138.71,-715.5 194,-794.66 237.19,-814.19 330.15,-815.43"/>
<polygon fill="black" stroke="black" stroke-width="3" points="330.19,-818.94 340.21,-815.5 330.23,-811.94 330.19,-818.94"/>
</g>
<!-- x3 -->
<g id="node28" class="node">
<title>x3</title>
<path fill="none" stroke="black" d="M353.71,-718.5C353.71,-718.5 472.71,-718.5 472.71,-718.5 478.71,-718.5 484.71,-724.5 484.71,-730.5 484.71,-730.5 484.71,-742.5 484.71,-742.5 484.71,-748.5 478.71,-754.5 472.71,-754.5 472.71,-754.5 353.71,-754.5 353.71,-754.5 347.71,-754.5 341.71,-748.5 341.71,-742.5 341.71,-742.5 341.71,-730.5 341.71,-730.5 341.71,-724.5 347.71,-718.5 353.71,-718.5"/>
<text text-anchor="middle" x="413.21" y="-732.8" font-family="Times,serif" font-size="14.00">slice [8:0] to [8:0]</text>
</g>
<!-- n9&#45;&gt;x3 -->
<g id="edge56" class="edge">
<title>n9:e&#45;&gt;x3:w</title>
<path fill="none" stroke="black" stroke-width="3" d="M102.71,-387.5C165.66,-387.5 98.81,-619.8 138.71,-668.5 196.44,-738.97 242.27,-736.77 330.15,-736.52"/>
<polygon fill="black" stroke="black" stroke-width="3" points="330.22,-740.02 340.21,-736.5 330.2,-733.02 330.22,-740.02"/>
</g>
<!-- x4 -->
<g id="node30" class="node">
<title>x4</title>
<path fill="none" stroke="black" d="M353.71,-448.5C353.71,-448.5 472.71,-448.5 472.71,-448.5 478.71,-448.5 484.71,-454.5 484.71,-460.5 484.71,-460.5 484.71,-472.5 484.71,-472.5 484.71,-478.5 478.71,-484.5 472.71,-484.5 472.71,-484.5 353.71,-484.5 353.71,-484.5 347.71,-484.5 341.71,-478.5 341.71,-472.5 341.71,-472.5 341.71,-460.5 341.71,-460.5 341.71,-454.5 347.71,-448.5 353.71,-448.5"/>
<text text-anchor="middle" x="413.21" y="-462.8" font-family="Times,serif" font-size="14.00">slice [8:0] to [8:0]</text>
</g>
<!-- n9&#45;&gt;x4 -->
<g id="edge57" class="edge">
<title>n9:e&#45;&gt;x4:w</title>
<path fill="none" stroke="black" stroke-width="3" d="M102.71,-387.5C122.71,-387.5 120.68,-405.84 138.71,-414.5 218.98,-453.08 245.74,-465.58 330.18,-466.45"/>
<polygon fill="black" stroke="black" stroke-width="3" points="330.19,-469.95 340.21,-466.5 330.23,-462.95 330.19,-469.95"/>
</g>
<!-- x5 -->
<g id="node32" class="node">
<title>x5</title>
<path fill="none" stroke="black" d="M353.71,-393.5C353.71,-393.5 472.71,-393.5 472.71,-393.5 478.71,-393.5 484.71,-399.5 484.71,-405.5 484.71,-405.5 484.71,-417.5 484.71,-417.5 484.71,-423.5 478.71,-429.5 472.71,-429.5 472.71,-429.5 353.71,-429.5 353.71,-429.5 347.71,-429.5 341.71,-423.5 341.71,-417.5 341.71,-417.5 341.71,-405.5 341.71,-405.5 341.71,-399.5 347.71,-393.5 353.71,-393.5"/>
<text text-anchor="middle" x="413.21" y="-407.8" font-family="Times,serif" font-size="14.00">slice [8:0] to [8:0]</text>
</g>
<!-- n9&#45;&gt;x5 -->
<g id="edge58" class="edge">
<title>n9:e&#45;&gt;x5:w</title>
<path fill="none" stroke="black" stroke-width="3" d="M102.71,-387.5C118.86,-387.5 122.66,-390.63 138.71,-392.5 224.57,-402.51 248.42,-410.83 329.97,-411.46"/>
<polygon fill="black" stroke="black" stroke-width="3" points="330.2,-414.96 340.21,-411.5 330.22,-407.96 330.2,-414.96"/>
</g>
<!-- x6 -->
<g id="node34" class="node">
<title>x6</title>
<path fill="none" stroke="black" d="M155.21,-346.5C155.21,-346.5 274.21,-346.5 274.21,-346.5 280.21,-346.5 286.21,-352.5 286.21,-358.5 286.21,-358.5 286.21,-370.5 286.21,-370.5 286.21,-376.5 280.21,-382.5 274.21,-382.5 274.21,-382.5 155.21,-382.5 155.21,-382.5 149.21,-382.5 143.21,-376.5 143.21,-370.5 143.21,-370.5 143.21,-358.5 143.21,-358.5 143.21,-352.5 149.21,-346.5 155.21,-346.5"/>
<text text-anchor="middle" x="214.71" y="-360.8" font-family="Times,serif" font-size="14.00">slice [8:0] to [8:0]</text>
</g>
<!-- n9&#45;&gt;x6 -->
<g id="edge59" class="edge">
<title>n9:e&#45;&gt;x6:w</title>
<path fill="none" stroke="black" stroke-width="3" d="M102.71,-387.5C118.75,-387.5 121.21,-372.89 131.73,-366.96"/>
<polygon fill="black" stroke="black" stroke-width="3" points="132.84,-370.29 141.71,-364.5 131.16,-363.5 132.84,-370.29"/>
</g>
<!-- x7 -->
<g id="node36" class="node">
<title>x7</title>
<path fill="none" stroke="black" d="M155.21,-272.5C155.21,-272.5 274.21,-272.5 274.21,-272.5 280.21,-272.5 286.21,-278.5 286.21,-284.5 286.21,-284.5 286.21,-296.5 286.21,-296.5 286.21,-302.5 280.21,-308.5 274.21,-308.5 274.21,-308.5 155.21,-308.5 155.21,-308.5 149.21,-308.5 143.21,-302.5 143.21,-296.5 143.21,-296.5 143.21,-284.5 143.21,-284.5 143.21,-278.5 149.21,-272.5 155.21,-272.5"/>
<text text-anchor="middle" x="214.71" y="-286.8" font-family="Times,serif" font-size="14.00">slice [8:0] to [8:0]</text>
</g>
<!-- n9&#45;&gt;x7 -->
<g id="edge60" class="edge">
<title>n9:e&#45;&gt;x7:w</title>
<path fill="none" stroke="black" stroke-width="3" d="M102.71,-387.5C145.18,-387.5 103.77,-306.46 131.83,-292.53"/>
<polygon fill="black" stroke="black" stroke-width="3" points="132.62,-295.94 141.71,-290.5 131.21,-289.08 132.62,-295.94"/>
</g>
<!-- x8 -->
<g id="node38" class="node">
<title>x8</title>
<path fill="none" stroke="black" d="M155.21,-208.5C155.21,-208.5 274.21,-208.5 274.21,-208.5 280.21,-208.5 286.21,-214.5 286.21,-220.5 286.21,-220.5 286.21,-232.5 286.21,-232.5 286.21,-238.5 280.21,-244.5 274.21,-244.5 274.21,-244.5 155.21,-244.5 155.21,-244.5 149.21,-244.5 143.21,-238.5 143.21,-232.5 143.21,-232.5 143.21,-220.5 143.21,-220.5 143.21,-214.5 149.21,-208.5 155.21,-208.5"/>
<text text-anchor="middle" x="214.71" y="-222.8" font-family="Times,serif" font-size="14.00">slice [8:0] to [8:0]</text>
</g>
<!-- n9&#45;&gt;x8 -->
<g id="edge61" class="edge">
<title>n9:e&#45;&gt;x8:w</title>
<path fill="none" stroke="black" stroke-width="3" d="M102.71,-387.5C172.45,-387.5 79,-243.03 131.53,-227.8"/>
<polygon fill="black" stroke="black" stroke-width="3" points="132.23,-231.23 141.71,-226.5 131.35,-224.29 132.23,-231.23"/>
</g>
<!-- x9 -->
<g id="node40" class="node">
<title>x9</title>
<path fill="none" stroke="black" d="M155.21,-135.5C155.21,-135.5 274.21,-135.5 274.21,-135.5 280.21,-135.5 286.21,-141.5 286.21,-147.5 286.21,-147.5 286.21,-159.5 286.21,-159.5 286.21,-165.5 280.21,-171.5 274.21,-171.5 274.21,-171.5 155.21,-171.5 155.21,-171.5 149.21,-171.5 143.21,-165.5 143.21,-159.5 143.21,-159.5 143.21,-147.5 143.21,-147.5 143.21,-141.5 149.21,-135.5 155.21,-135.5"/>
<text text-anchor="middle" x="214.71" y="-149.8" font-family="Times,serif" font-size="14.00">slice [8:0] to [8:0]</text>
</g>
<!-- n9&#45;&gt;x9 -->
<g id="edge62" class="edge">
<title>n9:e&#45;&gt;x9:w</title>
<path fill="none" stroke="black" stroke-width="3" d="M102.71,-387.5C204.44,-387.5 48.02,-169.66 131.59,-154.35"/>
<polygon fill="black" stroke="black" stroke-width="3" points="132.04,-157.82 141.71,-153.5 131.45,-150.85 132.04,-157.82"/>
</g>
<!-- n10 -->
<g id="node10" class="node">
<title>n10</title>
<polygon fill="none" stroke="black" points="590.28,-549.04 590.28,-563.96 574.47,-574.5 552.1,-574.5 536.28,-563.96 536.28,-549.04 552.1,-538.5 574.47,-538.5 590.28,-549.04"/>
<text text-anchor="middle" x="563.28" y="-552.8" font-family="Times,serif" font-size="14.00">in</text>
</g>
<!-- c32 -->
<g id="node25" class="node">
<title>c32</title>
<polygon fill="none" stroke="black" points="626.86,-773 626.86,-842 827.86,-842 827.86,-773 626.86,-773"/>
<text text-anchor="middle" x="663.36" y="-826.8" font-family="Times,serif" font-size="14.00">address</text>
<polyline fill="none" stroke="black" points="626.86,-819 699.86,-819 "/>
<text text-anchor="middle" x="663.36" y="-803.8" font-family="Times,serif" font-size="14.00">in</text>
<polyline fill="none" stroke="black" points="626.86,-796 699.86,-796 "/>
<text text-anchor="middle" x="663.36" y="-780.8" font-family="Times,serif" font-size="14.00">load</text>
<polyline fill="none" stroke="black" points="699.86,-773 699.86,-842 "/>
<text text-anchor="middle" x="743.86" y="-811.3" font-family="Times,serif" font-size="14.00">ram512_1</text>
<text text-anchor="middle" x="743.86" y="-796.3" font-family="Times,serif" font-size="14.00">RAM512</text>
<polyline fill="none" stroke="black" points="787.86,-773 787.86,-842 "/>
<text text-anchor="middle" x="807.86" y="-803.8" font-family="Times,serif" font-size="14.00">out</text>
</g>
<!-- n10&#45;&gt;c32 -->
<g id="edge13" class="edge">
<title>n10:e&#45;&gt;c32:w</title>
<path fill="none" stroke="black" stroke-width="3" d="M590.86,-556.5C643.47,-556.5 580.11,-775.27 617.32,-804.33"/>
<polygon fill="black" stroke="black" stroke-width="3" points="616.27,-807.67 626.86,-807.5 618.47,-801.02 616.27,-807.67"/>
</g>
<!-- c33 -->
<g id="node27" class="node">
<title>c33</title>
<polygon fill="none" stroke="black" points="626.86,-675 626.86,-744 827.86,-744 827.86,-675 626.86,-675"/>
<text text-anchor="middle" x="663.36" y="-728.8" font-family="Times,serif" font-size="14.00">address</text>
<polyline fill="none" stroke="black" points="626.86,-721 699.86,-721 "/>
<text text-anchor="middle" x="663.36" y="-705.8" font-family="Times,serif" font-size="14.00">in</text>
<polyline fill="none" stroke="black" points="626.86,-698 699.86,-698 "/>
<text text-anchor="middle" x="663.36" y="-682.8" font-family="Times,serif" font-size="14.00">load</text>
<polyline fill="none" stroke="black" points="699.86,-675 699.86,-744 "/>
<text text-anchor="middle" x="743.86" y="-713.3" font-family="Times,serif" font-size="14.00">ram512_2</text>
<text text-anchor="middle" x="743.86" y="-698.3" font-family="Times,serif" font-size="14.00">RAM512</text>
<polyline fill="none" stroke="black" points="787.86,-675 787.86,-744 "/>
<text text-anchor="middle" x="807.86" y="-705.8" font-family="Times,serif" font-size="14.00">out</text>
</g>
<!-- n10&#45;&gt;c33 -->
<g id="edge14" class="edge">
<title>n10:e&#45;&gt;c33:w</title>
<path fill="none" stroke="black" stroke-width="3" d="M590.86,-556.5C656.9,-556.5 567.83,-693.22 616.9,-708.18"/>
<polygon fill="black" stroke="black" stroke-width="3" points="616.49,-711.65 626.86,-709.5 617.41,-704.71 616.49,-711.65"/>
</g>
<!-- c34 -->
<g id="node29" class="node">
<title>c34</title>
<polygon fill="none" stroke="black" points="626.86,-571 626.86,-640 827.86,-640 827.86,-571 626.86,-571"/>
<text text-anchor="middle" x="663.36" y="-624.8" font-family="Times,serif" font-size="14.00">address</text>
<polyline fill="none" stroke="black" points="626.86,-617 699.86,-617 "/>
<text text-anchor="middle" x="663.36" y="-601.8" font-family="Times,serif" font-size="14.00">in</text>
<polyline fill="none" stroke="black" points="626.86,-594 699.86,-594 "/>
<text text-anchor="middle" x="663.36" y="-578.8" font-family="Times,serif" font-size="14.00">load</text>
<polyline fill="none" stroke="black" points="699.86,-571 699.86,-640 "/>
<text text-anchor="middle" x="743.86" y="-609.3" font-family="Times,serif" font-size="14.00">ram512_3</text>
<text text-anchor="middle" x="743.86" y="-594.3" font-family="Times,serif" font-size="14.00">RAM512</text>
<polyline fill="none" stroke="black" points="787.86,-571 787.86,-640 "/>
<text text-anchor="middle" x="807.86" y="-601.8" font-family="Times,serif" font-size="14.00">out</text>
</g>
<!-- n10&#45;&gt;c34 -->
<g id="edge15" class="edge">
<title>n10:e&#45;&gt;c34:w</title>
<path fill="none" stroke="black" stroke-width="3" d="M590.86,-556.5C613.66,-556.5 604.38,-591.38 617.15,-602.28"/>
<polygon fill="black" stroke="black" stroke-width="3" points="616.27,-605.68 626.86,-605.5 618.47,-599.03 616.27,-605.68"/>
</g>
<!-- c35 -->
<g id="node31" class="node">
<title>c35</title>
<polygon fill="none" stroke="black" points="626.86,-483 626.86,-552 827.86,-552 827.86,-483 626.86,-483"/>
<text text-anchor="middle" x="663.36" y="-536.8" font-family="Times,serif" font-size="14.00">address</text>
<polyline fill="none" stroke="black" points="626.86,-529 699.86,-529 "/>
<text text-anchor="middle" x="663.36" y="-513.8" font-family="Times,serif" font-size="14.00">in</text>
<polyline fill="none" stroke="black" points="626.86,-506 699.86,-506 "/>
<text text-anchor="middle" x="663.36" y="-490.8" font-family="Times,serif" font-size="14.00">load</text>
<polyline fill="none" stroke="black" points="699.86,-483 699.86,-552 "/>
<text text-anchor="middle" x="743.86" y="-521.3" font-family="Times,serif" font-size="14.00">ram512_4</text>
<text text-anchor="middle" x="743.86" y="-506.3" font-family="Times,serif" font-size="14.00">RAM512</text>
<polyline fill="none" stroke="black" points="787.86,-483 787.86,-552 "/>
<text text-anchor="middle" x="807.86" y="-513.8" font-family="Times,serif" font-size="14.00">out</text>
</g>
<!-- n10&#45;&gt;c35 -->
<g id="edge16" class="edge">
<title>n10:e&#45;&gt;c35:w</title>
<path fill="none" stroke="black" stroke-width="3" d="M590.86,-556.5C610.21,-556.5 606.16,-530.26 617.11,-520.83"/>
<polygon fill="black" stroke="black" stroke-width="3" points="618.52,-524.04 626.86,-517.5 616.26,-517.41 618.52,-524.04"/>
</g>
<!-- c36 -->
<g id="node33" class="node">
<title>c36</title>
<polygon fill="none" stroke="black" points="626.86,-395 626.86,-464 827.86,-464 827.86,-395 626.86,-395"/>
<text text-anchor="middle" x="663.36" y="-448.8" font-family="Times,serif" font-size="14.00">address</text>
<polyline fill="none" stroke="black" points="626.86,-441 699.86,-441 "/>
<text text-anchor="middle" x="663.36" y="-425.8" font-family="Times,serif" font-size="14.00">in</text>
<polyline fill="none" stroke="black" points="626.86,-418 699.86,-418 "/>
<text text-anchor="middle" x="663.36" y="-402.8" font-family="Times,serif" font-size="14.00">load</text>
<polyline fill="none" stroke="black" points="699.86,-395 699.86,-464 "/>
<text text-anchor="middle" x="743.86" y="-433.3" font-family="Times,serif" font-size="14.00">ram512_5</text>
<text text-anchor="middle" x="743.86" y="-418.3" font-family="Times,serif" font-size="14.00">RAM512</text>
<polyline fill="none" stroke="black" points="787.86,-395 787.86,-464 "/>
<text text-anchor="middle" x="807.86" y="-425.8" font-family="Times,serif" font-size="14.00">out</text>
</g>
<!-- n10&#45;&gt;c36 -->
<g id="edge17" class="edge">
<title>n10:e&#45;&gt;c36:w</title>
<path fill="none" stroke="black" stroke-width="3" d="M590.86,-556.5C645.63,-556.5 578.38,-445.81 616.94,-431.11"/>
<polygon fill="black" stroke="black" stroke-width="3" points="617.55,-434.55 626.86,-429.5 616.43,-427.64 617.55,-434.55"/>
</g>
<!-- c37 -->
<g id="node35" class="node">
<title>c37</title>
<polygon fill="none" stroke="black" points="626.86,-307 626.86,-376 827.86,-376 827.86,-307 626.86,-307"/>
<text text-anchor="middle" x="663.36" y="-360.8" font-family="Times,serif" font-size="14.00">address</text>
<polyline fill="none" stroke="black" points="626.86,-353 699.86,-353 "/>
<text text-anchor="middle" x="663.36" y="-337.8" font-family="Times,serif" font-size="14.00">in</text>
<polyline fill="none" stroke="black" points="626.86,-330 699.86,-330 "/>
<text text-anchor="middle" x="663.36" y="-314.8" font-family="Times,serif" font-size="14.00">load</text>
<polyline fill="none" stroke="black" points="699.86,-307 699.86,-376 "/>
<text text-anchor="middle" x="743.86" y="-345.3" font-family="Times,serif" font-size="14.00">ram512_6</text>
<text text-anchor="middle" x="743.86" y="-330.3" font-family="Times,serif" font-size="14.00">RAM512</text>
<polyline fill="none" stroke="black" points="787.86,-307 787.86,-376 "/>
<text text-anchor="middle" x="807.86" y="-337.8" font-family="Times,serif" font-size="14.00">out</text>
</g>
<!-- n10&#45;&gt;c37 -->
<g id="edge18" class="edge">
<title>n10:e&#45;&gt;c37:w</title>
<path fill="none" stroke="black" stroke-width="3" d="M590.86,-556.5C683.96,-556.5 541.91,-357.97 616.64,-342.46"/>
<polygon fill="black" stroke="black" stroke-width="3" points="617.23,-345.92 626.86,-341.5 616.58,-338.95 617.23,-345.92"/>
</g>
<!-- c38 -->
<g id="node37" class="node">
<title>c38</title>
<polygon fill="none" stroke="black" points="626.86,-217 626.86,-286 827.86,-286 827.86,-217 626.86,-217"/>
<text text-anchor="middle" x="663.36" y="-270.8" font-family="Times,serif" font-size="14.00">address</text>
<polyline fill="none" stroke="black" points="626.86,-263 699.86,-263 "/>
<text text-anchor="middle" x="663.36" y="-247.8" font-family="Times,serif" font-size="14.00">in</text>
<polyline fill="none" stroke="black" points="626.86,-240 699.86,-240 "/>
<text text-anchor="middle" x="663.36" y="-224.8" font-family="Times,serif" font-size="14.00">load</text>
<polyline fill="none" stroke="black" points="699.86,-217 699.86,-286 "/>
<text text-anchor="middle" x="743.86" y="-255.3" font-family="Times,serif" font-size="14.00">ram512_7</text>
<text text-anchor="middle" x="743.86" y="-240.3" font-family="Times,serif" font-size="14.00">RAM512</text>
<polyline fill="none" stroke="black" points="787.86,-217 787.86,-286 "/>
<text text-anchor="middle" x="807.86" y="-247.8" font-family="Times,serif" font-size="14.00">out</text>
</g>
<!-- n10&#45;&gt;c38 -->
<g id="edge19" class="edge">
<title>n10:e&#45;&gt;c38:w</title>
<path fill="none" stroke="black" stroke-width="3" d="M590.86,-556.5C655.38,-556.5 569.1,-283.95 617.12,-254.14"/>
<polygon fill="black" stroke="black" stroke-width="3" points="618.12,-257.49 626.86,-251.5 616.29,-250.74 618.12,-257.49"/>
</g>
<!-- c39 -->
<g id="node39" class="node">
<title>c39</title>
<polygon fill="none" stroke="black" points="626.86,-126 626.86,-195 827.86,-195 827.86,-126 626.86,-126"/>
<text text-anchor="middle" x="663.36" y="-179.8" font-family="Times,serif" font-size="14.00">address</text>
<polyline fill="none" stroke="black" points="626.86,-172 699.86,-172 "/>
<text text-anchor="middle" x="663.36" y="-156.8" font-family="Times,serif" font-size="14.00">in</text>
<polyline fill="none" stroke="black" points="626.86,-149 699.86,-149 "/>
<text text-anchor="middle" x="663.36" y="-133.8" font-family="Times,serif" font-size="14.00">load</text>
<polyline fill="none" stroke="black" points="699.86,-126 699.86,-195 "/>
<text text-anchor="middle" x="743.86" y="-164.3" font-family="Times,serif" font-size="14.00">ram512_8</text>
<text text-anchor="middle" x="743.86" y="-149.3" font-family="Times,serif" font-size="14.00">RAM512</text>
<polyline fill="none" stroke="black" points="787.86,-126 787.86,-195 "/>
<text text-anchor="middle" x="807.86" y="-156.8" font-family="Times,serif" font-size="14.00">out</text>
</g>
<!-- n10&#45;&gt;c39 -->
<g id="edge20" class="edge">
<title>n10:e&#45;&gt;c39:w</title>
<path fill="none" stroke="black" stroke-width="3" d="M590.86,-556.5C675.43,-556.5 550.17,-193.8 616.7,-162.63"/>
<polygon fill="black" stroke="black" stroke-width="3" points="617.79,-165.98 626.86,-160.5 616.35,-159.13 617.79,-165.98"/>
</g>
<!-- n11 -->
<g id="node11" class="node">
<title>n11</title>
<polygon fill="none" stroke="black" points="563.28,-812.5 535.63,-794.5 563.28,-776.5 590.93,-794.5 563.28,-812.5"/>
<text text-anchor="middle" x="563.28" y="-790.8" font-family="Times,serif" font-size="14.00">l0</text>
</g>
<!-- n11&#45;&gt;c32 -->
<g id="edge22" class="edge">
<title>n11:e&#45;&gt;c32:w</title>
<path fill="none" stroke="black" d="M590.86,-794.5C603.44,-794.5 608.09,-788.76 616.83,-785.98"/>
<polygon fill="black" stroke="black" points="617.48,-789.42 626.86,-784.5 616.46,-782.49 617.48,-789.42"/>
</g>
<!-- n12 -->
<g id="node12" class="node">
<title>n12</title>
<polygon fill="none" stroke="black" points="563.28,-720.5 535.63,-702.5 563.28,-684.5 590.93,-702.5 563.28,-720.5"/>
<text text-anchor="middle" x="563.28" y="-698.8" font-family="Times,serif" font-size="14.00">l1</text>
</g>
<!-- n12&#45;&gt;c33 -->
<g id="edge24" class="edge">
<title>n12:e&#45;&gt;c33:w</title>
<path fill="none" stroke="black" d="M590.86,-702.5C604.26,-702.5 607.98,-693.12 616.85,-688.72"/>
<polygon fill="black" stroke="black" points="617.86,-692.09 626.86,-686.5 616.34,-685.25 617.86,-692.09"/>
</g>
<!-- n13 -->
<g id="node13" class="node">
<title>n13</title>
<polygon fill="none" stroke="black" points="563.28,-666.5 535.63,-648.5 563.28,-630.5 590.93,-648.5 563.28,-666.5"/>
<text text-anchor="middle" x="563.28" y="-644.8" font-family="Times,serif" font-size="14.00">l2</text>
</g>
<!-- n13&#45;&gt;c34 -->
<g id="edge26" class="edge">
<title>n13:e&#45;&gt;c34:w</title>
<path fill="none" stroke="black" d="M590.86,-648.5C620.1,-648.5 600.15,-597.97 617.09,-585.34"/>
<polygon fill="black" stroke="black" points="618.23,-588.65 626.86,-582.5 616.28,-581.93 618.23,-588.65"/>
</g>
<!-- n14 -->
<g id="node14" class="node">
<title>n14</title>
<polygon fill="none" stroke="black" points="563.28,-520.5 535.63,-502.5 563.28,-484.5 590.93,-502.5 563.28,-520.5"/>
<text text-anchor="middle" x="563.28" y="-498.8" font-family="Times,serif" font-size="14.00">l3</text>
</g>
<!-- n14&#45;&gt;c35 -->
<g id="edge28" class="edge">
<title>n14:e&#45;&gt;c35:w</title>
<path fill="none" stroke="black" d="M590.86,-502.5C603.28,-502.5 608.14,-497.91 616.89,-495.68"/>
<polygon fill="black" stroke="black" points="617.34,-499.15 626.86,-494.5 616.52,-492.2 617.34,-499.15"/>
</g>
<!-- n15 -->
<g id="node15" class="node">
<title>n15</title>
<polygon fill="none" stroke="black" points="563.28,-428.5 535.63,-410.5 563.28,-392.5 590.93,-410.5 563.28,-428.5"/>
<text text-anchor="middle" x="563.28" y="-406.8" font-family="Times,serif" font-size="14.00">l4</text>
</g>
<!-- n15&#45;&gt;c36 -->
<g id="edge30" class="edge">
<title>n15:e&#45;&gt;c36:w</title>
<path fill="none" stroke="black" d="M590.86,-410.5C602.93,-410.5 608.09,-408.25 616.71,-407.12"/>
<polygon fill="black" stroke="black" points="617.09,-410.61 626.86,-406.5 616.66,-403.62 617.09,-410.61"/>
</g>
<!-- n16 -->
<g id="node16" class="node">
<title>n16</title>
<polygon fill="none" stroke="black" points="563.28,-336.5 535.63,-318.5 563.28,-300.5 590.93,-318.5 563.28,-336.5"/>
<text text-anchor="middle" x="563.28" y="-314.8" font-family="Times,serif" font-size="14.00">l5</text>
</g>
<!-- n16&#45;&gt;c37 -->
<g id="edge32" class="edge">
<title>n16:e&#45;&gt;c37:w</title>
<path fill="none" stroke="black" d="M590.86,-318.5C602.86,-318.5 608.11,-318.5 616.73,-318.5"/>
<polygon fill="black" stroke="black" points="616.86,-322 626.86,-318.5 616.86,-315 616.86,-322"/>
</g>
<!-- n17 -->
<g id="node17" class="node">
<title>n17</title>
<polygon fill="none" stroke="black" points="563.28,-244.5 535.63,-226.5 563.28,-208.5 590.93,-226.5 563.28,-244.5"/>
<text text-anchor="middle" x="563.28" y="-222.8" font-family="Times,serif" font-size="14.00">l6</text>
</g>
<!-- n17&#45;&gt;c38 -->
<g id="edge34" class="edge">
<title>n17:e&#45;&gt;c38:w</title>
<path fill="none" stroke="black" d="M590.86,-226.5C602.88,-226.5 608.1,-227.62 616.73,-228.19"/>
<polygon fill="black" stroke="black" points="616.76,-231.69 626.86,-228.5 616.97,-224.69 616.76,-231.69"/>
</g>
<!-- n18 -->
<g id="node18" class="node">
<title>n18</title>
<polygon fill="none" stroke="black" points="563.28,-152.5 535.63,-134.5 563.28,-116.5 590.93,-134.5 563.28,-152.5"/>
<text text-anchor="middle" x="563.28" y="-130.8" font-family="Times,serif" font-size="14.00">l7</text>
</g>
<!-- n18&#45;&gt;c39 -->
<g id="edge36" class="edge">
<title>n18:e&#45;&gt;c39:w</title>
<path fill="none" stroke="black" d="M590.86,-134.5C602.9,-134.5 608.1,-136.19 616.72,-137.03"/>
<polygon fill="black" stroke="black" points="616.71,-140.53 626.86,-137.5 617.03,-133.54 616.71,-140.53"/>
</g>
<!-- n19 -->
<g id="node19" class="node">
<title>n19</title>
<polygon fill="none" stroke="black" points="247.84,-634.04 247.84,-648.96 228.43,-659.5 200.99,-659.5 181.58,-648.96 181.58,-634.04 200.99,-623.5 228.43,-623.5 247.84,-634.04"/>
<text text-anchor="middle" x="214.71" y="-637.8" font-family="Times,serif" font-size="14.00">load</text>
</g>
<!-- c30 -->
<g id="node21" class="node">
<title>c30</title>
<polygon fill="none" stroke="black" points="326.71,-503.5 326.71,-687.5 499.71,-687.5 499.71,-503.5 326.71,-503.5"/>
<text text-anchor="middle" x="345.21" y="-637.8" font-family="Times,serif" font-size="14.00">in</text>
<polyline fill="none" stroke="black" points="326.71,-595.5 363.71,-595.5 "/>
<text text-anchor="middle" x="345.21" y="-545.8" font-family="Times,serif" font-size="14.00">sel</text>
<polyline fill="none" stroke="black" points="363.71,-503.5 363.71,-687.5 "/>
<text text-anchor="middle" x="418.71" y="-599.3" font-family="Times,serif" font-size="14.00">dmux8way_0</text>
<text text-anchor="middle" x="418.71" y="-584.3" font-family="Times,serif" font-size="14.00">DMux8Way</text>
<polyline fill="none" stroke="black" points="473.71,-503.5 473.71,-687.5 "/>
<text text-anchor="middle" x="486.71" y="-672.3" font-family="Times,serif" font-size="14.00">a</text>
<polyline fill="none" stroke="black" points="473.71,-664.5 499.71,-664.5 "/>
<text text-anchor="middle" x="486.71" y="-649.3" font-family="Times,serif" font-size="14.00">b</text>
<polyline fill="none" stroke="black" points="473.71,-641.5 499.71,-641.5 "/>
<text text-anchor="middle" x="486.71" y="-626.3" font-family="Times,serif" font-size="14.00">c</text>
<polyline fill="none" stroke="black" points="473.71,-618.5 499.71,-618.5 "/>
<text text-anchor="middle" x="486.71" y="-603.3" font-family="Times,serif" font-size="14.00">d</text>
<polyline fill="none" stroke="black" points="473.71,-595.5 499.71,-595.5 "/>
<text text-anchor="middle" x="486.71" y="-580.3" font-family="Times,serif" font-size="14.00">e</text>
<polyline fill="none" stroke="black" points="473.71,-572.5 499.71,-572.5 "/>
<text text-anchor="middle" x="486.71" y="-557.3" font-family="Times,serif" font-size="14.00">f</text>
<polyline fill="none" stroke="black" points="473.71,-549.5 499.71,-549.5 "/>
<text text-anchor="middle" x="486.71" y="-534.3" font-family="Times,serif" font-size="14.00">g</text>
<polyline fill="none" stroke="black" points="473.71,-526.5 499.71,-526.5 "/>
<text text-anchor="middle" x="486.71" y="-511.3" font-family="Times,serif" font-size="14.00">h</text>
</g>
<!-- n19&#45;&gt;c30 -->
<g id="edge37" class="edge">
<title>n19:e&#45;&gt;c30:w</title>
<path fill="none" stroke="black" d="M248.71,-641.5C279.72,-641.5 289.93,-641.5 316.55,-641.5"/>
<polygon fill="black" stroke="black" points="316.71,-645 326.71,-641.5 316.71,-638 316.71,-645"/>
</g>
<!-- n20 -->
<g id="node20" class="node">
<title>n20</title>
<polygon fill="none" stroke="black" points="1318.8,-422.04 1318.8,-436.96 1302.23,-447.5 1278.81,-447.5 1262.24,-436.96 1262.24,-422.04 1278.81,-411.5 1302.23,-411.5 1318.8,-422.04"/>
<text text-anchor="middle" x="1290.52" y="-425.8" font-family="Times,serif" font-size="14.00">out</text>
</g>
<!-- c30&#45;&gt;n11 -->
<g id="edge21" class="edge">
<title>c30:e&#45;&gt;n11:w</title>
<path fill="none" stroke="black" d="M499.71,-676.5C550.47,-676.5 491.11,-777.63 525.52,-792.65"/>
<polygon fill="black" stroke="black" points="525.24,-796.15 535.71,-794.5 526.5,-789.27 525.24,-796.15"/>
</g>
<!-- c30&#45;&gt;n12 -->
<g id="edge23" class="edge">
<title>c30:e&#45;&gt;n12:w</title>
<path fill="none" stroke="black" d="M499.71,-653.5C522.51,-653.5 513.23,-688.38 526,-699.28"/>
<polygon fill="black" stroke="black" points="525.12,-702.68 535.71,-702.5 527.32,-696.03 525.12,-702.68"/>
</g>
<!-- c30&#45;&gt;n13 -->
<g id="edge25" class="edge">
<title>c30:e&#45;&gt;n13:w</title>
<path fill="none" stroke="black" d="M499.71,-630.5C513.55,-630.5 516.81,-641.27 525.86,-646.15"/>
<polygon fill="black" stroke="black" points="525.17,-649.58 535.71,-648.5 526.8,-642.77 525.17,-649.58"/>
</g>
<!-- c30&#45;&gt;n14 -->
<g id="edge27" class="edge">
<title>c30:e&#45;&gt;n14:w</title>
<path fill="none" stroke="black" d="M499.71,-607.5C545,-607.5 495.9,-519.02 525.71,-504.5"/>
<polygon fill="black" stroke="black" points="526.59,-507.9 535.71,-502.5 525.22,-501.03 526.59,-507.9"/>
</g>
<!-- c30&#45;&gt;n15 -->
<g id="edge29" class="edge">
<title>c30:e&#45;&gt;n15:w</title>
<path fill="none" stroke="black" d="M499.71,-583.5C574.41,-583.5 468.52,-426.98 525.59,-411.7"/>
<polygon fill="black" stroke="black" points="526.19,-415.15 535.71,-410.5 525.37,-408.2 526.19,-415.15"/>
</g>
<!-- c30&#45;&gt;n16 -->
<g id="edge31" class="edge">
<title>c30:e&#45;&gt;n16:w</title>
<path fill="none" stroke="black" d="M499.71,-560.5C550.26,-560.5 490.94,-351.33 526.04,-321.92"/>
<polygon fill="black" stroke="black" points="527.45,-325.13 535.71,-318.5 525.12,-318.54 527.45,-325.13"/>
</g>
<!-- c30&#45;&gt;n17 -->
<g id="edge33" class="edge">
<title>c30:e&#45;&gt;n17:w</title>
<path fill="none" stroke="black" d="M499.71,-537.5C565.48,-537.5 476.9,-259.59 525.79,-229.19"/>
<polygon fill="black" stroke="black" points="526.97,-232.49 535.71,-226.5 525.14,-225.74 526.97,-232.49"/>
</g>
<!-- c30&#45;&gt;n18 -->
<g id="edge35" class="edge">
<title>c30:e&#45;&gt;n18:w</title>
<path fill="none" stroke="black" d="M499.71,-514.5C580.72,-514.5 462.45,-167.87 525.56,-136.73"/>
<polygon fill="black" stroke="black" points="526.69,-140.07 535.71,-134.5 525.19,-133.23 526.69,-140.07"/>
</g>
<!-- x0&#45;&gt;c30 -->
<g id="edge1" class="edge">
<title>x0:e&#45;&gt;c30:w</title>
<path fill="none" stroke="black" stroke-width="3" d="M302.4,-534.97C307.1,-538.16 310.33,-542.86 315.04,-546.04"/>
<polygon fill="none" stroke="black" stroke-width="3" points="302.21,-534.92 295.32,-537.04 290.71,-531.5 297.6,-529.37 302.21,-534.92"/>
<polygon fill="none" stroke="black" stroke-width="3" points="315.2,-546.09 322.09,-543.96 326.71,-549.5 319.82,-551.63 315.2,-546.09"/>
</g>
<!-- c31&#45;&gt;n20 -->
<g id="edge40" class="edge">
<title>c31:e&#45;&gt;n20:w</title>
<path fill="none" stroke="black" stroke-width="3" d="M1226.38,-429.5C1238.38,-429.5 1243.63,-429.5 1252.25,-429.5"/>
<polygon fill="black" stroke="black" stroke-width="3" points="1252.38,-433 1262.38,-429.5 1252.38,-426 1252.38,-433"/>
</g>
<!-- x1&#45;&gt;c31 -->
<g id="edge2" class="edge">
<title>x1:e&#45;&gt;c31:w</title>
<path fill="none" stroke="black" stroke-width="3" d="M502.25,-41.46C724.64,-39.88 839.42,3.4 994.38,-161.5 1045.85,-216.27 961.56,-323.9 1018.12,-336.32"/>
<polygon fill="none" stroke="black" stroke-width="3" points="502.21,-41.46 496.22,-45.48 490.21,-41.5 496.2,-37.48 502.21,-41.46"/>
<polygon fill="none" stroke="black" stroke-width="3" points="1018.43,-336.35 1024.79,-332.94 1030.38,-337.5 1024.02,-340.91 1018.43,-336.35"/>
</g>
<!-- c32&#45;&gt;n1 -->
<g id="edge11" class="edge">
<title>c32:e&#45;&gt;n1:w</title>
<path fill="none" stroke="black" stroke-width="3" d="M827.86,-807.5C847.94,-807.5 842.82,-779.38 854.24,-769.72"/>
<polygon fill="black" stroke="black" stroke-width="3" points="855.49,-772.99 863.86,-766.5 853.27,-766.35 855.49,-772.99"/>
</g>
<!-- x2&#45;&gt;c32 -->
<g id="edge3" class="edge">
<title>x2:e&#45;&gt;c32:w</title>
<path fill="none" stroke="black" stroke-width="3" d="M498.3,-815.93C511.36,-816.96 518.33,-819.59 535.71,-821.5 571.75,-825.46 583.6,-829.51 614.52,-830.34"/>
<polygon fill="none" stroke="black" stroke-width="3" points="498.2,-815.93 492.06,-819.71 486.21,-815.5 492.35,-811.72 498.2,-815.93"/>
<polygon fill="none" stroke="black" stroke-width="3" points="614.86,-830.35 620.91,-826.42 626.86,-830.5 620.81,-834.42 614.86,-830.35"/>
</g>
<!-- c33&#45;&gt;n2 -->
<g id="edge38" class="edge">
<title>c33:e&#45;&gt;n2:w</title>
<path fill="none" stroke="black" stroke-width="3" d="M827.86,-709.5C846.94,-709.5 843.29,-683.93 854.2,-674.74"/>
<polygon fill="black" stroke="black" stroke-width="3" points="855.49,-678 863.86,-671.5 853.27,-671.36 855.49,-678"/>
</g>
<!-- x3&#45;&gt;c33 -->
<g id="edge4" class="edge">
<title>x3:e&#45;&gt;c33:w</title>
<path fill="none" stroke="black" stroke-width="3" d="M498.41,-736.45C547.29,-736.01 565.88,-732.99 614.84,-732.55"/>
<polygon fill="none" stroke="black" stroke-width="3" points="498.21,-736.45 492.23,-740.47 486.21,-736.5 492.19,-732.47 498.21,-736.45"/>
<polygon fill="none" stroke="black" stroke-width="3" points="614.86,-732.55 620.84,-728.53 626.86,-732.5 620.88,-736.53 614.86,-732.55"/>
</g>
<!-- c34&#45;&gt;n3 -->
<g id="edge41" class="edge">
<title>c34:e&#45;&gt;n3:w</title>
<path fill="none" stroke="black" stroke-width="3" d="M827.86,-605.5C843.43,-605.5 844.56,-589.31 854.03,-582.48"/>
<polygon fill="black" stroke="black" stroke-width="3" points="855.31,-585.75 863.86,-579.5 853.27,-579.06 855.31,-585.75"/>
</g>
<!-- x4&#45;&gt;c34 -->
<g id="edge5" class="edge">
<title>x4:e&#45;&gt;c34:w</title>
<path fill="none" stroke="black" stroke-width="3" d="M498.15,-467.97C535.79,-478.68 500.44,-545.52 535.71,-583.5 548.74,-597.53 588.94,-620.11 614.65,-626.66"/>
<polygon fill="none" stroke="black" stroke-width="3" points="498.12,-467.96 491.68,-471.2 486.21,-466.5 492.65,-463.26 498.12,-467.96"/>
<polygon fill="none" stroke="black" stroke-width="3" points="614.99,-626.71 621.52,-623.65 626.86,-628.5 620.33,-631.56 614.99,-626.71"/>
</g>
<!-- c35&#45;&gt;n4 -->
<g id="edge43" class="edge">
<title>c35:e&#45;&gt;n4:w</title>
<path fill="none" stroke="black" stroke-width="3" d="M827.86,-517.5C841.54,-517.5 845.01,-507.33 854.07,-502.72"/>
<polygon fill="black" stroke="black" stroke-width="3" points="854.88,-506.13 863.86,-500.5 853.33,-499.3 854.88,-506.13"/>
</g>
<!-- x5&#45;&gt;c35 -->
<g id="edge6" class="edge">
<title>x5:e&#45;&gt;c35:w</title>
<path fill="none" stroke="black" stroke-width="3" d="M497.23,-416.57C523.64,-430.98 586.99,-471.46 590.86,-475.5 610.13,-495.62 599,-528.06 614.89,-537.71"/>
<polygon fill="none" stroke="black" stroke-width="3" points="497.11,-416.51 489.99,-417.64 486.21,-411.5 493.33,-410.37 497.11,-416.51"/>
<polygon fill="none" stroke="black" stroke-width="3" points="615.17,-537.78 621.92,-535.24 626.86,-540.5 620.11,-543.03 615.17,-537.78"/>
</g>
<!-- c36&#45;&gt;n5 -->
<g id="edge45" class="edge">
<title>c36:e&#45;&gt;n5:w</title>
<path fill="none" stroke="black" stroke-width="3" d="M827.86,-429.5C839.86,-429.5 845.11,-429.5 853.73,-429.5"/>
<polygon fill="black" stroke="black" stroke-width="3" points="853.86,-433 863.86,-429.5 853.86,-426 853.86,-433"/>
</g>
<!-- x6&#45;&gt;c36 -->
<g id="edge7" class="edge">
<title>x6:e&#45;&gt;c36:w</title>
<path fill="none" stroke="black" stroke-width="3" d="M299.75,-364.36C426.09,-361.31 481.09,-312.17 590.86,-383.5 615.56,-399.55 599.21,-438.3 615.18,-449.45"/>
<polygon fill="none" stroke="black" stroke-width="3" points="299.71,-364.36 293.76,-368.43 287.71,-364.5 293.66,-360.43 299.71,-364.36"/>
<polygon fill="none" stroke="black" stroke-width="3" points="615.25,-449.47 622.06,-447.11 626.86,-452.5 620.04,-454.86 615.25,-449.47"/>
</g>
<!-- c37&#45;&gt;n6 -->
<g id="edge47" class="edge">
<title>c37:e&#45;&gt;n6:w</title>
<path fill="none" stroke="black" stroke-width="3" d="M827.86,-341.5C841.54,-341.5 845.01,-351.67 854.07,-356.28"/>
<polygon fill="black" stroke="black" stroke-width="3" points="853.33,-359.7 863.86,-358.5 854.88,-352.87 853.33,-359.7"/>
</g>
<!-- x7&#45;&gt;c37 -->
<g id="edge8" class="edge">
<title>x7:e&#45;&gt;c37:w</title>
<path fill="none" stroke="black" stroke-width="3" d="M299.73,-290.31C425.78,-286.37 480.02,-222.32 590.86,-291.5 617.23,-307.96 598.15,-350.04 615.22,-361.55"/>
<polygon fill="none" stroke="black" stroke-width="3" points="299.71,-290.31 293.77,-294.41 287.71,-290.5 293.65,-286.41 299.71,-290.31"/>
<polygon fill="none" stroke="black" stroke-width="3" points="615.23,-361.55 622.02,-359.15 626.86,-364.5 620.06,-366.9 615.23,-361.55"/>
</g>
<!-- c38&#45;&gt;n7 -->
<g id="edge49" class="edge">
<title>c38:e&#45;&gt;n7:w</title>
<path fill="none" stroke="black" stroke-width="3" d="M827.86,-251.5C841.54,-251.5 845.01,-261.67 854.07,-266.28"/>
<polygon fill="black" stroke="black" stroke-width="3" points="853.33,-269.7 863.86,-268.5 854.88,-262.87 853.33,-269.7"/>
</g>
<!-- x8&#45;&gt;c38 -->
<g id="edge9" class="edge">
<title>x8:e&#45;&gt;c38:w</title>
<path fill="none" stroke="black" stroke-width="3" d="M299.77,-226.24C426.27,-220.66 479.84,-129.64 590.86,-199.5 617.75,-216.42 597.7,-259.65 615,-271.47"/>
<polygon fill="none" stroke="black" stroke-width="3" points="299.71,-226.24 293.8,-230.37 287.71,-226.5 293.62,-222.37 299.71,-226.24"/>
<polygon fill="none" stroke="black" stroke-width="3" points="615.23,-271.53 622.04,-269.14 626.86,-274.5 620.06,-276.89 615.23,-271.53"/>
</g>
<!-- c39&#45;&gt;n8 -->
<g id="edge51" class="edge">
<title>c39:e&#45;&gt;n8:w</title>
<path fill="none" stroke="black" stroke-width="3" d="M827.86,-160.5C844.01,-160.5 844.41,-178.28 854.16,-185.5"/>
<polygon fill="black" stroke="black" stroke-width="3" points="853.27,-188.89 863.86,-188.5 855.34,-182.2 853.27,-188.89"/>
</g>
<!-- x9&#45;&gt;c39 -->
<g id="edge10" class="edge">
<title>x9:e&#45;&gt;c39:w</title>
<path fill="none" stroke="black" stroke-width="3" d="M299.86,-153.18C427.17,-146.48 479.19,-36.83 590.86,-107.5 618,-124.68 597.48,-168.46 614.89,-180.43"/>
<polygon fill="none" stroke="black" stroke-width="3" points="299.71,-153.19 293.81,-157.34 287.71,-153.5 293.6,-149.34 299.71,-153.19"/>
<polygon fill="none" stroke="black" stroke-width="3" points="615.23,-180.52 622.04,-178.14 626.86,-183.5 620.05,-185.89 615.23,-180.52"/>
</g>
</g>
</svg>
