<?xml version="1.0" encoding="UTF-8" standalone="no"?>
<!DOCTYPE svg PUBLIC "-//W3C//DTD SVG 1.1//EN"
 "http://www.w3.org/Graphics/SVG/1.1/DTD/svg11.dtd">
<!-- Generated by graphviz version 2.43.0 (0)
 -->
<!-- Title: Xor Pages: 1 -->
<svg width="1854pt" height="302pt"
 viewBox="0.00 0.00 1854.01 301.50" xmlns="http://www.w3.org/2000/svg" xmlns:xlink="http://www.w3.org/1999/xlink">
<g id="graph0" class="graph" transform="scale(1 1) rotate(0) translate(4 297.5)">
<title>Xor</title>
<polygon fill="white" stroke="transparent" points="-4,4 -4,-297.5 1850.01,-297.5 1850.01,4 -4,4"/>
<text text-anchor="middle" x="923.01" y="-7.8" font-family="Times,serif" font-size="14.00">Xor</text>
<!-- n1 -->
<g id="node1" class="node">
<title>n1</title>
<polygon fill="none" stroke="black" points="54,-210.54 54,-225.46 38.18,-236 15.82,-236 0,-225.46 0,-210.54 15.82,-200 38.18,-200 54,-210.54"/>
<text text-anchor="middle" x="27" y="-214.3" font-family="Times,serif" font-size="14.00">a</text>
</g>
<!-- c18 -->
<g id="node17" class="node">
<title>c18</title>
<polygon fill="none" stroke="black" points="103.5,-135 103.5,-181 237.5,-181 237.5,-135 103.5,-135"/>
<text text-anchor="middle" x="116.5" y="-165.8" font-family="Times,serif" font-size="14.00">a</text>
<polyline fill="none" stroke="black" points="103.5,-158 129.5,-158 "/>
<text text-anchor="middle" x="116.5" y="-142.8" font-family="Times,serif" font-size="14.00">b</text>
<polyline fill="none" stroke="black" points="129.5,-135 129.5,-181 "/>
<text text-anchor="middle" x="163.5" y="-161.8" font-family="Times,serif" font-size="14.00">nand_1</text>
<text text-anchor="middle" x="163.5" y="-146.8" font-family="Times,serif" font-size="14.00">Nand</text>
<polyline fill="none" stroke="black" points="197.5,-135 197.5,-181 "/>
<text text-anchor="middle" x="217.5" y="-154.3" font-family="Times,serif" font-size="14.00">out</text>
</g>
<!-- n1&#45;&gt;c18 -->
<g id="edge1" class="edge">
<title>n1:e&#45;&gt;c18:w</title>
<path fill="none" stroke="black" d="M54,-218C80.3,-218 74.65,-181.9 92.47,-172.32"/>
<polygon fill="black" stroke="black" points="93.54,-175.66 102.5,-170 91.97,-168.84 93.54,-175.66"/>
</g>
<!-- c20 -->
<g id="node19" class="node">
<title>c20</title>
<polygon fill="none" stroke="black" points="90,-255 90,-293 251,-293 251,-255 90,-255"/>
<text text-anchor="middle" x="105" y="-270.3" font-family="Times,serif" font-size="14.00">in</text>
<polyline fill="none" stroke="black" points="120,-255 120,-293 "/>
<text text-anchor="middle" x="165.5" y="-277.8" font-family="Times,serif" font-size="14.00">or_0.not_0</text>
<text text-anchor="middle" x="165.5" y="-262.8" font-family="Times,serif" font-size="14.00">Not</text>
<polyline fill="none" stroke="black" points="211,-255 211,-293 "/>
<text text-anchor="middle" x="231" y="-270.3" font-family="Times,serif" font-size="14.00">out</text>
</g>
<!-- n1&#45;&gt;c20 -->
<g id="edge2" class="edge">
<title>n1:e&#45;&gt;c20:w</title>
<path fill="none" stroke="black" d="M54,-218C79.43,-218 65.89,-259.36 80.35,-270.99"/>
<polygon fill="black" stroke="black" points="79.41,-274.36 90,-274 81.5,-267.68 79.41,-274.36"/>
</g>
<!-- x2 -->
<g id="node23" class="node">
<title>x2</title>
<path fill="none" stroke="black" d="M185.5,-236C185.5,-236 155.5,-236 155.5,-236 149.5,-236 143.5,-230 143.5,-224 143.5,-224 143.5,-212 143.5,-212 143.5,-206 149.5,-200 155.5,-200 155.5,-200 185.5,-200 185.5,-200 191.5,-200 197.5,-206 197.5,-212 197.5,-212 197.5,-224 197.5,-224 197.5,-230 191.5,-236 185.5,-236"/>
<text text-anchor="middle" x="170.5" y="-214.3" font-family="Times,serif" font-size="14.00">BUF</text>
</g>
<!-- n1&#45;&gt;x2 -->
<g id="edge3" class="edge">
<title>n1:e&#45;&gt;x2:w</title>
<path fill="none" stroke="black" d="M54,-218C89.65,-218 101.06,-218 132.17,-218"/>
<polygon fill="black" stroke="black" points="132.5,-221.5 142.5,-218 132.5,-214.5 132.5,-221.5"/>
</g>
<!-- n2 -->
<g id="node2" class="node">
<title>n2</title>
<polygon fill="none" stroke="black" points="725.62,-105 675.01,-87 725.62,-69 776.23,-87 725.62,-105"/>
<text text-anchor="middle" x="725.62" y="-83.3" font-family="Times,serif" font-size="14.00">aNdb</text>
</g>
<!-- n3 -->
<g id="node3" class="node">
<title>n3</title>
<polygon fill="none" stroke="black" points="1152.26,-277 1111.03,-259 1152.26,-241 1193.48,-259 1152.26,-277"/>
<text text-anchor="middle" x="1152.26" y="-255.3" font-family="Times,serif" font-size="14.00">aOb</text>
</g>
<!-- n4 -->
<g id="node4" class="node">
<title>n4</title>
<polygon fill="none" stroke="black" points="725.62,-223 660.6,-205 725.62,-187 790.64,-205 725.62,-223"/>
<text text-anchor="middle" x="725.62" y="-201.3" font-family="Times,serif" font-size="14.00">and_2.a</text>
</g>
<!-- c15 -->
<g id="node15" class="node">
<title>c15</title>
<polygon fill="none" stroke="black" points="826.88,-122 826.88,-168 1006.88,-168 1006.88,-122 826.88,-122"/>
<text text-anchor="middle" x="839.88" y="-152.8" font-family="Times,serif" font-size="14.00">a</text>
<polyline fill="none" stroke="black" points="826.88,-145 852.88,-145 "/>
<text text-anchor="middle" x="839.88" y="-129.8" font-family="Times,serif" font-size="14.00">b</text>
<polyline fill="none" stroke="black" points="852.88,-122 852.88,-168 "/>
<text text-anchor="middle" x="909.88" y="-148.8" font-family="Times,serif" font-size="14.00">and_2.nand_0</text>
<text text-anchor="middle" x="909.88" y="-133.8" font-family="Times,serif" font-size="14.00">Nand</text>
<polyline fill="none" stroke="black" points="966.88,-122 966.88,-168 "/>
<text text-anchor="middle" x="986.88" y="-141.3" font-family="Times,serif" font-size="14.00">out</text>
</g>
<!-- n4&#45;&gt;c15 -->
<g id="edge14" class="edge">
<title>n4:e&#45;&gt;c15:w</title>
<path fill="none" stroke="black" d="M790.88,-205C813.38,-205 804.55,-170.83 817.27,-160.15"/>
<polygon fill="black" stroke="black" points="818.47,-163.44 826.88,-157 816.29,-156.79 818.47,-163.44"/>
</g>
<!-- x0 -->
<g id="node21" class="node">
<title>x0</title>
<path fill="none" stroke="black" d="M931.88,-223C931.88,-223 901.88,-223 901.88,-223 895.88,-223 889.88,-217 889.88,-211 889.88,-211 889.88,-199 889.88,-199 889.88,-193 895.88,-187 901.88,-187 901.88,-187 931.88,-187 931.88,-187 937.88,-187 943.88,-193 943.88,-199 943.88,-199 943.88,-211 943.88,-211 943.88,-217 937.88,-223 931.88,-223"/>
<text text-anchor="middle" x="916.88" y="-201.3" font-family="Times,serif" font-size="14.00">BUF</text>
</g>
<!-- n4&#45;&gt;x0 -->
<g id="edge15" class="edge">
<title>n4:e&#45;&gt;x0:w</title>
<path fill="none" stroke="black" d="M790.88,-205C830.86,-205 843.32,-205 878.78,-205"/>
<polygon fill="black" stroke="black" points="878.88,-208.5 888.88,-205 878.88,-201.5 878.88,-208.5"/>
</g>
<!-- x4 -->
<g id="node25" class="node">
<title>x4</title>
<path fill="none" stroke="black" d="M931.88,-277C931.88,-277 901.88,-277 901.88,-277 895.88,-277 889.88,-271 889.88,-265 889.88,-265 889.88,-253 889.88,-253 889.88,-247 895.88,-241 901.88,-241 901.88,-241 931.88,-241 931.88,-241 937.88,-241 943.88,-247 943.88,-253 943.88,-253 943.88,-265 943.88,-265 943.88,-271 937.88,-277 931.88,-277"/>
<text text-anchor="middle" x="916.88" y="-255.3" font-family="Times,serif" font-size="14.00">BUF</text>
</g>
<!-- n4&#45;&gt;x4 -->
<g id="edge16" class="edge">
<title>n4:e&#45;&gt;x4:w</title>
<path fill="none" stroke="black" d="M790.88,-205C810.88,-205 809.59,-221.94 826.88,-232 849.61,-245.23 857.02,-255.98 878.65,-258.46"/>
<polygon fill="black" stroke="black" points="878.71,-261.97 888.88,-259 879.08,-254.98 878.71,-261.97"/>
</g>
<!-- n5 -->
<g id="node5" class="node">
<title>n5</title>
<polygon fill="none" stroke="black" points="1152.26,-163 1043,-145 1152.26,-127 1261.52,-145 1152.26,-163"/>
<text text-anchor="middle" x="1152.26" y="-141.3" font-family="Times,serif" font-size="14.00">and_2.aNandb</text>
</g>
<!-- c17 -->
<g id="node16" class="node">
<title>c17</title>
<polygon fill="none" stroke="black" points="1297.64,-126 1297.64,-164 1469.64,-164 1469.64,-126 1297.64,-126"/>
<text text-anchor="middle" x="1312.64" y="-141.3" font-family="Times,serif" font-size="14.00">in</text>
<polyline fill="none" stroke="black" points="1327.64,-126 1327.64,-164 "/>
<text text-anchor="middle" x="1378.64" y="-148.8" font-family="Times,serif" font-size="14.00">and_2.not_1</text>
<text text-anchor="middle" x="1378.64" y="-133.8" font-family="Times,serif" font-size="14.00">Not</text>
<polyline fill="none" stroke="black" points="1429.64,-126 1429.64,-164 "/>
<text text-anchor="middle" x="1449.64" y="-141.3" font-family="Times,serif" font-size="14.00">out</text>
</g>
<!-- n5&#45;&gt;c17 -->
<g id="edge18" class="edge">
<title>n5:e&#45;&gt;c17:w</title>
<path fill="none" stroke="black" d="M1261.64,-145C1273.64,-145 1278.89,-145 1287.51,-145"/>
<polygon fill="black" stroke="black" points="1287.64,-148.5 1297.64,-145 1287.64,-141.5 1287.64,-148.5"/>
</g>
<!-- n6 -->
<g id="node6" class="node">
<title>n6</title>
<polygon fill="none" stroke="black" points="353.18,-128 286.82,-110 353.18,-92 419.54,-110 353.18,-128"/>
<text text-anchor="middle" x="353.18" y="-106.3" font-family="Times,serif" font-size="14.00">and_2.b</text>
</g>
<!-- n6&#45;&gt;c15 -->
<g id="edge20" class="edge">
<title>n6:e&#45;&gt;c15:w</title>
<path fill="none" stroke="black" d="M419.36,-110C435.46,-110 439.31,-112.7 455.36,-114 616.77,-127.08 659.79,-132.77 816.86,-132.99"/>
<polygon fill="black" stroke="black" points="816.88,-136.49 826.88,-133 816.88,-129.49 816.88,-136.49"/>
</g>
<!-- x3 -->
<g id="node24" class="node">
<title>x3</title>
<path fill="none" stroke="black" d="M554.86,-105C554.86,-105 524.86,-105 524.86,-105 518.86,-105 512.86,-99 512.86,-93 512.86,-93 512.86,-81 512.86,-81 512.86,-75 518.86,-69 524.86,-69 524.86,-69 554.86,-69 554.86,-69 560.86,-69 566.86,-75 566.86,-81 566.86,-81 566.86,-93 566.86,-93 566.86,-99 560.86,-105 554.86,-105"/>
<text text-anchor="middle" x="539.86" y="-83.3" font-family="Times,serif" font-size="14.00">BUF</text>
</g>
<!-- n6&#45;&gt;x3 -->
<g id="edge21" class="edge">
<title>n6:e&#45;&gt;x3:w</title>
<path fill="none" stroke="black" d="M419.36,-110C458.08,-110 467.9,-90.78 501.66,-87.48"/>
<polygon fill="black" stroke="black" points="502.03,-90.97 511.86,-87 501.71,-83.97 502.03,-90.97"/>
</g>
<!-- n7 -->
<g id="node7" class="node">
<title>n7</title>
<polygon fill="none" stroke="black" points="1584.69,-163 1505.59,-145 1584.69,-127 1663.78,-145 1584.69,-163"/>
<text text-anchor="middle" x="1584.69" y="-141.3" font-family="Times,serif" font-size="14.00">and_2.out</text>
</g>
<!-- x5 -->
<g id="node26" class="node">
<title>x5</title>
<path fill="none" stroke="black" d="M1741.73,-163C1741.73,-163 1711.73,-163 1711.73,-163 1705.73,-163 1699.73,-157 1699.73,-151 1699.73,-151 1699.73,-139 1699.73,-139 1699.73,-133 1705.73,-127 1711.73,-127 1711.73,-127 1741.73,-127 1741.73,-127 1747.73,-127 1753.73,-133 1753.73,-139 1753.73,-139 1753.73,-151 1753.73,-151 1753.73,-157 1747.73,-163 1741.73,-163"/>
<text text-anchor="middle" x="1726.73" y="-141.3" font-family="Times,serif" font-size="14.00">BUF</text>
</g>
<!-- n7&#45;&gt;x5 -->
<g id="edge23" class="edge">
<title>n7:e&#45;&gt;x5:w</title>
<path fill="none" stroke="black" d="M1663.73,-145C1675.73,-145 1680.98,-145 1689.61,-145"/>
<polygon fill="black" stroke="black" points="1689.73,-148.5 1699.73,-145 1689.73,-141.5 1689.73,-148.5"/>
</g>
<!-- n8 -->
<g id="node8" class="node">
<title>n8</title>
<polygon fill="none" stroke="black" points="54,-89.54 54,-104.46 38.18,-115 15.82,-115 0,-104.46 0,-89.54 15.82,-79 38.18,-79 54,-89.54"/>
<text text-anchor="middle" x="27" y="-93.3" font-family="Times,serif" font-size="14.00">b</text>
</g>
<!-- n8&#45;&gt;c18 -->
<g id="edge24" class="edge">
<title>n8:e&#45;&gt;c18:w</title>
<path fill="none" stroke="black" d="M54,-97C80.57,-97 74.49,-133.85 92.39,-143.64"/>
<polygon fill="black" stroke="black" points="91.97,-147.13 102.5,-146 93.56,-140.32 91.97,-147.13"/>
</g>
<!-- c21 -->
<g id="node20" class="node">
<title>c21</title>
<polygon fill="none" stroke="black" points="90,-78 90,-116 251,-116 251,-78 90,-78"/>
<text text-anchor="middle" x="105" y="-93.3" font-family="Times,serif" font-size="14.00">in</text>
<polyline fill="none" stroke="black" points="120,-78 120,-116 "/>
<text text-anchor="middle" x="165.5" y="-100.8" font-family="Times,serif" font-size="14.00">or_0.not_1</text>
<text text-anchor="middle" x="165.5" y="-85.8" font-family="Times,serif" font-size="14.00">Not</text>
<polyline fill="none" stroke="black" points="211,-78 211,-116 "/>
<text text-anchor="middle" x="231" y="-93.3" font-family="Times,serif" font-size="14.00">out</text>
</g>
<!-- n8&#45;&gt;c21 -->
<g id="edge25" class="edge">
<title>n8:e&#45;&gt;c21:w</title>
<path fill="none" stroke="black" d="M54,-97C66,-97 71.25,-97 79.88,-97"/>
<polygon fill="black" stroke="black" points="80,-100.5 90,-97 80,-93.5 80,-100.5"/>
</g>
<!-- x1 -->
<g id="node22" class="node">
<title>x1</title>
<path fill="none" stroke="black" d="M185.5,-59C185.5,-59 155.5,-59 155.5,-59 149.5,-59 143.5,-53 143.5,-47 143.5,-47 143.5,-35 143.5,-35 143.5,-29 149.5,-23 155.5,-23 155.5,-23 185.5,-23 185.5,-23 191.5,-23 197.5,-29 197.5,-35 197.5,-35 197.5,-47 197.5,-47 197.5,-53 191.5,-59 185.5,-59"/>
<text text-anchor="middle" x="170.5" y="-37.3" font-family="Times,serif" font-size="14.00">BUF</text>
</g>
<!-- n8&#45;&gt;x1 -->
<g id="edge26" class="edge">
<title>n8:e&#45;&gt;x1:w</title>
<path fill="none" stroke="black" d="M54,-97C74.27,-97 73,-80.03 90,-69 108.89,-56.74 114.5,-45.06 132.08,-41.86"/>
<polygon fill="black" stroke="black" points="132.82,-45.31 142.5,-41 132.25,-38.33 132.82,-45.31"/>
</g>
<!-- n9 -->
<g id="node9" class="node">
<title>n9</title>
<polygon fill="none" stroke="black" points="353.18,-236 297.88,-218 353.18,-200 408.48,-218 353.18,-236"/>
<text text-anchor="middle" x="353.18" y="-214.3" font-family="Times,serif" font-size="14.00">or_0.a</text>
</g>
<!-- n10 -->
<g id="node10" class="node">
<title>n10</title>
<polygon fill="none" stroke="black" points="353.18,-59 297.04,-41 353.18,-23 409.32,-41 353.18,-59"/>
<text text-anchor="middle" x="353.18" y="-37.3" font-family="Times,serif" font-size="14.00">or_0.b</text>
</g>
<!-- n11 -->
<g id="node11" class="node">
<title>n11</title>
<polygon fill="none" stroke="black" points="353.18,-291 289.84,-273 353.18,-255 416.52,-273 353.18,-291"/>
<text text-anchor="middle" x="353.18" y="-269.3" font-family="Times,serif" font-size="14.00">or_0.na</text>
</g>
<!-- c19 -->
<g id="node18" class="node">
<title>c19</title>
<polygon fill="none" stroke="black" points="455.36,-182 455.36,-228 624.36,-228 624.36,-182 455.36,-182"/>
<text text-anchor="middle" x="468.36" y="-212.8" font-family="Times,serif" font-size="14.00">a</text>
<polyline fill="none" stroke="black" points="455.36,-205 481.36,-205 "/>
<text text-anchor="middle" x="468.36" y="-189.8" font-family="Times,serif" font-size="14.00">b</text>
<polyline fill="none" stroke="black" points="481.36,-182 481.36,-228 "/>
<text text-anchor="middle" x="532.86" y="-208.8" font-family="Times,serif" font-size="14.00">or_0.nand_2</text>
<text text-anchor="middle" x="532.86" y="-193.8" font-family="Times,serif" font-size="14.00">Nand</text>
<polyline fill="none" stroke="black" points="584.36,-182 584.36,-228 "/>
<text text-anchor="middle" x="604.36" y="-201.3" font-family="Times,serif" font-size="14.00">out</text>
</g>
<!-- n11&#45;&gt;c19 -->
<g id="edge6" class="edge">
<title>n11:e&#45;&gt;c19:w</title>
<path fill="none" stroke="black" d="M417.18,-273C443.07,-273 430.41,-231.64 445.46,-220.01"/>
<polygon fill="black" stroke="black" points="446.81,-223.26 455.36,-217 444.77,-216.56 446.81,-223.26"/>
</g>
<!-- n12 -->
<g id="node12" class="node">
<title>n12</title>
<polygon fill="none" stroke="black" points="353.18,-182 289,-164 353.18,-146 417.36,-164 353.18,-182"/>
<text text-anchor="middle" x="353.18" y="-160.3" font-family="Times,serif" font-size="14.00">or_0.nb</text>
</g>
<!-- n12&#45;&gt;c19 -->
<g id="edge8" class="edge">
<title>n12:e&#45;&gt;c19:w</title>
<path fill="none" stroke="black" d="M418.18,-164C435.04,-164 435.27,-182.78 445.64,-190.11"/>
<polygon fill="black" stroke="black" points="444.78,-193.51 455.36,-193 446.77,-186.8 444.78,-193.51"/>
</g>
<!-- n13 -->
<g id="node13" class="node">
<title>n13</title>
<polygon fill="none" stroke="black" points="1152.26,-223 1083.39,-205 1152.26,-187 1221.13,-205 1152.26,-223"/>
<text text-anchor="middle" x="1152.26" y="-201.3" font-family="Times,serif" font-size="14.00">or_0.out</text>
</g>
<!-- n14 -->
<g id="node14" class="node">
<title>n14</title>
<polygon fill="none" stroke="black" points="1846.15,-137.54 1846.15,-152.46 1829.59,-163 1806.16,-163 1789.59,-152.46 1789.59,-137.54 1806.16,-127 1829.59,-127 1846.15,-137.54"/>
<text text-anchor="middle" x="1817.87" y="-141.3" font-family="Times,serif" font-size="14.00">out</text>
</g>
<!-- c15&#45;&gt;n5 -->
<g id="edge17" class="edge">
<title>c15:e&#45;&gt;n5:w</title>
<path fill="none" stroke="black" d="M1006.88,-145C1018.88,-145 1024.13,-145 1032.75,-145"/>
<polygon fill="black" stroke="black" points="1032.88,-148.5 1042.88,-145 1032.88,-141.5 1032.88,-148.5"/>
</g>
<!-- c17&#45;&gt;n7 -->
<g id="edge22" class="edge">
<title>c17:e&#45;&gt;n7:w</title>
<path fill="none" stroke="black" d="M1469.64,-145C1481.64,-145 1486.89,-145 1495.51,-145"/>
<polygon fill="black" stroke="black" points="1495.64,-148.5 1505.64,-145 1495.64,-141.5 1495.64,-148.5"/>
</g>
<!-- c18&#45;&gt;n6 -->
<g id="edge19" class="edge">
<title>c18:e&#45;&gt;n6:w</title>
<path fill="none" stroke="black" d="M238.5,-158C264.8,-158 259.15,-121.9 276.97,-112.32"/>
<polygon fill="black" stroke="black" points="278.04,-115.66 287,-110 276.47,-108.84 278.04,-115.66"/>
</g>
<!-- c19&#45;&gt;n4 -->
<g id="edge13" class="edge">
<title>c19:e&#45;&gt;n4:w</title>
<path fill="none" stroke="black" d="M624.36,-205C636.36,-205 641.61,-205 650.23,-205"/>
<polygon fill="black" stroke="black" points="650.36,-208.5 660.36,-205 650.36,-201.5 650.36,-208.5"/>
</g>
<!-- c20&#45;&gt;n11 -->
<g id="edge5" class="edge">
<title>c20:e&#45;&gt;n11:w</title>
<path fill="none" stroke="black" d="M251,-274C264,-274 269.52,-273.41 279.02,-273.14"/>
<polygon fill="black" stroke="black" points="279.23,-276.64 289.18,-273 279.13,-269.64 279.23,-276.64"/>
</g>
<!-- c21&#45;&gt;n12 -->
<g id="edge7" class="edge">
<title>c21:e&#45;&gt;n12:w</title>
<path fill="none" stroke="black" d="M251,-97C280.8,-97 260.84,-148.3 278.2,-161.12"/>
<polygon fill="black" stroke="black" points="277.6,-164.59 288.18,-164 279.54,-157.87 277.6,-164.59"/>
</g>
<!-- x0&#45;&gt;n13 -->
<g id="edge9" class="edge">
<title>x0:e&#45;&gt;n13:w</title>
<path fill="none" stroke="black" d="M944.88,-205C1002.36,-205 1019.26,-205 1071.98,-205"/>
<polygon fill="black" stroke="black" points="1072.26,-208.5 1082.26,-205 1072.26,-201.5 1072.26,-208.5"/>
</g>
<!-- x1&#45;&gt;n10 -->
<g id="edge4" class="edge">
<title>x1:e&#45;&gt;n10:w</title>
<path fill="none" stroke="black" d="M198.5,-41C238.35,-41 250.77,-41 286.12,-41"/>
<polygon fill="black" stroke="black" points="286.18,-44.5 296.18,-41 286.18,-37.5 286.18,-44.5"/>
</g>
<!-- x2&#45;&gt;n9 -->
<g id="edge27" class="edge">
<title>x2:e&#45;&gt;n9:w</title>
<path fill="none" stroke="black" d="M198.5,-218C238.76,-218 251.3,-218 287.01,-218"/>
<polygon fill="black" stroke="black" points="287.18,-221.5 297.18,-218 287.18,-214.5 287.18,-221.5"/>
</g>
<!-- x3&#45;&gt;n2 -->
<g id="edge11" class="edge">
<title>x3:e&#45;&gt;n2:w</title>
<path fill="none" stroke="black" d="M567.86,-87C611.19,-87 624.56,-87 663.21,-87"/>
<polygon fill="black" stroke="black" points="663.62,-90.5 673.62,-87 663.62,-83.5 663.62,-90.5"/>
</g>
<!-- x4&#45;&gt;n3 -->
<g id="edge12" class="edge">
<title>x4:e&#45;&gt;n3:w</title>
<path fill="none" stroke="black" d="M944.88,-259C1014.79,-259 1034.83,-259 1099.87,-259"/>
<polygon fill="black" stroke="black" points="1100.26,-262.5 1110.26,-259 1100.26,-255.5 1100.26,-262.5"/>
</g>
<!-- x5&#45;&gt;n14 -->
<g id="edge10" class="edge">
<title>x5:e&#45;&gt;n14:w</title>
<path fill="none" stroke="black" d="M1753.73,-145C1765.73,-145 1770.98,-145 1779.61,-145"/>
<polygon fill="black" stroke="black" points="1779.73,-148.5 1789.73,-145 1779.73,-141.5 1779.73,-148.5"/>
</g>
</g>
</svg>
