<?xml version="1.0" encoding="UTF-8" standalone="no"?>
<!DOCTYPE svg PUBLIC "-//W3C//DTD SVG 1.1//EN"
 "http://www.w3.org/Graphics/SVG/1.1/DTD/svg11.dtd">
<!-- Generated by graphviz version 2.43.0 (0)
 -->
<!-- Title: Xor Pages: 1 -->
<svg width="622pt" height="143pt"
 viewBox="0.00 0.00 622.39 143.00" xmlns="http://www.w3.org/2000/svg" xmlns:xlink="http://www.w3.org/1999/xlink">
<g id="graph0" class="graph" transform="scale(1 1) rotate(0) translate(4 139)">
<title>Xor</title>
<polygon fill="white" stroke="transparent" points="-4,4 -4,-139 618.39,-139 618.39,4 -4,4"/>
<text text-anchor="middle" x="307.19" y="-7.8" font-family="Times,serif" font-size="14.00">Xor</text>
<!-- n1 -->
<g id="node1" class="node">
<title>n1</title>
<polygon fill="none" stroke="black" points="54,-107.04 54,-121.96 38.18,-132.5 15.82,-132.5 0,-121.96 0,-107.04 15.82,-96.5 38.18,-96.5 54,-107.04"/>
<text text-anchor="middle" x="27" y="-110.8" font-family="Times,serif" font-size="14.00">a</text>
</g>
<!-- c7 -->
<g id="node7" class="node">
<title>c7</title>
<polygon fill="none" stroke="black" points="90,-23.5 90,-69.5 224,-69.5 224,-23.5 90,-23.5"/>
<text text-anchor="middle" x="103" y="-54.3" font-family="Times,serif" font-size="14.00">a</text>
<polyline fill="none" stroke="black" points="90,-46.5 116,-46.5 "/>
<text text-anchor="middle" x="103" y="-31.3" font-family="Times,serif" font-size="14.00">b</text>
<polyline fill="none" stroke="black" points="116,-23.5 116,-69.5 "/>
<text text-anchor="middle" x="150" y="-50.3" font-family="Times,serif" font-size="14.00">nand_1</text>
<text text-anchor="middle" x="150" y="-35.3" font-family="Times,serif" font-size="14.00">Nand</text>
<polyline fill="none" stroke="black" points="184,-23.5 184,-69.5 "/>
<text text-anchor="middle" x="204" y="-42.8" font-family="Times,serif" font-size="14.00">out</text>
</g>
<!-- n1&#45;&gt;c7 -->
<g id="edge1" class="edge">
<title>n1:e&#45;&gt;c7:w</title>
<path fill="none" stroke="black" d="M54,-114.5C79.43,-114.5 65.89,-73.14 80.35,-61.51"/>
<polygon fill="black" stroke="black" points="81.5,-64.82 90,-58.5 79.41,-58.14 81.5,-64.82"/>
</g>
<!-- c8 -->
<g id="node8" class="node">
<title>c8</title>
<polygon fill="none" stroke="black" points="100.5,-88.5 100.5,-134.5 213.5,-134.5 213.5,-88.5 100.5,-88.5"/>
<text text-anchor="middle" x="113.5" y="-119.3" font-family="Times,serif" font-size="14.00">a</text>
<polyline fill="none" stroke="black" points="100.5,-111.5 126.5,-111.5 "/>
<text text-anchor="middle" x="113.5" y="-96.3" font-family="Times,serif" font-size="14.00">b</text>
<polyline fill="none" stroke="black" points="126.5,-88.5 126.5,-134.5 "/>
<text text-anchor="middle" x="150" y="-115.3" font-family="Times,serif" font-size="14.00">or_0</text>
<text text-anchor="middle" x="150" y="-100.3" font-family="Times,serif" font-size="14.00">Or</text>
<polyline fill="none" stroke="black" points="173.5,-88.5 173.5,-134.5 "/>
<text text-anchor="middle" x="193.5" y="-107.8" font-family="Times,serif" font-size="14.00">out</text>
</g>
<!-- n1&#45;&gt;c8 -->
<g id="edge2" class="edge">
<title>n1:e&#45;&gt;c8:w</title>
<path fill="none" stroke="black" d="M54,-114.5C70.57,-114.5 76.46,-120.44 89.02,-122.67"/>
<polygon fill="black" stroke="black" points="88.74,-126.16 99,-123.5 89.32,-119.18 88.74,-126.16"/>
</g>
<!-- n2 -->
<g id="node2" class="node">
<title>n2</title>
<polygon fill="none" stroke="black" points="310.55,-69.5 259.95,-51.5 310.55,-33.5 361.16,-51.5 310.55,-69.5"/>
<text text-anchor="middle" x="310.55" y="-47.8" font-family="Times,serif" font-size="14.00">aNdb</text>
</g>
<!-- c6 -->
<g id="node6" class="node">
<title>c6</title>
<polygon fill="none" stroke="black" points="397.11,-56.5 397.11,-102.5 522.11,-102.5 522.11,-56.5 397.11,-56.5"/>
<text text-anchor="middle" x="410.11" y="-87.3" font-family="Times,serif" font-size="14.00">a</text>
<polyline fill="none" stroke="black" points="397.11,-79.5 423.11,-79.5 "/>
<text text-anchor="middle" x="410.11" y="-64.3" font-family="Times,serif" font-size="14.00">b</text>
<polyline fill="none" stroke="black" points="423.11,-56.5 423.11,-102.5 "/>
<text text-anchor="middle" x="452.61" y="-83.3" font-family="Times,serif" font-size="14.00">and_2</text>
<text text-anchor="middle" x="452.61" y="-68.3" font-family="Times,serif" font-size="14.00">And</text>
<polyline fill="none" stroke="black" points="482.11,-56.5 482.11,-102.5 "/>
<text text-anchor="middle" x="502.11" y="-75.8" font-family="Times,serif" font-size="14.00">out</text>
</g>
<!-- n2&#45;&gt;c6 -->
<g id="edge4" class="edge">
<title>n2:e&#45;&gt;c6:w</title>
<path fill="none" stroke="black" d="M361.11,-51.5C374.51,-51.5 378.23,-60.88 387.09,-65.28"/>
<polygon fill="black" stroke="black" points="386.59,-68.75 397.11,-67.5 388.1,-61.91 386.59,-68.75"/>
</g>
<!-- n3 -->
<g id="node3" class="node">
<title>n3</title>
<polygon fill="none" stroke="black" points="310.55,-126.5 269.33,-108.5 310.55,-90.5 351.78,-108.5 310.55,-126.5"/>
<text text-anchor="middle" x="310.55" y="-104.8" font-family="Times,serif" font-size="14.00">aOb</text>
</g>
<!-- n3&#45;&gt;c6 -->
<g id="edge6" class="edge">
<title>n3:e&#45;&gt;c6:w</title>
<path fill="none" stroke="black" d="M352.55,-108.5C369.77,-108.5 374.43,-97.28 386.94,-93.07"/>
<polygon fill="black" stroke="black" points="387.76,-96.48 397.11,-91.5 386.69,-89.57 387.76,-96.48"/>
</g>
<!-- n4 -->
<g id="node4" class="node">
<title>n4</title>
<polygon fill="none" stroke="black" points="54,-36.04 54,-50.96 38.18,-61.5 15.82,-61.5 0,-50.96 0,-36.04 15.82,-25.5 38.18,-25.5 54,-36.04"/>
<text text-anchor="middle" x="27" y="-39.8" font-family="Times,serif" font-size="14.00">b</text>
</g>
<!-- n4&#45;&gt;c7 -->
<g id="edge7" class="edge">
<title>n4:e&#45;&gt;c7:w</title>
<path fill="none" stroke="black" d="M54,-43.5C66.5,-43.5 71.26,-38.33 80.01,-35.83"/>
<polygon fill="black" stroke="black" points="80.55,-39.29 90,-34.5 79.63,-32.35 80.55,-39.29"/>
</g>
<!-- n4&#45;&gt;c8 -->
<g id="edge8" class="edge">
<title>n4:e&#45;&gt;c8:w</title>
<path fill="none" stroke="black" d="M54,-43.5C81.94,-43.5 70.99,-86.38 89.21,-97.09"/>
<polygon fill="black" stroke="black" points="88.45,-100.51 99,-99.5 90.12,-93.71 88.45,-100.51"/>
</g>
<!-- n5 -->
<g id="node5" class="node">
<title>n5</title>
<polygon fill="none" stroke="black" points="614.53,-72.04 614.53,-86.96 597.96,-97.5 574.53,-97.5 557.97,-86.96 557.97,-72.04 574.53,-61.5 597.96,-61.5 614.53,-72.04"/>
<text text-anchor="middle" x="586.25" y="-75.8" font-family="Times,serif" font-size="14.00">out</text>
</g>
<!-- c6&#45;&gt;n5 -->
<g id="edge9" class="edge">
<title>c6:e&#45;&gt;n5:w</title>
<path fill="none" stroke="black" d="M522.11,-79.5C534.11,-79.5 539.36,-79.5 547.98,-79.5"/>
<polygon fill="black" stroke="black" points="548.11,-83 558.11,-79.5 548.11,-76 548.11,-83"/>
</g>
<!-- c7&#45;&gt;n2 -->
<g id="edge3" class="edge">
<title>c7:e&#45;&gt;n2:w</title>
<path fill="none" stroke="black" d="M224,-46.5C236.12,-46.5 241.22,-49.31 249.83,-50.72"/>
<polygon fill="black" stroke="black" points="249.76,-54.22 260,-51.5 250.3,-47.24 249.76,-54.22"/>
</g>
<!-- c8&#45;&gt;n3 -->
<g id="edge5" class="edge">
<title>c8:e&#45;&gt;n3:w</title>
<path fill="none" stroke="black" d="M215,-111.5C234.93,-111.5 242.3,-109.4 258.11,-108.72"/>
<polygon fill="black" stroke="black" points="258.63,-112.21 268.55,-108.5 258.48,-105.21 258.63,-112.21"/>
</g>
</g>
</svg>
