<?xml version="1.0" encoding="UTF-8" standalone="no"?>
<!DOCTYPE svg PUBLIC "-//W3C//DTD SVG 1.1//EN"
 "http://www.w3.org/Graphics/SVG/1.1/DTD/svg11.dtd">
<!-- Generated by graphviz version 2.43.0 (0)
 -->
<!-- Title: DMux4Way Pages: 1 -->
<svg width="750pt" height="246pt"
 viewBox="0.00 0.00 750.02 245.50" xmlns="http://www.w3.org/2000/svg" xmlns:xlink="http://www.w3.org/1999/xlink">
<g id="graph0" class="graph" transform="scale(1 1) rotate(0) translate(4 241.5)">
<title>DMux4Way</title>
<polygon fill="white" stroke="transparent" points="-4,4 -4,-241.5 746.02,-241.5 746.02,4 -4,4"/>
<text text-anchor="middle" x="371.01" y="-7.8" font-family="Times,serif" font-size="14.00">DMux4Way</text>
<!-- n1 -->
<g id="node1" class="node">
<title>n1</title>
<polygon fill="none" stroke="black" points="447.01,-191 413.83,-173 447.01,-155 480.19,-173 447.01,-191"/>
<text text-anchor="middle" x="447.01" y="-169.3" font-family="Times,serif" font-size="14.00">Da</text>
</g>
<!-- c10 -->
<g id="node11" class="node">
<title>c10</title>
<polygon fill="none" stroke="black" points="517.02,-138 517.02,-184 652.02,-184 652.02,-138 517.02,-138"/>
<text text-anchor="middle" x="535.52" y="-168.8" font-family="Times,serif" font-size="14.00">in</text>
<polyline fill="none" stroke="black" points="517.02,-161 554.02,-161 "/>
<text text-anchor="middle" x="535.52" y="-145.8" font-family="Times,serif" font-size="14.00">sel</text>
<polyline fill="none" stroke="black" points="554.02,-138 554.02,-184 "/>
<text text-anchor="middle" x="590.02" y="-164.8" font-family="Times,serif" font-size="14.00">dmux_1</text>
<text text-anchor="middle" x="590.02" y="-149.8" font-family="Times,serif" font-size="14.00">DMux</text>
<polyline fill="none" stroke="black" points="626.02,-138 626.02,-184 "/>
<text text-anchor="middle" x="639.02" y="-168.8" font-family="Times,serif" font-size="14.00">a</text>
<polyline fill="none" stroke="black" points="626.02,-161 652.02,-161 "/>
<text text-anchor="middle" x="639.02" y="-145.8" font-family="Times,serif" font-size="14.00">b</text>
</g>
<!-- n1&#45;&gt;c10 -->
<g id="edge5" class="edge">
<title>n1:e&#45;&gt;c10:w</title>
<path fill="none" stroke="black" d="M481.01,-173C493.01,-173 498.26,-173 506.89,-173"/>
<polygon fill="black" stroke="black" points="507.02,-176.5 517.02,-173 507.02,-169.5 507.02,-176.5"/>
</g>
<!-- n2 -->
<g id="node2" class="node">
<title>n2</title>
<polygon fill="none" stroke="black" points="447.01,-136 412.99,-118 447.01,-100 481.03,-118 447.01,-136"/>
<text text-anchor="middle" x="447.01" y="-114.3" font-family="Times,serif" font-size="14.00">Db</text>
</g>
<!-- c11 -->
<g id="node13" class="node">
<title>c11</title>
<polygon fill="none" stroke="black" points="517.02,-60 517.02,-106 652.02,-106 652.02,-60 517.02,-60"/>
<text text-anchor="middle" x="535.52" y="-90.8" font-family="Times,serif" font-size="14.00">in</text>
<polyline fill="none" stroke="black" points="517.02,-83 554.02,-83 "/>
<text text-anchor="middle" x="535.52" y="-67.8" font-family="Times,serif" font-size="14.00">sel</text>
<polyline fill="none" stroke="black" points="554.02,-60 554.02,-106 "/>
<text text-anchor="middle" x="590.02" y="-86.8" font-family="Times,serif" font-size="14.00">dmux_2</text>
<text text-anchor="middle" x="590.02" y="-71.8" font-family="Times,serif" font-size="14.00">DMux</text>
<polyline fill="none" stroke="black" points="626.02,-60 626.02,-106 "/>
<text text-anchor="middle" x="639.02" y="-90.8" font-family="Times,serif" font-size="14.00">a</text>
<polyline fill="none" stroke="black" points="626.02,-83 652.02,-83 "/>
<text text-anchor="middle" x="639.02" y="-67.8" font-family="Times,serif" font-size="14.00">b</text>
</g>
<!-- n2&#45;&gt;c11 -->
<g id="edge7" class="edge">
<title>n2:e&#45;&gt;c11:w</title>
<path fill="none" stroke="black" d="M481.02,-118C495.85,-118 497.89,-103.96 507.13,-97.82"/>
<polygon fill="black" stroke="black" points="508.36,-101.11 517.02,-95 506.44,-94.38 508.36,-101.11"/>
</g>
<!-- n3 -->
<g id="node3" class="node">
<title>n3</title>
<polygon fill="none" stroke="black" points="742.02,-195.54 742.02,-210.46 726.2,-221 703.83,-221 688.02,-210.46 688.02,-195.54 703.83,-185 726.2,-185 742.02,-195.54"/>
<text text-anchor="middle" x="715.02" y="-199.3" font-family="Times,serif" font-size="14.00">a</text>
</g>
<!-- n4 -->
<g id="node4" class="node">
<title>n4</title>
<polygon fill="none" stroke="black" points="742.02,-141.54 742.02,-156.46 726.2,-167 703.83,-167 688.02,-156.46 688.02,-141.54 703.83,-131 726.2,-131 742.02,-141.54"/>
<text text-anchor="middle" x="715.02" y="-145.3" font-family="Times,serif" font-size="14.00">b</text>
</g>
<!-- n5 -->
<g id="node5" class="node">
<title>n5</title>
<polygon fill="none" stroke="black" points="742.02,-87.54 742.02,-102.46 726.2,-113 703.83,-113 688.02,-102.46 688.02,-87.54 703.83,-77 726.2,-77 742.02,-87.54"/>
<text text-anchor="middle" x="715.02" y="-91.3" font-family="Times,serif" font-size="14.00">c</text>
</g>
<!-- n6 -->
<g id="node6" class="node">
<title>n6</title>
<polygon fill="none" stroke="black" points="742.02,-33.54 742.02,-48.46 726.2,-59 703.83,-59 688.02,-48.46 688.02,-33.54 703.83,-23 726.2,-23 742.02,-33.54"/>
<text text-anchor="middle" x="715.02" y="-37.3" font-family="Times,serif" font-size="14.00">d</text>
</g>
<!-- n7 -->
<g id="node7" class="node">
<title>n7</title>
<polygon fill="none" stroke="black" points="175,-165.54 175,-180.46 159.18,-191 136.82,-191 121,-180.46 121,-165.54 136.82,-155 159.18,-155 175,-165.54"/>
<text text-anchor="middle" x="148" y="-169.3" font-family="Times,serif" font-size="14.00">in</text>
</g>
<!-- c9 -->
<g id="node9" class="node">
<title>c9</title>
<polygon fill="none" stroke="black" points="242,-122 242,-168 377,-168 377,-122 242,-122"/>
<text text-anchor="middle" x="260.5" y="-152.8" font-family="Times,serif" font-size="14.00">in</text>
<polyline fill="none" stroke="black" points="242,-145 279,-145 "/>
<text text-anchor="middle" x="260.5" y="-129.8" font-family="Times,serif" font-size="14.00">sel</text>
<polyline fill="none" stroke="black" points="279,-122 279,-168 "/>
<text text-anchor="middle" x="315" y="-148.8" font-family="Times,serif" font-size="14.00">dmux_0</text>
<text text-anchor="middle" x="315" y="-133.8" font-family="Times,serif" font-size="14.00">DMux</text>
<polyline fill="none" stroke="black" points="351,-122 351,-168 "/>
<text text-anchor="middle" x="364" y="-152.8" font-family="Times,serif" font-size="14.00">a</text>
<polyline fill="none" stroke="black" points="351,-145 377,-145 "/>
<text text-anchor="middle" x="364" y="-129.8" font-family="Times,serif" font-size="14.00">b</text>
</g>
<!-- n7&#45;&gt;c9 -->
<g id="edge12" class="edge">
<title>n7:e&#45;&gt;c9:w</title>
<path fill="none" stroke="black" d="M176,-173C202.41,-173 210.02,-160.75 231.74,-157.69"/>
<polygon fill="black" stroke="black" points="232.26,-161.16 242,-157 231.79,-154.18 232.26,-161.16"/>
</g>
<!-- n8 -->
<g id="node8" class="node">
<title>n8</title>
<polygon fill="none" stroke="black" points="54,-110.54 54,-125.46 38.18,-136 15.82,-136 0,-125.46 0,-110.54 15.82,-100 38.18,-100 54,-110.54"/>
<text text-anchor="middle" x="27" y="-114.3" font-family="Times,serif" font-size="14.00">sel</text>
</g>
<!-- x0 -->
<g id="node10" class="node">
<title>x0</title>
<path fill="none" stroke="black" d="M102,-100C102,-100 194,-100 194,-100 200,-100 206,-106 206,-112 206,-112 206,-124 206,-124 206,-130 200,-136 194,-136 194,-136 102,-136 102,-136 96,-136 90,-130 90,-124 90,-124 90,-112 90,-112 90,-106 96,-100 102,-100"/>
<text text-anchor="middle" x="148" y="-114.3" font-family="Times,serif" font-size="14.00">slice [1] to [0]</text>
</g>
<!-- n8&#45;&gt;x0 -->
<g id="edge13" class="edge">
<title>n8:e&#45;&gt;x0:w</title>
<path fill="none" stroke="black" d="M54,-118C66,-118 71.25,-118 79.88,-118"/>
<polygon fill="black" stroke="black" points="80,-121.5 90,-118 80,-114.5 80,-121.5"/>
</g>
<!-- x1 -->
<g id="node12" class="node">
<title>x1</title>
<path fill="none" stroke="black" d="M263.5,-201C263.5,-201 355.5,-201 355.5,-201 361.5,-201 367.5,-207 367.5,-213 367.5,-213 367.5,-225 367.5,-225 367.5,-231 361.5,-237 355.5,-237 355.5,-237 263.5,-237 263.5,-237 257.5,-237 251.5,-231 251.5,-225 251.5,-225 251.5,-213 251.5,-213 251.5,-207 257.5,-201 263.5,-201"/>
<text text-anchor="middle" x="309.5" y="-215.3" font-family="Times,serif" font-size="14.00">slice [0] to [0]</text>
</g>
<!-- n8&#45;&gt;x1 -->
<g id="edge14" class="edge">
<title>n8:e&#45;&gt;x1:w</title>
<path fill="none" stroke="black" d="M54,-118C93.8,-118 58.01,-176.31 90,-200 144.91,-240.66 175.58,-221.16 240.26,-219.16"/>
<polygon fill="black" stroke="black" points="240.56,-222.66 250.5,-219 240.45,-215.66 240.56,-222.66"/>
</g>
<!-- x2 -->
<g id="node14" class="node">
<title>x2</title>
<path fill="none" stroke="black" d="M263.5,-53C263.5,-53 355.5,-53 355.5,-53 361.5,-53 367.5,-59 367.5,-65 367.5,-65 367.5,-77 367.5,-77 367.5,-83 361.5,-89 355.5,-89 355.5,-89 263.5,-89 263.5,-89 257.5,-89 251.5,-83 251.5,-77 251.5,-77 251.5,-65 251.5,-65 251.5,-59 257.5,-53 263.5,-53"/>
<text text-anchor="middle" x="309.5" y="-67.3" font-family="Times,serif" font-size="14.00">slice [0] to [0]</text>
</g>
<!-- n8&#45;&gt;x2 -->
<g id="edge15" class="edge">
<title>n8:e&#45;&gt;x2:w</title>
<path fill="none" stroke="black" d="M54,-118C74,-118 71.45,-98.49 90,-91 153.4,-65.4 176.36,-70.41 240.32,-70.96"/>
<polygon fill="black" stroke="black" points="240.48,-74.46 250.5,-71 240.52,-67.46 240.48,-74.46"/>
</g>
<!-- c9&#45;&gt;n1 -->
<g id="edge4" class="edge">
<title>c9:e&#45;&gt;n1:w</title>
<path fill="none" stroke="black" d="M377,-157C390.41,-157 394.13,-166.38 402.99,-170.78"/>
<polygon fill="black" stroke="black" points="402.49,-174.25 413.01,-173 404.01,-167.41 402.49,-174.25"/>
</g>
<!-- c9&#45;&gt;n2 -->
<g id="edge6" class="edge">
<title>c9:e&#45;&gt;n2:w</title>
<path fill="none" stroke="black" d="M377,-133C390.27,-133 394.16,-124.21 403.04,-120.09"/>
<polygon fill="black" stroke="black" points="403.93,-123.47 413,-118 402.49,-116.62 403.93,-123.47"/>
</g>
<!-- x0&#45;&gt;c9 -->
<g id="edge1" class="edge">
<title>x0:e&#45;&gt;c9:w</title>
<path fill="none" stroke="black" d="M217.79,-121.04C222.33,-123.64 225.67,-127.37 230.21,-129.97"/>
<polygon fill="none" stroke="black" points="217.62,-120.99 210.81,-123.37 206,-118 212.81,-115.62 217.62,-120.99"/>
<polygon fill="none" stroke="black" points="230.38,-130.01 237.19,-127.63 242,-133 235.19,-135.38 230.38,-130.01"/>
</g>
<!-- c10&#45;&gt;n3 -->
<g id="edge8" class="edge">
<title>c10:e&#45;&gt;n3:w</title>
<path fill="none" stroke="black" d="M652.02,-173C668.78,-173 668.39,-192.43 678.45,-200.01"/>
<polygon fill="black" stroke="black" points="677.43,-203.36 688.02,-203 679.51,-196.68 677.43,-203.36"/>
</g>
<!-- c10&#45;&gt;n4 -->
<g id="edge9" class="edge">
<title>c10:e&#45;&gt;n4:w</title>
<path fill="none" stroke="black" d="M652.02,-149C664.02,-149 669.27,-149 677.89,-149"/>
<polygon fill="black" stroke="black" points="678.02,-152.5 688.02,-149 678.02,-145.5 678.02,-152.5"/>
</g>
<!-- x1&#45;&gt;c10 -->
<g id="edge2" class="edge">
<title>x1:e&#45;&gt;c10:w</title>
<path fill="none" stroke="black" d="M380.64,-219.14C422.56,-220.1 441.7,-224.74 481.02,-200 500.1,-187.99 493.62,-161.83 505.4,-152.44"/>
<polygon fill="none" stroke="black" points="380.5,-219.14 374.45,-223.07 368.5,-219 374.55,-215.07 380.5,-219.14"/>
<polygon fill="none" stroke="black" points="505.51,-152.41 510.13,-146.87 517.02,-149 512.4,-154.54 505.51,-152.41"/>
</g>
<!-- c11&#45;&gt;n5 -->
<g id="edge10" class="edge">
<title>c11:e&#45;&gt;n5:w</title>
<path fill="none" stroke="black" d="M652.02,-95C664.02,-95 669.27,-95 677.89,-95"/>
<polygon fill="black" stroke="black" points="678.02,-98.5 688.02,-95 678.02,-91.5 678.02,-98.5"/>
</g>
<!-- c11&#45;&gt;n6 -->
<g id="edge11" class="edge">
<title>c11:e&#45;&gt;n6:w</title>
<path fill="none" stroke="black" d="M652.02,-71C668.78,-71 668.39,-51.57 678.45,-43.99"/>
<polygon fill="black" stroke="black" points="679.51,-47.32 688.02,-41 677.43,-40.64 679.51,-47.32"/>
</g>
<!-- x2&#45;&gt;c11 -->
<g id="edge3" class="edge">
<title>x2:e&#45;&gt;c11:w</title>
<path fill="none" stroke="black" d="M380.67,-71C433,-71 452.57,-71 504.93,-71"/>
<polygon fill="none" stroke="black" points="380.5,-71 374.5,-75 368.5,-71 374.5,-67 380.5,-71"/>
<polygon fill="none" stroke="black" points="505.02,-71 511.02,-67 517.02,-71 511.02,-75 505.02,-71"/>
</g>
</g>
</svg>
