<?xml version="1.0" encoding="UTF-8" standalone="no"?>
<!DOCTYPE svg PUBLIC "-//W3C//DTD SVG 1.1//EN"
 "http://www.w3.org/Graphics/SVG/1.1/DTD/svg11.dtd">
<!-- Generated by graphviz version 2.43.0 (0)
 -->
<!-- Title: And Pages: 1 -->
<svg width="988pt" height="142pt"
 viewBox="0.00 0.00 987.89 142.00" xmlns="http://www.w3.org/2000/svg" xmlns:xlink="http://www.w3.org/1999/xlink">
<g id="graph0" class="graph" transform="scale(1 1) rotate(0) translate(4 138)">
<title>And</title>
<polygon fill="white" stroke="transparent" points="-4,4 -4,-138 983.89,-138 983.89,4 -4,4"/>
<text text-anchor="middle" x="489.95" y="-7.8" font-family="Times,serif" font-size="14.00">And</text>
<!-- n1 -->
<g id="node1" class="node">
<title>n1</title>
<polygon fill="none" stroke="black" points="54,-108.54 54,-123.46 38.18,-134 15.82,-134 0,-123.46 0,-108.54 15.82,-98 38.18,-98 54,-108.54"/>
<text text-anchor="middle" x="27" y="-112.3" font-family="Times,serif" font-size="14.00">a</text>
</g>
<!-- c7 -->
<g id="node7" class="node">
<title>c7</title>
<polygon fill="none" stroke="black" points="90,-66 90,-112 224,-112 224,-66 90,-66"/>
<text text-anchor="middle" x="103" y="-96.8" font-family="Times,serif" font-size="14.00">a</text>
<polyline fill="none" stroke="black" points="90,-89 116,-89 "/>
<text text-anchor="middle" x="103" y="-73.8" font-family="Times,serif" font-size="14.00">b</text>
<polyline fill="none" stroke="black" points="116,-66 116,-112 "/>
<text text-anchor="middle" x="150" y="-92.8" font-family="Times,serif" font-size="14.00">nand_0</text>
<text text-anchor="middle" x="150" y="-77.8" font-family="Times,serif" font-size="14.00">Nand</text>
<polyline fill="none" stroke="black" points="184,-66 184,-112 "/>
<text text-anchor="middle" x="204" y="-85.3" font-family="Times,serif" font-size="14.00">out</text>
</g>
<!-- n1&#45;&gt;c7 -->
<g id="edge1" class="edge">
<title>n1:e&#45;&gt;c7:w</title>
<path fill="none" stroke="black" d="M54,-116C67.27,-116 71.16,-107.21 80.04,-103.09"/>
<polygon fill="black" stroke="black" points="80.93,-106.47 90,-101 79.49,-99.62 80.93,-106.47"/>
</g>
<!-- n2 -->
<g id="node2" class="node">
<title>n2</title>
<polygon fill="none" stroke="black" points="721.33,-59 654.97,-41 721.33,-23 787.68,-41 721.33,-59"/>
<text text-anchor="middle" x="721.33" y="-37.3" font-family="Times,serif" font-size="14.00">aNandb</text>
</g>
<!-- n3 -->
<g id="node3" class="node">
<title>n3</title>
<polygon fill="none" stroke="black" points="54,-54.54 54,-69.46 38.18,-80 15.82,-80 0,-69.46 0,-54.54 15.82,-44 38.18,-44 54,-54.54"/>
<text text-anchor="middle" x="27" y="-58.3" font-family="Times,serif" font-size="14.00">b</text>
</g>
<!-- n3&#45;&gt;c7 -->
<g id="edge3" class="edge">
<title>n3:e&#45;&gt;c7:w</title>
<path fill="none" stroke="black" d="M54,-62C67.27,-62 71.16,-70.79 80.04,-74.91"/>
<polygon fill="black" stroke="black" points="79.49,-78.38 90,-77 80.93,-71.53 79.49,-78.38"/>
</g>
<!-- n4 -->
<g id="node4" class="node">
<title>n4</title>
<polygon fill="none" stroke="black" points="328.02,-107 259.98,-89 328.02,-71 396.05,-89 328.02,-107"/>
<text text-anchor="middle" x="328.02" y="-85.3" font-family="Times,serif" font-size="14.00">not_1.in</text>
</g>
<!-- c8 -->
<g id="node8" class="node">
<title>c8</title>
<polygon fill="none" stroke="black" points="432.04,-78 432.04,-124 609.04,-124 609.04,-78 432.04,-78"/>
<text text-anchor="middle" x="445.04" y="-108.8" font-family="Times,serif" font-size="14.00">a</text>
<polyline fill="none" stroke="black" points="432.04,-101 458.04,-101 "/>
<text text-anchor="middle" x="445.04" y="-85.8" font-family="Times,serif" font-size="14.00">b</text>
<polyline fill="none" stroke="black" points="458.04,-78 458.04,-124 "/>
<text text-anchor="middle" x="513.54" y="-104.8" font-family="Times,serif" font-size="14.00">not_1.nand_0</text>
<text text-anchor="middle" x="513.54" y="-89.8" font-family="Times,serif" font-size="14.00">Nand</text>
<polyline fill="none" stroke="black" points="569.04,-78 569.04,-124 "/>
<text text-anchor="middle" x="589.04" y="-97.3" font-family="Times,serif" font-size="14.00">out</text>
</g>
<!-- n4&#45;&gt;c8 -->
<g id="edge5" class="edge">
<title>n4:e&#45;&gt;c8:w</title>
<path fill="none" stroke="black" d="M396.04,-89C411.21,-89 412.88,-103.94 422.35,-110.25"/>
<polygon fill="black" stroke="black" points="421.46,-113.63 432.04,-113 423.37,-106.9 421.46,-113.63"/>
</g>
<!-- n4&#45;&gt;c8 -->
<g id="edge6" class="edge">
<title>n4:e&#45;&gt;c8:w</title>
<path fill="none" stroke="black" d="M396.04,-89C408.04,-89 413.29,-89 421.91,-89"/>
<polygon fill="black" stroke="black" points="422.04,-92.5 432.04,-89 422.04,-85.5 422.04,-92.5"/>
</g>
<!-- x0 -->
<g id="node9" class="node">
<title>x0</title>
<path fill="none" stroke="black" d="M535.54,-59C535.54,-59 505.54,-59 505.54,-59 499.54,-59 493.54,-53 493.54,-47 493.54,-47 493.54,-35 493.54,-35 493.54,-29 499.54,-23 505.54,-23 505.54,-23 535.54,-23 535.54,-23 541.54,-23 547.54,-29 547.54,-35 547.54,-35 547.54,-47 547.54,-47 547.54,-53 541.54,-59 535.54,-59"/>
<text text-anchor="middle" x="520.54" y="-37.3" font-family="Times,serif" font-size="14.00">BUF</text>
</g>
<!-- n4&#45;&gt;x0 -->
<g id="edge7" class="edge">
<title>n4:e&#45;&gt;x0:w</title>
<path fill="none" stroke="black" d="M396.04,-89C414.56,-89 415.55,-76.45 432.04,-68 454.86,-56.29 461.48,-44.49 482.28,-41.65"/>
<polygon fill="black" stroke="black" points="482.78,-45.12 492.54,-41 482.33,-38.14 482.78,-45.12"/>
</g>
<!-- n5 -->
<g id="node5" class="node">
<title>n5</title>
<polygon fill="none" stroke="black" points="721.33,-119 645.24,-101 721.33,-83 797.41,-101 721.33,-119"/>
<text text-anchor="middle" x="721.33" y="-97.3" font-family="Times,serif" font-size="14.00">not_1.out</text>
</g>
<!-- x1 -->
<g id="node10" class="node">
<title>x1</title>
<path fill="none" stroke="black" d="M875.62,-119C875.62,-119 845.62,-119 845.62,-119 839.62,-119 833.62,-113 833.62,-107 833.62,-107 833.62,-95 833.62,-95 833.62,-89 839.62,-83 845.62,-83 845.62,-83 875.62,-83 875.62,-83 881.62,-83 887.62,-89 887.62,-95 887.62,-95 887.62,-107 887.62,-107 887.62,-113 881.62,-119 875.62,-119"/>
<text text-anchor="middle" x="860.62" y="-97.3" font-family="Times,serif" font-size="14.00">BUF</text>
</g>
<!-- n5&#45;&gt;x1 -->
<g id="edge9" class="edge">
<title>n5:e&#45;&gt;x1:w</title>
<path fill="none" stroke="black" d="M797.62,-101C809.62,-101 814.87,-101 823.49,-101"/>
<polygon fill="black" stroke="black" points="823.62,-104.5 833.62,-101 823.62,-97.5 823.62,-104.5"/>
</g>
<!-- n6 -->
<g id="node6" class="node">
<title>n6</title>
<polygon fill="none" stroke="black" points="980.04,-93.54 980.04,-108.46 963.47,-119 940.04,-119 923.47,-108.46 923.47,-93.54 940.04,-83 963.47,-83 980.04,-93.54"/>
<text text-anchor="middle" x="951.76" y="-97.3" font-family="Times,serif" font-size="14.00">out</text>
</g>
<!-- c7&#45;&gt;n4 -->
<g id="edge4" class="edge">
<title>c7:e&#45;&gt;n4:w</title>
<path fill="none" stroke="black" d="M224,-89C236,-89 241.25,-89 249.88,-89"/>
<polygon fill="black" stroke="black" points="250,-92.5 260,-89 250,-85.5 250,-92.5"/>
</g>
<!-- c8&#45;&gt;n5 -->
<g id="edge8" class="edge">
<title>c8:e&#45;&gt;n5:w</title>
<path fill="none" stroke="black" d="M609.04,-101C621.04,-101 626.29,-101 634.91,-101"/>
<polygon fill="black" stroke="black" points="635.04,-104.5 645.04,-101 635.04,-97.5 635.04,-104.5"/>
</g>
<!-- x0&#45;&gt;n2 -->
<g id="edge2" class="edge">
<title>x0:e&#45;&gt;n2:w</title>
<path fill="none" stroke="black" d="M548.54,-41C591.88,-41 605.26,-41 643.92,-41"/>
<polygon fill="black" stroke="black" points="644.33,-44.5 654.33,-41 644.33,-37.5 644.33,-44.5"/>
</g>
<!-- x1&#45;&gt;n6 -->
<g id="edge10" class="edge">
<title>x1:e&#45;&gt;n6:w</title>
<path fill="none" stroke="black" d="M887.62,-101C899.62,-101 904.87,-101 913.49,-101"/>
<polygon fill="black" stroke="black" points="913.62,-104.5 923.62,-101 913.62,-97.5 913.62,-104.5"/>
</g>
</g>
</svg>
