<?xml version="1.0" encoding="UTF-8" standalone="no"?>
<!DOCTYPE svg PUBLIC "-//W3C//DTD SVG 1.1//EN"
 "http://www.w3.org/Graphics/SVG/1.1/DTD/svg11.dtd">
<!-- Generated by graphviz version 2.43.0 (0)
 -->
<!-- Title: RAM8 Pages: 1 -->
<svg width="1081pt" height="569pt"
 viewBox="0.00 0.00 1080.57 569.45" xmlns="http://www.w3.org/2000/svg" xmlns:xlink="http://www.w3.org/1999/xlink">
<g id="graph0" class="graph" transform="scale(1 1) rotate(0) translate(4 565.45)">
<title>RAM8</title>
<polygon fill="white" stroke="transparent" points="-4,4 -4,-565.45 1076.57,-565.45 1076.57,4 -4,4"/>
<text text-anchor="middle" x="536.28" y="-7.8" font-family="Times,serif" font-size="14.00">RAM8</text>
<!-- n1 -->
<g id="node1" class="node">
<title>n1</title>
<polygon fill="none" stroke="black" points="699.57,-544.95 650.64,-526.95 699.57,-508.95 748.51,-526.95 699.57,-544.95"/>
<text text-anchor="middle" x="699.57" y="-523.25" font-family="Times,serif" font-size="14.00">R0x0</text>
</g>
<!-- c31 -->
<g id="node22" class="node">
<title>c31</title>
<polygon fill="none" stroke="black" points="784.29,-174.45 784.29,-381.45 980.29,-381.45 980.29,-174.45 784.29,-174.45"/>
<text text-anchor="middle" x="802.79" y="-366.25" font-family="Times,serif" font-size="14.00">a</text>
<polyline fill="none" stroke="black" points="784.29,-358.45 821.29,-358.45 "/>
<text text-anchor="middle" x="802.79" y="-343.25" font-family="Times,serif" font-size="14.00">b</text>
<polyline fill="none" stroke="black" points="784.29,-335.45 821.29,-335.45 "/>
<text text-anchor="middle" x="802.79" y="-320.25" font-family="Times,serif" font-size="14.00">c</text>
<polyline fill="none" stroke="black" points="784.29,-312.45 821.29,-312.45 "/>
<text text-anchor="middle" x="802.79" y="-297.25" font-family="Times,serif" font-size="14.00">d</text>
<polyline fill="none" stroke="black" points="784.29,-289.45 821.29,-289.45 "/>
<text text-anchor="middle" x="802.79" y="-274.25" font-family="Times,serif" font-size="14.00">e</text>
<polyline fill="none" stroke="black" points="784.29,-266.45 821.29,-266.45 "/>
<text text-anchor="middle" x="802.79" y="-251.25" font-family="Times,serif" font-size="14.00">f</text>
<polyline fill="none" stroke="black" points="784.29,-243.45 821.29,-243.45 "/>
<text text-anchor="middle" x="802.79" y="-228.25" font-family="Times,serif" font-size="14.00">g</text>
<polyline fill="none" stroke="black" points="784.29,-220.45 821.29,-220.45 "/>
<text text-anchor="middle" x="802.79" y="-205.25" font-family="Times,serif" font-size="14.00">h</text>
<polyline fill="none" stroke="black" points="784.29,-197.45 821.29,-197.45 "/>
<text text-anchor="middle" x="802.79" y="-182.25" font-family="Times,serif" font-size="14.00">sel</text>
<polyline fill="none" stroke="black" points="821.29,-174.45 821.29,-381.45 "/>
<text text-anchor="middle" x="880.79" y="-281.75" font-family="Times,serif" font-size="14.00">mux8way16_9</text>
<text text-anchor="middle" x="880.79" y="-266.75" font-family="Times,serif" font-size="14.00">Mux8Way16</text>
<polyline fill="none" stroke="black" points="940.29,-174.45 940.29,-381.45 "/>
<text text-anchor="middle" x="960.29" y="-274.25" font-family="Times,serif" font-size="14.00">out</text>
</g>
<!-- n1&#45;&gt;c31 -->
<g id="edge2" class="edge">
<title>n1:e&#45;&gt;c31:w</title>
<path fill="none" stroke="black" stroke-width="3" d="M748.29,-526.95C815.96,-526.95 723.89,-386.65 774.09,-371.31"/>
<polygon fill="black" stroke="black" stroke-width="3" points="774.84,-374.74 784.29,-369.95 773.92,-367.8 774.84,-374.74"/>
</g>
<!-- n2 -->
<g id="node2" class="node">
<title>n2</title>
<polygon fill="none" stroke="black" points="699.57,-480.95 650.64,-462.95 699.57,-444.95 748.51,-462.95 699.57,-480.95"/>
<text text-anchor="middle" x="699.57" y="-459.25" font-family="Times,serif" font-size="14.00">R0x1</text>
</g>
<!-- n2&#45;&gt;c31 -->
<g id="edge29" class="edge">
<title>n2:e&#45;&gt;c31:w</title>
<path fill="none" stroke="black" stroke-width="3" d="M748.29,-462.95C798.26,-462.95 740.3,-363.53 774.25,-348.77"/>
<polygon fill="black" stroke="black" stroke-width="3" points="775.08,-352.18 784.29,-346.95 773.83,-345.29 775.08,-352.18"/>
</g>
<!-- n3 -->
<g id="node3" class="node">
<title>n3</title>
<polygon fill="none" stroke="black" points="699.57,-416.95 650.64,-398.95 699.57,-380.95 748.51,-398.95 699.57,-416.95"/>
<text text-anchor="middle" x="699.57" y="-395.25" font-family="Times,serif" font-size="14.00">R0x2</text>
</g>
<!-- n3&#45;&gt;c31 -->
<g id="edge32" class="edge">
<title>n3:e&#45;&gt;c31:w</title>
<path fill="none" stroke="black" stroke-width="3" d="M748.29,-398.95C781.08,-398.95 754.95,-339.98 774.39,-326.62"/>
<polygon fill="black" stroke="black" stroke-width="3" points="775.55,-329.93 784.29,-323.95 773.72,-323.17 775.55,-329.93"/>
</g>
<!-- n4 -->
<g id="node4" class="node">
<title>n4</title>
<polygon fill="none" stroke="black" points="699.57,-354.95 650.64,-336.95 699.57,-318.95 748.51,-336.95 699.57,-354.95"/>
<text text-anchor="middle" x="699.57" y="-333.25" font-family="Times,serif" font-size="14.00">R0x3</text>
</g>
<!-- n4&#45;&gt;c31 -->
<g id="edge34" class="edge">
<title>n4:e&#45;&gt;c31:w</title>
<path fill="none" stroke="black" stroke-width="3" d="M748.29,-336.95C766.67,-336.95 764.01,-313.18 774.5,-304.27"/>
<polygon fill="black" stroke="black" stroke-width="3" points="775.95,-307.48 784.29,-300.95 773.7,-300.85 775.95,-307.48"/>
</g>
<!-- n5 -->
<g id="node5" class="node">
<title>n5</title>
<polygon fill="none" stroke="black" points="699.57,-295.95 650.64,-277.95 699.57,-259.95 748.51,-277.95 699.57,-295.95"/>
<text text-anchor="middle" x="699.57" y="-274.25" font-family="Times,serif" font-size="14.00">R0x4</text>
</g>
<!-- n5&#45;&gt;c31 -->
<g id="edge36" class="edge">
<title>n5:e&#45;&gt;c31:w</title>
<path fill="none" stroke="black" stroke-width="3" d="M748.29,-277.95C760.29,-277.95 765.54,-277.95 774.17,-277.95"/>
<polygon fill="black" stroke="black" stroke-width="3" points="774.29,-281.45 784.29,-277.95 774.29,-274.45 774.29,-281.45"/>
</g>
<!-- n6 -->
<g id="node6" class="node">
<title>n6</title>
<polygon fill="none" stroke="black" points="699.57,-236.95 650.64,-218.95 699.57,-200.95 748.51,-218.95 699.57,-236.95"/>
<text text-anchor="middle" x="699.57" y="-215.25" font-family="Times,serif" font-size="14.00">R0x5</text>
</g>
<!-- n6&#45;&gt;c31 -->
<g id="edge38" class="edge">
<title>n6:e&#45;&gt;c31:w</title>
<path fill="none" stroke="black" stroke-width="3" d="M748.29,-218.95C766.67,-218.95 764.01,-242.72 774.5,-251.63"/>
<polygon fill="black" stroke="black" stroke-width="3" points="773.7,-255.05 784.29,-254.95 775.95,-248.42 773.7,-255.05"/>
</g>
<!-- n7 -->
<g id="node7" class="node">
<title>n7</title>
<polygon fill="none" stroke="black" points="699.57,-171.95 650.64,-153.95 699.57,-135.95 748.51,-153.95 699.57,-171.95"/>
<text text-anchor="middle" x="699.57" y="-150.25" font-family="Times,serif" font-size="14.00">R0x6</text>
</g>
<!-- n7&#45;&gt;c31 -->
<g id="edge40" class="edge">
<title>n7:e&#45;&gt;c31:w</title>
<path fill="none" stroke="black" stroke-width="3" d="M748.29,-153.95C782.29,-153.95 754,-215.82 774.38,-229.35"/>
<polygon fill="black" stroke="black" stroke-width="3" points="773.73,-232.8 784.29,-231.95 775.5,-226.03 773.73,-232.8"/>
</g>
<!-- n8 -->
<g id="node8" class="node">
<title>n8</title>
<polygon fill="none" stroke="black" points="699.57,-108.95 650.64,-90.95 699.57,-72.95 748.51,-90.95 699.57,-108.95"/>
<text text-anchor="middle" x="699.57" y="-87.25" font-family="Times,serif" font-size="14.00">R0x7</text>
</g>
<!-- n8&#45;&gt;c31 -->
<g id="edge42" class="edge">
<title>n8:e&#45;&gt;c31:w</title>
<path fill="none" stroke="black" stroke-width="3" d="M748.29,-90.95C799.05,-90.95 739.69,-192.08 774.1,-207.1"/>
<polygon fill="black" stroke="black" stroke-width="3" points="773.83,-210.6 784.29,-208.95 775.08,-203.72 773.83,-210.6"/>
</g>
<!-- n9 -->
<g id="node9" class="node">
<title>n9</title>
<polygon fill="none" stroke="black" points="102.57,-113.49 102.57,-128.41 72.57,-138.95 30.14,-138.95 0.14,-128.41 0.14,-113.49 30.14,-102.95 72.57,-102.95 102.57,-113.49"/>
<text text-anchor="middle" x="51.35" y="-117.25" font-family="Times,serif" font-size="14.00">address</text>
</g>
<!-- c30 -->
<g id="node21" class="node">
<title>c30</title>
<polygon fill="none" stroke="black" points="138.71,-164.95 138.71,-348.95 311.71,-348.95 311.71,-164.95 138.71,-164.95"/>
<text text-anchor="middle" x="157.21" y="-299.25" font-family="Times,serif" font-size="14.00">in</text>
<polyline fill="none" stroke="black" points="138.71,-256.95 175.71,-256.95 "/>
<text text-anchor="middle" x="157.21" y="-207.25" font-family="Times,serif" font-size="14.00">sel</text>
<polyline fill="none" stroke="black" points="175.71,-164.95 175.71,-348.95 "/>
<text text-anchor="middle" x="230.71" y="-260.75" font-family="Times,serif" font-size="14.00">dmux8way_0</text>
<text text-anchor="middle" x="230.71" y="-245.75" font-family="Times,serif" font-size="14.00">DMux8Way</text>
<polyline fill="none" stroke="black" points="285.71,-164.95 285.71,-348.95 "/>
<text text-anchor="middle" x="298.71" y="-333.75" font-family="Times,serif" font-size="14.00">a</text>
<polyline fill="none" stroke="black" points="285.71,-325.95 311.71,-325.95 "/>
<text text-anchor="middle" x="298.71" y="-310.75" font-family="Times,serif" font-size="14.00">b</text>
<polyline fill="none" stroke="black" points="285.71,-302.95 311.71,-302.95 "/>
<text text-anchor="middle" x="298.71" y="-287.75" font-family="Times,serif" font-size="14.00">c</text>
<polyline fill="none" stroke="black" points="285.71,-279.95 311.71,-279.95 "/>
<text text-anchor="middle" x="298.71" y="-264.75" font-family="Times,serif" font-size="14.00">d</text>
<polyline fill="none" stroke="black" points="285.71,-256.95 311.71,-256.95 "/>
<text text-anchor="middle" x="298.71" y="-241.75" font-family="Times,serif" font-size="14.00">e</text>
<polyline fill="none" stroke="black" points="285.71,-233.95 311.71,-233.95 "/>
<text text-anchor="middle" x="298.71" y="-218.75" font-family="Times,serif" font-size="14.00">f</text>
<polyline fill="none" stroke="black" points="285.71,-210.95 311.71,-210.95 "/>
<text text-anchor="middle" x="298.71" y="-195.75" font-family="Times,serif" font-size="14.00">g</text>
<polyline fill="none" stroke="black" points="285.71,-187.95 311.71,-187.95 "/>
<text text-anchor="middle" x="298.71" y="-172.75" font-family="Times,serif" font-size="14.00">h</text>
</g>
<!-- n9&#45;&gt;c30 -->
<g id="edge43" class="edge">
<title>n9:e&#45;&gt;c30:w</title>
<path fill="none" stroke="black" stroke-width="3" d="M102.71,-120.95C141.75,-120.95 104.21,-194.87 128.9,-208.72"/>
<polygon fill="black" stroke="black" stroke-width="3" points="128.18,-212.15 138.71,-210.95 129.73,-205.32 128.18,-212.15"/>
</g>
<!-- n9&#45;&gt;c31 -->
<g id="edge44" class="edge">
<title>n9:e&#45;&gt;c31:w</title>
<path fill="none" stroke="black" stroke-width="3" d="M102.71,-120.95C229.87,-120.95 247.13,-30.95 374.28,-30.95 374.28,-30.95 374.28,-30.95 527.86,-30.95 626.92,-30.95 673.57,1.09 748.29,-63.95 787.93,-98.46 736.12,-174.25 774.06,-184.74"/>
<polygon fill="black" stroke="black" stroke-width="3" points="773.95,-188.25 784.29,-185.95 774.77,-181.3 773.95,-188.25"/>
</g>
<!-- n10 -->
<g id="node10" class="node">
<title>n10</title>
<polygon fill="none" stroke="black" points="402.28,-345.49 402.28,-360.41 386.47,-370.95 364.1,-370.95 348.28,-360.41 348.28,-345.49 364.1,-334.95 386.47,-334.95 402.28,-345.49"/>
<text text-anchor="middle" x="375.28" y="-349.25" font-family="Times,serif" font-size="14.00">in</text>
</g>
<!-- c32 -->
<g id="node23" class="node">
<title>c32</title>
<polygon fill="none" stroke="black" points="438.86,-514.95 438.86,-560.95 614.86,-560.95 614.86,-514.95 438.86,-514.95"/>
<text text-anchor="middle" x="462.36" y="-545.75" font-family="Times,serif" font-size="14.00">in</text>
<polyline fill="none" stroke="black" points="438.86,-537.95 485.86,-537.95 "/>
<text text-anchor="middle" x="462.36" y="-522.75" font-family="Times,serif" font-size="14.00">load</text>
<polyline fill="none" stroke="black" points="485.86,-514.95 485.86,-560.95 "/>
<text text-anchor="middle" x="530.36" y="-541.75" font-family="Times,serif" font-size="14.00">register_1</text>
<text text-anchor="middle" x="530.36" y="-526.75" font-family="Times,serif" font-size="14.00">Register</text>
<polyline fill="none" stroke="black" points="574.86,-514.95 574.86,-560.95 "/>
<text text-anchor="middle" x="594.86" y="-534.25" font-family="Times,serif" font-size="14.00">out</text>
</g>
<!-- n10&#45;&gt;c32 -->
<g id="edge3" class="edge">
<title>n10:e&#45;&gt;c32:w</title>
<path fill="none" stroke="black" stroke-width="3" d="M402.86,-352.95C488.04,-352.95 361.63,-533.38 428.63,-548.89"/>
<polygon fill="black" stroke="black" stroke-width="3" points="428.55,-552.4 438.86,-549.95 429.27,-545.44 428.55,-552.4"/>
</g>
<!-- c33 -->
<g id="node24" class="node">
<title>c33</title>
<polygon fill="none" stroke="black" points="438.86,-449.95 438.86,-495.95 614.86,-495.95 614.86,-449.95 438.86,-449.95"/>
<text text-anchor="middle" x="462.36" y="-480.75" font-family="Times,serif" font-size="14.00">in</text>
<polyline fill="none" stroke="black" points="438.86,-472.95 485.86,-472.95 "/>
<text text-anchor="middle" x="462.36" y="-457.75" font-family="Times,serif" font-size="14.00">load</text>
<polyline fill="none" stroke="black" points="485.86,-449.95 485.86,-495.95 "/>
<text text-anchor="middle" x="530.36" y="-476.75" font-family="Times,serif" font-size="14.00">register_2</text>
<text text-anchor="middle" x="530.36" y="-461.75" font-family="Times,serif" font-size="14.00">Register</text>
<polyline fill="none" stroke="black" points="574.86,-449.95 574.86,-495.95 "/>
<text text-anchor="middle" x="594.86" y="-469.25" font-family="Times,serif" font-size="14.00">out</text>
</g>
<!-- n10&#45;&gt;c33 -->
<g id="edge4" class="edge">
<title>n10:e&#45;&gt;c33:w</title>
<path fill="none" stroke="black" stroke-width="3" d="M402.86,-352.95C459.63,-352.95 388.78,-468 428.6,-483.28"/>
<polygon fill="black" stroke="black" stroke-width="3" points="428.43,-486.8 438.86,-484.95 429.55,-479.89 428.43,-486.8"/>
</g>
<!-- c34 -->
<g id="node25" class="node">
<title>c34</title>
<polygon fill="none" stroke="black" points="438.86,-384.95 438.86,-430.95 614.86,-430.95 614.86,-384.95 438.86,-384.95"/>
<text text-anchor="middle" x="462.36" y="-415.75" font-family="Times,serif" font-size="14.00">in</text>
<polyline fill="none" stroke="black" points="438.86,-407.95 485.86,-407.95 "/>
<text text-anchor="middle" x="462.36" y="-392.75" font-family="Times,serif" font-size="14.00">load</text>
<polyline fill="none" stroke="black" points="485.86,-384.95 485.86,-430.95 "/>
<text text-anchor="middle" x="530.36" y="-411.75" font-family="Times,serif" font-size="14.00">register_3</text>
<text text-anchor="middle" x="530.36" y="-396.75" font-family="Times,serif" font-size="14.00">Register</text>
<polyline fill="none" stroke="black" points="574.86,-384.95 574.86,-430.95 "/>
<text text-anchor="middle" x="594.86" y="-404.25" font-family="Times,serif" font-size="14.00">out</text>
</g>
<!-- n10&#45;&gt;c34 -->
<g id="edge5" class="edge">
<title>n10:e&#45;&gt;c34:w</title>
<path fill="none" stroke="black" stroke-width="3" d="M402.86,-352.95C432.44,-352.95 411.94,-404.25 428.99,-417.07"/>
<polygon fill="black" stroke="black" stroke-width="3" points="428.28,-420.51 438.86,-419.95 430.24,-413.79 428.28,-420.51"/>
</g>
<!-- c35 -->
<g id="node26" class="node">
<title>c35</title>
<polygon fill="none" stroke="black" points="438.86,-319.95 438.86,-365.95 614.86,-365.95 614.86,-319.95 438.86,-319.95"/>
<text text-anchor="middle" x="462.36" y="-350.75" font-family="Times,serif" font-size="14.00">in</text>
<polyline fill="none" stroke="black" points="438.86,-342.95 485.86,-342.95 "/>
<text text-anchor="middle" x="462.36" y="-327.75" font-family="Times,serif" font-size="14.00">load</text>
<polyline fill="none" stroke="black" points="485.86,-319.95 485.86,-365.95 "/>
<text text-anchor="middle" x="530.36" y="-346.75" font-family="Times,serif" font-size="14.00">register_4</text>
<text text-anchor="middle" x="530.36" y="-331.75" font-family="Times,serif" font-size="14.00">Register</text>
<polyline fill="none" stroke="black" points="574.86,-319.95 574.86,-365.95 "/>
<text text-anchor="middle" x="594.86" y="-339.25" font-family="Times,serif" font-size="14.00">out</text>
</g>
<!-- n10&#45;&gt;c35 -->
<g id="edge6" class="edge">
<title>n10:e&#45;&gt;c35:w</title>
<path fill="none" stroke="black" stroke-width="3" d="M402.86,-352.95C414.88,-352.95 420.1,-354.07 428.73,-354.64"/>
<polygon fill="black" stroke="black" stroke-width="3" points="428.76,-358.14 438.86,-354.95 428.97,-351.14 428.76,-358.14"/>
</g>
<!-- c36 -->
<g id="node27" class="node">
<title>c36</title>
<polygon fill="none" stroke="black" points="438.86,-254.95 438.86,-300.95 614.86,-300.95 614.86,-254.95 438.86,-254.95"/>
<text text-anchor="middle" x="462.36" y="-285.75" font-family="Times,serif" font-size="14.00">in</text>
<polyline fill="none" stroke="black" points="438.86,-277.95 485.86,-277.95 "/>
<text text-anchor="middle" x="462.36" y="-262.75" font-family="Times,serif" font-size="14.00">load</text>
<polyline fill="none" stroke="black" points="485.86,-254.95 485.86,-300.95 "/>
<text text-anchor="middle" x="530.36" y="-281.75" font-family="Times,serif" font-size="14.00">register_5</text>
<text text-anchor="middle" x="530.36" y="-266.75" font-family="Times,serif" font-size="14.00">Register</text>
<polyline fill="none" stroke="black" points="574.86,-254.95 574.86,-300.95 "/>
<text text-anchor="middle" x="594.86" y="-274.25" font-family="Times,serif" font-size="14.00">out</text>
</g>
<!-- n10&#45;&gt;c36 -->
<g id="edge7" class="edge">
<title>n10:e&#45;&gt;c36:w</title>
<path fill="none" stroke="black" stroke-width="3" d="M402.86,-352.95C430.83,-352.95 413.11,-305.57 428.94,-292.99"/>
<polygon fill="black" stroke="black" stroke-width="3" points="430.32,-296.22 438.86,-289.95 428.27,-289.53 430.32,-296.22"/>
</g>
<!-- c37 -->
<g id="node28" class="node">
<title>c37</title>
<polygon fill="none" stroke="black" points="438.86,-189.95 438.86,-235.95 614.86,-235.95 614.86,-189.95 438.86,-189.95"/>
<text text-anchor="middle" x="462.36" y="-220.75" font-family="Times,serif" font-size="14.00">in</text>
<polyline fill="none" stroke="black" points="438.86,-212.95 485.86,-212.95 "/>
<text text-anchor="middle" x="462.36" y="-197.75" font-family="Times,serif" font-size="14.00">load</text>
<polyline fill="none" stroke="black" points="485.86,-189.95 485.86,-235.95 "/>
<text text-anchor="middle" x="530.36" y="-216.75" font-family="Times,serif" font-size="14.00">register_6</text>
<text text-anchor="middle" x="530.36" y="-201.75" font-family="Times,serif" font-size="14.00">Register</text>
<polyline fill="none" stroke="black" points="574.86,-189.95 574.86,-235.95 "/>
<text text-anchor="middle" x="594.86" y="-209.25" font-family="Times,serif" font-size="14.00">out</text>
</g>
<!-- n10&#45;&gt;c37 -->
<g id="edge8" class="edge">
<title>n10:e&#45;&gt;c37:w</title>
<path fill="none" stroke="black" stroke-width="3" d="M402.86,-352.95C458.03,-352.95 390.06,-241.38 428.87,-226.57"/>
<polygon fill="black" stroke="black" stroke-width="3" points="429.55,-230 438.86,-224.95 428.43,-223.09 429.55,-230"/>
</g>
<!-- c38 -->
<g id="node29" class="node">
<title>c38</title>
<polygon fill="none" stroke="black" points="438.86,-124.95 438.86,-170.95 614.86,-170.95 614.86,-124.95 438.86,-124.95"/>
<text text-anchor="middle" x="462.36" y="-155.75" font-family="Times,serif" font-size="14.00">in</text>
<polyline fill="none" stroke="black" points="438.86,-147.95 485.86,-147.95 "/>
<text text-anchor="middle" x="462.36" y="-132.75" font-family="Times,serif" font-size="14.00">load</text>
<polyline fill="none" stroke="black" points="485.86,-124.95 485.86,-170.95 "/>
<text text-anchor="middle" x="530.36" y="-151.75" font-family="Times,serif" font-size="14.00">register_7</text>
<text text-anchor="middle" x="530.36" y="-136.75" font-family="Times,serif" font-size="14.00">Register</text>
<polyline fill="none" stroke="black" points="574.86,-124.95 574.86,-170.95 "/>
<text text-anchor="middle" x="594.86" y="-144.25" font-family="Times,serif" font-size="14.00">out</text>
</g>
<!-- n10&#45;&gt;c38 -->
<g id="edge9" class="edge">
<title>n10:e&#45;&gt;c38:w</title>
<path fill="none" stroke="black" stroke-width="3" d="M402.86,-352.95C486.37,-352.95 363.09,-176.18 428.83,-160.99"/>
<polygon fill="black" stroke="black" stroke-width="3" points="429.27,-164.46 438.86,-159.95 428.55,-157.5 429.27,-164.46"/>
</g>
<!-- c39 -->
<g id="node30" class="node">
<title>c39</title>
<polygon fill="none" stroke="black" points="438.86,-59.95 438.86,-105.95 614.86,-105.95 614.86,-59.95 438.86,-59.95"/>
<text text-anchor="middle" x="462.36" y="-90.75" font-family="Times,serif" font-size="14.00">in</text>
<polyline fill="none" stroke="black" points="438.86,-82.95 485.86,-82.95 "/>
<text text-anchor="middle" x="462.36" y="-67.75" font-family="Times,serif" font-size="14.00">load</text>
<polyline fill="none" stroke="black" points="485.86,-59.95 485.86,-105.95 "/>
<text text-anchor="middle" x="530.36" y="-86.75" font-family="Times,serif" font-size="14.00">register_8</text>
<text text-anchor="middle" x="530.36" y="-71.75" font-family="Times,serif" font-size="14.00">Register</text>
<polyline fill="none" stroke="black" points="574.86,-59.95 574.86,-105.95 "/>
<text text-anchor="middle" x="594.86" y="-79.25" font-family="Times,serif" font-size="14.00">out</text>
</g>
<!-- n10&#45;&gt;c39 -->
<g id="edge10" class="edge">
<title>n10:e&#45;&gt;c39:w</title>
<path fill="none" stroke="black" stroke-width="3" d="M402.86,-352.95C456.9,-352.95 390.96,-128.08 429.07,-98.21"/>
<polygon fill="black" stroke="black" stroke-width="3" points="430.48,-101.43 438.86,-94.95 428.27,-94.79 430.48,-101.43"/>
</g>
<!-- n11 -->
<g id="node11" class="node">
<title>n11</title>
<polygon fill="none" stroke="black" points="375.28,-537.95 347.63,-519.95 375.28,-501.95 402.93,-519.95 375.28,-537.95"/>
<text text-anchor="middle" x="375.28" y="-516.25" font-family="Times,serif" font-size="14.00">l0</text>
</g>
<!-- n11&#45;&gt;c32 -->
<g id="edge12" class="edge">
<title>n11:e&#45;&gt;c32:w</title>
<path fill="none" stroke="black" d="M402.86,-519.95C415.02,-519.95 420.07,-523.32 428.67,-525.01"/>
<polygon fill="black" stroke="black" points="428.58,-528.52 438.86,-525.95 429.22,-521.55 428.58,-528.52"/>
</g>
<!-- n12 -->
<g id="node12" class="node">
<title>n12</title>
<polygon fill="none" stroke="black" points="375.28,-478.95 347.63,-460.95 375.28,-442.95 402.93,-460.95 375.28,-478.95"/>
<text text-anchor="middle" x="375.28" y="-457.25" font-family="Times,serif" font-size="14.00">l1</text>
</g>
<!-- n12&#45;&gt;c33 -->
<g id="edge14" class="edge">
<title>n12:e&#45;&gt;c33:w</title>
<path fill="none" stroke="black" d="M402.86,-460.95C414.86,-460.95 420.11,-460.95 428.73,-460.95"/>
<polygon fill="black" stroke="black" points="428.86,-464.45 438.86,-460.95 428.86,-457.45 428.86,-464.45"/>
</g>
<!-- n13 -->
<g id="node13" class="node">
<title>n13</title>
<polygon fill="none" stroke="black" points="375.28,-424.95 347.63,-406.95 375.28,-388.95 402.93,-406.95 375.28,-424.95"/>
<text text-anchor="middle" x="375.28" y="-403.25" font-family="Times,serif" font-size="14.00">l2</text>
</g>
<!-- n13&#45;&gt;c34 -->
<g id="edge16" class="edge">
<title>n13:e&#45;&gt;c34:w</title>
<path fill="none" stroke="black" d="M402.86,-406.95C415.54,-406.95 420.07,-400.63 428.8,-397.57"/>
<polygon fill="black" stroke="black" points="429.54,-401 438.86,-395.95 428.43,-394.09 429.54,-401"/>
</g>
<!-- n14 -->
<g id="node14" class="node">
<title>n14</title>
<polygon fill="none" stroke="black" points="375.28,-316.95 347.63,-298.95 375.28,-280.95 402.93,-298.95 375.28,-316.95"/>
<text text-anchor="middle" x="375.28" y="-295.25" font-family="Times,serif" font-size="14.00">l3</text>
</g>
<!-- n14&#45;&gt;c35 -->
<g id="edge18" class="edge">
<title>n14:e&#45;&gt;c35:w</title>
<path fill="none" stroke="black" d="M402.86,-298.95C420.09,-298.95 419.04,-319.67 429.13,-327.76"/>
<polygon fill="black" stroke="black" points="428.27,-331.17 438.86,-330.95 430.44,-324.51 428.27,-331.17"/>
</g>
<!-- n15 -->
<g id="node15" class="node">
<title>n15</title>
<polygon fill="none" stroke="black" points="375.28,-262.95 347.63,-244.95 375.28,-226.95 402.93,-244.95 375.28,-262.95"/>
<text text-anchor="middle" x="375.28" y="-241.25" font-family="Times,serif" font-size="14.00">l4</text>
</g>
<!-- n15&#45;&gt;c36 -->
<g id="edge20" class="edge">
<title>n15:e&#45;&gt;c36:w</title>
<path fill="none" stroke="black" d="M402.86,-244.95C417.33,-244.95 419.86,-257.77 429.1,-263.37"/>
<polygon fill="black" stroke="black" points="428.3,-266.78 438.86,-265.95 430.08,-260.01 428.3,-266.78"/>
</g>
<!-- n16 -->
<g id="node16" class="node">
<title>n16</title>
<polygon fill="none" stroke="black" points="375.28,-208.95 347.63,-190.95 375.28,-172.95 402.93,-190.95 375.28,-208.95"/>
<text text-anchor="middle" x="375.28" y="-187.25" font-family="Times,serif" font-size="14.00">l5</text>
</g>
<!-- n16&#45;&gt;c37 -->
<g id="edge22" class="edge">
<title>n16:e&#45;&gt;c37:w</title>
<path fill="none" stroke="black" d="M402.86,-190.95C415.44,-190.95 420.09,-196.69 428.83,-199.47"/>
<polygon fill="black" stroke="black" points="428.46,-202.96 438.86,-200.95 429.48,-196.03 428.46,-202.96"/>
</g>
<!-- n17 -->
<g id="node17" class="node">
<title>n17</title>
<polygon fill="none" stroke="black" points="375.28,-153.95 347.63,-135.95 375.28,-117.95 402.93,-135.95 375.28,-153.95"/>
<text text-anchor="middle" x="375.28" y="-132.25" font-family="Times,serif" font-size="14.00">l6</text>
</g>
<!-- n17&#45;&gt;c38 -->
<g id="edge24" class="edge">
<title>n17:e&#45;&gt;c38:w</title>
<path fill="none" stroke="black" d="M402.86,-135.95C414.86,-135.95 420.11,-135.95 428.73,-135.95"/>
<polygon fill="black" stroke="black" points="428.86,-139.45 438.86,-135.95 428.86,-132.45 428.86,-139.45"/>
</g>
<!-- n18 -->
<g id="node18" class="node">
<title>n18</title>
<polygon fill="none" stroke="black" points="375.28,-97.95 347.63,-79.95 375.28,-61.95 402.93,-79.95 375.28,-97.95"/>
<text text-anchor="middle" x="375.28" y="-76.25" font-family="Times,serif" font-size="14.00">l7</text>
</g>
<!-- n18&#45;&gt;c39 -->
<g id="edge26" class="edge">
<title>n18:e&#45;&gt;c39:w</title>
<path fill="none" stroke="black" d="M402.86,-79.95C415.36,-79.95 420.12,-74.78 428.87,-72.28"/>
<polygon fill="black" stroke="black" points="429.41,-75.74 438.86,-70.95 428.49,-68.8 429.41,-75.74"/>
</g>
<!-- n19 -->
<g id="node19" class="node">
<title>n19</title>
<polygon fill="none" stroke="black" points="84.48,-295.49 84.48,-310.41 65.08,-320.95 37.63,-320.95 18.23,-310.41 18.23,-295.49 37.63,-284.95 65.08,-284.95 84.48,-295.49"/>
<text text-anchor="middle" x="51.35" y="-299.25" font-family="Times,serif" font-size="14.00">load</text>
</g>
<!-- n19&#45;&gt;c30 -->
<g id="edge27" class="edge">
<title>n19:e&#45;&gt;c30:w</title>
<path fill="none" stroke="black" d="M85.35,-302.95C105.18,-302.95 112.57,-302.95 128.32,-302.95"/>
<polygon fill="black" stroke="black" points="128.71,-306.45 138.71,-302.95 128.71,-299.45 128.71,-306.45"/>
</g>
<!-- n20 -->
<g id="node20" class="node">
<title>n20</title>
<polygon fill="none" stroke="black" points="1072.71,-270.49 1072.71,-285.41 1056.14,-295.95 1032.72,-295.95 1016.15,-285.41 1016.15,-270.49 1032.72,-259.95 1056.14,-259.95 1072.71,-270.49"/>
<text text-anchor="middle" x="1044.43" y="-274.25" font-family="Times,serif" font-size="14.00">out</text>
</g>
<!-- c30&#45;&gt;n11 -->
<g id="edge11" class="edge">
<title>c30:e&#45;&gt;n11:w</title>
<path fill="none" stroke="black" d="M311.71,-337.95C390.3,-337.95 276.87,-503.29 337.46,-518.79"/>
<polygon fill="black" stroke="black" points="337.38,-522.3 347.71,-519.95 338.17,-515.34 337.38,-522.3"/>
</g>
<!-- c30&#45;&gt;n12 -->
<g id="edge13" class="edge">
<title>c30:e&#45;&gt;n12:w</title>
<path fill="none" stroke="black" d="M311.71,-314.95C374.63,-314.95 291.76,-444.34 337.59,-459.5"/>
<polygon fill="black" stroke="black" points="337.32,-463 347.71,-460.95 338.31,-456.07 337.32,-463"/>
</g>
<!-- c30&#45;&gt;n13 -->
<g id="edge15" class="edge">
<title>c30:e&#45;&gt;n13:w</title>
<path fill="none" stroke="black" d="M311.71,-291.95C361.29,-291.95 304.02,-390.51 337.74,-405.14"/>
<polygon fill="black" stroke="black" points="337.25,-408.61 347.71,-406.95 338.49,-401.72 337.25,-408.61"/>
</g>
<!-- c30&#45;&gt;n14 -->
<g id="edge17" class="edge">
<title>c30:e&#45;&gt;n14:w</title>
<path fill="none" stroke="black" d="M311.71,-268.95C328.47,-268.95 328.08,-288.38 338.14,-295.96"/>
<polygon fill="black" stroke="black" points="337.12,-299.31 347.71,-298.95 339.21,-292.63 337.12,-299.31"/>
</g>
<!-- c30&#45;&gt;n15 -->
<g id="edge19" class="edge">
<title>c30:e&#45;&gt;n15:w</title>
<path fill="none" stroke="black" d="M311.71,-244.95C323.71,-244.95 328.96,-244.95 337.58,-244.95"/>
<polygon fill="black" stroke="black" points="337.71,-248.45 347.71,-244.95 337.71,-241.45 337.71,-248.45"/>
</g>
<!-- c30&#45;&gt;n16 -->
<g id="edge21" class="edge">
<title>c30:e&#45;&gt;n16:w</title>
<path fill="none" stroke="black" d="M311.71,-221.95C328.7,-221.95 327.99,-201.88 338.06,-194.04"/>
<polygon fill="black" stroke="black" points="339.25,-197.33 347.71,-190.95 337.12,-190.66 339.25,-197.33"/>
</g>
<!-- c30&#45;&gt;n17 -->
<g id="edge23" class="edge">
<title>c30:e&#45;&gt;n17:w</title>
<path fill="none" stroke="black" d="M311.71,-198.95C339.68,-198.95 321.96,-151.57 337.79,-138.99"/>
<polygon fill="black" stroke="black" points="339.17,-142.22 347.71,-135.95 337.12,-135.53 339.17,-142.22"/>
</g>
<!-- c30&#45;&gt;n18 -->
<g id="edge25" class="edge">
<title>c30:e&#45;&gt;n18:w</title>
<path fill="none" stroke="black" d="M311.71,-175.95C353.18,-175.95 311.24,-96.42 337.72,-82.13"/>
<polygon fill="black" stroke="black" points="338.69,-85.51 347.71,-79.95 337.19,-78.67 338.69,-85.51"/>
</g>
<!-- c31&#45;&gt;n20 -->
<g id="edge30" class="edge">
<title>c31:e&#45;&gt;n20:w</title>
<path fill="none" stroke="black" stroke-width="3" d="M980.29,-277.95C992.29,-277.95 997.54,-277.95 1006.17,-277.95"/>
<polygon fill="black" stroke="black" stroke-width="3" points="1006.29,-281.45 1016.29,-277.95 1006.29,-274.45 1006.29,-281.45"/>
</g>
<!-- c32&#45;&gt;n1 -->
<g id="edge1" class="edge">
<title>c32:e&#45;&gt;n1:w</title>
<path fill="none" stroke="black" stroke-width="3" d="M614.86,-537.95C627.54,-537.95 632.07,-531.63 640.8,-528.57"/>
<polygon fill="black" stroke="black" stroke-width="3" points="641.54,-532 650.86,-526.95 640.43,-525.09 641.54,-532"/>
</g>
<!-- c33&#45;&gt;n2 -->
<g id="edge28" class="edge">
<title>c33:e&#45;&gt;n2:w</title>
<path fill="none" stroke="black" stroke-width="3" d="M614.86,-472.95C627.44,-472.95 632.09,-467.21 640.83,-464.42"/>
<polygon fill="black" stroke="black" stroke-width="3" points="641.48,-467.87 650.86,-462.95 640.46,-460.94 641.48,-467.87"/>
</g>
<!-- c34&#45;&gt;n3 -->
<g id="edge31" class="edge">
<title>c34:e&#45;&gt;n3:w</title>
<path fill="none" stroke="black" stroke-width="3" d="M614.86,-407.95C627.36,-407.95 632.12,-402.78 640.87,-400.28"/>
<polygon fill="black" stroke="black" stroke-width="3" points="641.41,-403.74 650.86,-398.95 640.49,-396.8 641.41,-403.74"/>
</g>
<!-- c35&#45;&gt;n4 -->
<g id="edge33" class="edge">
<title>c35:e&#45;&gt;n4:w</title>
<path fill="none" stroke="black" stroke-width="3" d="M614.86,-342.95C627.02,-342.95 632.07,-339.57 640.67,-337.89"/>
<polygon fill="black" stroke="black" stroke-width="3" points="641.22,-341.35 650.86,-336.95 640.58,-334.38 641.22,-341.35"/>
</g>
<!-- c36&#45;&gt;n5 -->
<g id="edge35" class="edge">
<title>c36:e&#45;&gt;n5:w</title>
<path fill="none" stroke="black" stroke-width="3" d="M614.86,-277.95C626.86,-277.95 632.11,-277.95 640.73,-277.95"/>
<polygon fill="black" stroke="black" stroke-width="3" points="640.86,-281.45 650.86,-277.95 640.86,-274.45 640.86,-281.45"/>
</g>
<!-- c37&#45;&gt;n6 -->
<g id="edge37" class="edge">
<title>c37:e&#45;&gt;n6:w</title>
<path fill="none" stroke="black" stroke-width="3" d="M614.86,-212.95C627.02,-212.95 632.07,-216.32 640.67,-218.01"/>
<polygon fill="black" stroke="black" stroke-width="3" points="640.58,-221.52 650.86,-218.95 641.22,-214.55 640.58,-221.52"/>
</g>
<!-- c38&#45;&gt;n7 -->
<g id="edge39" class="edge">
<title>c38:e&#45;&gt;n7:w</title>
<path fill="none" stroke="black" stroke-width="3" d="M614.86,-147.95C627.02,-147.95 632.07,-151.32 640.67,-153.01"/>
<polygon fill="black" stroke="black" stroke-width="3" points="640.58,-156.52 650.86,-153.95 641.22,-149.55 640.58,-156.52"/>
</g>
<!-- c39&#45;&gt;n8 -->
<g id="edge41" class="edge">
<title>c39:e&#45;&gt;n8:w</title>
<path fill="none" stroke="black" stroke-width="3" d="M614.86,-82.95C627.28,-82.95 632.14,-87.54 640.89,-89.77"/>
<polygon fill="black" stroke="black" stroke-width="3" points="640.52,-93.25 650.86,-90.95 641.34,-86.3 640.52,-93.25"/>
</g>
</g>
</svg>
