<?xml version="1.0" encoding="UTF-8" standalone="no"?>
<!DOCTYPE svg PUBLIC "-//W3C//DTD SVG 1.1//EN"
 "http://www.w3.org/Graphics/SVG/1.1/DTD/svg11.dtd">
<!-- Generated by graphviz version 2.43.0 (0)
 -->
<!-- Title: Register Pages: 1 -->
<svg width="660pt" height="1053pt"
 viewBox="0.00 0.00 660.28 1053.00" xmlns="http://www.w3.org/2000/svg" xmlns:xlink="http://www.w3.org/1999/xlink">
<g id="graph0" class="graph" transform="scale(1 1) rotate(0) translate(4 1049)">
<title>Register</title>
<polygon fill="white" stroke="transparent" points="-4,4 -4,-1049 656.28,-1049 656.28,4 -4,4"/>
<text text-anchor="middle" x="326.14" y="-7.8" font-family="Times,serif" font-size="14.00">Register</text>
<!-- n1 -->
<g id="node1" class="node">
<title>n1</title>
<polygon fill="none" stroke="black" points="54,-538.04 54,-552.96 38.18,-563.5 15.82,-563.5 0,-552.96 0,-538.04 15.82,-527.5 38.18,-527.5 54,-538.04"/>
<text text-anchor="middle" x="27" y="-541.8" font-family="Times,serif" font-size="14.00">in</text>
</g>
<!-- x0 -->
<g id="node5" class="node">
<title>x0</title>
<path fill="none" stroke="black" d="M106.5,-814.5C106.5,-814.5 198.5,-814.5 198.5,-814.5 204.5,-814.5 210.5,-820.5 210.5,-826.5 210.5,-826.5 210.5,-838.5 210.5,-838.5 210.5,-844.5 204.5,-850.5 198.5,-850.5 198.5,-850.5 106.5,-850.5 106.5,-850.5 100.5,-850.5 94.5,-844.5 94.5,-838.5 94.5,-838.5 94.5,-826.5 94.5,-826.5 94.5,-820.5 100.5,-814.5 106.5,-814.5"/>
<text text-anchor="middle" x="152.5" y="-828.8" font-family="Times,serif" font-size="14.00">slice [0] to [0]</text>
</g>
<!-- n1&#45;&gt;x0 -->
<g id="edge33" class="edge">
<title>n1:e&#45;&gt;x0:w</title>
<path fill="none" stroke="black" d="M54,-545.5C114.61,-545.5 39.05,-799.85 83.7,-829.66"/>
<polygon fill="black" stroke="black" points="82.92,-833.08 93.5,-832.5 84.87,-826.35 82.92,-833.08"/>
</g>
<!-- x2 -->
<g id="node8" class="node">
<title>x2</title>
<path fill="none" stroke="black" d="M106.5,-752.5C106.5,-752.5 198.5,-752.5 198.5,-752.5 204.5,-752.5 210.5,-758.5 210.5,-764.5 210.5,-764.5 210.5,-776.5 210.5,-776.5 210.5,-782.5 204.5,-788.5 198.5,-788.5 198.5,-788.5 106.5,-788.5 106.5,-788.5 100.5,-788.5 94.5,-782.5 94.5,-776.5 94.5,-776.5 94.5,-764.5 94.5,-764.5 94.5,-758.5 100.5,-752.5 106.5,-752.5"/>
<text text-anchor="middle" x="152.5" y="-766.8" font-family="Times,serif" font-size="14.00">slice [1] to [0]</text>
</g>
<!-- n1&#45;&gt;x2 -->
<g id="edge44" class="edge">
<title>n1:e&#45;&gt;x2:w</title>
<path fill="none" stroke="black" d="M54,-545.5C151.76,-545.5 3.74,-754.11 83.27,-769.59"/>
<polygon fill="black" stroke="black" points="83.23,-773.1 93.5,-770.5 83.85,-766.13 83.23,-773.1"/>
</g>
<!-- x4 -->
<g id="node11" class="node">
<title>x4</title>
<path fill="none" stroke="black" d="M102,-692.5C102,-692.5 203,-692.5 203,-692.5 209,-692.5 215,-698.5 215,-704.5 215,-704.5 215,-716.5 215,-716.5 215,-722.5 209,-728.5 203,-728.5 203,-728.5 102,-728.5 102,-728.5 96,-728.5 90,-722.5 90,-716.5 90,-716.5 90,-704.5 90,-704.5 90,-698.5 96,-692.5 102,-692.5"/>
<text text-anchor="middle" x="152.5" y="-706.8" font-family="Times,serif" font-size="14.00">slice [10] to [0]</text>
</g>
<!-- n1&#45;&gt;x4 -->
<g id="edge46" class="edge">
<title>n1:e&#45;&gt;x4:w</title>
<path fill="none" stroke="black" d="M54,-545.5C125.25,-545.5 26.04,-694.17 79.98,-709.27"/>
<polygon fill="black" stroke="black" points="79.65,-712.75 90,-710.5 80.5,-705.8 79.65,-712.75"/>
</g>
<!-- x6 -->
<g id="node14" class="node">
<title>x6</title>
<path fill="none" stroke="black" d="M102,-637.5C102,-637.5 203,-637.5 203,-637.5 209,-637.5 215,-643.5 215,-649.5 215,-649.5 215,-661.5 215,-661.5 215,-667.5 209,-673.5 203,-673.5 203,-673.5 102,-673.5 102,-673.5 96,-673.5 90,-667.5 90,-661.5 90,-661.5 90,-649.5 90,-649.5 90,-643.5 96,-637.5 102,-637.5"/>
<text text-anchor="middle" x="152.5" y="-651.8" font-family="Times,serif" font-size="14.00">slice [11] to [0]</text>
</g>
<!-- n1&#45;&gt;x6 -->
<g id="edge47" class="edge">
<title>n1:e&#45;&gt;x6:w</title>
<path fill="none" stroke="black" d="M54,-545.5C101.42,-545.5 48.29,-638.98 80,-653.59"/>
<polygon fill="black" stroke="black" points="79.52,-657.06 90,-655.5 80.83,-650.19 79.52,-657.06"/>
</g>
<!-- x8 -->
<g id="node17" class="node">
<title>x8</title>
<path fill="none" stroke="black" d="M102,-582.5C102,-582.5 203,-582.5 203,-582.5 209,-582.5 215,-588.5 215,-594.5 215,-594.5 215,-606.5 215,-606.5 215,-612.5 209,-618.5 203,-618.5 203,-618.5 102,-618.5 102,-618.5 96,-618.5 90,-612.5 90,-606.5 90,-606.5 90,-594.5 90,-594.5 90,-588.5 96,-582.5 102,-582.5"/>
<text text-anchor="middle" x="152.5" y="-596.8" font-family="Times,serif" font-size="14.00">slice [12] to [0]</text>
</g>
<!-- n1&#45;&gt;x8 -->
<g id="edge48" class="edge">
<title>n1:e&#45;&gt;x8:w</title>
<path fill="none" stroke="black" d="M54,-545.5C78.88,-545.5 66.31,-585.38 80.07,-597.22"/>
<polygon fill="black" stroke="black" points="79.41,-600.69 90,-600.5 81.6,-594.04 79.41,-600.69"/>
</g>
<!-- x10 -->
<g id="node20" class="node">
<title>x10</title>
<path fill="none" stroke="black" d="M102,-472.5C102,-472.5 203,-472.5 203,-472.5 209,-472.5 215,-478.5 215,-484.5 215,-484.5 215,-496.5 215,-496.5 215,-502.5 209,-508.5 203,-508.5 203,-508.5 102,-508.5 102,-508.5 96,-508.5 90,-502.5 90,-496.5 90,-496.5 90,-484.5 90,-484.5 90,-478.5 96,-472.5 102,-472.5"/>
<text text-anchor="middle" x="152.5" y="-486.8" font-family="Times,serif" font-size="14.00">slice [13] to [0]</text>
</g>
<!-- n1&#45;&gt;x10 -->
<g id="edge34" class="edge">
<title>n1:e&#45;&gt;x10:w</title>
<path fill="none" stroke="black" d="M54,-545.5C78.88,-545.5 66.31,-505.62 80.07,-493.78"/>
<polygon fill="black" stroke="black" points="81.6,-496.96 90,-490.5 79.41,-490.31 81.6,-496.96"/>
</g>
<!-- x12 -->
<g id="node23" class="node">
<title>x12</title>
<path fill="none" stroke="black" d="M102,-417.5C102,-417.5 203,-417.5 203,-417.5 209,-417.5 215,-423.5 215,-429.5 215,-429.5 215,-441.5 215,-441.5 215,-447.5 209,-453.5 203,-453.5 203,-453.5 102,-453.5 102,-453.5 96,-453.5 90,-447.5 90,-441.5 90,-441.5 90,-429.5 90,-429.5 90,-423.5 96,-417.5 102,-417.5"/>
<text text-anchor="middle" x="152.5" y="-431.8" font-family="Times,serif" font-size="14.00">slice [14] to [0]</text>
</g>
<!-- n1&#45;&gt;x12 -->
<g id="edge35" class="edge">
<title>n1:e&#45;&gt;x12:w</title>
<path fill="none" stroke="black" d="M54,-545.5C101.42,-545.5 48.29,-452.02 80,-437.41"/>
<polygon fill="black" stroke="black" points="80.83,-440.81 90,-435.5 79.52,-433.94 80.83,-440.81"/>
</g>
<!-- x14 -->
<g id="node26" class="node">
<title>x14</title>
<path fill="none" stroke="black" d="M102,-362.5C102,-362.5 203,-362.5 203,-362.5 209,-362.5 215,-368.5 215,-374.5 215,-374.5 215,-386.5 215,-386.5 215,-392.5 209,-398.5 203,-398.5 203,-398.5 102,-398.5 102,-398.5 96,-398.5 90,-392.5 90,-386.5 90,-386.5 90,-374.5 90,-374.5 90,-368.5 96,-362.5 102,-362.5"/>
<text text-anchor="middle" x="152.5" y="-376.8" font-family="Times,serif" font-size="14.00">slice [15] to [0]</text>
</g>
<!-- n1&#45;&gt;x14 -->
<g id="edge36" class="edge">
<title>n1:e&#45;&gt;x14:w</title>
<path fill="none" stroke="black" d="M54,-545.5C125.25,-545.5 26.04,-396.83 79.98,-381.73"/>
<polygon fill="black" stroke="black" points="80.5,-385.2 90,-380.5 79.65,-378.25 80.5,-385.2"/>
</g>
<!-- x16 -->
<g id="node29" class="node">
<title>x16</title>
<path fill="none" stroke="black" d="M106.5,-303.5C106.5,-303.5 198.5,-303.5 198.5,-303.5 204.5,-303.5 210.5,-309.5 210.5,-315.5 210.5,-315.5 210.5,-327.5 210.5,-327.5 210.5,-333.5 204.5,-339.5 198.5,-339.5 198.5,-339.5 106.5,-339.5 106.5,-339.5 100.5,-339.5 94.5,-333.5 94.5,-327.5 94.5,-327.5 94.5,-315.5 94.5,-315.5 94.5,-309.5 100.5,-303.5 106.5,-303.5"/>
<text text-anchor="middle" x="152.5" y="-317.8" font-family="Times,serif" font-size="14.00">slice [2] to [0]</text>
</g>
<!-- n1&#45;&gt;x16 -->
<g id="edge37" class="edge">
<title>n1:e&#45;&gt;x16:w</title>
<path fill="none" stroke="black" d="M54,-545.5C151.34,-545.5 4.12,-337.82 83.31,-322.4"/>
<polygon fill="black" stroke="black" points="83.85,-325.87 93.5,-321.5 83.23,-318.9 83.85,-325.87"/>
</g>
<!-- x18 -->
<g id="node32" class="node">
<title>x18</title>
<path fill="none" stroke="black" d="M106.5,-241.5C106.5,-241.5 198.5,-241.5 198.5,-241.5 204.5,-241.5 210.5,-247.5 210.5,-253.5 210.5,-253.5 210.5,-265.5 210.5,-265.5 210.5,-271.5 204.5,-277.5 198.5,-277.5 198.5,-277.5 106.5,-277.5 106.5,-277.5 100.5,-277.5 94.5,-271.5 94.5,-265.5 94.5,-265.5 94.5,-253.5 94.5,-253.5 94.5,-247.5 100.5,-241.5 106.5,-241.5"/>
<text text-anchor="middle" x="152.5" y="-255.8" font-family="Times,serif" font-size="14.00">slice [3] to [0]</text>
</g>
<!-- n1&#45;&gt;x18 -->
<g id="edge38" class="edge">
<title>n1:e&#45;&gt;x18:w</title>
<path fill="none" stroke="black" d="M54,-545.5C114.4,-545.5 39.22,-292.03 83.74,-262.33"/>
<polygon fill="black" stroke="black" points="84.87,-265.65 93.5,-259.5 82.92,-258.92 84.87,-265.65"/>
</g>
<!-- x20 -->
<g id="node35" class="node">
<title>x20</title>
<path fill="none" stroke="black" d="M106.5,-178.5C106.5,-178.5 198.5,-178.5 198.5,-178.5 204.5,-178.5 210.5,-184.5 210.5,-190.5 210.5,-190.5 210.5,-202.5 210.5,-202.5 210.5,-208.5 204.5,-214.5 198.5,-214.5 198.5,-214.5 106.5,-214.5 106.5,-214.5 100.5,-214.5 94.5,-208.5 94.5,-202.5 94.5,-202.5 94.5,-190.5 94.5,-190.5 94.5,-184.5 100.5,-178.5 106.5,-178.5"/>
<text text-anchor="middle" x="152.5" y="-192.8" font-family="Times,serif" font-size="14.00">slice [4] to [0]</text>
</g>
<!-- n1&#45;&gt;x20 -->
<g id="edge39" class="edge">
<title>n1:e&#45;&gt;x20:w</title>
<path fill="none" stroke="black" d="M54,-545.5C128.24,-545.5 26.37,-229.75 83.41,-198.91"/>
<polygon fill="black" stroke="black" points="84.59,-202.23 93.5,-196.5 82.96,-195.42 84.59,-202.23"/>
</g>
<!-- x22 -->
<g id="node38" class="node">
<title>x22</title>
<path fill="none" stroke="black" d="M106.5,-114.5C106.5,-114.5 198.5,-114.5 198.5,-114.5 204.5,-114.5 210.5,-120.5 210.5,-126.5 210.5,-126.5 210.5,-138.5 210.5,-138.5 210.5,-144.5 204.5,-150.5 198.5,-150.5 198.5,-150.5 106.5,-150.5 106.5,-150.5 100.5,-150.5 94.5,-144.5 94.5,-138.5 94.5,-138.5 94.5,-126.5 94.5,-126.5 94.5,-120.5 100.5,-114.5 106.5,-114.5"/>
<text text-anchor="middle" x="152.5" y="-128.8" font-family="Times,serif" font-size="14.00">slice [5] to [0]</text>
</g>
<!-- n1&#45;&gt;x22 -->
<g id="edge40" class="edge">
<title>n1:e&#45;&gt;x22:w</title>
<path fill="none" stroke="black" d="M54,-545.5C142.42,-545.5 12.79,-165.68 83.32,-134.53"/>
<polygon fill="black" stroke="black" points="84.38,-137.89 93.5,-132.5 83.01,-131.02 84.38,-137.89"/>
</g>
<!-- x24 -->
<g id="node41" class="node">
<title>x24</title>
<path fill="none" stroke="black" d="M106.5,-54.5C106.5,-54.5 198.5,-54.5 198.5,-54.5 204.5,-54.5 210.5,-60.5 210.5,-66.5 210.5,-66.5 210.5,-78.5 210.5,-78.5 210.5,-84.5 204.5,-90.5 198.5,-90.5 198.5,-90.5 106.5,-90.5 106.5,-90.5 100.5,-90.5 94.5,-84.5 94.5,-78.5 94.5,-78.5 94.5,-66.5 94.5,-66.5 94.5,-60.5 100.5,-54.5 106.5,-54.5"/>
<text text-anchor="middle" x="152.5" y="-68.8" font-family="Times,serif" font-size="14.00">slice [6] to [0]</text>
</g>
<!-- n1&#45;&gt;x24 -->
<g id="edge41" class="edge">
<title>n1:e&#45;&gt;x24:w</title>
<path fill="none" stroke="black" d="M54,-545.5C155.77,-545.5 -0.26,-105.17 83.38,-74.21"/>
<polygon fill="black" stroke="black" points="84.22,-77.62 93.5,-72.5 83.06,-70.72 84.22,-77.62"/>
</g>
<!-- x26 -->
<g id="node44" class="node">
<title>x26</title>
<path fill="none" stroke="black" d="M106.5,-1007.5C106.5,-1007.5 198.5,-1007.5 198.5,-1007.5 204.5,-1007.5 210.5,-1013.5 210.5,-1019.5 210.5,-1019.5 210.5,-1031.5 210.5,-1031.5 210.5,-1037.5 204.5,-1043.5 198.5,-1043.5 198.5,-1043.5 106.5,-1043.5 106.5,-1043.5 100.5,-1043.5 94.5,-1037.5 94.5,-1031.5 94.5,-1031.5 94.5,-1019.5 94.5,-1019.5 94.5,-1013.5 100.5,-1007.5 106.5,-1007.5"/>
<text text-anchor="middle" x="152.5" y="-1021.8" font-family="Times,serif" font-size="14.00">slice [7] to [0]</text>
</g>
<!-- n1&#45;&gt;x26 -->
<g id="edge42" class="edge">
<title>n1:e&#45;&gt;x26:w</title>
<path fill="none" stroke="black" d="M54,-545.5C104.17,-545.5 47.95,-967.38 84.83,-1020.11"/>
<polygon fill="black" stroke="black" points="83.16,-1023.19 93.5,-1025.5 86.85,-1017.25 83.16,-1023.19"/>
</g>
<!-- x28 -->
<g id="node47" class="node">
<title>x28</title>
<path fill="none" stroke="black" d="M106.5,-942.5C106.5,-942.5 198.5,-942.5 198.5,-942.5 204.5,-942.5 210.5,-948.5 210.5,-954.5 210.5,-954.5 210.5,-966.5 210.5,-966.5 210.5,-972.5 204.5,-978.5 198.5,-978.5 198.5,-978.5 106.5,-978.5 106.5,-978.5 100.5,-978.5 94.5,-972.5 94.5,-966.5 94.5,-966.5 94.5,-954.5 94.5,-954.5 94.5,-948.5 100.5,-942.5 106.5,-942.5"/>
<text text-anchor="middle" x="152.5" y="-956.8" font-family="Times,serif" font-size="14.00">slice [8] to [0]</text>
</g>
<!-- n1&#45;&gt;x28 -->
<g id="edge43" class="edge">
<title>n1:e&#45;&gt;x28:w</title>
<path fill="none" stroke="black" d="M54,-545.5C142.84,-545.5 12.42,-927.16 83.27,-958.46"/>
<polygon fill="black" stroke="black" points="83.01,-961.98 93.5,-960.5 84.38,-955.11 83.01,-961.98"/>
</g>
<!-- x30 -->
<g id="node50" class="node">
<title>x30</title>
<path fill="none" stroke="black" d="M106.5,-878.5C106.5,-878.5 198.5,-878.5 198.5,-878.5 204.5,-878.5 210.5,-884.5 210.5,-890.5 210.5,-890.5 210.5,-902.5 210.5,-902.5 210.5,-908.5 204.5,-914.5 198.5,-914.5 198.5,-914.5 106.5,-914.5 106.5,-914.5 100.5,-914.5 94.5,-908.5 94.5,-902.5 94.5,-902.5 94.5,-890.5 94.5,-890.5 94.5,-884.5 100.5,-878.5 106.5,-878.5"/>
<text text-anchor="middle" x="152.5" y="-892.8" font-family="Times,serif" font-size="14.00">slice [9] to [0]</text>
</g>
<!-- n1&#45;&gt;x30 -->
<g id="edge45" class="edge">
<title>n1:e&#45;&gt;x30:w</title>
<path fill="none" stroke="black" d="M54,-545.5C128.81,-545.5 25.59,-864.36 83.71,-894.26"/>
<polygon fill="black" stroke="black" points="82.97,-897.68 93.5,-896.5 84.53,-890.86 82.97,-897.68"/>
</g>
<!-- n2 -->
<g id="node2" class="node">
<title>n2</title>
<polygon fill="none" stroke="black" points="185.63,-538.04 185.63,-552.96 166.22,-563.5 138.78,-563.5 119.37,-552.96 119.37,-538.04 138.78,-527.5 166.22,-527.5 185.63,-538.04"/>
<text text-anchor="middle" x="152.5" y="-541.8" font-family="Times,serif" font-size="14.00">load</text>
</g>
<!-- c4 -->
<g id="node4" class="node">
<title>c4</title>
<polygon fill="none" stroke="black" points="255.5,-803.5 255.5,-849.5 394.5,-849.5 394.5,-803.5 255.5,-803.5"/>
<text text-anchor="middle" x="279" y="-834.3" font-family="Times,serif" font-size="14.00">in</text>
<polyline fill="none" stroke="black" points="255.5,-826.5 302.5,-826.5 "/>
<text text-anchor="middle" x="279" y="-811.3" font-family="Times,serif" font-size="14.00">load</text>
<polyline fill="none" stroke="black" points="302.5,-803.5 302.5,-849.5 "/>
<text text-anchor="middle" x="328.5" y="-830.3" font-family="Times,serif" font-size="14.00">bit_0</text>
<text text-anchor="middle" x="328.5" y="-815.3" font-family="Times,serif" font-size="14.00">Bit</text>
<polyline fill="none" stroke="black" points="354.5,-803.5 354.5,-849.5 "/>
<text text-anchor="middle" x="374.5" y="-822.8" font-family="Times,serif" font-size="14.00">out</text>
</g>
<!-- n2&#45;&gt;c4 -->
<g id="edge59" class="edge">
<title>n2:e&#45;&gt;c4:w</title>
<path fill="none" stroke="black" d="M186.5,-545.5C203.95,-545.5 206.85,-557.07 215,-572.5 238.66,-617.28 204.95,-787.96 243.87,-811.74"/>
<polygon fill="black" stroke="black" points="243.43,-815.25 254,-814.5 245.27,-808.5 243.43,-815.25"/>
</g>
<!-- c5 -->
<g id="node7" class="node">
<title>c5</title>
<polygon fill="none" stroke="black" points="255.5,-738.5 255.5,-784.5 394.5,-784.5 394.5,-738.5 255.5,-738.5"/>
<text text-anchor="middle" x="279" y="-769.3" font-family="Times,serif" font-size="14.00">in</text>
<polyline fill="none" stroke="black" points="255.5,-761.5 302.5,-761.5 "/>
<text text-anchor="middle" x="279" y="-746.3" font-family="Times,serif" font-size="14.00">load</text>
<polyline fill="none" stroke="black" points="302.5,-738.5 302.5,-784.5 "/>
<text text-anchor="middle" x="328.5" y="-765.3" font-family="Times,serif" font-size="14.00">bit_1</text>
<text text-anchor="middle" x="328.5" y="-750.3" font-family="Times,serif" font-size="14.00">Bit</text>
<polyline fill="none" stroke="black" points="354.5,-738.5 354.5,-784.5 "/>
<text text-anchor="middle" x="374.5" y="-757.8" font-family="Times,serif" font-size="14.00">out</text>
</g>
<!-- n2&#45;&gt;c5 -->
<g id="edge60" class="edge">
<title>n2:e&#45;&gt;c5:w</title>
<path fill="none" stroke="black" d="M186.5,-545.5C278.27,-545.5 167.81,-733.87 243.78,-748.59"/>
<polygon fill="black" stroke="black" points="243.73,-752.1 254,-749.5 244.35,-745.13 243.73,-752.1"/>
</g>
<!-- c6 -->
<g id="node10" class="node">
<title>c6</title>
<polygon fill="none" stroke="black" points="251,-673.5 251,-719.5 399,-719.5 399,-673.5 251,-673.5"/>
<text text-anchor="middle" x="274.5" y="-704.3" font-family="Times,serif" font-size="14.00">in</text>
<polyline fill="none" stroke="black" points="251,-696.5 298,-696.5 "/>
<text text-anchor="middle" x="274.5" y="-681.3" font-family="Times,serif" font-size="14.00">load</text>
<polyline fill="none" stroke="black" points="298,-673.5 298,-719.5 "/>
<text text-anchor="middle" x="328.5" y="-700.3" font-family="Times,serif" font-size="14.00">bit_10</text>
<text text-anchor="middle" x="328.5" y="-685.3" font-family="Times,serif" font-size="14.00">Bit</text>
<polyline fill="none" stroke="black" points="359,-673.5 359,-719.5 "/>
<text text-anchor="middle" x="379" y="-692.8" font-family="Times,serif" font-size="14.00">out</text>
</g>
<!-- n2&#45;&gt;c6 -->
<g id="edge61" class="edge">
<title>n2:e&#45;&gt;c6:w</title>
<path fill="none" stroke="black" d="M186.5,-545.5C250.88,-545.5 190.32,-669.71 241.04,-683.3"/>
<polygon fill="black" stroke="black" points="240.65,-686.78 251,-684.5 241.49,-679.83 240.65,-686.78"/>
</g>
<!-- c7 -->
<g id="node13" class="node">
<title>c7</title>
<polygon fill="none" stroke="black" points="251,-608.5 251,-654.5 399,-654.5 399,-608.5 251,-608.5"/>
<text text-anchor="middle" x="274.5" y="-639.3" font-family="Times,serif" font-size="14.00">in</text>
<polyline fill="none" stroke="black" points="251,-631.5 298,-631.5 "/>
<text text-anchor="middle" x="274.5" y="-616.3" font-family="Times,serif" font-size="14.00">load</text>
<polyline fill="none" stroke="black" points="298,-608.5 298,-654.5 "/>
<text text-anchor="middle" x="328.5" y="-635.3" font-family="Times,serif" font-size="14.00">bit_11</text>
<text text-anchor="middle" x="328.5" y="-620.3" font-family="Times,serif" font-size="14.00">Bit</text>
<polyline fill="none" stroke="black" points="359,-608.5 359,-654.5 "/>
<text text-anchor="middle" x="379" y="-627.8" font-family="Times,serif" font-size="14.00">out</text>
</g>
<!-- n2&#45;&gt;c7 -->
<g id="edge62" class="edge">
<title>n2:e&#45;&gt;c7:w</title>
<path fill="none" stroke="black" d="M186.5,-545.5C226.21,-545.5 210.92,-606.8 240.75,-617.82"/>
<polygon fill="black" stroke="black" points="240.56,-621.33 251,-619.5 241.7,-614.42 240.56,-621.33"/>
</g>
<!-- c8 -->
<g id="node16" class="node">
<title>c8</title>
<polygon fill="none" stroke="black" points="251,-543.5 251,-589.5 399,-589.5 399,-543.5 251,-543.5"/>
<text text-anchor="middle" x="274.5" y="-574.3" font-family="Times,serif" font-size="14.00">in</text>
<polyline fill="none" stroke="black" points="251,-566.5 298,-566.5 "/>
<text text-anchor="middle" x="274.5" y="-551.3" font-family="Times,serif" font-size="14.00">load</text>
<polyline fill="none" stroke="black" points="298,-543.5 298,-589.5 "/>
<text text-anchor="middle" x="328.5" y="-570.3" font-family="Times,serif" font-size="14.00">bit_12</text>
<text text-anchor="middle" x="328.5" y="-555.3" font-family="Times,serif" font-size="14.00">Bit</text>
<polyline fill="none" stroke="black" points="359,-543.5 359,-589.5 "/>
<text text-anchor="middle" x="379" y="-562.8" font-family="Times,serif" font-size="14.00">out</text>
</g>
<!-- n2&#45;&gt;c8 -->
<g id="edge63" class="edge">
<title>n2:e&#45;&gt;c8:w</title>
<path fill="none" stroke="black" d="M186.5,-545.5C211.71,-545.5 219.98,-552.33 240.82,-554.09"/>
<polygon fill="black" stroke="black" points="240.87,-557.59 251,-554.5 241.15,-550.6 240.87,-557.59"/>
</g>
<!-- c9 -->
<g id="node19" class="node">
<title>c9</title>
<polygon fill="none" stroke="black" points="251,-478.5 251,-524.5 399,-524.5 399,-478.5 251,-478.5"/>
<text text-anchor="middle" x="274.5" y="-509.3" font-family="Times,serif" font-size="14.00">in</text>
<polyline fill="none" stroke="black" points="251,-501.5 298,-501.5 "/>
<text text-anchor="middle" x="274.5" y="-486.3" font-family="Times,serif" font-size="14.00">load</text>
<polyline fill="none" stroke="black" points="298,-478.5 298,-524.5 "/>
<text text-anchor="middle" x="328.5" y="-505.3" font-family="Times,serif" font-size="14.00">bit_13</text>
<text text-anchor="middle" x="328.5" y="-490.3" font-family="Times,serif" font-size="14.00">Bit</text>
<polyline fill="none" stroke="black" points="359,-478.5 359,-524.5 "/>
<text text-anchor="middle" x="379" y="-497.8" font-family="Times,serif" font-size="14.00">out</text>
</g>
<!-- n2&#45;&gt;c9 -->
<g id="edge64" class="edge">
<title>n2:e&#45;&gt;c9:w</title>
<path fill="none" stroke="black" d="M186.5,-545.5C220.61,-545.5 214.85,-500.3 240.86,-491.12"/>
<polygon fill="black" stroke="black" points="241.68,-494.53 251,-489.5 240.57,-487.62 241.68,-494.53"/>
</g>
<!-- c10 -->
<g id="node22" class="node">
<title>c10</title>
<polygon fill="none" stroke="black" points="251,-413.5 251,-459.5 399,-459.5 399,-413.5 251,-413.5"/>
<text text-anchor="middle" x="274.5" y="-444.3" font-family="Times,serif" font-size="14.00">in</text>
<polyline fill="none" stroke="black" points="251,-436.5 298,-436.5 "/>
<text text-anchor="middle" x="274.5" y="-421.3" font-family="Times,serif" font-size="14.00">load</text>
<polyline fill="none" stroke="black" points="298,-413.5 298,-459.5 "/>
<text text-anchor="middle" x="328.5" y="-440.3" font-family="Times,serif" font-size="14.00">bit_14</text>
<text text-anchor="middle" x="328.5" y="-425.3" font-family="Times,serif" font-size="14.00">Bit</text>
<polyline fill="none" stroke="black" points="359,-413.5 359,-459.5 "/>
<text text-anchor="middle" x="379" y="-432.8" font-family="Times,serif" font-size="14.00">out</text>
</g>
<!-- n2&#45;&gt;c10 -->
<g id="edge49" class="edge">
<title>n2:e&#45;&gt;c10:w</title>
<path fill="none" stroke="black" d="M186.5,-545.5C243.63,-545.5 196.77,-439.15 240.9,-425.86"/>
<polygon fill="black" stroke="black" points="241.56,-429.3 251,-424.5 240.62,-422.37 241.56,-429.3"/>
</g>
<!-- c11 -->
<g id="node25" class="node">
<title>c11</title>
<polygon fill="none" stroke="black" points="251,-348.5 251,-394.5 399,-394.5 399,-348.5 251,-348.5"/>
<text text-anchor="middle" x="274.5" y="-379.3" font-family="Times,serif" font-size="14.00">in</text>
<polyline fill="none" stroke="black" points="251,-371.5 298,-371.5 "/>
<text text-anchor="middle" x="274.5" y="-356.3" font-family="Times,serif" font-size="14.00">load</text>
<polyline fill="none" stroke="black" points="298,-348.5 298,-394.5 "/>
<text text-anchor="middle" x="328.5" y="-375.3" font-family="Times,serif" font-size="14.00">bit_15</text>
<text text-anchor="middle" x="328.5" y="-360.3" font-family="Times,serif" font-size="14.00">Bit</text>
<polyline fill="none" stroke="black" points="359,-348.5 359,-394.5 "/>
<text text-anchor="middle" x="379" y="-367.8" font-family="Times,serif" font-size="14.00">out</text>
</g>
<!-- n2&#45;&gt;c11 -->
<g id="edge50" class="edge">
<title>n2:e&#45;&gt;c11:w</title>
<path fill="none" stroke="black" d="M186.5,-545.5C204.26,-545.5 206.34,-533 215,-517.5 248.25,-457.93 186.18,-369.44 240.76,-360.27"/>
<polygon fill="black" stroke="black" points="241.29,-363.74 251,-359.5 240.76,-356.76 241.29,-363.74"/>
</g>
<!-- c12 -->
<g id="node28" class="node">
<title>c12</title>
<polygon fill="none" stroke="black" points="255.5,-283.5 255.5,-329.5 394.5,-329.5 394.5,-283.5 255.5,-283.5"/>
<text text-anchor="middle" x="279" y="-314.3" font-family="Times,serif" font-size="14.00">in</text>
<polyline fill="none" stroke="black" points="255.5,-306.5 302.5,-306.5 "/>
<text text-anchor="middle" x="279" y="-291.3" font-family="Times,serif" font-size="14.00">load</text>
<polyline fill="none" stroke="black" points="302.5,-283.5 302.5,-329.5 "/>
<text text-anchor="middle" x="328.5" y="-310.3" font-family="Times,serif" font-size="14.00">bit_2</text>
<text text-anchor="middle" x="328.5" y="-295.3" font-family="Times,serif" font-size="14.00">Bit</text>
<polyline fill="none" stroke="black" points="354.5,-283.5 354.5,-329.5 "/>
<text text-anchor="middle" x="374.5" y="-302.8" font-family="Times,serif" font-size="14.00">out</text>
</g>
<!-- n2&#45;&gt;c12 -->
<g id="edge51" class="edge">
<title>n2:e&#45;&gt;c12:w</title>
<path fill="none" stroke="black" d="M186.5,-545.5C204.26,-545.5 206.74,-533.22 215,-517.5 236.66,-476.27 208.52,-320.25 244.14,-297.32"/>
<polygon fill="black" stroke="black" points="245.35,-300.62 254,-294.5 243.42,-293.89 245.35,-300.62"/>
</g>
<!-- c13 -->
<g id="node31" class="node">
<title>c13</title>
<polygon fill="none" stroke="black" points="255.5,-218.5 255.5,-264.5 394.5,-264.5 394.5,-218.5 255.5,-218.5"/>
<text text-anchor="middle" x="279" y="-249.3" font-family="Times,serif" font-size="14.00">in</text>
<polyline fill="none" stroke="black" points="255.5,-241.5 302.5,-241.5 "/>
<text text-anchor="middle" x="279" y="-226.3" font-family="Times,serif" font-size="14.00">load</text>
<polyline fill="none" stroke="black" points="302.5,-218.5 302.5,-264.5 "/>
<text text-anchor="middle" x="328.5" y="-245.3" font-family="Times,serif" font-size="14.00">bit_3</text>
<text text-anchor="middle" x="328.5" y="-230.3" font-family="Times,serif" font-size="14.00">Bit</text>
<polyline fill="none" stroke="black" points="354.5,-218.5 354.5,-264.5 "/>
<text text-anchor="middle" x="374.5" y="-237.8" font-family="Times,serif" font-size="14.00">out</text>
</g>
<!-- n2&#45;&gt;c13 -->
<g id="edge52" class="edge">
<title>n2:e&#45;&gt;c13:w</title>
<path fill="none" stroke="black" d="M186.5,-545.5C204.26,-545.5 207.05,-533.38 215,-517.5 242.29,-463.03 195.32,-255.03 244.14,-231.64"/>
<polygon fill="black" stroke="black" points="244.97,-235.04 254,-229.5 243.48,-228.2 244.97,-235.04"/>
</g>
<!-- c14 -->
<g id="node34" class="node">
<title>c14</title>
<polygon fill="none" stroke="black" points="255.5,-153.5 255.5,-199.5 394.5,-199.5 394.5,-153.5 255.5,-153.5"/>
<text text-anchor="middle" x="279" y="-184.3" font-family="Times,serif" font-size="14.00">in</text>
<polyline fill="none" stroke="black" points="255.5,-176.5 302.5,-176.5 "/>
<text text-anchor="middle" x="279" y="-161.3" font-family="Times,serif" font-size="14.00">load</text>
<polyline fill="none" stroke="black" points="302.5,-153.5 302.5,-199.5 "/>
<text text-anchor="middle" x="328.5" y="-180.3" font-family="Times,serif" font-size="14.00">bit_4</text>
<text text-anchor="middle" x="328.5" y="-165.3" font-family="Times,serif" font-size="14.00">Bit</text>
<polyline fill="none" stroke="black" points="354.5,-153.5 354.5,-199.5 "/>
<text text-anchor="middle" x="374.5" y="-172.8" font-family="Times,serif" font-size="14.00">out</text>
</g>
<!-- n2&#45;&gt;c14 -->
<g id="edge53" class="edge">
<title>n2:e&#45;&gt;c14:w</title>
<path fill="none" stroke="black" d="M186.5,-545.5C268.79,-545.5 176.64,-196.54 243.94,-166.55"/>
<polygon fill="black" stroke="black" points="244.9,-169.93 254,-164.5 243.5,-163.07 244.9,-169.93"/>
</g>
<!-- c15 -->
<g id="node37" class="node">
<title>c15</title>
<polygon fill="none" stroke="black" points="255.5,-88.5 255.5,-134.5 394.5,-134.5 394.5,-88.5 255.5,-88.5"/>
<text text-anchor="middle" x="279" y="-119.3" font-family="Times,serif" font-size="14.00">in</text>
<polyline fill="none" stroke="black" points="255.5,-111.5 302.5,-111.5 "/>
<text text-anchor="middle" x="279" y="-96.3" font-family="Times,serif" font-size="14.00">load</text>
<polyline fill="none" stroke="black" points="302.5,-88.5 302.5,-134.5 "/>
<text text-anchor="middle" x="328.5" y="-115.3" font-family="Times,serif" font-size="14.00">bit_5</text>
<text text-anchor="middle" x="328.5" y="-100.3" font-family="Times,serif" font-size="14.00">Bit</text>
<polyline fill="none" stroke="black" points="354.5,-88.5 354.5,-134.5 "/>
<text text-anchor="middle" x="374.5" y="-107.8" font-family="Times,serif" font-size="14.00">out</text>
</g>
<!-- n2&#45;&gt;c15 -->
<g id="edge54" class="edge">
<title>n2:e&#45;&gt;c15:w</title>
<path fill="none" stroke="black" d="M186.5,-545.5C204.26,-545.5 207.38,-533.54 215,-517.5 233.61,-478.33 211.01,-150.71 245.22,-104.83"/>
<polygon fill="black" stroke="black" points="247.27,-107.68 254,-99.5 243.64,-101.7 247.27,-107.68"/>
</g>
<!-- c16 -->
<g id="node40" class="node">
<title>c16</title>
<polygon fill="none" stroke="black" points="255.5,-23.5 255.5,-69.5 394.5,-69.5 394.5,-23.5 255.5,-23.5"/>
<text text-anchor="middle" x="279" y="-54.3" font-family="Times,serif" font-size="14.00">in</text>
<polyline fill="none" stroke="black" points="255.5,-46.5 302.5,-46.5 "/>
<text text-anchor="middle" x="279" y="-31.3" font-family="Times,serif" font-size="14.00">load</text>
<polyline fill="none" stroke="black" points="302.5,-23.5 302.5,-69.5 "/>
<text text-anchor="middle" x="328.5" y="-50.3" font-family="Times,serif" font-size="14.00">bit_6</text>
<text text-anchor="middle" x="328.5" y="-35.3" font-family="Times,serif" font-size="14.00">Bit</text>
<polyline fill="none" stroke="black" points="354.5,-23.5 354.5,-69.5 "/>
<text text-anchor="middle" x="374.5" y="-42.8" font-family="Times,serif" font-size="14.00">out</text>
</g>
<!-- n2&#45;&gt;c16 -->
<g id="edge55" class="edge">
<title>n2:e&#45;&gt;c16:w</title>
<path fill="none" stroke="black" d="M186.5,-545.5C204.26,-545.5 207.48,-533.59 215,-517.5 236.38,-471.78 204.63,-87.27 244.94,-39.39"/>
<polygon fill="black" stroke="black" points="246.86,-42.33 254,-34.5 243.54,-36.17 246.86,-42.33"/>
</g>
<!-- c17 -->
<g id="node43" class="node">
<title>c17</title>
<polygon fill="none" stroke="black" points="255.5,-998.5 255.5,-1044.5 394.5,-1044.5 394.5,-998.5 255.5,-998.5"/>
<text text-anchor="middle" x="279" y="-1029.3" font-family="Times,serif" font-size="14.00">in</text>
<polyline fill="none" stroke="black" points="255.5,-1021.5 302.5,-1021.5 "/>
<text text-anchor="middle" x="279" y="-1006.3" font-family="Times,serif" font-size="14.00">load</text>
<polyline fill="none" stroke="black" points="302.5,-998.5 302.5,-1044.5 "/>
<text text-anchor="middle" x="328.5" y="-1025.3" font-family="Times,serif" font-size="14.00">bit_7</text>
<text text-anchor="middle" x="328.5" y="-1010.3" font-family="Times,serif" font-size="14.00">Bit</text>
<polyline fill="none" stroke="black" points="354.5,-998.5 354.5,-1044.5 "/>
<text text-anchor="middle" x="374.5" y="-1017.8" font-family="Times,serif" font-size="14.00">out</text>
</g>
<!-- n2&#45;&gt;c17 -->
<g id="edge56" class="edge">
<title>n2:e&#45;&gt;c17:w</title>
<path fill="none" stroke="black" d="M186.5,-545.5C203.95,-545.5 207.42,-556.78 215,-572.5 234.77,-613.5 209.13,-958.83 245.3,-1004.52"/>
<polygon fill="black" stroke="black" points="243.58,-1007.57 254,-1009.5 247.06,-1001.49 243.58,-1007.57"/>
</g>
<!-- c18 -->
<g id="node46" class="node">
<title>c18</title>
<polygon fill="none" stroke="black" points="255.5,-933.5 255.5,-979.5 394.5,-979.5 394.5,-933.5 255.5,-933.5"/>
<text text-anchor="middle" x="279" y="-964.3" font-family="Times,serif" font-size="14.00">in</text>
<polyline fill="none" stroke="black" points="255.5,-956.5 302.5,-956.5 "/>
<text text-anchor="middle" x="279" y="-941.3" font-family="Times,serif" font-size="14.00">load</text>
<polyline fill="none" stroke="black" points="302.5,-933.5 302.5,-979.5 "/>
<text text-anchor="middle" x="328.5" y="-960.3" font-family="Times,serif" font-size="14.00">bit_8</text>
<text text-anchor="middle" x="328.5" y="-945.3" font-family="Times,serif" font-size="14.00">Bit</text>
<polyline fill="none" stroke="black" points="354.5,-933.5 354.5,-979.5 "/>
<text text-anchor="middle" x="374.5" y="-952.8" font-family="Times,serif" font-size="14.00">out</text>
</g>
<!-- n2&#45;&gt;c18 -->
<g id="edge57" class="edge">
<title>n2:e&#45;&gt;c18:w</title>
<path fill="none" stroke="black" d="M186.5,-545.5C272.74,-545.5 172.95,-912.44 243.93,-942.54"/>
<polygon fill="black" stroke="black" points="243.52,-946.03 254,-944.5 244.85,-939.16 243.52,-946.03"/>
</g>
<!-- c19 -->
<g id="node49" class="node">
<title>c19</title>
<polygon fill="none" stroke="black" points="255.5,-868.5 255.5,-914.5 394.5,-914.5 394.5,-868.5 255.5,-868.5"/>
<text text-anchor="middle" x="279" y="-899.3" font-family="Times,serif" font-size="14.00">in</text>
<polyline fill="none" stroke="black" points="255.5,-891.5 302.5,-891.5 "/>
<text text-anchor="middle" x="279" y="-876.3" font-family="Times,serif" font-size="14.00">load</text>
<polyline fill="none" stroke="black" points="302.5,-868.5 302.5,-914.5 "/>
<text text-anchor="middle" x="328.5" y="-895.3" font-family="Times,serif" font-size="14.00">bit_9</text>
<text text-anchor="middle" x="328.5" y="-880.3" font-family="Times,serif" font-size="14.00">Bit</text>
<polyline fill="none" stroke="black" points="354.5,-868.5 354.5,-914.5 "/>
<text text-anchor="middle" x="374.5" y="-887.8" font-family="Times,serif" font-size="14.00">out</text>
</g>
<!-- n2&#45;&gt;c19 -->
<g id="edge58" class="edge">
<title>n2:e&#45;&gt;c19:w</title>
<path fill="none" stroke="black" d="M186.5,-545.5C203.95,-545.5 207.12,-556.93 215,-572.5 244.43,-630.62 191.39,-854.1 244.17,-877.51"/>
<polygon fill="black" stroke="black" points="243.5,-880.95 254,-879.5 244.89,-874.09 243.5,-880.95"/>
</g>
<!-- n3 -->
<g id="node3" class="node">
<title>n3</title>
<polygon fill="none" stroke="black" points="652.42,-523.04 652.42,-537.96 635.85,-548.5 612.43,-548.5 595.86,-537.96 595.86,-523.04 612.43,-512.5 635.85,-512.5 652.42,-523.04"/>
<text text-anchor="middle" x="624.14" y="-526.8" font-family="Times,serif" font-size="14.00">out</text>
</g>
<!-- x1 -->
<g id="node6" class="node">
<title>x1</title>
<path fill="none" stroke="black" d="M451.5,-800.5C451.5,-800.5 543.5,-800.5 543.5,-800.5 549.5,-800.5 555.5,-806.5 555.5,-812.5 555.5,-812.5 555.5,-824.5 555.5,-824.5 555.5,-830.5 549.5,-836.5 543.5,-836.5 543.5,-836.5 451.5,-836.5 451.5,-836.5 445.5,-836.5 439.5,-830.5 439.5,-824.5 439.5,-824.5 439.5,-812.5 439.5,-812.5 439.5,-806.5 445.5,-800.5 451.5,-800.5"/>
<text text-anchor="middle" x="497.5" y="-814.8" font-family="Times,serif" font-size="14.00">slice [0] to [0]</text>
</g>
<!-- c4&#45;&gt;x1 -->
<g id="edge2" class="edge">
<title>c4:e&#45;&gt;x1:w</title>
<path fill="none" stroke="black" d="M408.05,-825.25C414.71,-823.77 419.53,-821.33 426.14,-819.82"/>
<polygon fill="none" stroke="black" points="407.94,-825.26 402.38,-829.86 396,-826.5 401.56,-821.9 407.94,-825.26"/>
<polygon fill="none" stroke="black" points="426.57,-819.78 432.11,-815.16 438.5,-818.5 432.96,-823.11 426.57,-819.78"/>
</g>
<!-- x0&#45;&gt;c4 -->
<g id="edge1" class="edge">
<title>x0:e&#45;&gt;c4:w</title>
<path fill="none" stroke="black" d="M223.51,-833.44C230.18,-834.54 235.06,-836.38 241.68,-837.51"/>
<polygon fill="none" stroke="black" points="223.46,-833.43 217.17,-836.96 211.5,-832.5 217.79,-828.98 223.46,-833.43"/>
<polygon fill="none" stroke="black" points="242.04,-837.54 248.34,-834.03 254,-838.5 247.7,-842.01 242.04,-837.54"/>
</g>
<!-- x1&#45;&gt;n3 -->
<g id="edge70" class="edge">
<title>x1:e&#45;&gt;n3:w</title>
<path fill="none" stroke="black" d="M556.5,-818.5C617.31,-818.5 541.38,-563.26 586.17,-533.35"/>
<polygon fill="black" stroke="black" points="587.37,-536.65 596,-530.5 585.42,-529.92 587.37,-536.65"/>
</g>
<!-- x3 -->
<g id="node9" class="node">
<title>x3</title>
<path fill="none" stroke="black" d="M451.5,-735.5C451.5,-735.5 543.5,-735.5 543.5,-735.5 549.5,-735.5 555.5,-741.5 555.5,-747.5 555.5,-747.5 555.5,-759.5 555.5,-759.5 555.5,-765.5 549.5,-771.5 543.5,-771.5 543.5,-771.5 451.5,-771.5 451.5,-771.5 445.5,-771.5 439.5,-765.5 439.5,-759.5 439.5,-759.5 439.5,-747.5 439.5,-747.5 439.5,-741.5 445.5,-735.5 451.5,-735.5"/>
<text text-anchor="middle" x="497.5" y="-749.8" font-family="Times,serif" font-size="14.00">slice [0] to [1]</text>
</g>
<!-- c5&#45;&gt;x3 -->
<g id="edge4" class="edge">
<title>c5:e&#45;&gt;x3:w</title>
<path fill="none" stroke="black" d="M408.05,-760.25C414.71,-758.77 419.53,-756.33 426.14,-754.82"/>
<polygon fill="none" stroke="black" points="407.94,-760.26 402.38,-764.86 396,-761.5 401.56,-756.9 407.94,-760.26"/>
<polygon fill="none" stroke="black" points="426.57,-754.78 432.11,-750.16 438.5,-753.5 432.96,-758.11 426.57,-754.78"/>
</g>
<!-- x2&#45;&gt;c5 -->
<g id="edge3" class="edge">
<title>x2:e&#45;&gt;c5:w</title>
<path fill="none" stroke="black" d="M223.78,-771C230.34,-771.55 235.25,-772.46 241.83,-773.01"/>
<polygon fill="none" stroke="black" points="223.49,-770.98 217.33,-774.74 211.5,-770.5 217.66,-766.75 223.49,-770.98"/>
<polygon fill="none" stroke="black" points="242.01,-773.02 248.16,-769.26 254,-773.5 247.85,-777.26 242.01,-773.02"/>
</g>
<!-- x3&#45;&gt;n3 -->
<g id="edge77" class="edge">
<title>x3:e&#45;&gt;n3:w</title>
<path fill="none" stroke="black" d="M556.5,-753.5C653.42,-753.5 506.99,-546.74 585.85,-531.4"/>
<polygon fill="black" stroke="black" points="586.35,-534.87 596,-530.5 585.73,-527.9 586.35,-534.87"/>
</g>
<!-- x5 -->
<g id="node12" class="node">
<title>x5</title>
<path fill="none" stroke="black" d="M447,-671.5C447,-671.5 548,-671.5 548,-671.5 554,-671.5 560,-677.5 560,-683.5 560,-683.5 560,-695.5 560,-695.5 560,-701.5 554,-707.5 548,-707.5 548,-707.5 447,-707.5 447,-707.5 441,-707.5 435,-701.5 435,-695.5 435,-695.5 435,-683.5 435,-683.5 435,-677.5 441,-671.5 447,-671.5"/>
<text text-anchor="middle" x="497.5" y="-685.8" font-family="Times,serif" font-size="14.00">slice [0] to [10]</text>
</g>
<!-- c6&#45;&gt;x5 -->
<g id="edge6" class="edge">
<title>c6:e&#45;&gt;x5:w</title>
<path fill="none" stroke="black" d="M411.04,-694.95C415.27,-693.79 418.74,-692.21 422.98,-691.05"/>
<polygon fill="none" stroke="black" points="410.9,-694.96 405.46,-699.7 399,-696.5 404.44,-691.76 410.9,-694.96"/>
<polygon fill="none" stroke="black" points="423.1,-691.03 428.54,-686.3 435,-689.5 429.56,-694.23 423.1,-691.03"/>
</g>
<!-- x4&#45;&gt;c6 -->
<g id="edge5" class="edge">
<title>x4:e&#45;&gt;c6:w</title>
<path fill="none" stroke="black" d="M227.22,-710.04C231.3,-709.71 234.73,-709.28 238.81,-708.96"/>
<polygon fill="none" stroke="black" points="226.99,-710.04 221.15,-714.27 215,-710.5 220.84,-706.28 226.99,-710.04"/>
<polygon fill="none" stroke="black" points="239.01,-708.95 244.85,-704.73 251,-708.5 245.16,-712.72 239.01,-708.95"/>
</g>
<!-- x5&#45;&gt;n3 -->
<g id="edge78" class="edge">
<title>x5:e&#45;&gt;n3:w</title>
<path fill="none" stroke="black" d="M560,-689.5C628.63,-689.5 534.53,-546.83 586,-531.78"/>
<polygon fill="black" stroke="black" points="586.53,-535.24 596,-530.5 585.64,-528.3 586.53,-535.24"/>
</g>
<!-- x7 -->
<g id="node15" class="node">
<title>x7</title>
<path fill="none" stroke="black" d="M447,-607.5C447,-607.5 548,-607.5 548,-607.5 554,-607.5 560,-613.5 560,-619.5 560,-619.5 560,-631.5 560,-631.5 560,-637.5 554,-643.5 548,-643.5 548,-643.5 447,-643.5 447,-643.5 441,-643.5 435,-637.5 435,-631.5 435,-631.5 435,-619.5 435,-619.5 435,-613.5 441,-607.5 447,-607.5"/>
<text text-anchor="middle" x="497.5" y="-621.8" font-family="Times,serif" font-size="14.00">slice [0] to [11]</text>
</g>
<!-- c7&#45;&gt;x7 -->
<g id="edge8" class="edge">
<title>c7:e&#45;&gt;x7:w</title>
<path fill="none" stroke="black" d="M411.02,-630.17C415.26,-629.17 418.75,-627.82 423,-626.83"/>
<polygon fill="none" stroke="black" points="410.93,-630.18 405.4,-634.81 399,-631.5 404.52,-626.86 410.93,-630.18"/>
<polygon fill="none" stroke="black" points="423.07,-626.82 428.6,-622.18 435,-625.5 429.48,-630.14 423.07,-626.82"/>
</g>
<!-- x6&#45;&gt;c7 -->
<g id="edge7" class="edge">
<title>x6:e&#45;&gt;c7:w</title>
<path fill="none" stroke="black" d="M226.93,-652.96C231.3,-650.92 234.7,-648.08 239.08,-646.04"/>
<polygon fill="none" stroke="black" points="226.74,-653 221.7,-658.16 215,-655.5 220.03,-650.34 226.74,-653"/>
<polygon fill="none" stroke="black" points="239.26,-646 244.3,-640.84 251,-643.5 245.97,-648.66 239.26,-646"/>
</g>
<!-- x7&#45;&gt;n3 -->
<g id="edge79" class="edge">
<title>x7:e&#45;&gt;n3:w</title>
<path fill="none" stroke="black" d="M560,-625.5C601.1,-625.5 559.8,-546.8 586.09,-532.66"/>
<polygon fill="black" stroke="black" points="586.98,-536.05 596,-530.5 585.48,-529.21 586.98,-536.05"/>
</g>
<!-- x9 -->
<g id="node18" class="node">
<title>x9</title>
<path fill="none" stroke="black" d="M447,-545.5C447,-545.5 548,-545.5 548,-545.5 554,-545.5 560,-551.5 560,-557.5 560,-557.5 560,-569.5 560,-569.5 560,-575.5 554,-581.5 548,-581.5 548,-581.5 447,-581.5 447,-581.5 441,-581.5 435,-575.5 435,-569.5 435,-569.5 435,-557.5 435,-557.5 435,-551.5 441,-545.5 447,-545.5"/>
<text text-anchor="middle" x="497.5" y="-559.8" font-family="Times,serif" font-size="14.00">slice [0] to [12]</text>
</g>
<!-- c8&#45;&gt;x9 -->
<g id="edge10" class="edge">
<title>c8:e&#45;&gt;x9:w</title>
<path fill="none" stroke="black" d="M411.23,-565.8C415.3,-565.32 418.73,-564.68 422.8,-564.19"/>
<polygon fill="none" stroke="black" points="410.98,-565.82 405.22,-570.15 399,-566.5 404.76,-562.17 410.98,-565.82"/>
<polygon fill="none" stroke="black" points="423.02,-564.18 428.78,-559.85 435,-563.5 429.24,-567.83 423.02,-564.18"/>
</g>
<!-- x8&#45;&gt;c8 -->
<g id="edge9" class="edge">
<title>x8:e&#45;&gt;c8:w</title>
<path fill="none" stroke="black" d="M226.41,-596.67C231.39,-592.73 234.37,-586.62 239.27,-582.59"/>
<polygon fill="none" stroke="black" points="226.38,-596.68 221.96,-602.38 215,-600.5 219.41,-594.8 226.38,-596.68"/>
<polygon fill="none" stroke="black" points="239.67,-582.45 244.02,-576.7 251,-578.5 246.65,-584.25 239.67,-582.45"/>
</g>
<!-- x9&#45;&gt;n3 -->
<g id="edge80" class="edge">
<title>x9:e&#45;&gt;n3:w</title>
<path fill="none" stroke="black" d="M560,-563.5C577.47,-563.5 576.08,-542.13 586.18,-533.78"/>
<polygon fill="black" stroke="black" points="587.63,-536.99 596,-530.5 585.41,-530.35 587.63,-536.99"/>
</g>
<!-- x11 -->
<g id="node21" class="node">
<title>x11</title>
<path fill="none" stroke="black" d="M447,-485.5C447,-485.5 548,-485.5 548,-485.5 554,-485.5 560,-491.5 560,-497.5 560,-497.5 560,-509.5 560,-509.5 560,-515.5 554,-521.5 548,-521.5 548,-521.5 447,-521.5 447,-521.5 441,-521.5 435,-515.5 435,-509.5 435,-509.5 435,-497.5 435,-497.5 435,-491.5 441,-485.5 447,-485.5"/>
<text text-anchor="middle" x="497.5" y="-499.8" font-family="Times,serif" font-size="14.00">slice [0] to [13]</text>
</g>
<!-- c9&#45;&gt;x11 -->
<g id="edge12" class="edge">
<title>c9:e&#45;&gt;x11:w</title>
<path fill="none" stroke="black" d="M411.22,-501.96C415.3,-502.29 418.73,-502.72 422.81,-503.04"/>
<polygon fill="none" stroke="black" points="410.99,-501.96 404.84,-505.72 399,-501.5 405.15,-497.73 410.99,-501.96"/>
<polygon fill="none" stroke="black" points="423.01,-503.05 429.16,-499.28 435,-503.5 428.85,-507.27 423.01,-503.05"/>
</g>
<!-- x10&#45;&gt;c9 -->
<g id="edge11" class="edge">
<title>x10:e&#45;&gt;c9:w</title>
<path fill="none" stroke="black" d="M226.48,-494.51C231.56,-498.73 234.48,-505.34 239.58,-509.54"/>
<polygon fill="none" stroke="black" points="226.33,-494.45 219.35,-496.25 215,-490.5 221.98,-488.7 226.33,-494.45"/>
<polygon fill="none" stroke="black" points="239.66,-509.57 246.64,-507.76 251,-513.5 244.02,-515.31 239.66,-509.57"/>
</g>
<!-- x11&#45;&gt;n3 -->
<g id="edge65" class="edge">
<title>x11:e&#45;&gt;n3:w</title>
<path fill="none" stroke="black" d="M560,-503.5C575.94,-503.5 576.63,-520.65 586.38,-527.61"/>
<polygon fill="black" stroke="black" points="585.42,-530.98 596,-530.5 587.43,-524.27 585.42,-530.98"/>
</g>
<!-- x13 -->
<g id="node24" class="node">
<title>x13</title>
<path fill="none" stroke="black" d="M447,-424.5C447,-424.5 548,-424.5 548,-424.5 554,-424.5 560,-430.5 560,-436.5 560,-436.5 560,-448.5 560,-448.5 560,-454.5 554,-460.5 548,-460.5 548,-460.5 447,-460.5 447,-460.5 441,-460.5 435,-454.5 435,-448.5 435,-448.5 435,-436.5 435,-436.5 435,-430.5 441,-424.5 447,-424.5"/>
<text text-anchor="middle" x="497.5" y="-438.8" font-family="Times,serif" font-size="14.00">slice [0] to [14]</text>
</g>
<!-- c10&#45;&gt;x13 -->
<g id="edge14" class="edge">
<title>c10:e&#45;&gt;x13:w</title>
<path fill="none" stroke="black" d="M411.02,-437.83C415.26,-438.83 418.75,-440.18 423,-441.17"/>
<polygon fill="none" stroke="black" points="410.93,-437.82 404.52,-441.14 399,-436.5 405.4,-433.19 410.93,-437.82"/>
<polygon fill="none" stroke="black" points="423.07,-441.18 429.48,-437.86 435,-442.5 428.6,-445.82 423.07,-441.18"/>
</g>
<!-- x12&#45;&gt;c10 -->
<g id="edge13" class="edge">
<title>x12:e&#45;&gt;c10:w</title>
<path fill="none" stroke="black" d="M226.71,-438.13C231.16,-440.33 234.54,-443.45 238.94,-445.69"/>
<polygon fill="none" stroke="black" points="226.71,-438.13 219.98,-440.72 215,-435.5 221.73,-432.91 226.71,-438.13"/>
<polygon fill="none" stroke="black" points="239.31,-445.78 246.06,-443.24 251,-448.5 244.25,-451.04 239.31,-445.78"/>
</g>
<!-- x13&#45;&gt;n3 -->
<g id="edge66" class="edge">
<title>x13:e&#45;&gt;n3:w</title>
<path fill="none" stroke="black" d="M560,-442.5C598.13,-442.5 562.35,-514.15 586.05,-528.15"/>
<polygon fill="black" stroke="black" points="585.46,-531.6 596,-530.5 587.07,-524.79 585.46,-531.6"/>
</g>
<!-- x15 -->
<g id="node27" class="node">
<title>x15</title>
<path fill="none" stroke="black" d="M447,-361.5C447,-361.5 548,-361.5 548,-361.5 554,-361.5 560,-367.5 560,-373.5 560,-373.5 560,-385.5 560,-385.5 560,-391.5 554,-397.5 548,-397.5 548,-397.5 447,-397.5 447,-397.5 441,-397.5 435,-391.5 435,-385.5 435,-385.5 435,-373.5 435,-373.5 435,-367.5 441,-361.5 447,-361.5"/>
<text text-anchor="middle" x="497.5" y="-375.8" font-family="Times,serif" font-size="14.00">slice [0] to [15]</text>
</g>
<!-- c11&#45;&gt;x15 -->
<g id="edge16" class="edge">
<title>c11:e&#45;&gt;x15:w</title>
<path fill="none" stroke="black" d="M411.06,-373.28C415.29,-374.6 418.73,-376.4 422.96,-377.73"/>
<polygon fill="none" stroke="black" points="410.87,-373.25 404.35,-376.33 399,-371.5 405.52,-368.42 410.87,-373.25"/>
<polygon fill="none" stroke="black" points="423.13,-377.75 429.65,-374.67 435,-379.5 428.48,-382.58 423.13,-377.75"/>
</g>
<!-- x14&#45;&gt;c11 -->
<g id="edge15" class="edge">
<title>x14:e&#45;&gt;c11:w</title>
<path fill="none" stroke="black" d="M227.23,-381.2C231.3,-381.68 234.73,-382.32 238.8,-382.81"/>
<polygon fill="none" stroke="black" points="226.98,-381.18 220.76,-384.83 215,-380.5 221.22,-376.85 226.98,-381.18"/>
<polygon fill="none" stroke="black" points="239.02,-382.82 245.24,-379.17 251,-383.5 244.78,-387.15 239.02,-382.82"/>
</g>
<!-- x15&#45;&gt;n3 -->
<g id="edge67" class="edge">
<title>x15:e&#45;&gt;n3:w</title>
<path fill="none" stroke="black" d="M560,-379.5C625.08,-379.5 538.01,-513.88 585.86,-529.1"/>
<polygon fill="black" stroke="black" points="585.62,-532.6 596,-530.5 586.57,-525.67 585.62,-532.6"/>
</g>
<!-- x17 -->
<g id="node30" class="node">
<title>x17</title>
<path fill="none" stroke="black" d="M451.5,-297.5C451.5,-297.5 543.5,-297.5 543.5,-297.5 549.5,-297.5 555.5,-303.5 555.5,-309.5 555.5,-309.5 555.5,-321.5 555.5,-321.5 555.5,-327.5 549.5,-333.5 543.5,-333.5 543.5,-333.5 451.5,-333.5 451.5,-333.5 445.5,-333.5 439.5,-327.5 439.5,-321.5 439.5,-321.5 439.5,-309.5 439.5,-309.5 439.5,-303.5 445.5,-297.5 451.5,-297.5"/>
<text text-anchor="middle" x="497.5" y="-311.8" font-family="Times,serif" font-size="14.00">slice [0] to [2]</text>
</g>
<!-- c12&#45;&gt;x17 -->
<g id="edge18" class="edge">
<title>c12:e&#45;&gt;x17:w</title>
<path fill="none" stroke="black" d="M408.07,-307.91C414.73,-309.57 419.52,-312.32 426.11,-314.01"/>
<polygon fill="none" stroke="black" points="407.92,-307.89 401.5,-311.17 396,-306.5 402.42,-303.22 407.92,-307.89"/>
<polygon fill="none" stroke="black" points="426.59,-314.07 433.02,-310.81 438.5,-315.5 432.07,-318.76 426.59,-314.07"/>
</g>
<!-- x16&#45;&gt;c12 -->
<g id="edge17" class="edge">
<title>x16:e&#45;&gt;c12:w</title>
<path fill="none" stroke="black" d="M223.78,-321C230.34,-320.45 235.25,-319.54 241.83,-318.99"/>
<polygon fill="none" stroke="black" points="223.49,-321.02 217.66,-325.25 211.5,-321.5 217.33,-317.26 223.49,-321.02"/>
<polygon fill="none" stroke="black" points="242.01,-318.98 247.85,-314.74 254,-318.5 248.16,-322.74 242.01,-318.98"/>
</g>
<!-- x17&#45;&gt;n3 -->
<g id="edge68" class="edge">
<title>x17:e&#45;&gt;n3:w</title>
<path fill="none" stroke="black" d="M556.5,-315.5C649.86,-315.5 510.56,-514.03 585.74,-529.54"/>
<polygon fill="black" stroke="black" points="585.72,-533.05 596,-530.5 586.37,-526.09 585.72,-533.05"/>
</g>
<!-- x19 -->
<g id="node33" class="node">
<title>x19</title>
<path fill="none" stroke="black" d="M451.5,-232.5C451.5,-232.5 543.5,-232.5 543.5,-232.5 549.5,-232.5 555.5,-238.5 555.5,-244.5 555.5,-244.5 555.5,-256.5 555.5,-256.5 555.5,-262.5 549.5,-268.5 543.5,-268.5 543.5,-268.5 451.5,-268.5 451.5,-268.5 445.5,-268.5 439.5,-262.5 439.5,-256.5 439.5,-256.5 439.5,-244.5 439.5,-244.5 439.5,-238.5 445.5,-232.5 451.5,-232.5"/>
<text text-anchor="middle" x="497.5" y="-246.8" font-family="Times,serif" font-size="14.00">slice [0] to [3]</text>
</g>
<!-- c13&#45;&gt;x19 -->
<g id="edge20" class="edge">
<title>c13:e&#45;&gt;x19:w</title>
<path fill="none" stroke="black" d="M408.07,-242.91C414.73,-244.57 419.52,-247.32 426.11,-249.01"/>
<polygon fill="none" stroke="black" points="407.92,-242.89 401.5,-246.17 396,-241.5 402.42,-238.22 407.92,-242.89"/>
<polygon fill="none" stroke="black" points="426.59,-249.07 433.02,-245.81 438.5,-250.5 432.07,-253.76 426.59,-249.07"/>
</g>
<!-- x18&#45;&gt;c13 -->
<g id="edge19" class="edge">
<title>x18:e&#45;&gt;c13:w</title>
<path fill="none" stroke="black" d="M223.51,-258.56C230.18,-257.46 235.06,-255.62 241.68,-254.49"/>
<polygon fill="none" stroke="black" points="223.46,-258.57 217.79,-263.02 211.5,-259.5 217.17,-255.04 223.46,-258.57"/>
<polygon fill="none" stroke="black" points="242.04,-254.46 247.7,-249.99 254,-253.5 248.34,-257.97 242.04,-254.46"/>
</g>
<!-- x19&#45;&gt;n3 -->
<g id="edge69" class="edge">
<title>x19:e&#45;&gt;n3:w</title>
<path fill="none" stroke="black" d="M556.5,-250.5C615.53,-250.5 543.05,-497.62 586.16,-527.54"/>
<polygon fill="black" stroke="black" points="585.42,-530.98 596,-530.5 587.43,-524.27 585.42,-530.98"/>
</g>
<!-- x21 -->
<g id="node36" class="node">
<title>x21</title>
<path fill="none" stroke="black" d="M451.5,-167.5C451.5,-167.5 543.5,-167.5 543.5,-167.5 549.5,-167.5 555.5,-173.5 555.5,-179.5 555.5,-179.5 555.5,-191.5 555.5,-191.5 555.5,-197.5 549.5,-203.5 543.5,-203.5 543.5,-203.5 451.5,-203.5 451.5,-203.5 445.5,-203.5 439.5,-197.5 439.5,-191.5 439.5,-191.5 439.5,-179.5 439.5,-179.5 439.5,-173.5 445.5,-167.5 451.5,-167.5"/>
<text text-anchor="middle" x="497.5" y="-181.8" font-family="Times,serif" font-size="14.00">slice [0] to [4]</text>
</g>
<!-- c14&#45;&gt;x21 -->
<g id="edge22" class="edge">
<title>c14:e&#45;&gt;x21:w</title>
<path fill="none" stroke="black" d="M408.07,-177.91C414.73,-179.57 419.52,-182.32 426.11,-184.01"/>
<polygon fill="none" stroke="black" points="407.92,-177.89 401.5,-181.17 396,-176.5 402.42,-173.22 407.92,-177.89"/>
<polygon fill="none" stroke="black" points="426.59,-184.07 433.02,-180.81 438.5,-185.5 432.07,-188.76 426.59,-184.07"/>
</g>
<!-- x20&#45;&gt;c14 -->
<g id="edge21" class="edge">
<title>x20:e&#45;&gt;c14:w</title>
<path fill="none" stroke="black" d="M223.55,-195.25C230.21,-193.77 235.03,-191.33 241.64,-189.82"/>
<polygon fill="none" stroke="black" points="223.44,-195.26 217.88,-199.86 211.5,-196.5 217.06,-191.9 223.44,-195.26"/>
<polygon fill="none" stroke="black" points="242.07,-189.78 247.61,-185.16 254,-188.5 248.46,-193.11 242.07,-189.78"/>
</g>
<!-- x21&#45;&gt;n3 -->
<g id="edge71" class="edge">
<title>x21:e&#45;&gt;n3:w</title>
<path fill="none" stroke="black" d="M556.5,-185.5C629.9,-185.5 529.59,-497.63 586.02,-528.11"/>
<polygon fill="black" stroke="black" points="585.46,-531.58 596,-530.5 587.09,-524.77 585.46,-531.58"/>
</g>
<!-- x23 -->
<g id="node39" class="node">
<title>x23</title>
<path fill="none" stroke="black" d="M451.5,-102.5C451.5,-102.5 543.5,-102.5 543.5,-102.5 549.5,-102.5 555.5,-108.5 555.5,-114.5 555.5,-114.5 555.5,-126.5 555.5,-126.5 555.5,-132.5 549.5,-138.5 543.5,-138.5 543.5,-138.5 451.5,-138.5 451.5,-138.5 445.5,-138.5 439.5,-132.5 439.5,-126.5 439.5,-126.5 439.5,-114.5 439.5,-114.5 439.5,-108.5 445.5,-102.5 451.5,-102.5"/>
<text text-anchor="middle" x="497.5" y="-116.8" font-family="Times,serif" font-size="14.00">slice [0] to [5]</text>
</g>
<!-- c15&#45;&gt;x23 -->
<g id="edge24" class="edge">
<title>c15:e&#45;&gt;x23:w</title>
<path fill="none" stroke="black" d="M408.07,-112.91C414.73,-114.57 419.52,-117.32 426.11,-119.01"/>
<polygon fill="none" stroke="black" points="407.92,-112.89 401.5,-116.17 396,-111.5 402.42,-108.22 407.92,-112.89"/>
<polygon fill="none" stroke="black" points="426.59,-119.07 433.02,-115.81 438.5,-120.5 432.07,-123.76 426.59,-119.07"/>
</g>
<!-- x22&#45;&gt;c15 -->
<g id="edge23" class="edge">
<title>x22:e&#45;&gt;c15:w</title>
<path fill="none" stroke="black" d="M223.57,-131.09C230.23,-129.43 235.02,-126.68 241.61,-124.99"/>
<polygon fill="none" stroke="black" points="223.42,-131.11 217.92,-135.78 211.5,-132.5 217,-127.83 223.42,-131.11"/>
<polygon fill="none" stroke="black" points="242.09,-124.93 247.57,-120.24 254,-123.5 248.52,-128.19 242.09,-124.93"/>
</g>
<!-- x23&#45;&gt;n3 -->
<g id="edge72" class="edge">
<title>x23:e&#45;&gt;n3:w</title>
<path fill="none" stroke="black" d="M556.5,-120.5C644.28,-120.5 515.85,-497.56 585.89,-528.49"/>
<polygon fill="black" stroke="black" points="585.51,-531.98 596,-530.5 586.88,-525.11 585.51,-531.98"/>
</g>
<!-- x25 -->
<g id="node42" class="node">
<title>x25</title>
<path fill="none" stroke="black" d="M451.5,-42.5C451.5,-42.5 543.5,-42.5 543.5,-42.5 549.5,-42.5 555.5,-48.5 555.5,-54.5 555.5,-54.5 555.5,-66.5 555.5,-66.5 555.5,-72.5 549.5,-78.5 543.5,-78.5 543.5,-78.5 451.5,-78.5 451.5,-78.5 445.5,-78.5 439.5,-72.5 439.5,-66.5 439.5,-66.5 439.5,-54.5 439.5,-54.5 439.5,-48.5 445.5,-42.5 451.5,-42.5"/>
<text text-anchor="middle" x="497.5" y="-56.8" font-family="Times,serif" font-size="14.00">slice [0] to [6]</text>
</g>
<!-- c16&#45;&gt;x25 -->
<g id="edge26" class="edge">
<title>c16:e&#45;&gt;x25:w</title>
<path fill="none" stroke="black" d="M407.92,-48.57C414.84,-51.18 419.46,-55.67 426.32,-58.33"/>
<polygon fill="none" stroke="black" points="407.82,-48.55 401.23,-51.47 396,-46.5 402.6,-43.58 407.82,-48.55"/>
<polygon fill="none" stroke="black" points="426.69,-58.4 433.29,-55.51 438.5,-60.5 431.89,-63.39 426.69,-58.4"/>
</g>
<!-- x24&#45;&gt;c16 -->
<g id="edge25" class="edge">
<title>x24:e&#45;&gt;c16:w</title>
<path fill="none" stroke="black" d="M223.42,-70.43C230.34,-67.82 234.96,-63.33 241.82,-60.67"/>
<polygon fill="none" stroke="black" points="223.32,-70.45 218.1,-75.42 211.5,-72.5 216.73,-67.53 223.32,-70.45"/>
<polygon fill="none" stroke="black" points="242.19,-60.6 247.39,-55.61 254,-58.5 248.79,-63.49 242.19,-60.6"/>
</g>
<!-- x25&#45;&gt;n3 -->
<g id="edge73" class="edge">
<title>x25:e&#45;&gt;n3:w</title>
<path fill="none" stroke="black" d="M556.5,-60.5C657.63,-60.5 502.81,-498.03 585.94,-528.8"/>
<polygon fill="black" stroke="black" points="585.56,-532.28 596,-530.5 586.72,-525.38 585.56,-532.28"/>
</g>
<!-- x27 -->
<g id="node45" class="node">
<title>x27</title>
<path fill="none" stroke="black" d="M451.5,-995.5C451.5,-995.5 543.5,-995.5 543.5,-995.5 549.5,-995.5 555.5,-1001.5 555.5,-1007.5 555.5,-1007.5 555.5,-1019.5 555.5,-1019.5 555.5,-1025.5 549.5,-1031.5 543.5,-1031.5 543.5,-1031.5 451.5,-1031.5 451.5,-1031.5 445.5,-1031.5 439.5,-1025.5 439.5,-1019.5 439.5,-1019.5 439.5,-1007.5 439.5,-1007.5 439.5,-1001.5 445.5,-995.5 451.5,-995.5"/>
<text text-anchor="middle" x="497.5" y="-1009.8" font-family="Times,serif" font-size="14.00">slice [0] to [7]</text>
</g>
<!-- c17&#45;&gt;x27 -->
<g id="edge28" class="edge">
<title>c17:e&#45;&gt;x27:w</title>
<path fill="none" stroke="black" d="M408.05,-1020.25C414.71,-1018.77 419.53,-1016.33 426.14,-1014.82"/>
<polygon fill="none" stroke="black" points="407.94,-1020.26 402.38,-1024.86 396,-1021.5 401.56,-1016.9 407.94,-1020.26"/>
<polygon fill="none" stroke="black" points="426.57,-1014.78 432.11,-1010.16 438.5,-1013.5 432.96,-1018.11 426.57,-1014.78"/>
</g>
<!-- x26&#45;&gt;c17 -->
<g id="edge27" class="edge">
<title>x26:e&#45;&gt;c17:w</title>
<path fill="none" stroke="black" d="M223.55,-1026.75C230.21,-1028.23 235.03,-1030.67 241.64,-1032.18"/>
<polygon fill="none" stroke="black" points="223.44,-1026.74 217.06,-1030.1 211.5,-1025.5 217.88,-1022.14 223.44,-1026.74"/>
<polygon fill="none" stroke="black" points="242.07,-1032.22 248.46,-1028.89 254,-1033.5 247.61,-1036.84 242.07,-1032.22"/>
</g>
<!-- x27&#45;&gt;n3 -->
<g id="edge74" class="edge">
<title>x27:e&#45;&gt;n3:w</title>
<path fill="none" stroke="black" d="M556.5,-1013.5C606.98,-1013.5 550.2,-588.99 587.27,-535.92"/>
<polygon fill="black" stroke="black" points="589.36,-538.75 596,-530.5 585.66,-532.81 589.36,-538.75"/>
</g>
<!-- x29 -->
<g id="node48" class="node">
<title>x29</title>
<path fill="none" stroke="black" d="M451.5,-930.5C451.5,-930.5 543.5,-930.5 543.5,-930.5 549.5,-930.5 555.5,-936.5 555.5,-942.5 555.5,-942.5 555.5,-954.5 555.5,-954.5 555.5,-960.5 549.5,-966.5 543.5,-966.5 543.5,-966.5 451.5,-966.5 451.5,-966.5 445.5,-966.5 439.5,-960.5 439.5,-954.5 439.5,-954.5 439.5,-942.5 439.5,-942.5 439.5,-936.5 445.5,-930.5 451.5,-930.5"/>
<text text-anchor="middle" x="497.5" y="-944.8" font-family="Times,serif" font-size="14.00">slice [0] to [8]</text>
</g>
<!-- c18&#45;&gt;x29 -->
<g id="edge30" class="edge">
<title>c18:e&#45;&gt;x29:w</title>
<path fill="none" stroke="black" d="M408.05,-955.25C414.71,-953.77 419.53,-951.33 426.14,-949.82"/>
<polygon fill="none" stroke="black" points="407.94,-955.26 402.38,-959.86 396,-956.5 401.56,-951.9 407.94,-955.26"/>
<polygon fill="none" stroke="black" points="426.57,-949.78 432.11,-945.16 438.5,-948.5 432.96,-953.11 426.57,-949.78"/>
</g>
<!-- x28&#45;&gt;c18 -->
<g id="edge29" class="edge">
<title>x28:e&#45;&gt;c18:w</title>
<path fill="none" stroke="black" d="M223.55,-961.75C230.21,-963.23 235.03,-965.67 241.64,-967.18"/>
<polygon fill="none" stroke="black" points="223.44,-961.74 217.06,-965.1 211.5,-960.5 217.88,-957.14 223.44,-961.74"/>
<polygon fill="none" stroke="black" points="242.07,-967.22 248.46,-963.89 254,-968.5 247.61,-971.84 242.07,-967.22"/>
</g>
<!-- x29&#45;&gt;n3 -->
<g id="edge75" class="edge">
<title>x29:e&#45;&gt;n3:w</title>
<path fill="none" stroke="black" d="M556.5,-948.5C646.16,-948.5 513.82,-562.52 586.14,-532.36"/>
<polygon fill="black" stroke="black" points="586.82,-535.8 596,-530.5 585.52,-528.92 586.82,-535.8"/>
</g>
<!-- x31 -->
<g id="node51" class="node">
<title>x31</title>
<path fill="none" stroke="black" d="M451.5,-865.5C451.5,-865.5 543.5,-865.5 543.5,-865.5 549.5,-865.5 555.5,-871.5 555.5,-877.5 555.5,-877.5 555.5,-889.5 555.5,-889.5 555.5,-895.5 549.5,-901.5 543.5,-901.5 543.5,-901.5 451.5,-901.5 451.5,-901.5 445.5,-901.5 439.5,-895.5 439.5,-889.5 439.5,-889.5 439.5,-877.5 439.5,-877.5 439.5,-871.5 445.5,-865.5 451.5,-865.5"/>
<text text-anchor="middle" x="497.5" y="-879.8" font-family="Times,serif" font-size="14.00">slice [0] to [9]</text>
</g>
<!-- c19&#45;&gt;x31 -->
<g id="edge32" class="edge">
<title>c19:e&#45;&gt;x31:w</title>
<path fill="none" stroke="black" d="M408.05,-890.25C414.71,-888.77 419.53,-886.33 426.14,-884.82"/>
<polygon fill="none" stroke="black" points="407.94,-890.26 402.38,-894.86 396,-891.5 401.56,-886.9 407.94,-890.26"/>
<polygon fill="none" stroke="black" points="426.57,-884.78 432.11,-880.16 438.5,-883.5 432.96,-888.11 426.57,-884.78"/>
</g>
<!-- x30&#45;&gt;c19 -->
<g id="edge31" class="edge">
<title>x30:e&#45;&gt;c19:w</title>
<path fill="none" stroke="black" d="M223.52,-897.59C230.19,-898.89 235.05,-901.03 241.66,-902.34"/>
<polygon fill="none" stroke="black" points="223.45,-897.59 217.11,-901.03 211.5,-896.5 217.84,-893.06 223.45,-897.59"/>
<polygon fill="none" stroke="black" points="242.05,-902.38 248.4,-898.96 254,-903.5 247.65,-906.92 242.05,-902.38"/>
</g>
<!-- x31&#45;&gt;n3 -->
<g id="edge76" class="edge">
<title>x31:e&#45;&gt;n3:w</title>
<path fill="none" stroke="black" d="M556.5,-883.5C631.73,-883.5 527.73,-562.82 586.16,-532.75"/>
<polygon fill="black" stroke="black" points="587.03,-536.14 596,-530.5 585.47,-529.32 587.03,-536.14"/>
</g>
</g>
</svg>
