<?xml version="1.0" encoding="UTF-8" standalone="no"?>
<!DOCTYPE svg PUBLIC "-//W3C//DTD SVG 1.1//EN"
 "http://www.w3.org/Graphics/SVG/1.1/DTD/svg11.dtd">
<!-- Generated by graphviz version 2.43.0 (0)
 -->
<!-- Title: Not Pages: 1 -->
<svg width="324pt" height="78pt"
 viewBox="0.00 0.00 324.28 78.00" xmlns="http://www.w3.org/2000/svg" xmlns:xlink="http://www.w3.org/1999/xlink">
<g id="graph0" class="graph" transform="scale(1 1) rotate(0) translate(4 74)">
<title>Not</title>
<polygon fill="white" stroke="transparent" points="-4,4 -4,-74 320.28,-74 320.28,4 -4,4"/>
<text text-anchor="middle" x="158.14" y="-7.8" font-family="Times,serif" font-size="14.00">Not</text>
<!-- n1 -->
<g id="node1" class="node">
<title>n1</title>
<polygon fill="none" stroke="black" points="54,-39.04 54,-53.96 38.18,-64.5 15.82,-64.5 0,-53.96 0,-39.04 15.82,-28.5 38.18,-28.5 54,-39.04"/>
<text text-anchor="middle" x="27" y="-42.8" font-family="Times,serif" font-size="14.00">in</text>
</g>
<!-- c5 -->
<g id="node3" class="node">
<title>c5</title>
<polygon fill="none" stroke="black" points="90,-23.5 90,-69.5 224,-69.5 224,-23.5 90,-23.5"/>
<text text-anchor="middle" x="103" y="-54.3" font-family="Times,serif" font-size="14.00">a</text>
<polyline fill="none" stroke="black" points="90,-46.5 116,-46.5 "/>
<text text-anchor="middle" x="103" y="-31.3" font-family="Times,serif" font-size="14.00">b</text>
<polyline fill="none" stroke="black" points="116,-23.5 116,-69.5 "/>
<text text-anchor="middle" x="150" y="-50.3" font-family="Times,serif" font-size="14.00">nand_0</text>
<text text-anchor="middle" x="150" y="-35.3" font-family="Times,serif" font-size="14.00">Nand</text>
<polyline fill="none" stroke="black" points="184,-23.5 184,-69.5 "/>
<text text-anchor="middle" x="204" y="-42.8" font-family="Times,serif" font-size="14.00">out</text>
</g>
<!-- n1&#45;&gt;c5 -->
<g id="edge1" class="edge">
<title>n1:e&#45;&gt;c5:w</title>
<path fill="none" stroke="black" d="M54,-46.5C66.78,-46.5 71.18,-53.39 79.9,-56.73"/>
<polygon fill="black" stroke="black" points="79.55,-60.22 90,-58.5 80.75,-53.33 79.55,-60.22"/>
</g>
<!-- n1&#45;&gt;c5 -->
<g id="edge2" class="edge">
<title>n1:e&#45;&gt;c5:w</title>
<path fill="none" stroke="black" d="M54,-46.5C66.78,-46.5 71.18,-39.61 79.9,-36.27"/>
<polygon fill="black" stroke="black" points="80.75,-39.67 90,-34.5 79.55,-32.78 80.75,-39.67"/>
</g>
<!-- n2 -->
<g id="node2" class="node">
<title>n2</title>
<polygon fill="none" stroke="black" points="316.42,-39.04 316.42,-53.96 299.85,-64.5 276.43,-64.5 259.86,-53.96 259.86,-39.04 276.43,-28.5 299.85,-28.5 316.42,-39.04"/>
<text text-anchor="middle" x="288.14" y="-42.8" font-family="Times,serif" font-size="14.00">out</text>
</g>
<!-- c5&#45;&gt;n2 -->
<g id="edge3" class="edge">
<title>c5:e&#45;&gt;n2:w</title>
<path fill="none" stroke="black" d="M224,-46.5C236,-46.5 241.25,-46.5 249.88,-46.5"/>
<polygon fill="black" stroke="black" points="250,-50 260,-46.5 250,-43 250,-50"/>
</g>
</g>
</svg>
