<?xml version="1.0" encoding="UTF-8" standalone="no"?>
<!DOCTYPE svg PUBLIC "-//W3C//DTD SVG 1.1//EN"
 "http://www.w3.org/Graphics/SVG/1.1/DTD/svg11.dtd">
<!-- Generated by graphviz version 2.43.0 (0)
 -->
<!-- Title: Inc16 Pages: 1 -->
<svg width="6097pt" height="913pt"
 viewBox="0.00 0.00 6096.94 913.12" xmlns="http://www.w3.org/2000/svg" xmlns:xlink="http://www.w3.org/1999/xlink">
<g id="graph0" class="graph" transform="scale(1 1) rotate(0) translate(4 909.12)">
<title>Inc16</title>
<polygon fill="white" stroke="transparent" points="-4,4 -4,-909.12 6092.94,-909.12 6092.94,4 -4,4"/>
<text text-anchor="middle" x="3044.47" y="-7.8" font-family="Times,serif" font-size="14.00">Inc16</text>
<!-- n1 -->
<g id="node1" class="node">
<title>n1</title>
<polygon fill="none" stroke="black" points="517,-773.62 486.83,-755.62 517,-737.62 547.17,-755.62 517,-773.62"/>
<text text-anchor="middle" x="517" y="-751.92" font-family="Times,serif" font-size="14.00">c0</text>
</g>
<!-- c24 -->
<g id="node23" class="node">
<title>c24</title>
<polygon fill="none" stroke="black" points="611,-752.62 611,-798.62 792,-798.62 792,-752.62 611,-752.62"/>
<text text-anchor="middle" x="624" y="-783.42" font-family="Times,serif" font-size="14.00">a</text>
<polyline fill="none" stroke="black" points="611,-775.62 637,-775.62 "/>
<text text-anchor="middle" x="624" y="-760.42" font-family="Times,serif" font-size="14.00">b</text>
<polyline fill="none" stroke="black" points="637,-752.62 637,-798.62 "/>
<text text-anchor="middle" x="687.5" y="-779.42" font-family="Times,serif" font-size="14.00">halfadder_1</text>
<text text-anchor="middle" x="687.5" y="-764.42" font-family="Times,serif" font-size="14.00">HalfAdder</text>
<polyline fill="none" stroke="black" points="738,-752.62 738,-798.62 "/>
<text text-anchor="middle" x="765" y="-783.42" font-family="Times,serif" font-size="14.00">carry</text>
<polyline fill="none" stroke="black" points="738,-775.62 792,-775.62 "/>
<text text-anchor="middle" x="765" y="-760.42" font-family="Times,serif" font-size="14.00">sum</text>
</g>
<!-- n1&#45;&gt;c24 -->
<g id="edge34" class="edge">
<title>n1:e&#45;&gt;c24:w</title>
<path fill="none" stroke="black" d="M548,-755.62C572.48,-755.62 580.65,-761.64 600.8,-763.24"/>
<polygon fill="black" stroke="black" points="600.87,-766.74 611,-763.62 601.14,-759.75 600.87,-766.74"/>
</g>
<!-- n2 -->
<g id="node2" class="node">
<title>n2</title>
<polygon fill="none" stroke="black" points="886,-700.62 855.83,-682.62 886,-664.62 916.17,-682.62 886,-700.62"/>
<text text-anchor="middle" x="886" y="-678.92" font-family="Times,serif" font-size="14.00">c1</text>
</g>
<!-- c31 -->
<g id="node44" class="node">
<title>c31</title>
<polygon fill="none" stroke="black" points="980,-685.62 980,-731.62 1161,-731.62 1161,-685.62 980,-685.62"/>
<text text-anchor="middle" x="993" y="-716.42" font-family="Times,serif" font-size="14.00">a</text>
<polyline fill="none" stroke="black" points="980,-708.62 1006,-708.62 "/>
<text text-anchor="middle" x="993" y="-693.42" font-family="Times,serif" font-size="14.00">b</text>
<polyline fill="none" stroke="black" points="1006,-685.62 1006,-731.62 "/>
<text text-anchor="middle" x="1056.5" y="-712.42" font-family="Times,serif" font-size="14.00">halfadder_2</text>
<text text-anchor="middle" x="1056.5" y="-697.42" font-family="Times,serif" font-size="14.00">HalfAdder</text>
<polyline fill="none" stroke="black" points="1107,-685.62 1107,-731.62 "/>
<text text-anchor="middle" x="1134" y="-716.42" font-family="Times,serif" font-size="14.00">carry</text>
<polyline fill="none" stroke="black" points="1107,-708.62 1161,-708.62 "/>
<text text-anchor="middle" x="1134" y="-693.42" font-family="Times,serif" font-size="14.00">sum</text>
</g>
<!-- n2&#45;&gt;c31 -->
<g id="edge82" class="edge">
<title>n2:e&#45;&gt;c31:w</title>
<path fill="none" stroke="black" d="M917,-682.62C941.99,-682.62 949.48,-693.25 969.96,-695.98"/>
<polygon fill="black" stroke="black" points="969.8,-699.48 980,-696.62 970.24,-692.49 969.8,-699.48"/>
</g>
<!-- n3 -->
<g id="node3" class="node">
<title>n3</title>
<polygon fill="none" stroke="black" points="3999.16,-305.62 3960.45,-287.62 3999.16,-269.62 4037.87,-287.62 3999.16,-305.62"/>
<text text-anchor="middle" x="3999.16" y="-283.92" font-family="Times,serif" font-size="14.00">c10</text>
</g>
<!-- c26 -->
<g id="node29" class="node">
<title>c26</title>
<polygon fill="none" stroke="black" points="4097.66,-176.62 4097.66,-222.62 4287.66,-222.62 4287.66,-176.62 4097.66,-176.62"/>
<text text-anchor="middle" x="4110.66" y="-207.42" font-family="Times,serif" font-size="14.00">a</text>
<polyline fill="none" stroke="black" points="4097.66,-199.62 4123.66,-199.62 "/>
<text text-anchor="middle" x="4110.66" y="-184.42" font-family="Times,serif" font-size="14.00">b</text>
<polyline fill="none" stroke="black" points="4123.66,-176.62 4123.66,-222.62 "/>
<text text-anchor="middle" x="4178.66" y="-203.42" font-family="Times,serif" font-size="14.00">halfadder_11</text>
<text text-anchor="middle" x="4178.66" y="-188.42" font-family="Times,serif" font-size="14.00">HalfAdder</text>
<polyline fill="none" stroke="black" points="4233.66,-176.62 4233.66,-222.62 "/>
<text text-anchor="middle" x="4260.66" y="-207.42" font-family="Times,serif" font-size="14.00">carry</text>
<polyline fill="none" stroke="black" points="4233.66,-199.62 4287.66,-199.62 "/>
<text text-anchor="middle" x="4260.66" y="-184.42" font-family="Times,serif" font-size="14.00">sum</text>
</g>
<!-- n3&#45;&gt;c26 -->
<g id="edge84" class="edge">
<title>n3:e&#45;&gt;c26:w</title>
<path fill="none" stroke="black" d="M4039.16,-287.62C4086.83,-287.62 4052.24,-201.91 4087.7,-189.19"/>
<polygon fill="black" stroke="black" points="4088.33,-192.64 4097.66,-187.62 4087.23,-185.72 4088.33,-192.64"/>
</g>
<!-- n4 -->
<g id="node4" class="node">
<title>n4</title>
<polygon fill="none" stroke="black" points="4386.16,-198.62 4347.45,-180.62 4386.16,-162.62 4424.87,-180.62 4386.16,-198.62"/>
<text text-anchor="middle" x="4386.16" y="-176.92" font-family="Times,serif" font-size="14.00">c11</text>
</g>
<!-- c27 -->
<g id="node32" class="node">
<title>c27</title>
<polygon fill="none" stroke="black" points="4484.66,-61.62 4484.66,-107.62 4674.66,-107.62 4674.66,-61.62 4484.66,-61.62"/>
<text text-anchor="middle" x="4497.66" y="-92.42" font-family="Times,serif" font-size="14.00">a</text>
<polyline fill="none" stroke="black" points="4484.66,-84.62 4510.66,-84.62 "/>
<text text-anchor="middle" x="4497.66" y="-69.42" font-family="Times,serif" font-size="14.00">b</text>
<polyline fill="none" stroke="black" points="4510.66,-61.62 4510.66,-107.62 "/>
<text text-anchor="middle" x="4565.66" y="-88.42" font-family="Times,serif" font-size="14.00">halfadder_12</text>
<text text-anchor="middle" x="4565.66" y="-73.42" font-family="Times,serif" font-size="14.00">HalfAdder</text>
<polyline fill="none" stroke="black" points="4620.66,-61.62 4620.66,-107.62 "/>
<text text-anchor="middle" x="4647.66" y="-92.42" font-family="Times,serif" font-size="14.00">carry</text>
<polyline fill="none" stroke="black" points="4620.66,-84.62 4674.66,-84.62 "/>
<text text-anchor="middle" x="4647.66" y="-69.42" font-family="Times,serif" font-size="14.00">sum</text>
</g>
<!-- n4&#45;&gt;c27 -->
<g id="edge86" class="edge">
<title>n4:e&#45;&gt;c27:w</title>
<path fill="none" stroke="black" d="M4426.16,-180.62C4476.91,-180.62 4436.67,-87.28 4474.63,-74.15"/>
<polygon fill="black" stroke="black" points="4475.3,-77.59 4484.66,-72.62 4474.24,-70.67 4475.3,-77.59"/>
</g>
<!-- n5 -->
<g id="node5" class="node">
<title>n5</title>
<polygon fill="none" stroke="black" points="4773.16,-114.62 4734.45,-96.62 4773.16,-78.62 4811.87,-96.62 4773.16,-114.62"/>
<text text-anchor="middle" x="4773.16" y="-92.92" font-family="Times,serif" font-size="14.00">c12</text>
</g>
<!-- c28 -->
<g id="node35" class="node">
<title>c28</title>
<polygon fill="none" stroke="black" points="4871.66,-113.62 4871.66,-159.62 5061.66,-159.62 5061.66,-113.62 4871.66,-113.62"/>
<text text-anchor="middle" x="4884.66" y="-144.42" font-family="Times,serif" font-size="14.00">a</text>
<polyline fill="none" stroke="black" points="4871.66,-136.62 4897.66,-136.62 "/>
<text text-anchor="middle" x="4884.66" y="-121.42" font-family="Times,serif" font-size="14.00">b</text>
<polyline fill="none" stroke="black" points="4897.66,-113.62 4897.66,-159.62 "/>
<text text-anchor="middle" x="4952.66" y="-140.42" font-family="Times,serif" font-size="14.00">halfadder_13</text>
<text text-anchor="middle" x="4952.66" y="-125.42" font-family="Times,serif" font-size="14.00">HalfAdder</text>
<polyline fill="none" stroke="black" points="5007.66,-113.62 5007.66,-159.62 "/>
<text text-anchor="middle" x="5034.66" y="-144.42" font-family="Times,serif" font-size="14.00">carry</text>
<polyline fill="none" stroke="black" points="5007.66,-136.62 5061.66,-136.62 "/>
<text text-anchor="middle" x="5034.66" y="-121.42" font-family="Times,serif" font-size="14.00">sum</text>
</g>
<!-- n5&#45;&gt;c28 -->
<g id="edge88" class="edge">
<title>n5:e&#45;&gt;c28:w</title>
<path fill="none" stroke="black" d="M4813.16,-96.62C4838.15,-96.62 4842.11,-117.68 4861.52,-123.27"/>
<polygon fill="black" stroke="black" points="4861.28,-126.77 4871.66,-124.62 4862.21,-119.83 4861.28,-126.77"/>
</g>
<!-- n6 -->
<g id="node6" class="node">
<title>n6</title>
<polygon fill="none" stroke="black" points="5160.16,-211.62 5121.45,-193.62 5160.16,-175.62 5198.87,-193.62 5160.16,-211.62"/>
<text text-anchor="middle" x="5160.16" y="-189.92" font-family="Times,serif" font-size="14.00">c13</text>
</g>
<!-- c29 -->
<g id="node38" class="node">
<title>c29</title>
<polygon fill="none" stroke="black" points="5258.66,-207.62 5258.66,-253.62 5448.66,-253.62 5448.66,-207.62 5258.66,-207.62"/>
<text text-anchor="middle" x="5271.66" y="-238.42" font-family="Times,serif" font-size="14.00">a</text>
<polyline fill="none" stroke="black" points="5258.66,-230.62 5284.66,-230.62 "/>
<text text-anchor="middle" x="5271.66" y="-215.42" font-family="Times,serif" font-size="14.00">b</text>
<polyline fill="none" stroke="black" points="5284.66,-207.62 5284.66,-253.62 "/>
<text text-anchor="middle" x="5339.66" y="-234.42" font-family="Times,serif" font-size="14.00">halfadder_14</text>
<text text-anchor="middle" x="5339.66" y="-219.42" font-family="Times,serif" font-size="14.00">HalfAdder</text>
<polyline fill="none" stroke="black" points="5394.66,-207.62 5394.66,-253.62 "/>
<text text-anchor="middle" x="5421.66" y="-238.42" font-family="Times,serif" font-size="14.00">carry</text>
<polyline fill="none" stroke="black" points="5394.66,-230.62 5448.66,-230.62 "/>
<text text-anchor="middle" x="5421.66" y="-215.42" font-family="Times,serif" font-size="14.00">sum</text>
</g>
<!-- n6&#45;&gt;c29 -->
<g id="edge90" class="edge">
<title>n6:e&#45;&gt;c29:w</title>
<path fill="none" stroke="black" d="M5200.16,-193.62C5224.68,-193.62 5229.4,-212.42 5248.66,-217.42"/>
<polygon fill="black" stroke="black" points="5248.31,-220.9 5258.66,-218.62 5249.15,-213.95 5248.31,-220.9"/>
</g>
<!-- n7 -->
<g id="node7" class="node">
<title>n7</title>
<polygon fill="none" stroke="black" points="5547.16,-422.62 5508.45,-404.62 5547.16,-386.62 5585.87,-404.62 5547.16,-422.62"/>
<text text-anchor="middle" x="5547.16" y="-400.92" font-family="Times,serif" font-size="14.00">c14</text>
</g>
<!-- c30 -->
<g id="node41" class="node">
<title>c30</title>
<polygon fill="none" stroke="black" points="5645.66,-475.62 5645.66,-521.62 5835.66,-521.62 5835.66,-475.62 5645.66,-475.62"/>
<text text-anchor="middle" x="5658.66" y="-506.42" font-family="Times,serif" font-size="14.00">a</text>
<polyline fill="none" stroke="black" points="5645.66,-498.62 5671.66,-498.62 "/>
<text text-anchor="middle" x="5658.66" y="-483.42" font-family="Times,serif" font-size="14.00">b</text>
<polyline fill="none" stroke="black" points="5671.66,-475.62 5671.66,-521.62 "/>
<text text-anchor="middle" x="5726.66" y="-502.42" font-family="Times,serif" font-size="14.00">halfadder_15</text>
<text text-anchor="middle" x="5726.66" y="-487.42" font-family="Times,serif" font-size="14.00">HalfAdder</text>
<polyline fill="none" stroke="black" points="5781.66,-475.62 5781.66,-521.62 "/>
<text text-anchor="middle" x="5808.66" y="-506.42" font-family="Times,serif" font-size="14.00">carry</text>
<polyline fill="none" stroke="black" points="5781.66,-498.62 5835.66,-498.62 "/>
<text text-anchor="middle" x="5808.66" y="-483.42" font-family="Times,serif" font-size="14.00">sum</text>
</g>
<!-- n7&#45;&gt;c30 -->
<g id="edge92" class="edge">
<title>n7:e&#45;&gt;c30:w</title>
<path fill="none" stroke="black" d="M5587.16,-404.62C5628.08,-404.62 5605.66,-473.13 5635.7,-484.91"/>
<polygon fill="black" stroke="black" points="5635.21,-488.38 5645.66,-486.62 5636.4,-481.48 5635.21,-488.38"/>
</g>
<!-- n8 -->
<g id="node8" class="node">
<title>n8</title>
<polygon fill="none" stroke="black" points="5934.16,-554.62 5895.45,-536.62 5934.16,-518.62 5972.87,-536.62 5934.16,-554.62"/>
<text text-anchor="middle" x="5934.16" y="-532.92" font-family="Times,serif" font-size="14.00">c15</text>
</g>
<!-- n9 -->
<g id="node9" class="node">
<title>n9</title>
<polygon fill="none" stroke="black" points="1255,-653.62 1224.83,-635.62 1255,-617.62 1285.17,-635.62 1255,-653.62"/>
<text text-anchor="middle" x="1255" y="-631.92" font-family="Times,serif" font-size="14.00">c2</text>
</g>
<!-- c32 -->
<g id="node47" class="node">
<title>c32</title>
<polygon fill="none" stroke="black" points="1349,-635.62 1349,-681.62 1530,-681.62 1530,-635.62 1349,-635.62"/>
<text text-anchor="middle" x="1362" y="-666.42" font-family="Times,serif" font-size="14.00">a</text>
<polyline fill="none" stroke="black" points="1349,-658.62 1375,-658.62 "/>
<text text-anchor="middle" x="1362" y="-643.42" font-family="Times,serif" font-size="14.00">b</text>
<polyline fill="none" stroke="black" points="1375,-635.62 1375,-681.62 "/>
<text text-anchor="middle" x="1425.5" y="-662.42" font-family="Times,serif" font-size="14.00">halfadder_3</text>
<text text-anchor="middle" x="1425.5" y="-647.42" font-family="Times,serif" font-size="14.00">HalfAdder</text>
<polyline fill="none" stroke="black" points="1476,-635.62 1476,-681.62 "/>
<text text-anchor="middle" x="1503" y="-666.42" font-family="Times,serif" font-size="14.00">carry</text>
<polyline fill="none" stroke="black" points="1476,-658.62 1530,-658.62 "/>
<text text-anchor="middle" x="1503" y="-643.42" font-family="Times,serif" font-size="14.00">sum</text>
</g>
<!-- n9&#45;&gt;c32 -->
<g id="edge95" class="edge">
<title>n9:e&#45;&gt;c32:w</title>
<path fill="none" stroke="black" d="M1286,-635.62C1310.65,-635.62 1318.55,-643.89 1338.75,-646.09"/>
<polygon fill="black" stroke="black" points="1338.83,-649.6 1349,-646.62 1339.19,-642.61 1338.83,-649.6"/>
</g>
<!-- n10 -->
<g id="node10" class="node">
<title>n10</title>
<polygon fill="none" stroke="black" points="1596.33,-610.62 1566.17,-592.62 1596.33,-574.62 1626.5,-592.62 1596.33,-610.62"/>
<text text-anchor="middle" x="1596.33" y="-588.92" font-family="Times,serif" font-size="14.00">c3</text>
</g>
<!-- c33 -->
<g id="node50" class="node">
<title>c33</title>
<polygon fill="none" stroke="black" points="1662.66,-602.62 1662.66,-648.62 1843.66,-648.62 1843.66,-602.62 1662.66,-602.62"/>
<text text-anchor="middle" x="1675.66" y="-633.42" font-family="Times,serif" font-size="14.00">a</text>
<polyline fill="none" stroke="black" points="1662.66,-625.62 1688.66,-625.62 "/>
<text text-anchor="middle" x="1675.66" y="-610.42" font-family="Times,serif" font-size="14.00">b</text>
<polyline fill="none" stroke="black" points="1688.66,-602.62 1688.66,-648.62 "/>
<text text-anchor="middle" x="1739.16" y="-629.42" font-family="Times,serif" font-size="14.00">halfadder_4</text>
<text text-anchor="middle" x="1739.16" y="-614.42" font-family="Times,serif" font-size="14.00">HalfAdder</text>
<polyline fill="none" stroke="black" points="1789.66,-602.62 1789.66,-648.62 "/>
<text text-anchor="middle" x="1816.66" y="-633.42" font-family="Times,serif" font-size="14.00">carry</text>
<polyline fill="none" stroke="black" points="1789.66,-625.62 1843.66,-625.62 "/>
<text text-anchor="middle" x="1816.66" y="-610.42" font-family="Times,serif" font-size="14.00">sum</text>
</g>
<!-- n10&#45;&gt;c33 -->
<g id="edge36" class="edge">
<title>n10:e&#45;&gt;c33:w</title>
<path fill="none" stroke="black" d="M1626.66,-592.62C1641.14,-592.62 1643.66,-605.44 1652.91,-611.05"/>
<polygon fill="black" stroke="black" points="1652.1,-614.45 1662.66,-613.62 1653.89,-607.69 1652.1,-614.45"/>
</g>
<!-- n11 -->
<g id="node11" class="node">
<title>n11</title>
<polygon fill="none" stroke="black" points="1910,-572.62 1879.83,-554.62 1910,-536.62 1940.16,-554.62 1910,-572.62"/>
<text text-anchor="middle" x="1910" y="-550.92" font-family="Times,serif" font-size="14.00">c4</text>
</g>
<!-- c34 -->
<g id="node53" class="node">
<title>c34</title>
<polygon fill="none" stroke="black" points="1976.33,-554.62 1976.33,-600.62 2157.33,-600.62 2157.33,-554.62 1976.33,-554.62"/>
<text text-anchor="middle" x="1989.33" y="-585.42" font-family="Times,serif" font-size="14.00">a</text>
<polyline fill="none" stroke="black" points="1976.33,-577.62 2002.33,-577.62 "/>
<text text-anchor="middle" x="1989.33" y="-562.42" font-family="Times,serif" font-size="14.00">b</text>
<polyline fill="none" stroke="black" points="2002.33,-554.62 2002.33,-600.62 "/>
<text text-anchor="middle" x="2052.83" y="-581.42" font-family="Times,serif" font-size="14.00">halfadder_5</text>
<text text-anchor="middle" x="2052.83" y="-566.42" font-family="Times,serif" font-size="14.00">HalfAdder</text>
<polyline fill="none" stroke="black" points="2103.33,-554.62 2103.33,-600.62 "/>
<text text-anchor="middle" x="2130.33" y="-585.42" font-family="Times,serif" font-size="14.00">carry</text>
<polyline fill="none" stroke="black" points="2103.33,-577.62 2157.33,-577.62 "/>
<text text-anchor="middle" x="2130.33" y="-562.42" font-family="Times,serif" font-size="14.00">sum</text>
</g>
<!-- n11&#45;&gt;c34 -->
<g id="edge38" class="edge">
<title>n11:e&#45;&gt;c34:w</title>
<path fill="none" stroke="black" d="M1940.33,-554.62C1953.01,-554.62 1957.54,-560.94 1966.27,-564"/>
<polygon fill="black" stroke="black" points="1965.9,-567.48 1976.33,-565.62 1967.01,-560.57 1965.9,-567.48"/>
</g>
<!-- n12 -->
<g id="node12" class="node">
<title>n12</title>
<polygon fill="none" stroke="black" points="2223.66,-492.62 2193.5,-474.62 2223.66,-456.62 2253.83,-474.62 2223.66,-492.62"/>
<text text-anchor="middle" x="2223.66" y="-470.92" font-family="Times,serif" font-size="14.00">c5</text>
</g>
<!-- c35 -->
<g id="node56" class="node">
<title>c35</title>
<polygon fill="none" stroke="black" points="2289.99,-474.62 2289.99,-520.62 2470.99,-520.62 2470.99,-474.62 2289.99,-474.62"/>
<text text-anchor="middle" x="2302.99" y="-505.42" font-family="Times,serif" font-size="14.00">a</text>
<polyline fill="none" stroke="black" points="2289.99,-497.62 2315.99,-497.62 "/>
<text text-anchor="middle" x="2302.99" y="-482.42" font-family="Times,serif" font-size="14.00">b</text>
<polyline fill="none" stroke="black" points="2315.99,-474.62 2315.99,-520.62 "/>
<text text-anchor="middle" x="2366.49" y="-501.42" font-family="Times,serif" font-size="14.00">halfadder_6</text>
<text text-anchor="middle" x="2366.49" y="-486.42" font-family="Times,serif" font-size="14.00">HalfAdder</text>
<polyline fill="none" stroke="black" points="2416.99,-474.62 2416.99,-520.62 "/>
<text text-anchor="middle" x="2443.99" y="-505.42" font-family="Times,serif" font-size="14.00">carry</text>
<polyline fill="none" stroke="black" points="2416.99,-497.62 2470.99,-497.62 "/>
<text text-anchor="middle" x="2443.99" y="-482.42" font-family="Times,serif" font-size="14.00">sum</text>
</g>
<!-- n12&#45;&gt;c35 -->
<g id="edge40" class="edge">
<title>n12:e&#45;&gt;c35:w</title>
<path fill="none" stroke="black" d="M2253.99,-474.62C2266.67,-474.62 2271.2,-480.94 2279.93,-484"/>
<polygon fill="black" stroke="black" points="2279.56,-487.48 2289.99,-485.62 2280.68,-480.57 2279.56,-487.48"/>
</g>
<!-- n13 -->
<g id="node13" class="node">
<title>n13</title>
<polygon fill="none" stroke="black" points="2537.33,-469.62 2507.16,-451.62 2537.33,-433.62 2567.49,-451.62 2537.33,-469.62"/>
<text text-anchor="middle" x="2537.33" y="-447.92" font-family="Times,serif" font-size="14.00">c6</text>
</g>
<!-- c36 -->
<g id="node59" class="node">
<title>c36</title>
<polygon fill="none" stroke="black" points="2603.66,-451.62 2603.66,-497.62 2784.66,-497.62 2784.66,-451.62 2603.66,-451.62"/>
<text text-anchor="middle" x="2616.66" y="-482.42" font-family="Times,serif" font-size="14.00">a</text>
<polyline fill="none" stroke="black" points="2603.66,-474.62 2629.66,-474.62 "/>
<text text-anchor="middle" x="2616.66" y="-459.42" font-family="Times,serif" font-size="14.00">b</text>
<polyline fill="none" stroke="black" points="2629.66,-451.62 2629.66,-497.62 "/>
<text text-anchor="middle" x="2680.16" y="-478.42" font-family="Times,serif" font-size="14.00">halfadder_7</text>
<text text-anchor="middle" x="2680.16" y="-463.42" font-family="Times,serif" font-size="14.00">HalfAdder</text>
<polyline fill="none" stroke="black" points="2730.66,-451.62 2730.66,-497.62 "/>
<text text-anchor="middle" x="2757.66" y="-482.42" font-family="Times,serif" font-size="14.00">carry</text>
<polyline fill="none" stroke="black" points="2730.66,-474.62 2784.66,-474.62 "/>
<text text-anchor="middle" x="2757.66" y="-459.42" font-family="Times,serif" font-size="14.00">sum</text>
</g>
<!-- n13&#45;&gt;c36 -->
<g id="edge42" class="edge">
<title>n13:e&#45;&gt;c36:w</title>
<path fill="none" stroke="black" d="M2567.66,-451.62C2580.34,-451.62 2584.86,-457.94 2593.6,-461"/>
<polygon fill="black" stroke="black" points="2593.23,-464.48 2603.66,-462.62 2594.34,-457.57 2593.23,-464.48"/>
</g>
<!-- n14 -->
<g id="node14" class="node">
<title>n14</title>
<polygon fill="none" stroke="black" points="2878.66,-460.62 2848.49,-442.62 2878.66,-424.62 2908.82,-442.62 2878.66,-460.62"/>
<text text-anchor="middle" x="2878.66" y="-438.92" font-family="Times,serif" font-size="14.00">c7</text>
</g>
<!-- c37 -->
<g id="node62" class="node">
<title>c37</title>
<polygon fill="none" stroke="black" points="2972.66,-400.62 2972.66,-446.62 3153.66,-446.62 3153.66,-400.62 2972.66,-400.62"/>
<text text-anchor="middle" x="2985.66" y="-431.42" font-family="Times,serif" font-size="14.00">a</text>
<polyline fill="none" stroke="black" points="2972.66,-423.62 2998.66,-423.62 "/>
<text text-anchor="middle" x="2985.66" y="-408.42" font-family="Times,serif" font-size="14.00">b</text>
<polyline fill="none" stroke="black" points="2998.66,-400.62 2998.66,-446.62 "/>
<text text-anchor="middle" x="3049.16" y="-427.42" font-family="Times,serif" font-size="14.00">halfadder_8</text>
<text text-anchor="middle" x="3049.16" y="-412.42" font-family="Times,serif" font-size="14.00">HalfAdder</text>
<polyline fill="none" stroke="black" points="3099.66,-400.62 3099.66,-446.62 "/>
<text text-anchor="middle" x="3126.66" y="-431.42" font-family="Times,serif" font-size="14.00">carry</text>
<polyline fill="none" stroke="black" points="3099.66,-423.62 3153.66,-423.62 "/>
<text text-anchor="middle" x="3126.66" y="-408.42" font-family="Times,serif" font-size="14.00">sum</text>
</g>
<!-- n14&#45;&gt;c37 -->
<g id="edge44" class="edge">
<title>n14:e&#45;&gt;c37:w</title>
<path fill="none" stroke="black" d="M2909.66,-442.62C2937.08,-442.62 2940.86,-418.68 2962.56,-412.88"/>
<polygon fill="black" stroke="black" points="2963.16,-416.33 2972.66,-411.62 2962.3,-409.38 2963.16,-416.33"/>
</g>
<!-- n15 -->
<g id="node15" class="node">
<title>n15</title>
<polygon fill="none" stroke="black" points="3247.66,-404.62 3217.49,-386.62 3247.66,-368.62 3277.82,-386.62 3247.66,-404.62"/>
<text text-anchor="middle" x="3247.66" y="-382.92" font-family="Times,serif" font-size="14.00">c8</text>
</g>
<!-- c38 -->
<g id="node65" class="node">
<title>c38</title>
<polygon fill="none" stroke="black" points="3341.66,-353.62 3341.66,-399.62 3522.66,-399.62 3522.66,-353.62 3341.66,-353.62"/>
<text text-anchor="middle" x="3354.66" y="-384.42" font-family="Times,serif" font-size="14.00">a</text>
<polyline fill="none" stroke="black" points="3341.66,-376.62 3367.66,-376.62 "/>
<text text-anchor="middle" x="3354.66" y="-361.42" font-family="Times,serif" font-size="14.00">b</text>
<polyline fill="none" stroke="black" points="3367.66,-353.62 3367.66,-399.62 "/>
<text text-anchor="middle" x="3418.16" y="-380.42" font-family="Times,serif" font-size="14.00">halfadder_9</text>
<text text-anchor="middle" x="3418.16" y="-365.42" font-family="Times,serif" font-size="14.00">HalfAdder</text>
<polyline fill="none" stroke="black" points="3468.66,-353.62 3468.66,-399.62 "/>
<text text-anchor="middle" x="3495.66" y="-384.42" font-family="Times,serif" font-size="14.00">carry</text>
<polyline fill="none" stroke="black" points="3468.66,-376.62 3522.66,-376.62 "/>
<text text-anchor="middle" x="3495.66" y="-361.42" font-family="Times,serif" font-size="14.00">sum</text>
</g>
<!-- n15&#45;&gt;c38 -->
<g id="edge46" class="edge">
<title>n15:e&#45;&gt;c38:w</title>
<path fill="none" stroke="black" d="M3278.66,-386.62C3304.61,-386.62 3310.67,-369.78 3331.65,-365.57"/>
<polygon fill="black" stroke="black" points="3332.03,-369.05 3341.66,-364.62 3331.37,-362.08 3332.03,-369.05"/>
</g>
<!-- n16 -->
<g id="node16" class="node">
<title>n16</title>
<polygon fill="none" stroke="black" points="3616.66,-346.62 3586.49,-328.62 3616.66,-310.62 3646.82,-328.62 3616.66,-346.62"/>
<text text-anchor="middle" x="3616.66" y="-324.92" font-family="Times,serif" font-size="14.00">c9</text>
</g>
<!-- c25 -->
<g id="node26" class="node">
<title>c25</title>
<polygon fill="none" stroke="black" points="3710.66,-292.62 3710.66,-338.62 3900.66,-338.62 3900.66,-292.62 3710.66,-292.62"/>
<text text-anchor="middle" x="3723.66" y="-323.42" font-family="Times,serif" font-size="14.00">a</text>
<polyline fill="none" stroke="black" points="3710.66,-315.62 3736.66,-315.62 "/>
<text text-anchor="middle" x="3723.66" y="-300.42" font-family="Times,serif" font-size="14.00">b</text>
<polyline fill="none" stroke="black" points="3736.66,-292.62 3736.66,-338.62 "/>
<text text-anchor="middle" x="3791.66" y="-319.42" font-family="Times,serif" font-size="14.00">halfadder_10</text>
<text text-anchor="middle" x="3791.66" y="-304.42" font-family="Times,serif" font-size="14.00">HalfAdder</text>
<polyline fill="none" stroke="black" points="3846.66,-292.62 3846.66,-338.62 "/>
<text text-anchor="middle" x="3873.66" y="-323.42" font-family="Times,serif" font-size="14.00">carry</text>
<polyline fill="none" stroke="black" points="3846.66,-315.62 3900.66,-315.62 "/>
<text text-anchor="middle" x="3873.66" y="-300.42" font-family="Times,serif" font-size="14.00">sum</text>
</g>
<!-- n16&#45;&gt;c25 -->
<g id="edge48" class="edge">
<title>n16:e&#45;&gt;c25:w</title>
<path fill="none" stroke="black" d="M3647.66,-328.62C3674.02,-328.62 3679.42,-309.48 3700.54,-304.7"/>
<polygon fill="black" stroke="black" points="3701.08,-308.16 3710.66,-303.62 3700.34,-301.2 3701.08,-308.16"/>
</g>
<!-- n17 -->
<g id="node17" class="node">
<title>n17</title>
<polygon fill="none" stroke="black" points="54,-458.17 54,-473.08 38.18,-483.62 15.82,-483.62 0,-473.08 0,-458.17 15.82,-447.62 38.18,-447.62 54,-458.17"/>
<text text-anchor="middle" x="27" y="-461.92" font-family="Times,serif" font-size="14.00">in</text>
</g>
<!-- x0 -->
<g id="node21" class="node">
<title>x0</title>
<path fill="none" stroke="black" d="M102,-757.62C102,-757.62 194,-757.62 194,-757.62 200,-757.62 206,-763.62 206,-769.62 206,-769.62 206,-781.62 206,-781.62 206,-787.62 200,-793.62 194,-793.62 194,-793.62 102,-793.62 102,-793.62 96,-793.62 90,-787.62 90,-781.62 90,-781.62 90,-769.62 90,-769.62 90,-763.62 96,-757.62 102,-757.62"/>
<text text-anchor="middle" x="148" y="-771.92" font-family="Times,serif" font-size="14.00">slice [0] to [0]</text>
</g>
<!-- n17&#45;&gt;x0 -->
<g id="edge49" class="edge">
<title>n17:e&#45;&gt;x0:w</title>
<path fill="none" stroke="black" d="M54,-465.62C119.56,-465.62 31.37,-742.64 80.11,-772.94"/>
<polygon fill="black" stroke="black" points="79.43,-776.38 90,-775.62 81.26,-769.63 79.43,-776.38"/>
</g>
<!-- x3 -->
<g id="node24" class="node">
<title>x3</title>
<path fill="none" stroke="black" d="M286.5,-684.62C286.5,-684.62 378.5,-684.62 378.5,-684.62 384.5,-684.62 390.5,-690.62 390.5,-696.62 390.5,-696.62 390.5,-708.62 390.5,-708.62 390.5,-714.62 384.5,-720.62 378.5,-720.62 378.5,-720.62 286.5,-720.62 286.5,-720.62 280.5,-720.62 274.5,-714.62 274.5,-708.62 274.5,-708.62 274.5,-696.62 274.5,-696.62 274.5,-690.62 280.5,-684.62 286.5,-684.62"/>
<text text-anchor="middle" x="332.5" y="-698.92" font-family="Times,serif" font-size="14.00">slice [1] to [0]</text>
</g>
<!-- n17&#45;&gt;x3 -->
<g id="edge61" class="edge">
<title>n17:e&#45;&gt;x3:w</title>
<path fill="none" stroke="black" d="M54,-465.62C135.58,-465.62 35.38,-585.02 90,-645.62 116.52,-675.05 215.02,-698.93 263.21,-702.23"/>
<polygon fill="black" stroke="black" points="263.37,-705.74 273.5,-702.62 263.64,-698.75 263.37,-705.74"/>
</g>
<!-- x5 -->
<g id="node27" class="node">
<title>x5</title>
<path fill="none" stroke="black" d="M651,-246.62C651,-246.62 752,-246.62 752,-246.62 758,-246.62 764,-252.62 764,-258.62 764,-258.62 764,-270.62 764,-270.62 764,-276.62 758,-282.62 752,-282.62 752,-282.62 651,-282.62 651,-282.62 645,-282.62 639,-276.62 639,-270.62 639,-270.62 639,-258.62 639,-258.62 639,-252.62 645,-246.62 651,-246.62"/>
<text text-anchor="middle" x="701.5" y="-260.92" font-family="Times,serif" font-size="14.00">slice [10] to [0]</text>
</g>
<!-- n17&#45;&gt;x5 -->
<g id="edge62" class="edge">
<title>n17:e&#45;&gt;x5:w</title>
<path fill="none" stroke="black" d="M54,-465.62C130.36,-465.62 32.09,-347.39 90,-297.62 180,-220.27 498.21,-262.26 627.43,-264.53"/>
<polygon fill="black" stroke="black" points="627.47,-268.03 637.5,-264.62 627.53,-261.03 627.47,-268.03"/>
</g>
<!-- x7 -->
<g id="node30" class="node">
<title>x7</title>
<path fill="none" stroke="black" d="M1020,-148.62C1020,-148.62 1121,-148.62 1121,-148.62 1127,-148.62 1133,-154.62 1133,-160.62 1133,-160.62 1133,-172.62 1133,-172.62 1133,-178.62 1127,-184.62 1121,-184.62 1121,-184.62 1020,-184.62 1020,-184.62 1014,-184.62 1008,-178.62 1008,-172.62 1008,-172.62 1008,-160.62 1008,-160.62 1008,-154.62 1014,-148.62 1020,-148.62"/>
<text text-anchor="middle" x="1070.5" y="-162.92" font-family="Times,serif" font-size="14.00">slice [11] to [0]</text>
</g>
<!-- n17&#45;&gt;x7 -->
<g id="edge63" class="edge">
<title>n17:e&#45;&gt;x7:w</title>
<path fill="none" stroke="black" d="M54,-465.62C112.77,-465.62 48.26,-244.99 90,-203.62 166.86,-127.44 223.29,-172.62 331.5,-172.62 331.5,-172.62 331.5,-172.62 702.5,-172.62 834.21,-172.62 869.58,-166.92 996.4,-166.63"/>
<polygon fill="black" stroke="black" points="996.5,-170.13 1006.5,-166.62 996.5,-163.13 996.5,-170.13"/>
</g>
<!-- x9 -->
<g id="node33" class="node">
<title>x9</title>
<path fill="none" stroke="black" d="M1389,-83.62C1389,-83.62 1490,-83.62 1490,-83.62 1496,-83.62 1502,-89.62 1502,-95.62 1502,-95.62 1502,-107.62 1502,-107.62 1502,-113.62 1496,-119.62 1490,-119.62 1490,-119.62 1389,-119.62 1389,-119.62 1383,-119.62 1377,-113.62 1377,-107.62 1377,-107.62 1377,-95.62 1377,-95.62 1377,-89.62 1383,-83.62 1389,-83.62"/>
<text text-anchor="middle" x="1439.5" y="-97.92" font-family="Times,serif" font-size="14.00">slice [12] to [0]</text>
</g>
<!-- n17&#45;&gt;x9 -->
<g id="edge64" class="edge">
<title>n17:e&#45;&gt;x9:w</title>
<path fill="none" stroke="black" d="M54,-465.62C123.35,-465.62 43.08,-206.69 90,-155.62 164.1,-74.97 221.98,-106.62 331.5,-106.62 331.5,-106.62 331.5,-106.62 1071.5,-106.62 1203.2,-106.62 1238.59,-101.87 1365.4,-101.63"/>
<polygon fill="black" stroke="black" points="1365.5,-105.13 1375.5,-101.62 1365.5,-98.13 1365.5,-105.13"/>
</g>
<!-- x11 -->
<g id="node36" class="node">
<title>x11</title>
<path fill="none" stroke="black" d="M1702.66,-197.62C1702.66,-197.62 1803.66,-197.62 1803.66,-197.62 1809.66,-197.62 1815.66,-203.62 1815.66,-209.62 1815.66,-209.62 1815.66,-221.62 1815.66,-221.62 1815.66,-227.62 1809.66,-233.62 1803.66,-233.62 1803.66,-233.62 1702.66,-233.62 1702.66,-233.62 1696.66,-233.62 1690.66,-227.62 1690.66,-221.62 1690.66,-221.62 1690.66,-209.62 1690.66,-209.62 1690.66,-203.62 1696.66,-197.62 1702.66,-197.62"/>
<text text-anchor="middle" x="1753.16" y="-211.92" font-family="Times,serif" font-size="14.00">slice [13] to [0]</text>
</g>
<!-- n17&#45;&gt;x11 -->
<g id="edge50" class="edge">
<title>n17:e&#45;&gt;x11:w</title>
<path fill="none" stroke="black" d="M54,-465.62C101.57,-465.62 56.08,-287.97 90,-254.62 167.43,-178.49 222.91,-217.62 331.5,-217.62 331.5,-217.62 331.5,-217.62 1440.5,-217.62 1547.57,-217.62 1576.84,-215.74 1679.04,-215.63"/>
<polygon fill="black" stroke="black" points="1679.17,-219.13 1689.16,-215.62 1679.16,-212.13 1679.17,-219.13"/>
</g>
<!-- x13 -->
<g id="node39" class="node">
<title>x13</title>
<path fill="none" stroke="black" d="M2016.33,-423.62C2016.33,-423.62 2117.33,-423.62 2117.33,-423.62 2123.33,-423.62 2129.33,-429.62 2129.33,-435.62 2129.33,-435.62 2129.33,-447.62 2129.33,-447.62 2129.33,-453.62 2123.33,-459.62 2117.33,-459.62 2117.33,-459.62 2016.33,-459.62 2016.33,-459.62 2010.33,-459.62 2004.33,-453.62 2004.33,-447.62 2004.33,-447.62 2004.33,-435.62 2004.33,-435.62 2004.33,-429.62 2010.33,-423.62 2016.33,-423.62"/>
<text text-anchor="middle" x="2066.83" y="-437.92" font-family="Times,serif" font-size="14.00">slice [14] to [0]</text>
</g>
<!-- n17&#45;&gt;x13 -->
<g id="edge51" class="edge">
<title>n17:e&#45;&gt;x13:w</title>
<path fill="none" stroke="black" d="M54,-465.62C70.1,-465.62 73.96,-463.01 90,-461.62 197.14,-452.35 223.96,-446.62 331.5,-446.62 331.5,-446.62 331.5,-446.62 1754.16,-446.62 1861.25,-446.62 1890.48,-441.93 1992.7,-441.64"/>
<polygon fill="black" stroke="black" points="1992.83,-445.14 2002.83,-441.62 1992.82,-438.14 1992.83,-445.14"/>
</g>
<!-- x15 -->
<g id="node42" class="node">
<title>x15</title>
<path fill="none" stroke="black" d="M2329.99,-868.62C2329.99,-868.62 2430.99,-868.62 2430.99,-868.62 2436.99,-868.62 2442.99,-874.62 2442.99,-880.62 2442.99,-880.62 2442.99,-892.62 2442.99,-892.62 2442.99,-898.62 2436.99,-904.62 2430.99,-904.62 2430.99,-904.62 2329.99,-904.62 2329.99,-904.62 2323.99,-904.62 2317.99,-898.62 2317.99,-892.62 2317.99,-892.62 2317.99,-880.62 2317.99,-880.62 2317.99,-874.62 2323.99,-868.62 2329.99,-868.62"/>
<text text-anchor="middle" x="2380.49" y="-882.92" font-family="Times,serif" font-size="14.00">slice [15] to [0]</text>
</g>
<!-- n17&#45;&gt;x15 -->
<g id="edge52" class="edge">
<title>n17:e&#45;&gt;x15:w</title>
<path fill="none" stroke="black" d="M54,-465.62C129.54,-465.62 42.37,-744.99 90,-803.62 161.12,-891.17 218.71,-881.62 331.5,-881.62 331.5,-881.62 331.5,-881.62 2067.83,-881.62 2174.91,-881.62 2204.15,-886.31 2306.37,-886.61"/>
<polygon fill="black" stroke="black" points="2306.49,-890.11 2316.49,-886.62 2306.5,-883.11 2306.49,-890.11"/>
</g>
<!-- x17 -->
<g id="node45" class="node">
<title>x17</title>
<path fill="none" stroke="black" d="M286.5,-628.62C286.5,-628.62 378.5,-628.62 378.5,-628.62 384.5,-628.62 390.5,-634.62 390.5,-640.62 390.5,-640.62 390.5,-652.62 390.5,-652.62 390.5,-658.62 384.5,-664.62 378.5,-664.62 378.5,-664.62 286.5,-664.62 286.5,-664.62 280.5,-664.62 274.5,-658.62 274.5,-652.62 274.5,-652.62 274.5,-640.62 274.5,-640.62 274.5,-634.62 280.5,-628.62 286.5,-628.62"/>
<text text-anchor="middle" x="332.5" y="-642.92" font-family="Times,serif" font-size="14.00">slice [2] to [0]</text>
</g>
<!-- n17&#45;&gt;x17 -->
<g id="edge53" class="edge">
<title>n17:e&#45;&gt;x17:w</title>
<path fill="none" stroke="black" d="M54,-465.62C121.26,-465.62 41.1,-566.43 90,-612.62 147.71,-667.13 187.06,-648.45 263.04,-646.74"/>
<polygon fill="black" stroke="black" points="263.54,-650.24 273.5,-646.62 263.46,-643.24 263.54,-650.24"/>
</g>
<!-- x19 -->
<g id="node48" class="node">
<title>x19</title>
<path fill="none" stroke="black" d="M471,-599.62C471,-599.62 563,-599.62 563,-599.62 569,-599.62 575,-605.62 575,-611.62 575,-611.62 575,-623.62 575,-623.62 575,-629.62 569,-635.62 563,-635.62 563,-635.62 471,-635.62 471,-635.62 465,-635.62 459,-629.62 459,-623.62 459,-623.62 459,-611.62 459,-611.62 459,-605.62 465,-599.62 471,-599.62"/>
<text text-anchor="middle" x="517" y="-613.92" font-family="Times,serif" font-size="14.00">slice [3] to [0]</text>
</g>
<!-- n17&#45;&gt;x19 -->
<g id="edge54" class="edge">
<title>n17:e&#45;&gt;x19:w</title>
<path fill="none" stroke="black" d="M54,-465.62C105.02,-465.62 50.46,-542.39 90,-574.62 151.55,-624.8 359.73,-618.23 448.98,-617.66"/>
<polygon fill="black" stroke="black" points="449.01,-621.16 459,-617.62 448.99,-614.16 449.01,-621.16"/>
</g>
<!-- x21 -->
<g id="node51" class="node">
<title>x21</title>
<path fill="none" stroke="black" d="M655.5,-560.62C655.5,-560.62 747.5,-560.62 747.5,-560.62 753.5,-560.62 759.5,-566.62 759.5,-572.62 759.5,-572.62 759.5,-584.62 759.5,-584.62 759.5,-590.62 753.5,-596.62 747.5,-596.62 747.5,-596.62 655.5,-596.62 655.5,-596.62 649.5,-596.62 643.5,-590.62 643.5,-584.62 643.5,-584.62 643.5,-572.62 643.5,-572.62 643.5,-566.62 649.5,-560.62 655.5,-560.62"/>
<text text-anchor="middle" x="701.5" y="-574.92" font-family="Times,serif" font-size="14.00">slice [4] to [0]</text>
</g>
<!-- n17&#45;&gt;x21 -->
<g id="edge55" class="edge">
<title>n17:e&#45;&gt;x21:w</title>
<path fill="none" stroke="black" d="M54,-465.62C89.38,-465.62 60.58,-516.98 90,-536.62 189.7,-603.19 502.28,-579.95 632.34,-578.67"/>
<polygon fill="black" stroke="black" points="632.52,-582.17 642.5,-578.62 632.48,-575.17 632.52,-582.17"/>
</g>
<!-- x23 -->
<g id="node54" class="node">
<title>x23</title>
<path fill="none" stroke="black" d="M840,-517.62C840,-517.62 932,-517.62 932,-517.62 938,-517.62 944,-523.62 944,-529.62 944,-529.62 944,-541.62 944,-541.62 944,-547.62 938,-553.62 932,-553.62 932,-553.62 840,-553.62 840,-553.62 834,-553.62 828,-547.62 828,-541.62 828,-541.62 828,-529.62 828,-529.62 828,-523.62 834,-517.62 840,-517.62"/>
<text text-anchor="middle" x="886" y="-531.92" font-family="Times,serif" font-size="14.00">slice [5] to [0]</text>
</g>
<!-- n17&#45;&gt;x23 -->
<g id="edge56" class="edge">
<title>n17:e&#45;&gt;x23:w</title>
<path fill="none" stroke="black" d="M54,-465.62C75.71,-465.62 70.19,-489.76 90,-498.62 188.47,-542.65 223.64,-522.62 331.5,-522.62 331.5,-522.62 331.5,-522.62 518,-522.62 652.4,-522.62 688.3,-534.97 817.69,-535.6"/>
<polygon fill="black" stroke="black" points="817.99,-539.1 828,-535.62 818.01,-532.1 817.99,-539.1"/>
</g>
<!-- x25 -->
<g id="node57" class="node">
<title>x25</title>
<path fill="none" stroke="black" d="M1024.5,-477.62C1024.5,-477.62 1116.5,-477.62 1116.5,-477.62 1122.5,-477.62 1128.5,-483.62 1128.5,-489.62 1128.5,-489.62 1128.5,-501.62 1128.5,-501.62 1128.5,-507.62 1122.5,-513.62 1116.5,-513.62 1116.5,-513.62 1024.5,-513.62 1024.5,-513.62 1018.5,-513.62 1012.5,-507.62 1012.5,-501.62 1012.5,-501.62 1012.5,-489.62 1012.5,-489.62 1012.5,-483.62 1018.5,-477.62 1024.5,-477.62"/>
<text text-anchor="middle" x="1070.5" y="-491.92" font-family="Times,serif" font-size="14.00">slice [6] to [0]</text>
</g>
<!-- n17&#45;&gt;x25 -->
<g id="edge57" class="edge">
<title>n17:e&#45;&gt;x25:w</title>
<path fill="none" stroke="black" d="M54,-465.62C177.62,-465.62 207.88,-484.62 331.5,-484.62 331.5,-484.62 331.5,-484.62 702.5,-484.62 836.43,-484.62 872.28,-495.07 1001.23,-495.6"/>
<polygon fill="black" stroke="black" points="1001.49,-499.1 1011.5,-495.62 1001.51,-492.1 1001.49,-499.1"/>
</g>
<!-- x27 -->
<g id="node60" class="node">
<title>x27</title>
<path fill="none" stroke="black" d="M1209,-381.62C1209,-381.62 1301,-381.62 1301,-381.62 1307,-381.62 1313,-387.62 1313,-393.62 1313,-393.62 1313,-405.62 1313,-405.62 1313,-411.62 1307,-417.62 1301,-417.62 1301,-417.62 1209,-417.62 1209,-417.62 1203,-417.62 1197,-411.62 1197,-405.62 1197,-405.62 1197,-393.62 1197,-393.62 1197,-387.62 1203,-381.62 1209,-381.62"/>
<text text-anchor="middle" x="1255" y="-395.92" font-family="Times,serif" font-size="14.00">slice [7] to [0]</text>
</g>
<!-- n17&#45;&gt;x27 -->
<g id="edge58" class="edge">
<title>n17:e&#45;&gt;x27:w</title>
<path fill="none" stroke="black" d="M54,-465.62C75.71,-465.62 70.26,-441.64 90,-432.62 188.27,-387.71 223.45,-404.62 331.5,-404.62 331.5,-404.62 331.5,-404.62 887,-404.62 1021.3,-404.62 1057.39,-399.87 1186.7,-399.63"/>
<polygon fill="black" stroke="black" points="1187,-403.13 1197,-399.62 1187,-396.13 1187,-403.13"/>
</g>
<!-- x29 -->
<g id="node63" class="node">
<title>x29</title>
<path fill="none" stroke="black" d="M2648.16,-340.62C2648.16,-340.62 2740.16,-340.62 2740.16,-340.62 2746.16,-340.62 2752.16,-346.62 2752.16,-352.62 2752.16,-352.62 2752.16,-364.62 2752.16,-364.62 2752.16,-370.62 2746.16,-376.62 2740.16,-376.62 2740.16,-376.62 2648.16,-376.62 2648.16,-376.62 2642.16,-376.62 2636.16,-370.62 2636.16,-364.62 2636.16,-364.62 2636.16,-352.62 2636.16,-352.62 2636.16,-346.62 2642.16,-340.62 2648.16,-340.62"/>
<text text-anchor="middle" x="2694.16" y="-354.92" font-family="Times,serif" font-size="14.00">slice [8] to [0]</text>
</g>
<!-- n17&#45;&gt;x29 -->
<g id="edge59" class="edge">
<title>n17:e&#45;&gt;x29:w</title>
<path fill="none" stroke="black" d="M54,-465.62C88.2,-465.62 62.45,-417.88 90,-397.62 177.96,-332.94 222.32,-352.62 331.5,-352.62 331.5,-352.62 331.5,-352.62 2381.49,-352.62 2490.85,-352.62 2520.61,-358.26 2625.14,-358.61"/>
<polygon fill="black" stroke="black" points="2625.15,-362.11 2635.16,-358.62 2625.16,-355.11 2625.15,-362.11"/>
</g>
<!-- x31 -->
<g id="node66" class="node">
<title>x31</title>
<path fill="none" stroke="black" d="M3017.16,-293.62C3017.16,-293.62 3109.16,-293.62 3109.16,-293.62 3115.16,-293.62 3121.16,-299.62 3121.16,-305.62 3121.16,-305.62 3121.16,-317.62 3121.16,-317.62 3121.16,-323.62 3115.16,-329.62 3109.16,-329.62 3109.16,-329.62 3017.16,-329.62 3017.16,-329.62 3011.16,-329.62 3005.16,-323.62 3005.16,-317.62 3005.16,-317.62 3005.16,-305.62 3005.16,-305.62 3005.16,-299.62 3011.16,-293.62 3017.16,-293.62"/>
<text text-anchor="middle" x="3063.16" y="-307.92" font-family="Times,serif" font-size="14.00">slice [9] to [0]</text>
</g>
<!-- n17&#45;&gt;x31 -->
<g id="edge60" class="edge">
<title>n17:e&#45;&gt;x31:w</title>
<path fill="none" stroke="black" d="M54,-465.62C108.83,-465.62 48.47,-383.42 90,-347.62 172.2,-276.78 222.98,-311.62 331.5,-311.62 331.5,-311.62 331.5,-311.62 2695.16,-311.62 2829,-311.62 2865.01,-311.62 2993.89,-311.62"/>
<polygon fill="black" stroke="black" points="2994.16,-315.12 3004.16,-311.62 2994.16,-308.12 2994.16,-315.12"/>
</g>
<!-- n18 -->
<g id="node18" class="node">
<title>n18</title>
<polygon fill="none" stroke="black" points="6089.08,-450.17 6089.08,-465.08 6072.51,-475.62 6049.08,-475.62 6032.52,-465.08 6032.52,-450.17 6049.08,-439.62 6072.51,-439.62 6089.08,-450.17"/>
<text text-anchor="middle" x="6060.8" y="-453.92" font-family="Times,serif" font-size="14.00">out</text>
</g>
<!-- v1 -->
<g id="node19" class="node">
<title>v1</title>
<ellipse fill="none" stroke="black" cx="148" cy="-720.62" rx="27" ry="18"/>
<text text-anchor="middle" x="148" y="-716.92" font-family="Times,serif" font-size="14.00">1&#39;1</text>
</g>
<!-- c23 -->
<g id="node20" class="node">
<title>c23</title>
<polygon fill="none" stroke="black" points="242,-739.62 242,-785.62 423,-785.62 423,-739.62 242,-739.62"/>
<text text-anchor="middle" x="255" y="-770.42" font-family="Times,serif" font-size="14.00">a</text>
<polyline fill="none" stroke="black" points="242,-762.62 268,-762.62 "/>
<text text-anchor="middle" x="255" y="-747.42" font-family="Times,serif" font-size="14.00">b</text>
<polyline fill="none" stroke="black" points="268,-739.62 268,-785.62 "/>
<text text-anchor="middle" x="318.5" y="-766.42" font-family="Times,serif" font-size="14.00">halfadder_0</text>
<text text-anchor="middle" x="318.5" y="-751.42" font-family="Times,serif" font-size="14.00">HalfAdder</text>
<polyline fill="none" stroke="black" points="369,-739.62 369,-785.62 "/>
<text text-anchor="middle" x="396" y="-770.42" font-family="Times,serif" font-size="14.00">carry</text>
<polyline fill="none" stroke="black" points="369,-762.62 423,-762.62 "/>
<text text-anchor="middle" x="396" y="-747.42" font-family="Times,serif" font-size="14.00">sum</text>
</g>
<!-- v1&#45;&gt;c23 -->
<g id="edge96" class="edge">
<title>v1:e&#45;&gt;c23:w</title>
<path fill="none" stroke="black" d="M176,-720.62C204.45,-720.62 208.99,-744 231.84,-749.48"/>
<polygon fill="black" stroke="black" points="231.67,-752.99 242,-750.62 232.45,-746.03 231.67,-752.99"/>
</g>
<!-- c23&#45;&gt;n1 -->
<g id="edge33" class="edge">
<title>c23:e&#45;&gt;n1:w</title>
<path fill="none" stroke="black" d="M423,-774.62C448.48,-774.62 455.18,-760.2 475.82,-756.49"/>
<polygon fill="black" stroke="black" points="476.33,-759.96 486,-755.62 475.74,-752.98 476.33,-759.96"/>
</g>
<!-- x2 -->
<g id="node22" class="node">
<title>x2</title>
<path fill="none" stroke="black" d="M3386.16,-821.62C3386.16,-821.62 3478.16,-821.62 3478.16,-821.62 3484.16,-821.62 3490.16,-827.62 3490.16,-833.62 3490.16,-833.62 3490.16,-845.62 3490.16,-845.62 3490.16,-851.62 3484.16,-857.62 3478.16,-857.62 3478.16,-857.62 3386.16,-857.62 3386.16,-857.62 3380.16,-857.62 3374.16,-851.62 3374.16,-845.62 3374.16,-845.62 3374.16,-833.62 3374.16,-833.62 3374.16,-827.62 3380.16,-821.62 3386.16,-821.62"/>
<text text-anchor="middle" x="3432.16" y="-835.92" font-family="Times,serif" font-size="14.00">slice [0] to [0]</text>
</g>
<!-- c23&#45;&gt;x2 -->
<g id="edge2" class="edge">
<title>c23:e&#45;&gt;x2:w</title>
<path fill="none" stroke="black" d="M434.83,-754.21C446.69,-764.02 439.41,-791.31 459,-803.62 550.88,-861.36 591.98,-839.62 700.5,-839.62 700.5,-839.62 700.5,-839.62 3064.16,-839.62 3197.33,-839.62 3233.65,-839.62 3360.96,-839.62"/>
<polygon fill="none" stroke="black" points="434.48,-754.11 427.58,-756.19 423,-750.62 429.9,-748.54 434.48,-754.11"/>
<polygon fill="none" stroke="black" points="3361.16,-839.62 3367.16,-835.62 3373.16,-839.62 3367.16,-843.62 3361.16,-839.62"/>
</g>
<!-- x0&#45;&gt;c23 -->
<g id="edge1" class="edge">
<title>x0:e&#45;&gt;c23:w</title>
<path fill="none" stroke="black" d="M218.22,-775.39C222.29,-775.23 225.73,-775.01 229.81,-774.85"/>
<polygon fill="none" stroke="black" points="218,-775.39 212.07,-779.51 206,-775.62 211.92,-771.51 218,-775.39"/>
<polygon fill="none" stroke="black" points="230,-774.85 235.93,-770.74 242,-774.62 236.08,-778.73 230,-774.85"/>
</g>
<!-- x2&#45;&gt;n18 -->
<g id="edge75" class="edge">
<title>x2:e&#45;&gt;n18:w</title>
<path fill="none" stroke="black" d="M3491.16,-839.62C3630.55,-839.62 3665.27,-848.62 3804.66,-848.62 3804.66,-848.62 3804.66,-848.62 5741.66,-848.62 5859.92,-848.62 5920.7,-863.26 5996.66,-772.62 6039.52,-721.47 5970.26,-484.57 6022.72,-459.73"/>
<polygon fill="black" stroke="black" points="6023.6,-463.12 6032.66,-457.62 6022.15,-456.27 6023.6,-463.12"/>
</g>
<!-- c24&#45;&gt;n2 -->
<g id="edge81" class="edge">
<title>c24:e&#45;&gt;n2:w</title>
<path fill="none" stroke="black" d="M792,-787.62C842.6,-787.62 806.53,-696.87 844.94,-684.11"/>
<polygon fill="black" stroke="black" points="845.62,-687.54 855,-682.62 844.6,-680.62 845.62,-687.54"/>
</g>
<!-- x4 -->
<g id="node25" class="node">
<title>x4</title>
<path fill="none" stroke="black" d="M3759.66,-753.62C3759.66,-753.62 3851.66,-753.62 3851.66,-753.62 3857.66,-753.62 3863.66,-759.62 3863.66,-765.62 3863.66,-765.62 3863.66,-777.62 3863.66,-777.62 3863.66,-783.62 3857.66,-789.62 3851.66,-789.62 3851.66,-789.62 3759.66,-789.62 3759.66,-789.62 3753.66,-789.62 3747.66,-783.62 3747.66,-777.62 3747.66,-777.62 3747.66,-765.62 3747.66,-765.62 3747.66,-759.62 3753.66,-753.62 3759.66,-753.62"/>
<text text-anchor="middle" x="3805.66" y="-767.92" font-family="Times,serif" font-size="14.00">slice [0] to [1]</text>
</g>
<!-- c24&#45;&gt;x4 -->
<g id="edge4" class="edge">
<title>c24:e&#45;&gt;x4:w</title>
<path fill="none" stroke="black" d="M804.33,-763.64C917.56,-763.89 950.37,-767.62 1069.5,-767.62 1069.5,-767.62 1069.5,-767.62 3433.16,-767.62 3568.28,-767.62 3605.11,-771.38 3734.28,-771.61"/>
<polygon fill="none" stroke="black" points="804,-763.64 798,-767.63 792,-763.62 798,-759.63 804,-763.64"/>
<polygon fill="none" stroke="black" points="3734.66,-771.61 3740.66,-767.62 3746.66,-771.62 3740.65,-775.62 3734.66,-771.61"/>
</g>
<!-- x3&#45;&gt;c24 -->
<g id="edge3" class="edge">
<title>x3:e&#45;&gt;c24:w</title>
<path fill="none" stroke="black" d="M403.75,-704.31C434.61,-713.98 422.3,-762.62 459,-782.62 514.64,-812.95 540.14,-790.81 598.81,-787.92"/>
<polygon fill="none" stroke="black" points="403.39,-704.26 396.9,-707.4 391.5,-702.62 397.99,-699.48 403.39,-704.26"/>
<polygon fill="none" stroke="black" points="599,-787.92 604.9,-783.77 611,-787.62 605.1,-791.77 599,-787.92"/>
</g>
<!-- x4&#45;&gt;n18 -->
<g id="edge78" class="edge">
<title>x4:e&#45;&gt;n18:w</title>
<path fill="none" stroke="black" d="M3864.66,-771.62C4009.99,-771.62 4046.32,-772.62 4191.66,-772.62 4191.66,-772.62 4191.66,-772.62 5741.66,-772.62 5856.24,-772.62 5916.39,-816.4 5996.66,-734.62 6037.51,-693 5978.59,-485.11 6022.78,-460.09"/>
<polygon fill="black" stroke="black" points="6023.8,-463.44 6032.66,-457.62 6022.11,-456.65 6023.8,-463.44"/>
</g>
<!-- c25&#45;&gt;n3 -->
<g id="edge83" class="edge">
<title>c25:e&#45;&gt;n3:w</title>
<path fill="none" stroke="black" d="M3900.66,-327.62C3928.34,-327.62 3928.22,-296.72 3949.17,-289.24"/>
<polygon fill="black" stroke="black" points="3949.85,-292.68 3959.16,-287.62 3948.73,-285.77 3949.85,-292.68"/>
</g>
<!-- x6 -->
<g id="node28" class="node">
<title>x6</title>
<path fill="none" stroke="black" d="M3948.66,-324.62C3948.66,-324.62 4049.66,-324.62 4049.66,-324.62 4055.66,-324.62 4061.66,-330.62 4061.66,-336.62 4061.66,-336.62 4061.66,-348.62 4061.66,-348.62 4061.66,-354.62 4055.66,-360.62 4049.66,-360.62 4049.66,-360.62 3948.66,-360.62 3948.66,-360.62 3942.66,-360.62 3936.66,-354.62 3936.66,-348.62 3936.66,-348.62 3936.66,-336.62 3936.66,-336.62 3936.66,-330.62 3942.66,-324.62 3948.66,-324.62"/>
<text text-anchor="middle" x="3999.16" y="-338.92" font-family="Times,serif" font-size="14.00">slice [0] to [10]</text>
</g>
<!-- c25&#45;&gt;x6 -->
<g id="edge6" class="edge">
<title>c25:e&#45;&gt;x6:w</title>
<path fill="none" stroke="black" d="M3911.87,-308.4C3918.45,-315.89 3918.85,-330.29 3925.41,-337.8"/>
<polygon fill="none" stroke="black" points="3911.7,-308.33 3904.61,-309.65 3900.66,-303.62 3907.75,-302.3 3911.7,-308.33"/>
<polygon fill="none" stroke="black" points="3925.63,-337.9 3932.72,-336.58 3936.66,-342.62 3929.57,-343.94 3925.63,-337.9"/>
</g>
<!-- x5&#45;&gt;c25 -->
<g id="edge5" class="edge">
<title>x5:e&#45;&gt;c25:w</title>
<path fill="none" stroke="black" d="M777.88,-264.62C902.82,-264.62 938.61,-264.62 1069.5,-264.62 1069.5,-264.62 1069.5,-264.62 3248.66,-264.62 3438.7,-264.62 3496.53,-235.37 3674.66,-301.62 3688.39,-306.73 3690.7,-318.58 3699.04,-324.35"/>
<polygon fill="none" stroke="black" points="777.5,-264.62 771.5,-268.62 765.5,-264.62 771.5,-260.62 777.5,-264.62"/>
<polygon fill="none" stroke="black" points="3699.11,-324.37 3705.97,-322.14 3710.66,-327.62 3703.8,-329.84 3699.11,-324.37"/>
</g>
<!-- x6&#45;&gt;n18 -->
<g id="edge79" class="edge">
<title>x6:e&#45;&gt;n18:w</title>
<path fill="none" stroke="black" d="M4061.66,-342.62C4205.77,-342.62 4241.05,-320.62 4385.16,-320.62 4385.16,-320.62 4385.16,-320.62 5741.66,-320.62 5855.49,-320.62 5908.01,-273.21 5996.66,-344.62 6034.66,-375.23 5987.98,-446.01 6022.66,-456.35"/>
<polygon fill="black" stroke="black" points="6022.3,-459.83 6032.66,-457.62 6023.18,-452.89 6022.3,-459.83"/>
</g>
<!-- c26&#45;&gt;n4 -->
<g id="edge85" class="edge">
<title>c26:e&#45;&gt;n4:w</title>
<path fill="none" stroke="black" d="M4287.66,-211.62C4313.29,-211.62 4316.33,-188.1 4336.14,-182.03"/>
<polygon fill="black" stroke="black" points="4336.74,-185.48 4346.16,-180.62 4335.77,-178.55 4336.74,-185.48"/>
</g>
<!-- x8 -->
<g id="node31" class="node">
<title>x8</title>
<path fill="none" stroke="black" d="M4335.66,-217.62C4335.66,-217.62 4436.66,-217.62 4436.66,-217.62 4442.66,-217.62 4448.66,-223.62 4448.66,-229.62 4448.66,-229.62 4448.66,-241.62 4448.66,-241.62 4448.66,-247.62 4442.66,-253.62 4436.66,-253.62 4436.66,-253.62 4335.66,-253.62 4335.66,-253.62 4329.66,-253.62 4323.66,-247.62 4323.66,-241.62 4323.66,-241.62 4323.66,-229.62 4323.66,-229.62 4323.66,-223.62 4329.66,-217.62 4335.66,-217.62"/>
<text text-anchor="middle" x="4386.16" y="-231.92" font-family="Times,serif" font-size="14.00">slice [0] to [11]</text>
</g>
<!-- c26&#45;&gt;x8 -->
<g id="edge8" class="edge">
<title>c26:e&#45;&gt;x8:w</title>
<path fill="none" stroke="black" d="M4298.9,-192.4C4306.73,-201.6 4304.59,-221.68 4312.43,-230.86"/>
<polygon fill="none" stroke="black" points="4298.7,-192.31 4291.62,-193.65 4287.66,-187.62 4294.74,-186.29 4298.7,-192.31"/>
<polygon fill="none" stroke="black" points="4312.61,-230.94 4319.69,-229.6 4323.66,-235.62 4316.57,-236.96 4312.61,-230.94"/>
</g>
<!-- x7&#45;&gt;c26 -->
<g id="edge7" class="edge">
<title>x7:e&#45;&gt;c26:w</title>
<path fill="none" stroke="black" d="M1146.88,-166.62C1271.82,-166.56 1307.61,-165.62 1438.5,-165.62 1438.5,-165.62 1438.5,-165.62 3617.66,-165.62 3827.89,-165.62 3881.33,-209.89 4085.59,-211.57"/>
<polygon fill="none" stroke="black" points="1146.5,-166.62 1140.5,-170.62 1134.5,-166.62 1140.5,-162.62 1146.5,-166.62"/>
<polygon fill="none" stroke="black" points="4085.66,-211.57 4091.67,-207.6 4097.66,-211.62 4091.64,-215.6 4085.66,-211.57"/>
</g>
<!-- x8&#45;&gt;n18 -->
<g id="edge80" class="edge">
<title>x8:e&#45;&gt;n18:w</title>
<path fill="none" stroke="black" d="M4448.66,-235.62C4850.98,-235.62 4950.34,-282.62 5352.66,-282.62 5352.66,-282.62 5352.66,-282.62 5741.66,-282.62 5855.49,-282.62 5910.72,-231.96 5996.66,-306.62 6045.89,-349.4 5972.56,-446.24 6022.67,-456.7"/>
<polygon fill="black" stroke="black" points="6022.38,-460.19 6032.66,-457.62 6023.02,-453.22 6022.38,-460.19"/>
</g>
<!-- c27&#45;&gt;n5 -->
<g id="edge87" class="edge">
<title>c27:e&#45;&gt;n5:w</title>
<path fill="none" stroke="black" d="M4674.66,-96.62C4696.8,-96.62 4704.8,-96.62 4722.74,-96.62"/>
<polygon fill="black" stroke="black" points="4723.16,-100.12 4733.16,-96.62 4723.16,-93.12 4723.16,-100.12"/>
</g>
<!-- x10 -->
<g id="node34" class="node">
<title>x10</title>
<path fill="none" stroke="black" d="M4722.66,-23.62C4722.66,-23.62 4823.66,-23.62 4823.66,-23.62 4829.66,-23.62 4835.66,-29.62 4835.66,-35.62 4835.66,-35.62 4835.66,-47.62 4835.66,-47.62 4835.66,-53.62 4829.66,-59.62 4823.66,-59.62 4823.66,-59.62 4722.66,-59.62 4722.66,-59.62 4716.66,-59.62 4710.66,-53.62 4710.66,-47.62 4710.66,-47.62 4710.66,-35.62 4710.66,-35.62 4710.66,-29.62 4716.66,-23.62 4722.66,-23.62"/>
<text text-anchor="middle" x="4773.16" y="-37.92" font-family="Times,serif" font-size="14.00">slice [0] to [12]</text>
</g>
<!-- c27&#45;&gt;x10 -->
<g id="edge10" class="edge">
<title>c27:e&#45;&gt;x10:w</title>
<path fill="none" stroke="black" d="M4685.96,-68.05C4691.6,-62.25 4693.59,-52.32 4699.14,-46.42"/>
<polygon fill="none" stroke="black" points="4685.78,-68.12 4681.72,-74.08 4674.66,-72.62 4678.72,-66.66 4685.78,-68.12"/>
<polygon fill="none" stroke="black" points="4699.58,-46.23 4703.58,-40.24 4710.66,-41.62 4706.66,-47.62 4699.58,-46.23"/>
</g>
<!-- x9&#45;&gt;c27 -->
<g id="edge9" class="edge">
<title>x9:e&#45;&gt;c27:w</title>
<path fill="none" stroke="black" d="M1515.78,-101.6C1616.26,-101.25 1645.83,-96.62 1752.16,-96.62 1752.16,-96.62 1752.16,-96.62 4193.66,-96.62 4318.82,-96.62 4353.14,-96.62 4472.45,-96.62"/>
<polygon fill="none" stroke="black" points="1515.5,-101.6 1509.51,-105.61 1503.5,-101.62 1509.49,-97.61 1515.5,-101.6"/>
<polygon fill="none" stroke="black" points="4472.66,-96.62 4478.66,-92.62 4484.66,-96.62 4478.66,-100.62 4472.66,-96.62"/>
</g>
<!-- x10&#45;&gt;n18 -->
<g id="edge65" class="edge">
<title>x10:e&#45;&gt;n18:w</title>
<path fill="none" stroke="black" d="M4835.66,-41.62C4980.48,-41.62 5014.34,-80.62 5159.16,-80.62 5159.16,-80.62 5159.16,-80.62 5741.66,-80.62 5867.1,-80.62 5922.37,-100.53 5996.66,-201.62 6028.48,-244.93 5981.99,-431.27 6022.9,-455.11"/>
<polygon fill="black" stroke="black" points="6022.1,-458.52 6032.66,-457.62 6023.85,-451.74 6022.1,-458.52"/>
</g>
<!-- c28&#45;&gt;n6 -->
<g id="edge89" class="edge">
<title>c28:e&#45;&gt;n6:w</title>
<path fill="none" stroke="black" d="M5061.66,-148.62C5090.62,-148.62 5088.47,-183.69 5110.14,-191.91"/>
<polygon fill="black" stroke="black" points="5109.71,-195.39 5120.16,-193.62 5110.89,-188.49 5109.71,-195.39"/>
</g>
<!-- x12 -->
<g id="node37" class="node">
<title>x12</title>
<path fill="none" stroke="black" d="M5109.66,-109.62C5109.66,-109.62 5210.66,-109.62 5210.66,-109.62 5216.66,-109.62 5222.66,-115.62 5222.66,-121.62 5222.66,-121.62 5222.66,-133.62 5222.66,-133.62 5222.66,-139.62 5216.66,-145.62 5210.66,-145.62 5210.66,-145.62 5109.66,-145.62 5109.66,-145.62 5103.66,-145.62 5097.66,-139.62 5097.66,-133.62 5097.66,-133.62 5097.66,-121.62 5097.66,-121.62 5097.66,-115.62 5103.66,-109.62 5109.66,-109.62"/>
<text text-anchor="middle" x="5160.16" y="-123.92" font-family="Times,serif" font-size="14.00">slice [0] to [13]</text>
</g>
<!-- c28&#45;&gt;x12 -->
<g id="edge12" class="edge">
<title>c28:e&#45;&gt;x12:w</title>
<path fill="none" stroke="black" d="M5073.89,-125.32C5077.96,-125.8 5081.38,-126.45 5085.46,-126.93"/>
<polygon fill="none" stroke="black" points="5073.64,-125.3 5067.42,-128.96 5061.66,-124.62 5067.88,-120.97 5073.64,-125.3"/>
<polygon fill="none" stroke="black" points="5085.68,-126.94 5091.89,-123.29 5097.66,-127.62 5091.44,-131.28 5085.68,-126.94"/>
</g>
<!-- x11&#45;&gt;c28 -->
<g id="edge11" class="edge">
<title>x11:e&#45;&gt;c28:w</title>
<path fill="none" stroke="black" d="M1829.45,-215.57C1930.02,-214.73 1959.4,-203.62 2065.83,-203.62 2065.83,-203.62 2065.83,-203.62 3617.66,-203.62 3831.62,-203.62 3884.17,-180.99 4097.66,-166.62 4198.04,-159.87 4223.1,-156.97 4323.66,-153.62 4562.93,-145.65 4625.95,-148.52 4859.33,-148.62"/>
<polygon fill="none" stroke="black" points="1829.16,-215.57 1823.18,-219.6 1817.16,-215.62 1823.15,-211.6 1829.16,-215.57"/>
<polygon fill="none" stroke="black" points="4859.66,-148.62 4865.66,-144.62 4871.66,-148.62 4865.66,-152.62 4859.66,-148.62"/>
</g>
<!-- x12&#45;&gt;n18 -->
<g id="edge66" class="edge">
<title>x12:e&#45;&gt;n18:w</title>
<path fill="none" stroke="black" d="M5222.66,-127.62C5371.32,-127.62 5397.5,-42.62 5546.16,-42.62 5546.16,-42.62 5546.16,-42.62 5741.66,-42.62 5855.49,-42.62 5916.25,13.95 5996.66,-66.62 6055.65,-125.73 5954.78,-429.82 6022.49,-455.85"/>
<polygon fill="black" stroke="black" points="6022.2,-459.35 6032.66,-457.62 6023.41,-452.45 6022.2,-459.35"/>
</g>
<!-- c29&#45;&gt;n7 -->
<g id="edge91" class="edge">
<title>c29:e&#45;&gt;n7:w</title>
<path fill="none" stroke="black" d="M5448.66,-242.62C5521.47,-242.62 5439.44,-389.19 5497.13,-403.5"/>
<polygon fill="black" stroke="black" points="5496.83,-406.99 5507.16,-404.62 5497.61,-400.03 5496.83,-406.99"/>
</g>
<!-- x14 -->
<g id="node40" class="node">
<title>x14</title>
<path fill="none" stroke="black" d="M5496.66,-208.62C5496.66,-208.62 5597.66,-208.62 5597.66,-208.62 5603.66,-208.62 5609.66,-214.62 5609.66,-220.62 5609.66,-220.62 5609.66,-232.62 5609.66,-232.62 5609.66,-238.62 5603.66,-244.62 5597.66,-244.62 5597.66,-244.62 5496.66,-244.62 5496.66,-244.62 5490.66,-244.62 5484.66,-238.62 5484.66,-232.62 5484.66,-232.62 5484.66,-220.62 5484.66,-220.62 5484.66,-214.62 5490.66,-208.62 5496.66,-208.62"/>
<text text-anchor="middle" x="5547.16" y="-222.92" font-family="Times,serif" font-size="14.00">slice [0] to [14]</text>
</g>
<!-- c29&#45;&gt;x14 -->
<g id="edge14" class="edge">
<title>c29:e&#45;&gt;x14:w</title>
<path fill="none" stroke="black" d="M5460.72,-220.4C5464.94,-221.72 5468.38,-223.53 5472.61,-224.85"/>
<polygon fill="none" stroke="black" points="5460.53,-220.37 5454.01,-223.45 5448.66,-218.62 5455.18,-215.54 5460.53,-220.37"/>
<polygon fill="none" stroke="black" points="5472.79,-224.88 5479.3,-221.79 5484.66,-226.62 5478.14,-229.71 5472.79,-224.88"/>
</g>
<!-- x13&#45;&gt;c29 -->
<g id="edge13" class="edge">
<title>x13:e&#45;&gt;c29:w</title>
<path fill="none" stroke="black" d="M2142.91,-441.58C2503.29,-438.88 3363.66,-318.81 3710.66,-282.62 3811.03,-272.15 3835.86,-265.52 3936.66,-260.62 3992.15,-257.93 4006.11,-259.44 4061.66,-260.62 4291.59,-265.51 4348.67,-282.62 4578.66,-282.62 4578.66,-282.62 4578.66,-282.62 4774.16,-282.62 4986.11,-282.62 5040.54,-244.13 5246.49,-242.66"/>
<polygon fill="none" stroke="black" points="2142.83,-441.58 2136.84,-445.6 2130.83,-441.62 2136.81,-437.6 2142.83,-441.58"/>
<polygon fill="none" stroke="black" points="5246.66,-242.66 5252.64,-238.64 5258.66,-242.62 5252.67,-246.64 5246.66,-242.66"/>
</g>
<!-- x14&#45;&gt;n18 -->
<g id="edge67" class="edge">
<title>x14:e&#45;&gt;n18:w</title>
<path fill="none" stroke="black" d="M5609.66,-226.62C5782.67,-226.62 5869.52,-151.28 5996.66,-268.62 6056.67,-324.01 5956.89,-446 6022.3,-456.85"/>
<polygon fill="black" stroke="black" points="6022.42,-460.37 6032.66,-457.62 6022.95,-453.39 6022.42,-460.37"/>
</g>
<!-- c30&#45;&gt;n8 -->
<g id="edge93" class="edge">
<title>c30:e&#45;&gt;n8:w</title>
<path fill="none" stroke="black" d="M5835.66,-510.62C5860.33,-510.62 5864.81,-530.17 5884.12,-535.37"/>
<polygon fill="black" stroke="black" points="5883.8,-538.86 5894.16,-536.62 5884.67,-531.91 5883.8,-538.86"/>
</g>
<!-- x16 -->
<g id="node43" class="node">
<title>x16</title>
<path fill="none" stroke="black" d="M5883.66,-463.62C5883.66,-463.62 5984.66,-463.62 5984.66,-463.62 5990.66,-463.62 5996.66,-469.62 5996.66,-475.62 5996.66,-475.62 5996.66,-487.62 5996.66,-487.62 5996.66,-493.62 5990.66,-499.62 5984.66,-499.62 5984.66,-499.62 5883.66,-499.62 5883.66,-499.62 5877.66,-499.62 5871.66,-493.62 5871.66,-487.62 5871.66,-487.62 5871.66,-475.62 5871.66,-475.62 5871.66,-469.62 5877.66,-463.62 5883.66,-463.62"/>
<text text-anchor="middle" x="5934.16" y="-477.92" font-family="Times,serif" font-size="14.00">slice [0] to [15]</text>
</g>
<!-- c30&#45;&gt;x16 -->
<g id="edge16" class="edge">
<title>c30:e&#45;&gt;x16:w</title>
<path fill="none" stroke="black" d="M5847.66,-485.51C5851.91,-484.68 5855.42,-483.56 5859.67,-482.73"/>
<polygon fill="none" stroke="black" points="5847.61,-485.52 5842,-490.05 5835.66,-486.62 5841.26,-482.09 5847.61,-485.52"/>
<polygon fill="none" stroke="black" points="5859.71,-482.73 5865.32,-478.19 5871.66,-481.62 5866.05,-486.16 5859.71,-482.73"/>
</g>
<!-- x15&#45;&gt;c30 -->
<g id="edge15" class="edge">
<title>x15:e&#45;&gt;c30:w</title>
<path fill="none" stroke="black" d="M2456.77,-886.62C2557.24,-886.62 2586.85,-886.62 2693.16,-886.62 2693.16,-886.62 2693.16,-886.62 5161.16,-886.62 5293.45,-886.62 5497.02,-532.33 5633.49,-511.57"/>
<polygon fill="none" stroke="black" points="2456.49,-886.62 2450.49,-890.62 2444.49,-886.62 2450.49,-882.62 2456.49,-886.62"/>
<polygon fill="none" stroke="black" points="5633.69,-511.56 5639.36,-507.1 5645.66,-510.62 5639.99,-515.08 5633.69,-511.56"/>
</g>
<!-- x16&#45;&gt;n18 -->
<g id="edge68" class="edge">
<title>x16:e&#45;&gt;n18:w</title>
<path fill="none" stroke="black" d="M5996.66,-481.62C6011.83,-481.62 6013.5,-466.68 6022.98,-460.37"/>
<polygon fill="black" stroke="black" points="6024,-463.72 6032.66,-457.62 6022.08,-456.99 6024,-463.72"/>
</g>
<!-- c31&#45;&gt;n9 -->
<g id="edge94" class="edge">
<title>c31:e&#45;&gt;n9:w</title>
<path fill="none" stroke="black" d="M1161,-720.62C1204.17,-720.62 1181.55,-649 1213.92,-637.24"/>
<polygon fill="black" stroke="black" points="1214.68,-640.67 1224,-635.62 1213.57,-633.75 1214.68,-640.67"/>
</g>
<!-- x18 -->
<g id="node46" class="node">
<title>x18</title>
<path fill="none" stroke="black" d="M4146.66,-706.62C4146.66,-706.62 4238.66,-706.62 4238.66,-706.62 4244.66,-706.62 4250.66,-712.62 4250.66,-718.62 4250.66,-718.62 4250.66,-730.62 4250.66,-730.62 4250.66,-736.62 4244.66,-742.62 4238.66,-742.62 4238.66,-742.62 4146.66,-742.62 4146.66,-742.62 4140.66,-742.62 4134.66,-736.62 4134.66,-730.62 4134.66,-730.62 4134.66,-718.62 4134.66,-718.62 4134.66,-712.62 4140.66,-706.62 4146.66,-706.62"/>
<text text-anchor="middle" x="4192.66" y="-720.92" font-family="Times,serif" font-size="14.00">slice [0] to [2]</text>
</g>
<!-- c31&#45;&gt;x18 -->
<g id="edge18" class="edge">
<title>c31:e&#45;&gt;x18:w</title>
<path fill="none" stroke="black" d="M1173.04,-696.71C1286.99,-698.39 1318.7,-723.62 1438.5,-723.62 1438.5,-723.62 1438.5,-723.62 3806.66,-723.62 3947.88,-723.62 3986.18,-724.57 4121.57,-724.62"/>
<polygon fill="none" stroke="black" points="1173,-696.71 1166.97,-700.67 1161,-696.62 1167.03,-692.67 1173,-696.71"/>
<polygon fill="none" stroke="black" points="4121.66,-724.62 4127.66,-720.62 4133.66,-724.62 4127.66,-728.62 4121.66,-724.62"/>
</g>
<!-- x17&#45;&gt;c31 -->
<g id="edge17" class="edge">
<title>x17:e&#45;&gt;c31:w</title>
<path fill="none" stroke="black" d="M403.71,-646.68C653.12,-648.88 718.48,-718.4 967.98,-720.57"/>
<polygon fill="none" stroke="black" points="403.5,-646.67 397.48,-650.65 391.5,-646.62 397.52,-642.65 403.5,-646.67"/>
<polygon fill="none" stroke="black" points="968,-720.57 974.02,-716.6 980,-720.62 973.98,-724.6 968,-720.57"/>
</g>
<!-- x18&#45;&gt;n18 -->
<g id="edge69" class="edge">
<title>x18:e&#45;&gt;n18:w</title>
<path fill="none" stroke="black" d="M4251.66,-724.62C4397.06,-724.62 4433.26,-734.62 4578.66,-734.62 4578.66,-734.62 4578.66,-734.62 5741.66,-734.62 5856.24,-734.62 5915.57,-777.58 5996.66,-696.62 6031.99,-661.34 5986.32,-485.09 6022.88,-460.48"/>
<polygon fill="black" stroke="black" points="6024.04,-463.78 6032.66,-457.62 6022.08,-457.07 6024.04,-463.78"/>
</g>
<!-- c32&#45;&gt;n10 -->
<g id="edge35" class="edge">
<title>c32:e&#45;&gt;n10:w</title>
<path fill="none" stroke="black" d="M1530,-670.62C1564,-670.62 1535.71,-608.75 1556.09,-595.22"/>
<polygon fill="black" stroke="black" points="1557.21,-598.54 1566,-592.62 1555.44,-591.77 1557.21,-598.54"/>
</g>
<!-- x20 -->
<g id="node49" class="node">
<title>x20</title>
<path fill="none" stroke="black" d="M4533.66,-668.62C4533.66,-668.62 4625.66,-668.62 4625.66,-668.62 4631.66,-668.62 4637.66,-674.62 4637.66,-680.62 4637.66,-680.62 4637.66,-692.62 4637.66,-692.62 4637.66,-698.62 4631.66,-704.62 4625.66,-704.62 4625.66,-704.62 4533.66,-704.62 4533.66,-704.62 4527.66,-704.62 4521.66,-698.62 4521.66,-692.62 4521.66,-692.62 4521.66,-680.62 4521.66,-680.62 4521.66,-674.62 4527.66,-668.62 4533.66,-668.62"/>
<text text-anchor="middle" x="4579.66" y="-682.92" font-family="Times,serif" font-size="14.00">slice [0] to [3]</text>
</g>
<!-- c32&#45;&gt;x20 -->
<g id="edge20" class="edge">
<title>c32:e&#45;&gt;x20:w</title>
<path fill="none" stroke="black" d="M1542.16,-646.78C1631.74,-649.17 1656.65,-677.62 1752.16,-677.62 1752.16,-677.62 1752.16,-677.62 4193.66,-677.62 4334.93,-677.62 4373.13,-686.12 4508.56,-686.6"/>
<polygon fill="none" stroke="black" points="1542,-646.78 1535.95,-650.7 1530,-646.62 1536.05,-642.7 1542,-646.78"/>
<polygon fill="none" stroke="black" points="4508.66,-686.6 4514.66,-682.61 4520.66,-686.62 4514.65,-690.61 4508.66,-686.6"/>
</g>
<!-- x19&#45;&gt;c32 -->
<g id="edge19" class="edge">
<title>x19:e&#45;&gt;c32:w</title>
<path fill="none" stroke="black" d="M587.02,-617.64C917.73,-618.84 1006.09,-669.37 1336.63,-670.6"/>
<polygon fill="none" stroke="black" points="587,-617.64 580.99,-621.63 575,-617.62 581.01,-613.63 587,-617.64"/>
<polygon fill="none" stroke="black" points="1337,-670.6 1343.01,-666.61 1349,-670.62 1342.99,-674.61 1337,-670.6"/>
</g>
<!-- x20&#45;&gt;n18 -->
<g id="edge70" class="edge">
<title>x20:e&#45;&gt;n18:w</title>
<path fill="none" stroke="black" d="M4638.66,-686.62C4784.06,-686.62 4820.26,-696.62 4965.66,-696.62 4965.66,-696.62 4965.66,-696.62 5741.66,-696.62 5856.24,-696.62 5914.46,-738.45 5996.66,-658.62 6059.09,-597.99 5951.42,-468.8 6022.53,-458.3"/>
<polygon fill="black" stroke="black" points="6022.91,-461.78 6032.66,-457.62 6022.45,-454.8 6022.91,-461.78"/>
</g>
<!-- c33&#45;&gt;n11 -->
<g id="edge37" class="edge">
<title>c33:e&#45;&gt;n11:w</title>
<path fill="none" stroke="black" d="M1843.66,-637.62C1879.79,-637.62 1847.6,-570.63 1869.85,-557.02"/>
<polygon fill="black" stroke="black" points="1870.78,-560.39 1879.66,-554.62 1869.12,-553.59 1870.78,-560.39"/>
</g>
<!-- x22 -->
<g id="node52" class="node">
<title>x22</title>
<path fill="none" stroke="black" d="M4920.66,-626.62C4920.66,-626.62 5012.66,-626.62 5012.66,-626.62 5018.66,-626.62 5024.66,-632.62 5024.66,-638.62 5024.66,-638.62 5024.66,-650.62 5024.66,-650.62 5024.66,-656.62 5018.66,-662.62 5012.66,-662.62 5012.66,-662.62 4920.66,-662.62 4920.66,-662.62 4914.66,-662.62 4908.66,-656.62 4908.66,-650.62 4908.66,-650.62 4908.66,-638.62 4908.66,-638.62 4908.66,-632.62 4914.66,-626.62 4920.66,-626.62"/>
<text text-anchor="middle" x="4966.66" y="-640.92" font-family="Times,serif" font-size="14.00">slice [0] to [4]</text>
</g>
<!-- c33&#45;&gt;x22 -->
<g id="edge22" class="edge">
<title>c33:e&#45;&gt;x22:w</title>
<path fill="none" stroke="black" d="M1855.8,-613.76C1945.17,-615.76 1970.59,-639.62 2065.83,-639.62 2065.83,-639.62 2065.83,-639.62 4580.66,-639.62 4721.89,-639.62 4760.16,-644.34 4895.57,-644.61"/>
<polygon fill="none" stroke="black" points="1855.66,-613.75 1849.62,-617.69 1843.66,-613.62 1849.71,-609.69 1855.66,-613.75"/>
<polygon fill="none" stroke="black" points="4895.66,-644.61 4901.66,-640.62 4907.66,-644.62 4901.65,-648.62 4895.66,-644.61"/>
</g>
<!-- x21&#45;&gt;c33 -->
<g id="edge21" class="edge">
<title>x21:e&#45;&gt;c33:w</title>
<path fill="none" stroke="black" d="M772.6,-578.63C1008.5,-579.06 1071.73,-592.07 1313,-608.62 1313,-608.62 1589.14,-631.52 1650.63,-636.62"/>
<polygon fill="none" stroke="black" points="772.5,-578.63 766.5,-582.63 760.5,-578.62 766.5,-574.63 772.5,-578.63"/>
<polygon fill="none" stroke="black" points="1650.71,-636.63 1657.02,-633.14 1662.66,-637.62 1656.35,-641.11 1650.71,-636.63"/>
</g>
<!-- x22&#45;&gt;n18 -->
<g id="edge71" class="edge">
<title>x22:e&#45;&gt;n18:w</title>
<path fill="none" stroke="black" d="M5025.66,-644.62C5171.12,-644.62 5207.19,-658.62 5352.66,-658.62 5352.66,-658.62 5352.66,-658.62 5741.66,-658.62 5856.18,-658.62 5912.82,-699.63 5996.66,-621.62 6048.52,-573.37 5967.12,-468.95 6022.55,-458.47"/>
<polygon fill="black" stroke="black" points="6022.99,-461.95 6032.66,-457.62 6022.4,-454.97 6022.99,-461.95"/>
</g>
<!-- c34&#45;&gt;n12 -->
<g id="edge39" class="edge">
<title>c34:e&#45;&gt;n12:w</title>
<path fill="none" stroke="black" d="M2157.33,-589.62C2206.91,-589.62 2149.64,-491.06 2183.36,-476.43"/>
<polygon fill="black" stroke="black" points="2184.11,-479.85 2193.33,-474.62 2182.86,-472.96 2184.11,-479.85"/>
</g>
<!-- x24 -->
<g id="node55" class="node">
<title>x24</title>
<path fill="none" stroke="black" d="M5307.66,-584.62C5307.66,-584.62 5399.66,-584.62 5399.66,-584.62 5405.66,-584.62 5411.66,-590.62 5411.66,-596.62 5411.66,-596.62 5411.66,-608.62 5411.66,-608.62 5411.66,-614.62 5405.66,-620.62 5399.66,-620.62 5399.66,-620.62 5307.66,-620.62 5307.66,-620.62 5301.66,-620.62 5295.66,-614.62 5295.66,-608.62 5295.66,-608.62 5295.66,-596.62 5295.66,-596.62 5295.66,-590.62 5301.66,-584.62 5307.66,-584.62"/>
<text text-anchor="middle" x="5353.66" y="-598.92" font-family="Times,serif" font-size="14.00">slice [0] to [5]</text>
</g>
<!-- c34&#45;&gt;x24 -->
<g id="edge24" class="edge">
<title>c34:e&#45;&gt;x24:w</title>
<path fill="none" stroke="black" d="M2169.5,-565.79C2259.13,-568.25 2283.92,-597.62 2379.49,-597.62 2379.49,-597.62 2379.49,-597.62 4967.66,-597.62 5108.89,-597.62 5147.16,-602.34 5282.57,-602.61"/>
<polygon fill="none" stroke="black" points="2169.33,-565.78 2163.27,-569.7 2157.33,-565.62 2163.38,-561.7 2169.33,-565.78"/>
<polygon fill="none" stroke="black" points="5282.66,-602.61 5288.66,-598.62 5294.66,-602.62 5288.65,-606.62 5282.66,-602.61"/>
</g>
<!-- x23&#45;&gt;c34 -->
<g id="edge23" class="edge">
<title>x23:e&#45;&gt;c34:w</title>
<path fill="none" stroke="black" d="M956.24,-535.65C1084.03,-536.28 1120.31,-546.62 1254,-546.62 1254,-546.62 1254,-546.62 1440.5,-546.62 1675.33,-546.62 1735.38,-588.16 1964.24,-589.58"/>
<polygon fill="none" stroke="black" points="956,-535.65 949.99,-539.64 944,-535.62 950.01,-531.64 956,-535.65"/>
<polygon fill="none" stroke="black" points="1964.33,-589.58 1970.34,-585.6 1976.33,-589.62 1970.32,-593.6 1964.33,-589.58"/>
</g>
<!-- x24&#45;&gt;n18 -->
<g id="edge72" class="edge">
<title>x24:e&#45;&gt;n18:w</title>
<path fill="none" stroke="black" d="M5412.66,-602.62C5542.47,-602.62 5895.23,-670.64 5996.66,-589.62 6041.11,-554.12 5980.67,-469.51 6022.49,-458.75"/>
<polygon fill="black" stroke="black" points="6023.11,-462.21 6032.66,-457.62 6022.33,-455.25 6023.11,-462.21"/>
</g>
<!-- c35&#45;&gt;n13 -->
<g id="edge41" class="edge">
<title>c35:e&#45;&gt;n13:w</title>
<path fill="none" stroke="black" d="M2470.99,-509.62C2497.07,-509.62 2482.51,-466.79 2497.15,-454.74"/>
<polygon fill="black" stroke="black" points="2498.52,-457.98 2506.99,-451.62 2496.4,-451.31 2498.52,-457.98"/>
</g>
<!-- x26 -->
<g id="node58" class="node">
<title>x26</title>
<path fill="none" stroke="black" d="M5694.66,-550.62C5694.66,-550.62 5786.66,-550.62 5786.66,-550.62 5792.66,-550.62 5798.66,-556.62 5798.66,-562.62 5798.66,-562.62 5798.66,-574.62 5798.66,-574.62 5798.66,-580.62 5792.66,-586.62 5786.66,-586.62 5786.66,-586.62 5694.66,-586.62 5694.66,-586.62 5688.66,-586.62 5682.66,-580.62 5682.66,-574.62 5682.66,-574.62 5682.66,-562.62 5682.66,-562.62 5682.66,-556.62 5688.66,-550.62 5694.66,-550.62"/>
<text text-anchor="middle" x="5740.66" y="-564.92" font-family="Times,serif" font-size="14.00">slice [0] to [6]</text>
</g>
<!-- c35&#45;&gt;x26 -->
<g id="edge26" class="edge">
<title>c35:e&#45;&gt;x26:w</title>
<path fill="none" stroke="black" d="M2482.83,-488.8C2528.49,-501.71 2690.38,-549.62 2693.16,-549.62 2693.16,-549.62 2693.16,-549.62 5354.66,-549.62 5496.11,-549.62 5533.96,-567.56 5669.55,-568.58"/>
<polygon fill="none" stroke="black" points="2482.58,-488.73 2475.75,-491.04 2470.99,-485.62 2477.82,-483.31 2482.58,-488.73"/>
<polygon fill="none" stroke="black" points="5669.66,-568.58 5675.67,-564.6 5681.66,-568.62 5675.64,-572.6 5669.66,-568.58"/>
</g>
<!-- x25&#45;&gt;c35 -->
<g id="edge25" class="edge">
<title>x25:e&#45;&gt;c35:w</title>
<path fill="none" stroke="black" d="M1141.71,-495.66C1269.11,-496.4 1305.21,-508.62 1438.5,-508.62 1438.5,-508.62 1438.5,-508.62 1754.16,-508.62 1988.24,-508.62 2049.76,-509.59 2277.94,-509.62"/>
<polygon fill="none" stroke="black" points="1141.5,-495.66 1135.49,-499.64 1129.5,-495.62 1135.51,-491.64 1141.5,-495.66"/>
<polygon fill="none" stroke="black" points="2277.99,-509.62 2283.99,-505.62 2289.99,-509.62 2283.99,-513.62 2277.99,-509.62"/>
</g>
<!-- x26&#45;&gt;n18 -->
<g id="edge73" class="edge">
<title>x26:e&#45;&gt;n18:w</title>
<path fill="none" stroke="black" d="M5799.66,-568.62C5887.24,-568.62 5926.11,-615.53 5996.66,-563.62 6033.44,-536.55 5991.1,-469.86 6022.4,-459.1"/>
<polygon fill="black" stroke="black" points="6023.26,-462.51 6032.66,-457.62 6022.26,-455.58 6023.26,-462.51"/>
</g>
<!-- c36&#45;&gt;n14 -->
<g id="edge43" class="edge">
<title>c36:e&#45;&gt;n14:w</title>
<path fill="none" stroke="black" d="M2784.66,-486.62C2815.07,-486.62 2814.19,-451.72 2837.76,-444.09"/>
<polygon fill="black" stroke="black" points="2838.28,-447.55 2847.66,-442.62 2837.25,-440.62 2838.28,-447.55"/>
</g>
<!-- x28 -->
<g id="node61" class="node">
<title>x28</title>
<path fill="none" stroke="black" d="M2832.66,-479.62C2832.66,-479.62 2924.66,-479.62 2924.66,-479.62 2930.66,-479.62 2936.66,-485.62 2936.66,-491.62 2936.66,-491.62 2936.66,-503.62 2936.66,-503.62 2936.66,-509.62 2930.66,-515.62 2924.66,-515.62 2924.66,-515.62 2832.66,-515.62 2832.66,-515.62 2826.66,-515.62 2820.66,-509.62 2820.66,-503.62 2820.66,-503.62 2820.66,-491.62 2820.66,-491.62 2820.66,-485.62 2826.66,-479.62 2832.66,-479.62"/>
<text text-anchor="middle" x="2878.66" y="-493.92" font-family="Times,serif" font-size="14.00">slice [0] to [7]</text>
</g>
<!-- c36&#45;&gt;x28 -->
<g id="edge28" class="edge">
<title>c36:e&#45;&gt;x28:w</title>
<path fill="none" stroke="black" d="M2795.78,-467.2C2802.02,-473.87 2803.25,-486.2 2809.43,-492.93"/>
<polygon fill="none" stroke="black" points="2795.76,-467.19 2788.68,-468.6 2784.66,-462.62 2791.73,-461.21 2795.76,-467.19"/>
<polygon fill="none" stroke="black" points="2809.58,-493 2816.66,-491.62 2820.66,-497.62 2813.58,-499 2809.58,-493"/>
</g>
<!-- x27&#45;&gt;c36 -->
<g id="edge27" class="edge">
<title>x27:e&#45;&gt;c36:w</title>
<path fill="none" stroke="black" d="M1325.2,-399.59C1440.72,-399.03 1473.96,-390.62 1595.33,-390.62 1595.33,-390.62 1595.33,-390.62 2224.66,-390.62 2339.1,-390.62 2362.4,-429.51 2470.99,-465.62 2487.14,-470.99 2490.37,-475 2506.99,-478.62 2544.84,-486.87 2557.91,-486.75 2591.44,-486.65"/>
<polygon fill="none" stroke="black" points="1325,-399.59 1319.01,-403.61 1313,-399.62 1318.99,-395.61 1325,-399.59"/>
<polygon fill="none" stroke="black" points="2591.66,-486.65 2597.65,-482.63 2603.66,-486.62 2597.67,-490.63 2591.66,-486.65"/>
</g>
<!-- x28&#45;&gt;n18 -->
<g id="edge74" class="edge">
<title>x28:e&#45;&gt;n18:w</title>
<path fill="none" stroke="black" d="M2936.66,-497.62C3074.49,-497.62 3108.82,-488.62 3246.66,-488.62 3246.66,-488.62 3246.66,-488.62 5354.66,-488.62 5484.36,-488.62 5516.22,-474.95 5645.66,-466.62 5746.04,-460.16 5771.11,-457.29 5871.66,-454.62 5927.19,-453.15 5941.15,-452.31 5996.66,-454.62 6008.69,-455.12 6013.89,-456.56 6022.51,-457.25"/>
<polygon fill="black" stroke="black" points="6022.54,-460.75 6032.66,-457.62 6022.79,-453.75 6022.54,-460.75"/>
</g>
<!-- c37&#45;&gt;n15 -->
<g id="edge45" class="edge">
<title>c37:e&#45;&gt;n15:w</title>
<path fill="none" stroke="black" d="M3153.66,-435.62C3185.25,-435.62 3182.4,-396.75 3206.46,-388.25"/>
<polygon fill="black" stroke="black" points="3207.34,-391.66 3216.66,-386.62 3206.23,-384.74 3207.34,-391.66"/>
</g>
<!-- x30 -->
<g id="node64" class="node">
<title>x30</title>
<path fill="none" stroke="black" d="M3201.66,-423.62C3201.66,-423.62 3293.66,-423.62 3293.66,-423.62 3299.66,-423.62 3305.66,-429.62 3305.66,-435.62 3305.66,-435.62 3305.66,-447.62 3305.66,-447.62 3305.66,-453.62 3299.66,-459.62 3293.66,-459.62 3293.66,-459.62 3201.66,-459.62 3201.66,-459.62 3195.66,-459.62 3189.66,-453.62 3189.66,-447.62 3189.66,-447.62 3189.66,-435.62 3189.66,-435.62 3189.66,-429.62 3195.66,-423.62 3201.66,-423.62"/>
<text text-anchor="middle" x="3247.66" y="-437.92" font-family="Times,serif" font-size="14.00">slice [0] to [8]</text>
</g>
<!-- c37&#45;&gt;x30 -->
<g id="edge30" class="edge">
<title>c37:e&#45;&gt;x30:w</title>
<path fill="none" stroke="black" d="M3164.88,-416.05C3170.54,-421.66 3172.65,-431.27 3178.22,-436.98"/>
<polygon fill="none" stroke="black" points="3164.82,-416.02 3157.77,-417.54 3153.66,-411.62 3160.71,-410.1 3164.82,-416.02"/>
<polygon fill="none" stroke="black" points="3178.54,-437.11 3185.6,-435.66 3189.66,-441.62 3182.59,-443.07 3178.54,-437.11"/>
</g>
<!-- x29&#45;&gt;c37 -->
<g id="edge29" class="edge">
<title>x29:e&#45;&gt;c37:w</title>
<path fill="none" stroke="black" d="M2765.21,-358.79C2840.61,-360.93 2861.97,-383.68 2936.66,-415.62 2948.88,-420.85 2952.69,-429.04 2960.87,-433.13"/>
<polygon fill="none" stroke="black" points="2765.16,-358.79 2759.1,-362.7 2753.16,-358.62 2759.21,-354.7 2765.16,-358.79"/>
<polygon fill="none" stroke="black" points="2960.92,-433.14 2967.62,-430.47 2972.66,-435.62 2965.96,-438.29 2960.92,-433.14"/>
</g>
<!-- x30&#45;&gt;n18 -->
<g id="edge76" class="edge">
<title>x30:e&#45;&gt;n18:w</title>
<path fill="none" stroke="black" d="M3305.66,-441.62C3443.49,-441.62 3477.82,-450.62 3615.66,-450.62 3615.66,-450.62 3615.66,-450.62 5354.66,-450.62 5468.31,-450.62 5496.65,-443.67 5609.66,-431.62 5625.72,-429.91 5629.56,-427.95 5645.66,-426.62 5745.8,-418.36 5771.19,-421.96 5871.66,-420.62 5927.21,-419.88 5945.48,-399.01 5996.66,-420.62 6014,-427.94 6011.67,-448.15 6022.94,-455.18"/>
<polygon fill="black" stroke="black" points="6022.11,-458.57 6032.66,-457.62 6023.81,-451.79 6022.11,-458.57"/>
</g>
<!-- c38&#45;&gt;n16 -->
<g id="edge47" class="edge">
<title>c38:e&#45;&gt;n16:w</title>
<path fill="none" stroke="black" d="M3522.66,-388.62C3557.55,-388.62 3549.28,-339.77 3575.75,-330.23"/>
<polygon fill="black" stroke="black" points="3576.35,-333.68 3585.66,-328.62 3575.23,-326.77 3576.35,-333.68"/>
</g>
<!-- x32 -->
<g id="node67" class="node">
<title>x32</title>
<path fill="none" stroke="black" d="M3570.66,-369.62C3570.66,-369.62 3662.66,-369.62 3662.66,-369.62 3668.66,-369.62 3674.66,-375.62 3674.66,-381.62 3674.66,-381.62 3674.66,-393.62 3674.66,-393.62 3674.66,-399.62 3668.66,-405.62 3662.66,-405.62 3662.66,-405.62 3570.66,-405.62 3570.66,-405.62 3564.66,-405.62 3558.66,-399.62 3558.66,-393.62 3558.66,-393.62 3558.66,-381.62 3558.66,-381.62 3558.66,-375.62 3564.66,-369.62 3570.66,-369.62"/>
<text text-anchor="middle" x="3616.66" y="-383.92" font-family="Times,serif" font-size="14.00">slice [0] to [9]</text>
</g>
<!-- c38&#45;&gt;x32 -->
<g id="edge32" class="edge">
<title>c38:e&#45;&gt;x32:w</title>
<path fill="none" stroke="black" d="M3534.14,-368.63C3539.22,-372.85 3542.13,-379.46 3547.23,-383.66"/>
<polygon fill="none" stroke="black" points="3533.99,-368.58 3527,-370.38 3522.66,-364.62 3529.64,-362.82 3533.99,-368.58"/>
<polygon fill="none" stroke="black" points="3547.32,-383.69 3554.3,-381.88 3558.66,-387.62 3551.68,-389.44 3547.32,-383.69"/>
</g>
<!-- x31&#45;&gt;c38 -->
<g id="edge31" class="edge">
<title>x31:e&#45;&gt;c38:w</title>
<path fill="none" stroke="black" d="M3134.55,-311.7C3209.02,-312.71 3234.21,-323.6 3305.66,-359.62 3319.42,-366.56 3321.23,-379.4 3329.94,-385.39"/>
<polygon fill="none" stroke="black" points="3134.16,-311.7 3128.13,-315.66 3122.16,-311.62 3128.18,-307.66 3134.16,-311.7"/>
<polygon fill="none" stroke="black" points="3330.09,-385.43 3336.94,-383.17 3341.66,-388.62 3334.81,-390.88 3330.09,-385.43"/>
</g>
<!-- x32&#45;&gt;n18 -->
<g id="edge77" class="edge">
<title>x32:e&#45;&gt;n18:w</title>
<path fill="none" stroke="black" d="M3674.66,-387.62C4534.67,-387.62 4749.66,-372.07 5609.66,-377.62 5781.67,-378.73 5851.66,-290.07 5996.66,-382.62 6024.29,-400.26 6002.15,-445.59 6022.56,-455.63"/>
<polygon fill="black" stroke="black" points="6022.17,-459.12 6032.66,-457.62 6023.52,-452.25 6022.17,-459.12"/>
</g>
</g>
</svg>
