<?xml version="1.0" encoding="UTF-8" standalone="no"?>
<!DOCTYPE svg PUBLIC "-//W3C//DTD SVG 1.1//EN"
 "http://www.w3.org/Graphics/SVG/1.1/DTD/svg11.dtd">
<!-- Generated by graphviz version 2.43.0 (0)
 -->
<!-- Title: Not16 Pages: 1 -->
<svg width="903pt" height="2653pt"
 viewBox="0.00 0.00 903.40 2653.00" xmlns="http://www.w3.org/2000/svg" xmlns:xlink="http://www.w3.org/1999/xlink">
<g id="graph0" class="graph" transform="scale(1 1) rotate(0) translate(4 2649)">
<title>Not16</title>
<polygon fill="white" stroke="transparent" points="-4,4 -4,-2649 899.4,-2649 899.4,4 -4,4"/>
<text text-anchor="middle" x="447.7" y="-7.8" font-family="Times,serif" font-size="14.00">Not16</text>
<!-- n1 -->
<g id="node1" class="node">
<title>n1</title>
<polygon fill="none" stroke="black" points="54,-1326.04 54,-1340.96 38.18,-1351.5 15.82,-1351.5 0,-1340.96 0,-1326.04 15.82,-1315.5 38.18,-1315.5 54,-1326.04"/>
<text text-anchor="middle" x="27" y="-1329.8" font-family="Times,serif" font-size="14.00">in</text>
</g>
<!-- x0 -->
<g id="node36" class="node">
<title>x0</title>
<path fill="none" stroke="black" d="M106.5,-1728.5C106.5,-1728.5 198.5,-1728.5 198.5,-1728.5 204.5,-1728.5 210.5,-1734.5 210.5,-1740.5 210.5,-1740.5 210.5,-1752.5 210.5,-1752.5 210.5,-1758.5 204.5,-1764.5 198.5,-1764.5 198.5,-1764.5 106.5,-1764.5 106.5,-1764.5 100.5,-1764.5 94.5,-1758.5 94.5,-1752.5 94.5,-1752.5 94.5,-1740.5 94.5,-1740.5 94.5,-1734.5 100.5,-1728.5 106.5,-1728.5"/>
<text text-anchor="middle" x="152.5" y="-1742.8" font-family="Times,serif" font-size="14.00">slice [0] to [0]</text>
</g>
<!-- n1&#45;&gt;x0 -->
<g id="edge33" class="edge">
<title>n1:e&#45;&gt;x0:w</title>
<path fill="none" stroke="black" d="M54,-1333.5C142.42,-1333.5 12.79,-1713.32 83.32,-1744.47"/>
<polygon fill="black" stroke="black" points="83.01,-1747.98 93.5,-1746.5 84.38,-1741.11 83.01,-1747.98"/>
</g>
<!-- x1 -->
<g id="node37" class="node">
<title>x1</title>
<path fill="none" stroke="black" d="M106.5,-1673.5C106.5,-1673.5 198.5,-1673.5 198.5,-1673.5 204.5,-1673.5 210.5,-1679.5 210.5,-1685.5 210.5,-1685.5 210.5,-1697.5 210.5,-1697.5 210.5,-1703.5 204.5,-1709.5 198.5,-1709.5 198.5,-1709.5 106.5,-1709.5 106.5,-1709.5 100.5,-1709.5 94.5,-1703.5 94.5,-1697.5 94.5,-1697.5 94.5,-1685.5 94.5,-1685.5 94.5,-1679.5 100.5,-1673.5 106.5,-1673.5"/>
<text text-anchor="middle" x="152.5" y="-1687.8" font-family="Times,serif" font-size="14.00">slice [0] to [0]</text>
</g>
<!-- n1&#45;&gt;x1 -->
<g id="edge44" class="edge">
<title>n1:e&#45;&gt;x1:w</title>
<path fill="none" stroke="black" d="M54,-1333.5C130.29,-1333.5 24.32,-1658.72 83.53,-1689.21"/>
<polygon fill="black" stroke="black" points="82.97,-1692.68 93.5,-1691.5 84.53,-1685.85 82.97,-1692.68"/>
</g>
<!-- x2 -->
<g id="node39" class="node">
<title>x2</title>
<path fill="none" stroke="black" d="M106.5,-1618.5C106.5,-1618.5 198.5,-1618.5 198.5,-1618.5 204.5,-1618.5 210.5,-1624.5 210.5,-1630.5 210.5,-1630.5 210.5,-1642.5 210.5,-1642.5 210.5,-1648.5 204.5,-1654.5 198.5,-1654.5 198.5,-1654.5 106.5,-1654.5 106.5,-1654.5 100.5,-1654.5 94.5,-1648.5 94.5,-1642.5 94.5,-1642.5 94.5,-1630.5 94.5,-1630.5 94.5,-1624.5 100.5,-1618.5 106.5,-1618.5"/>
<text text-anchor="middle" x="152.5" y="-1632.8" font-family="Times,serif" font-size="14.00">slice [1] to [0]</text>
</g>
<!-- n1&#45;&gt;x2 -->
<g id="edge55" class="edge">
<title>n1:e&#45;&gt;x2:w</title>
<path fill="none" stroke="black" d="M54,-1333.5C118.19,-1333.5 35.64,-1604.27 83.78,-1633.88"/>
<polygon fill="black" stroke="black" points="82.93,-1637.28 93.5,-1636.5 84.76,-1630.52 82.93,-1637.28"/>
</g>
<!-- x3 -->
<g id="node40" class="node">
<title>x3</title>
<path fill="none" stroke="black" d="M106.5,-1563.5C106.5,-1563.5 198.5,-1563.5 198.5,-1563.5 204.5,-1563.5 210.5,-1569.5 210.5,-1575.5 210.5,-1575.5 210.5,-1587.5 210.5,-1587.5 210.5,-1593.5 204.5,-1599.5 198.5,-1599.5 198.5,-1599.5 106.5,-1599.5 106.5,-1599.5 100.5,-1599.5 94.5,-1593.5 94.5,-1587.5 94.5,-1587.5 94.5,-1575.5 94.5,-1575.5 94.5,-1569.5 100.5,-1563.5 106.5,-1563.5"/>
<text text-anchor="middle" x="152.5" y="-1577.8" font-family="Times,serif" font-size="14.00">slice [1] to [0]</text>
</g>
<!-- n1&#45;&gt;x3 -->
<g id="edge66" class="edge">
<title>n1:e&#45;&gt;x3:w</title>
<path fill="none" stroke="black" d="M54,-1333.5C106.1,-1333.5 46.71,-1549.66 84,-1578.36"/>
<polygon fill="black" stroke="black" points="82.91,-1581.69 93.5,-1581.5 85.1,-1575.04 82.91,-1581.69"/>
</g>
<!-- x4 -->
<g id="node42" class="node">
<title>x4</title>
<path fill="none" stroke="black" d="M102,-2388.5C102,-2388.5 203,-2388.5 203,-2388.5 209,-2388.5 215,-2394.5 215,-2400.5 215,-2400.5 215,-2412.5 215,-2412.5 215,-2418.5 209,-2424.5 203,-2424.5 203,-2424.5 102,-2424.5 102,-2424.5 96,-2424.5 90,-2418.5 90,-2412.5 90,-2412.5 90,-2400.5 90,-2400.5 90,-2394.5 96,-2388.5 102,-2388.5"/>
<text text-anchor="middle" x="152.5" y="-2402.8" font-family="Times,serif" font-size="14.00">slice [10] to [0]</text>
</g>
<!-- n1&#45;&gt;x4 -->
<g id="edge75" class="edge">
<title>n1:e&#45;&gt;x4:w</title>
<path fill="none" stroke="black" d="M54,-1333.5C110.85,-1333.5 37.85,-2308.26 82.53,-2399.65"/>
<polygon fill="black" stroke="black" points="80.26,-2402.32 90,-2406.5 84.99,-2397.16 80.26,-2402.32"/>
</g>
<!-- x5 -->
<g id="node43" class="node">
<title>x5</title>
<path fill="none" stroke="black" d="M102,-2333.5C102,-2333.5 203,-2333.5 203,-2333.5 209,-2333.5 215,-2339.5 215,-2345.5 215,-2345.5 215,-2357.5 215,-2357.5 215,-2363.5 209,-2369.5 203,-2369.5 203,-2369.5 102,-2369.5 102,-2369.5 96,-2369.5 90,-2363.5 90,-2357.5 90,-2357.5 90,-2345.5 90,-2345.5 90,-2339.5 96,-2333.5 102,-2333.5"/>
<text text-anchor="middle" x="152.5" y="-2347.8" font-family="Times,serif" font-size="14.00">slice [10] to [0]</text>
</g>
<!-- n1&#45;&gt;x5 -->
<g id="edge76" class="edge">
<title>n1:e&#45;&gt;x5:w</title>
<path fill="none" stroke="black" d="M54,-1333.5C107.83,-1333.5 40.63,-2254.51 82.64,-2344.46"/>
<polygon fill="black" stroke="black" points="80.35,-2347.12 90,-2351.5 85.19,-2342.06 80.35,-2347.12"/>
</g>
<!-- x6 -->
<g id="node45" class="node">
<title>x6</title>
<path fill="none" stroke="black" d="M102,-2278.5C102,-2278.5 203,-2278.5 203,-2278.5 209,-2278.5 215,-2284.5 215,-2290.5 215,-2290.5 215,-2302.5 215,-2302.5 215,-2308.5 209,-2314.5 203,-2314.5 203,-2314.5 102,-2314.5 102,-2314.5 96,-2314.5 90,-2308.5 90,-2302.5 90,-2302.5 90,-2290.5 90,-2290.5 90,-2284.5 96,-2278.5 102,-2278.5"/>
<text text-anchor="middle" x="152.5" y="-2292.8" font-family="Times,serif" font-size="14.00">slice [11] to [0]</text>
</g>
<!-- n1&#45;&gt;x6 -->
<g id="edge77" class="edge">
<title>n1:e&#45;&gt;x6:w</title>
<path fill="none" stroke="black" d="M54,-1333.5C157.52,-1333.5 -5.56,-2233.61 80.26,-2293.39"/>
<polygon fill="black" stroke="black" points="79.41,-2296.79 90,-2296.5 81.54,-2290.12 79.41,-2296.79"/>
</g>
<!-- x7 -->
<g id="node46" class="node">
<title>x7</title>
<path fill="none" stroke="black" d="M102,-2223.5C102,-2223.5 203,-2223.5 203,-2223.5 209,-2223.5 215,-2229.5 215,-2235.5 215,-2235.5 215,-2247.5 215,-2247.5 215,-2253.5 209,-2259.5 203,-2259.5 203,-2259.5 102,-2259.5 102,-2259.5 96,-2259.5 90,-2253.5 90,-2247.5 90,-2247.5 90,-2235.5 90,-2235.5 90,-2229.5 96,-2223.5 102,-2223.5"/>
<text text-anchor="middle" x="152.5" y="-2237.8" font-family="Times,serif" font-size="14.00">slice [11] to [0]</text>
</g>
<!-- n1&#45;&gt;x7 -->
<g id="edge78" class="edge">
<title>n1:e&#45;&gt;x7:w</title>
<path fill="none" stroke="black" d="M54,-1333.5C151.42,-1333.5 0.37,-2178.78 80.32,-2238.21"/>
<polygon fill="black" stroke="black" points="79.41,-2241.6 90,-2241.5 81.66,-2234.97 79.41,-2241.6"/>
</g>
<!-- x8 -->
<g id="node48" class="node">
<title>x8</title>
<path fill="none" stroke="black" d="M102,-2168.5C102,-2168.5 203,-2168.5 203,-2168.5 209,-2168.5 215,-2174.5 215,-2180.5 215,-2180.5 215,-2192.5 215,-2192.5 215,-2198.5 209,-2204.5 203,-2204.5 203,-2204.5 102,-2204.5 102,-2204.5 96,-2204.5 90,-2198.5 90,-2192.5 90,-2192.5 90,-2180.5 90,-2180.5 90,-2174.5 96,-2168.5 102,-2168.5"/>
<text text-anchor="middle" x="152.5" y="-2182.8" font-family="Times,serif" font-size="14.00">slice [12] to [0]</text>
</g>
<!-- n1&#45;&gt;x8 -->
<g id="edge79" class="edge">
<title>n1:e&#45;&gt;x8:w</title>
<path fill="none" stroke="black" d="M54,-1333.5C145.34,-1333.5 6.2,-2124.37 80.44,-2183.06"/>
<polygon fill="black" stroke="black" points="79.41,-2186.41 90,-2186.5 81.77,-2179.82 79.41,-2186.41"/>
</g>
<!-- x9 -->
<g id="node49" class="node">
<title>x9</title>
<path fill="none" stroke="black" d="M102,-2113.5C102,-2113.5 203,-2113.5 203,-2113.5 209,-2113.5 215,-2119.5 215,-2125.5 215,-2125.5 215,-2137.5 215,-2137.5 215,-2143.5 209,-2149.5 203,-2149.5 203,-2149.5 102,-2149.5 102,-2149.5 96,-2149.5 90,-2143.5 90,-2137.5 90,-2137.5 90,-2125.5 90,-2125.5 90,-2119.5 96,-2113.5 102,-2113.5"/>
<text text-anchor="middle" x="152.5" y="-2127.8" font-family="Times,serif" font-size="14.00">slice [12] to [0]</text>
</g>
<!-- n1&#45;&gt;x9 -->
<g id="edge80" class="edge">
<title>n1:e&#45;&gt;x9:w</title>
<path fill="none" stroke="black" d="M54,-1333.5C139.29,-1333.5 11.95,-2070.37 80.63,-2127.94"/>
<polygon fill="black" stroke="black" points="79.41,-2131.22 90,-2131.5 81.89,-2124.68 79.41,-2131.22"/>
</g>
<!-- x10 -->
<g id="node51" class="node">
<title>x10</title>
<path fill="none" stroke="black" d="M102,-2058.5C102,-2058.5 203,-2058.5 203,-2058.5 209,-2058.5 215,-2064.5 215,-2070.5 215,-2070.5 215,-2082.5 215,-2082.5 215,-2088.5 209,-2094.5 203,-2094.5 203,-2094.5 102,-2094.5 102,-2094.5 96,-2094.5 90,-2088.5 90,-2082.5 90,-2082.5 90,-2070.5 90,-2070.5 90,-2064.5 96,-2058.5 102,-2058.5"/>
<text text-anchor="middle" x="152.5" y="-2072.8" font-family="Times,serif" font-size="14.00">slice [13] to [0]</text>
</g>
<!-- n1&#45;&gt;x10 -->
<g id="edge34" class="edge">
<title>n1:e&#45;&gt;x10:w</title>
<path fill="none" stroke="black" d="M54,-1333.5C133.1,-1333.5 18.07,-2014.02 80.49,-2072.5"/>
<polygon fill="black" stroke="black" points="79.42,-2075.85 90,-2076.5 82.14,-2069.4 79.42,-2075.85"/>
</g>
<!-- x11 -->
<g id="node52" class="node">
<title>x11</title>
<path fill="none" stroke="black" d="M102,-2003.5C102,-2003.5 203,-2003.5 203,-2003.5 209,-2003.5 215,-2009.5 215,-2015.5 215,-2015.5 215,-2027.5 215,-2027.5 215,-2033.5 209,-2039.5 203,-2039.5 203,-2039.5 102,-2039.5 102,-2039.5 96,-2039.5 90,-2033.5 90,-2027.5 90,-2027.5 90,-2015.5 90,-2015.5 90,-2009.5 96,-2003.5 102,-2003.5"/>
<text text-anchor="middle" x="152.5" y="-2017.8" font-family="Times,serif" font-size="14.00">slice [13] to [0]</text>
</g>
<!-- n1&#45;&gt;x11 -->
<g id="edge35" class="edge">
<title>n1:e&#45;&gt;x11:w</title>
<path fill="none" stroke="black" d="M54,-1333.5C127.11,-1333.5 23.58,-1961.08 80.82,-2017.46"/>
<polygon fill="black" stroke="black" points="79.44,-2020.67 90,-2021.5 82.26,-2014.27 79.44,-2020.67"/>
</g>
<!-- x12 -->
<g id="node54" class="node">
<title>x12</title>
<path fill="none" stroke="black" d="M102,-1948.5C102,-1948.5 203,-1948.5 203,-1948.5 209,-1948.5 215,-1954.5 215,-1960.5 215,-1960.5 215,-1972.5 215,-1972.5 215,-1978.5 209,-1984.5 203,-1984.5 203,-1984.5 102,-1984.5 102,-1984.5 96,-1984.5 90,-1978.5 90,-1972.5 90,-1972.5 90,-1960.5 90,-1960.5 90,-1954.5 96,-1948.5 102,-1948.5"/>
<text text-anchor="middle" x="152.5" y="-1962.8" font-family="Times,serif" font-size="14.00">slice [14] to [0]</text>
</g>
<!-- n1&#45;&gt;x12 -->
<g id="edge36" class="edge">
<title>n1:e&#45;&gt;x12:w</title>
<path fill="none" stroke="black" d="M54,-1333.5C121.01,-1333.5 29.38,-1906.19 80.89,-1962.12"/>
<polygon fill="black" stroke="black" points="79.47,-1965.32 90,-1966.5 82.51,-1959.01 79.47,-1965.32"/>
</g>
<!-- x13 -->
<g id="node55" class="node">
<title>x13</title>
<path fill="none" stroke="black" d="M102,-1893.5C102,-1893.5 203,-1893.5 203,-1893.5 209,-1893.5 215,-1899.5 215,-1905.5 215,-1905.5 215,-1917.5 215,-1917.5 215,-1923.5 209,-1929.5 203,-1929.5 203,-1929.5 102,-1929.5 102,-1929.5 96,-1929.5 90,-1923.5 90,-1917.5 90,-1917.5 90,-1905.5 90,-1905.5 90,-1899.5 96,-1893.5 102,-1893.5"/>
<text text-anchor="middle" x="152.5" y="-1907.8" font-family="Times,serif" font-size="14.00">slice [14] to [0]</text>
</g>
<!-- n1&#45;&gt;x13 -->
<g id="edge37" class="edge">
<title>n1:e&#45;&gt;x13:w</title>
<path fill="none" stroke="black" d="M54,-1333.5C114.95,-1333.5 34.99,-1852.15 81.08,-1906.85"/>
<polygon fill="black" stroke="black" points="79.52,-1909.98 90,-1911.5 82.75,-1903.77 79.52,-1909.98"/>
</g>
<!-- x14 -->
<g id="node57" class="node">
<title>x14</title>
<path fill="none" stroke="black" d="M102,-1838.5C102,-1838.5 203,-1838.5 203,-1838.5 209,-1838.5 215,-1844.5 215,-1850.5 215,-1850.5 215,-1862.5 215,-1862.5 215,-1868.5 209,-1874.5 203,-1874.5 203,-1874.5 102,-1874.5 102,-1874.5 96,-1874.5 90,-1868.5 90,-1862.5 90,-1862.5 90,-1850.5 90,-1850.5 90,-1844.5 96,-1838.5 102,-1838.5"/>
<text text-anchor="middle" x="152.5" y="-1852.8" font-family="Times,serif" font-size="14.00">slice [15] to [0]</text>
</g>
<!-- n1&#45;&gt;x14 -->
<g id="edge38" class="edge">
<title>n1:e&#45;&gt;x14:w</title>
<path fill="none" stroke="black" d="M54,-1333.5C108.84,-1333.5 40.71,-1797.01 81.13,-1851.32"/>
<polygon fill="black" stroke="black" points="79.6,-1854.48 90,-1856.5 83.13,-1848.44 79.6,-1854.48"/>
</g>
<!-- x15 -->
<g id="node58" class="node">
<title>x15</title>
<path fill="none" stroke="black" d="M102,-1783.5C102,-1783.5 203,-1783.5 203,-1783.5 209,-1783.5 215,-1789.5 215,-1795.5 215,-1795.5 215,-1807.5 215,-1807.5 215,-1813.5 209,-1819.5 203,-1819.5 203,-1819.5 102,-1819.5 102,-1819.5 96,-1819.5 90,-1813.5 90,-1807.5 90,-1807.5 90,-1795.5 90,-1795.5 90,-1789.5 96,-1783.5 102,-1783.5"/>
<text text-anchor="middle" x="152.5" y="-1797.8" font-family="Times,serif" font-size="14.00">slice [15] to [0]</text>
</g>
<!-- n1&#45;&gt;x15 -->
<g id="edge39" class="edge">
<title>n1:e&#45;&gt;x15:w</title>
<path fill="none" stroke="black" d="M54,-1333.5C154.64,-1333.5 -2.51,-1769.17 80,-1799.81"/>
<polygon fill="black" stroke="black" points="79.56,-1803.28 90,-1801.5 80.73,-1796.38 79.56,-1803.28"/>
</g>
<!-- x16 -->
<g id="node60" class="node">
<title>x16</title>
<path fill="none" stroke="black" d="M106.5,-1508.5C106.5,-1508.5 198.5,-1508.5 198.5,-1508.5 204.5,-1508.5 210.5,-1514.5 210.5,-1520.5 210.5,-1520.5 210.5,-1532.5 210.5,-1532.5 210.5,-1538.5 204.5,-1544.5 198.5,-1544.5 198.5,-1544.5 106.5,-1544.5 106.5,-1544.5 100.5,-1544.5 94.5,-1538.5 94.5,-1532.5 94.5,-1532.5 94.5,-1520.5 94.5,-1520.5 94.5,-1514.5 100.5,-1508.5 106.5,-1508.5"/>
<text text-anchor="middle" x="152.5" y="-1522.8" font-family="Times,serif" font-size="14.00">slice [2] to [0]</text>
</g>
<!-- n1&#45;&gt;x16 -->
<g id="edge40" class="edge">
<title>n1:e&#45;&gt;x16:w</title>
<path fill="none" stroke="black" d="M54,-1333.5C137.79,-1333.5 17.19,-1510.27 83.41,-1525.46"/>
<polygon fill="black" stroke="black" points="83.19,-1528.96 93.5,-1526.5 83.91,-1521.99 83.19,-1528.96"/>
</g>
<!-- x17 -->
<g id="node61" class="node">
<title>x17</title>
<path fill="none" stroke="black" d="M106.5,-1453.5C106.5,-1453.5 198.5,-1453.5 198.5,-1453.5 204.5,-1453.5 210.5,-1459.5 210.5,-1465.5 210.5,-1465.5 210.5,-1477.5 210.5,-1477.5 210.5,-1483.5 204.5,-1489.5 198.5,-1489.5 198.5,-1489.5 106.5,-1489.5 106.5,-1489.5 100.5,-1489.5 94.5,-1483.5 94.5,-1477.5 94.5,-1477.5 94.5,-1465.5 94.5,-1465.5 94.5,-1459.5 100.5,-1453.5 106.5,-1453.5"/>
<text text-anchor="middle" x="152.5" y="-1467.8" font-family="Times,serif" font-size="14.00">slice [2] to [0]</text>
</g>
<!-- n1&#45;&gt;x17 -->
<g id="edge41" class="edge">
<title>n1:e&#45;&gt;x17:w</title>
<path fill="none" stroke="black" d="M54,-1333.5C113.93,-1333.5 39.81,-1455.29 83.52,-1470.04"/>
<polygon fill="black" stroke="black" points="83.1,-1473.52 93.5,-1471.5 84.11,-1466.59 83.1,-1473.52"/>
</g>
<!-- x18 -->
<g id="node63" class="node">
<title>x18</title>
<path fill="none" stroke="black" d="M106.5,-1398.5C106.5,-1398.5 198.5,-1398.5 198.5,-1398.5 204.5,-1398.5 210.5,-1404.5 210.5,-1410.5 210.5,-1410.5 210.5,-1422.5 210.5,-1422.5 210.5,-1428.5 204.5,-1434.5 198.5,-1434.5 198.5,-1434.5 106.5,-1434.5 106.5,-1434.5 100.5,-1434.5 94.5,-1428.5 94.5,-1422.5 94.5,-1422.5 94.5,-1410.5 94.5,-1410.5 94.5,-1404.5 100.5,-1398.5 106.5,-1398.5"/>
<text text-anchor="middle" x="152.5" y="-1412.8" font-family="Times,serif" font-size="14.00">slice [3] to [0]</text>
</g>
<!-- n1&#45;&gt;x18 -->
<g id="edge42" class="edge">
<title>n1:e&#45;&gt;x18:w</title>
<path fill="none" stroke="black" d="M54,-1333.5C90.7,-1333.5 60.36,-1400.5 83.45,-1414.11"/>
<polygon fill="black" stroke="black" points="82.96,-1417.59 93.5,-1416.5 84.58,-1410.78 82.96,-1417.59"/>
</g>
<!-- x19 -->
<g id="node64" class="node">
<title>x19</title>
<path fill="none" stroke="black" d="M106.5,-1343.5C106.5,-1343.5 198.5,-1343.5 198.5,-1343.5 204.5,-1343.5 210.5,-1349.5 210.5,-1355.5 210.5,-1355.5 210.5,-1367.5 210.5,-1367.5 210.5,-1373.5 204.5,-1379.5 198.5,-1379.5 198.5,-1379.5 106.5,-1379.5 106.5,-1379.5 100.5,-1379.5 94.5,-1373.5 94.5,-1367.5 94.5,-1367.5 94.5,-1355.5 94.5,-1355.5 94.5,-1349.5 100.5,-1343.5 106.5,-1343.5"/>
<text text-anchor="middle" x="152.5" y="-1357.8" font-family="Times,serif" font-size="14.00">slice [3] to [0]</text>
</g>
<!-- n1&#45;&gt;x19 -->
<g id="edge43" class="edge">
<title>n1:e&#45;&gt;x19:w</title>
<path fill="none" stroke="black" d="M54,-1333.5C71.48,-1333.5 72.43,-1351.98 83.71,-1358.92"/>
<polygon fill="black" stroke="black" points="82.94,-1362.33 93.5,-1361.5 84.72,-1355.56 82.94,-1362.33"/>
</g>
<!-- x20 -->
<g id="node66" class="node">
<title>x20</title>
<path fill="none" stroke="black" d="M106.5,-1288.5C106.5,-1288.5 198.5,-1288.5 198.5,-1288.5 204.5,-1288.5 210.5,-1294.5 210.5,-1300.5 210.5,-1300.5 210.5,-1312.5 210.5,-1312.5 210.5,-1318.5 204.5,-1324.5 198.5,-1324.5 198.5,-1324.5 106.5,-1324.5 106.5,-1324.5 100.5,-1324.5 94.5,-1318.5 94.5,-1312.5 94.5,-1312.5 94.5,-1300.5 94.5,-1300.5 94.5,-1294.5 100.5,-1288.5 106.5,-1288.5"/>
<text text-anchor="middle" x="152.5" y="-1302.8" font-family="Times,serif" font-size="14.00">slice [4] to [0]</text>
</g>
<!-- n1&#45;&gt;x20 -->
<g id="edge45" class="edge">
<title>n1:e&#45;&gt;x20:w</title>
<path fill="none" stroke="black" d="M54,-1333.5C71.28,-1333.5 72.52,-1315.68 83.78,-1308.99"/>
<polygon fill="black" stroke="black" points="84.68,-1312.37 93.5,-1306.5 82.94,-1305.59 84.68,-1312.37"/>
</g>
<!-- x21 -->
<g id="node67" class="node">
<title>x21</title>
<path fill="none" stroke="black" d="M106.5,-1233.5C106.5,-1233.5 198.5,-1233.5 198.5,-1233.5 204.5,-1233.5 210.5,-1239.5 210.5,-1245.5 210.5,-1245.5 210.5,-1257.5 210.5,-1257.5 210.5,-1263.5 204.5,-1269.5 198.5,-1269.5 198.5,-1269.5 106.5,-1269.5 106.5,-1269.5 100.5,-1269.5 94.5,-1263.5 94.5,-1257.5 94.5,-1257.5 94.5,-1245.5 94.5,-1245.5 94.5,-1239.5 100.5,-1233.5 106.5,-1233.5"/>
<text text-anchor="middle" x="152.5" y="-1247.8" font-family="Times,serif" font-size="14.00">slice [4] to [0]</text>
</g>
<!-- n1&#45;&gt;x21 -->
<g id="edge46" class="edge">
<title>n1:e&#45;&gt;x21:w</title>
<path fill="none" stroke="black" d="M54,-1333.5C90.34,-1333.5 60.61,-1267.31 83.54,-1253.87"/>
<polygon fill="black" stroke="black" points="84.58,-1257.22 93.5,-1251.5 82.96,-1250.4 84.58,-1257.22"/>
</g>
<!-- x22 -->
<g id="node69" class="node">
<title>x22</title>
<path fill="none" stroke="black" d="M106.5,-1178.5C106.5,-1178.5 198.5,-1178.5 198.5,-1178.5 204.5,-1178.5 210.5,-1184.5 210.5,-1190.5 210.5,-1190.5 210.5,-1202.5 210.5,-1202.5 210.5,-1208.5 204.5,-1214.5 198.5,-1214.5 198.5,-1214.5 106.5,-1214.5 106.5,-1214.5 100.5,-1214.5 94.5,-1208.5 94.5,-1202.5 94.5,-1202.5 94.5,-1190.5 94.5,-1190.5 94.5,-1184.5 100.5,-1178.5 106.5,-1178.5"/>
<text text-anchor="middle" x="152.5" y="-1192.8" font-family="Times,serif" font-size="14.00">slice [5] to [0]</text>
</g>
<!-- n1&#45;&gt;x22 -->
<g id="edge47" class="edge">
<title>n1:e&#45;&gt;x22:w</title>
<path fill="none" stroke="black" d="M54,-1333.5C113.53,-1333.5 40.14,-1212.59 83.58,-1197.95"/>
<polygon fill="black" stroke="black" points="84.11,-1201.41 93.5,-1196.5 83.1,-1194.48 84.11,-1201.41"/>
</g>
<!-- x23 -->
<g id="node70" class="node">
<title>x23</title>
<path fill="none" stroke="black" d="M106.5,-1123.5C106.5,-1123.5 198.5,-1123.5 198.5,-1123.5 204.5,-1123.5 210.5,-1129.5 210.5,-1135.5 210.5,-1135.5 210.5,-1147.5 210.5,-1147.5 210.5,-1153.5 204.5,-1159.5 198.5,-1159.5 198.5,-1159.5 106.5,-1159.5 106.5,-1159.5 100.5,-1159.5 94.5,-1153.5 94.5,-1147.5 94.5,-1147.5 94.5,-1135.5 94.5,-1135.5 94.5,-1129.5 100.5,-1123.5 106.5,-1123.5"/>
<text text-anchor="middle" x="152.5" y="-1137.8" font-family="Times,serif" font-size="14.00">slice [5] to [0]</text>
</g>
<!-- n1&#45;&gt;x23 -->
<g id="edge48" class="edge">
<title>n1:e&#45;&gt;x23:w</title>
<path fill="none" stroke="black" d="M54,-1333.5C137.38,-1333.5 17.55,-1157.65 83.46,-1142.53"/>
<polygon fill="black" stroke="black" points="83.91,-1146.01 93.5,-1141.5 83.19,-1139.04 83.91,-1146.01"/>
</g>
<!-- x24 -->
<g id="node72" class="node">
<title>x24</title>
<path fill="none" stroke="black" d="M106.5,-1068.5C106.5,-1068.5 198.5,-1068.5 198.5,-1068.5 204.5,-1068.5 210.5,-1074.5 210.5,-1080.5 210.5,-1080.5 210.5,-1092.5 210.5,-1092.5 210.5,-1098.5 204.5,-1104.5 198.5,-1104.5 198.5,-1104.5 106.5,-1104.5 106.5,-1104.5 100.5,-1104.5 94.5,-1098.5 94.5,-1092.5 94.5,-1092.5 94.5,-1080.5 94.5,-1080.5 94.5,-1074.5 100.5,-1068.5 106.5,-1068.5"/>
<text text-anchor="middle" x="152.5" y="-1082.8" font-family="Times,serif" font-size="14.00">slice [6] to [0]</text>
</g>
<!-- n1&#45;&gt;x24 -->
<g id="edge49" class="edge">
<title>n1:e&#45;&gt;x24:w</title>
<path fill="none" stroke="black" d="M54,-1333.5C105.68,-1333.5 47.36,-1120.01 83.57,-1089.99"/>
<polygon fill="black" stroke="black" points="85.23,-1093.12 93.5,-1086.5 82.91,-1086.52 85.23,-1093.12"/>
</g>
<!-- x25 -->
<g id="node73" class="node">
<title>x25</title>
<path fill="none" stroke="black" d="M106.5,-1013.5C106.5,-1013.5 198.5,-1013.5 198.5,-1013.5 204.5,-1013.5 210.5,-1019.5 210.5,-1025.5 210.5,-1025.5 210.5,-1037.5 210.5,-1037.5 210.5,-1043.5 204.5,-1049.5 198.5,-1049.5 198.5,-1049.5 106.5,-1049.5 106.5,-1049.5 100.5,-1049.5 94.5,-1043.5 94.5,-1037.5 94.5,-1037.5 94.5,-1025.5 94.5,-1025.5 94.5,-1019.5 100.5,-1013.5 106.5,-1013.5"/>
<text text-anchor="middle" x="152.5" y="-1027.8" font-family="Times,serif" font-size="14.00">slice [6] to [0]</text>
</g>
<!-- n1&#45;&gt;x25 -->
<g id="edge50" class="edge">
<title>n1:e&#45;&gt;x25:w</title>
<path fill="none" stroke="black" d="M54,-1333.5C117.98,-1333.5 35.81,-1063.63 83.81,-1034.11"/>
<polygon fill="black" stroke="black" points="84.75,-1037.48 93.5,-1031.5 82.93,-1030.72 84.75,-1037.48"/>
</g>
<!-- x26 -->
<g id="node75" class="node">
<title>x26</title>
<path fill="none" stroke="black" d="M106.5,-958.5C106.5,-958.5 198.5,-958.5 198.5,-958.5 204.5,-958.5 210.5,-964.5 210.5,-970.5 210.5,-970.5 210.5,-982.5 210.5,-982.5 210.5,-988.5 204.5,-994.5 198.5,-994.5 198.5,-994.5 106.5,-994.5 106.5,-994.5 100.5,-994.5 94.5,-988.5 94.5,-982.5 94.5,-982.5 94.5,-970.5 94.5,-970.5 94.5,-964.5 100.5,-958.5 106.5,-958.5"/>
<text text-anchor="middle" x="152.5" y="-972.8" font-family="Times,serif" font-size="14.00">slice [7] to [0]</text>
</g>
<!-- n1&#45;&gt;x26 -->
<g id="edge51" class="edge">
<title>n1:e&#45;&gt;x26:w</title>
<path fill="none" stroke="black" d="M54,-1333.5C130.08,-1333.5 24.51,-1009.18 83.55,-978.78"/>
<polygon fill="black" stroke="black" points="84.53,-982.15 93.5,-976.5 82.97,-975.32 84.53,-982.15"/>
</g>
<!-- x27 -->
<g id="node76" class="node">
<title>x27</title>
<path fill="none" stroke="black" d="M106.5,-903.5C106.5,-903.5 198.5,-903.5 198.5,-903.5 204.5,-903.5 210.5,-909.5 210.5,-915.5 210.5,-915.5 210.5,-927.5 210.5,-927.5 210.5,-933.5 204.5,-939.5 198.5,-939.5 198.5,-939.5 106.5,-939.5 106.5,-939.5 100.5,-939.5 94.5,-933.5 94.5,-927.5 94.5,-927.5 94.5,-915.5 94.5,-915.5 94.5,-909.5 100.5,-903.5 106.5,-903.5"/>
<text text-anchor="middle" x="152.5" y="-917.8" font-family="Times,serif" font-size="14.00">slice [7] to [0]</text>
</g>
<!-- n1&#45;&gt;x27 -->
<g id="edge52" class="edge">
<title>n1:e&#45;&gt;x27:w</title>
<path fill="none" stroke="black" d="M54,-1333.5C142.2,-1333.5 12.98,-954.6 83.34,-923.52"/>
<polygon fill="black" stroke="black" points="84.38,-926.89 93.5,-921.5 83.01,-920.02 84.38,-926.89"/>
</g>
<!-- x28 -->
<g id="node78" class="node">
<title>x28</title>
<path fill="none" stroke="black" d="M106.5,-2608.5C106.5,-2608.5 198.5,-2608.5 198.5,-2608.5 204.5,-2608.5 210.5,-2614.5 210.5,-2620.5 210.5,-2620.5 210.5,-2632.5 210.5,-2632.5 210.5,-2638.5 204.5,-2644.5 198.5,-2644.5 198.5,-2644.5 106.5,-2644.5 106.5,-2644.5 100.5,-2644.5 94.5,-2638.5 94.5,-2632.5 94.5,-2632.5 94.5,-2620.5 94.5,-2620.5 94.5,-2614.5 100.5,-2608.5 106.5,-2608.5"/>
<text text-anchor="middle" x="152.5" y="-2622.8" font-family="Times,serif" font-size="14.00">slice [8] to [0]</text>
</g>
<!-- n1&#45;&gt;x28 -->
<g id="edge53" class="edge">
<title>n1:e&#45;&gt;x28:w</title>
<path fill="none" stroke="black" d="M54,-1333.5C122.92,-1333.5 29.89,-2522.61 85.52,-2620.15"/>
<polygon fill="black" stroke="black" points="83.5,-2623.01 93.5,-2626.5 87.85,-2617.54 83.5,-2623.01"/>
</g>
<!-- x29 -->
<g id="node79" class="node">
<title>x29</title>
<path fill="none" stroke="black" d="M106.5,-2553.5C106.5,-2553.5 198.5,-2553.5 198.5,-2553.5 204.5,-2553.5 210.5,-2559.5 210.5,-2565.5 210.5,-2565.5 210.5,-2577.5 210.5,-2577.5 210.5,-2583.5 204.5,-2589.5 198.5,-2589.5 198.5,-2589.5 106.5,-2589.5 106.5,-2589.5 100.5,-2589.5 94.5,-2583.5 94.5,-2577.5 94.5,-2577.5 94.5,-2565.5 94.5,-2565.5 94.5,-2559.5 100.5,-2553.5 106.5,-2553.5"/>
<text text-anchor="middle" x="152.5" y="-2567.8" font-family="Times,serif" font-size="14.00">slice [8] to [0]</text>
</g>
<!-- n1&#45;&gt;x29 -->
<g id="edge54" class="edge">
<title>n1:e&#45;&gt;x29:w</title>
<path fill="none" stroke="black" d="M54,-1333.5C119.92,-1333.5 32.63,-2469.71 85.69,-2565.13"/>
<polygon fill="black" stroke="black" points="83.54,-2567.9 93.5,-2571.5 87.96,-2562.47 83.54,-2567.9"/>
</g>
<!-- x30 -->
<g id="node81" class="node">
<title>x30</title>
<path fill="none" stroke="black" d="M106.5,-2498.5C106.5,-2498.5 198.5,-2498.5 198.5,-2498.5 204.5,-2498.5 210.5,-2504.5 210.5,-2510.5 210.5,-2510.5 210.5,-2522.5 210.5,-2522.5 210.5,-2528.5 204.5,-2534.5 198.5,-2534.5 198.5,-2534.5 106.5,-2534.5 106.5,-2534.5 100.5,-2534.5 94.5,-2528.5 94.5,-2522.5 94.5,-2522.5 94.5,-2510.5 94.5,-2510.5 94.5,-2504.5 100.5,-2498.5 106.5,-2498.5"/>
<text text-anchor="middle" x="152.5" y="-2512.8" font-family="Times,serif" font-size="14.00">slice [9] to [0]</text>
</g>
<!-- n1&#45;&gt;x30 -->
<g id="edge56" class="edge">
<title>n1:e&#45;&gt;x30:w</title>
<path fill="none" stroke="black" d="M54,-1333.5C116.87,-1333.5 35.52,-2414.81 85.72,-2509.85"/>
<polygon fill="black" stroke="black" points="83.62,-2512.66 93.5,-2516.5 88.17,-2507.34 83.62,-2512.66"/>
</g>
<!-- x31 -->
<g id="node82" class="node">
<title>x31</title>
<path fill="none" stroke="black" d="M106.5,-2443.5C106.5,-2443.5 198.5,-2443.5 198.5,-2443.5 204.5,-2443.5 210.5,-2449.5 210.5,-2455.5 210.5,-2455.5 210.5,-2467.5 210.5,-2467.5 210.5,-2473.5 204.5,-2479.5 198.5,-2479.5 198.5,-2479.5 106.5,-2479.5 106.5,-2479.5 100.5,-2479.5 94.5,-2473.5 94.5,-2467.5 94.5,-2467.5 94.5,-2455.5 94.5,-2455.5 94.5,-2449.5 100.5,-2443.5 106.5,-2443.5"/>
<text text-anchor="middle" x="152.5" y="-2457.8" font-family="Times,serif" font-size="14.00">slice [9] to [0]</text>
</g>
<!-- n1&#45;&gt;x31 -->
<g id="edge57" class="edge">
<title>n1:e&#45;&gt;x31:w</title>
<path fill="none" stroke="black" d="M54,-1333.5C113.89,-1333.5 38.21,-2362.43 85.92,-2454.88"/>
<polygon fill="black" stroke="black" points="83.67,-2457.55 93.5,-2461.5 88.27,-2452.28 83.67,-2457.55"/>
</g>
<!-- x32 -->
<g id="node83" class="node">
<title>x32</title>
<path fill="none" stroke="black" d="M106.5,-848.5C106.5,-848.5 198.5,-848.5 198.5,-848.5 204.5,-848.5 210.5,-854.5 210.5,-860.5 210.5,-860.5 210.5,-872.5 210.5,-872.5 210.5,-878.5 204.5,-884.5 198.5,-884.5 198.5,-884.5 106.5,-884.5 106.5,-884.5 100.5,-884.5 94.5,-878.5 94.5,-872.5 94.5,-872.5 94.5,-860.5 94.5,-860.5 94.5,-854.5 100.5,-848.5 106.5,-848.5"/>
<text text-anchor="middle" x="152.5" y="-862.8" font-family="Times,serif" font-size="14.00">slice [0] to [0]</text>
</g>
<!-- n1&#45;&gt;x32 -->
<g id="edge58" class="edge">
<title>n1:e&#45;&gt;x32:w</title>
<path fill="none" stroke="black" d="M54,-1333.5C154.49,-1333.5 0.88,-898.76 83.5,-868.19"/>
<polygon fill="black" stroke="black" points="84.22,-871.62 93.5,-866.5 83.06,-864.72 84.22,-871.62"/>
</g>
<!-- x33 -->
<g id="node84" class="node">
<title>x33</title>
<path fill="none" stroke="black" d="M106.5,-793.5C106.5,-793.5 198.5,-793.5 198.5,-793.5 204.5,-793.5 210.5,-799.5 210.5,-805.5 210.5,-805.5 210.5,-817.5 210.5,-817.5 210.5,-823.5 204.5,-829.5 198.5,-829.5 198.5,-829.5 106.5,-829.5 106.5,-829.5 100.5,-829.5 94.5,-823.5 94.5,-817.5 94.5,-817.5 94.5,-805.5 94.5,-805.5 94.5,-799.5 100.5,-793.5 106.5,-793.5"/>
<text text-anchor="middle" x="152.5" y="-807.8" font-family="Times,serif" font-size="14.00">slice [1] to [0]</text>
</g>
<!-- n1&#45;&gt;x33 -->
<g id="edge59" class="edge">
<title>n1:e&#45;&gt;x33:w</title>
<path fill="none" stroke="black" d="M54,-1333.5C108.76,-1333.5 43.87,-870.88 84.61,-816.67"/>
<polygon fill="black" stroke="black" points="86.61,-819.55 93.5,-811.5 83.1,-813.5 86.61,-819.55"/>
</g>
<!-- x34 -->
<g id="node85" class="node">
<title>x34</title>
<path fill="none" stroke="black" d="M102,-738.5C102,-738.5 203,-738.5 203,-738.5 209,-738.5 215,-744.5 215,-750.5 215,-750.5 215,-762.5 215,-762.5 215,-768.5 209,-774.5 203,-774.5 203,-774.5 102,-774.5 102,-774.5 96,-774.5 90,-768.5 90,-762.5 90,-762.5 90,-750.5 90,-750.5 90,-744.5 96,-738.5 102,-738.5"/>
<text text-anchor="middle" x="152.5" y="-752.8" font-family="Times,serif" font-size="14.00">slice [10] to [0]</text>
</g>
<!-- n1&#45;&gt;x34 -->
<g id="edge60" class="edge">
<title>n1:e&#45;&gt;x34:w</title>
<path fill="none" stroke="black" d="M54,-1333.5C114.85,-1333.5 35.08,-815.75 81.1,-761.14"/>
<polygon fill="black" stroke="black" points="82.75,-764.23 90,-756.5 79.52,-758.02 82.75,-764.23"/>
</g>
<!-- x35 -->
<g id="node86" class="node">
<title>x35</title>
<path fill="none" stroke="black" d="M102,-683.5C102,-683.5 203,-683.5 203,-683.5 209,-683.5 215,-689.5 215,-695.5 215,-695.5 215,-707.5 215,-707.5 215,-713.5 209,-719.5 203,-719.5 203,-719.5 102,-719.5 102,-719.5 96,-719.5 90,-713.5 90,-707.5 90,-707.5 90,-695.5 90,-695.5 90,-689.5 96,-683.5 102,-683.5"/>
<text text-anchor="middle" x="152.5" y="-697.8" font-family="Times,serif" font-size="14.00">slice [11] to [0]</text>
</g>
<!-- n1&#45;&gt;x35 -->
<g id="edge61" class="edge">
<title>n1:e&#45;&gt;x35:w</title>
<path fill="none" stroke="black" d="M54,-1333.5C120.9,-1333.5 29.47,-761.71 80.91,-705.87"/>
<polygon fill="black" stroke="black" points="82.51,-708.99 90,-701.5 79.47,-702.68 82.51,-708.99"/>
</g>
<!-- x36 -->
<g id="node87" class="node">
<title>x36</title>
<path fill="none" stroke="black" d="M102,-628.5C102,-628.5 203,-628.5 203,-628.5 209,-628.5 215,-634.5 215,-640.5 215,-640.5 215,-652.5 215,-652.5 215,-658.5 209,-664.5 203,-664.5 203,-664.5 102,-664.5 102,-664.5 96,-664.5 90,-658.5 90,-652.5 90,-652.5 90,-640.5 90,-640.5 90,-634.5 96,-628.5 102,-628.5"/>
<text text-anchor="middle" x="152.5" y="-642.8" font-family="Times,serif" font-size="14.00">slice [12] to [0]</text>
</g>
<!-- n1&#45;&gt;x36 -->
<g id="edge62" class="edge">
<title>n1:e&#45;&gt;x36:w</title>
<path fill="none" stroke="black" d="M54,-1333.5C127,-1333.5 23.67,-706.84 80.83,-650.53"/>
<polygon fill="black" stroke="black" points="82.26,-653.73 90,-646.5 79.44,-647.33 82.26,-653.73"/>
</g>
<!-- x37 -->
<g id="node88" class="node">
<title>x37</title>
<path fill="none" stroke="black" d="M102,-573.5C102,-573.5 203,-573.5 203,-573.5 209,-573.5 215,-579.5 215,-585.5 215,-585.5 215,-597.5 215,-597.5 215,-603.5 209,-609.5 203,-609.5 203,-609.5 102,-609.5 102,-609.5 96,-609.5 90,-603.5 90,-597.5 90,-597.5 90,-585.5 90,-585.5 90,-579.5 96,-573.5 102,-573.5"/>
<text text-anchor="middle" x="152.5" y="-587.8" font-family="Times,serif" font-size="14.00">slice [13] to [0]</text>
</g>
<!-- n1&#45;&gt;x37 -->
<g id="edge63" class="edge">
<title>n1:e&#45;&gt;x37:w</title>
<path fill="none" stroke="black" d="M54,-1333.5C132.99,-1333.5 18.16,-653.9 80.5,-595.49"/>
<polygon fill="black" stroke="black" points="82.14,-598.6 90,-591.5 79.42,-592.15 82.14,-598.6"/>
</g>
<!-- x38 -->
<g id="node89" class="node">
<title>x38</title>
<path fill="none" stroke="black" d="M102,-518.5C102,-518.5 203,-518.5 203,-518.5 209,-518.5 215,-524.5 215,-530.5 215,-530.5 215,-542.5 215,-542.5 215,-548.5 209,-554.5 203,-554.5 203,-554.5 102,-554.5 102,-554.5 96,-554.5 90,-548.5 90,-542.5 90,-542.5 90,-530.5 90,-530.5 90,-524.5 96,-518.5 102,-518.5"/>
<text text-anchor="middle" x="152.5" y="-532.8" font-family="Times,serif" font-size="14.00">slice [14] to [0]</text>
</g>
<!-- n1&#45;&gt;x38 -->
<g id="edge64" class="edge">
<title>n1:e&#45;&gt;x38:w</title>
<path fill="none" stroke="black" d="M54,-1333.5C139.18,-1333.5 12.04,-597.55 80.64,-540.05"/>
<polygon fill="black" stroke="black" points="81.89,-543.32 90,-536.5 79.41,-536.78 81.89,-543.32"/>
</g>
<!-- x39 -->
<g id="node90" class="node">
<title>x39</title>
<path fill="none" stroke="black" d="M102,-463.5C102,-463.5 203,-463.5 203,-463.5 209,-463.5 215,-469.5 215,-475.5 215,-475.5 215,-487.5 215,-487.5 215,-493.5 209,-499.5 203,-499.5 203,-499.5 102,-499.5 102,-499.5 96,-499.5 90,-493.5 90,-487.5 90,-487.5 90,-475.5 90,-475.5 90,-469.5 96,-463.5 102,-463.5"/>
<text text-anchor="middle" x="152.5" y="-477.8" font-family="Times,serif" font-size="14.00">slice [15] to [0]</text>
</g>
<!-- n1&#45;&gt;x39 -->
<g id="edge65" class="edge">
<title>n1:e&#45;&gt;x39:w</title>
<path fill="none" stroke="black" d="M54,-1333.5C145.23,-1333.5 6.3,-543.56 80.45,-484.93"/>
<polygon fill="black" stroke="black" points="81.77,-488.18 90,-481.5 79.41,-481.59 81.77,-488.18"/>
</g>
<!-- x40 -->
<g id="node91" class="node">
<title>x40</title>
<path fill="none" stroke="black" d="M106.5,-408.5C106.5,-408.5 198.5,-408.5 198.5,-408.5 204.5,-408.5 210.5,-414.5 210.5,-420.5 210.5,-420.5 210.5,-432.5 210.5,-432.5 210.5,-438.5 204.5,-444.5 198.5,-444.5 198.5,-444.5 106.5,-444.5 106.5,-444.5 100.5,-444.5 94.5,-438.5 94.5,-432.5 94.5,-432.5 94.5,-420.5 94.5,-420.5 94.5,-414.5 100.5,-408.5 106.5,-408.5"/>
<text text-anchor="middle" x="152.5" y="-422.8" font-family="Times,serif" font-size="14.00">slice [2] to [0]</text>
</g>
<!-- n1&#45;&gt;x40 -->
<g id="edge67" class="edge">
<title>n1:e&#45;&gt;x40:w</title>
<path fill="none" stroke="black" d="M54,-1333.5C151.33,-1333.5 3.71,-489.15 83.81,-429.78"/>
<polygon fill="black" stroke="black" points="85.15,-433.03 93.5,-426.5 82.91,-426.4 85.15,-433.03"/>
</g>
<!-- x41 -->
<g id="node92" class="node">
<title>x41</title>
<path fill="none" stroke="black" d="M106.5,-353.5C106.5,-353.5 198.5,-353.5 198.5,-353.5 204.5,-353.5 210.5,-359.5 210.5,-365.5 210.5,-365.5 210.5,-377.5 210.5,-377.5 210.5,-383.5 204.5,-389.5 198.5,-389.5 198.5,-389.5 106.5,-389.5 106.5,-389.5 100.5,-389.5 94.5,-383.5 94.5,-377.5 94.5,-377.5 94.5,-365.5 94.5,-365.5 94.5,-359.5 100.5,-353.5 106.5,-353.5"/>
<text text-anchor="middle" x="152.5" y="-367.8" font-family="Times,serif" font-size="14.00">slice [3] to [0]</text>
</g>
<!-- n1&#45;&gt;x41 -->
<g id="edge68" class="edge">
<title>n1:e&#45;&gt;x41:w</title>
<path fill="none" stroke="black" d="M54,-1333.5C104.77,-1333.5 46.55,-466.72 86.26,-378.69"/>
<polygon fill="black" stroke="black" points="88.87,-381.03 93.5,-371.5 83.94,-376.06 88.87,-381.03"/>
</g>
<!-- x42 -->
<g id="node93" class="node">
<title>x42</title>
<path fill="none" stroke="black" d="M106.5,-298.5C106.5,-298.5 198.5,-298.5 198.5,-298.5 204.5,-298.5 210.5,-304.5 210.5,-310.5 210.5,-310.5 210.5,-322.5 210.5,-322.5 210.5,-328.5 204.5,-334.5 198.5,-334.5 198.5,-334.5 106.5,-334.5 106.5,-334.5 100.5,-334.5 94.5,-328.5 94.5,-322.5 94.5,-322.5 94.5,-310.5 94.5,-310.5 94.5,-304.5 100.5,-298.5 106.5,-298.5"/>
<text text-anchor="middle" x="152.5" y="-312.8" font-family="Times,serif" font-size="14.00">slice [4] to [0]</text>
</g>
<!-- n1&#45;&gt;x42 -->
<g id="edge69" class="edge">
<title>n1:e&#45;&gt;x42:w</title>
<path fill="none" stroke="black" d="M54,-1333.5C107.78,-1333.5 43.83,-413.39 86.12,-323.54"/>
<polygon fill="black" stroke="black" points="88.68,-325.93 93.5,-316.5 83.85,-320.87 88.68,-325.93"/>
</g>
<!-- x43 -->
<g id="node94" class="node">
<title>x43</title>
<path fill="none" stroke="black" d="M106.5,-243.5C106.5,-243.5 198.5,-243.5 198.5,-243.5 204.5,-243.5 210.5,-249.5 210.5,-255.5 210.5,-255.5 210.5,-267.5 210.5,-267.5 210.5,-273.5 204.5,-279.5 198.5,-279.5 198.5,-279.5 106.5,-279.5 106.5,-279.5 100.5,-279.5 94.5,-273.5 94.5,-267.5 94.5,-267.5 94.5,-255.5 94.5,-255.5 94.5,-249.5 100.5,-243.5 106.5,-243.5"/>
<text text-anchor="middle" x="152.5" y="-257.8" font-family="Times,serif" font-size="14.00">slice [5] to [0]</text>
</g>
<!-- n1&#45;&gt;x43 -->
<g id="edge70" class="edge">
<title>n1:e&#45;&gt;x43:w</title>
<path fill="none" stroke="black" d="M54,-1333.5C110.8,-1333.5 41.07,-359.64 86.01,-268.35"/>
<polygon fill="black" stroke="black" points="88.48,-270.83 93.5,-261.5 83.76,-265.66 88.48,-270.83"/>
</g>
<!-- x44 -->
<g id="node95" class="node">
<title>x44</title>
<path fill="none" stroke="black" d="M106.5,-188.5C106.5,-188.5 198.5,-188.5 198.5,-188.5 204.5,-188.5 210.5,-194.5 210.5,-200.5 210.5,-200.5 210.5,-212.5 210.5,-212.5 210.5,-218.5 204.5,-224.5 198.5,-224.5 198.5,-224.5 106.5,-224.5 106.5,-224.5 100.5,-224.5 94.5,-218.5 94.5,-212.5 94.5,-212.5 94.5,-200.5 94.5,-200.5 94.5,-194.5 100.5,-188.5 106.5,-188.5"/>
<text text-anchor="middle" x="152.5" y="-202.8" font-family="Times,serif" font-size="14.00">slice [6] to [0]</text>
</g>
<!-- n1&#45;&gt;x44 -->
<g id="edge71" class="edge">
<title>n1:e&#45;&gt;x44:w</title>
<path fill="none" stroke="black" d="M54,-1333.5C113.84,-1333.5 38.26,-305.48 85.93,-213.12"/>
<polygon fill="black" stroke="black" points="88.27,-215.72 93.5,-206.5 83.67,-210.45 88.27,-215.72"/>
</g>
<!-- x45 -->
<g id="node96" class="node">
<title>x45</title>
<path fill="none" stroke="black" d="M106.5,-133.5C106.5,-133.5 198.5,-133.5 198.5,-133.5 204.5,-133.5 210.5,-139.5 210.5,-145.5 210.5,-145.5 210.5,-157.5 210.5,-157.5 210.5,-163.5 204.5,-169.5 198.5,-169.5 198.5,-169.5 106.5,-169.5 106.5,-169.5 100.5,-169.5 94.5,-163.5 94.5,-157.5 94.5,-157.5 94.5,-145.5 94.5,-145.5 94.5,-139.5 100.5,-133.5 106.5,-133.5"/>
<text text-anchor="middle" x="152.5" y="-147.8" font-family="Times,serif" font-size="14.00">slice [7] to [0]</text>
</g>
<!-- n1&#45;&gt;x45 -->
<g id="edge72" class="edge">
<title>n1:e&#45;&gt;x45:w</title>
<path fill="none" stroke="black" d="M54,-1333.5C116.82,-1333.5 35.57,-253.1 85.72,-158.15"/>
<polygon fill="black" stroke="black" points="88.17,-160.66 93.5,-151.5 83.62,-155.34 88.17,-160.66"/>
</g>
<!-- x46 -->
<g id="node97" class="node">
<title>x46</title>
<path fill="none" stroke="black" d="M106.5,-78.5C106.5,-78.5 198.5,-78.5 198.5,-78.5 204.5,-78.5 210.5,-84.5 210.5,-90.5 210.5,-90.5 210.5,-102.5 210.5,-102.5 210.5,-108.5 204.5,-114.5 198.5,-114.5 198.5,-114.5 106.5,-114.5 106.5,-114.5 100.5,-114.5 94.5,-108.5 94.5,-102.5 94.5,-102.5 94.5,-90.5 94.5,-90.5 94.5,-84.5 100.5,-78.5 106.5,-78.5"/>
<text text-anchor="middle" x="152.5" y="-92.8" font-family="Times,serif" font-size="14.00">slice [8] to [0]</text>
</g>
<!-- n1&#45;&gt;x46 -->
<g id="edge73" class="edge">
<title>n1:e&#45;&gt;x46:w</title>
<path fill="none" stroke="black" d="M54,-1333.5C119.87,-1333.5 32.68,-198.21 85.7,-102.86"/>
<polygon fill="black" stroke="black" points="87.96,-105.53 93.5,-96.5 83.54,-100.1 87.96,-105.53"/>
</g>
<!-- x47 -->
<g id="node98" class="node">
<title>x47</title>
<path fill="none" stroke="black" d="M106.5,-23.5C106.5,-23.5 198.5,-23.5 198.5,-23.5 204.5,-23.5 210.5,-29.5 210.5,-35.5 210.5,-35.5 210.5,-47.5 210.5,-47.5 210.5,-53.5 204.5,-59.5 198.5,-59.5 198.5,-59.5 106.5,-59.5 106.5,-59.5 100.5,-59.5 94.5,-53.5 94.5,-47.5 94.5,-47.5 94.5,-35.5 94.5,-35.5 94.5,-29.5 100.5,-23.5 106.5,-23.5"/>
<text text-anchor="middle" x="152.5" y="-37.8" font-family="Times,serif" font-size="14.00">slice [9] to [0]</text>
</g>
<!-- n1&#45;&gt;x47 -->
<g id="edge74" class="edge">
<title>n1:e&#45;&gt;x47:w</title>
<path fill="none" stroke="black" d="M54,-1333.5C122.87,-1333.5 29.93,-145.31 85.53,-47.84"/>
<polygon fill="black" stroke="black" points="87.85,-50.46 93.5,-41.5 83.5,-44.99 87.85,-50.46"/>
</g>
<!-- n2 -->
<g id="node2" class="node">
<title>n2</title>
<polygon fill="none" stroke="black" points="344,-884.5 275.96,-866.5 344,-848.5 412.04,-866.5 344,-884.5"/>
<text text-anchor="middle" x="344" y="-862.8" font-family="Times,serif" font-size="14.00">not_0.in</text>
</g>
<!-- n3 -->
<g id="node3" class="node">
<title>n3</title>
<polygon fill="none" stroke="black" points="557.56,-1713.5 481.48,-1695.5 557.56,-1677.5 633.64,-1695.5 557.56,-1713.5"/>
<text text-anchor="middle" x="557.56" y="-1691.8" font-family="Times,serif" font-size="14.00">not_0.out</text>
</g>
<!-- x48 -->
<g id="node99" class="node">
<title>x48</title>
<path fill="none" stroke="black" d="M690.12,-1618.5C690.12,-1618.5 791.12,-1618.5 791.12,-1618.5 797.12,-1618.5 803.12,-1624.5 803.12,-1630.5 803.12,-1630.5 803.12,-1974.5 803.12,-1974.5 803.12,-1980.5 797.12,-1986.5 791.12,-1986.5 791.12,-1986.5 690.12,-1986.5 690.12,-1986.5 684.12,-1986.5 678.12,-1980.5 678.12,-1974.5 678.12,-1974.5 678.12,-1630.5 678.12,-1630.5 678.12,-1624.5 684.12,-1618.5 690.12,-1618.5"/>
<text text-anchor="middle" x="740.62" y="-1971.3" font-family="Times,serif" font-size="14.00">slice [0] to [15]</text>
<polyline fill="none" stroke="black" points="678.12,-1963.5 803.12,-1963.5 "/>
<text text-anchor="middle" x="740.62" y="-1948.3" font-family="Times,serif" font-size="14.00">slice [0] to [14]</text>
<polyline fill="none" stroke="black" points="678.12,-1940.5 803.12,-1940.5 "/>
<text text-anchor="middle" x="740.62" y="-1925.3" font-family="Times,serif" font-size="14.00">slice [0] to [13]</text>
<polyline fill="none" stroke="black" points="678.12,-1917.5 803.12,-1917.5 "/>
<text text-anchor="middle" x="740.62" y="-1902.3" font-family="Times,serif" font-size="14.00">slice [0] to [12]</text>
<polyline fill="none" stroke="black" points="678.12,-1894.5 803.12,-1894.5 "/>
<text text-anchor="middle" x="740.62" y="-1879.3" font-family="Times,serif" font-size="14.00">slice [0] to [11]</text>
<polyline fill="none" stroke="black" points="678.12,-1871.5 803.12,-1871.5 "/>
<text text-anchor="middle" x="740.62" y="-1856.3" font-family="Times,serif" font-size="14.00">slice [0] to [10]</text>
<polyline fill="none" stroke="black" points="678.12,-1848.5 803.12,-1848.5 "/>
<text text-anchor="middle" x="740.62" y="-1833.3" font-family="Times,serif" font-size="14.00">slice [0] to [9]</text>
<polyline fill="none" stroke="black" points="678.12,-1825.5 803.12,-1825.5 "/>
<text text-anchor="middle" x="740.62" y="-1810.3" font-family="Times,serif" font-size="14.00">slice [0] to [8]</text>
<polyline fill="none" stroke="black" points="678.12,-1802.5 803.12,-1802.5 "/>
<text text-anchor="middle" x="740.62" y="-1787.3" font-family="Times,serif" font-size="14.00">slice [0] to [7]</text>
<polyline fill="none" stroke="black" points="678.12,-1779.5 803.12,-1779.5 "/>
<text text-anchor="middle" x="740.62" y="-1764.3" font-family="Times,serif" font-size="14.00">slice [0] to [6]</text>
<polyline fill="none" stroke="black" points="678.12,-1756.5 803.12,-1756.5 "/>
<text text-anchor="middle" x="740.62" y="-1741.3" font-family="Times,serif" font-size="14.00">slice [0] to [5]</text>
<polyline fill="none" stroke="black" points="678.12,-1733.5 803.12,-1733.5 "/>
<text text-anchor="middle" x="740.62" y="-1718.3" font-family="Times,serif" font-size="14.00">slice [0] to [4]</text>
<polyline fill="none" stroke="black" points="678.12,-1710.5 803.12,-1710.5 "/>
<text text-anchor="middle" x="740.62" y="-1695.3" font-family="Times,serif" font-size="14.00">slice [0] to [3]</text>
<polyline fill="none" stroke="black" points="678.12,-1687.5 803.12,-1687.5 "/>
<text text-anchor="middle" x="740.62" y="-1672.3" font-family="Times,serif" font-size="14.00">slice [0] to [2]</text>
<polyline fill="none" stroke="black" points="678.12,-1664.5 803.12,-1664.5 "/>
<text text-anchor="middle" x="740.62" y="-1649.3" font-family="Times,serif" font-size="14.00">slice [0] to [1]</text>
<polyline fill="none" stroke="black" points="678.12,-1641.5 803.12,-1641.5 "/>
<text text-anchor="middle" x="740.62" y="-1626.3" font-family="Times,serif" font-size="14.00">slice [0] to [0]</text>
</g>
<!-- n3&#45;&gt;x48 -->
<g id="edge113" class="edge">
<title>n3:e&#45;&gt;x48:w</title>
<path fill="none" stroke="black" d="M634.56,-1695.5C665.73,-1695.5 648.24,-1643.61 668.38,-1631.85"/>
<polygon fill="black" stroke="black" points="669.22,-1635.25 678.12,-1629.5 667.58,-1628.44 669.22,-1635.25"/>
</g>
<!-- n4 -->
<g id="node4" class="node">
<title>n4</title>
<polygon fill="none" stroke="black" points="344,-829.5 275.96,-811.5 344,-793.5 412.04,-811.5 344,-829.5"/>
<text text-anchor="middle" x="344" y="-807.8" font-family="Times,serif" font-size="14.00">not_1.in</text>
</g>
<!-- n5 -->
<g id="node5" class="node">
<title>n5</title>
<polygon fill="none" stroke="black" points="557.56,-1651.5 481.48,-1633.5 557.56,-1615.5 633.64,-1633.5 557.56,-1651.5"/>
<text text-anchor="middle" x="557.56" y="-1629.8" font-family="Times,serif" font-size="14.00">not_1.out</text>
</g>
<!-- n5&#45;&gt;x48 -->
<g id="edge123" class="edge">
<title>n5:e&#45;&gt;x48:w</title>
<path fill="none" stroke="black" d="M634.56,-1633.5C651.72,-1633.5 655.81,-1646.04 668.07,-1650.75"/>
<polygon fill="black" stroke="black" points="667.67,-1654.23 678.12,-1652.5 668.88,-1647.33 667.67,-1654.23"/>
</g>
<!-- n6 -->
<g id="node6" class="node">
<title>n6</title>
<polygon fill="none" stroke="black" points="344,-774.5 267.92,-756.5 344,-738.5 420.08,-756.5 344,-774.5"/>
<text text-anchor="middle" x="344" y="-752.8" font-family="Times,serif" font-size="14.00">not_10.in</text>
</g>
<!-- n7 -->
<g id="node7" class="node">
<title>n7</title>
<polygon fill="none" stroke="black" points="557.56,-2119.5 472.94,-2101.5 557.56,-2083.5 642.19,-2101.5 557.56,-2119.5"/>
<text text-anchor="middle" x="557.56" y="-2097.8" font-family="Times,serif" font-size="14.00">not_10.out</text>
</g>
<!-- n7&#45;&gt;x48 -->
<g id="edge126" class="edge">
<title>n7:e&#45;&gt;x48:w</title>
<path fill="none" stroke="black" d="M642.12,-2101.5C692.47,-2101.5 633.52,-1893.2 668.49,-1863.91"/>
<polygon fill="black" stroke="black" points="669.86,-1867.13 678.12,-1860.5 667.53,-1860.53 669.86,-1867.13"/>
</g>
<!-- n8 -->
<g id="node8" class="node">
<title>n8</title>
<polygon fill="none" stroke="black" points="344,-719.5 267.92,-701.5 344,-683.5 420.08,-701.5 344,-719.5"/>
<text text-anchor="middle" x="344" y="-697.8" font-family="Times,serif" font-size="14.00">not_11.in</text>
</g>
<!-- n9 -->
<g id="node9" class="node">
<title>n9</title>
<polygon fill="none" stroke="black" points="557.56,-2065.5 472.94,-2047.5 557.56,-2029.5 642.19,-2047.5 557.56,-2065.5"/>
<text text-anchor="middle" x="557.56" y="-2043.8" font-family="Times,serif" font-size="14.00">not_11.out</text>
</g>
<!-- n9&#45;&gt;x48 -->
<g id="edge129" class="edge">
<title>n9:e&#45;&gt;x48:w</title>
<path fill="none" stroke="black" d="M642.12,-2047.5C712.96,-2047.5 614.52,-1899.73 668.16,-1884.73"/>
<polygon fill="black" stroke="black" points="668.63,-1888.19 678.12,-1883.5 667.77,-1881.25 668.63,-1888.19"/>
</g>
<!-- n10 -->
<g id="node10" class="node">
<title>n10</title>
<polygon fill="none" stroke="black" points="344,-664.5 267.92,-646.5 344,-628.5 420.08,-646.5 344,-664.5"/>
<text text-anchor="middle" x="344" y="-642.8" font-family="Times,serif" font-size="14.00">not_12.in</text>
</g>
<!-- n11 -->
<g id="node11" class="node">
<title>n11</title>
<polygon fill="none" stroke="black" points="557.56,-2011.5 472.94,-1993.5 557.56,-1975.5 642.19,-1993.5 557.56,-2011.5"/>
<text text-anchor="middle" x="557.56" y="-1989.8" font-family="Times,serif" font-size="14.00">not_12.out</text>
</g>
<!-- n11&#45;&gt;x48 -->
<g id="edge83" class="edge">
<title>n11:e&#45;&gt;x48:w</title>
<path fill="none" stroke="black" d="M642.12,-1993.5C679.88,-1993.5 644.74,-1922.66 668.26,-1908.83"/>
<polygon fill="black" stroke="black" points="669.2,-1912.2 678.12,-1906.5 667.59,-1905.39 669.2,-1912.2"/>
</g>
<!-- n12 -->
<g id="node12" class="node">
<title>n12</title>
<polygon fill="none" stroke="black" points="344,-609.5 267.92,-591.5 344,-573.5 420.08,-591.5 344,-609.5"/>
<text text-anchor="middle" x="344" y="-587.8" font-family="Times,serif" font-size="14.00">not_13.in</text>
</g>
<!-- n13 -->
<g id="node13" class="node">
<title>n13</title>
<polygon fill="none" stroke="black" points="557.56,-1957.5 472.94,-1939.5 557.56,-1921.5 642.19,-1939.5 557.56,-1957.5"/>
<text text-anchor="middle" x="557.56" y="-1935.8" font-family="Times,serif" font-size="14.00">not_13.out</text>
</g>
<!-- n13&#45;&gt;x48 -->
<g id="edge86" class="edge">
<title>n13:e&#45;&gt;x48:w</title>
<path fill="none" stroke="black" d="M642.12,-1939.5C654.71,-1939.5 659.36,-1933.76 668.1,-1930.98"/>
<polygon fill="black" stroke="black" points="668.74,-1934.42 678.12,-1929.5 667.72,-1927.49 668.74,-1934.42"/>
</g>
<!-- n14 -->
<g id="node14" class="node">
<title>n14</title>
<polygon fill="none" stroke="black" points="344,-554.5 267.92,-536.5 344,-518.5 420.08,-536.5 344,-554.5"/>
<text text-anchor="middle" x="344" y="-532.8" font-family="Times,serif" font-size="14.00">not_14.in</text>
</g>
<!-- n15 -->
<g id="node15" class="node">
<title>n15</title>
<polygon fill="none" stroke="black" points="557.56,-1903.5 472.94,-1885.5 557.56,-1867.5 642.19,-1885.5 557.56,-1903.5"/>
<text text-anchor="middle" x="557.56" y="-1881.8" font-family="Times,serif" font-size="14.00">not_14.out</text>
</g>
<!-- n15&#45;&gt;x48 -->
<g id="edge89" class="edge">
<title>n15:e&#45;&gt;x48:w</title>
<path fill="none" stroke="black" d="M642.12,-1885.5C671.7,-1885.5 651.2,-1936.8 668.26,-1949.62"/>
<polygon fill="black" stroke="black" points="667.54,-1953.06 678.12,-1952.5 669.51,-1946.34 667.54,-1953.06"/>
</g>
<!-- n16 -->
<g id="node16" class="node">
<title>n16</title>
<polygon fill="none" stroke="black" points="344,-499.5 267.92,-481.5 344,-463.5 420.08,-481.5 344,-499.5"/>
<text text-anchor="middle" x="344" y="-477.8" font-family="Times,serif" font-size="14.00">not_15.in</text>
</g>
<!-- n17 -->
<g id="node17" class="node">
<title>n17</title>
<polygon fill="none" stroke="black" points="557.56,-2281.5 472.94,-2263.5 557.56,-2245.5 642.19,-2263.5 557.56,-2281.5"/>
<text text-anchor="middle" x="557.56" y="-2259.8" font-family="Times,serif" font-size="14.00">not_15.out</text>
</g>
<!-- n17&#45;&gt;x48 -->
<g id="edge92" class="edge">
<title>n17:e&#45;&gt;x48:w</title>
<path fill="none" stroke="black" d="M642.12,-2263.5C702.84,-2263.5 623.98,-2008.26 668.35,-1978.35"/>
<polygon fill="black" stroke="black" points="669.5,-1981.66 678.12,-1975.5 667.54,-1974.94 669.5,-1981.66"/>
</g>
<!-- n18 -->
<g id="node18" class="node">
<title>n18</title>
<polygon fill="none" stroke="black" points="344,-444.5 275.96,-426.5 344,-408.5 412.04,-426.5 344,-444.5"/>
<text text-anchor="middle" x="344" y="-422.8" font-family="Times,serif" font-size="14.00">not_2.in</text>
</g>
<!-- n19 -->
<g id="node19" class="node">
<title>n19</title>
<polygon fill="none" stroke="black" points="557.56,-1564.5 481.48,-1546.5 557.56,-1528.5 633.64,-1546.5 557.56,-1564.5"/>
<text text-anchor="middle" x="557.56" y="-1542.8" font-family="Times,serif" font-size="14.00">not_2.out</text>
</g>
<!-- n19&#45;&gt;x48 -->
<g id="edge95" class="edge">
<title>n19:e&#45;&gt;x48:w</title>
<path fill="none" stroke="black" d="M634.56,-1546.5C691.18,-1546.5 627.02,-1659.41 668.07,-1673.96"/>
<polygon fill="black" stroke="black" points="667.71,-1677.45 678.12,-1675.5 668.77,-1670.53 667.71,-1677.45"/>
</g>
<!-- n20 -->
<g id="node20" class="node">
<title>n20</title>
<polygon fill="none" stroke="black" points="344,-389.5 275.96,-371.5 344,-353.5 412.04,-371.5 344,-389.5"/>
<text text-anchor="middle" x="344" y="-367.8" font-family="Times,serif" font-size="14.00">not_3.in</text>
</g>
<!-- n21 -->
<g id="node21" class="node">
<title>n21</title>
<polygon fill="none" stroke="black" points="557.56,-1466.5 481.48,-1448.5 557.56,-1430.5 633.64,-1448.5 557.56,-1466.5"/>
<text text-anchor="middle" x="557.56" y="-1444.8" font-family="Times,serif" font-size="14.00">not_3.out</text>
</g>
<!-- n21&#45;&gt;x48 -->
<g id="edge99" class="edge">
<title>n21:e&#45;&gt;x48:w</title>
<path fill="none" stroke="black" d="M634.56,-1448.5C687.21,-1448.5 630.37,-1666.4 668.48,-1695.34"/>
<polygon fill="black" stroke="black" points="667.53,-1698.71 678.12,-1698.5 669.71,-1692.06 667.53,-1698.71"/>
</g>
<!-- n22 -->
<g id="node22" class="node">
<title>n22</title>
<polygon fill="none" stroke="black" points="344,-334.5 275.96,-316.5 344,-298.5 412.04,-316.5 344,-334.5"/>
<text text-anchor="middle" x="344" y="-312.8" font-family="Times,serif" font-size="14.00">not_4.in</text>
</g>
<!-- n23 -->
<g id="node23" class="node">
<title>n23</title>
<polygon fill="none" stroke="black" points="557.56,-1362.5 481.48,-1344.5 557.56,-1326.5 633.64,-1344.5 557.56,-1362.5"/>
<text text-anchor="middle" x="557.56" y="-1340.8" font-family="Times,serif" font-size="14.00">not_4.out</text>
</g>
<!-- n23&#45;&gt;x48 -->
<g id="edge102" class="edge">
<title>n23:e&#45;&gt;x48:w</title>
<path fill="none" stroke="black" d="M634.56,-1344.5C715.11,-1344.5 604.61,-1688.39 667.99,-1719.29"/>
<polygon fill="black" stroke="black" points="667.61,-1722.79 678.12,-1721.5 669.1,-1715.95 667.61,-1722.79"/>
</g>
<!-- n24 -->
<g id="node24" class="node">
<title>n24</title>
<polygon fill="none" stroke="black" points="344,-279.5 275.96,-261.5 344,-243.5 412.04,-261.5 344,-279.5"/>
<text text-anchor="middle" x="344" y="-257.8" font-family="Times,serif" font-size="14.00">not_5.in</text>
</g>
<!-- n25 -->
<g id="node25" class="node">
<title>n25</title>
<polygon fill="none" stroke="black" points="557.56,-1255.5 481.48,-1237.5 557.56,-1219.5 633.64,-1237.5 557.56,-1255.5"/>
<text text-anchor="middle" x="557.56" y="-1233.8" font-family="Times,serif" font-size="14.00">not_5.out</text>
</g>
<!-- n25&#45;&gt;x48 -->
<g id="edge105" class="edge">
<title>n25:e&#45;&gt;x48:w</title>
<path fill="none" stroke="black" d="M634.56,-1237.5C687.79,-1237.5 629.3,-1686.83 669.43,-1739.48"/>
<polygon fill="black" stroke="black" points="667.71,-1742.53 678.12,-1744.5 671.21,-1736.47 667.71,-1742.53"/>
</g>
<!-- n26 -->
<g id="node26" class="node">
<title>n26</title>
<polygon fill="none" stroke="black" points="344,-224.5 275.96,-206.5 344,-188.5 412.04,-206.5 344,-224.5"/>
<text text-anchor="middle" x="344" y="-202.8" font-family="Times,serif" font-size="14.00">not_6.in</text>
</g>
<!-- n27 -->
<g id="node27" class="node">
<title>n27</title>
<polygon fill="none" stroke="black" points="557.56,-1173.5 481.48,-1155.5 557.56,-1137.5 633.64,-1155.5 557.56,-1173.5"/>
<text text-anchor="middle" x="557.56" y="-1151.8" font-family="Times,serif" font-size="14.00">not_6.out</text>
</g>
<!-- n27&#45;&gt;x48 -->
<g id="edge108" class="edge">
<title>n27:e&#45;&gt;x48:w</title>
<path fill="none" stroke="black" d="M634.56,-1155.5C699.27,-1155.5 618.96,-1706.92 668.94,-1762.93"/>
<polygon fill="black" stroke="black" points="667.61,-1766.17 678.12,-1767.5 670.73,-1759.91 667.61,-1766.17"/>
</g>
<!-- n28 -->
<g id="node28" class="node">
<title>n28</title>
<polygon fill="none" stroke="black" points="344,-169.5 275.96,-151.5 344,-133.5 412.04,-151.5 344,-169.5"/>
<text text-anchor="middle" x="344" y="-147.8" font-family="Times,serif" font-size="14.00">not_7.in</text>
</g>
<!-- n29 -->
<g id="node29" class="node">
<title>n29</title>
<polygon fill="none" stroke="black" points="557.56,-1788.5 481.48,-1770.5 557.56,-1752.5 633.64,-1770.5 557.56,-1788.5"/>
<text text-anchor="middle" x="557.56" y="-1766.8" font-family="Times,serif" font-size="14.00">not_7.out</text>
</g>
<!-- n29&#45;&gt;x48 -->
<g id="edge111" class="edge">
<title>n29:e&#45;&gt;x48:w</title>
<path fill="none" stroke="black" d="M634.56,-1770.5C651.87,-1770.5 655.75,-1783.7 668.02,-1788.65"/>
<polygon fill="black" stroke="black" points="667.66,-1792.15 678.12,-1790.5 668.92,-1785.26 667.66,-1792.15"/>
</g>
<!-- n30 -->
<g id="node30" class="node">
<title>n30</title>
<polygon fill="none" stroke="black" points="344,-114.5 275.96,-96.5 344,-78.5 412.04,-96.5 344,-114.5"/>
<text text-anchor="middle" x="344" y="-92.8" font-family="Times,serif" font-size="14.00">not_8.in</text>
</g>
<!-- n31 -->
<g id="node31" class="node">
<title>n31</title>
<polygon fill="none" stroke="black" points="557.56,-2227.5 481.48,-2209.5 557.56,-2191.5 633.64,-2209.5 557.56,-2227.5"/>
<text text-anchor="middle" x="557.56" y="-2205.8" font-family="Times,serif" font-size="14.00">not_8.out</text>
</g>
<!-- n31&#45;&gt;x48 -->
<g id="edge116" class="edge">
<title>n31:e&#45;&gt;x48:w</title>
<path fill="none" stroke="black" d="M634.56,-2209.5C719.08,-2209.5 600.84,-1847.72 667.93,-1816.63"/>
<polygon fill="black" stroke="black" points="669.05,-1819.97 678.12,-1814.5 667.62,-1813.11 669.05,-1819.97"/>
</g>
<!-- n32 -->
<g id="node32" class="node">
<title>n32</title>
<polygon fill="none" stroke="black" points="344,-59.5 275.96,-41.5 344,-23.5 412.04,-41.5 344,-59.5"/>
<text text-anchor="middle" x="344" y="-37.8" font-family="Times,serif" font-size="14.00">not_9.in</text>
</g>
<!-- n33 -->
<g id="node33" class="node">
<title>n33</title>
<polygon fill="none" stroke="black" points="557.56,-2173.5 481.48,-2155.5 557.56,-2137.5 633.64,-2155.5 557.56,-2173.5"/>
<text text-anchor="middle" x="557.56" y="-2151.8" font-family="Times,serif" font-size="14.00">not_9.out</text>
</g>
<!-- n33&#45;&gt;x48 -->
<g id="edge119" class="edge">
<title>n33:e&#45;&gt;x48:w</title>
<path fill="none" stroke="black" d="M634.56,-2155.5C702.13,-2155.5 616.78,-1870.15 668.21,-1840.06"/>
<polygon fill="black" stroke="black" points="669.32,-1843.39 678.12,-1837.5 667.57,-1836.61 669.32,-1843.39"/>
</g>
<!-- n34 -->
<g id="node34" class="node">
<title>n34</title>
<polygon fill="none" stroke="black" points="895.54,-1795.04 895.54,-1809.96 878.98,-1820.5 855.55,-1820.5 838.98,-1809.96 838.98,-1795.04 855.55,-1784.5 878.98,-1784.5 895.54,-1795.04"/>
<text text-anchor="middle" x="867.26" y="-1798.8" font-family="Times,serif" font-size="14.00">out</text>
</g>
<!-- c37 -->
<g id="node35" class="node">
<title>c37</title>
<polygon fill="none" stroke="black" points="255.5,-1680.5 255.5,-1726.5 432.5,-1726.5 432.5,-1680.5 255.5,-1680.5"/>
<text text-anchor="middle" x="268.5" y="-1711.3" font-family="Times,serif" font-size="14.00">a</text>
<polyline fill="none" stroke="black" points="255.5,-1703.5 281.5,-1703.5 "/>
<text text-anchor="middle" x="268.5" y="-1688.3" font-family="Times,serif" font-size="14.00">b</text>
<polyline fill="none" stroke="black" points="281.5,-1680.5 281.5,-1726.5 "/>
<text text-anchor="middle" x="337" y="-1707.3" font-family="Times,serif" font-size="14.00">not_0.nand_0</text>
<text text-anchor="middle" x="337" y="-1692.3" font-family="Times,serif" font-size="14.00">Nand</text>
<polyline fill="none" stroke="black" points="392.5,-1680.5 392.5,-1726.5 "/>
<text text-anchor="middle" x="412.5" y="-1699.8" font-family="Times,serif" font-size="14.00">out</text>
</g>
<!-- c37&#45;&gt;n3 -->
<g id="edge112" class="edge">
<title>c37:e&#45;&gt;n3:w</title>
<path fill="none" stroke="black" d="M434,-1703.5C451.06,-1703.5 457.27,-1698.22 470.27,-1696.24"/>
<polygon fill="black" stroke="black" points="470.84,-1699.71 480.56,-1695.5 470.34,-1692.72 470.84,-1699.71"/>
</g>
<!-- x0&#45;&gt;c37 -->
<g id="edge1" class="edge">
<title>x0:e&#45;&gt;c37:w</title>
<path fill="none" stroke="black" d="M223.12,-1742.94C231.34,-1736.96 234.19,-1724.97 242.43,-1719.01"/>
<polygon fill="none" stroke="black" points="222.98,-1742.99 218.41,-1748.57 211.5,-1746.5 216.07,-1740.92 222.98,-1742.99"/>
<polygon fill="none" stroke="black" points="242.52,-1718.99 247.1,-1713.42 254,-1715.5 249.42,-1721.07 242.52,-1718.99"/>
</g>
<!-- x1&#45;&gt;c37 -->
<g id="edge2" class="edge">
<title>x1:e&#45;&gt;c37:w</title>
<path fill="none" stroke="black" d="M223.77,-1691.5C230.33,-1691.5 235.26,-1691.5 241.84,-1691.5"/>
<polygon fill="none" stroke="black" points="223.5,-1691.5 217.5,-1695.5 211.5,-1691.5 217.5,-1687.5 223.5,-1691.5"/>
<polygon fill="none" stroke="black" points="242,-1691.5 248,-1687.5 254,-1691.5 248,-1695.5 242,-1691.5"/>
</g>
<!-- c38 -->
<g id="node38" class="node">
<title>c38</title>
<polygon fill="none" stroke="black" points="255.5,-1601.5 255.5,-1647.5 432.5,-1647.5 432.5,-1601.5 255.5,-1601.5"/>
<text text-anchor="middle" x="268.5" y="-1632.3" font-family="Times,serif" font-size="14.00">a</text>
<polyline fill="none" stroke="black" points="255.5,-1624.5 281.5,-1624.5 "/>
<text text-anchor="middle" x="268.5" y="-1609.3" font-family="Times,serif" font-size="14.00">b</text>
<polyline fill="none" stroke="black" points="281.5,-1601.5 281.5,-1647.5 "/>
<text text-anchor="middle" x="337" y="-1628.3" font-family="Times,serif" font-size="14.00">not_1.nand_0</text>
<text text-anchor="middle" x="337" y="-1613.3" font-family="Times,serif" font-size="14.00">Nand</text>
<polyline fill="none" stroke="black" points="392.5,-1601.5 392.5,-1647.5 "/>
<text text-anchor="middle" x="412.5" y="-1620.8" font-family="Times,serif" font-size="14.00">out</text>
</g>
<!-- c38&#45;&gt;n5 -->
<g id="edge122" class="edge">
<title>c38:e&#45;&gt;n5:w</title>
<path fill="none" stroke="black" d="M434,-1624.5C451.13,-1624.5 457.25,-1630.44 470.24,-1632.67"/>
<polygon fill="black" stroke="black" points="470.31,-1636.19 480.56,-1633.5 470.88,-1629.21 470.31,-1636.19"/>
</g>
<!-- x2&#45;&gt;c38 -->
<g id="edge3" class="edge">
<title>x2:e&#45;&gt;c38:w</title>
<path fill="none" stroke="black" d="M223.77,-1636.5C230.33,-1636.5 235.26,-1636.5 241.84,-1636.5"/>
<polygon fill="none" stroke="black" points="223.5,-1636.5 217.5,-1640.5 211.5,-1636.5 217.5,-1632.5 223.5,-1636.5"/>
<polygon fill="none" stroke="black" points="242,-1636.5 248,-1632.5 254,-1636.5 248,-1640.5 242,-1636.5"/>
</g>
<!-- x3&#45;&gt;c38 -->
<g id="edge4" class="edge">
<title>x3:e&#45;&gt;c38:w</title>
<path fill="none" stroke="black" d="M223.12,-1585.06C231.34,-1591.04 234.19,-1603.03 242.43,-1608.99"/>
<polygon fill="none" stroke="black" points="222.98,-1585.01 216.07,-1587.08 211.5,-1581.5 218.41,-1579.43 222.98,-1585.01"/>
<polygon fill="none" stroke="black" points="242.52,-1609.01 249.42,-1606.93 254,-1612.5 247.1,-1614.58 242.52,-1609.01"/>
</g>
<!-- c39 -->
<g id="node41" class="node">
<title>c39</title>
<polygon fill="none" stroke="black" points="251,-2340.5 251,-2386.5 437,-2386.5 437,-2340.5 251,-2340.5"/>
<text text-anchor="middle" x="264" y="-2371.3" font-family="Times,serif" font-size="14.00">a</text>
<polyline fill="none" stroke="black" points="251,-2363.5 277,-2363.5 "/>
<text text-anchor="middle" x="264" y="-2348.3" font-family="Times,serif" font-size="14.00">b</text>
<polyline fill="none" stroke="black" points="277,-2340.5 277,-2386.5 "/>
<text text-anchor="middle" x="337" y="-2367.3" font-family="Times,serif" font-size="14.00">not_10.nand_0</text>
<text text-anchor="middle" x="337" y="-2352.3" font-family="Times,serif" font-size="14.00">Nand</text>
<polyline fill="none" stroke="black" points="397,-2340.5 397,-2386.5 "/>
<text text-anchor="middle" x="417" y="-2359.8" font-family="Times,serif" font-size="14.00">out</text>
</g>
<!-- c39&#45;&gt;n7 -->
<g id="edge125" class="edge">
<title>c39:e&#45;&gt;n7:w</title>
<path fill="none" stroke="black" d="M437,-2363.5C491.87,-2363.5 424.44,-2135.14 463.07,-2104.81"/>
<polygon fill="black" stroke="black" points="464.62,-2107.98 473,-2101.5 462.41,-2101.34 464.62,-2107.98"/>
</g>
<!-- x4&#45;&gt;c39 -->
<g id="edge5" class="edge">
<title>x4:e&#45;&gt;c39:w</title>
<path fill="none" stroke="black" d="M226.31,-2401.93C231.95,-2396.13 233.93,-2386.19 239.48,-2380.3"/>
<polygon fill="none" stroke="black" points="226.12,-2402 222.06,-2407.96 215,-2406.5 219.06,-2400.54 226.12,-2402"/>
<polygon fill="none" stroke="black" points="239.92,-2380.11 243.92,-2374.11 251,-2375.5 247,-2381.5 239.92,-2380.11"/>
</g>
<!-- x5&#45;&gt;c39 -->
<g id="edge6" class="edge">
<title>x5:e&#45;&gt;c39:w</title>
<path fill="none" stroke="black" d="M227.22,-2351.5C231.29,-2351.5 234.73,-2351.5 238.81,-2351.5"/>
<polygon fill="none" stroke="black" points="227,-2351.5 221,-2355.5 215,-2351.5 221,-2347.5 227,-2351.5"/>
<polygon fill="none" stroke="black" points="239,-2351.5 245,-2347.5 251,-2351.5 245,-2355.5 239,-2351.5"/>
</g>
<!-- c40 -->
<g id="node44" class="node">
<title>c40</title>
<polygon fill="none" stroke="black" points="251,-2230.5 251,-2276.5 437,-2276.5 437,-2230.5 251,-2230.5"/>
<text text-anchor="middle" x="264" y="-2261.3" font-family="Times,serif" font-size="14.00">a</text>
<polyline fill="none" stroke="black" points="251,-2253.5 277,-2253.5 "/>
<text text-anchor="middle" x="264" y="-2238.3" font-family="Times,serif" font-size="14.00">b</text>
<polyline fill="none" stroke="black" points="277,-2230.5 277,-2276.5 "/>
<text text-anchor="middle" x="337" y="-2257.3" font-family="Times,serif" font-size="14.00">not_11.nand_0</text>
<text text-anchor="middle" x="337" y="-2242.3" font-family="Times,serif" font-size="14.00">Nand</text>
<polyline fill="none" stroke="black" points="397,-2230.5 397,-2276.5 "/>
<text text-anchor="middle" x="417" y="-2249.8" font-family="Times,serif" font-size="14.00">out</text>
</g>
<!-- c40&#45;&gt;n9 -->
<g id="edge128" class="edge">
<title>c40:e&#45;&gt;n9:w</title>
<path fill="none" stroke="black" d="M437,-2253.5C526.13,-2253.5 391.94,-2064.05 462.76,-2048.51"/>
<polygon fill="black" stroke="black" points="463.39,-2051.97 473,-2047.5 462.7,-2045 463.39,-2051.97"/>
</g>
<!-- x6&#45;&gt;c40 -->
<g id="edge7" class="edge">
<title>x6:e&#45;&gt;c40:w</title>
<path fill="none" stroke="black" d="M226.31,-2291.93C231.95,-2286.13 233.93,-2276.19 239.48,-2270.3"/>
<polygon fill="none" stroke="black" points="226.12,-2292 222.06,-2297.96 215,-2296.5 219.06,-2290.54 226.12,-2292"/>
<polygon fill="none" stroke="black" points="239.92,-2270.11 243.92,-2264.11 251,-2265.5 247,-2271.5 239.92,-2270.11"/>
</g>
<!-- x7&#45;&gt;c40 -->
<g id="edge8" class="edge">
<title>x7:e&#45;&gt;c40:w</title>
<path fill="none" stroke="black" d="M227.22,-2241.5C231.29,-2241.5 234.73,-2241.5 238.81,-2241.5"/>
<polygon fill="none" stroke="black" points="227,-2241.5 221,-2245.5 215,-2241.5 221,-2237.5 227,-2241.5"/>
<polygon fill="none" stroke="black" points="239,-2241.5 245,-2237.5 251,-2241.5 245,-2245.5 239,-2241.5"/>
</g>
<!-- c41 -->
<g id="node47" class="node">
<title>c41</title>
<polygon fill="none" stroke="black" points="251,-2120.5 251,-2166.5 437,-2166.5 437,-2120.5 251,-2120.5"/>
<text text-anchor="middle" x="264" y="-2151.3" font-family="Times,serif" font-size="14.00">a</text>
<polyline fill="none" stroke="black" points="251,-2143.5 277,-2143.5 "/>
<text text-anchor="middle" x="264" y="-2128.3" font-family="Times,serif" font-size="14.00">b</text>
<polyline fill="none" stroke="black" points="277,-2120.5 277,-2166.5 "/>
<text text-anchor="middle" x="337" y="-2147.3" font-family="Times,serif" font-size="14.00">not_12.nand_0</text>
<text text-anchor="middle" x="337" y="-2132.3" font-family="Times,serif" font-size="14.00">Nand</text>
<polyline fill="none" stroke="black" points="397,-2120.5 397,-2166.5 "/>
<text text-anchor="middle" x="417" y="-2139.8" font-family="Times,serif" font-size="14.00">out</text>
</g>
<!-- c41&#45;&gt;n11 -->
<g id="edge82" class="edge">
<title>c41:e&#45;&gt;n11:w</title>
<path fill="none" stroke="black" d="M437,-2143.5C501.68,-2143.5 415.35,-2010.01 462.92,-1994.89"/>
<polygon fill="black" stroke="black" points="463.57,-1998.33 473,-1993.5 462.62,-1991.4 463.57,-1998.33"/>
</g>
<!-- x8&#45;&gt;c41 -->
<g id="edge9" class="edge">
<title>x8:e&#45;&gt;c41:w</title>
<path fill="none" stroke="black" d="M226.31,-2181.93C231.95,-2176.13 233.93,-2166.19 239.48,-2160.3"/>
<polygon fill="none" stroke="black" points="226.12,-2182 222.06,-2187.96 215,-2186.5 219.06,-2180.54 226.12,-2182"/>
<polygon fill="none" stroke="black" points="239.92,-2160.11 243.92,-2154.11 251,-2155.5 247,-2161.5 239.92,-2160.11"/>
</g>
<!-- x9&#45;&gt;c41 -->
<g id="edge10" class="edge">
<title>x9:e&#45;&gt;c41:w</title>
<path fill="none" stroke="black" d="M227.22,-2131.5C231.29,-2131.5 234.73,-2131.5 238.81,-2131.5"/>
<polygon fill="none" stroke="black" points="227,-2131.5 221,-2135.5 215,-2131.5 221,-2127.5 227,-2131.5"/>
<polygon fill="none" stroke="black" points="239,-2131.5 245,-2127.5 251,-2131.5 245,-2135.5 239,-2131.5"/>
</g>
<!-- c42 -->
<g id="node50" class="node">
<title>c42</title>
<polygon fill="none" stroke="black" points="251,-2010.5 251,-2056.5 437,-2056.5 437,-2010.5 251,-2010.5"/>
<text text-anchor="middle" x="264" y="-2041.3" font-family="Times,serif" font-size="14.00">a</text>
<polyline fill="none" stroke="black" points="251,-2033.5 277,-2033.5 "/>
<text text-anchor="middle" x="264" y="-2018.3" font-family="Times,serif" font-size="14.00">b</text>
<polyline fill="none" stroke="black" points="277,-2010.5 277,-2056.5 "/>
<text text-anchor="middle" x="337" y="-2037.3" font-family="Times,serif" font-size="14.00">not_13.nand_0</text>
<text text-anchor="middle" x="337" y="-2022.3" font-family="Times,serif" font-size="14.00">Nand</text>
<polyline fill="none" stroke="black" points="397,-2010.5 397,-2056.5 "/>
<text text-anchor="middle" x="417" y="-2029.8" font-family="Times,serif" font-size="14.00">out</text>
</g>
<!-- c42&#45;&gt;n13 -->
<g id="edge85" class="edge">
<title>c42:e&#45;&gt;n13:w</title>
<path fill="none" stroke="black" d="M437,-2033.5C477.72,-2033.5 437.08,-1955.63 463.18,-1941.64"/>
<polygon fill="black" stroke="black" points="463.97,-1945.05 473,-1939.5 462.48,-1938.21 463.97,-1945.05"/>
</g>
<!-- x10&#45;&gt;c42 -->
<g id="edge11" class="edge">
<title>x10:e&#45;&gt;c42:w</title>
<path fill="none" stroke="black" d="M226.31,-2071.93C231.95,-2066.13 233.93,-2056.19 239.48,-2050.3"/>
<polygon fill="none" stroke="black" points="226.12,-2072 222.06,-2077.96 215,-2076.5 219.06,-2070.54 226.12,-2072"/>
<polygon fill="none" stroke="black" points="239.92,-2050.11 243.92,-2044.11 251,-2045.5 247,-2051.5 239.92,-2050.11"/>
</g>
<!-- x11&#45;&gt;c42 -->
<g id="edge12" class="edge">
<title>x11:e&#45;&gt;c42:w</title>
<path fill="none" stroke="black" d="M227.22,-2021.5C231.29,-2021.5 234.73,-2021.5 238.81,-2021.5"/>
<polygon fill="none" stroke="black" points="227,-2021.5 221,-2025.5 215,-2021.5 221,-2017.5 227,-2021.5"/>
<polygon fill="none" stroke="black" points="239,-2021.5 245,-2017.5 251,-2021.5 245,-2025.5 239,-2021.5"/>
</g>
<!-- c43 -->
<g id="node53" class="node">
<title>c43</title>
<polygon fill="none" stroke="black" points="251,-1900.5 251,-1946.5 437,-1946.5 437,-1900.5 251,-1900.5"/>
<text text-anchor="middle" x="264" y="-1931.3" font-family="Times,serif" font-size="14.00">a</text>
<polyline fill="none" stroke="black" points="251,-1923.5 277,-1923.5 "/>
<text text-anchor="middle" x="264" y="-1908.3" font-family="Times,serif" font-size="14.00">b</text>
<polyline fill="none" stroke="black" points="277,-1900.5 277,-1946.5 "/>
<text text-anchor="middle" x="337" y="-1927.3" font-family="Times,serif" font-size="14.00">not_14.nand_0</text>
<text text-anchor="middle" x="337" y="-1912.3" font-family="Times,serif" font-size="14.00">Nand</text>
<polyline fill="none" stroke="black" points="397,-1900.5 397,-1946.5 "/>
<text text-anchor="middle" x="417" y="-1919.8" font-family="Times,serif" font-size="14.00">out</text>
</g>
<!-- c43&#45;&gt;n15 -->
<g id="edge88" class="edge">
<title>c43:e&#45;&gt;n15:w</title>
<path fill="none" stroke="black" d="M437,-1923.5C456.08,-1923.5 452.43,-1897.93 463.34,-1888.74"/>
<polygon fill="black" stroke="black" points="464.63,-1892 473,-1885.5 462.41,-1885.36 464.63,-1892"/>
</g>
<!-- x12&#45;&gt;c43 -->
<g id="edge13" class="edge">
<title>x12:e&#45;&gt;c43:w</title>
<path fill="none" stroke="black" d="M226.31,-1961.93C231.95,-1956.13 233.93,-1946.19 239.48,-1940.3"/>
<polygon fill="none" stroke="black" points="226.12,-1962 222.06,-1967.96 215,-1966.5 219.06,-1960.54 226.12,-1962"/>
<polygon fill="none" stroke="black" points="239.92,-1940.11 243.92,-1934.11 251,-1935.5 247,-1941.5 239.92,-1940.11"/>
</g>
<!-- x13&#45;&gt;c43 -->
<g id="edge14" class="edge">
<title>x13:e&#45;&gt;c43:w</title>
<path fill="none" stroke="black" d="M227.22,-1911.5C231.29,-1911.5 234.73,-1911.5 238.81,-1911.5"/>
<polygon fill="none" stroke="black" points="227,-1911.5 221,-1915.5 215,-1911.5 221,-1907.5 227,-1911.5"/>
<polygon fill="none" stroke="black" points="239,-1911.5 245,-1907.5 251,-1911.5 245,-1915.5 239,-1911.5"/>
</g>
<!-- c44 -->
<g id="node56" class="node">
<title>c44</title>
<polygon fill="none" stroke="black" points="251,-1821.5 251,-1867.5 437,-1867.5 437,-1821.5 251,-1821.5"/>
<text text-anchor="middle" x="264" y="-1852.3" font-family="Times,serif" font-size="14.00">a</text>
<polyline fill="none" stroke="black" points="251,-1844.5 277,-1844.5 "/>
<text text-anchor="middle" x="264" y="-1829.3" font-family="Times,serif" font-size="14.00">b</text>
<polyline fill="none" stroke="black" points="277,-1821.5 277,-1867.5 "/>
<text text-anchor="middle" x="337" y="-1848.3" font-family="Times,serif" font-size="14.00">not_15.nand_0</text>
<text text-anchor="middle" x="337" y="-1833.3" font-family="Times,serif" font-size="14.00">Nand</text>
<polyline fill="none" stroke="black" points="397,-1821.5 397,-1867.5 "/>
<text text-anchor="middle" x="417" y="-1840.8" font-family="Times,serif" font-size="14.00">out</text>
</g>
<!-- c44&#45;&gt;n17 -->
<g id="edge91" class="edge">
<title>c44:e&#45;&gt;n17:w</title>
<path fill="none" stroke="black" d="M437,-1844.5C526.8,-1844.5 390.96,-2231.4 463.14,-2261.63"/>
<polygon fill="black" stroke="black" points="462.52,-2265.08 473,-2263.5 463.83,-2258.2 462.52,-2265.08"/>
</g>
<!-- x14&#45;&gt;c44 -->
<g id="edge15" class="edge">
<title>x14:e&#45;&gt;c44:w</title>
<path fill="none" stroke="black" d="M227.22,-1856.5C231.29,-1856.5 234.73,-1856.5 238.81,-1856.5"/>
<polygon fill="none" stroke="black" points="227,-1856.5 221,-1860.5 215,-1856.5 221,-1852.5 227,-1856.5"/>
<polygon fill="none" stroke="black" points="239,-1856.5 245,-1852.5 251,-1856.5 245,-1860.5 239,-1856.5"/>
</g>
<!-- x15&#45;&gt;c44 -->
<g id="edge16" class="edge">
<title>x15:e&#45;&gt;c44:w</title>
<path fill="none" stroke="black" d="M226.31,-1806.07C231.95,-1811.87 233.93,-1821.81 239.48,-1827.7"/>
<polygon fill="none" stroke="black" points="226.12,-1806 219.06,-1807.46 215,-1801.5 222.06,-1800.04 226.12,-1806"/>
<polygon fill="none" stroke="black" points="239.92,-1827.89 247,-1826.5 251,-1832.5 243.92,-1833.89 239.92,-1827.89"/>
</g>
<!-- c45 -->
<g id="node59" class="node">
<title>c45</title>
<polygon fill="none" stroke="black" points="255.5,-1491.5 255.5,-1537.5 432.5,-1537.5 432.5,-1491.5 255.5,-1491.5"/>
<text text-anchor="middle" x="268.5" y="-1522.3" font-family="Times,serif" font-size="14.00">a</text>
<polyline fill="none" stroke="black" points="255.5,-1514.5 281.5,-1514.5 "/>
<text text-anchor="middle" x="268.5" y="-1499.3" font-family="Times,serif" font-size="14.00">b</text>
<polyline fill="none" stroke="black" points="281.5,-1491.5 281.5,-1537.5 "/>
<text text-anchor="middle" x="337" y="-1518.3" font-family="Times,serif" font-size="14.00">not_2.nand_0</text>
<text text-anchor="middle" x="337" y="-1503.3" font-family="Times,serif" font-size="14.00">Nand</text>
<polyline fill="none" stroke="black" points="392.5,-1491.5 392.5,-1537.5 "/>
<text text-anchor="middle" x="412.5" y="-1510.8" font-family="Times,serif" font-size="14.00">out</text>
</g>
<!-- c45&#45;&gt;n19 -->
<g id="edge94" class="edge">
<title>c45:e&#45;&gt;n19:w</title>
<path fill="none" stroke="black" d="M434,-1514.5C455.19,-1514.5 455.89,-1537.28 470.68,-1544.4"/>
<polygon fill="black" stroke="black" points="470.05,-1547.85 480.56,-1546.5 471.51,-1541 470.05,-1547.85"/>
</g>
<!-- x16&#45;&gt;c45 -->
<g id="edge17" class="edge">
<title>x16:e&#45;&gt;c45:w</title>
<path fill="none" stroke="black" d="M223.77,-1526.5C230.33,-1526.5 235.26,-1526.5 241.84,-1526.5"/>
<polygon fill="none" stroke="black" points="223.5,-1526.5 217.5,-1530.5 211.5,-1526.5 217.5,-1522.5 223.5,-1526.5"/>
<polygon fill="none" stroke="black" points="242,-1526.5 248,-1522.5 254,-1526.5 248,-1530.5 242,-1526.5"/>
</g>
<!-- x17&#45;&gt;c45 -->
<g id="edge18" class="edge">
<title>x17:e&#45;&gt;c45:w</title>
<path fill="none" stroke="black" d="M223.12,-1475.06C231.34,-1481.04 234.19,-1493.03 242.43,-1498.99"/>
<polygon fill="none" stroke="black" points="222.98,-1475.01 216.07,-1477.08 211.5,-1471.5 218.41,-1469.43 222.98,-1475.01"/>
<polygon fill="none" stroke="black" points="242.52,-1499.01 249.42,-1496.93 254,-1502.5 247.1,-1504.58 242.52,-1499.01"/>
</g>
<!-- c46 -->
<g id="node62" class="node">
<title>c46</title>
<polygon fill="none" stroke="black" points="255.5,-1381.5 255.5,-1427.5 432.5,-1427.5 432.5,-1381.5 255.5,-1381.5"/>
<text text-anchor="middle" x="268.5" y="-1412.3" font-family="Times,serif" font-size="14.00">a</text>
<polyline fill="none" stroke="black" points="255.5,-1404.5 281.5,-1404.5 "/>
<text text-anchor="middle" x="268.5" y="-1389.3" font-family="Times,serif" font-size="14.00">b</text>
<polyline fill="none" stroke="black" points="281.5,-1381.5 281.5,-1427.5 "/>
<text text-anchor="middle" x="337" y="-1408.3" font-family="Times,serif" font-size="14.00">not_3.nand_0</text>
<text text-anchor="middle" x="337" y="-1393.3" font-family="Times,serif" font-size="14.00">Nand</text>
<polyline fill="none" stroke="black" points="392.5,-1381.5 392.5,-1427.5 "/>
<text text-anchor="middle" x="412.5" y="-1400.8" font-family="Times,serif" font-size="14.00">out</text>
</g>
<!-- c46&#45;&gt;n21 -->
<g id="edge98" class="edge">
<title>c46:e&#45;&gt;n21:w</title>
<path fill="none" stroke="black" d="M434,-1404.5C458.47,-1404.5 454.24,-1437 470.64,-1446.13"/>
<polygon fill="black" stroke="black" points="470.02,-1449.59 480.56,-1448.5 471.65,-1442.78 470.02,-1449.59"/>
</g>
<!-- x18&#45;&gt;c46 -->
<g id="edge19" class="edge">
<title>x18:e&#45;&gt;c46:w</title>
<path fill="none" stroke="black" d="M223.77,-1416.5C230.33,-1416.5 235.26,-1416.5 241.84,-1416.5"/>
<polygon fill="none" stroke="black" points="223.5,-1416.5 217.5,-1420.5 211.5,-1416.5 217.5,-1412.5 223.5,-1416.5"/>
<polygon fill="none" stroke="black" points="242,-1416.5 248,-1412.5 254,-1416.5 248,-1420.5 242,-1416.5"/>
</g>
<!-- x19&#45;&gt;c46 -->
<g id="edge20" class="edge">
<title>x19:e&#45;&gt;c46:w</title>
<path fill="none" stroke="black" d="M223.12,-1365.06C231.34,-1371.04 234.19,-1383.03 242.43,-1388.99"/>
<polygon fill="none" stroke="black" points="222.98,-1365.01 216.07,-1367.08 211.5,-1361.5 218.41,-1359.43 222.98,-1365.01"/>
<polygon fill="none" stroke="black" points="242.52,-1389.01 249.42,-1386.93 254,-1392.5 247.1,-1394.58 242.52,-1389.01"/>
</g>
<!-- c47 -->
<g id="node65" class="node">
<title>c47</title>
<polygon fill="none" stroke="black" points="255.5,-1271.5 255.5,-1317.5 432.5,-1317.5 432.5,-1271.5 255.5,-1271.5"/>
<text text-anchor="middle" x="268.5" y="-1302.3" font-family="Times,serif" font-size="14.00">a</text>
<polyline fill="none" stroke="black" points="255.5,-1294.5 281.5,-1294.5 "/>
<text text-anchor="middle" x="268.5" y="-1279.3" font-family="Times,serif" font-size="14.00">b</text>
<polyline fill="none" stroke="black" points="281.5,-1271.5 281.5,-1317.5 "/>
<text text-anchor="middle" x="337" y="-1298.3" font-family="Times,serif" font-size="14.00">not_4.nand_0</text>
<text text-anchor="middle" x="337" y="-1283.3" font-family="Times,serif" font-size="14.00">Nand</text>
<polyline fill="none" stroke="black" points="392.5,-1271.5 392.5,-1317.5 "/>
<text text-anchor="middle" x="412.5" y="-1290.8" font-family="Times,serif" font-size="14.00">out</text>
</g>
<!-- c47&#45;&gt;n23 -->
<g id="edge101" class="edge">
<title>c47:e&#45;&gt;n23:w</title>
<path fill="none" stroke="black" d="M434,-1294.5C460.33,-1294.5 453.17,-1332.1 470.61,-1342.09"/>
<polygon fill="black" stroke="black" points="470.02,-1345.55 480.56,-1344.5 471.67,-1338.74 470.02,-1345.55"/>
</g>
<!-- x20&#45;&gt;c47 -->
<g id="edge21" class="edge">
<title>x20:e&#45;&gt;c47:w</title>
<path fill="none" stroke="black" d="M223.77,-1306.5C230.33,-1306.5 235.26,-1306.5 241.84,-1306.5"/>
<polygon fill="none" stroke="black" points="223.5,-1306.5 217.5,-1310.5 211.5,-1306.5 217.5,-1302.5 223.5,-1306.5"/>
<polygon fill="none" stroke="black" points="242,-1306.5 248,-1302.5 254,-1306.5 248,-1310.5 242,-1306.5"/>
</g>
<!-- x21&#45;&gt;c47 -->
<g id="edge22" class="edge">
<title>x21:e&#45;&gt;c47:w</title>
<path fill="none" stroke="black" d="M223.12,-1255.06C231.34,-1261.04 234.19,-1273.03 242.43,-1278.99"/>
<polygon fill="none" stroke="black" points="222.98,-1255.01 216.07,-1257.08 211.5,-1251.5 218.41,-1249.43 222.98,-1255.01"/>
<polygon fill="none" stroke="black" points="242.52,-1279.01 249.42,-1276.93 254,-1282.5 247.1,-1284.58 242.52,-1279.01"/>
</g>
<!-- c48 -->
<g id="node68" class="node">
<title>c48</title>
<polygon fill="none" stroke="black" points="255.5,-1161.5 255.5,-1207.5 432.5,-1207.5 432.5,-1161.5 255.5,-1161.5"/>
<text text-anchor="middle" x="268.5" y="-1192.3" font-family="Times,serif" font-size="14.00">a</text>
<polyline fill="none" stroke="black" points="255.5,-1184.5 281.5,-1184.5 "/>
<text text-anchor="middle" x="268.5" y="-1169.3" font-family="Times,serif" font-size="14.00">b</text>
<polyline fill="none" stroke="black" points="281.5,-1161.5 281.5,-1207.5 "/>
<text text-anchor="middle" x="337" y="-1188.3" font-family="Times,serif" font-size="14.00">not_5.nand_0</text>
<text text-anchor="middle" x="337" y="-1173.3" font-family="Times,serif" font-size="14.00">Nand</text>
<polyline fill="none" stroke="black" points="392.5,-1161.5 392.5,-1207.5 "/>
<text text-anchor="middle" x="412.5" y="-1180.8" font-family="Times,serif" font-size="14.00">out</text>
</g>
<!-- c48&#45;&gt;n25 -->
<g id="edge104" class="edge">
<title>c48:e&#45;&gt;n25:w</title>
<path fill="none" stroke="black" d="M434,-1184.5C461.19,-1184.5 452.66,-1224.36 470.36,-1234.94"/>
<polygon fill="black" stroke="black" points="470.01,-1238.46 480.56,-1237.5 471.71,-1231.67 470.01,-1238.46"/>
</g>
<!-- x22&#45;&gt;c48 -->
<g id="edge23" class="edge">
<title>x22:e&#45;&gt;c48:w</title>
<path fill="none" stroke="black" d="M223.77,-1196.5C230.33,-1196.5 235.26,-1196.5 241.84,-1196.5"/>
<polygon fill="none" stroke="black" points="223.5,-1196.5 217.5,-1200.5 211.5,-1196.5 217.5,-1192.5 223.5,-1196.5"/>
<polygon fill="none" stroke="black" points="242,-1196.5 248,-1192.5 254,-1196.5 248,-1200.5 242,-1196.5"/>
</g>
<!-- x23&#45;&gt;c48 -->
<g id="edge24" class="edge">
<title>x23:e&#45;&gt;c48:w</title>
<path fill="none" stroke="black" d="M223.12,-1145.06C231.34,-1151.04 234.19,-1163.03 242.43,-1168.99"/>
<polygon fill="none" stroke="black" points="222.98,-1145.01 216.07,-1147.08 211.5,-1141.5 218.41,-1139.43 222.98,-1145.01"/>
<polygon fill="none" stroke="black" points="242.52,-1169.01 249.42,-1166.93 254,-1172.5 247.1,-1174.58 242.52,-1169.01"/>
</g>
<!-- c49 -->
<g id="node71" class="node">
<title>c49</title>
<polygon fill="none" stroke="black" points="255.5,-1051.5 255.5,-1097.5 432.5,-1097.5 432.5,-1051.5 255.5,-1051.5"/>
<text text-anchor="middle" x="268.5" y="-1082.3" font-family="Times,serif" font-size="14.00">a</text>
<polyline fill="none" stroke="black" points="255.5,-1074.5 281.5,-1074.5 "/>
<text text-anchor="middle" x="268.5" y="-1059.3" font-family="Times,serif" font-size="14.00">b</text>
<polyline fill="none" stroke="black" points="281.5,-1051.5 281.5,-1097.5 "/>
<text text-anchor="middle" x="337" y="-1078.3" font-family="Times,serif" font-size="14.00">not_6.nand_0</text>
<text text-anchor="middle" x="337" y="-1063.3" font-family="Times,serif" font-size="14.00">Nand</text>
<polyline fill="none" stroke="black" points="392.5,-1051.5 392.5,-1097.5 "/>
<text text-anchor="middle" x="412.5" y="-1070.8" font-family="Times,serif" font-size="14.00">out</text>
</g>
<!-- c49&#45;&gt;n27 -->
<g id="edge107" class="edge">
<title>c49:e&#45;&gt;n27:w</title>
<path fill="none" stroke="black" d="M434,-1074.5C471.47,-1074.5 445.42,-1140.45 470.48,-1153.33"/>
<polygon fill="black" stroke="black" points="470.05,-1156.82 480.56,-1155.5 471.52,-1149.98 470.05,-1156.82"/>
</g>
<!-- x24&#45;&gt;c49 -->
<g id="edge25" class="edge">
<title>x24:e&#45;&gt;c49:w</title>
<path fill="none" stroke="black" d="M223.77,-1086.5C230.33,-1086.5 235.26,-1086.5 241.84,-1086.5"/>
<polygon fill="none" stroke="black" points="223.5,-1086.5 217.5,-1090.5 211.5,-1086.5 217.5,-1082.5 223.5,-1086.5"/>
<polygon fill="none" stroke="black" points="242,-1086.5 248,-1082.5 254,-1086.5 248,-1090.5 242,-1086.5"/>
</g>
<!-- x25&#45;&gt;c49 -->
<g id="edge26" class="edge">
<title>x25:e&#45;&gt;c49:w</title>
<path fill="none" stroke="black" d="M223.12,-1035.06C231.34,-1041.04 234.19,-1053.03 242.43,-1058.99"/>
<polygon fill="none" stroke="black" points="222.98,-1035.01 216.07,-1037.08 211.5,-1031.5 218.41,-1029.43 222.98,-1035.01"/>
<polygon fill="none" stroke="black" points="242.52,-1059.01 249.42,-1056.93 254,-1062.5 247.1,-1064.58 242.52,-1059.01"/>
</g>
<!-- c50 -->
<g id="node74" class="node">
<title>c50</title>
<polygon fill="none" stroke="black" points="255.5,-941.5 255.5,-987.5 432.5,-987.5 432.5,-941.5 255.5,-941.5"/>
<text text-anchor="middle" x="268.5" y="-972.3" font-family="Times,serif" font-size="14.00">a</text>
<polyline fill="none" stroke="black" points="255.5,-964.5 281.5,-964.5 "/>
<text text-anchor="middle" x="268.5" y="-949.3" font-family="Times,serif" font-size="14.00">b</text>
<polyline fill="none" stroke="black" points="281.5,-941.5 281.5,-987.5 "/>
<text text-anchor="middle" x="337" y="-968.3" font-family="Times,serif" font-size="14.00">not_7.nand_0</text>
<text text-anchor="middle" x="337" y="-953.3" font-family="Times,serif" font-size="14.00">Nand</text>
<polyline fill="none" stroke="black" points="392.5,-941.5 392.5,-987.5 "/>
<text text-anchor="middle" x="412.5" y="-960.8" font-family="Times,serif" font-size="14.00">out</text>
</g>
<!-- c50&#45;&gt;n29 -->
<g id="edge110" class="edge">
<title>c50:e&#45;&gt;n29:w</title>
<path fill="none" stroke="black" d="M434,-964.5C520.2,-964.5 400.9,-1708.76 471.04,-1766.91"/>
<polygon fill="black" stroke="black" points="469.97,-1770.24 480.56,-1770.5 472.44,-1763.69 469.97,-1770.24"/>
</g>
<!-- x26&#45;&gt;c50 -->
<g id="edge27" class="edge">
<title>x26:e&#45;&gt;c50:w</title>
<path fill="none" stroke="black" d="M223.77,-976.5C230.33,-976.5 235.26,-976.5 241.84,-976.5"/>
<polygon fill="none" stroke="black" points="223.5,-976.5 217.5,-980.5 211.5,-976.5 217.5,-972.5 223.5,-976.5"/>
<polygon fill="none" stroke="black" points="242,-976.5 248,-972.5 254,-976.5 248,-980.5 242,-976.5"/>
</g>
<!-- x27&#45;&gt;c50 -->
<g id="edge28" class="edge">
<title>x27:e&#45;&gt;c50:w</title>
<path fill="none" stroke="black" d="M223.12,-925.06C231.34,-931.04 234.19,-943.03 242.43,-948.99"/>
<polygon fill="none" stroke="black" points="222.98,-925.01 216.07,-927.08 211.5,-921.5 218.41,-919.43 222.98,-925.01"/>
<polygon fill="none" stroke="black" points="242.52,-949.01 249.42,-946.93 254,-952.5 247.1,-954.58 242.52,-949.01"/>
</g>
<!-- c51 -->
<g id="node77" class="node">
<title>c51</title>
<polygon fill="none" stroke="black" points="255.5,-2560.5 255.5,-2606.5 432.5,-2606.5 432.5,-2560.5 255.5,-2560.5"/>
<text text-anchor="middle" x="268.5" y="-2591.3" font-family="Times,serif" font-size="14.00">a</text>
<polyline fill="none" stroke="black" points="255.5,-2583.5 281.5,-2583.5 "/>
<text text-anchor="middle" x="268.5" y="-2568.3" font-family="Times,serif" font-size="14.00">b</text>
<polyline fill="none" stroke="black" points="281.5,-2560.5 281.5,-2606.5 "/>
<text text-anchor="middle" x="337" y="-2587.3" font-family="Times,serif" font-size="14.00">not_8.nand_0</text>
<text text-anchor="middle" x="337" y="-2572.3" font-family="Times,serif" font-size="14.00">Nand</text>
<polyline fill="none" stroke="black" points="392.5,-2560.5 392.5,-2606.5 "/>
<text text-anchor="middle" x="412.5" y="-2579.8" font-family="Times,serif" font-size="14.00">out</text>
</g>
<!-- c51&#45;&gt;n31 -->
<g id="edge115" class="edge">
<title>c51:e&#45;&gt;n31:w</title>
<path fill="none" stroke="black" d="M434,-2583.5C513.99,-2583.5 407.26,-2242.35 470.48,-2211.7"/>
<polygon fill="black" stroke="black" points="471.54,-2215.05 480.56,-2209.5 470.05,-2208.21 471.54,-2215.05"/>
</g>
<!-- x28&#45;&gt;c51 -->
<g id="edge29" class="edge">
<title>x28:e&#45;&gt;c51:w</title>
<path fill="none" stroke="black" d="M223.12,-2622.94C231.34,-2616.96 234.19,-2604.97 242.43,-2599.01"/>
<polygon fill="none" stroke="black" points="222.98,-2622.99 218.41,-2628.57 211.5,-2626.5 216.07,-2620.92 222.98,-2622.99"/>
<polygon fill="none" stroke="black" points="242.52,-2598.99 247.1,-2593.42 254,-2595.5 249.42,-2601.07 242.52,-2598.99"/>
</g>
<!-- x29&#45;&gt;c51 -->
<g id="edge30" class="edge">
<title>x29:e&#45;&gt;c51:w</title>
<path fill="none" stroke="black" d="M223.77,-2571.5C230.33,-2571.5 235.26,-2571.5 241.84,-2571.5"/>
<polygon fill="none" stroke="black" points="223.5,-2571.5 217.5,-2575.5 211.5,-2571.5 217.5,-2567.5 223.5,-2571.5"/>
<polygon fill="none" stroke="black" points="242,-2571.5 248,-2567.5 254,-2571.5 248,-2575.5 242,-2571.5"/>
</g>
<!-- c52 -->
<g id="node80" class="node">
<title>c52</title>
<polygon fill="none" stroke="black" points="255.5,-2450.5 255.5,-2496.5 432.5,-2496.5 432.5,-2450.5 255.5,-2450.5"/>
<text text-anchor="middle" x="268.5" y="-2481.3" font-family="Times,serif" font-size="14.00">a</text>
<polyline fill="none" stroke="black" points="255.5,-2473.5 281.5,-2473.5 "/>
<text text-anchor="middle" x="268.5" y="-2458.3" font-family="Times,serif" font-size="14.00">b</text>
<polyline fill="none" stroke="black" points="281.5,-2450.5 281.5,-2496.5 "/>
<text text-anchor="middle" x="337" y="-2477.3" font-family="Times,serif" font-size="14.00">not_9.nand_0</text>
<text text-anchor="middle" x="337" y="-2462.3" font-family="Times,serif" font-size="14.00">Nand</text>
<polyline fill="none" stroke="black" points="392.5,-2450.5 392.5,-2496.5 "/>
<text text-anchor="middle" x="412.5" y="-2469.8" font-family="Times,serif" font-size="14.00">out</text>
</g>
<!-- c52&#45;&gt;n33 -->
<g id="edge118" class="edge">
<title>c52:e&#45;&gt;n33:w</title>
<path fill="none" stroke="black" d="M434,-2473.5C501.65,-2473.5 418.83,-2188.15 470.61,-2158.06"/>
<polygon fill="black" stroke="black" points="471.75,-2161.38 480.56,-2155.5 470.01,-2154.6 471.75,-2161.38"/>
</g>
<!-- x30&#45;&gt;c52 -->
<g id="edge31" class="edge">
<title>x30:e&#45;&gt;c52:w</title>
<path fill="none" stroke="black" d="M223.12,-2512.94C231.34,-2506.96 234.19,-2494.97 242.43,-2489.01"/>
<polygon fill="none" stroke="black" points="222.98,-2512.99 218.41,-2518.57 211.5,-2516.5 216.07,-2510.92 222.98,-2512.99"/>
<polygon fill="none" stroke="black" points="242.52,-2488.99 247.1,-2483.42 254,-2485.5 249.42,-2491.07 242.52,-2488.99"/>
</g>
<!-- x31&#45;&gt;c52 -->
<g id="edge32" class="edge">
<title>x31:e&#45;&gt;c52:w</title>
<path fill="none" stroke="black" d="M223.77,-2461.5C230.33,-2461.5 235.26,-2461.5 241.84,-2461.5"/>
<polygon fill="none" stroke="black" points="223.5,-2461.5 217.5,-2465.5 211.5,-2461.5 217.5,-2457.5 223.5,-2461.5"/>
<polygon fill="none" stroke="black" points="242,-2461.5 248,-2457.5 254,-2461.5 248,-2465.5 242,-2461.5"/>
</g>
<!-- x32&#45;&gt;n2 -->
<g id="edge96" class="edge">
<title>x32:e&#45;&gt;n2:w</title>
<path fill="none" stroke="black" d="M211.5,-866.5C235.97,-866.5 244.53,-866.5 264.78,-866.5"/>
<polygon fill="black" stroke="black" points="265,-870 275,-866.5 265,-863 265,-870"/>
</g>
<!-- x33&#45;&gt;n4 -->
<g id="edge121" class="edge">
<title>x33:e&#45;&gt;n4:w</title>
<path fill="none" stroke="black" d="M211.5,-811.5C235.97,-811.5 244.53,-811.5 264.78,-811.5"/>
<polygon fill="black" stroke="black" points="265,-815 275,-811.5 265,-808 265,-815"/>
</g>
<!-- x34&#45;&gt;n6 -->
<g id="edge124" class="edge">
<title>x34:e&#45;&gt;n6:w</title>
<path fill="none" stroke="black" d="M215,-756.5C234.32,-756.5 241.53,-756.5 256.87,-756.5"/>
<polygon fill="black" stroke="black" points="257,-760 267,-756.5 257,-753 257,-760"/>
</g>
<!-- x35&#45;&gt;n8 -->
<g id="edge127" class="edge">
<title>x35:e&#45;&gt;n8:w</title>
<path fill="none" stroke="black" d="M215,-701.5C234.32,-701.5 241.53,-701.5 256.87,-701.5"/>
<polygon fill="black" stroke="black" points="257,-705 267,-701.5 257,-698 257,-705"/>
</g>
<!-- x36&#45;&gt;n10 -->
<g id="edge81" class="edge">
<title>x36:e&#45;&gt;n10:w</title>
<path fill="none" stroke="black" d="M215,-646.5C234.32,-646.5 241.53,-646.5 256.87,-646.5"/>
<polygon fill="black" stroke="black" points="257,-650 267,-646.5 257,-643 257,-650"/>
</g>
<!-- x37&#45;&gt;n12 -->
<g id="edge84" class="edge">
<title>x37:e&#45;&gt;n12:w</title>
<path fill="none" stroke="black" d="M215,-591.5C234.32,-591.5 241.53,-591.5 256.87,-591.5"/>
<polygon fill="black" stroke="black" points="257,-595 267,-591.5 257,-588 257,-595"/>
</g>
<!-- x38&#45;&gt;n14 -->
<g id="edge87" class="edge">
<title>x38:e&#45;&gt;n14:w</title>
<path fill="none" stroke="black" d="M215,-536.5C234.32,-536.5 241.53,-536.5 256.87,-536.5"/>
<polygon fill="black" stroke="black" points="257,-540 267,-536.5 257,-533 257,-540"/>
</g>
<!-- x39&#45;&gt;n16 -->
<g id="edge90" class="edge">
<title>x39:e&#45;&gt;n16:w</title>
<path fill="none" stroke="black" d="M215,-481.5C234.32,-481.5 241.53,-481.5 256.87,-481.5"/>
<polygon fill="black" stroke="black" points="257,-485 267,-481.5 257,-478 257,-485"/>
</g>
<!-- x40&#45;&gt;n18 -->
<g id="edge93" class="edge">
<title>x40:e&#45;&gt;n18:w</title>
<path fill="none" stroke="black" d="M211.5,-426.5C235.97,-426.5 244.53,-426.5 264.78,-426.5"/>
<polygon fill="black" stroke="black" points="265,-430 275,-426.5 265,-423 265,-430"/>
</g>
<!-- x41&#45;&gt;n20 -->
<g id="edge97" class="edge">
<title>x41:e&#45;&gt;n20:w</title>
<path fill="none" stroke="black" d="M211.5,-371.5C235.97,-371.5 244.53,-371.5 264.78,-371.5"/>
<polygon fill="black" stroke="black" points="265,-375 275,-371.5 265,-368 265,-375"/>
</g>
<!-- x42&#45;&gt;n22 -->
<g id="edge100" class="edge">
<title>x42:e&#45;&gt;n22:w</title>
<path fill="none" stroke="black" d="M211.5,-316.5C235.97,-316.5 244.53,-316.5 264.78,-316.5"/>
<polygon fill="black" stroke="black" points="265,-320 275,-316.5 265,-313 265,-320"/>
</g>
<!-- x43&#45;&gt;n24 -->
<g id="edge103" class="edge">
<title>x43:e&#45;&gt;n24:w</title>
<path fill="none" stroke="black" d="M211.5,-261.5C235.97,-261.5 244.53,-261.5 264.78,-261.5"/>
<polygon fill="black" stroke="black" points="265,-265 275,-261.5 265,-258 265,-265"/>
</g>
<!-- x44&#45;&gt;n26 -->
<g id="edge106" class="edge">
<title>x44:e&#45;&gt;n26:w</title>
<path fill="none" stroke="black" d="M211.5,-206.5C235.97,-206.5 244.53,-206.5 264.78,-206.5"/>
<polygon fill="black" stroke="black" points="265,-210 275,-206.5 265,-203 265,-210"/>
</g>
<!-- x45&#45;&gt;n28 -->
<g id="edge109" class="edge">
<title>x45:e&#45;&gt;n28:w</title>
<path fill="none" stroke="black" d="M211.5,-151.5C235.97,-151.5 244.53,-151.5 264.78,-151.5"/>
<polygon fill="black" stroke="black" points="265,-155 275,-151.5 265,-148 265,-155"/>
</g>
<!-- x46&#45;&gt;n30 -->
<g id="edge114" class="edge">
<title>x46:e&#45;&gt;n30:w</title>
<path fill="none" stroke="black" d="M211.5,-96.5C235.97,-96.5 244.53,-96.5 264.78,-96.5"/>
<polygon fill="black" stroke="black" points="265,-100 275,-96.5 265,-93 265,-100"/>
</g>
<!-- x47&#45;&gt;n32 -->
<g id="edge117" class="edge">
<title>x47:e&#45;&gt;n32:w</title>
<path fill="none" stroke="black" d="M211.5,-41.5C235.97,-41.5 244.53,-41.5 264.78,-41.5"/>
<polygon fill="black" stroke="black" points="265,-45 275,-41.5 265,-38 265,-45"/>
</g>
<!-- x48&#45;&gt;n34 -->
<g id="edge120" class="edge">
<title>x48:e&#45;&gt;n34:w</title>
<path fill="none" stroke="black" stroke-width="3" d="M803.12,-1802.5C815.12,-1802.5 820.37,-1802.5 829,-1802.5"/>
<polygon fill="black" stroke="black" stroke-width="3" points="829.12,-1806 839.12,-1802.5 829.12,-1799 829.12,-1806"/>
</g>
</g>
</svg>
