<?xml version="1.0" encoding="UTF-8" standalone="no"?>
<!DOCTYPE svg PUBLIC "-//W3C//DTD SVG 1.1//EN"
 "http://www.w3.org/Graphics/SVG/1.1/DTD/svg11.dtd">
<!-- Generated by graphviz version 2.43.0 (0)
 -->
<!-- Title: Nand Pages: 1 -->
<svg width="432pt" height="121pt"
 viewBox="0.00 0.00 432.28 121.00" xmlns="http://www.w3.org/2000/svg" xmlns:xlink="http://www.w3.org/1999/xlink">
<g id="graph0" class="graph" transform="scale(1 1) rotate(0) translate(4 117)">
<title>Nand</title>
<polygon fill="white" stroke="transparent" points="-4,4 -4,-117 428.28,-117 428.28,4 -4,4"/>
<text text-anchor="middle" x="212.14" y="-7.8" font-family="Times,serif" font-size="14.00">Nand</text>
<!-- n2 -->
<g id="node1" class="node">
<title>n2</title>
<polygon fill="none" stroke="black" points="54,-87.54 54,-102.46 38.18,-113 15.82,-113 0,-102.46 0,-87.54 15.82,-77 38.18,-77 54,-87.54"/>
<text text-anchor="middle" x="27" y="-91.3" font-family="Times,serif" font-size="14.00">a</text>
</g>
<!-- c8 -->
<g id="node4" class="node">
<title>c8</title>
<polygon fill="none" stroke="black" points="90,-45 90,-91 195,-91 195,-45 90,-45"/>
<text text-anchor="middle" x="103.5" y="-75.8" font-family="Times,serif" font-size="14.00">A</text>
<polyline fill="none" stroke="black" points="90,-68 117,-68 "/>
<text text-anchor="middle" x="103.5" y="-52.8" font-family="Times,serif" font-size="14.00">B</text>
<polyline fill="none" stroke="black" points="117,-45 117,-91 "/>
<text text-anchor="middle" x="143" y="-71.8" font-family="Times,serif" font-size="14.00">$1</text>
<text text-anchor="middle" x="143" y="-56.8" font-family="Times,serif" font-size="14.00">$and</text>
<polyline fill="none" stroke="black" points="169,-45 169,-91 "/>
<text text-anchor="middle" x="182" y="-64.3" font-family="Times,serif" font-size="14.00">Y</text>
</g>
<!-- n2&#45;&gt;c8 -->
<g id="edge2" class="edge">
<title>n2:e&#45;&gt;c8:w</title>
<path fill="none" stroke="black" d="M54,-95C67.27,-95 71.16,-86.21 80.04,-82.09"/>
<polygon fill="black" stroke="black" points="80.93,-85.47 90,-80 79.49,-78.62 80.93,-85.47"/>
</g>
<!-- n3 -->
<g id="node2" class="node">
<title>n3</title>
<polygon fill="none" stroke="black" points="54,-33.54 54,-48.46 38.18,-59 15.82,-59 0,-48.46 0,-33.54 15.82,-23 38.18,-23 54,-33.54"/>
<text text-anchor="middle" x="27" y="-37.3" font-family="Times,serif" font-size="14.00">b</text>
</g>
<!-- n3&#45;&gt;c8 -->
<g id="edge3" class="edge">
<title>n3:e&#45;&gt;c8:w</title>
<path fill="none" stroke="black" d="M54,-41C67.27,-41 71.16,-49.79 80.04,-53.91"/>
<polygon fill="black" stroke="black" points="79.49,-57.38 90,-56 80.93,-50.53 79.49,-57.38"/>
</g>
<!-- n4 -->
<g id="node3" class="node">
<title>n4</title>
<polygon fill="none" stroke="black" points="424.42,-60.54 424.42,-75.46 407.85,-86 384.43,-86 367.86,-75.46 367.86,-60.54 384.43,-50 407.85,-50 424.42,-60.54"/>
<text text-anchor="middle" x="396.14" y="-64.3" font-family="Times,serif" font-size="14.00">out</text>
</g>
<!-- c9 -->
<g id="node5" class="node">
<title>c9</title>
<polygon fill="none" stroke="black" points="231,-49 231,-87 332,-87 332,-49 231,-49"/>
<text text-anchor="middle" x="244" y="-64.3" font-family="Times,serif" font-size="14.00">A</text>
<polyline fill="none" stroke="black" points="257,-49 257,-87 "/>
<text text-anchor="middle" x="281.5" y="-71.8" font-family="Times,serif" font-size="14.00">$2</text>
<text text-anchor="middle" x="281.5" y="-56.8" font-family="Times,serif" font-size="14.00">$not</text>
<polyline fill="none" stroke="black" points="306,-49 306,-87 "/>
<text text-anchor="middle" x="319" y="-64.3" font-family="Times,serif" font-size="14.00">Y</text>
</g>
<!-- c8&#45;&gt;c9 -->
<g id="edge1" class="edge">
<title>c8:e&#45;&gt;c9:w</title>
<path fill="none" stroke="black" d="M195,-68C207,-68 212.25,-68 220.88,-68"/>
<polygon fill="black" stroke="black" points="221,-71.5 231,-68 221,-64.5 221,-71.5"/>
</g>
<!-- c9&#45;&gt;n4 -->
<g id="edge4" class="edge">
<title>c9:e&#45;&gt;n4:w</title>
<path fill="none" stroke="black" d="M332,-68C344,-68 349.25,-68 357.88,-68"/>
<polygon fill="black" stroke="black" points="358,-71.5 368,-68 358,-64.5 358,-71.5"/>
</g>
</g>
</svg>
