<?xml version="1.0" encoding="UTF-8" standalone="no"?>
<!DOCTYPE svg PUBLIC "-//W3C//DTD SVG 1.1//EN"
 "http://www.w3.org/Graphics/SVG/1.1/DTD/svg11.dtd">
<!-- Generated by graphviz version 2.43.0 (0)
 -->
<!-- Title: Bit Pages: 1 -->
<svg width="1702pt" height="340pt"
 viewBox="0.00 0.00 1702.36 340.00" xmlns="http://www.w3.org/2000/svg" xmlns:xlink="http://www.w3.org/1999/xlink">
<g id="graph0" class="graph" transform="scale(1 1) rotate(0) translate(4 336)">
<title>Bit</title>
<polygon fill="white" stroke="transparent" points="-4,4 -4,-336 1698.36,-336 1698.36,4 -4,4"/>
<text text-anchor="middle" x="847.18" y="-7.8" font-family="Times,serif" font-size="14.00">Bit</text>
<!-- n1 -->
<g id="node1" class="node">
<title>n1</title>
<polygon fill="none" stroke="black" points="869.21,-154 776.54,-136 869.21,-118 961.88,-136 869.21,-154"/>
<text text-anchor="middle" x="869.21" y="-132.3" font-family="Times,serif" font-size="14.00">_1_out_wire</text>
</g>
<!-- n2 -->
<g id="node2" class="node">
<title>n2</title>
<polygon fill="none" stroke="black" points="60.06,-57.54 60.06,-72.46 44.25,-83 21.88,-83 6.06,-72.46 6.06,-57.54 21.88,-47 44.25,-47 60.06,-57.54"/>
<text text-anchor="middle" x="33.06" y="-61.3" font-family="Times,serif" font-size="14.00">in</text>
</g>
<!-- c18 -->
<g id="node16" class="node">
<title>c18</title>
<polygon fill="none" stroke="black" points="102.63,-78 102.63,-124 278.63,-124 278.63,-78 102.63,-78"/>
<text text-anchor="middle" x="115.63" y="-108.8" font-family="Times,serif" font-size="14.00">a</text>
<polyline fill="none" stroke="black" points="102.63,-101 128.63,-101 "/>
<text text-anchor="middle" x="115.63" y="-85.8" font-family="Times,serif" font-size="14.00">b</text>
<polyline fill="none" stroke="black" points="128.63,-78 128.63,-124 "/>
<text text-anchor="middle" x="183.63" y="-104.8" font-family="Times,serif" font-size="14.00">mux_0.and_2</text>
<text text-anchor="middle" x="183.63" y="-89.8" font-family="Times,serif" font-size="14.00">And</text>
<polyline fill="none" stroke="black" points="238.63,-78 238.63,-124 "/>
<text text-anchor="middle" x="258.63" y="-97.3" font-family="Times,serif" font-size="14.00">out</text>
</g>
<!-- n2&#45;&gt;c18 -->
<g id="edge8" class="edge">
<title>n2:e&#45;&gt;c18:w</title>
<path fill="none" stroke="black" d="M61.06,-65C78.24,-65 80.66,-80.84 92.3,-86.79"/>
<polygon fill="black" stroke="black" points="91.6,-90.22 102.13,-89 93.14,-83.39 91.6,-90.22"/>
</g>
<!-- x1 -->
<g id="node20" class="node">
<title>x1</title>
<path fill="none" stroke="black" d="M205.63,-59C205.63,-59 175.63,-59 175.63,-59 169.63,-59 163.63,-53 163.63,-47 163.63,-47 163.63,-35 163.63,-35 163.63,-29 169.63,-23 175.63,-23 175.63,-23 205.63,-23 205.63,-23 211.63,-23 217.63,-29 217.63,-35 217.63,-35 217.63,-47 217.63,-47 217.63,-53 211.63,-59 205.63,-59"/>
<text text-anchor="middle" x="190.63" y="-37.3" font-family="Times,serif" font-size="14.00">BUF</text>
</g>
<!-- n2&#45;&gt;x1 -->
<g id="edge9" class="edge">
<title>n2:e&#45;&gt;x1:w</title>
<path fill="none" stroke="black" d="M61.06,-65C103.82,-65 114.64,-44.6 152.41,-41.42"/>
<polygon fill="black" stroke="black" points="152.78,-44.9 162.63,-41 152.49,-37.91 152.78,-44.9"/>
</g>
<!-- n3 -->
<g id="node3" class="node">
<title>n3</title>
<polygon fill="none" stroke="black" points="66.19,-238.54 66.19,-253.46 46.79,-264 19.34,-264 -0.06,-253.46 -0.06,-238.54 19.34,-228 46.79,-228 66.19,-238.54"/>
<text text-anchor="middle" x="33.06" y="-242.3" font-family="Times,serif" font-size="14.00">load</text>
</g>
<!-- n3&#45;&gt;c18 -->
<g id="edge10" class="edge">
<title>n3:e&#45;&gt;c18:w</title>
<path fill="none" stroke="black" d="M66.13,-246C123.3,-246 51.72,-130.08 91.8,-114.68"/>
<polygon fill="black" stroke="black" points="92.82,-118.06 102.13,-113 91.7,-111.15 92.82,-118.06"/>
</g>
<!-- c19 -->
<g id="node17" class="node">
<title>c19</title>
<polygon fill="none" stroke="black" points="102.13,-287 102.13,-325 279.13,-325 279.13,-287 102.13,-287"/>
<text text-anchor="middle" x="117.13" y="-302.3" font-family="Times,serif" font-size="14.00">in</text>
<polyline fill="none" stroke="black" points="132.13,-287 132.13,-325 "/>
<text text-anchor="middle" x="185.63" y="-309.8" font-family="Times,serif" font-size="14.00">mux_0.not_0</text>
<text text-anchor="middle" x="185.63" y="-294.8" font-family="Times,serif" font-size="14.00">Not</text>
<polyline fill="none" stroke="black" points="239.13,-287 239.13,-325 "/>
<text text-anchor="middle" x="259.13" y="-302.3" font-family="Times,serif" font-size="14.00">out</text>
</g>
<!-- n3&#45;&gt;c19 -->
<g id="edge11" class="edge">
<title>n3:e&#45;&gt;c19:w</title>
<path fill="none" stroke="black" d="M66.13,-246C93.1,-246 76.98,-291.12 92.5,-303.11"/>
<polygon fill="black" stroke="black" points="91.54,-306.47 102.13,-306 93.56,-299.77 91.54,-306.47"/>
</g>
<!-- x0 -->
<g id="node19" class="node">
<title>x0</title>
<path fill="none" stroke="black" d="M205.63,-264C205.63,-264 175.63,-264 175.63,-264 169.63,-264 163.63,-258 163.63,-252 163.63,-252 163.63,-240 163.63,-240 163.63,-234 169.63,-228 175.63,-228 175.63,-228 205.63,-228 205.63,-228 211.63,-228 217.63,-234 217.63,-240 217.63,-240 217.63,-252 217.63,-252 217.63,-258 211.63,-264 205.63,-264"/>
<text text-anchor="middle" x="190.63" y="-242.3" font-family="Times,serif" font-size="14.00">BUF</text>
</g>
<!-- n3&#45;&gt;x0 -->
<g id="edge12" class="edge">
<title>n3:e&#45;&gt;x0:w</title>
<path fill="none" stroke="black" d="M66.13,-246C105.33,-246 117.66,-246 152.24,-246"/>
<polygon fill="black" stroke="black" points="152.63,-249.5 162.63,-246 152.63,-242.5 152.63,-249.5"/>
</g>
<!-- n4 -->
<g id="node4" class="node">
<title>n4</title>
<polygon fill="none" stroke="black" points="869.21,-208 825.81,-190 869.21,-172 912.61,-190 869.21,-208"/>
<text text-anchor="middle" x="869.21" y="-186.3" font-family="Times,serif" font-size="14.00">loop</text>
</g>
<!-- n5 -->
<g id="node5" class="node">
<title>n5</title>
<polygon fill="none" stroke="black" points="1626.35,-164 1558.31,-146 1626.35,-128 1694.38,-146 1626.35,-164"/>
<text text-anchor="middle" x="1626.35" y="-142.3" font-family="Times,serif" font-size="14.00">muxOut</text>
</g>
<!-- n6 -->
<g id="node6" class="node">
<title>n6</title>
<polygon fill="none" stroke="black" points="421.75,-332 315.01,-314 421.75,-296 528.5,-314 421.75,-332"/>
<text text-anchor="middle" x="421.75" y="-310.3" font-family="Times,serif" font-size="14.00">mux_0.NotSel</text>
</g>
<!-- c17 -->
<g id="node15" class="node">
<title>c17</title>
<polygon fill="none" stroke="black" points="564.37,-281 564.37,-327 740.37,-327 740.37,-281 564.37,-281"/>
<text text-anchor="middle" x="577.37" y="-311.8" font-family="Times,serif" font-size="14.00">a</text>
<polyline fill="none" stroke="black" points="564.37,-304 590.37,-304 "/>
<text text-anchor="middle" x="577.37" y="-288.8" font-family="Times,serif" font-size="14.00">b</text>
<polyline fill="none" stroke="black" points="590.37,-281 590.37,-327 "/>
<text text-anchor="middle" x="645.37" y="-307.8" font-family="Times,serif" font-size="14.00">mux_0.and_1</text>
<text text-anchor="middle" x="645.37" y="-292.8" font-family="Times,serif" font-size="14.00">And</text>
<polyline fill="none" stroke="black" points="700.37,-281 700.37,-327 "/>
<text text-anchor="middle" x="720.37" y="-300.3" font-family="Times,serif" font-size="14.00">out</text>
</g>
<!-- n6&#45;&gt;c17 -->
<g id="edge16" class="edge">
<title>n6:e&#45;&gt;c17:w</title>
<path fill="none" stroke="black" d="M528.37,-314C540.39,-314 545.62,-315.12 554.24,-315.69"/>
<polygon fill="black" stroke="black" points="554.27,-319.19 564.37,-316 554.49,-312.19 554.27,-319.19"/>
</g>
<!-- n7 -->
<g id="node7" class="node">
<title>n7</title>
<polygon fill="none" stroke="black" points="869.21,-319 790.11,-301 869.21,-283 948.3,-301 869.21,-319"/>
<text text-anchor="middle" x="869.21" y="-297.3" font-family="Times,serif" font-size="14.00">mux_0.Sa</text>
</g>
<!-- c20 -->
<g id="node18" class="node">
<title>c20</title>
<polygon fill="none" stroke="black" points="998.04,-121 998.04,-167 1162.04,-167 1162.04,-121 998.04,-121"/>
<text text-anchor="middle" x="1011.04" y="-151.8" font-family="Times,serif" font-size="14.00">a</text>
<polyline fill="none" stroke="black" points="998.04,-144 1024.04,-144 "/>
<text text-anchor="middle" x="1011.04" y="-128.8" font-family="Times,serif" font-size="14.00">b</text>
<polyline fill="none" stroke="black" points="1024.04,-121 1024.04,-167 "/>
<text text-anchor="middle" x="1073.04" y="-147.8" font-family="Times,serif" font-size="14.00">mux_0.or_3</text>
<text text-anchor="middle" x="1073.04" y="-132.8" font-family="Times,serif" font-size="14.00">Or</text>
<polyline fill="none" stroke="black" points="1122.04,-121 1122.04,-167 "/>
<text text-anchor="middle" x="1142.04" y="-140.3" font-family="Times,serif" font-size="14.00">out</text>
</g>
<!-- n7&#45;&gt;c20 -->
<g id="edge18" class="edge">
<title>n7:e&#45;&gt;c20:w</title>
<path fill="none" stroke="black" d="M949.21,-301C1013.36,-301 939.42,-171.96 987.92,-157.34"/>
<polygon fill="black" stroke="black" points="988.59,-160.79 998.04,-156 987.67,-153.85 988.59,-160.79"/>
</g>
<!-- n8 -->
<g id="node8" class="node">
<title>n8</title>
<polygon fill="none" stroke="black" points="652.37,-62 573.28,-44 652.37,-26 731.47,-44 652.37,-62"/>
<text text-anchor="middle" x="652.37" y="-40.3" font-family="Times,serif" font-size="14.00">mux_0.Sb</text>
</g>
<!-- n8&#45;&gt;c20 -->
<g id="edge20" class="edge">
<title>n8:e&#45;&gt;c20:w</title>
<path fill="none" stroke="black" d="M732.37,-44C838.46,-44 865.27,-65.53 962.04,-109 975.57,-115.08 978.35,-125.7 987.97,-130.05"/>
<polygon fill="black" stroke="black" points="987.56,-133.54 998.04,-132 988.89,-126.67 987.56,-133.54"/>
</g>
<!-- n9 -->
<g id="node9" class="node">
<title>n9</title>
<polygon fill="none" stroke="black" points="421.75,-208 352.04,-190 421.75,-172 491.46,-190 421.75,-208"/>
<text text-anchor="middle" x="421.75" y="-186.3" font-family="Times,serif" font-size="14.00">mux_0.a</text>
</g>
<!-- n9&#45;&gt;c17 -->
<g id="edge22" class="edge">
<title>n9:e&#45;&gt;c17:w</title>
<path fill="none" stroke="black" d="M492.75,-190C513.17,-190 515.65,-203.03 528.37,-219 548.45,-244.2 532.63,-282.42 554.48,-290.48"/>
<polygon fill="black" stroke="black" points="553.96,-293.94 564.37,-292 555.02,-287.02 553.96,-293.94"/>
</g>
<!-- x2 -->
<g id="node21" class="node">
<title>x2</title>
<path fill="none" stroke="black" d="M667.37,-154C667.37,-154 637.37,-154 637.37,-154 631.37,-154 625.37,-148 625.37,-142 625.37,-142 625.37,-130 625.37,-130 625.37,-124 631.37,-118 637.37,-118 637.37,-118 667.37,-118 667.37,-118 673.37,-118 679.37,-124 679.37,-130 679.37,-130 679.37,-142 679.37,-142 679.37,-148 673.37,-154 667.37,-154"/>
<text text-anchor="middle" x="652.37" y="-132.3" font-family="Times,serif" font-size="14.00">BUF</text>
</g>
<!-- n9&#45;&gt;x2 -->
<g id="edge23" class="edge">
<title>n9:e&#45;&gt;x2:w</title>
<path fill="none" stroke="black" d="M492.75,-190C552.4,-190 560.37,-141.94 614.17,-136.5"/>
<polygon fill="black" stroke="black" points="614.56,-139.99 624.37,-136 614.21,-132.99 614.56,-139.99"/>
</g>
<!-- x3 -->
<g id="node22" class="node">
<title>x3</title>
<path fill="none" stroke="black" d="M667.37,-208C667.37,-208 637.37,-208 637.37,-208 631.37,-208 625.37,-202 625.37,-196 625.37,-196 625.37,-184 625.37,-184 625.37,-178 631.37,-172 637.37,-172 637.37,-172 667.37,-172 667.37,-172 673.37,-172 679.37,-178 679.37,-184 679.37,-184 679.37,-196 679.37,-196 679.37,-202 673.37,-208 667.37,-208"/>
<text text-anchor="middle" x="652.37" y="-186.3" font-family="Times,serif" font-size="14.00">BUF</text>
</g>
<!-- n9&#45;&gt;x3 -->
<g id="edge24" class="edge">
<title>n9:e&#45;&gt;x3:w</title>
<path fill="none" stroke="black" d="M492.75,-190C547.71,-190 563.94,-190 614.21,-190"/>
<polygon fill="black" stroke="black" points="614.37,-193.5 624.37,-190 614.37,-186.5 614.37,-193.5"/>
</g>
<!-- x5 -->
<g id="node24" class="node">
<title>x5</title>
<path fill="none" stroke="black" d="M667.37,-262C667.37,-262 637.37,-262 637.37,-262 631.37,-262 625.37,-256 625.37,-250 625.37,-250 625.37,-238 625.37,-238 625.37,-232 631.37,-226 637.37,-226 637.37,-226 667.37,-226 667.37,-226 673.37,-226 679.37,-232 679.37,-238 679.37,-238 679.37,-250 679.37,-250 679.37,-256 673.37,-262 667.37,-262"/>
<text text-anchor="middle" x="652.37" y="-240.3" font-family="Times,serif" font-size="14.00">BUF</text>
</g>
<!-- n9&#45;&gt;x5 -->
<g id="edge25" class="edge">
<title>n9:e&#45;&gt;x5:w</title>
<path fill="none" stroke="black" d="M492.75,-190C552.4,-190 560.37,-238.06 614.17,-243.5"/>
<polygon fill="black" stroke="black" points="614.21,-247.01 624.37,-244 614.56,-240.01 614.21,-247.01"/>
</g>
<!-- n10 -->
<g id="node10" class="node">
<title>n10</title>
<polygon fill="none" stroke="black" points="421.75,-59 351.2,-41 421.75,-23 492.3,-41 421.75,-59"/>
<text text-anchor="middle" x="421.75" y="-37.3" font-family="Times,serif" font-size="14.00">mux_0.b</text>
</g>
<!-- n11 -->
<g id="node11" class="node">
<title>n11</title>
<polygon fill="none" stroke="black" points="1281.69,-162 1197.9,-144 1281.69,-126 1365.47,-144 1281.69,-162"/>
<text text-anchor="middle" x="1281.69" y="-140.3" font-family="Times,serif" font-size="14.00">mux_0.out</text>
</g>
<!-- c14 -->
<g id="node14" class="node">
<title>c14</title>
<polygon fill="none" stroke="black" points="1401.33,-71 1401.33,-109 1522.33,-109 1522.33,-71 1401.33,-71"/>
<text text-anchor="middle" x="1416.33" y="-86.3" font-family="Times,serif" font-size="14.00">in</text>
<polyline fill="none" stroke="black" points="1431.33,-71 1431.33,-109 "/>
<text text-anchor="middle" x="1456.83" y="-93.8" font-family="Times,serif" font-size="14.00">dff_1</text>
<text text-anchor="middle" x="1456.83" y="-78.8" font-family="Times,serif" font-size="14.00">DFF</text>
<polyline fill="none" stroke="black" points="1482.33,-71 1482.33,-109 "/>
<text text-anchor="middle" x="1502.33" y="-86.3" font-family="Times,serif" font-size="14.00">out</text>
</g>
<!-- n11&#45;&gt;c14 -->
<g id="edge4" class="edge">
<title>n11:e&#45;&gt;c14:w</title>
<path fill="none" stroke="black" d="M1365.33,-144C1389.89,-144 1377.81,-104.84 1391.49,-93.22"/>
<polygon fill="black" stroke="black" points="1392.91,-96.43 1401.33,-90 1390.74,-89.78 1392.91,-96.43"/>
</g>
<!-- x4 -->
<g id="node23" class="node">
<title>x4</title>
<path fill="none" stroke="black" d="M1476.83,-164C1476.83,-164 1446.83,-164 1446.83,-164 1440.83,-164 1434.83,-158 1434.83,-152 1434.83,-152 1434.83,-140 1434.83,-140 1434.83,-134 1440.83,-128 1446.83,-128 1446.83,-128 1476.83,-128 1476.83,-128 1482.83,-128 1488.83,-134 1488.83,-140 1488.83,-140 1488.83,-152 1488.83,-152 1488.83,-158 1482.83,-164 1476.83,-164"/>
<text text-anchor="middle" x="1461.83" y="-142.3" font-family="Times,serif" font-size="14.00">BUF</text>
</g>
<!-- n11&#45;&gt;x4 -->
<g id="edge5" class="edge">
<title>n11:e&#45;&gt;x4:w</title>
<path fill="none" stroke="black" d="M1365.33,-144C1392.1,-144 1401.2,-145.54 1423.69,-145.92"/>
<polygon fill="black" stroke="black" points="1423.8,-149.42 1433.83,-146 1423.86,-142.42 1423.8,-149.42"/>
</g>
<!-- n12 -->
<g id="node12" class="node">
<title>n12</title>
<polygon fill="none" stroke="black" points="421.75,-264 340.98,-246 421.75,-228 502.52,-246 421.75,-264"/>
<text text-anchor="middle" x="421.75" y="-242.3" font-family="Times,serif" font-size="14.00">mux_0.sel</text>
</g>
<!-- n13 -->
<g id="node13" class="node">
<title>n13</title>
<polygon fill="none" stroke="black" points="897.49,-236.54 897.49,-251.46 880.92,-262 857.49,-262 840.93,-251.46 840.93,-236.54 857.49,-226 880.92,-226 897.49,-236.54"/>
<text text-anchor="middle" x="869.21" y="-240.3" font-family="Times,serif" font-size="14.00">out</text>
</g>
<!-- c14&#45;&gt;n9 -->
<g id="edge21" class="edge">
<title>c14:e&#45;&gt;n9:w</title>
<path fill="none" stroke="black" d="M1523.83,-90C1532.51,-90 1529.12,-103.52 1522.83,-109.5 1503.25,-128.1 1428.32,-110.32 1401.33,-109.5 1258.78,-105.16 1223.66,-90 1081.04,-90 868.21,-90 868.21,-90 868.21,-90 732.91,-90 683.13,-44.17 564.37,-109 516.44,-135.17 540.33,-183.34 491.61,-208 477.74,-215.02 363.04,-218.68 351.75,-208 349.39,-205.76 347.46,-202.37 346.53,-199.14"/>
<polygon fill="black" stroke="black" points="349.74,-200.55 350.75,-190 343.38,-197.61 349.74,-200.55"/>
</g>
<!-- c17&#45;&gt;n7 -->
<g id="edge17" class="edge">
<title>c17:e&#45;&gt;n7:w</title>
<path fill="none" stroke="black" d="M740.37,-304C758.21,-304 765.01,-301.98 778.88,-301.26"/>
<polygon fill="black" stroke="black" points="779.3,-304.75 789.21,-301 779.12,-297.75 779.3,-304.75"/>
</g>
<!-- c18&#45;&gt;n8 -->
<g id="edge19" class="edge">
<title>c18:e&#45;&gt;n8:w</title>
<path fill="none" stroke="black" d="M279.13,-101C390.87,-101 422.15,-102.67 528.37,-68 545.74,-62.33 549.23,-49.81 562.22,-45.5"/>
<polygon fill="black" stroke="black" points="562.99,-48.92 572.37,-44 561.97,-42 562.99,-48.92"/>
</g>
<!-- c19&#45;&gt;n6 -->
<g id="edge15" class="edge">
<title>c19:e&#45;&gt;n6:w</title>
<path fill="none" stroke="black" d="M279.13,-306C291.55,-306 296.41,-310.59 305.16,-312.82"/>
<polygon fill="black" stroke="black" points="304.79,-316.3 315.13,-314 305.61,-309.35 304.79,-316.3"/>
</g>
<!-- c20&#45;&gt;n11 -->
<g id="edge3" class="edge">
<title>c20:e&#45;&gt;n11:w</title>
<path fill="none" stroke="black" d="M1162.04,-144C1174.04,-144 1179.29,-144 1187.92,-144"/>
<polygon fill="black" stroke="black" points="1188.04,-147.5 1198.04,-144 1188.04,-140.5 1188.04,-147.5"/>
</g>
<!-- x0&#45;&gt;n12 -->
<g id="edge6" class="edge">
<title>x0:e&#45;&gt;n12:w</title>
<path fill="none" stroke="black" d="M218.63,-246C268.89,-246 283.95,-246 329.54,-246"/>
<polygon fill="black" stroke="black" points="329.75,-249.5 339.75,-246 329.75,-242.5 329.75,-249.5"/>
</g>
<!-- x1&#45;&gt;n10 -->
<g id="edge2" class="edge">
<title>x1:e&#45;&gt;n10:w</title>
<path fill="none" stroke="black" d="M218.63,-41C273.38,-41 289.55,-41 339.63,-41"/>
<polygon fill="black" stroke="black" points="339.75,-44.5 349.75,-41 339.75,-37.5 339.75,-44.5"/>
</g>
<!-- x2&#45;&gt;n1 -->
<g id="edge1" class="edge">
<title>x2:e&#45;&gt;n1:w</title>
<path fill="none" stroke="black" d="M680.37,-136C719.37,-136 731.64,-136 766.04,-136"/>
<polygon fill="black" stroke="black" points="766.37,-139.5 776.37,-136 766.37,-132.5 766.37,-139.5"/>
</g>
<!-- x3&#45;&gt;n4 -->
<g id="edge13" class="edge">
<title>x3:e&#45;&gt;n4:w</title>
<path fill="none" stroke="black" d="M680.37,-190C740.8,-190 758.39,-190 814.13,-190"/>
<polygon fill="black" stroke="black" points="814.21,-193.5 824.21,-190 814.21,-186.5 814.21,-193.5"/>
</g>
<!-- x4&#45;&gt;n5 -->
<g id="edge14" class="edge">
<title>x4:e&#45;&gt;n5:w</title>
<path fill="none" stroke="black" d="M1489.83,-146C1516.59,-146 1525.71,-146 1548.19,-146"/>
<polygon fill="black" stroke="black" points="1548.33,-149.5 1558.33,-146 1548.33,-142.5 1548.33,-149.5"/>
</g>
<!-- x5&#45;&gt;n13 -->
<g id="edge7" class="edge">
<title>x5:e&#45;&gt;n13:w</title>
<path fill="none" stroke="black" d="M680.37,-244C747.94,-244 767.31,-244 830.17,-244"/>
<polygon fill="black" stroke="black" points="830.21,-247.5 840.21,-244 830.21,-240.5 830.21,-247.5"/>
</g>
</g>
</svg>
