<?xml version="1.0" encoding="UTF-8" standalone="no"?>
<!DOCTYPE svg PUBLIC "-//W3C//DTD SVG 1.1//EN"
 "http://www.w3.org/Graphics/SVG/1.1/DTD/svg11.dtd">
<!-- Generated by graphviz version 2.43.0 (0)
 -->
<!-- Title: Mux4Way16 Pages: 1 -->
<svg width="850pt" height="373pt"
 viewBox="0.00 0.00 849.77 372.50" xmlns="http://www.w3.org/2000/svg" xmlns:xlink="http://www.w3.org/1999/xlink">
<g id="graph0" class="graph" transform="scale(1 1) rotate(0) translate(4 368.5)">
<title>Mux4Way16</title>
<polygon fill="white" stroke="transparent" points="-4,4 -4,-368.5 845.77,-368.5 845.77,4 -4,4"/>
<text text-anchor="middle" x="420.88" y="-7.8" font-family="Times,serif" font-size="14.00">Mux4Way16</text>
<!-- n1 -->
<g id="node1" class="node">
<title>n1</title>
<polygon fill="none" stroke="black" points="175,-339.04 175,-353.96 159.18,-364.5 136.82,-364.5 121,-353.96 121,-339.04 136.82,-328.5 159.18,-328.5 175,-339.04"/>
<text text-anchor="middle" x="148" y="-342.8" font-family="Times,serif" font-size="14.00">a</text>
</g>
<!-- c9 -->
<g id="node9" class="node">
<title>c9</title>
<polygon fill="none" stroke="black" points="242,-242 242,-311 400,-311 400,-242 242,-242"/>
<text text-anchor="middle" x="260.5" y="-295.8" font-family="Times,serif" font-size="14.00">a</text>
<polyline fill="none" stroke="black" points="242,-288 279,-288 "/>
<text text-anchor="middle" x="260.5" y="-272.8" font-family="Times,serif" font-size="14.00">b</text>
<polyline fill="none" stroke="black" points="242,-265 279,-265 "/>
<text text-anchor="middle" x="260.5" y="-249.8" font-family="Times,serif" font-size="14.00">sel</text>
<polyline fill="none" stroke="black" points="279,-242 279,-311 "/>
<text text-anchor="middle" x="319.5" y="-280.3" font-family="Times,serif" font-size="14.00">mux16_0</text>
<text text-anchor="middle" x="319.5" y="-265.3" font-family="Times,serif" font-size="14.00">Mux16</text>
<polyline fill="none" stroke="black" points="360,-242 360,-311 "/>
<text text-anchor="middle" x="380" y="-272.8" font-family="Times,serif" font-size="14.00">out</text>
</g>
<!-- n1&#45;&gt;c9 -->
<g id="edge4" class="edge">
<title>n1:e&#45;&gt;c9:w</title>
<path fill="none" stroke="black" stroke-width="3" d="M176,-346.5C208.21,-346.5 206.79,-308.89 231.91,-300.96"/>
<polygon fill="black" stroke="black" stroke-width="3" points="232.6,-304.39 242,-299.5 231.6,-297.47 232.6,-304.39"/>
</g>
<!-- n2 -->
<g id="node2" class="node">
<title>n2</title>
<polygon fill="none" stroke="black" points="495.75,-239.5 435.75,-221.5 495.75,-203.5 555.74,-221.5 495.75,-239.5"/>
<text text-anchor="middle" x="495.75" y="-217.8" font-family="Times,serif" font-size="14.00">aMuxb</text>
</g>
<!-- c11 -->
<g id="node13" class="node">
<title>c11</title>
<polygon fill="none" stroke="black" points="591.49,-94 591.49,-163 749.49,-163 749.49,-94 591.49,-94"/>
<text text-anchor="middle" x="609.99" y="-147.8" font-family="Times,serif" font-size="14.00">a</text>
<polyline fill="none" stroke="black" points="591.49,-140 628.49,-140 "/>
<text text-anchor="middle" x="609.99" y="-124.8" font-family="Times,serif" font-size="14.00">b</text>
<polyline fill="none" stroke="black" points="591.49,-117 628.49,-117 "/>
<text text-anchor="middle" x="609.99" y="-101.8" font-family="Times,serif" font-size="14.00">sel</text>
<polyline fill="none" stroke="black" points="628.49,-94 628.49,-163 "/>
<text text-anchor="middle" x="668.99" y="-132.3" font-family="Times,serif" font-size="14.00">mux16_2</text>
<text text-anchor="middle" x="668.99" y="-117.3" font-family="Times,serif" font-size="14.00">Mux16</text>
<polyline fill="none" stroke="black" points="709.49,-94 709.49,-163 "/>
<text text-anchor="middle" x="729.49" y="-124.8" font-family="Times,serif" font-size="14.00">out</text>
</g>
<!-- n2&#45;&gt;c11 -->
<g id="edge6" class="edge">
<title>n2:e&#45;&gt;c11:w</title>
<path fill="none" stroke="black" stroke-width="3" d="M555.49,-221.5C586.38,-221.5 563.52,-166.94 581.81,-154.16"/>
<polygon fill="black" stroke="black" stroke-width="3" points="582.77,-157.52 591.49,-151.5 580.92,-150.77 582.77,-157.52"/>
</g>
<!-- n3 -->
<g id="node3" class="node">
<title>n3</title>
<polygon fill="none" stroke="black" points="175,-285.04 175,-299.96 159.18,-310.5 136.82,-310.5 121,-299.96 121,-285.04 136.82,-274.5 159.18,-274.5 175,-285.04"/>
<text text-anchor="middle" x="148" y="-288.8" font-family="Times,serif" font-size="14.00">b</text>
</g>
<!-- n3&#45;&gt;c9 -->
<g id="edge7" class="edge">
<title>n3:e&#45;&gt;c9:w</title>
<path fill="none" stroke="black" stroke-width="3" d="M176,-292.5C202.41,-292.5 210.02,-280.25 231.74,-277.19"/>
<polygon fill="black" stroke="black" stroke-width="3" points="232.26,-280.66 242,-276.5 231.79,-273.68 232.26,-280.66"/>
</g>
<!-- n4 -->
<g id="node4" class="node">
<title>n4</title>
<polygon fill="none" stroke="black" points="175,-175.04 175,-189.96 159.18,-200.5 136.82,-200.5 121,-189.96 121,-175.04 136.82,-164.5 159.18,-164.5 175,-175.04"/>
<text text-anchor="middle" x="148" y="-178.8" font-family="Times,serif" font-size="14.00">c</text>
</g>
<!-- c10 -->
<g id="node11" class="node">
<title>c10</title>
<polygon fill="none" stroke="black" points="242,-94 242,-163 400,-163 400,-94 242,-94"/>
<text text-anchor="middle" x="260.5" y="-147.8" font-family="Times,serif" font-size="14.00">a</text>
<polyline fill="none" stroke="black" points="242,-140 279,-140 "/>
<text text-anchor="middle" x="260.5" y="-124.8" font-family="Times,serif" font-size="14.00">b</text>
<polyline fill="none" stroke="black" points="242,-117 279,-117 "/>
<text text-anchor="middle" x="260.5" y="-101.8" font-family="Times,serif" font-size="14.00">sel</text>
<polyline fill="none" stroke="black" points="279,-94 279,-163 "/>
<text text-anchor="middle" x="319.5" y="-132.3" font-family="Times,serif" font-size="14.00">mux16_1</text>
<text text-anchor="middle" x="319.5" y="-117.3" font-family="Times,serif" font-size="14.00">Mux16</text>
<polyline fill="none" stroke="black" points="360,-94 360,-163 "/>
<text text-anchor="middle" x="380" y="-124.8" font-family="Times,serif" font-size="14.00">out</text>
</g>
<!-- n4&#45;&gt;c10 -->
<g id="edge8" class="edge">
<title>n4:e&#45;&gt;c10:w</title>
<path fill="none" stroke="black" stroke-width="3" d="M176,-182.5C204.61,-182.5 208.89,-158.34 231.79,-152.68"/>
<polygon fill="black" stroke="black" stroke-width="3" points="232.47,-156.12 242,-151.5 231.66,-149.17 232.47,-156.12"/>
</g>
<!-- n5 -->
<g id="node5" class="node">
<title>n5</title>
<polygon fill="none" stroke="black" points="495.75,-146.5 435.75,-128.5 495.75,-110.5 555.74,-128.5 495.75,-146.5"/>
<text text-anchor="middle" x="495.75" y="-124.8" font-family="Times,serif" font-size="14.00">cMuxd</text>
</g>
<!-- n5&#45;&gt;c11 -->
<g id="edge10" class="edge">
<title>n5:e&#45;&gt;c11:w</title>
<path fill="none" stroke="black" stroke-width="3" d="M555.49,-128.5C567.49,-128.5 572.74,-128.5 581.37,-128.5"/>
<polygon fill="black" stroke="black" stroke-width="3" points="581.49,-132 591.49,-128.5 581.49,-125 581.49,-132"/>
</g>
<!-- n6 -->
<g id="node6" class="node">
<title>n6</title>
<polygon fill="none" stroke="black" points="175,-121.04 175,-135.96 159.18,-146.5 136.82,-146.5 121,-135.96 121,-121.04 136.82,-110.5 159.18,-110.5 175,-121.04"/>
<text text-anchor="middle" x="148" y="-124.8" font-family="Times,serif" font-size="14.00">d</text>
</g>
<!-- n6&#45;&gt;c10 -->
<g id="edge11" class="edge">
<title>n6:e&#45;&gt;c10:w</title>
<path fill="none" stroke="black" stroke-width="3" d="M176,-128.5C201.67,-128.5 210.49,-128.5 231.95,-128.5"/>
<polygon fill="black" stroke="black" stroke-width="3" points="232,-132 242,-128.5 232,-125 232,-132"/>
</g>
<!-- n7 -->
<g id="node7" class="node">
<title>n7</title>
<polygon fill="none" stroke="black" points="841.91,-121.04 841.91,-135.96 825.34,-146.5 801.92,-146.5 785.35,-135.96 785.35,-121.04 801.92,-110.5 825.34,-110.5 841.91,-121.04"/>
<text text-anchor="middle" x="813.63" y="-124.8" font-family="Times,serif" font-size="14.00">out</text>
</g>
<!-- n8 -->
<g id="node8" class="node">
<title>n8</title>
<polygon fill="none" stroke="black" points="54,-66.04 54,-80.96 38.18,-91.5 15.82,-91.5 0,-80.96 0,-66.04 15.82,-55.5 38.18,-55.5 54,-66.04"/>
<text text-anchor="middle" x="27" y="-69.8" font-family="Times,serif" font-size="14.00">sel</text>
</g>
<!-- x0 -->
<g id="node10" class="node">
<title>x0</title>
<path fill="none" stroke="black" d="M102,-219.5C102,-219.5 194,-219.5 194,-219.5 200,-219.5 206,-225.5 206,-231.5 206,-231.5 206,-243.5 206,-243.5 206,-249.5 200,-255.5 194,-255.5 194,-255.5 102,-255.5 102,-255.5 96,-255.5 90,-249.5 90,-243.5 90,-243.5 90,-231.5 90,-231.5 90,-225.5 96,-219.5 102,-219.5"/>
<text text-anchor="middle" x="148" y="-233.8" font-family="Times,serif" font-size="14.00">slice [0] to [0]</text>
</g>
<!-- n8&#45;&gt;x0 -->
<g id="edge13" class="edge">
<title>n8:e&#45;&gt;x0:w</title>
<path fill="none" stroke="black" d="M54,-73.5C124.83,-73.5 26.39,-221.27 80.04,-236.27"/>
<polygon fill="black" stroke="black" points="79.65,-239.75 90,-237.5 80.5,-232.81 79.65,-239.75"/>
</g>
<!-- x1 -->
<g id="node12" class="node">
<title>x1</title>
<path fill="none" stroke="black" d="M102,-55.5C102,-55.5 194,-55.5 194,-55.5 200,-55.5 206,-61.5 206,-67.5 206,-67.5 206,-79.5 206,-79.5 206,-85.5 200,-91.5 194,-91.5 194,-91.5 102,-91.5 102,-91.5 96,-91.5 90,-85.5 90,-79.5 90,-79.5 90,-67.5 90,-67.5 90,-61.5 96,-55.5 102,-55.5"/>
<text text-anchor="middle" x="148" y="-69.8" font-family="Times,serif" font-size="14.00">slice [0] to [0]</text>
</g>
<!-- n8&#45;&gt;x1 -->
<g id="edge14" class="edge">
<title>n8:e&#45;&gt;x1:w</title>
<path fill="none" stroke="black" d="M54,-73.5C66,-73.5 71.25,-73.5 79.88,-73.5"/>
<polygon fill="black" stroke="black" points="80,-77 90,-73.5 80,-70 80,-77"/>
</g>
<!-- x2 -->
<g id="node14" class="node">
<title>x2</title>
<path fill="none" stroke="black" d="M275,-23.5C275,-23.5 367,-23.5 367,-23.5 373,-23.5 379,-29.5 379,-35.5 379,-35.5 379,-47.5 379,-47.5 379,-53.5 373,-59.5 367,-59.5 367,-59.5 275,-59.5 275,-59.5 269,-59.5 263,-53.5 263,-47.5 263,-47.5 263,-35.5 263,-35.5 263,-29.5 269,-23.5 275,-23.5"/>
<text text-anchor="middle" x="321" y="-37.8" font-family="Times,serif" font-size="14.00">slice [1] to [0]</text>
</g>
<!-- n8&#45;&gt;x2 -->
<g id="edge15" class="edge">
<title>n8:e&#45;&gt;x2:w</title>
<path fill="none" stroke="black" d="M54,-73.5C74.27,-73.5 70.91,-52.3 90,-45.5 158.66,-21.05 183.22,-39.57 251.59,-41.36"/>
<polygon fill="black" stroke="black" points="251.96,-44.87 262,-41.5 252.05,-37.87 251.96,-44.87"/>
</g>
<!-- c9&#45;&gt;n2 -->
<g id="edge5" class="edge">
<title>c9:e&#45;&gt;n2:w</title>
<path fill="none" stroke="black" stroke-width="3" d="M400,-276.5C424.88,-276.5 412.31,-236.62 426.07,-224.78"/>
<polygon fill="black" stroke="black" stroke-width="3" points="427.6,-227.96 436,-221.5 425.41,-221.31 427.6,-227.96"/>
</g>
<!-- x0&#45;&gt;c9 -->
<g id="edge1" class="edge">
<title>x0:e&#45;&gt;c9:w</title>
<path fill="none" stroke="black" d="M217.84,-240.74C222.36,-243.51 225.64,-247.49 230.17,-250.27"/>
<polygon fill="none" stroke="black" points="217.57,-240.67 210.73,-242.94 206,-237.5 212.84,-235.22 217.57,-240.67"/>
<polygon fill="none" stroke="black" points="230.42,-250.34 237.27,-248.06 242,-253.5 235.16,-255.78 230.42,-250.34"/>
</g>
<!-- c10&#45;&gt;n5 -->
<g id="edge9" class="edge">
<title>c10:e&#45;&gt;n5:w</title>
<path fill="none" stroke="black" stroke-width="3" d="M400,-128.5C412,-128.5 417.25,-128.5 425.88,-128.5"/>
<polygon fill="black" stroke="black" stroke-width="3" points="426,-132 436,-128.5 426,-125 426,-132"/>
</g>
<!-- x1&#45;&gt;c10 -->
<g id="edge2" class="edge">
<title>x1:e&#45;&gt;c10:w</title>
<path fill="none" stroke="black" d="M217.39,-78.22C223.15,-84.34 224.95,-94.94 230.79,-100.97"/>
<polygon fill="none" stroke="black" points="217.09,-78.1 210.01,-79.49 206,-73.5 213.07,-72.1 217.09,-78.1"/>
<polygon fill="none" stroke="black" points="230.88,-101 237.94,-99.54 242,-105.5 234.94,-106.96 230.88,-101"/>
</g>
<!-- c11&#45;&gt;n7 -->
<g id="edge12" class="edge">
<title>c11:e&#45;&gt;n7:w</title>
<path fill="none" stroke="black" stroke-width="3" d="M749.49,-128.5C761.49,-128.5 766.74,-128.5 775.37,-128.5"/>
<polygon fill="black" stroke="black" stroke-width="3" points="775.49,-132 785.49,-128.5 775.49,-125 775.49,-132"/>
</g>
<!-- x2&#45;&gt;c11 -->
<g id="edge3" class="edge">
<title>x2:e&#45;&gt;c11:w</title>
<path fill="none" stroke="black" d="M392.28,-42.56C441.58,-50.2 530.01,-96.85 579.28,-104.45"/>
<polygon fill="none" stroke="black" points="391.96,-42.53 385.63,-46 380,-41.5 386.32,-38.03 391.96,-42.53"/>
<polygon fill="none" stroke="black" points="579.53,-104.48 585.85,-101 591.49,-105.5 585.17,-108.97 579.53,-104.48"/>
</g>
</g>
</svg>
