<?xml version="1.0" encoding="UTF-8" standalone="no"?>
<!DOCTYPE svg PUBLIC "-//W3C//DTD SVG 1.1//EN"
 "http://www.w3.org/Graphics/SVG/1.1/DTD/svg11.dtd">
<!-- Generated by graphviz version 2.43.0 (0)
 -->
<!-- Title: HalfAdder Pages: 1 -->
<svg width="1932pt" height="425pt"
 viewBox="0.00 0.00 1932.13 425.00" xmlns="http://www.w3.org/2000/svg" xmlns:xlink="http://www.w3.org/1999/xlink">
<g id="graph0" class="graph" transform="scale(1 1) rotate(0) translate(4 421)">
<title>HalfAdder</title>
<polygon fill="white" stroke="transparent" points="-4,4 -4,-421 1928.13,-421 1928.13,4 -4,4"/>
<text text-anchor="middle" x="962.06" y="-7.8" font-family="Times,serif" font-size="14.00">HalfAdder</text>
<!-- n1 -->
<g id="node1" class="node">
<title>n1</title>
<polygon fill="none" stroke="black" points="54,-289.54 54,-304.46 38.18,-315 15.82,-315 0,-304.46 0,-289.54 15.82,-279 38.18,-279 54,-289.54"/>
<text text-anchor="middle" x="27" y="-293.3" font-family="Times,serif" font-size="14.00">a</text>
</g>
<!-- c19 -->
<g id="node18" class="node">
<title>c19</title>
<polygon fill="none" stroke="black" points="90,-262 90,-308 270,-308 270,-262 90,-262"/>
<text text-anchor="middle" x="103" y="-292.8" font-family="Times,serif" font-size="14.00">a</text>
<polyline fill="none" stroke="black" points="90,-285 116,-285 "/>
<text text-anchor="middle" x="103" y="-269.8" font-family="Times,serif" font-size="14.00">b</text>
<polyline fill="none" stroke="black" points="116,-262 116,-308 "/>
<text text-anchor="middle" x="173" y="-288.8" font-family="Times,serif" font-size="14.00">and_1.nand_0</text>
<text text-anchor="middle" x="173" y="-273.8" font-family="Times,serif" font-size="14.00">Nand</text>
<polyline fill="none" stroke="black" points="230,-262 230,-308 "/>
<text text-anchor="middle" x="250" y="-281.3" font-family="Times,serif" font-size="14.00">out</text>
</g>
<!-- n1&#45;&gt;c19 -->
<g id="edge1" class="edge">
<title>n1:e&#45;&gt;c19:w</title>
<path fill="none" stroke="black" d="M54,-297C66,-297 71.25,-297 79.88,-297"/>
<polygon fill="black" stroke="black" points="80,-300.5 90,-297 80,-293.5 80,-300.5"/>
</g>
<!-- c24 -->
<g id="node22" class="node">
<title>c24</title>
<polygon fill="none" stroke="black" points="91.5,-132 91.5,-178 268.5,-178 268.5,-132 91.5,-132"/>
<text text-anchor="middle" x="104.5" y="-162.8" font-family="Times,serif" font-size="14.00">a</text>
<polyline fill="none" stroke="black" points="91.5,-155 117.5,-155 "/>
<text text-anchor="middle" x="104.5" y="-139.8" font-family="Times,serif" font-size="14.00">b</text>
<polyline fill="none" stroke="black" points="117.5,-132 117.5,-178 "/>
<text text-anchor="middle" x="173" y="-158.8" font-family="Times,serif" font-size="14.00">xor_0.nand_1</text>
<text text-anchor="middle" x="173" y="-143.8" font-family="Times,serif" font-size="14.00">Nand</text>
<polyline fill="none" stroke="black" points="228.5,-132 228.5,-178 "/>
<text text-anchor="middle" x="248.5" y="-151.3" font-family="Times,serif" font-size="14.00">out</text>
</g>
<!-- n1&#45;&gt;c24 -->
<g id="edge2" class="edge">
<title>n1:e&#45;&gt;c24:w</title>
<path fill="none" stroke="black" d="M54,-297C109.97,-297 40.56,-183.69 79.88,-168.64"/>
<polygon fill="black" stroke="black" points="80.69,-172.06 90,-167 79.57,-165.15 80.69,-172.06"/>
</g>
<!-- c25 -->
<g id="node23" class="node">
<title>c25</title>
<polygon fill="none" stroke="black" points="101.5,-197 101.5,-243 258.5,-243 258.5,-197 101.5,-197"/>
<text text-anchor="middle" x="114.5" y="-227.8" font-family="Times,serif" font-size="14.00">a</text>
<polyline fill="none" stroke="black" points="101.5,-220 127.5,-220 "/>
<text text-anchor="middle" x="114.5" y="-204.8" font-family="Times,serif" font-size="14.00">b</text>
<polyline fill="none" stroke="black" points="127.5,-197 127.5,-243 "/>
<text text-anchor="middle" x="173" y="-223.8" font-family="Times,serif" font-size="14.00">xor_0.or_0</text>
<text text-anchor="middle" x="173" y="-208.8" font-family="Times,serif" font-size="14.00">Or</text>
<polyline fill="none" stroke="black" points="218.5,-197 218.5,-243 "/>
<text text-anchor="middle" x="238.5" y="-216.3" font-family="Times,serif" font-size="14.00">out</text>
</g>
<!-- n1&#45;&gt;c25 -->
<g id="edge3" class="edge">
<title>n1:e&#45;&gt;c25:w</title>
<path fill="none" stroke="black" d="M54,-297C85.38,-297 69.45,-245.89 90.11,-234.31"/>
<polygon fill="black" stroke="black" points="91.06,-237.69 100,-232 89.47,-230.87 91.06,-237.69"/>
</g>
<!-- x1 -->
<g id="node25" class="node">
<title>x1</title>
<path fill="none" stroke="black" d="M195,-417C195,-417 165,-417 165,-417 159,-417 153,-411 153,-405 153,-405 153,-393 153,-393 153,-387 159,-381 165,-381 165,-381 195,-381 195,-381 201,-381 207,-387 207,-393 207,-393 207,-405 207,-405 207,-411 201,-417 195,-417"/>
<text text-anchor="middle" x="180" y="-395.3" font-family="Times,serif" font-size="14.00">BUF</text>
</g>
<!-- n1&#45;&gt;x1 -->
<g id="edge4" class="edge">
<title>n1:e&#45;&gt;x1:w</title>
<path fill="none" stroke="black" d="M54,-297C90.97,-297 63.38,-346.34 90,-372 109.02,-390.33 119.28,-397.3 141.9,-398.71"/>
<polygon fill="black" stroke="black" points="141.91,-402.22 152,-399 142.1,-395.22 141.91,-402.22"/>
</g>
<!-- x6 -->
<g id="node30" class="node">
<title>x6</title>
<path fill="none" stroke="black" d="M195,-363C195,-363 165,-363 165,-363 159,-363 153,-357 153,-351 153,-351 153,-339 153,-339 153,-333 159,-327 165,-327 165,-327 195,-327 195,-327 201,-327 207,-333 207,-339 207,-339 207,-351 207,-351 207,-357 201,-363 195,-363"/>
<text text-anchor="middle" x="180" y="-341.3" font-family="Times,serif" font-size="14.00">BUF</text>
</g>
<!-- n1&#45;&gt;x6 -->
<g id="edge5" class="edge">
<title>n1:e&#45;&gt;x6:w</title>
<path fill="none" stroke="black" d="M54,-297C72.3,-297 73.65,-308.78 90,-317 113.64,-328.88 120.23,-341.41 141.76,-344.35"/>
<polygon fill="black" stroke="black" points="141.8,-347.86 152,-345 142.24,-340.88 141.8,-347.86"/>
</g>
<!-- n2 -->
<g id="node2" class="node">
<title>n2</title>
<polygon fill="none" stroke="black" points="415.38,-417 350.36,-399 415.38,-381 480.4,-399 415.38,-417"/>
<text text-anchor="middle" x="415.38" y="-395.3" font-family="Times,serif" font-size="14.00">and_1.a</text>
</g>
<!-- n3 -->
<g id="node3" class="node">
<title>n3</title>
<polygon fill="none" stroke="black" points="415.38,-303 306.12,-285 415.38,-267 524.64,-285 415.38,-303"/>
<text text-anchor="middle" x="415.38" y="-281.3" font-family="Times,serif" font-size="14.00">and_1.aNandb</text>
</g>
<!-- c21 -->
<g id="node19" class="node">
<title>c21</title>
<polygon fill="none" stroke="black" points="586.76,-266 586.76,-304 758.76,-304 758.76,-266 586.76,-266"/>
<text text-anchor="middle" x="601.76" y="-281.3" font-family="Times,serif" font-size="14.00">in</text>
<polyline fill="none" stroke="black" points="616.76,-266 616.76,-304 "/>
<text text-anchor="middle" x="667.76" y="-288.8" font-family="Times,serif" font-size="14.00">and_1.not_1</text>
<text text-anchor="middle" x="667.76" y="-273.8" font-family="Times,serif" font-size="14.00">Not</text>
<polyline fill="none" stroke="black" points="718.76,-266 718.76,-304 "/>
<text text-anchor="middle" x="738.76" y="-281.3" font-family="Times,serif" font-size="14.00">out</text>
</g>
<!-- n3&#45;&gt;c21 -->
<g id="edge23" class="edge">
<title>n3:e&#45;&gt;c21:w</title>
<path fill="none" stroke="black" d="M524.76,-285C548.16,-285 556.41,-285 575.68,-285"/>
<polygon fill="black" stroke="black" points="575.76,-288.5 585.76,-285 575.76,-281.5 575.76,-288.5"/>
</g>
<!-- n4 -->
<g id="node4" class="node">
<title>n4</title>
<polygon fill="none" stroke="black" points="415.38,-113 349.02,-95 415.38,-77 481.74,-95 415.38,-113"/>
<text text-anchor="middle" x="415.38" y="-91.3" font-family="Times,serif" font-size="14.00">and_1.b</text>
</g>
<!-- n5 -->
<g id="node5" class="node">
<title>n5</title>
<polygon fill="none" stroke="black" points="969.66,-303 890.57,-285 969.66,-267 1048.76,-285 969.66,-303"/>
<text text-anchor="middle" x="969.66" y="-281.3" font-family="Times,serif" font-size="14.00">and_1.out</text>
</g>
<!-- x7 -->
<g id="node31" class="node">
<title>x7</title>
<path fill="none" stroke="black" d="M1277.57,-303C1277.57,-303 1247.57,-303 1247.57,-303 1241.57,-303 1235.57,-297 1235.57,-291 1235.57,-291 1235.57,-279 1235.57,-279 1235.57,-273 1241.57,-267 1247.57,-267 1247.57,-267 1277.57,-267 1277.57,-267 1283.57,-267 1289.57,-273 1289.57,-279 1289.57,-279 1289.57,-291 1289.57,-291 1289.57,-297 1283.57,-303 1277.57,-303"/>
<text text-anchor="middle" x="1262.57" y="-281.3" font-family="Times,serif" font-size="14.00">BUF</text>
</g>
<!-- n5&#45;&gt;x7 -->
<g id="edge26" class="edge">
<title>n5:e&#45;&gt;x7:w</title>
<path fill="none" stroke="black" d="M1049.66,-285C1128.31,-285 1150.51,-285 1224.3,-285"/>
<polygon fill="black" stroke="black" points="1224.57,-288.5 1234.57,-285 1224.57,-281.5 1224.57,-288.5"/>
</g>
<!-- n6 -->
<g id="node6" class="node">
<title>n6</title>
<polygon fill="none" stroke="black" points="54,-135.54 54,-150.46 38.18,-161 15.82,-161 0,-150.46 0,-135.54 15.82,-125 38.18,-125 54,-135.54"/>
<text text-anchor="middle" x="27" y="-139.3" font-family="Times,serif" font-size="14.00">b</text>
</g>
<!-- n6&#45;&gt;c19 -->
<g id="edge27" class="edge">
<title>n6:e&#45;&gt;c19:w</title>
<path fill="none" stroke="black" d="M54,-143C109.97,-143 40.56,-256.31 79.88,-271.36"/>
<polygon fill="black" stroke="black" points="79.57,-274.85 90,-273 80.69,-267.94 79.57,-274.85"/>
</g>
<!-- n6&#45;&gt;c24 -->
<g id="edge28" class="edge">
<title>n6:e&#45;&gt;c24:w</title>
<path fill="none" stroke="black" d="M54,-143C66,-143 71.25,-143 79.88,-143"/>
<polygon fill="black" stroke="black" points="80,-146.5 90,-143 80,-139.5 80,-146.5"/>
</g>
<!-- n6&#45;&gt;c25 -->
<g id="edge29" class="edge">
<title>n6:e&#45;&gt;c25:w</title>
<path fill="none" stroke="black" d="M54,-143C85.38,-143 69.45,-194.11 90.11,-205.69"/>
<polygon fill="black" stroke="black" points="89.47,-209.13 100,-208 91.06,-202.31 89.47,-209.13"/>
</g>
<!-- x0 -->
<g id="node24" class="node">
<title>x0</title>
<path fill="none" stroke="black" d="M195,-113C195,-113 165,-113 165,-113 159,-113 153,-107 153,-101 153,-101 153,-89 153,-89 153,-83 159,-77 165,-77 165,-77 195,-77 195,-77 201,-77 207,-83 207,-89 207,-89 207,-101 207,-101 207,-107 201,-113 195,-113"/>
<text text-anchor="middle" x="180" y="-91.3" font-family="Times,serif" font-size="14.00">BUF</text>
</g>
<!-- n6&#45;&gt;x0 -->
<g id="edge30" class="edge">
<title>n6:e&#45;&gt;x0:w</title>
<path fill="none" stroke="black" d="M54,-143C72.52,-143 73.48,-130.38 90,-122 113.45,-110.1 120.32,-98.35 141.81,-95.6"/>
<polygon fill="black" stroke="black" points="142.22,-99.08 152,-95 141.81,-92.1 142.22,-99.08"/>
</g>
<!-- x5 -->
<g id="node29" class="node">
<title>x5</title>
<path fill="none" stroke="black" d="M195,-59C195,-59 165,-59 165,-59 159,-59 153,-53 153,-47 153,-47 153,-35 153,-35 153,-29 159,-23 165,-23 165,-23 195,-23 195,-23 201,-23 207,-29 207,-35 207,-35 207,-47 207,-47 207,-53 201,-59 195,-59"/>
<text text-anchor="middle" x="180" y="-37.3" font-family="Times,serif" font-size="14.00">BUF</text>
</g>
<!-- n6&#45;&gt;x5 -->
<g id="edge31" class="edge">
<title>n6:e&#45;&gt;x5:w</title>
<path fill="none" stroke="black" d="M54,-143C90.97,-143 63.38,-93.66 90,-68 109.02,-49.67 119.28,-42.7 141.9,-41.29"/>
<polygon fill="black" stroke="black" points="142.1,-44.78 152,-41 141.91,-37.78 142.1,-44.78"/>
</g>
<!-- n7 -->
<g id="node7" class="node">
<title>n7</title>
<polygon fill="none" stroke="black" points="1564.03,-277.54 1564.03,-292.46 1541.79,-303 1510.33,-303 1488.08,-292.46 1488.08,-277.54 1510.33,-267 1541.79,-267 1564.03,-277.54"/>
<text text-anchor="middle" x="1526.06" y="-281.3" font-family="Times,serif" font-size="14.00">carry</text>
</g>
<!-- n8 -->
<g id="node8" class="node">
<title>n8</title>
<polygon fill="none" stroke="black" points="1880.97,-133.54 1880.97,-148.46 1861.56,-159 1834.12,-159 1814.71,-148.46 1814.71,-133.54 1834.12,-123 1861.56,-123 1880.97,-133.54"/>
<text text-anchor="middle" x="1847.84" y="-137.3" font-family="Times,serif" font-size="14.00">sum</text>
</g>
<!-- n9 -->
<g id="node9" class="node">
<title>n9</title>
<polygon fill="none" stroke="black" points="415.38,-363 352.87,-345 415.38,-327 477.89,-345 415.38,-363"/>
<text text-anchor="middle" x="415.38" y="-341.3" font-family="Times,serif" font-size="14.00">xor_0.a</text>
</g>
<!-- n10 -->
<g id="node10" class="node">
<title>n10</title>
<polygon fill="none" stroke="black" points="415.38,-173 325.22,-155 415.38,-137 505.53,-155 415.38,-173"/>
<text text-anchor="middle" x="415.38" y="-151.3" font-family="Times,serif" font-size="14.00">xor_0.aNdb</text>
</g>
<!-- c22 -->
<g id="node20" class="node">
<title>c22</title>
<polygon fill="none" stroke="black" points="560.76,-145 560.76,-191 784.76,-191 784.76,-145 560.76,-145"/>
<text text-anchor="middle" x="573.76" y="-175.8" font-family="Times,serif" font-size="14.00">a</text>
<polyline fill="none" stroke="black" points="560.76,-168 586.76,-168 "/>
<text text-anchor="middle" x="573.76" y="-152.8" font-family="Times,serif" font-size="14.00">b</text>
<polyline fill="none" stroke="black" points="586.76,-145 586.76,-191 "/>
<text text-anchor="middle" x="665.76" y="-171.8" font-family="Times,serif" font-size="14.00">xor_0.and_2.nand_0</text>
<text text-anchor="middle" x="665.76" y="-156.8" font-family="Times,serif" font-size="14.00">Nand</text>
<polyline fill="none" stroke="black" points="744.76,-145 744.76,-191 "/>
<text text-anchor="middle" x="764.76" y="-164.3" font-family="Times,serif" font-size="14.00">out</text>
</g>
<!-- n10&#45;&gt;c22 -->
<g id="edge7" class="edge">
<title>n10:e&#45;&gt;c22:w</title>
<path fill="none" stroke="black" d="M506.38,-155C526.78,-155 534.26,-155.71 550.62,-155.93"/>
<polygon fill="black" stroke="black" points="550.74,-159.44 560.76,-156 550.78,-152.44 550.74,-159.44"/>
</g>
<!-- x2 -->
<g id="node26" class="node">
<title>x2</title>
<path fill="none" stroke="black" d="M687.76,-126C687.76,-126 657.76,-126 657.76,-126 651.76,-126 645.76,-120 645.76,-114 645.76,-114 645.76,-102 645.76,-102 645.76,-96 651.76,-90 657.76,-90 657.76,-90 687.76,-90 687.76,-90 693.76,-90 699.76,-96 699.76,-102 699.76,-102 699.76,-114 699.76,-114 699.76,-120 693.76,-126 687.76,-126"/>
<text text-anchor="middle" x="672.76" y="-104.3" font-family="Times,serif" font-size="14.00">BUF</text>
</g>
<!-- n10&#45;&gt;x2 -->
<g id="edge8" class="edge">
<title>n10:e&#45;&gt;x2:w</title>
<path fill="none" stroke="black" d="M506.38,-155C532.13,-155 536.41,-143.39 560.76,-135 594.36,-123.43 603.84,-110.66 634.51,-108.36"/>
<polygon fill="black" stroke="black" points="634.89,-111.85 644.76,-108 634.64,-104.86 634.89,-111.85"/>
</g>
<!-- n11 -->
<g id="node11" class="node">
<title>n11</title>
<polygon fill="none" stroke="black" points="415.38,-238 333.77,-220 415.38,-202 496.99,-220 415.38,-238"/>
<text text-anchor="middle" x="415.38" y="-216.3" font-family="Times,serif" font-size="14.00">xor_0.aOb</text>
</g>
<!-- n11&#45;&gt;c22 -->
<g id="edge10" class="edge">
<title>n11:e&#45;&gt;c22:w</title>
<path fill="none" stroke="black" d="M498.38,-220C527.45,-220 528.14,-188.83 550.56,-181.52"/>
<polygon fill="black" stroke="black" points="551.38,-184.94 560.76,-180 550.35,-178.01 551.38,-184.94"/>
</g>
<!-- x3 -->
<g id="node27" class="node">
<title>x3</title>
<path fill="none" stroke="black" d="M687.76,-246C687.76,-246 657.76,-246 657.76,-246 651.76,-246 645.76,-240 645.76,-234 645.76,-234 645.76,-222 645.76,-222 645.76,-216 651.76,-210 657.76,-210 657.76,-210 687.76,-210 687.76,-210 693.76,-210 699.76,-216 699.76,-222 699.76,-222 699.76,-234 699.76,-234 699.76,-240 693.76,-246 687.76,-246"/>
<text text-anchor="middle" x="672.76" y="-224.3" font-family="Times,serif" font-size="14.00">BUF</text>
</g>
<!-- n11&#45;&gt;x3 -->
<g id="edge11" class="edge">
<title>n11:e&#45;&gt;x3:w</title>
<path fill="none" stroke="black" d="M498.38,-220C559.97,-220 577.7,-227.15 634.49,-227.93"/>
<polygon fill="black" stroke="black" points="634.74,-231.43 644.76,-228 634.78,-224.43 634.74,-231.43"/>
</g>
<!-- n12 -->
<g id="node12" class="node">
<title>n12</title>
<polygon fill="none" stroke="black" points="969.66,-246 863.76,-228 969.66,-210 1075.57,-228 969.66,-246"/>
<text text-anchor="middle" x="969.66" y="-224.3" font-family="Times,serif" font-size="14.00">xor_0.and_2.a</text>
</g>
<!-- n13 -->
<g id="node13" class="node">
<title>n13</title>
<polygon fill="none" stroke="black" points="969.66,-186 820.86,-168 969.66,-150 1118.47,-168 969.66,-186"/>
<text text-anchor="middle" x="969.66" y="-164.3" font-family="Times,serif" font-size="14.00">xor_0.and_2.aNandb</text>
</g>
<!-- c23 -->
<g id="node21" class="node">
<title>c23</title>
<polygon fill="none" stroke="black" points="1154.57,-149 1154.57,-187 1370.57,-187 1370.57,-149 1154.57,-149"/>
<text text-anchor="middle" x="1169.57" y="-164.3" font-family="Times,serif" font-size="14.00">in</text>
<polyline fill="none" stroke="black" points="1184.57,-149 1184.57,-187 "/>
<text text-anchor="middle" x="1257.57" y="-171.8" font-family="Times,serif" font-size="14.00">xor_0.and_2.not_1</text>
<text text-anchor="middle" x="1257.57" y="-156.8" font-family="Times,serif" font-size="14.00">Not</text>
<polyline fill="none" stroke="black" points="1330.57,-149 1330.57,-187 "/>
<text text-anchor="middle" x="1350.57" y="-164.3" font-family="Times,serif" font-size="14.00">out</text>
</g>
<!-- n13&#45;&gt;c23 -->
<g id="edge14" class="edge">
<title>n13:e&#45;&gt;c23:w</title>
<path fill="none" stroke="black" d="M1118.57,-168C1130.57,-168 1135.82,-168 1144.44,-168"/>
<polygon fill="black" stroke="black" points="1144.57,-171.5 1154.57,-168 1144.57,-164.5 1144.57,-171.5"/>
</g>
<!-- n14 -->
<g id="node14" class="node">
<title>n14</title>
<polygon fill="none" stroke="black" points="969.66,-126 862.92,-108 969.66,-90 1076.41,-108 969.66,-126"/>
<text text-anchor="middle" x="969.66" y="-104.3" font-family="Times,serif" font-size="14.00">xor_0.and_2.b</text>
</g>
<!-- n15 -->
<g id="node15" class="node">
<title>n15</title>
<polygon fill="none" stroke="black" points="1526.06,-186 1406.58,-168 1526.06,-150 1645.54,-168 1526.06,-186"/>
<text text-anchor="middle" x="1526.06" y="-164.3" font-family="Times,serif" font-size="14.00">xor_0.and_2.out</text>
</g>
<!-- x4 -->
<g id="node28" class="node">
<title>x4</title>
<path fill="none" stroke="black" d="M1723.55,-213C1723.55,-213 1693.55,-213 1693.55,-213 1687.55,-213 1681.55,-207 1681.55,-201 1681.55,-201 1681.55,-189 1681.55,-189 1681.55,-183 1687.55,-177 1693.55,-177 1693.55,-177 1723.55,-177 1723.55,-177 1729.55,-177 1735.55,-183 1735.55,-189 1735.55,-189 1735.55,-201 1735.55,-201 1735.55,-207 1729.55,-213 1723.55,-213"/>
<text text-anchor="middle" x="1708.55" y="-191.3" font-family="Times,serif" font-size="14.00">BUF</text>
</g>
<!-- n15&#45;&gt;x4 -->
<g id="edge17" class="edge">
<title>n15:e&#45;&gt;x4:w</title>
<path fill="none" stroke="black" d="M1645.55,-168C1661.48,-168 1662.18,-185.15 1671.93,-192.11"/>
<polygon fill="black" stroke="black" points="1670.96,-195.48 1681.55,-195 1672.98,-188.77 1670.96,-195.48"/>
</g>
<!-- x8 -->
<g id="node32" class="node">
<title>x8</title>
<path fill="none" stroke="black" d="M1723.55,-159C1723.55,-159 1693.55,-159 1693.55,-159 1687.55,-159 1681.55,-153 1681.55,-147 1681.55,-147 1681.55,-135 1681.55,-135 1681.55,-129 1687.55,-123 1693.55,-123 1693.55,-123 1723.55,-123 1723.55,-123 1729.55,-123 1735.55,-129 1735.55,-135 1735.55,-135 1735.55,-147 1735.55,-147 1735.55,-153 1729.55,-159 1723.55,-159"/>
<text text-anchor="middle" x="1708.55" y="-137.3" font-family="Times,serif" font-size="14.00">BUF</text>
</g>
<!-- n15&#45;&gt;x8 -->
<g id="edge18" class="edge">
<title>n15:e&#45;&gt;x8:w</title>
<path fill="none" stroke="black" d="M1645.55,-168C1661.48,-168 1662.18,-150.85 1671.93,-143.89"/>
<polygon fill="black" stroke="black" points="1672.98,-147.23 1681.55,-141 1670.96,-140.52 1672.98,-147.23"/>
</g>
<!-- n16 -->
<g id="node16" class="node">
<title>n16</title>
<polygon fill="none" stroke="black" points="415.38,-59 352.04,-41 415.38,-23 478.72,-41 415.38,-59"/>
<text text-anchor="middle" x="415.38" y="-37.3" font-family="Times,serif" font-size="14.00">xor_0.b</text>
</g>
<!-- n17 -->
<g id="node17" class="node">
<title>n17</title>
<polygon fill="none" stroke="black" points="1847.84,-213 1771.76,-195 1847.84,-177 1923.92,-195 1847.84,-213"/>
<text text-anchor="middle" x="1847.84" y="-191.3" font-family="Times,serif" font-size="14.00">xor_0.out</text>
</g>
<!-- c19&#45;&gt;n3 -->
<g id="edge22" class="edge">
<title>c19:e&#45;&gt;n3:w</title>
<path fill="none" stroke="black" d="M270,-285C282,-285 287.25,-285 295.88,-285"/>
<polygon fill="black" stroke="black" points="296,-288.5 306,-285 296,-281.5 296,-288.5"/>
</g>
<!-- c21&#45;&gt;n5 -->
<g id="edge25" class="edge">
<title>c21:e&#45;&gt;n5:w</title>
<path fill="none" stroke="black" d="M759.76,-285C814,-285 830.02,-285 879.63,-285"/>
<polygon fill="black" stroke="black" points="879.66,-288.5 889.66,-285 879.66,-281.5 879.66,-288.5"/>
</g>
<!-- c22&#45;&gt;n13 -->
<g id="edge13" class="edge">
<title>c22:e&#45;&gt;n13:w</title>
<path fill="none" stroke="black" d="M784.76,-168C796.76,-168 802.01,-168 810.63,-168"/>
<polygon fill="black" stroke="black" points="810.76,-171.5 820.76,-168 810.76,-164.5 810.76,-171.5"/>
</g>
<!-- c23&#45;&gt;n15 -->
<g id="edge16" class="edge">
<title>c23:e&#45;&gt;n15:w</title>
<path fill="none" stroke="black" d="M1370.57,-168C1382.57,-168 1387.82,-168 1396.44,-168"/>
<polygon fill="black" stroke="black" points="1396.57,-171.5 1406.57,-168 1396.57,-164.5 1396.57,-171.5"/>
</g>
<!-- c24&#45;&gt;n10 -->
<g id="edge6" class="edge">
<title>c24:e&#45;&gt;n10:w</title>
<path fill="none" stroke="black" d="M270,-155C290.39,-155 297.88,-155 314.24,-155"/>
<polygon fill="black" stroke="black" points="314.38,-158.5 324.38,-155 314.38,-151.5 314.38,-158.5"/>
</g>
<!-- c25&#45;&gt;n11 -->
<g id="edge9" class="edge">
<title>c25:e&#45;&gt;n11:w</title>
<path fill="none" stroke="black" d="M260,-220C288.52,-220 298.08,-220 322.31,-220"/>
<polygon fill="black" stroke="black" points="322.38,-223.5 332.38,-220 322.38,-216.5 322.38,-223.5"/>
</g>
<!-- x0&#45;&gt;n4 -->
<g id="edge24" class="edge">
<title>x0:e&#45;&gt;n4:w</title>
<path fill="none" stroke="black" d="M208,-95C266.86,-95 284.07,-95 338.21,-95"/>
<polygon fill="black" stroke="black" points="338.38,-98.5 348.38,-95 338.38,-91.5 338.38,-98.5"/>
</g>
<!-- x1&#45;&gt;n2 -->
<g id="edge21" class="edge">
<title>x1:e&#45;&gt;n2:w</title>
<path fill="none" stroke="black" d="M208,-399C267.28,-399 284.61,-399 339.14,-399"/>
<polygon fill="black" stroke="black" points="339.38,-402.5 349.38,-399 339.38,-395.5 339.38,-402.5"/>
</g>
<!-- x2&#45;&gt;n14 -->
<g id="edge15" class="edge">
<title>x2:e&#45;&gt;n14:w</title>
<path fill="none" stroke="black" d="M700.76,-108C768.78,-108 788.28,-108 851.56,-108"/>
<polygon fill="black" stroke="black" points="851.66,-111.5 861.66,-108 851.66,-104.5 851.66,-111.5"/>
</g>
<!-- x3&#45;&gt;n12 -->
<g id="edge12" class="edge">
<title>x3:e&#45;&gt;n12:w</title>
<path fill="none" stroke="black" d="M700.76,-228C769.2,-228 788.82,-228 852.5,-228"/>
<polygon fill="black" stroke="black" points="852.66,-231.5 862.66,-228 852.66,-224.5 852.66,-231.5"/>
</g>
<!-- x4&#45;&gt;n17 -->
<g id="edge20" class="edge">
<title>x4:e&#45;&gt;n17:w</title>
<path fill="none" stroke="black" d="M1735.55,-195C1747.55,-195 1752.8,-195 1761.42,-195"/>
<polygon fill="black" stroke="black" points="1761.55,-198.5 1771.55,-195 1761.55,-191.5 1761.55,-198.5"/>
</g>
<!-- x5&#45;&gt;n16 -->
<g id="edge19" class="edge">
<title>x5:e&#45;&gt;n16:w</title>
<path fill="none" stroke="black" d="M208,-41C268.24,-41 285.77,-41 341.34,-41"/>
<polygon fill="black" stroke="black" points="341.38,-44.5 351.38,-41 341.38,-37.5 341.38,-44.5"/>
</g>
<!-- x6&#45;&gt;n9 -->
<g id="edge34" class="edge">
<title>x6:e&#45;&gt;n9:w</title>
<path fill="none" stroke="black" d="M208,-345C268.24,-345 285.77,-345 341.34,-345"/>
<polygon fill="black" stroke="black" points="341.38,-348.5 351.38,-345 341.38,-341.5 341.38,-348.5"/>
</g>
<!-- x7&#45;&gt;n7 -->
<g id="edge32" class="edge">
<title>x7:e&#45;&gt;n7:w</title>
<path fill="none" stroke="black" d="M1290.57,-285C1374.31,-285 1397.83,-285 1476.63,-285"/>
<polygon fill="black" stroke="black" points="1477.06,-288.5 1487.06,-285 1477.06,-281.5 1477.06,-288.5"/>
</g>
<!-- x8&#45;&gt;n8 -->
<g id="edge33" class="edge">
<title>x8:e&#45;&gt;n8:w</title>
<path fill="none" stroke="black" d="M1735.55,-141C1766.67,-141 1776.92,-141 1803.64,-141"/>
<polygon fill="black" stroke="black" points="1803.84,-144.5 1813.84,-141 1803.84,-137.5 1803.84,-144.5"/>
</g>
</g>
</svg>
