<?xml version="1.0" encoding="UTF-8" standalone="no"?>
<!DOCTYPE svg PUBLIC "-//W3C//DTD SVG 1.1//EN"
 "http://www.w3.org/Graphics/SVG/1.1/DTD/svg11.dtd">
<!-- Generated by graphviz version 2.43.0 (0)
 -->
<!-- Title: RAM16K Pages: 1 -->
<svg width="1342pt" height="500pt"
 viewBox="0.00 0.00 1342.20 499.50" xmlns="http://www.w3.org/2000/svg" xmlns:xlink="http://www.w3.org/1999/xlink">
<g id="graph0" class="graph" transform="scale(1 1) rotate(0) translate(4 495.5)">
<title>RAM16K</title>
<polygon fill="white" stroke="transparent" points="-4,4 -4,-495.5 1338.2,-495.5 1338.2,4 -4,4"/>
<text text-anchor="middle" x="667.1" y="-7.8" font-family="Times,serif" font-size="14.00">RAM16K</text>
<!-- n1 -->
<g id="node1" class="node">
<title>n1</title>
<polygon fill="none" stroke="black" points="936.39,-448.5 862.83,-430.5 936.39,-412.5 1009.96,-430.5 936.39,-448.5"/>
<text text-anchor="middle" x="936.39" y="-426.8" font-family="Times,serif" font-size="14.00">Rx00000</text>
</g>
<!-- c19 -->
<g id="node15" class="node">
<title>c19</title>
<polygon fill="none" stroke="black" points="1045.92,-223 1045.92,-338 1241.92,-338 1241.92,-223 1045.92,-223"/>
<text text-anchor="middle" x="1064.42" y="-322.8" font-family="Times,serif" font-size="14.00">a</text>
<polyline fill="none" stroke="black" points="1045.92,-315 1082.92,-315 "/>
<text text-anchor="middle" x="1064.42" y="-299.8" font-family="Times,serif" font-size="14.00">b</text>
<polyline fill="none" stroke="black" points="1045.92,-292 1082.92,-292 "/>
<text text-anchor="middle" x="1064.42" y="-276.8" font-family="Times,serif" font-size="14.00">c</text>
<polyline fill="none" stroke="black" points="1045.92,-269 1082.92,-269 "/>
<text text-anchor="middle" x="1064.42" y="-253.8" font-family="Times,serif" font-size="14.00">d</text>
<polyline fill="none" stroke="black" points="1045.92,-246 1082.92,-246 "/>
<text text-anchor="middle" x="1064.42" y="-230.8" font-family="Times,serif" font-size="14.00">sel</text>
<polyline fill="none" stroke="black" points="1082.92,-223 1082.92,-338 "/>
<text text-anchor="middle" x="1142.42" y="-284.3" font-family="Times,serif" font-size="14.00">mux4way16_5</text>
<text text-anchor="middle" x="1142.42" y="-269.3" font-family="Times,serif" font-size="14.00">Mux4Way16</text>
<polyline fill="none" stroke="black" points="1201.92,-223 1201.92,-338 "/>
<text text-anchor="middle" x="1221.92" y="-276.8" font-family="Times,serif" font-size="14.00">out</text>
</g>
<!-- n1&#45;&gt;c19 -->
<g id="edge8" class="edge">
<title>n1:e&#45;&gt;c19:w</title>
<path fill="none" stroke="black" stroke-width="3" d="M1009.92,-430.5C1054.83,-430.5 1006.41,-342.86 1036,-328.48"/>
<polygon fill="black" stroke="black" stroke-width="3" points="1036.81,-331.89 1045.92,-326.5 1035.43,-325.03 1036.81,-331.89"/>
</g>
<!-- n2 -->
<g id="node2" class="node">
<title>n2</title>
<polygon fill="none" stroke="black" points="936.39,-369.5 862.83,-351.5 936.39,-333.5 1009.96,-351.5 936.39,-369.5"/>
<text text-anchor="middle" x="936.39" y="-347.8" font-family="Times,serif" font-size="14.00">Rx10000</text>
</g>
<!-- n2&#45;&gt;c19 -->
<g id="edge14" class="edge">
<title>n2:e&#45;&gt;c19:w</title>
<path fill="none" stroke="black" stroke-width="3" d="M1009.92,-351.5C1032.42,-351.5 1023.6,-317.33 1036.31,-306.65"/>
<polygon fill="black" stroke="black" stroke-width="3" points="1037.51,-309.94 1045.92,-303.5 1035.33,-303.29 1037.51,-309.94"/>
</g>
<!-- n3 -->
<g id="node3" class="node">
<title>n3</title>
<polygon fill="none" stroke="black" points="936.39,-298.5 862.83,-280.5 936.39,-262.5 1009.96,-280.5 936.39,-298.5"/>
<text text-anchor="middle" x="936.39" y="-276.8" font-family="Times,serif" font-size="14.00">Rx20000</text>
</g>
<!-- n3&#45;&gt;c19 -->
<g id="edge16" class="edge">
<title>n3:e&#45;&gt;c19:w</title>
<path fill="none" stroke="black" stroke-width="3" d="M1009.92,-280.5C1021.92,-280.5 1027.17,-280.5 1035.8,-280.5"/>
<polygon fill="black" stroke="black" stroke-width="3" points="1035.92,-284 1045.92,-280.5 1035.92,-277 1035.92,-284"/>
</g>
<!-- n4 -->
<g id="node4" class="node">
<title>n4</title>
<polygon fill="none" stroke="black" points="936.39,-227.5 862.83,-209.5 936.39,-191.5 1009.96,-209.5 936.39,-227.5"/>
<text text-anchor="middle" x="936.39" y="-205.8" font-family="Times,serif" font-size="14.00">Rx30000</text>
</g>
<!-- n4&#45;&gt;c19 -->
<g id="edge18" class="edge">
<title>n4:e&#45;&gt;c19:w</title>
<path fill="none" stroke="black" stroke-width="3" d="M1009.92,-209.5C1032.42,-209.5 1023.6,-243.67 1036.31,-254.35"/>
<polygon fill="black" stroke="black" stroke-width="3" points="1035.33,-257.71 1045.92,-257.5 1037.51,-251.06 1035.33,-257.71"/>
</g>
<!-- n5 -->
<g id="node5" class="node">
<title>n5</title>
<polygon fill="none" stroke="black" points="102.57,-166.04 102.57,-180.96 72.57,-191.5 30.14,-191.5 0.14,-180.96 0.14,-166.04 30.14,-155.5 72.57,-155.5 102.57,-166.04"/>
<text text-anchor="middle" x="51.35" y="-169.8" font-family="Times,serif" font-size="14.00">address</text>
</g>
<!-- x0 -->
<g id="node14" class="node">
<title>x0</title>
<path fill="none" stroke="black" d="M150.71,-181.5C150.71,-181.5 287.71,-181.5 287.71,-181.5 293.71,-181.5 299.71,-187.5 299.71,-193.5 299.71,-193.5 299.71,-205.5 299.71,-205.5 299.71,-211.5 293.71,-217.5 287.71,-217.5 287.71,-217.5 150.71,-217.5 150.71,-217.5 144.71,-217.5 138.71,-211.5 138.71,-205.5 138.71,-205.5 138.71,-193.5 138.71,-193.5 138.71,-187.5 144.71,-181.5 150.71,-181.5"/>
<text text-anchor="middle" x="219.21" y="-195.8" font-family="Times,serif" font-size="14.00">slice [13:12] to [1:0]</text>
</g>
<!-- n5&#45;&gt;x0 -->
<g id="edge19" class="edge">
<title>n5:e&#45;&gt;x0:w</title>
<path fill="none" stroke="black" stroke-width="3" d="M102.71,-173.5C118.28,-173.5 119.41,-189.69 128.88,-196.52"/>
<polygon fill="black" stroke="black" stroke-width="3" points="128.12,-199.94 138.71,-199.5 130.16,-193.25 128.12,-199.94"/>
</g>
<!-- x1 -->
<g id="node16" class="node">
<title>x1</title>
<path fill="none" stroke="black" d="M353.71,-127.5C353.71,-127.5 490.71,-127.5 490.71,-127.5 496.71,-127.5 502.71,-133.5 502.71,-139.5 502.71,-139.5 502.71,-151.5 502.71,-151.5 502.71,-157.5 496.71,-163.5 490.71,-163.5 490.71,-163.5 353.71,-163.5 353.71,-163.5 347.71,-163.5 341.71,-157.5 341.71,-151.5 341.71,-151.5 341.71,-139.5 341.71,-139.5 341.71,-133.5 347.71,-127.5 353.71,-127.5"/>
<text text-anchor="middle" x="422.21" y="-141.8" font-family="Times,serif" font-size="14.00">slice [13:12] to [1:0]</text>
</g>
<!-- n5&#45;&gt;x1 -->
<g id="edge20" class="edge">
<title>n5:e&#45;&gt;x1:w</title>
<path fill="none" stroke="black" stroke-width="3" d="M102.71,-173.5C205.57,-173.5 232.23,-147.28 330.18,-145.59"/>
<polygon fill="black" stroke="black" stroke-width="3" points="330.24,-149.09 340.21,-145.5 330.18,-142.09 330.24,-149.09"/>
</g>
<!-- x2 -->
<g id="node18" class="node">
<title>x2</title>
<path fill="none" stroke="black" d="M353.71,-355.5C353.71,-355.5 490.71,-355.5 490.71,-355.5 496.71,-355.5 502.71,-361.5 502.71,-367.5 502.71,-367.5 502.71,-379.5 502.71,-379.5 502.71,-385.5 496.71,-391.5 490.71,-391.5 490.71,-391.5 353.71,-391.5 353.71,-391.5 347.71,-391.5 341.71,-385.5 341.71,-379.5 341.71,-379.5 341.71,-367.5 341.71,-367.5 341.71,-361.5 347.71,-355.5 353.71,-355.5"/>
<text text-anchor="middle" x="422.21" y="-369.8" font-family="Times,serif" font-size="14.00">slice [11:0] to [11:0]</text>
</g>
<!-- n5&#45;&gt;x2 -->
<g id="edge21" class="edge">
<title>n5:e&#45;&gt;x2:w</title>
<path fill="none" stroke="black" stroke-width="3" d="M102.71,-173.5C156.27,-173.5 102.7,-248.86 138.71,-288.5 201.77,-357.91 240.24,-372.51 330.17,-373.45"/>
<polygon fill="black" stroke="black" stroke-width="3" points="330.19,-376.95 340.21,-373.5 330.23,-369.95 330.19,-376.95"/>
</g>
<!-- x3 -->
<g id="node20" class="node">
<title>x3</title>
<path fill="none" stroke="black" d="M150.71,-411.5C150.71,-411.5 287.71,-411.5 287.71,-411.5 293.71,-411.5 299.71,-417.5 299.71,-423.5 299.71,-423.5 299.71,-435.5 299.71,-435.5 299.71,-441.5 293.71,-447.5 287.71,-447.5 287.71,-447.5 150.71,-447.5 150.71,-447.5 144.71,-447.5 138.71,-441.5 138.71,-435.5 138.71,-435.5 138.71,-423.5 138.71,-423.5 138.71,-417.5 144.71,-411.5 150.71,-411.5"/>
<text text-anchor="middle" x="219.21" y="-425.8" font-family="Times,serif" font-size="14.00">slice [11:0] to [11:0]</text>
</g>
<!-- n5&#45;&gt;x3 -->
<g id="edge22" class="edge">
<title>n5:e&#45;&gt;x3:w</title>
<path fill="none" stroke="black" stroke-width="3" d="M102.71,-173.5C156.34,-173.5 91.14,-396.63 128.99,-426.26"/>
<polygon fill="black" stroke="black" stroke-width="3" points="128.12,-429.66 138.71,-429.5 130.33,-423.02 128.12,-429.66"/>
</g>
<!-- x4 -->
<g id="node22" class="node">
<title>x4</title>
<path fill="none" stroke="black" d="M353.71,-23.5C353.71,-23.5 490.71,-23.5 490.71,-23.5 496.71,-23.5 502.71,-29.5 502.71,-35.5 502.71,-35.5 502.71,-47.5 502.71,-47.5 502.71,-53.5 496.71,-59.5 490.71,-59.5 490.71,-59.5 353.71,-59.5 353.71,-59.5 347.71,-59.5 341.71,-53.5 341.71,-47.5 341.71,-47.5 341.71,-35.5 341.71,-35.5 341.71,-29.5 347.71,-23.5 353.71,-23.5"/>
<text text-anchor="middle" x="422.21" y="-37.8" font-family="Times,serif" font-size="14.00">slice [11:0] to [11:0]</text>
</g>
<!-- n5&#45;&gt;x4 -->
<g id="edge23" class="edge">
<title>n5:e&#45;&gt;x4:w</title>
<path fill="none" stroke="black" stroke-width="3" d="M102.71,-173.5C150.78,-173.5 101.62,-102.09 138.71,-71.5 205.9,-16.08 246.49,-39.52 330.08,-41.39"/>
<polygon fill="black" stroke="black" stroke-width="3" points="330.17,-44.89 340.21,-41.5 330.25,-37.89 330.17,-44.89"/>
</g>
<!-- x5 -->
<g id="node24" class="node">
<title>x5</title>
<path fill="none" stroke="black" d="M150.71,-81.5C150.71,-81.5 287.71,-81.5 287.71,-81.5 293.71,-81.5 299.71,-87.5 299.71,-93.5 299.71,-93.5 299.71,-105.5 299.71,-105.5 299.71,-111.5 293.71,-117.5 287.71,-117.5 287.71,-117.5 150.71,-117.5 150.71,-117.5 144.71,-117.5 138.71,-111.5 138.71,-105.5 138.71,-105.5 138.71,-93.5 138.71,-93.5 138.71,-87.5 144.71,-81.5 150.71,-81.5"/>
<text text-anchor="middle" x="219.21" y="-95.8" font-family="Times,serif" font-size="14.00">slice [11:0] to [11:0]</text>
</g>
<!-- n5&#45;&gt;x5 -->
<g id="edge24" class="edge">
<title>n5:e&#45;&gt;x5:w</title>
<path fill="none" stroke="black" stroke-width="3" d="M102.71,-173.5C135.14,-173.5 109.61,-115.32 128.9,-102.13"/>
<polygon fill="black" stroke="black" stroke-width="3" points="129.96,-105.47 138.71,-99.5 128.14,-98.71 129.96,-105.47"/>
</g>
<!-- n6 -->
<g id="node6" class="node">
<title>n6</title>
<polygon fill="none" stroke="black" points="599.28,-273.04 599.28,-287.96 583.47,-298.5 561.1,-298.5 545.28,-287.96 545.28,-273.04 561.1,-262.5 583.47,-262.5 599.28,-273.04"/>
<text text-anchor="middle" x="572.28" y="-276.8" font-family="Times,serif" font-size="14.00">in</text>
</g>
<!-- c20 -->
<g id="node17" class="node">
<title>c20</title>
<polygon fill="none" stroke="black" points="635.86,-422 635.86,-491 826.86,-491 826.86,-422 635.86,-422"/>
<text text-anchor="middle" x="672.36" y="-475.8" font-family="Times,serif" font-size="14.00">address</text>
<polyline fill="none" stroke="black" points="635.86,-468 708.86,-468 "/>
<text text-anchor="middle" x="672.36" y="-452.8" font-family="Times,serif" font-size="14.00">in</text>
<polyline fill="none" stroke="black" points="635.86,-445 708.86,-445 "/>
<text text-anchor="middle" x="672.36" y="-429.8" font-family="Times,serif" font-size="14.00">load</text>
<polyline fill="none" stroke="black" points="708.86,-422 708.86,-491 "/>
<text text-anchor="middle" x="747.86" y="-460.3" font-family="Times,serif" font-size="14.00">ram4k_1</text>
<text text-anchor="middle" x="747.86" y="-445.3" font-family="Times,serif" font-size="14.00">RAM4K</text>
<polyline fill="none" stroke="black" points="786.86,-422 786.86,-491 "/>
<text text-anchor="middle" x="806.86" y="-452.8" font-family="Times,serif" font-size="14.00">out</text>
</g>
<!-- n6&#45;&gt;c20 -->
<g id="edge25" class="edge">
<title>n6:e&#45;&gt;c20:w</title>
<path fill="none" stroke="black" stroke-width="3" d="M599.86,-280.5C675.8,-280.5 567.61,-439.73 625.57,-455.28"/>
<polygon fill="black" stroke="black" stroke-width="3" points="625.52,-458.8 635.86,-456.5 626.34,-451.85 625.52,-458.8"/>
</g>
<!-- c21 -->
<g id="node19" class="node">
<title>c21</title>
<polygon fill="none" stroke="black" points="635.86,-334 635.86,-403 826.86,-403 826.86,-334 635.86,-334"/>
<text text-anchor="middle" x="672.36" y="-387.8" font-family="Times,serif" font-size="14.00">address</text>
<polyline fill="none" stroke="black" points="635.86,-380 708.86,-380 "/>
<text text-anchor="middle" x="672.36" y="-364.8" font-family="Times,serif" font-size="14.00">in</text>
<polyline fill="none" stroke="black" points="635.86,-357 708.86,-357 "/>
<text text-anchor="middle" x="672.36" y="-341.8" font-family="Times,serif" font-size="14.00">load</text>
<polyline fill="none" stroke="black" points="708.86,-334 708.86,-403 "/>
<text text-anchor="middle" x="747.86" y="-372.3" font-family="Times,serif" font-size="14.00">ram4k_2</text>
<text text-anchor="middle" x="747.86" y="-357.3" font-family="Times,serif" font-size="14.00">RAM4K</text>
<polyline fill="none" stroke="black" points="786.86,-334 786.86,-403 "/>
<text text-anchor="middle" x="806.86" y="-364.8" font-family="Times,serif" font-size="14.00">out</text>
</g>
<!-- n6&#45;&gt;c21 -->
<g id="edge26" class="edge">
<title>n6:e&#45;&gt;c21:w</title>
<path fill="none" stroke="black" stroke-width="3" d="M599.86,-280.5C637.99,-280.5 602.21,-352.15 625.91,-366.15"/>
<polygon fill="black" stroke="black" stroke-width="3" points="625.32,-369.6 635.86,-368.5 626.93,-362.79 625.32,-369.6"/>
</g>
<!-- c22 -->
<g id="node21" class="node">
<title>c22</title>
<polygon fill="none" stroke="black" points="635.86,-246 635.86,-315 826.86,-315 826.86,-246 635.86,-246"/>
<text text-anchor="middle" x="672.36" y="-299.8" font-family="Times,serif" font-size="14.00">address</text>
<polyline fill="none" stroke="black" points="635.86,-292 708.86,-292 "/>
<text text-anchor="middle" x="672.36" y="-276.8" font-family="Times,serif" font-size="14.00">in</text>
<polyline fill="none" stroke="black" points="635.86,-269 708.86,-269 "/>
<text text-anchor="middle" x="672.36" y="-253.8" font-family="Times,serif" font-size="14.00">load</text>
<polyline fill="none" stroke="black" points="708.86,-246 708.86,-315 "/>
<text text-anchor="middle" x="747.86" y="-284.3" font-family="Times,serif" font-size="14.00">ram4k_3</text>
<text text-anchor="middle" x="747.86" y="-269.3" font-family="Times,serif" font-size="14.00">RAM4K</text>
<polyline fill="none" stroke="black" points="786.86,-246 786.86,-315 "/>
<text text-anchor="middle" x="806.86" y="-276.8" font-family="Times,serif" font-size="14.00">out</text>
</g>
<!-- n6&#45;&gt;c22 -->
<g id="edge27" class="edge">
<title>n6:e&#45;&gt;c22:w</title>
<path fill="none" stroke="black" stroke-width="3" d="M599.86,-280.5C611.86,-280.5 617.11,-280.5 625.73,-280.5"/>
<polygon fill="black" stroke="black" stroke-width="3" points="625.86,-284 635.86,-280.5 625.86,-277 625.86,-284"/>
</g>
<!-- c23 -->
<g id="node23" class="node">
<title>c23</title>
<polygon fill="none" stroke="black" points="635.86,-158 635.86,-227 826.86,-227 826.86,-158 635.86,-158"/>
<text text-anchor="middle" x="672.36" y="-211.8" font-family="Times,serif" font-size="14.00">address</text>
<polyline fill="none" stroke="black" points="635.86,-204 708.86,-204 "/>
<text text-anchor="middle" x="672.36" y="-188.8" font-family="Times,serif" font-size="14.00">in</text>
<polyline fill="none" stroke="black" points="635.86,-181 708.86,-181 "/>
<text text-anchor="middle" x="672.36" y="-165.8" font-family="Times,serif" font-size="14.00">load</text>
<polyline fill="none" stroke="black" points="708.86,-158 708.86,-227 "/>
<text text-anchor="middle" x="747.86" y="-196.3" font-family="Times,serif" font-size="14.00">ram4k_4</text>
<text text-anchor="middle" x="747.86" y="-181.3" font-family="Times,serif" font-size="14.00">RAM4K</text>
<polyline fill="none" stroke="black" points="786.86,-158 786.86,-227 "/>
<text text-anchor="middle" x="806.86" y="-188.8" font-family="Times,serif" font-size="14.00">out</text>
</g>
<!-- n6&#45;&gt;c23 -->
<g id="edge28" class="edge">
<title>n6:e&#45;&gt;c23:w</title>
<path fill="none" stroke="black" stroke-width="3" d="M599.86,-280.5C637.99,-280.5 602.21,-208.85 625.91,-194.85"/>
<polygon fill="black" stroke="black" stroke-width="3" points="626.93,-198.21 635.86,-192.5 625.32,-191.4 626.93,-198.21"/>
</g>
<!-- n7 -->
<g id="node7" class="node">
<title>n7</title>
<polygon fill="none" stroke="black" points="572.28,-444.5 544.63,-426.5 572.28,-408.5 599.93,-426.5 572.28,-444.5"/>
<text text-anchor="middle" x="572.28" y="-422.8" font-family="Times,serif" font-size="14.00">l0</text>
</g>
<!-- n7&#45;&gt;c20 -->
<g id="edge30" class="edge">
<title>n7:e&#45;&gt;c20:w</title>
<path fill="none" stroke="black" d="M599.86,-426.5C612.08,-426.5 617.05,-430.44 625.65,-432.41"/>
<polygon fill="black" stroke="black" points="625.54,-435.91 635.86,-433.5 626.29,-428.95 625.54,-435.91"/>
</g>
<!-- n8 -->
<g id="node8" class="node">
<title>n8</title>
<polygon fill="none" stroke="black" points="572.28,-390.5 544.63,-372.5 572.28,-354.5 599.93,-372.5 572.28,-390.5"/>
<text text-anchor="middle" x="572.28" y="-368.8" font-family="Times,serif" font-size="14.00">l1</text>
</g>
<!-- n8&#45;&gt;c21 -->
<g id="edge32" class="edge">
<title>n8:e&#45;&gt;c21:w</title>
<path fill="none" stroke="black" d="M599.86,-372.5C615.8,-372.5 616.49,-355.35 626.24,-348.39"/>
<polygon fill="black" stroke="black" points="627.29,-351.73 635.86,-345.5 625.28,-345.02 627.29,-351.73"/>
</g>
<!-- n9 -->
<g id="node9" class="node">
<title>n9</title>
<polygon fill="none" stroke="black" points="572.28,-244.5 544.63,-226.5 572.28,-208.5 599.93,-226.5 572.28,-244.5"/>
<text text-anchor="middle" x="572.28" y="-222.8" font-family="Times,serif" font-size="14.00">l2</text>
</g>
<!-- n9&#45;&gt;c22 -->
<g id="edge34" class="edge">
<title>n9:e&#45;&gt;c22:w</title>
<path fill="none" stroke="black" d="M599.86,-226.5C616.85,-226.5 616.13,-246.57 626.21,-254.41"/>
<polygon fill="black" stroke="black" points="625.27,-257.79 635.86,-257.5 627.4,-251.12 625.27,-257.79"/>
</g>
<!-- n10 -->
<g id="node10" class="node">
<title>n10</title>
<polygon fill="none" stroke="black" points="572.28,-190.5 544.63,-172.5 572.28,-154.5 599.93,-172.5 572.28,-190.5"/>
<text text-anchor="middle" x="572.28" y="-168.8" font-family="Times,serif" font-size="14.00">l3</text>
</g>
<!-- n10&#45;&gt;c23 -->
<g id="edge10" class="edge">
<title>n10:e&#45;&gt;c23:w</title>
<path fill="none" stroke="black" d="M599.86,-172.5C611.9,-172.5 617.1,-170.81 625.72,-169.97"/>
<polygon fill="black" stroke="black" points="626.03,-173.46 635.86,-169.5 625.71,-166.47 626.03,-173.46"/>
</g>
<!-- n11 -->
<g id="node11" class="node">
<title>n11</title>
<polygon fill="none" stroke="black" points="252.34,-254.04 252.34,-268.96 232.93,-279.5 205.49,-279.5 186.08,-268.96 186.08,-254.04 205.49,-243.5 232.93,-243.5 252.34,-254.04"/>
<text text-anchor="middle" x="219.21" y="-257.8" font-family="Times,serif" font-size="14.00">load</text>
</g>
<!-- c18 -->
<g id="node13" class="node">
<title>c18</title>
<polygon fill="none" stroke="black" points="335.71,-192.5 335.71,-284.5 508.71,-284.5 508.71,-192.5 335.71,-192.5"/>
<text text-anchor="middle" x="354.21" y="-257.8" font-family="Times,serif" font-size="14.00">in</text>
<polyline fill="none" stroke="black" points="335.71,-238.5 372.71,-238.5 "/>
<text text-anchor="middle" x="354.21" y="-211.8" font-family="Times,serif" font-size="14.00">sel</text>
<polyline fill="none" stroke="black" points="372.71,-192.5 372.71,-284.5 "/>
<text text-anchor="middle" x="427.71" y="-242.3" font-family="Times,serif" font-size="14.00">dmux4way_0</text>
<text text-anchor="middle" x="427.71" y="-227.3" font-family="Times,serif" font-size="14.00">DMux4Way</text>
<polyline fill="none" stroke="black" points="482.71,-192.5 482.71,-284.5 "/>
<text text-anchor="middle" x="495.71" y="-269.3" font-family="Times,serif" font-size="14.00">a</text>
<polyline fill="none" stroke="black" points="482.71,-261.5 508.71,-261.5 "/>
<text text-anchor="middle" x="495.71" y="-246.3" font-family="Times,serif" font-size="14.00">b</text>
<polyline fill="none" stroke="black" points="482.71,-238.5 508.71,-238.5 "/>
<text text-anchor="middle" x="495.71" y="-223.3" font-family="Times,serif" font-size="14.00">c</text>
<polyline fill="none" stroke="black" points="482.71,-215.5 508.71,-215.5 "/>
<text text-anchor="middle" x="495.71" y="-200.3" font-family="Times,serif" font-size="14.00">d</text>
</g>
<!-- n11&#45;&gt;c18 -->
<g id="edge11" class="edge">
<title>n11:e&#45;&gt;c18:w</title>
<path fill="none" stroke="black" d="M253.21,-261.5C286.3,-261.5 296.99,-261.5 325.7,-261.5"/>
<polygon fill="black" stroke="black" points="325.71,-265 335.71,-261.5 325.71,-258 325.71,-265"/>
</g>
<!-- n12 -->
<g id="node12" class="node">
<title>n12</title>
<polygon fill="none" stroke="black" points="1334.34,-273.04 1334.34,-287.96 1317.78,-298.5 1294.35,-298.5 1277.78,-287.96 1277.78,-273.04 1294.35,-262.5 1317.78,-262.5 1334.34,-273.04"/>
<text text-anchor="middle" x="1306.06" y="-276.8" font-family="Times,serif" font-size="14.00">out</text>
</g>
<!-- c18&#45;&gt;n7 -->
<g id="edge29" class="edge">
<title>c18:e&#45;&gt;n7:w</title>
<path fill="none" stroke="black" d="M508.71,-273.5C574.75,-273.5 485.68,-410.22 534.75,-425.18"/>
<polygon fill="black" stroke="black" points="534.34,-428.65 544.71,-426.5 535.26,-421.71 534.34,-428.65"/>
</g>
<!-- c18&#45;&gt;n8 -->
<g id="edge31" class="edge">
<title>c18:e&#45;&gt;n8:w</title>
<path fill="none" stroke="black" d="M508.71,-250.5C561.27,-250.5 498.35,-355.95 534.67,-370.78"/>
<polygon fill="black" stroke="black" points="534.26,-374.26 544.71,-372.5 535.45,-367.36 534.26,-374.26"/>
</g>
<!-- c18&#45;&gt;n9 -->
<g id="edge33" class="edge">
<title>c18:e&#45;&gt;n9:w</title>
<path fill="none" stroke="black" d="M508.71,-226.5C520.71,-226.5 525.96,-226.5 534.58,-226.5"/>
<polygon fill="black" stroke="black" points="534.71,-230 544.71,-226.5 534.71,-223 534.71,-230"/>
</g>
<!-- c18&#45;&gt;n10 -->
<g id="edge9" class="edge">
<title>c18:e&#45;&gt;n10:w</title>
<path fill="none" stroke="black" d="M508.71,-203.5C525.7,-203.5 524.99,-183.43 535.06,-175.59"/>
<polygon fill="black" stroke="black" points="536.25,-178.88 544.71,-172.5 534.12,-172.21 536.25,-178.88"/>
</g>
<!-- x0&#45;&gt;c18 -->
<g id="edge1" class="edge">
<title>x0:e&#45;&gt;c18:w</title>
<path fill="none" stroke="black" stroke-width="3" d="M311.55,-202.74C316.07,-205.51 319.35,-209.49 323.88,-212.27"/>
<polygon fill="none" stroke="black" stroke-width="3" points="311.28,-202.67 304.44,-204.94 299.71,-199.5 306.55,-197.22 311.28,-202.67"/>
<polygon fill="none" stroke="black" stroke-width="3" points="324.13,-212.34 330.98,-210.06 335.71,-215.5 328.87,-217.78 324.13,-212.34"/>
</g>
<!-- c19&#45;&gt;n12 -->
<g id="edge12" class="edge">
<title>c19:e&#45;&gt;n12:w</title>
<path fill="none" stroke="black" stroke-width="3" d="M1241.92,-280.5C1253.92,-280.5 1259.17,-280.5 1267.8,-280.5"/>
<polygon fill="black" stroke="black" stroke-width="3" points="1267.92,-284 1277.92,-280.5 1267.92,-277 1267.92,-284"/>
</g>
<!-- x1&#45;&gt;c19 -->
<g id="edge2" class="edge">
<title>x1:e&#45;&gt;c19:w</title>
<path fill="none" stroke="black" stroke-width="3" d="M516.54,-145.47C649.85,-144.87 688.33,-134.82 826.86,-148.5 909.21,-156.63 940.45,-137.53 1009.92,-182.5 1029.1,-194.91 1022.32,-221.48 1034.19,-231.01"/>
<polygon fill="none" stroke="black" stroke-width="3" points="516.21,-145.47 510.22,-149.49 504.21,-145.5 510.2,-141.49 516.21,-145.47"/>
<polygon fill="none" stroke="black" stroke-width="3" points="1034.42,-231.08 1041.31,-228.96 1045.92,-234.5 1039.03,-236.62 1034.42,-231.08"/>
</g>
<!-- c20&#45;&gt;n1 -->
<g id="edge7" class="edge">
<title>c20:e&#45;&gt;n1:w</title>
<path fill="none" stroke="black" stroke-width="3" d="M826.86,-456.5C842.43,-456.5 843.56,-440.31 853.03,-433.48"/>
<polygon fill="black" stroke="black" stroke-width="3" points="854.31,-436.75 862.86,-430.5 852.27,-430.06 854.31,-436.75"/>
</g>
<!-- x2&#45;&gt;c20 -->
<g id="edge3" class="edge">
<title>x2:e&#45;&gt;c20:w</title>
<path fill="none" stroke="black" stroke-width="3" d="M516.13,-375.9C537.49,-386.7 517.82,-431.3 544.71,-453.5 573.9,-477.59 590.21,-479.38 623.77,-479.5"/>
<polygon fill="none" stroke="black" stroke-width="3" points="515.97,-375.87 509.3,-378.6 504.21,-373.5 510.88,-370.76 515.97,-375.87"/>
<polygon fill="none" stroke="black" stroke-width="3" points="623.86,-479.5 629.86,-475.5 635.86,-479.5 629.86,-483.5 623.86,-479.5"/>
</g>
<!-- c21&#45;&gt;n2 -->
<g id="edge13" class="edge">
<title>c21:e&#45;&gt;n2:w</title>
<path fill="none" stroke="black" stroke-width="3" d="M826.86,-368.5C840.54,-368.5 844.01,-358.33 853.07,-353.72"/>
<polygon fill="black" stroke="black" stroke-width="3" points="853.88,-357.13 862.86,-351.5 852.33,-350.3 853.88,-357.13"/>
</g>
<!-- x3&#45;&gt;c21 -->
<g id="edge4" class="edge">
<title>x3:e&#45;&gt;c21:w</title>
<path fill="none" stroke="black" stroke-width="3" d="M312.02,-429.76C436.75,-435.02 487.5,-518.18 599.86,-453.5 622.94,-440.21 610.32,-405.81 624.18,-394.89"/>
<polygon fill="none" stroke="black" stroke-width="3" points="311.71,-429.75 305.62,-433.63 299.71,-429.5 305.79,-425.63 311.71,-429.75"/>
<polygon fill="none" stroke="black" stroke-width="3" points="624.33,-394.84 628.98,-389.33 635.86,-391.5 631.21,-397.01 624.33,-394.84"/>
</g>
<!-- c22&#45;&gt;n3 -->
<g id="edge15" class="edge">
<title>c22:e&#45;&gt;n3:w</title>
<path fill="none" stroke="black" stroke-width="3" d="M826.86,-280.5C838.86,-280.5 844.11,-280.5 852.73,-280.5"/>
<polygon fill="black" stroke="black" stroke-width="3" points="852.86,-284 862.86,-280.5 852.86,-277 852.86,-284"/>
</g>
<!-- x4&#45;&gt;c22 -->
<g id="edge5" class="edge">
<title>x4:e&#45;&gt;c22:w</title>
<path fill="none" stroke="black" stroke-width="3" d="M515.81,-45.27C554.79,-75 502.81,-271.5 544.71,-307.5 572.22,-331.14 591,-309.29 623.68,-304.41"/>
<polygon fill="none" stroke="black" stroke-width="3" points="515.62,-45.21 508.68,-47.16 504.21,-41.5 511.15,-39.55 515.62,-45.21"/>
<polygon fill="none" stroke="black" stroke-width="3" points="623.89,-304.4 629.58,-299.96 635.86,-303.5 630.18,-307.94 623.89,-304.4"/>
</g>
<!-- c23&#45;&gt;n4 -->
<g id="edge17" class="edge">
<title>c23:e&#45;&gt;n4:w</title>
<path fill="none" stroke="black" stroke-width="3" d="M826.86,-192.5C840.54,-192.5 844.01,-202.67 853.07,-207.28"/>
<polygon fill="black" stroke="black" stroke-width="3" points="852.33,-210.7 862.86,-209.5 853.88,-203.87 852.33,-210.7"/>
</g>
<!-- x5&#45;&gt;c23 -->
<g id="edge6" class="edge">
<title>x5:e&#45;&gt;c23:w</title>
<path fill="none" stroke="black" stroke-width="3" d="M311.77,-99.39C438.42,-97.19 499.08,-62.01 599.86,-145.5 622.8,-164.51 607.41,-201.9 623.93,-212.59"/>
<polygon fill="none" stroke="black" stroke-width="3" points="311.71,-99.39 305.74,-103.45 299.71,-99.5 305.67,-95.45 311.71,-99.39"/>
<polygon fill="none" stroke="black" stroke-width="3" points="624.2,-212.65 630.98,-210.19 635.86,-215.5 629.08,-217.96 624.2,-212.65"/>
</g>
</g>
</svg>
