<?xml version="1.0" encoding="UTF-8" standalone="no"?>
<!DOCTYPE svg PUBLIC "-//W3C//DTD SVG 1.1//EN"
 "http://www.w3.org/Graphics/SVG/1.1/DTD/svg11.dtd">
<!-- Generated by graphviz version 2.43.0 (0)
 -->
<!-- Title: RAM512 Pages: 1 -->
<svg width="1292pt" height="851pt"
 viewBox="0.00 0.00 1292.11 850.50" xmlns="http://www.w3.org/2000/svg" xmlns:xlink="http://www.w3.org/1999/xlink">
<g id="graph0" class="graph" transform="scale(1 1) rotate(0) translate(4 846.5)">
<title>RAM512</title>
<polygon fill="white" stroke="transparent" points="-4,4 -4,-846.5 1288.11,-846.5 1288.11,4 -4,4"/>
<text text-anchor="middle" x="642.06" y="-7.8" font-family="Times,serif" font-size="14.00">RAM512</text>
<!-- n1 -->
<g id="node1" class="node">
<title>n1</title>
<polygon fill="none" stroke="black" points="902.85,-784.5 845.87,-766.5 902.85,-748.5 959.82,-766.5 902.85,-784.5"/>
<text text-anchor="middle" x="902.85" y="-762.8" font-family="Times,serif" font-size="14.00">Rx000</text>
</g>
<!-- c31 -->
<g id="node23" class="node">
<title>c31</title>
<polygon fill="none" stroke="black" points="995.83,-326 995.83,-533 1191.83,-533 1191.83,-326 995.83,-326"/>
<text text-anchor="middle" x="1014.33" y="-517.8" font-family="Times,serif" font-size="14.00">a</text>
<polyline fill="none" stroke="black" points="995.83,-510 1032.83,-510 "/>
<text text-anchor="middle" x="1014.33" y="-494.8" font-family="Times,serif" font-size="14.00">b</text>
<polyline fill="none" stroke="black" points="995.83,-487 1032.83,-487 "/>
<text text-anchor="middle" x="1014.33" y="-471.8" font-family="Times,serif" font-size="14.00">c</text>
<polyline fill="none" stroke="black" points="995.83,-464 1032.83,-464 "/>
<text text-anchor="middle" x="1014.33" y="-448.8" font-family="Times,serif" font-size="14.00">d</text>
<polyline fill="none" stroke="black" points="995.83,-441 1032.83,-441 "/>
<text text-anchor="middle" x="1014.33" y="-425.8" font-family="Times,serif" font-size="14.00">e</text>
<polyline fill="none" stroke="black" points="995.83,-418 1032.83,-418 "/>
<text text-anchor="middle" x="1014.33" y="-402.8" font-family="Times,serif" font-size="14.00">f</text>
<polyline fill="none" stroke="black" points="995.83,-395 1032.83,-395 "/>
<text text-anchor="middle" x="1014.33" y="-379.8" font-family="Times,serif" font-size="14.00">g</text>
<polyline fill="none" stroke="black" points="995.83,-372 1032.83,-372 "/>
<text text-anchor="middle" x="1014.33" y="-356.8" font-family="Times,serif" font-size="14.00">h</text>
<polyline fill="none" stroke="black" points="995.83,-349 1032.83,-349 "/>
<text text-anchor="middle" x="1014.33" y="-333.8" font-family="Times,serif" font-size="14.00">sel</text>
<polyline fill="none" stroke="black" points="1032.83,-326 1032.83,-533 "/>
<text text-anchor="middle" x="1092.33" y="-433.3" font-family="Times,serif" font-size="14.00">mux8way16_9</text>
<text text-anchor="middle" x="1092.33" y="-418.3" font-family="Times,serif" font-size="14.00">Mux8Way16</text>
<polyline fill="none" stroke="black" points="1151.83,-326 1151.83,-533 "/>
<text text-anchor="middle" x="1171.83" y="-425.8" font-family="Times,serif" font-size="14.00">out</text>
</g>
<!-- n1&#45;&gt;c31 -->
<g id="edge12" class="edge">
<title>n1:e&#45;&gt;c31:w</title>
<path fill="none" stroke="black" stroke-width="3" d="M959.83,-766.5C1010.99,-766.5 950.58,-554.74 986.05,-524.96"/>
<polygon fill="black" stroke="black" stroke-width="3" points="987.58,-528.14 995.83,-521.5 985.24,-521.54 987.58,-528.14"/>
</g>
<!-- n2 -->
<g id="node2" class="node">
<title>n2</title>
<polygon fill="none" stroke="black" points="902.85,-689.5 845.87,-671.5 902.85,-653.5 959.82,-671.5 902.85,-689.5"/>
<text text-anchor="middle" x="902.85" y="-667.8" font-family="Times,serif" font-size="14.00">Rx100</text>
</g>
<!-- n2&#45;&gt;c31 -->
<g id="edge39" class="edge">
<title>n2:e&#45;&gt;c31:w</title>
<path fill="none" stroke="black" stroke-width="3" d="M959.83,-671.5C1034.54,-671.5 928.65,-514.98 985.71,-499.7"/>
<polygon fill="black" stroke="black" stroke-width="3" points="986.32,-503.15 995.83,-498.5 985.49,-496.2 986.32,-503.15"/>
</g>
<!-- n3 -->
<g id="node3" class="node">
<title>n3</title>
<polygon fill="none" stroke="black" points="902.85,-597.5 845.87,-579.5 902.85,-561.5 959.82,-579.5 902.85,-597.5"/>
<text text-anchor="middle" x="902.85" y="-575.8" font-family="Times,serif" font-size="14.00">Rx200</text>
</g>
<!-- n3&#45;&gt;c31 -->
<g id="edge42" class="edge">
<title>n3:e&#45;&gt;c31:w</title>
<path fill="none" stroke="black" stroke-width="3" d="M959.83,-579.5C1004.74,-579.5 956.32,-491.86 985.91,-477.48"/>
<polygon fill="black" stroke="black" stroke-width="3" points="986.72,-480.89 995.83,-475.5 985.34,-474.03 986.72,-480.89"/>
</g>
<!-- n4 -->
<g id="node4" class="node">
<title>n4</title>
<polygon fill="none" stroke="black" points="902.85,-518.5 845.87,-500.5 902.85,-482.5 959.82,-500.5 902.85,-518.5"/>
<text text-anchor="middle" x="902.85" y="-496.8" font-family="Times,serif" font-size="14.00">Rx300</text>
</g>
<!-- n4&#45;&gt;c31 -->
<g id="edge44" class="edge">
<title>n4:e&#45;&gt;c31:w</title>
<path fill="none" stroke="black" stroke-width="3" d="M959.83,-500.5C982.33,-500.5 973.51,-466.33 986.22,-455.65"/>
<polygon fill="black" stroke="black" stroke-width="3" points="987.42,-458.94 995.83,-452.5 985.24,-452.29 987.42,-458.94"/>
</g>
<!-- n5 -->
<g id="node5" class="node">
<title>n5</title>
<polygon fill="none" stroke="black" points="902.85,-447.5 845.87,-429.5 902.85,-411.5 959.82,-429.5 902.85,-447.5"/>
<text text-anchor="middle" x="902.85" y="-425.8" font-family="Times,serif" font-size="14.00">Rx400</text>
</g>
<!-- n5&#45;&gt;c31 -->
<g id="edge46" class="edge">
<title>n5:e&#45;&gt;c31:w</title>
<path fill="none" stroke="black" stroke-width="3" d="M959.83,-429.5C971.83,-429.5 977.08,-429.5 985.71,-429.5"/>
<polygon fill="black" stroke="black" stroke-width="3" points="985.83,-433 995.83,-429.5 985.83,-426 985.83,-433"/>
</g>
<!-- n6 -->
<g id="node6" class="node">
<title>n6</title>
<polygon fill="none" stroke="black" points="902.85,-376.5 845.87,-358.5 902.85,-340.5 959.82,-358.5 902.85,-376.5"/>
<text text-anchor="middle" x="902.85" y="-354.8" font-family="Times,serif" font-size="14.00">Rx500</text>
</g>
<!-- n6&#45;&gt;c31 -->
<g id="edge48" class="edge">
<title>n6:e&#45;&gt;c31:w</title>
<path fill="none" stroke="black" stroke-width="3" d="M959.83,-358.5C982.33,-358.5 973.51,-392.67 986.22,-403.35"/>
<polygon fill="black" stroke="black" stroke-width="3" points="985.24,-406.71 995.83,-406.5 987.42,-400.06 985.24,-406.71"/>
</g>
<!-- n7 -->
<g id="node7" class="node">
<title>n7</title>
<polygon fill="none" stroke="black" points="902.85,-286.5 845.87,-268.5 902.85,-250.5 959.82,-268.5 902.85,-286.5"/>
<text text-anchor="middle" x="902.85" y="-264.8" font-family="Times,serif" font-size="14.00">Rx600</text>
</g>
<!-- n7&#45;&gt;c31 -->
<g id="edge50" class="edge">
<title>n7:e&#45;&gt;c31:w</title>
<path fill="none" stroke="black" stroke-width="3" d="M959.83,-268.5C1009.42,-268.5 952.15,-367.06 985.87,-381.69"/>
<polygon fill="black" stroke="black" stroke-width="3" points="985.37,-385.16 995.83,-383.5 986.62,-378.27 985.37,-385.16"/>
</g>
<!-- n8 -->
<g id="node8" class="node">
<title>n8</title>
<polygon fill="none" stroke="black" points="902.85,-206.5 845.87,-188.5 902.85,-170.5 959.82,-188.5 902.85,-206.5"/>
<text text-anchor="middle" x="902.85" y="-184.8" font-family="Times,serif" font-size="14.00">Rx700</text>
</g>
<!-- n8&#45;&gt;c31 -->
<g id="edge52" class="edge">
<title>n8:e&#45;&gt;c31:w</title>
<path fill="none" stroke="black" stroke-width="3" d="M959.83,-188.5C1034.12,-188.5 929,-344.11 985.77,-359.31"/>
<polygon fill="black" stroke="black" stroke-width="3" points="985.49,-362.8 995.83,-360.5 986.31,-355.85 985.49,-362.8"/>
</g>
<!-- n9 -->
<g id="node9" class="node">
<title>n9</title>
<polygon fill="none" stroke="black" points="102.57,-380.04 102.57,-394.96 72.57,-405.5 30.14,-405.5 0.14,-394.96 0.14,-380.04 30.14,-369.5 72.57,-369.5 102.57,-380.04"/>
<text text-anchor="middle" x="51.35" y="-383.8" font-family="Times,serif" font-size="14.00">address</text>
</g>
<!-- x0 -->
<g id="node22" class="node">
<title>x0</title>
<path fill="none" stroke="black" d="M150.71,-513.5C150.71,-513.5 269.71,-513.5 269.71,-513.5 275.71,-513.5 281.71,-519.5 281.71,-525.5 281.71,-525.5 281.71,-537.5 281.71,-537.5 281.71,-543.5 275.71,-549.5 269.71,-549.5 269.71,-549.5 150.71,-549.5 150.71,-549.5 144.71,-549.5 138.71,-543.5 138.71,-537.5 138.71,-537.5 138.71,-525.5 138.71,-525.5 138.71,-519.5 144.71,-513.5 150.71,-513.5"/>
<text text-anchor="middle" x="210.21" y="-527.8" font-family="Times,serif" font-size="14.00">slice [8:6] to [2:0]</text>
</g>
<!-- n9&#45;&gt;x0 -->
<g id="edge53" class="edge">
<title>n9:e&#45;&gt;x0:w</title>
<path fill="none" stroke="black" stroke-width="3" d="M102.71,-387.5C164.81,-387.5 83.43,-515.12 128.72,-530.07"/>
<polygon fill="black" stroke="black" stroke-width="3" points="128.32,-533.55 138.71,-531.5 129.3,-526.62 128.32,-533.55"/>
</g>
<!-- x1 -->
<g id="node24" class="node">
<title>x1</title>
<path fill="none" stroke="black" d="M344.71,-23.5C344.71,-23.5 463.71,-23.5 463.71,-23.5 469.71,-23.5 475.71,-29.5 475.71,-35.5 475.71,-35.5 475.71,-47.5 475.71,-47.5 475.71,-53.5 469.71,-59.5 463.71,-59.5 463.71,-59.5 344.71,-59.5 344.71,-59.5 338.71,-59.5 332.71,-53.5 332.71,-47.5 332.71,-47.5 332.71,-35.5 332.71,-35.5 332.71,-29.5 338.71,-23.5 344.71,-23.5"/>
<text text-anchor="middle" x="404.21" y="-37.8" font-family="Times,serif" font-size="14.00">slice [8:6] to [2:0]</text>
</g>
<!-- n9&#45;&gt;x1 -->
<g id="edge54" class="edge">
<title>n9:e&#45;&gt;x1:w</title>
<path fill="none" stroke="black" stroke-width="3" d="M102.71,-387.5C161.48,-387.5 103.24,-172.36 138.71,-125.5 192.96,-53.83 234.67,-42.3 321.02,-41.54"/>
<polygon fill="black" stroke="black" stroke-width="3" points="321.22,-45.04 331.21,-41.5 321.2,-38.04 321.22,-45.04"/>
</g>
<!-- x2 -->
<g id="node26" class="node">
<title>x2</title>
<path fill="none" stroke="black" d="M344.71,-797.5C344.71,-797.5 463.71,-797.5 463.71,-797.5 469.71,-797.5 475.71,-803.5 475.71,-809.5 475.71,-809.5 475.71,-821.5 475.71,-821.5 475.71,-827.5 469.71,-833.5 463.71,-833.5 463.71,-833.5 344.71,-833.5 344.71,-833.5 338.71,-833.5 332.71,-827.5 332.71,-821.5 332.71,-821.5 332.71,-809.5 332.71,-809.5 332.71,-803.5 338.71,-797.5 344.71,-797.5"/>
<text text-anchor="middle" x="404.21" y="-811.8" font-family="Times,serif" font-size="14.00">slice [5:0] to [5:0]</text>
</g>
<!-- n9&#45;&gt;x2 -->
<g id="edge55" class="edge">
<title>n9:e&#45;&gt;x2:w</title>
<path fill="none" stroke="black" stroke-width="3" d="M102.71,-387.5C176.04,-387.5 97.28,-655 138.71,-715.5 191.22,-792.17 231.78,-813.94 320.97,-815.42"/>
<polygon fill="black" stroke="black" stroke-width="3" points="321.18,-818.92 331.21,-815.5 321.24,-811.92 321.18,-818.92"/>
</g>
<!-- x3 -->
<g id="node28" class="node">
<title>x3</title>
<path fill="none" stroke="black" d="M344.71,-718.5C344.71,-718.5 463.71,-718.5 463.71,-718.5 469.71,-718.5 475.71,-724.5 475.71,-730.5 475.71,-730.5 475.71,-742.5 475.71,-742.5 475.71,-748.5 469.71,-754.5 463.71,-754.5 463.71,-754.5 344.71,-754.5 344.71,-754.5 338.71,-754.5 332.71,-748.5 332.71,-742.5 332.71,-742.5 332.71,-730.5 332.71,-730.5 332.71,-724.5 338.71,-718.5 344.71,-718.5"/>
<text text-anchor="middle" x="404.21" y="-732.8" font-family="Times,serif" font-size="14.00">slice [5:0] to [5:0]</text>
</g>
<!-- n9&#45;&gt;x3 -->
<g id="edge56" class="edge">
<title>n9:e&#45;&gt;x3:w</title>
<path fill="none" stroke="black" stroke-width="3" d="M102.71,-387.5C165.66,-387.5 99.16,-619.52 138.71,-668.5 193.55,-736.4 237.05,-736.59 321.04,-736.51"/>
<polygon fill="black" stroke="black" stroke-width="3" points="321.21,-740.01 331.21,-736.5 321.21,-733.01 321.21,-740.01"/>
</g>
<!-- x4 -->
<g id="node30" class="node">
<title>x4</title>
<path fill="none" stroke="black" d="M344.71,-448.5C344.71,-448.5 463.71,-448.5 463.71,-448.5 469.71,-448.5 475.71,-454.5 475.71,-460.5 475.71,-460.5 475.71,-472.5 475.71,-472.5 475.71,-478.5 469.71,-484.5 463.71,-484.5 463.71,-484.5 344.71,-484.5 344.71,-484.5 338.71,-484.5 332.71,-478.5 332.71,-472.5 332.71,-472.5 332.71,-460.5 332.71,-460.5 332.71,-454.5 338.71,-448.5 344.71,-448.5"/>
<text text-anchor="middle" x="404.21" y="-462.8" font-family="Times,serif" font-size="14.00">slice [5:0] to [5:0]</text>
</g>
<!-- n9&#45;&gt;x4 -->
<g id="edge57" class="edge">
<title>n9:e&#45;&gt;x4:w</title>
<path fill="none" stroke="black" stroke-width="3" d="M102.71,-387.5C122.71,-387.5 120.73,-405.73 138.71,-414.5 215.26,-451.82 240.61,-465.43 321.11,-466.44"/>
<polygon fill="black" stroke="black" stroke-width="3" points="321.19,-469.94 331.21,-466.5 321.23,-462.94 321.19,-469.94"/>
</g>
<!-- x5 -->
<g id="node32" class="node">
<title>x5</title>
<path fill="none" stroke="black" d="M344.71,-393.5C344.71,-393.5 463.71,-393.5 463.71,-393.5 469.71,-393.5 475.71,-399.5 475.71,-405.5 475.71,-405.5 475.71,-417.5 475.71,-417.5 475.71,-423.5 469.71,-429.5 463.71,-429.5 463.71,-429.5 344.71,-429.5 344.71,-429.5 338.71,-429.5 332.71,-423.5 332.71,-417.5 332.71,-417.5 332.71,-405.5 332.71,-405.5 332.71,-399.5 338.71,-393.5 344.71,-393.5"/>
<text text-anchor="middle" x="404.21" y="-407.8" font-family="Times,serif" font-size="14.00">slice [5:0] to [5:0]</text>
</g>
<!-- n9&#45;&gt;x5 -->
<g id="edge58" class="edge">
<title>n9:e&#45;&gt;x5:w</title>
<path fill="none" stroke="black" stroke-width="3" d="M102.71,-387.5C118.86,-387.5 122.67,-390.6 138.71,-392.5 220.58,-402.22 243.4,-410.77 320.95,-411.46"/>
<polygon fill="black" stroke="black" stroke-width="3" points="321.19,-414.96 331.21,-411.5 321.23,-407.96 321.19,-414.96"/>
</g>
<!-- x6 -->
<g id="node34" class="node">
<title>x6</title>
<path fill="none" stroke="black" d="M150.71,-346.5C150.71,-346.5 269.71,-346.5 269.71,-346.5 275.71,-346.5 281.71,-352.5 281.71,-358.5 281.71,-358.5 281.71,-370.5 281.71,-370.5 281.71,-376.5 275.71,-382.5 269.71,-382.5 269.71,-382.5 150.71,-382.5 150.71,-382.5 144.71,-382.5 138.71,-376.5 138.71,-370.5 138.71,-370.5 138.71,-358.5 138.71,-358.5 138.71,-352.5 144.71,-346.5 150.71,-346.5"/>
<text text-anchor="middle" x="210.21" y="-360.8" font-family="Times,serif" font-size="14.00">slice [5:0] to [5:0]</text>
</g>
<!-- n9&#45;&gt;x6 -->
<g id="edge59" class="edge">
<title>n9:e&#45;&gt;x6:w</title>
<path fill="none" stroke="black" stroke-width="3" d="M102.71,-387.5C117.54,-387.5 119.58,-373.46 128.82,-367.32"/>
<polygon fill="black" stroke="black" stroke-width="3" points="130.05,-370.61 138.71,-364.5 128.13,-363.88 130.05,-370.61"/>
</g>
<!-- x7 -->
<g id="node36" class="node">
<title>x7</title>
<path fill="none" stroke="black" d="M150.71,-272.5C150.71,-272.5 269.71,-272.5 269.71,-272.5 275.71,-272.5 281.71,-278.5 281.71,-284.5 281.71,-284.5 281.71,-296.5 281.71,-296.5 281.71,-302.5 275.71,-308.5 269.71,-308.5 269.71,-308.5 150.71,-308.5 150.71,-308.5 144.71,-308.5 138.71,-302.5 138.71,-296.5 138.71,-296.5 138.71,-284.5 138.71,-284.5 138.71,-278.5 144.71,-272.5 150.71,-272.5"/>
<text text-anchor="middle" x="210.21" y="-286.8" font-family="Times,serif" font-size="14.00">slice [5:0] to [5:0]</text>
</g>
<!-- n9&#45;&gt;x7 -->
<g id="edge60" class="edge">
<title>n9:e&#45;&gt;x7:w</title>
<path fill="none" stroke="black" stroke-width="3" d="M102.71,-387.5C144.56,-387.5 101.96,-307.15 128.64,-292.71"/>
<polygon fill="black" stroke="black" stroke-width="3" points="129.69,-296.06 138.71,-290.5 128.19,-289.22 129.69,-296.06"/>
</g>
<!-- x8 -->
<g id="node38" class="node">
<title>x8</title>
<path fill="none" stroke="black" d="M150.71,-208.5C150.71,-208.5 269.71,-208.5 269.71,-208.5 275.71,-208.5 281.71,-214.5 281.71,-220.5 281.71,-220.5 281.71,-232.5 281.71,-232.5 281.71,-238.5 275.71,-244.5 269.71,-244.5 269.71,-244.5 150.71,-244.5 150.71,-244.5 144.71,-244.5 138.71,-238.5 138.71,-232.5 138.71,-232.5 138.71,-220.5 138.71,-220.5 138.71,-214.5 144.71,-208.5 150.71,-208.5"/>
<text text-anchor="middle" x="210.21" y="-222.8" font-family="Times,serif" font-size="14.00">slice [5:0] to [5:0]</text>
</g>
<!-- n9&#45;&gt;x8 -->
<g id="edge61" class="edge">
<title>n9:e&#45;&gt;x8:w</title>
<path fill="none" stroke="black" stroke-width="3" d="M102.71,-387.5C172.17,-387.5 76.55,-243.03 128.59,-227.8"/>
<polygon fill="black" stroke="black" stroke-width="3" points="129.24,-231.24 138.71,-226.5 128.35,-224.3 129.24,-231.24"/>
</g>
<!-- x9 -->
<g id="node40" class="node">
<title>x9</title>
<path fill="none" stroke="black" d="M150.71,-135.5C150.71,-135.5 269.71,-135.5 269.71,-135.5 275.71,-135.5 281.71,-141.5 281.71,-147.5 281.71,-147.5 281.71,-159.5 281.71,-159.5 281.71,-165.5 275.71,-171.5 269.71,-171.5 269.71,-171.5 150.71,-171.5 150.71,-171.5 144.71,-171.5 138.71,-165.5 138.71,-159.5 138.71,-159.5 138.71,-147.5 138.71,-147.5 138.71,-141.5 144.71,-135.5 150.71,-135.5"/>
<text text-anchor="middle" x="210.21" y="-149.8" font-family="Times,serif" font-size="14.00">slice [5:0] to [5:0]</text>
</g>
<!-- n9&#45;&gt;x9 -->
<g id="edge62" class="edge">
<title>n9:e&#45;&gt;x9:w</title>
<path fill="none" stroke="black" stroke-width="3" d="M102.71,-387.5C204.23,-387.5 45.41,-169.66 128.62,-154.35"/>
<polygon fill="black" stroke="black" stroke-width="3" points="129.04,-157.83 138.71,-153.5 128.45,-150.85 129.04,-157.83"/>
</g>
<!-- n10 -->
<g id="node10" class="node">
<title>n10</title>
<polygon fill="none" stroke="black" points="581.28,-549.04 581.28,-563.96 565.47,-574.5 543.1,-574.5 527.28,-563.96 527.28,-549.04 543.1,-538.5 565.47,-538.5 581.28,-549.04"/>
<text text-anchor="middle" x="554.28" y="-552.8" font-family="Times,serif" font-size="14.00">in</text>
</g>
<!-- c32 -->
<g id="node25" class="node">
<title>c32</title>
<polygon fill="none" stroke="black" points="617.86,-773 617.86,-842 809.86,-842 809.86,-773 617.86,-773"/>
<text text-anchor="middle" x="654.36" y="-826.8" font-family="Times,serif" font-size="14.00">address</text>
<polyline fill="none" stroke="black" points="617.86,-819 690.86,-819 "/>
<text text-anchor="middle" x="654.36" y="-803.8" font-family="Times,serif" font-size="14.00">in</text>
<polyline fill="none" stroke="black" points="617.86,-796 690.86,-796 "/>
<text text-anchor="middle" x="654.36" y="-780.8" font-family="Times,serif" font-size="14.00">load</text>
<polyline fill="none" stroke="black" points="690.86,-773 690.86,-842 "/>
<text text-anchor="middle" x="730.36" y="-811.3" font-family="Times,serif" font-size="14.00">ram64_1</text>
<text text-anchor="middle" x="730.36" y="-796.3" font-family="Times,serif" font-size="14.00">RAM64</text>
<polyline fill="none" stroke="black" points="769.86,-773 769.86,-842 "/>
<text text-anchor="middle" x="789.86" y="-803.8" font-family="Times,serif" font-size="14.00">out</text>
</g>
<!-- n10&#45;&gt;c32 -->
<g id="edge13" class="edge">
<title>n10:e&#45;&gt;c32:w</title>
<path fill="none" stroke="black" stroke-width="3" d="M581.86,-556.5C634.47,-556.5 571.11,-775.27 608.32,-804.33"/>
<polygon fill="black" stroke="black" stroke-width="3" points="607.27,-807.67 617.86,-807.5 609.47,-801.02 607.27,-807.67"/>
</g>
<!-- c33 -->
<g id="node27" class="node">
<title>c33</title>
<polygon fill="none" stroke="black" points="617.86,-675 617.86,-744 809.86,-744 809.86,-675 617.86,-675"/>
<text text-anchor="middle" x="654.36" y="-728.8" font-family="Times,serif" font-size="14.00">address</text>
<polyline fill="none" stroke="black" points="617.86,-721 690.86,-721 "/>
<text text-anchor="middle" x="654.36" y="-705.8" font-family="Times,serif" font-size="14.00">in</text>
<polyline fill="none" stroke="black" points="617.86,-698 690.86,-698 "/>
<text text-anchor="middle" x="654.36" y="-682.8" font-family="Times,serif" font-size="14.00">load</text>
<polyline fill="none" stroke="black" points="690.86,-675 690.86,-744 "/>
<text text-anchor="middle" x="730.36" y="-713.3" font-family="Times,serif" font-size="14.00">ram64_2</text>
<text text-anchor="middle" x="730.36" y="-698.3" font-family="Times,serif" font-size="14.00">RAM64</text>
<polyline fill="none" stroke="black" points="769.86,-675 769.86,-744 "/>
<text text-anchor="middle" x="789.86" y="-705.8" font-family="Times,serif" font-size="14.00">out</text>
</g>
<!-- n10&#45;&gt;c33 -->
<g id="edge14" class="edge">
<title>n10:e&#45;&gt;c33:w</title>
<path fill="none" stroke="black" stroke-width="3" d="M581.86,-556.5C647.9,-556.5 558.83,-693.22 607.9,-708.18"/>
<polygon fill="black" stroke="black" stroke-width="3" points="607.49,-711.65 617.86,-709.5 608.41,-704.71 607.49,-711.65"/>
</g>
<!-- c34 -->
<g id="node29" class="node">
<title>c34</title>
<polygon fill="none" stroke="black" points="617.86,-571 617.86,-640 809.86,-640 809.86,-571 617.86,-571"/>
<text text-anchor="middle" x="654.36" y="-624.8" font-family="Times,serif" font-size="14.00">address</text>
<polyline fill="none" stroke="black" points="617.86,-617 690.86,-617 "/>
<text text-anchor="middle" x="654.36" y="-601.8" font-family="Times,serif" font-size="14.00">in</text>
<polyline fill="none" stroke="black" points="617.86,-594 690.86,-594 "/>
<text text-anchor="middle" x="654.36" y="-578.8" font-family="Times,serif" font-size="14.00">load</text>
<polyline fill="none" stroke="black" points="690.86,-571 690.86,-640 "/>
<text text-anchor="middle" x="730.36" y="-609.3" font-family="Times,serif" font-size="14.00">ram64_3</text>
<text text-anchor="middle" x="730.36" y="-594.3" font-family="Times,serif" font-size="14.00">RAM64</text>
<polyline fill="none" stroke="black" points="769.86,-571 769.86,-640 "/>
<text text-anchor="middle" x="789.86" y="-601.8" font-family="Times,serif" font-size="14.00">out</text>
</g>
<!-- n10&#45;&gt;c34 -->
<g id="edge15" class="edge">
<title>n10:e&#45;&gt;c34:w</title>
<path fill="none" stroke="black" stroke-width="3" d="M581.86,-556.5C604.66,-556.5 595.38,-591.38 608.15,-602.28"/>
<polygon fill="black" stroke="black" stroke-width="3" points="607.27,-605.68 617.86,-605.5 609.47,-599.03 607.27,-605.68"/>
</g>
<!-- c35 -->
<g id="node31" class="node">
<title>c35</title>
<polygon fill="none" stroke="black" points="617.86,-483 617.86,-552 809.86,-552 809.86,-483 617.86,-483"/>
<text text-anchor="middle" x="654.36" y="-536.8" font-family="Times,serif" font-size="14.00">address</text>
<polyline fill="none" stroke="black" points="617.86,-529 690.86,-529 "/>
<text text-anchor="middle" x="654.36" y="-513.8" font-family="Times,serif" font-size="14.00">in</text>
<polyline fill="none" stroke="black" points="617.86,-506 690.86,-506 "/>
<text text-anchor="middle" x="654.36" y="-490.8" font-family="Times,serif" font-size="14.00">load</text>
<polyline fill="none" stroke="black" points="690.86,-483 690.86,-552 "/>
<text text-anchor="middle" x="730.36" y="-521.3" font-family="Times,serif" font-size="14.00">ram64_4</text>
<text text-anchor="middle" x="730.36" y="-506.3" font-family="Times,serif" font-size="14.00">RAM64</text>
<polyline fill="none" stroke="black" points="769.86,-483 769.86,-552 "/>
<text text-anchor="middle" x="789.86" y="-513.8" font-family="Times,serif" font-size="14.00">out</text>
</g>
<!-- n10&#45;&gt;c35 -->
<g id="edge16" class="edge">
<title>n10:e&#45;&gt;c35:w</title>
<path fill="none" stroke="black" stroke-width="3" d="M581.86,-556.5C601.21,-556.5 597.16,-530.26 608.11,-520.83"/>
<polygon fill="black" stroke="black" stroke-width="3" points="609.52,-524.04 617.86,-517.5 607.26,-517.41 609.52,-524.04"/>
</g>
<!-- c36 -->
<g id="node33" class="node">
<title>c36</title>
<polygon fill="none" stroke="black" points="617.86,-395 617.86,-464 809.86,-464 809.86,-395 617.86,-395"/>
<text text-anchor="middle" x="654.36" y="-448.8" font-family="Times,serif" font-size="14.00">address</text>
<polyline fill="none" stroke="black" points="617.86,-441 690.86,-441 "/>
<text text-anchor="middle" x="654.36" y="-425.8" font-family="Times,serif" font-size="14.00">in</text>
<polyline fill="none" stroke="black" points="617.86,-418 690.86,-418 "/>
<text text-anchor="middle" x="654.36" y="-402.8" font-family="Times,serif" font-size="14.00">load</text>
<polyline fill="none" stroke="black" points="690.86,-395 690.86,-464 "/>
<text text-anchor="middle" x="730.36" y="-433.3" font-family="Times,serif" font-size="14.00">ram64_5</text>
<text text-anchor="middle" x="730.36" y="-418.3" font-family="Times,serif" font-size="14.00">RAM64</text>
<polyline fill="none" stroke="black" points="769.86,-395 769.86,-464 "/>
<text text-anchor="middle" x="789.86" y="-425.8" font-family="Times,serif" font-size="14.00">out</text>
</g>
<!-- n10&#45;&gt;c36 -->
<g id="edge17" class="edge">
<title>n10:e&#45;&gt;c36:w</title>
<path fill="none" stroke="black" stroke-width="3" d="M581.86,-556.5C636.63,-556.5 569.38,-445.81 607.94,-431.11"/>
<polygon fill="black" stroke="black" stroke-width="3" points="608.55,-434.55 617.86,-429.5 607.43,-427.64 608.55,-434.55"/>
</g>
<!-- c37 -->
<g id="node35" class="node">
<title>c37</title>
<polygon fill="none" stroke="black" points="617.86,-307 617.86,-376 809.86,-376 809.86,-307 617.86,-307"/>
<text text-anchor="middle" x="654.36" y="-360.8" font-family="Times,serif" font-size="14.00">address</text>
<polyline fill="none" stroke="black" points="617.86,-353 690.86,-353 "/>
<text text-anchor="middle" x="654.36" y="-337.8" font-family="Times,serif" font-size="14.00">in</text>
<polyline fill="none" stroke="black" points="617.86,-330 690.86,-330 "/>
<text text-anchor="middle" x="654.36" y="-314.8" font-family="Times,serif" font-size="14.00">load</text>
<polyline fill="none" stroke="black" points="690.86,-307 690.86,-376 "/>
<text text-anchor="middle" x="730.36" y="-345.3" font-family="Times,serif" font-size="14.00">ram64_6</text>
<text text-anchor="middle" x="730.36" y="-330.3" font-family="Times,serif" font-size="14.00">RAM64</text>
<polyline fill="none" stroke="black" points="769.86,-307 769.86,-376 "/>
<text text-anchor="middle" x="789.86" y="-337.8" font-family="Times,serif" font-size="14.00">out</text>
</g>
<!-- n10&#45;&gt;c37 -->
<g id="edge18" class="edge">
<title>n10:e&#45;&gt;c37:w</title>
<path fill="none" stroke="black" stroke-width="3" d="M581.86,-556.5C674.96,-556.5 532.91,-357.97 607.64,-342.46"/>
<polygon fill="black" stroke="black" stroke-width="3" points="608.23,-345.92 617.86,-341.5 607.58,-338.95 608.23,-345.92"/>
</g>
<!-- c38 -->
<g id="node37" class="node">
<title>c38</title>
<polygon fill="none" stroke="black" points="617.86,-217 617.86,-286 809.86,-286 809.86,-217 617.86,-217"/>
<text text-anchor="middle" x="654.36" y="-270.8" font-family="Times,serif" font-size="14.00">address</text>
<polyline fill="none" stroke="black" points="617.86,-263 690.86,-263 "/>
<text text-anchor="middle" x="654.36" y="-247.8" font-family="Times,serif" font-size="14.00">in</text>
<polyline fill="none" stroke="black" points="617.86,-240 690.86,-240 "/>
<text text-anchor="middle" x="654.36" y="-224.8" font-family="Times,serif" font-size="14.00">load</text>
<polyline fill="none" stroke="black" points="690.86,-217 690.86,-286 "/>
<text text-anchor="middle" x="730.36" y="-255.3" font-family="Times,serif" font-size="14.00">ram64_7</text>
<text text-anchor="middle" x="730.36" y="-240.3" font-family="Times,serif" font-size="14.00">RAM64</text>
<polyline fill="none" stroke="black" points="769.86,-217 769.86,-286 "/>
<text text-anchor="middle" x="789.86" y="-247.8" font-family="Times,serif" font-size="14.00">out</text>
</g>
<!-- n10&#45;&gt;c38 -->
<g id="edge19" class="edge">
<title>n10:e&#45;&gt;c38:w</title>
<path fill="none" stroke="black" stroke-width="3" d="M581.86,-556.5C646.38,-556.5 560.1,-283.95 608.12,-254.14"/>
<polygon fill="black" stroke="black" stroke-width="3" points="609.12,-257.49 617.86,-251.5 607.29,-250.74 609.12,-257.49"/>
</g>
<!-- c39 -->
<g id="node39" class="node">
<title>c39</title>
<polygon fill="none" stroke="black" points="617.86,-126 617.86,-195 809.86,-195 809.86,-126 617.86,-126"/>
<text text-anchor="middle" x="654.36" y="-179.8" font-family="Times,serif" font-size="14.00">address</text>
<polyline fill="none" stroke="black" points="617.86,-172 690.86,-172 "/>
<text text-anchor="middle" x="654.36" y="-156.8" font-family="Times,serif" font-size="14.00">in</text>
<polyline fill="none" stroke="black" points="617.86,-149 690.86,-149 "/>
<text text-anchor="middle" x="654.36" y="-133.8" font-family="Times,serif" font-size="14.00">load</text>
<polyline fill="none" stroke="black" points="690.86,-126 690.86,-195 "/>
<text text-anchor="middle" x="730.36" y="-164.3" font-family="Times,serif" font-size="14.00">ram64_8</text>
<text text-anchor="middle" x="730.36" y="-149.3" font-family="Times,serif" font-size="14.00">RAM64</text>
<polyline fill="none" stroke="black" points="769.86,-126 769.86,-195 "/>
<text text-anchor="middle" x="789.86" y="-156.8" font-family="Times,serif" font-size="14.00">out</text>
</g>
<!-- n10&#45;&gt;c39 -->
<g id="edge20" class="edge">
<title>n10:e&#45;&gt;c39:w</title>
<path fill="none" stroke="black" stroke-width="3" d="M581.86,-556.5C666.43,-556.5 541.17,-193.8 607.7,-162.63"/>
<polygon fill="black" stroke="black" stroke-width="3" points="608.79,-165.98 617.86,-160.5 607.35,-159.13 608.79,-165.98"/>
</g>
<!-- n11 -->
<g id="node11" class="node">
<title>n11</title>
<polygon fill="none" stroke="black" points="554.28,-812.5 526.63,-794.5 554.28,-776.5 581.93,-794.5 554.28,-812.5"/>
<text text-anchor="middle" x="554.28" y="-790.8" font-family="Times,serif" font-size="14.00">l0</text>
</g>
<!-- n11&#45;&gt;c32 -->
<g id="edge22" class="edge">
<title>n11:e&#45;&gt;c32:w</title>
<path fill="none" stroke="black" d="M581.86,-794.5C594.44,-794.5 599.09,-788.76 607.83,-785.98"/>
<polygon fill="black" stroke="black" points="608.48,-789.42 617.86,-784.5 607.46,-782.49 608.48,-789.42"/>
</g>
<!-- n12 -->
<g id="node12" class="node">
<title>n12</title>
<polygon fill="none" stroke="black" points="554.28,-720.5 526.63,-702.5 554.28,-684.5 581.93,-702.5 554.28,-720.5"/>
<text text-anchor="middle" x="554.28" y="-698.8" font-family="Times,serif" font-size="14.00">l1</text>
</g>
<!-- n12&#45;&gt;c33 -->
<g id="edge24" class="edge">
<title>n12:e&#45;&gt;c33:w</title>
<path fill="none" stroke="black" d="M581.86,-702.5C595.26,-702.5 598.98,-693.12 607.85,-688.72"/>
<polygon fill="black" stroke="black" points="608.86,-692.09 617.86,-686.5 607.34,-685.25 608.86,-692.09"/>
</g>
<!-- n13 -->
<g id="node13" class="node">
<title>n13</title>
<polygon fill="none" stroke="black" points="554.28,-666.5 526.63,-648.5 554.28,-630.5 581.93,-648.5 554.28,-666.5"/>
<text text-anchor="middle" x="554.28" y="-644.8" font-family="Times,serif" font-size="14.00">l2</text>
</g>
<!-- n13&#45;&gt;c34 -->
<g id="edge26" class="edge">
<title>n13:e&#45;&gt;c34:w</title>
<path fill="none" stroke="black" d="M581.86,-648.5C611.1,-648.5 591.15,-597.97 608.09,-585.34"/>
<polygon fill="black" stroke="black" points="609.23,-588.65 617.86,-582.5 607.28,-581.93 609.23,-588.65"/>
</g>
<!-- n14 -->
<g id="node14" class="node">
<title>n14</title>
<polygon fill="none" stroke="black" points="554.28,-520.5 526.63,-502.5 554.28,-484.5 581.93,-502.5 554.28,-520.5"/>
<text text-anchor="middle" x="554.28" y="-498.8" font-family="Times,serif" font-size="14.00">l3</text>
</g>
<!-- n14&#45;&gt;c35 -->
<g id="edge28" class="edge">
<title>n14:e&#45;&gt;c35:w</title>
<path fill="none" stroke="black" d="M581.86,-502.5C594.28,-502.5 599.14,-497.91 607.89,-495.68"/>
<polygon fill="black" stroke="black" points="608.34,-499.15 617.86,-494.5 607.52,-492.2 608.34,-499.15"/>
</g>
<!-- n15 -->
<g id="node15" class="node">
<title>n15</title>
<polygon fill="none" stroke="black" points="554.28,-428.5 526.63,-410.5 554.28,-392.5 581.93,-410.5 554.28,-428.5"/>
<text text-anchor="middle" x="554.28" y="-406.8" font-family="Times,serif" font-size="14.00">l4</text>
</g>
<!-- n15&#45;&gt;c36 -->
<g id="edge30" class="edge">
<title>n15:e&#45;&gt;c36:w</title>
<path fill="none" stroke="black" d="M581.86,-410.5C593.93,-410.5 599.09,-408.25 607.71,-407.12"/>
<polygon fill="black" stroke="black" points="608.09,-410.61 617.86,-406.5 607.66,-403.62 608.09,-410.61"/>
</g>
<!-- n16 -->
<g id="node16" class="node">
<title>n16</title>
<polygon fill="none" stroke="black" points="554.28,-336.5 526.63,-318.5 554.28,-300.5 581.93,-318.5 554.28,-336.5"/>
<text text-anchor="middle" x="554.28" y="-314.8" font-family="Times,serif" font-size="14.00">l5</text>
</g>
<!-- n16&#45;&gt;c37 -->
<g id="edge32" class="edge">
<title>n16:e&#45;&gt;c37:w</title>
<path fill="none" stroke="black" d="M581.86,-318.5C593.86,-318.5 599.11,-318.5 607.73,-318.5"/>
<polygon fill="black" stroke="black" points="607.86,-322 617.86,-318.5 607.86,-315 607.86,-322"/>
</g>
<!-- n17 -->
<g id="node17" class="node">
<title>n17</title>
<polygon fill="none" stroke="black" points="554.28,-244.5 526.63,-226.5 554.28,-208.5 581.93,-226.5 554.28,-244.5"/>
<text text-anchor="middle" x="554.28" y="-222.8" font-family="Times,serif" font-size="14.00">l6</text>
</g>
<!-- n17&#45;&gt;c38 -->
<g id="edge34" class="edge">
<title>n17:e&#45;&gt;c38:w</title>
<path fill="none" stroke="black" d="M581.86,-226.5C593.88,-226.5 599.1,-227.62 607.73,-228.19"/>
<polygon fill="black" stroke="black" points="607.76,-231.69 617.86,-228.5 607.97,-224.69 607.76,-231.69"/>
</g>
<!-- n18 -->
<g id="node18" class="node">
<title>n18</title>
<polygon fill="none" stroke="black" points="554.28,-152.5 526.63,-134.5 554.28,-116.5 581.93,-134.5 554.28,-152.5"/>
<text text-anchor="middle" x="554.28" y="-130.8" font-family="Times,serif" font-size="14.00">l7</text>
</g>
<!-- n18&#45;&gt;c39 -->
<g id="edge36" class="edge">
<title>n18:e&#45;&gt;c39:w</title>
<path fill="none" stroke="black" d="M581.86,-134.5C593.9,-134.5 599.1,-136.19 607.72,-137.03"/>
<polygon fill="black" stroke="black" points="607.71,-140.53 617.86,-137.5 608.03,-133.54 607.71,-140.53"/>
</g>
<!-- n19 -->
<g id="node19" class="node">
<title>n19</title>
<polygon fill="none" stroke="black" points="243.34,-634.04 243.34,-648.96 223.93,-659.5 196.49,-659.5 177.08,-648.96 177.08,-634.04 196.49,-623.5 223.93,-623.5 243.34,-634.04"/>
<text text-anchor="middle" x="210.21" y="-637.8" font-family="Times,serif" font-size="14.00">load</text>
</g>
<!-- c30 -->
<g id="node21" class="node">
<title>c30</title>
<polygon fill="none" stroke="black" points="317.71,-503.5 317.71,-687.5 490.71,-687.5 490.71,-503.5 317.71,-503.5"/>
<text text-anchor="middle" x="336.21" y="-637.8" font-family="Times,serif" font-size="14.00">in</text>
<polyline fill="none" stroke="black" points="317.71,-595.5 354.71,-595.5 "/>
<text text-anchor="middle" x="336.21" y="-545.8" font-family="Times,serif" font-size="14.00">sel</text>
<polyline fill="none" stroke="black" points="354.71,-503.5 354.71,-687.5 "/>
<text text-anchor="middle" x="409.71" y="-599.3" font-family="Times,serif" font-size="14.00">dmux8way_0</text>
<text text-anchor="middle" x="409.71" y="-584.3" font-family="Times,serif" font-size="14.00">DMux8Way</text>
<polyline fill="none" stroke="black" points="464.71,-503.5 464.71,-687.5 "/>
<text text-anchor="middle" x="477.71" y="-672.3" font-family="Times,serif" font-size="14.00">a</text>
<polyline fill="none" stroke="black" points="464.71,-664.5 490.71,-664.5 "/>
<text text-anchor="middle" x="477.71" y="-649.3" font-family="Times,serif" font-size="14.00">b</text>
<polyline fill="none" stroke="black" points="464.71,-641.5 490.71,-641.5 "/>
<text text-anchor="middle" x="477.71" y="-626.3" font-family="Times,serif" font-size="14.00">c</text>
<polyline fill="none" stroke="black" points="464.71,-618.5 490.71,-618.5 "/>
<text text-anchor="middle" x="477.71" y="-603.3" font-family="Times,serif" font-size="14.00">d</text>
<polyline fill="none" stroke="black" points="464.71,-595.5 490.71,-595.5 "/>
<text text-anchor="middle" x="477.71" y="-580.3" font-family="Times,serif" font-size="14.00">e</text>
<polyline fill="none" stroke="black" points="464.71,-572.5 490.71,-572.5 "/>
<text text-anchor="middle" x="477.71" y="-557.3" font-family="Times,serif" font-size="14.00">f</text>
<polyline fill="none" stroke="black" points="464.71,-549.5 490.71,-549.5 "/>
<text text-anchor="middle" x="477.71" y="-534.3" font-family="Times,serif" font-size="14.00">g</text>
<polyline fill="none" stroke="black" points="464.71,-526.5 490.71,-526.5 "/>
<text text-anchor="middle" x="477.71" y="-511.3" font-family="Times,serif" font-size="14.00">h</text>
</g>
<!-- n19&#45;&gt;c30 -->
<g id="edge37" class="edge">
<title>n19:e&#45;&gt;c30:w</title>
<path fill="none" stroke="black" d="M244.21,-641.5C273.18,-641.5 282.88,-641.5 307.48,-641.5"/>
<polygon fill="black" stroke="black" points="307.71,-645 317.71,-641.5 307.71,-638 307.71,-645"/>
</g>
<!-- n20 -->
<g id="node20" class="node">
<title>n20</title>
<polygon fill="none" stroke="black" points="1284.25,-422.04 1284.25,-436.96 1267.69,-447.5 1244.26,-447.5 1227.69,-436.96 1227.69,-422.04 1244.26,-411.5 1267.69,-411.5 1284.25,-422.04"/>
<text text-anchor="middle" x="1255.97" y="-425.8" font-family="Times,serif" font-size="14.00">out</text>
</g>
<!-- c30&#45;&gt;n11 -->
<g id="edge21" class="edge">
<title>c30:e&#45;&gt;n11:w</title>
<path fill="none" stroke="black" d="M490.71,-676.5C541.47,-676.5 482.11,-777.63 516.52,-792.65"/>
<polygon fill="black" stroke="black" points="516.24,-796.15 526.71,-794.5 517.5,-789.27 516.24,-796.15"/>
</g>
<!-- c30&#45;&gt;n12 -->
<g id="edge23" class="edge">
<title>c30:e&#45;&gt;n12:w</title>
<path fill="none" stroke="black" d="M490.71,-653.5C513.51,-653.5 504.23,-688.38 517,-699.28"/>
<polygon fill="black" stroke="black" points="516.12,-702.68 526.71,-702.5 518.32,-696.03 516.12,-702.68"/>
</g>
<!-- c30&#45;&gt;n13 -->
<g id="edge25" class="edge">
<title>c30:e&#45;&gt;n13:w</title>
<path fill="none" stroke="black" d="M490.71,-630.5C504.55,-630.5 507.81,-641.27 516.86,-646.15"/>
<polygon fill="black" stroke="black" points="516.17,-649.58 526.71,-648.5 517.8,-642.77 516.17,-649.58"/>
</g>
<!-- c30&#45;&gt;n14 -->
<g id="edge27" class="edge">
<title>c30:e&#45;&gt;n14:w</title>
<path fill="none" stroke="black" d="M490.71,-607.5C536,-607.5 486.9,-519.02 516.71,-504.5"/>
<polygon fill="black" stroke="black" points="517.59,-507.9 526.71,-502.5 516.22,-501.03 517.59,-507.9"/>
</g>
<!-- c30&#45;&gt;n15 -->
<g id="edge29" class="edge">
<title>c30:e&#45;&gt;n15:w</title>
<path fill="none" stroke="black" d="M490.71,-583.5C565.41,-583.5 459.52,-426.98 516.59,-411.7"/>
<polygon fill="black" stroke="black" points="517.19,-415.15 526.71,-410.5 516.37,-408.2 517.19,-415.15"/>
</g>
<!-- c30&#45;&gt;n16 -->
<g id="edge31" class="edge">
<title>c30:e&#45;&gt;n16:w</title>
<path fill="none" stroke="black" d="M490.71,-560.5C541.26,-560.5 481.94,-351.33 517.04,-321.92"/>
<polygon fill="black" stroke="black" points="518.45,-325.13 526.71,-318.5 516.12,-318.54 518.45,-325.13"/>
</g>
<!-- c30&#45;&gt;n17 -->
<g id="edge33" class="edge">
<title>c30:e&#45;&gt;n17:w</title>
<path fill="none" stroke="black" d="M490.71,-537.5C556.48,-537.5 467.9,-259.59 516.79,-229.19"/>
<polygon fill="black" stroke="black" points="517.97,-232.49 526.71,-226.5 516.14,-225.74 517.97,-232.49"/>
</g>
<!-- c30&#45;&gt;n18 -->
<g id="edge35" class="edge">
<title>c30:e&#45;&gt;n18:w</title>
<path fill="none" stroke="black" d="M490.71,-514.5C571.72,-514.5 453.45,-167.87 516.56,-136.73"/>
<polygon fill="black" stroke="black" points="517.69,-140.07 526.71,-134.5 516.19,-133.23 517.69,-140.07"/>
</g>
<!-- x0&#45;&gt;c30 -->
<g id="edge1" class="edge">
<title>x0:e&#45;&gt;c30:w</title>
<path fill="none" stroke="black" stroke-width="3" d="M293.4,-534.97C298.1,-538.16 301.33,-542.86 306.04,-546.04"/>
<polygon fill="none" stroke="black" stroke-width="3" points="293.21,-534.92 286.32,-537.04 281.71,-531.5 288.6,-529.37 293.21,-534.92"/>
<polygon fill="none" stroke="black" stroke-width="3" points="306.2,-546.09 313.09,-543.96 317.71,-549.5 310.82,-551.63 306.2,-546.09"/>
</g>
<!-- c31&#45;&gt;n20 -->
<g id="edge40" class="edge">
<title>c31:e&#45;&gt;n20:w</title>
<path fill="none" stroke="black" stroke-width="3" d="M1191.83,-429.5C1203.83,-429.5 1209.08,-429.5 1217.71,-429.5"/>
<polygon fill="black" stroke="black" stroke-width="3" points="1217.83,-433 1227.83,-429.5 1217.83,-426 1217.83,-433"/>
</g>
<!-- x1&#45;&gt;c31 -->
<g id="edge2" class="edge">
<title>x1:e&#45;&gt;c31:w</title>
<path fill="none" stroke="black" stroke-width="3" d="M489.4,-41.46C702.43,-39.97 813.48,-1.38 959.83,-161.5 1010.55,-216.98 926.92,-323.98 983.56,-336.33"/>
<polygon fill="none" stroke="black" stroke-width="3" points="489.21,-41.46 483.22,-45.48 477.21,-41.5 483.2,-37.48 489.21,-41.46"/>
<polygon fill="none" stroke="black" stroke-width="3" points="983.89,-336.36 990.24,-332.95 995.83,-337.5 989.48,-340.91 983.89,-336.36"/>
</g>
<!-- c32&#45;&gt;n1 -->
<g id="edge11" class="edge">
<title>c32:e&#45;&gt;n1:w</title>
<path fill="none" stroke="black" stroke-width="3" d="M809.86,-807.5C829.94,-807.5 824.82,-779.38 836.24,-769.72"/>
<polygon fill="black" stroke="black" stroke-width="3" points="837.49,-772.99 845.86,-766.5 835.27,-766.35 837.49,-772.99"/>
</g>
<!-- x2&#45;&gt;c32 -->
<g id="edge3" class="edge">
<title>x2:e&#45;&gt;c32:w</title>
<path fill="none" stroke="black" stroke-width="3" d="M489.3,-815.93C502.36,-816.96 509.33,-819.59 526.71,-821.5 562.75,-825.46 574.6,-829.51 605.52,-830.34"/>
<polygon fill="none" stroke="black" stroke-width="3" points="489.2,-815.93 483.06,-819.71 477.21,-815.5 483.35,-811.72 489.2,-815.93"/>
<polygon fill="none" stroke="black" stroke-width="3" points="605.86,-830.35 611.91,-826.42 617.86,-830.5 611.81,-834.42 605.86,-830.35"/>
</g>
<!-- c33&#45;&gt;n2 -->
<g id="edge38" class="edge">
<title>c33:e&#45;&gt;n2:w</title>
<path fill="none" stroke="black" stroke-width="3" d="M809.86,-709.5C828.94,-709.5 825.29,-683.93 836.2,-674.74"/>
<polygon fill="black" stroke="black" stroke-width="3" points="837.49,-678 845.86,-671.5 835.27,-671.36 837.49,-678"/>
</g>
<!-- x3&#45;&gt;c33 -->
<g id="edge4" class="edge">
<title>x3:e&#45;&gt;c33:w</title>
<path fill="none" stroke="black" stroke-width="3" d="M489.41,-736.45C538.29,-736.01 556.88,-732.99 605.84,-732.55"/>
<polygon fill="none" stroke="black" stroke-width="3" points="489.21,-736.45 483.23,-740.47 477.21,-736.5 483.19,-732.47 489.21,-736.45"/>
<polygon fill="none" stroke="black" stroke-width="3" points="605.86,-732.55 611.84,-728.53 617.86,-732.5 611.88,-736.53 605.86,-732.55"/>
</g>
<!-- c34&#45;&gt;n3 -->
<g id="edge41" class="edge">
<title>c34:e&#45;&gt;n3:w</title>
<path fill="none" stroke="black" stroke-width="3" d="M809.86,-605.5C825.43,-605.5 826.56,-589.31 836.03,-582.48"/>
<polygon fill="black" stroke="black" stroke-width="3" points="837.31,-585.75 845.86,-579.5 835.27,-579.06 837.31,-585.75"/>
</g>
<!-- x4&#45;&gt;c34 -->
<g id="edge5" class="edge">
<title>x4:e&#45;&gt;c34:w</title>
<path fill="none" stroke="black" stroke-width="3" d="M489.15,-467.97C526.79,-478.68 491.44,-545.52 526.71,-583.5 539.74,-597.53 579.94,-620.11 605.65,-626.66"/>
<polygon fill="none" stroke="black" stroke-width="3" points="489.12,-467.96 482.68,-471.2 477.21,-466.5 483.65,-463.26 489.12,-467.96"/>
<polygon fill="none" stroke="black" stroke-width="3" points="605.99,-626.71 612.52,-623.65 617.86,-628.5 611.33,-631.56 605.99,-626.71"/>
</g>
<!-- c35&#45;&gt;n4 -->
<g id="edge43" class="edge">
<title>c35:e&#45;&gt;n4:w</title>
<path fill="none" stroke="black" stroke-width="3" d="M809.86,-517.5C823.54,-517.5 827.01,-507.33 836.07,-502.72"/>
<polygon fill="black" stroke="black" stroke-width="3" points="836.88,-506.13 845.86,-500.5 835.33,-499.3 836.88,-506.13"/>
</g>
<!-- x5&#45;&gt;c35 -->
<g id="edge6" class="edge">
<title>x5:e&#45;&gt;c35:w</title>
<path fill="none" stroke="black" stroke-width="3" d="M488.23,-416.57C514.64,-430.98 577.99,-471.46 581.86,-475.5 601.13,-495.62 590,-528.06 605.89,-537.71"/>
<polygon fill="none" stroke="black" stroke-width="3" points="488.11,-416.51 480.99,-417.64 477.21,-411.5 484.33,-410.37 488.11,-416.51"/>
<polygon fill="none" stroke="black" stroke-width="3" points="606.17,-537.78 612.92,-535.24 617.86,-540.5 611.11,-543.03 606.17,-537.78"/>
</g>
<!-- c36&#45;&gt;n5 -->
<g id="edge45" class="edge">
<title>c36:e&#45;&gt;n5:w</title>
<path fill="none" stroke="black" stroke-width="3" d="M809.86,-429.5C821.86,-429.5 827.11,-429.5 835.73,-429.5"/>
<polygon fill="black" stroke="black" stroke-width="3" points="835.86,-433 845.86,-429.5 835.86,-426 835.86,-433"/>
</g>
<!-- x6&#45;&gt;c36 -->
<g id="edge7" class="edge">
<title>x6:e&#45;&gt;c36:w</title>
<path fill="none" stroke="black" stroke-width="3" d="M294.01,-364.35C418.83,-361.26 473.3,-312.91 581.86,-383.5 606.55,-399.56 590.21,-438.3 606.18,-449.45"/>
<polygon fill="none" stroke="black" stroke-width="3" points="293.71,-364.35 287.76,-368.43 281.71,-364.5 287.66,-360.43 293.71,-364.35"/>
<polygon fill="none" stroke="black" stroke-width="3" points="606.25,-449.47 613.06,-447.11 617.86,-452.5 611.04,-454.86 606.25,-449.47"/>
</g>
<!-- c37&#45;&gt;n6 -->
<g id="edge47" class="edge">
<title>c37:e&#45;&gt;n6:w</title>
<path fill="none" stroke="black" stroke-width="3" d="M809.86,-341.5C823.54,-341.5 827.01,-351.67 836.07,-356.28"/>
<polygon fill="black" stroke="black" stroke-width="3" points="835.33,-359.7 845.86,-358.5 836.88,-352.87 835.33,-359.7"/>
</g>
<!-- x7&#45;&gt;c37 -->
<g id="edge8" class="edge">
<title>x7:e&#45;&gt;c37:w</title>
<path fill="none" stroke="black" stroke-width="3" d="M293.99,-290.3C418.52,-286.28 472.23,-223.07 581.86,-291.5 608.23,-307.96 589.15,-350.04 606.22,-361.55"/>
<polygon fill="none" stroke="black" stroke-width="3" points="293.71,-290.31 287.77,-294.4 281.71,-290.5 287.64,-286.4 293.71,-290.31"/>
<polygon fill="none" stroke="black" stroke-width="3" points="606.23,-361.55 613.02,-359.15 617.86,-364.5 611.06,-366.9 606.23,-361.55"/>
</g>
<!-- c38&#45;&gt;n7 -->
<g id="edge49" class="edge">
<title>c38:e&#45;&gt;n7:w</title>
<path fill="none" stroke="black" stroke-width="3" d="M809.86,-251.5C823.54,-251.5 827.01,-261.67 836.07,-266.28"/>
<polygon fill="black" stroke="black" stroke-width="3" points="835.33,-269.7 845.86,-268.5 836.88,-262.87 835.33,-269.7"/>
</g>
<!-- x8&#45;&gt;c38 -->
<g id="edge9" class="edge">
<title>x8:e&#45;&gt;c38:w</title>
<path fill="none" stroke="black" stroke-width="3" d="M294.03,-226.22C419.01,-220.52 472.04,-130.4 581.86,-199.5 608.75,-216.42 588.7,-259.65 606,-271.47"/>
<polygon fill="none" stroke="black" stroke-width="3" points="293.71,-226.23 287.8,-230.36 281.71,-226.5 287.62,-222.36 293.71,-226.23"/>
<polygon fill="none" stroke="black" stroke-width="3" points="606.23,-271.53 613.04,-269.14 617.86,-274.5 611.06,-276.89 606.23,-271.53"/>
</g>
<!-- c39&#45;&gt;n8 -->
<g id="edge51" class="edge">
<title>c39:e&#45;&gt;n8:w</title>
<path fill="none" stroke="black" stroke-width="3" d="M809.86,-160.5C826.01,-160.5 826.41,-178.28 836.16,-185.5"/>
<polygon fill="black" stroke="black" stroke-width="3" points="835.27,-188.89 845.86,-188.5 837.34,-182.2 835.27,-188.89"/>
</g>
<!-- x9&#45;&gt;c39 -->
<g id="edge10" class="edge">
<title>x9:e&#45;&gt;c39:w</title>
<path fill="none" stroke="black" stroke-width="3" d="M293.74,-153.18C419.82,-146.52 471.27,-37.52 581.86,-107.5 609,-124.68 588.48,-168.46 605.89,-180.43"/>
<polygon fill="none" stroke="black" stroke-width="3" points="293.71,-153.18 287.81,-157.34 281.71,-153.5 287.6,-149.34 293.71,-153.18"/>
<polygon fill="none" stroke="black" stroke-width="3" points="606.23,-180.52 613.04,-178.14 617.86,-183.5 611.05,-185.89 606.23,-180.52"/>
</g>
</g>
</svg>
