<?xml version="1.0" encoding="UTF-8" standalone="no"?>
<!DOCTYPE svg PUBLIC "-//W3C//DTD SVG 1.1//EN"
 "http://www.w3.org/Graphics/SVG/1.1/DTD/svg11.dtd">
<!-- Generated by graphviz version 2.43.0 (0)
 -->
<!-- Title: DMux Pages: 1 -->
<svg width="1887pt" height="429pt"
 viewBox="0.00 0.00 1886.82 429.00" xmlns="http://www.w3.org/2000/svg" xmlns:xlink="http://www.w3.org/1999/xlink">
<g id="graph0" class="graph" transform="scale(1 1) rotate(0) translate(4 425)">
<title>DMux</title>
<polygon fill="white" stroke="transparent" points="-4,4 -4,-425 1882.82,-425 1882.82,4 -4,4"/>
<text text-anchor="middle" x="939.41" y="-7.8" font-family="Times,serif" font-size="14.00">DMux</text>
<!-- n1 -->
<g id="node1" class="node">
<title>n1</title>
<polygon fill="none" stroke="black" points="940.25,-59 880.26,-41 940.25,-23 1000.24,-41 940.25,-59"/>
<text text-anchor="middle" x="940.25" y="-37.3" font-family="Times,serif" font-size="14.00">NotSel</text>
</g>
<!-- n2 -->
<g id="node2" class="node">
<title>n2</title>
<polygon fill="none" stroke="black" points="1826.77,-152.54 1826.77,-167.46 1810.95,-178 1788.58,-178 1772.77,-167.46 1772.77,-152.54 1788.58,-142 1810.95,-142 1826.77,-152.54"/>
<text text-anchor="middle" x="1799.77" y="-156.3" font-family="Times,serif" font-size="14.00">a</text>
</g>
<!-- n3 -->
<g id="node3" class="node">
<title>n3</title>
<polygon fill="none" stroke="black" points="415.38,-367 350.36,-349 415.38,-331 480.4,-349 415.38,-367"/>
<text text-anchor="middle" x="415.38" y="-345.3" font-family="Times,serif" font-size="14.00">and_1.a</text>
</g>
<!-- n4 -->
<g id="node4" class="node">
<title>n4</title>
<polygon fill="none" stroke="black" points="940.25,-193 830.99,-175 940.25,-157 1049.51,-175 940.25,-193"/>
<text text-anchor="middle" x="940.25" y="-171.3" font-family="Times,serif" font-size="14.00">and_1.aNandb</text>
</g>
<!-- c22 -->
<g id="node21" class="node">
<title>c22</title>
<polygon fill="none" stroke="black" points="1095.74,-164 1095.74,-210 1319.74,-210 1319.74,-164 1095.74,-164"/>
<text text-anchor="middle" x="1108.74" y="-194.8" font-family="Times,serif" font-size="14.00">a</text>
<polyline fill="none" stroke="black" points="1095.74,-187 1121.74,-187 "/>
<text text-anchor="middle" x="1108.74" y="-171.8" font-family="Times,serif" font-size="14.00">b</text>
<polyline fill="none" stroke="black" points="1121.74,-164 1121.74,-210 "/>
<text text-anchor="middle" x="1200.74" y="-190.8" font-family="Times,serif" font-size="14.00">and_1.not_1.nand_0</text>
<text text-anchor="middle" x="1200.74" y="-175.8" font-family="Times,serif" font-size="14.00">Nand</text>
<polyline fill="none" stroke="black" points="1279.74,-164 1279.74,-210 "/>
<text text-anchor="middle" x="1299.74" y="-183.3" font-family="Times,serif" font-size="14.00">out</text>
</g>
<!-- n4&#45;&gt;c22 -->
<g id="edge27" class="edge">
<title>n4:e&#45;&gt;c22:w</title>
<path fill="none" stroke="black" d="M1050.25,-175C1066.52,-175 1072.97,-175 1085.4,-175"/>
<polygon fill="black" stroke="black" points="1085.74,-178.5 1095.74,-175 1085.74,-171.5 1085.74,-178.5"/>
</g>
<!-- n4&#45;&gt;c22 -->
<g id="edge28" class="edge">
<title>n4:e&#45;&gt;c22:w</title>
<path fill="none" stroke="black" d="M1050.25,-175C1069.18,-175 1072.28,-191.46 1085.77,-197.12"/>
<polygon fill="black" stroke="black" points="1085.26,-200.58 1095.74,-199 1086.56,-193.71 1085.26,-200.58"/>
</g>
<!-- x0 -->
<g id="node25" class="node">
<title>x0</title>
<path fill="none" stroke="black" d="M1222.74,-145C1222.74,-145 1192.74,-145 1192.74,-145 1186.74,-145 1180.74,-139 1180.74,-133 1180.74,-133 1180.74,-121 1180.74,-121 1180.74,-115 1186.74,-109 1192.74,-109 1192.74,-109 1222.74,-109 1222.74,-109 1228.74,-109 1234.74,-115 1234.74,-121 1234.74,-121 1234.74,-133 1234.74,-133 1234.74,-139 1228.74,-145 1222.74,-145"/>
<text text-anchor="middle" x="1207.74" y="-123.3" font-family="Times,serif" font-size="14.00">BUF</text>
</g>
<!-- n4&#45;&gt;x0 -->
<g id="edge29" class="edge">
<title>n4:e&#45;&gt;x0:w</title>
<path fill="none" stroke="black" d="M1050.25,-175C1072.52,-175 1074.99,-162.09 1095.74,-154 1128.85,-141.09 1138.73,-129.4 1169.48,-127.33"/>
<polygon fill="black" stroke="black" points="1169.86,-130.82 1179.74,-127 1169.63,-123.82 1169.86,-130.82"/>
</g>
<!-- n5 -->
<g id="node5" class="node">
<title>n5</title>
<polygon fill="none" stroke="black" points="415.38,-71 349.02,-53 415.38,-35 481.74,-53 415.38,-71"/>
<text text-anchor="middle" x="415.38" y="-49.3" font-family="Times,serif" font-size="14.00">and_1.b</text>
</g>
<!-- c21 -->
<g id="node20" class="node">
<title>c21</title>
<polygon fill="none" stroke="black" points="582.76,-152 582.76,-198 762.76,-198 762.76,-152 582.76,-152"/>
<text text-anchor="middle" x="595.76" y="-182.8" font-family="Times,serif" font-size="14.00">a</text>
<polyline fill="none" stroke="black" points="582.76,-175 608.76,-175 "/>
<text text-anchor="middle" x="595.76" y="-159.8" font-family="Times,serif" font-size="14.00">b</text>
<polyline fill="none" stroke="black" points="608.76,-152 608.76,-198 "/>
<text text-anchor="middle" x="665.76" y="-178.8" font-family="Times,serif" font-size="14.00">and_1.nand_0</text>
<text text-anchor="middle" x="665.76" y="-163.8" font-family="Times,serif" font-size="14.00">Nand</text>
<polyline fill="none" stroke="black" points="722.76,-152 722.76,-198 "/>
<text text-anchor="middle" x="742.76" y="-171.3" font-family="Times,serif" font-size="14.00">out</text>
</g>
<!-- n5&#45;&gt;c21 -->
<g id="edge31" class="edge">
<title>n5:e&#45;&gt;c21:w</title>
<path fill="none" stroke="black" d="M482.38,-53C505.46,-53 508.42,-66.71 524.76,-83 553.02,-111.17 540.76,-154.68 571.79,-161.95"/>
<polygon fill="black" stroke="black" points="571.45,-165.44 581.76,-163 572.18,-158.47 571.45,-165.44"/>
</g>
<!-- x7 -->
<g id="node32" class="node">
<title>x7</title>
<path fill="none" stroke="black" d="M687.76,-113C687.76,-113 657.76,-113 657.76,-113 651.76,-113 645.76,-107 645.76,-101 645.76,-101 645.76,-89 645.76,-89 645.76,-83 651.76,-77 657.76,-77 657.76,-77 687.76,-77 687.76,-77 693.76,-77 699.76,-83 699.76,-89 699.76,-89 699.76,-101 699.76,-101 699.76,-107 693.76,-113 687.76,-113"/>
<text text-anchor="middle" x="672.76" y="-91.3" font-family="Times,serif" font-size="14.00">BUF</text>
</g>
<!-- n5&#45;&gt;x7 -->
<g id="edge32" class="edge">
<title>n5:e&#45;&gt;x7:w</title>
<path fill="none" stroke="black" d="M482.38,-53C553.43,-53 568.83,-91.15 634.67,-94.73"/>
<polygon fill="black" stroke="black" points="634.67,-98.23 644.76,-95 634.86,-91.24 634.67,-98.23"/>
</g>
<!-- x9 -->
<g id="node34" class="node">
<title>x9</title>
<path fill="none" stroke="black" d="M687.76,-59C687.76,-59 657.76,-59 657.76,-59 651.76,-59 645.76,-53 645.76,-47 645.76,-47 645.76,-35 645.76,-35 645.76,-29 651.76,-23 657.76,-23 657.76,-23 687.76,-23 687.76,-23 693.76,-23 699.76,-29 699.76,-35 699.76,-35 699.76,-47 699.76,-47 699.76,-53 693.76,-59 687.76,-59"/>
<text text-anchor="middle" x="672.76" y="-37.3" font-family="Times,serif" font-size="14.00">BUF</text>
</g>
<!-- n5&#45;&gt;x9 -->
<g id="edge33" class="edge">
<title>n5:e&#45;&gt;x9:w</title>
<path fill="none" stroke="black" d="M482.38,-53C551.21,-53 570.54,-42.14 634.54,-41.08"/>
<polygon fill="black" stroke="black" points="634.79,-44.58 644.76,-41 634.73,-37.58 634.79,-44.58"/>
</g>
<!-- n6 -->
<g id="node6" class="node">
<title>n6</title>
<polygon fill="none" stroke="black" points="1475.23,-145 1365.13,-127 1475.23,-109 1585.33,-127 1475.23,-145"/>
<text text-anchor="middle" x="1475.23" y="-123.3" font-family="Times,serif" font-size="14.00">and_1.not_1.in</text>
</g>
<!-- n7 -->
<g id="node7" class="node">
<title>n7</title>
<polygon fill="none" stroke="black" points="1475.23,-205 1355.75,-187 1475.23,-169 1594.71,-187 1475.23,-205"/>
<text text-anchor="middle" x="1475.23" y="-183.3" font-family="Times,serif" font-size="14.00">and_1.not_1.out</text>
</g>
<!-- x1 -->
<g id="node26" class="node">
<title>x1</title>
<path fill="none" stroke="black" d="M1672.72,-232C1672.72,-232 1642.72,-232 1642.72,-232 1636.72,-232 1630.72,-226 1630.72,-220 1630.72,-220 1630.72,-208 1630.72,-208 1630.72,-202 1636.72,-196 1642.72,-196 1642.72,-196 1672.72,-196 1672.72,-196 1678.72,-196 1684.72,-202 1684.72,-208 1684.72,-208 1684.72,-220 1684.72,-220 1684.72,-226 1678.72,-232 1672.72,-232"/>
<text text-anchor="middle" x="1657.72" y="-210.3" font-family="Times,serif" font-size="14.00">BUF</text>
</g>
<!-- n7&#45;&gt;x1 -->
<g id="edge36" class="edge">
<title>n7:e&#45;&gt;x1:w</title>
<path fill="none" stroke="black" d="M1594.72,-187C1610.66,-187 1611.36,-204.15 1621.1,-211.11"/>
<polygon fill="black" stroke="black" points="1620.14,-214.48 1630.72,-214 1622.15,-207.77 1620.14,-214.48"/>
</g>
<!-- x10 -->
<g id="node35" class="node">
<title>x10</title>
<path fill="none" stroke="black" d="M1672.72,-178C1672.72,-178 1642.72,-178 1642.72,-178 1636.72,-178 1630.72,-172 1630.72,-166 1630.72,-166 1630.72,-154 1630.72,-154 1630.72,-148 1636.72,-142 1642.72,-142 1642.72,-142 1672.72,-142 1672.72,-142 1678.72,-142 1684.72,-148 1684.72,-154 1684.72,-154 1684.72,-166 1684.72,-166 1684.72,-172 1678.72,-178 1672.72,-178"/>
<text text-anchor="middle" x="1657.72" y="-156.3" font-family="Times,serif" font-size="14.00">BUF</text>
</g>
<!-- n7&#45;&gt;x10 -->
<g id="edge37" class="edge">
<title>n7:e&#45;&gt;x10:w</title>
<path fill="none" stroke="black" d="M1594.72,-187C1610.66,-187 1611.36,-169.85 1621.1,-162.89"/>
<polygon fill="black" stroke="black" points="1622.15,-166.23 1630.72,-160 1620.14,-159.52 1622.15,-166.23"/>
</g>
<!-- n8 -->
<g id="node8" class="node">
<title>n8</title>
<polygon fill="none" stroke="black" points="1799.77,-232 1720.67,-214 1799.77,-196 1878.86,-214 1799.77,-232"/>
<text text-anchor="middle" x="1799.77" y="-210.3" font-family="Times,serif" font-size="14.00">and_1.out</text>
</g>
<!-- n9 -->
<g id="node9" class="node">
<title>n9</title>
<polygon fill="none" stroke="black" points="415.38,-421 350.36,-403 415.38,-385 480.4,-403 415.38,-421"/>
<text text-anchor="middle" x="415.38" y="-399.3" font-family="Times,serif" font-size="14.00">and_2.a</text>
</g>
<!-- n10 -->
<g id="node10" class="node">
<title>n10</title>
<polygon fill="none" stroke="black" points="415.38,-313 306.12,-295 415.38,-277 524.64,-295 415.38,-313"/>
<text text-anchor="middle" x="415.38" y="-291.3" font-family="Times,serif" font-size="14.00">and_2.aNandb</text>
</g>
<!-- c24 -->
<g id="node23" class="node">
<title>c24</title>
<polygon fill="none" stroke="black" points="560.76,-284 560.76,-330 784.76,-330 784.76,-284 560.76,-284"/>
<text text-anchor="middle" x="573.76" y="-314.8" font-family="Times,serif" font-size="14.00">a</text>
<polyline fill="none" stroke="black" points="560.76,-307 586.76,-307 "/>
<text text-anchor="middle" x="573.76" y="-291.8" font-family="Times,serif" font-size="14.00">b</text>
<polyline fill="none" stroke="black" points="586.76,-284 586.76,-330 "/>
<text text-anchor="middle" x="665.76" y="-310.8" font-family="Times,serif" font-size="14.00">and_2.not_1.nand_0</text>
<text text-anchor="middle" x="665.76" y="-295.8" font-family="Times,serif" font-size="14.00">Nand</text>
<polyline fill="none" stroke="black" points="744.76,-284 744.76,-330 "/>
<text text-anchor="middle" x="764.76" y="-303.3" font-family="Times,serif" font-size="14.00">out</text>
</g>
<!-- n10&#45;&gt;c24 -->
<g id="edge3" class="edge">
<title>n10:e&#45;&gt;c24:w</title>
<path fill="none" stroke="black" d="M524.76,-295C536.76,-295 542.01,-295 550.63,-295"/>
<polygon fill="black" stroke="black" points="550.76,-298.5 560.76,-295 550.76,-291.5 550.76,-298.5"/>
</g>
<!-- n10&#45;&gt;c24 -->
<g id="edge4" class="edge">
<title>n10:e&#45;&gt;c24:w</title>
<path fill="none" stroke="black" d="M524.76,-295C539.93,-295 541.6,-309.94 551.08,-316.25"/>
<polygon fill="black" stroke="black" points="550.18,-319.63 560.76,-319 552.1,-312.9 550.18,-319.63"/>
</g>
<!-- x3 -->
<g id="node28" class="node">
<title>x3</title>
<path fill="none" stroke="black" d="M687.76,-265C687.76,-265 657.76,-265 657.76,-265 651.76,-265 645.76,-259 645.76,-253 645.76,-253 645.76,-241 645.76,-241 645.76,-235 651.76,-229 657.76,-229 657.76,-229 687.76,-229 687.76,-229 693.76,-229 699.76,-235 699.76,-241 699.76,-241 699.76,-253 699.76,-253 699.76,-259 693.76,-265 687.76,-265"/>
<text text-anchor="middle" x="672.76" y="-243.3" font-family="Times,serif" font-size="14.00">BUF</text>
</g>
<!-- n10&#45;&gt;x3 -->
<g id="edge5" class="edge">
<title>n10:e&#45;&gt;x3:w</title>
<path fill="none" stroke="black" d="M524.76,-295C543.28,-295 543.84,-281.55 560.76,-274 593.22,-259.52 603.63,-249.11 634.48,-247.29"/>
<polygon fill="black" stroke="black" points="634.86,-250.78 644.76,-247 634.67,-243.78 634.86,-250.78"/>
</g>
<!-- n11 -->
<g id="node11" class="node">
<title>n11</title>
<polygon fill="none" stroke="black" points="415.38,-182 349.02,-164 415.38,-146 481.74,-164 415.38,-182"/>
<text text-anchor="middle" x="415.38" y="-160.3" font-family="Times,serif" font-size="14.00">and_2.b</text>
</g>
<!-- n12 -->
<g id="node12" class="node">
<title>n12</title>
<polygon fill="none" stroke="black" points="940.25,-265 830.15,-247 940.25,-229 1050.35,-247 940.25,-265"/>
<text text-anchor="middle" x="940.25" y="-243.3" font-family="Times,serif" font-size="14.00">and_2.not_1.in</text>
</g>
<!-- n13 -->
<g id="node13" class="node">
<title>n13</title>
<polygon fill="none" stroke="black" points="940.25,-325 820.77,-307 940.25,-289 1059.73,-307 940.25,-325"/>
<text text-anchor="middle" x="940.25" y="-303.3" font-family="Times,serif" font-size="14.00">and_2.not_1.out</text>
</g>
<!-- x4 -->
<g id="node29" class="node">
<title>x4</title>
<path fill="none" stroke="black" d="M1222.74,-337C1222.74,-337 1192.74,-337 1192.74,-337 1186.74,-337 1180.74,-331 1180.74,-325 1180.74,-325 1180.74,-313 1180.74,-313 1180.74,-307 1186.74,-301 1192.74,-301 1192.74,-301 1222.74,-301 1222.74,-301 1228.74,-301 1234.74,-307 1234.74,-313 1234.74,-313 1234.74,-325 1234.74,-325 1234.74,-331 1228.74,-337 1222.74,-337"/>
<text text-anchor="middle" x="1207.74" y="-315.3" font-family="Times,serif" font-size="14.00">BUF</text>
</g>
<!-- n13&#45;&gt;x4 -->
<g id="edge10" class="edge">
<title>n13:e&#45;&gt;x4:w</title>
<path fill="none" stroke="black" d="M1059.74,-307C1109.78,-307 1124.26,-317.46 1169.58,-318.85"/>
<polygon fill="black" stroke="black" points="1169.69,-322.35 1179.74,-319 1169.79,-315.35 1169.69,-322.35"/>
</g>
<!-- x11 -->
<g id="node36" class="node">
<title>x11</title>
<path fill="none" stroke="black" d="M1222.74,-283C1222.74,-283 1192.74,-283 1192.74,-283 1186.74,-283 1180.74,-277 1180.74,-271 1180.74,-271 1180.74,-259 1180.74,-259 1180.74,-253 1186.74,-247 1192.74,-247 1192.74,-247 1222.74,-247 1222.74,-247 1228.74,-247 1234.74,-253 1234.74,-259 1234.74,-259 1234.74,-271 1234.74,-271 1234.74,-277 1228.74,-283 1222.74,-283"/>
<text text-anchor="middle" x="1207.74" y="-261.3" font-family="Times,serif" font-size="14.00">BUF</text>
</g>
<!-- n13&#45;&gt;x11 -->
<g id="edge9" class="edge">
<title>n13:e&#45;&gt;x11:w</title>
<path fill="none" stroke="black" d="M1059.74,-307C1077.07,-307 1079.48,-297.99 1095.74,-292 1129.09,-279.72 1138.77,-267.52 1169.49,-265.34"/>
<polygon fill="black" stroke="black" points="1169.86,-268.83 1179.74,-265 1169.63,-261.84 1169.86,-268.83"/>
</g>
<!-- n14 -->
<g id="node14" class="node">
<title>n14</title>
<polygon fill="none" stroke="black" points="1475.23,-337 1396.14,-319 1475.23,-301 1554.33,-319 1475.23,-337"/>
<text text-anchor="middle" x="1475.23" y="-315.3" font-family="Times,serif" font-size="14.00">and_2.out</text>
</g>
<!-- n15 -->
<g id="node15" class="node">
<title>n15</title>
<polygon fill="none" stroke="black" points="1502.23,-257.54 1502.23,-272.46 1486.41,-283 1464.05,-283 1448.23,-272.46 1448.23,-257.54 1464.05,-247 1486.41,-247 1502.23,-257.54"/>
<text text-anchor="middle" x="1475.23" y="-261.3" font-family="Times,serif" font-size="14.00">b</text>
</g>
<!-- n16 -->
<g id="node16" class="node">
<title>n16</title>
<polygon fill="none" stroke="black" points="54,-299.54 54,-314.46 38.18,-325 15.82,-325 0,-314.46 0,-299.54 15.82,-289 38.18,-289 54,-299.54"/>
<text text-anchor="middle" x="27" y="-303.3" font-family="Times,serif" font-size="14.00">in</text>
</g>
<!-- n16&#45;&gt;c21 -->
<g id="edge13" class="edge">
<title>n16:e&#45;&gt;c21:w</title>
<path fill="none" stroke="black" d="M54,-307C170.98,-307 445.9,-193.47 571.53,-187.26"/>
<polygon fill="black" stroke="black" points="571.85,-190.76 581.76,-187 571.67,-183.76 571.85,-190.76"/>
</g>
<!-- c23 -->
<g id="node22" class="node">
<title>c23</title>
<polygon fill="none" stroke="black" points="90,-201 90,-247 270,-247 270,-201 90,-201"/>
<text text-anchor="middle" x="103" y="-231.8" font-family="Times,serif" font-size="14.00">a</text>
<polyline fill="none" stroke="black" points="90,-224 116,-224 "/>
<text text-anchor="middle" x="103" y="-208.8" font-family="Times,serif" font-size="14.00">b</text>
<polyline fill="none" stroke="black" points="116,-201 116,-247 "/>
<text text-anchor="middle" x="173" y="-227.8" font-family="Times,serif" font-size="14.00">and_2.nand_0</text>
<text text-anchor="middle" x="173" y="-212.8" font-family="Times,serif" font-size="14.00">Nand</text>
<polyline fill="none" stroke="black" points="230,-201 230,-247 "/>
<text text-anchor="middle" x="250" y="-220.3" font-family="Times,serif" font-size="14.00">out</text>
</g>
<!-- n16&#45;&gt;c23 -->
<g id="edge14" class="edge">
<title>n16:e&#45;&gt;c23:w</title>
<path fill="none" stroke="black" d="M54,-307C85.23,-307 61.8,-251.67 80.23,-238.7"/>
<polygon fill="black" stroke="black" points="81.29,-242.03 90,-236 79.43,-235.29 81.29,-242.03"/>
</g>
<!-- x2 -->
<g id="node27" class="node">
<title>x2</title>
<path fill="none" stroke="black" d="M195,-356C195,-356 165,-356 165,-356 159,-356 153,-350 153,-344 153,-344 153,-332 153,-332 153,-326 159,-320 165,-320 165,-320 195,-320 195,-320 201,-320 207,-326 207,-332 207,-332 207,-344 207,-344 207,-350 201,-356 195,-356"/>
<text text-anchor="middle" x="180" y="-334.3" font-family="Times,serif" font-size="14.00">BUF</text>
</g>
<!-- n16&#45;&gt;x2 -->
<g id="edge15" class="edge">
<title>n16:e&#45;&gt;x2:w</title>
<path fill="none" stroke="black" d="M54,-307C96.11,-307 105.04,-333.35 141.97,-337.46"/>
<polygon fill="black" stroke="black" points="141.83,-340.96 152,-338 142.2,-333.97 141.83,-340.96"/>
</g>
<!-- x6 -->
<g id="node31" class="node">
<title>x6</title>
<path fill="none" stroke="black" d="M195,-416C195,-416 165,-416 165,-416 159,-416 153,-410 153,-404 153,-404 153,-392 153,-392 153,-386 159,-380 165,-380 165,-380 195,-380 195,-380 201,-380 207,-386 207,-392 207,-392 207,-404 207,-404 207,-410 201,-416 195,-416"/>
<text text-anchor="middle" x="180" y="-394.3" font-family="Times,serif" font-size="14.00">BUF</text>
</g>
<!-- n16&#45;&gt;x6 -->
<g id="edge16" class="edge">
<title>n16:e&#45;&gt;x6:w</title>
<path fill="none" stroke="black" d="M54,-307C84.34,-307 67.85,-344.27 90,-365 110.12,-383.83 118.71,-395.13 141.92,-397.52"/>
<polygon fill="black" stroke="black" points="141.85,-401.02 152,-398 142.18,-394.03 141.85,-401.02"/>
</g>
<!-- n17 -->
<g id="node17" class="node">
<title>n17</title>
<polygon fill="none" stroke="black" points="415.38,-128 347.34,-110 415.38,-92 483.41,-110 415.38,-128"/>
<text text-anchor="middle" x="415.38" y="-106.3" font-family="Times,serif" font-size="14.00">not_0.in</text>
</g>
<!-- n18 -->
<g id="node18" class="node">
<title>n18</title>
<polygon fill="none" stroke="black" points="940.25,-113 864.17,-95 940.25,-77 1016.33,-95 940.25,-113"/>
<text text-anchor="middle" x="940.25" y="-91.3" font-family="Times,serif" font-size="14.00">not_0.out</text>
</g>
<!-- n19 -->
<g id="node19" class="node">
<title>n19</title>
<polygon fill="none" stroke="black" points="54,-102.54 54,-117.46 38.18,-128 15.82,-128 0,-117.46 0,-102.54 15.82,-92 38.18,-92 54,-102.54"/>
<text text-anchor="middle" x="27" y="-106.3" font-family="Times,serif" font-size="14.00">sel</text>
</g>
<!-- n19&#45;&gt;c23 -->
<g id="edge19" class="edge">
<title>n19:e&#45;&gt;c23:w</title>
<path fill="none" stroke="black" d="M54,-110C97.94,-110 51.46,-195.22 79.87,-209.87"/>
<polygon fill="black" stroke="black" points="79.49,-213.37 90,-212 80.93,-206.52 79.49,-213.37"/>
</g>
<!-- c25 -->
<g id="node24" class="node">
<title>c25</title>
<polygon fill="none" stroke="black" points="91.5,-27 91.5,-73 268.5,-73 268.5,-27 91.5,-27"/>
<text text-anchor="middle" x="104.5" y="-57.8" font-family="Times,serif" font-size="14.00">a</text>
<polyline fill="none" stroke="black" points="91.5,-50 117.5,-50 "/>
<text text-anchor="middle" x="104.5" y="-34.8" font-family="Times,serif" font-size="14.00">b</text>
<polyline fill="none" stroke="black" points="117.5,-27 117.5,-73 "/>
<text text-anchor="middle" x="173" y="-53.8" font-family="Times,serif" font-size="14.00">not_0.nand_0</text>
<text text-anchor="middle" x="173" y="-38.8" font-family="Times,serif" font-size="14.00">Nand</text>
<polyline fill="none" stroke="black" points="228.5,-27 228.5,-73 "/>
<text text-anchor="middle" x="248.5" y="-46.3" font-family="Times,serif" font-size="14.00">out</text>
</g>
<!-- n19&#45;&gt;c25 -->
<g id="edge20" class="edge">
<title>n19:e&#45;&gt;c25:w</title>
<path fill="none" stroke="black" d="M54,-110C85.58,-110 61.58,-53.89 80.13,-40.73"/>
<polygon fill="black" stroke="black" points="81.3,-44.04 90,-38 79.43,-37.3 81.3,-44.04"/>
</g>
<!-- n19&#45;&gt;c25 -->
<g id="edge21" class="edge">
<title>n19:e&#45;&gt;c25:w</title>
<path fill="none" stroke="black" d="M54,-110C76.5,-110 67.68,-75.83 80.39,-65.15"/>
<polygon fill="black" stroke="black" points="81.59,-68.44 90,-62 79.41,-61.79 81.59,-68.44"/>
</g>
<!-- x5 -->
<g id="node30" class="node">
<title>x5</title>
<path fill="none" stroke="black" d="M195,-182C195,-182 165,-182 165,-182 159,-182 153,-176 153,-170 153,-170 153,-158 153,-158 153,-152 159,-146 165,-146 165,-146 195,-146 195,-146 201,-146 207,-152 207,-158 207,-158 207,-170 207,-170 207,-176 201,-182 195,-182"/>
<text text-anchor="middle" x="180" y="-160.3" font-family="Times,serif" font-size="14.00">BUF</text>
</g>
<!-- n19&#45;&gt;x5 -->
<g id="edge22" class="edge">
<title>n19:e&#45;&gt;x5:w</title>
<path fill="none" stroke="black" d="M54,-110C74,-110 72.71,-126.94 90,-137 112.73,-150.23 120.14,-160.98 141.77,-163.46"/>
<polygon fill="black" stroke="black" points="141.83,-166.97 152,-164 142.2,-159.98 141.83,-166.97"/>
</g>
<!-- x8 -->
<g id="node33" class="node">
<title>x8</title>
<path fill="none" stroke="black" d="M195,-128C195,-128 165,-128 165,-128 159,-128 153,-122 153,-116 153,-116 153,-104 153,-104 153,-98 159,-92 165,-92 165,-92 195,-92 195,-92 201,-92 207,-98 207,-104 207,-104 207,-116 207,-116 207,-122 201,-128 195,-128"/>
<text text-anchor="middle" x="180" y="-106.3" font-family="Times,serif" font-size="14.00">BUF</text>
</g>
<!-- n19&#45;&gt;x8 -->
<g id="edge23" class="edge">
<title>n19:e&#45;&gt;x8:w</title>
<path fill="none" stroke="black" d="M54,-110C93.98,-110 106.44,-110 141.9,-110"/>
<polygon fill="black" stroke="black" points="142,-113.5 152,-110 142,-106.5 142,-113.5"/>
</g>
<!-- c21&#45;&gt;n4 -->
<g id="edge26" class="edge">
<title>c21:e&#45;&gt;n4:w</title>
<path fill="none" stroke="black" d="M763.76,-175C789.62,-175 798.51,-175 820.12,-175"/>
<polygon fill="black" stroke="black" points="820.25,-178.5 830.25,-175 820.25,-171.5 820.25,-178.5"/>
</g>
<!-- c22&#45;&gt;n7 -->
<g id="edge35" class="edge">
<title>c22:e&#45;&gt;n7:w</title>
<path fill="none" stroke="black" d="M1319.74,-187C1331.74,-187 1336.99,-187 1345.62,-187"/>
<polygon fill="black" stroke="black" points="1345.74,-190.5 1355.74,-187 1345.74,-183.5 1345.74,-190.5"/>
</g>
<!-- c23&#45;&gt;n10 -->
<g id="edge2" class="edge">
<title>c23:e&#45;&gt;n10:w</title>
<path fill="none" stroke="black" d="M270,-224C301.23,-224 277.8,-279.33 296.23,-292.3"/>
<polygon fill="black" stroke="black" points="295.43,-295.71 306,-295 297.29,-288.97 295.43,-295.71"/>
</g>
<!-- c24&#45;&gt;n13 -->
<g id="edge8" class="edge">
<title>c24:e&#45;&gt;n13:w</title>
<path fill="none" stroke="black" d="M784.76,-307C796.76,-307 802.01,-307 810.63,-307"/>
<polygon fill="black" stroke="black" points="810.76,-310.5 820.76,-307 810.76,-303.5 810.76,-310.5"/>
</g>
<!-- c25&#45;&gt;n5 -->
<g id="edge30" class="edge">
<title>c25:e&#45;&gt;n5:w</title>
<path fill="none" stroke="black" d="M270,-50C301.18,-50 311.4,-52.4 338.16,-52.91"/>
<polygon fill="black" stroke="black" points="338.35,-56.41 348.38,-53 338.41,-49.41 338.35,-56.41"/>
</g>
<!-- x0&#45;&gt;n6 -->
<g id="edge34" class="edge">
<title>x0:e&#45;&gt;n6:w</title>
<path fill="none" stroke="black" d="M1235.74,-127C1289.28,-127 1305.17,-127 1354,-127"/>
<polygon fill="black" stroke="black" points="1354.23,-130.5 1364.23,-127 1354.23,-123.5 1354.23,-130.5"/>
</g>
<!-- x1&#45;&gt;n8 -->
<g id="edge38" class="edge">
<title>x1:e&#45;&gt;n8:w</title>
<path fill="none" stroke="black" d="M1684.72,-214C1696.72,-214 1701.97,-214 1710.6,-214"/>
<polygon fill="black" stroke="black" points="1710.72,-217.5 1720.72,-214 1710.72,-210.5 1710.72,-217.5"/>
</g>
<!-- x2&#45;&gt;n3 -->
<g id="edge25" class="edge">
<title>x2:e&#45;&gt;n3:w</title>
<path fill="none" stroke="black" d="M208,-338C267.46,-338 284.46,-347.79 339.11,-348.9"/>
<polygon fill="black" stroke="black" points="339.35,-352.4 349.38,-349 339.41,-345.4 339.35,-352.4"/>
</g>
<!-- x3&#45;&gt;n12 -->
<g id="edge7" class="edge">
<title>x3:e&#45;&gt;n12:w</title>
<path fill="none" stroke="black" d="M700.76,-247C754.3,-247 770.19,-247 819.02,-247"/>
<polygon fill="black" stroke="black" points="819.25,-250.5 829.25,-247 819.25,-243.5 819.25,-250.5"/>
</g>
<!-- x4&#45;&gt;n14 -->
<g id="edge11" class="edge">
<title>x4:e&#45;&gt;n14:w</title>
<path fill="none" stroke="black" d="M1235.74,-319C1303.16,-319 1322.49,-319 1385.22,-319"/>
<polygon fill="black" stroke="black" points="1385.23,-322.5 1395.23,-319 1385.23,-315.5 1385.23,-322.5"/>
</g>
<!-- x5&#45;&gt;n11 -->
<g id="edge6" class="edge">
<title>x5:e&#45;&gt;n11:w</title>
<path fill="none" stroke="black" d="M208,-164C266.86,-164 284.07,-164 338.21,-164"/>
<polygon fill="black" stroke="black" points="338.38,-167.5 348.38,-164 338.38,-160.5 338.38,-167.5"/>
</g>
<!-- x6&#45;&gt;n9 -->
<g id="edge39" class="edge">
<title>x6:e&#45;&gt;n9:w</title>
<path fill="none" stroke="black" d="M208,-398C267.31,-398 284.58,-402.45 339.13,-402.95"/>
<polygon fill="black" stroke="black" points="339.36,-406.45 349.38,-403 339.4,-399.45 339.36,-406.45"/>
</g>
<!-- x7&#45;&gt;n18 -->
<g id="edge18" class="edge">
<title>x7:e&#45;&gt;n18:w</title>
<path fill="none" stroke="black" d="M700.76,-95C769.45,-95 789.14,-95 853.05,-95"/>
<polygon fill="black" stroke="black" points="853.25,-98.5 863.25,-95 853.25,-91.5 853.25,-98.5"/>
</g>
<!-- x8&#45;&gt;n17 -->
<g id="edge17" class="edge">
<title>x8:e&#45;&gt;n17:w</title>
<path fill="none" stroke="black" d="M208,-110C266.02,-110 282.99,-110 336.36,-110"/>
<polygon fill="black" stroke="black" points="336.38,-113.5 346.38,-110 336.38,-106.5 336.38,-113.5"/>
</g>
<!-- x9&#45;&gt;n1 -->
<g id="edge1" class="edge">
<title>x9:e&#45;&gt;n1:w</title>
<path fill="none" stroke="black" d="M700.76,-41C776.52,-41 798.02,-41 868.91,-41"/>
<polygon fill="black" stroke="black" points="869.25,-44.5 879.25,-41 869.25,-37.5 869.25,-44.5"/>
</g>
<!-- x10&#45;&gt;n2 -->
<g id="edge24" class="edge">
<title>x10:e&#45;&gt;n2:w</title>
<path fill="none" stroke="black" d="M1684.72,-160C1719.78,-160 1731.01,-160 1761.61,-160"/>
<polygon fill="black" stroke="black" points="1761.77,-163.5 1771.77,-160 1761.77,-156.5 1761.77,-163.5"/>
</g>
<!-- x11&#45;&gt;n15 -->
<g id="edge12" class="edge">
<title>x11:e&#45;&gt;n15:w</title>
<path fill="none" stroke="black" d="M1235.74,-265C1326.25,-265 1351.39,-265 1437.05,-265"/>
<polygon fill="black" stroke="black" points="1437.23,-268.5 1447.23,-265 1437.23,-261.5 1437.23,-268.5"/>
</g>
</g>
</svg>
