<?xml version="1.0" encoding="UTF-8" standalone="no"?>
<!DOCTYPE svg PUBLIC "-//W3C//DTD SVG 1.1//EN"
 "http://www.w3.org/Graphics/SVG/1.1/DTD/svg11.dtd">
<!-- Generated by graphviz version 2.43.0 (0)
 -->
<!-- Title: Mux Pages: 1 -->
<svg width="882pt" height="169pt"
 viewBox="0.00 0.00 882.11 169.00" xmlns="http://www.w3.org/2000/svg" xmlns:xlink="http://www.w3.org/1999/xlink">
<g id="graph0" class="graph" transform="scale(1 1) rotate(0) translate(4 165)">
<title>Mux</title>
<polygon fill="white" stroke="transparent" points="-4,4 -4,-165 878.11,-165 878.11,4 -4,4"/>
<text text-anchor="middle" x="437.06" y="-7.8" font-family="Times,serif" font-size="14.00">Mux</text>
<!-- n1 -->
<g id="node1" class="node">
<title>n1</title>
<polygon fill="none" stroke="black" points="311.75,-161 251.75,-143 311.75,-125 371.74,-143 311.75,-161"/>
<text text-anchor="middle" x="311.75" y="-139.3" font-family="Times,serif" font-size="14.00">NotSel</text>
</g>
<!-- c8 -->
<g id="node8" class="node">
<title>c8</title>
<polygon fill="none" stroke="black" points="407.49,-80 407.49,-126 532.49,-126 532.49,-80 407.49,-80"/>
<text text-anchor="middle" x="420.49" y="-110.8" font-family="Times,serif" font-size="14.00">a</text>
<polyline fill="none" stroke="black" points="407.49,-103 433.49,-103 "/>
<text text-anchor="middle" x="420.49" y="-87.8" font-family="Times,serif" font-size="14.00">b</text>
<polyline fill="none" stroke="black" points="433.49,-80 433.49,-126 "/>
<text text-anchor="middle" x="462.99" y="-106.8" font-family="Times,serif" font-size="14.00">and_1</text>
<text text-anchor="middle" x="462.99" y="-91.8" font-family="Times,serif" font-size="14.00">And</text>
<polyline fill="none" stroke="black" points="492.49,-80 492.49,-126 "/>
<text text-anchor="middle" x="512.49" y="-99.3" font-family="Times,serif" font-size="14.00">out</text>
</g>
<!-- n1&#45;&gt;c8 -->
<g id="edge2" class="edge">
<title>n1:e&#45;&gt;c8:w</title>
<path fill="none" stroke="black" d="M371.49,-143C387.64,-143 388.04,-125.22 397.79,-118"/>
<polygon fill="black" stroke="black" points="398.97,-121.3 407.49,-115 396.9,-114.61 398.97,-121.3"/>
</g>
<!-- n2 -->
<g id="node2" class="node">
<title>n2</title>
<polygon fill="none" stroke="black" points="600.66,-117 568.32,-99 600.66,-81 633,-99 600.66,-117"/>
<text text-anchor="middle" x="600.66" y="-95.3" font-family="Times,serif" font-size="14.00">Sa</text>
</g>
<!-- c12 -->
<g id="node11" class="node">
<title>c12</title>
<polygon fill="none" stroke="black" points="668.83,-50 668.83,-96 781.83,-96 781.83,-50 668.83,-50"/>
<text text-anchor="middle" x="681.83" y="-80.8" font-family="Times,serif" font-size="14.00">a</text>
<polyline fill="none" stroke="black" points="668.83,-73 694.83,-73 "/>
<text text-anchor="middle" x="681.83" y="-57.8" font-family="Times,serif" font-size="14.00">b</text>
<polyline fill="none" stroke="black" points="694.83,-50 694.83,-96 "/>
<text text-anchor="middle" x="718.33" y="-76.8" font-family="Times,serif" font-size="14.00">or_3</text>
<text text-anchor="middle" x="718.33" y="-61.8" font-family="Times,serif" font-size="14.00">Or</text>
<polyline fill="none" stroke="black" points="741.83,-50 741.83,-96 "/>
<text text-anchor="middle" x="761.83" y="-69.3" font-family="Times,serif" font-size="14.00">out</text>
</g>
<!-- n2&#45;&gt;c12 -->
<g id="edge4" class="edge">
<title>n2:e&#45;&gt;c12:w</title>
<path fill="none" stroke="black" d="M632.83,-99C645.98,-99 650.03,-90.79 658.92,-86.95"/>
<polygon fill="black" stroke="black" points="659.69,-90.36 668.83,-85 658.34,-83.49 659.69,-90.36"/>
</g>
<!-- n3 -->
<g id="node3" class="node">
<title>n3</title>
<polygon fill="none" stroke="black" points="469.99,-61 437.65,-43 469.99,-25 502.33,-43 469.99,-61"/>
<text text-anchor="middle" x="469.99" y="-39.3" font-family="Times,serif" font-size="14.00">Sb</text>
</g>
<!-- n3&#45;&gt;c12 -->
<g id="edge6" class="edge">
<title>n3:e&#45;&gt;c12:w</title>
<path fill="none" stroke="black" d="M502.99,-43C573.66,-43 592.92,-59.35 658.77,-60.89"/>
<polygon fill="black" stroke="black" points="658.79,-64.39 668.83,-61 658.87,-57.39 658.79,-64.39"/>
</g>
<!-- n4 -->
<g id="node4" class="node">
<title>n4</title>
<polygon fill="none" stroke="black" points="338.75,-81.54 338.75,-96.46 322.93,-107 300.56,-107 284.75,-96.46 284.75,-81.54 300.56,-71 322.93,-71 338.75,-81.54"/>
<text text-anchor="middle" x="311.75" y="-85.3" font-family="Times,serif" font-size="14.00">a</text>
</g>
<!-- n4&#45;&gt;c8 -->
<g id="edge7" class="edge">
<title>n4:e&#45;&gt;c8:w</title>
<path fill="none" stroke="black" d="M339.75,-89C366.22,-89 375.22,-90.54 397.46,-90.92"/>
<polygon fill="black" stroke="black" points="397.46,-94.42 407.49,-91 397.52,-87.42 397.46,-94.42"/>
</g>
<!-- n5 -->
<g id="node5" class="node">
<title>n5</title>
<polygon fill="none" stroke="black" points="54,-33.54 54,-48.46 38.18,-59 15.82,-59 0,-48.46 0,-33.54 15.82,-23 38.18,-23 54,-33.54"/>
<text text-anchor="middle" x="27" y="-37.3" font-family="Times,serif" font-size="14.00">b</text>
</g>
<!-- c9 -->
<g id="node9" class="node">
<title>c9</title>
<polygon fill="none" stroke="black" points="90.5,-30 90.5,-76 215.5,-76 215.5,-30 90.5,-30"/>
<text text-anchor="middle" x="103.5" y="-60.8" font-family="Times,serif" font-size="14.00">a</text>
<polyline fill="none" stroke="black" points="90.5,-53 116.5,-53 "/>
<text text-anchor="middle" x="103.5" y="-37.8" font-family="Times,serif" font-size="14.00">b</text>
<polyline fill="none" stroke="black" points="116.5,-30 116.5,-76 "/>
<text text-anchor="middle" x="146" y="-56.8" font-family="Times,serif" font-size="14.00">and_2</text>
<text text-anchor="middle" x="146" y="-41.8" font-family="Times,serif" font-size="14.00">And</text>
<polyline fill="none" stroke="black" points="175.5,-30 175.5,-76 "/>
<text text-anchor="middle" x="195.5" y="-49.3" font-family="Times,serif" font-size="14.00">out</text>
</g>
<!-- n5&#45;&gt;c9 -->
<g id="edge8" class="edge">
<title>n5:e&#45;&gt;c9:w</title>
<path fill="none" stroke="black" d="M54,-41C66,-41 71.25,-41 79.88,-41"/>
<polygon fill="black" stroke="black" points="80,-44.5 90,-41 80,-37.5 80,-44.5"/>
</g>
<!-- n6 -->
<g id="node6" class="node">
<title>n6</title>
<polygon fill="none" stroke="black" points="874.25,-65.54 874.25,-80.46 857.69,-91 834.26,-91 817.69,-80.46 817.69,-65.54 834.26,-55 857.69,-55 874.25,-65.54"/>
<text text-anchor="middle" x="845.97" y="-69.3" font-family="Times,serif" font-size="14.00">out</text>
</g>
<!-- n7 -->
<g id="node7" class="node">
<title>n7</title>
<polygon fill="none" stroke="black" points="54,-96.54 54,-111.46 38.18,-122 15.82,-122 0,-111.46 0,-96.54 15.82,-86 38.18,-86 54,-96.54"/>
<text text-anchor="middle" x="27" y="-100.3" font-family="Times,serif" font-size="14.00">sel</text>
</g>
<!-- n7&#45;&gt;c9 -->
<g id="edge11" class="edge">
<title>n7:e&#45;&gt;c9:w</title>
<path fill="none" stroke="black" d="M54,-104C73.35,-104 69.31,-77.76 80.25,-68.33"/>
<polygon fill="black" stroke="black" points="81.66,-71.54 90,-65 79.41,-64.91 81.66,-71.54"/>
</g>
<!-- c11 -->
<g id="node10" class="node">
<title>c11</title>
<polygon fill="none" stroke="black" points="90,-114 90,-152 216,-152 216,-114 90,-114"/>
<text text-anchor="middle" x="105" y="-129.3" font-family="Times,serif" font-size="14.00">in</text>
<polyline fill="none" stroke="black" points="120,-114 120,-152 "/>
<text text-anchor="middle" x="148" y="-136.8" font-family="Times,serif" font-size="14.00">not_0</text>
<text text-anchor="middle" x="148" y="-121.8" font-family="Times,serif" font-size="14.00">Not</text>
<polyline fill="none" stroke="black" points="176,-114 176,-152 "/>
<text text-anchor="middle" x="196" y="-129.3" font-family="Times,serif" font-size="14.00">out</text>
</g>
<!-- n7&#45;&gt;c11 -->
<g id="edge10" class="edge">
<title>n7:e&#45;&gt;c11:w</title>
<path fill="none" stroke="black" d="M54,-104C70.37,-104 70.46,-122.42 80.22,-129.9"/>
<polygon fill="black" stroke="black" points="79.41,-133.31 90,-133 81.53,-126.64 79.41,-133.31"/>
</g>
<!-- c8&#45;&gt;n2 -->
<g id="edge3" class="edge">
<title>c8:e&#45;&gt;n2:w</title>
<path fill="none" stroke="black" d="M532.49,-103C544.56,-103 549.72,-100.75 558.34,-99.62"/>
<polygon fill="black" stroke="black" points="558.72,-103.11 568.49,-99 558.29,-96.12 558.72,-103.11"/>
</g>
<!-- c9&#45;&gt;n3 -->
<g id="edge5" class="edge">
<title>c9:e&#45;&gt;n3:w</title>
<path fill="none" stroke="black" d="M216,-53C310.86,-53 336.87,-43.69 426.89,-43.04"/>
<polygon fill="black" stroke="black" points="427,-46.54 436.99,-43 426.98,-39.54 427,-46.54"/>
</g>
<!-- c11&#45;&gt;n1 -->
<g id="edge1" class="edge">
<title>c11:e&#45;&gt;n1:w</title>
<path fill="none" stroke="black" d="M216,-133C228.58,-133 233.23,-138.74 241.97,-141.52"/>
<polygon fill="black" stroke="black" points="241.6,-145.01 252,-143 242.62,-138.08 241.6,-145.01"/>
</g>
<!-- c12&#45;&gt;n6 -->
<g id="edge9" class="edge">
<title>c12:e&#45;&gt;n6:w</title>
<path fill="none" stroke="black" d="M781.83,-73C793.83,-73 799.08,-73 807.71,-73"/>
<polygon fill="black" stroke="black" points="807.83,-76.5 817.83,-73 807.83,-69.5 807.83,-76.5"/>
</g>
</g>
</svg>
