<?xml version="1.0" encoding="UTF-8" standalone="no"?>
<!DOCTYPE svg PUBLIC "-//W3C//DTD SVG 1.1//EN"
 "http://www.w3.org/Graphics/SVG/1.1/DTD/svg11.dtd">
<!-- Generated by graphviz version 2.43.0 (0)
 -->
<!-- Title: FullAdder Pages: 1 -->
<svg width="913pt" height="293pt"
 viewBox="0.00 0.00 912.52 293.03" xmlns="http://www.w3.org/2000/svg" xmlns:xlink="http://www.w3.org/1999/xlink">
<g id="graph0" class="graph" transform="scale(1 1) rotate(0) translate(4 289.03)">
<title>FullAdder</title>
<polygon fill="white" stroke="transparent" points="-4,4 -4,-289.03 908.52,-289.03 908.52,4 -4,4"/>
<text text-anchor="middle" x="452.26" y="-7.8" font-family="Times,serif" font-size="14.00">FullAdder</text>
<!-- n1 -->
<g id="node1" class="node">
<title>n1</title>
<polygon fill="none" stroke="black" points="54,-216.07 54,-230.99 38.18,-241.53 15.82,-241.53 0,-230.99 0,-216.07 15.82,-205.53 38.18,-205.53 54,-216.07"/>
<text text-anchor="middle" x="27" y="-219.83" font-family="Times,serif" font-size="14.00">a</text>
</g>
<!-- c12 -->
<g id="node11" class="node">
<title>c12</title>
<polygon fill="none" stroke="black" points="90,-238.53 90,-284.53 215,-284.53 215,-238.53 90,-238.53"/>
<text text-anchor="middle" x="103" y="-269.33" font-family="Times,serif" font-size="14.00">a</text>
<polyline fill="none" stroke="black" points="90,-261.53 116,-261.53 "/>
<text text-anchor="middle" x="103" y="-246.33" font-family="Times,serif" font-size="14.00">b</text>
<polyline fill="none" stroke="black" points="116,-238.53 116,-284.53 "/>
<text text-anchor="middle" x="145.5" y="-265.33" font-family="Times,serif" font-size="14.00">and_2</text>
<text text-anchor="middle" x="145.5" y="-250.33" font-family="Times,serif" font-size="14.00">And</text>
<polyline fill="none" stroke="black" points="175,-238.53 175,-284.53 "/>
<text text-anchor="middle" x="195" y="-257.83" font-family="Times,serif" font-size="14.00">out</text>
</g>
<!-- n1&#45;&gt;c12 -->
<g id="edge1" class="edge">
<title>n1:e&#45;&gt;c12:w</title>
<path fill="none" stroke="black" d="M54,-223.53C77.1,-223.53 67.35,-259.13 80.19,-270.25"/>
<polygon fill="black" stroke="black" points="79.41,-273.68 90,-273.53 81.63,-267.04 79.41,-273.68"/>
</g>
<!-- c13 -->
<g id="node12" class="node">
<title>c13</title>
<polygon fill="none" stroke="black" points="90,-108.53 90,-154.53 215,-154.53 215,-108.53 90,-108.53"/>
<text text-anchor="middle" x="103" y="-139.33" font-family="Times,serif" font-size="14.00">a</text>
<polyline fill="none" stroke="black" points="90,-131.53 116,-131.53 "/>
<text text-anchor="middle" x="103" y="-116.33" font-family="Times,serif" font-size="14.00">b</text>
<polyline fill="none" stroke="black" points="116,-108.53 116,-154.53 "/>
<text text-anchor="middle" x="145.5" y="-135.33" font-family="Times,serif" font-size="14.00">and_3</text>
<text text-anchor="middle" x="145.5" y="-120.33" font-family="Times,serif" font-size="14.00">And</text>
<polyline fill="none" stroke="black" points="175,-108.53 175,-154.53 "/>
<text text-anchor="middle" x="195" y="-127.83" font-family="Times,serif" font-size="14.00">out</text>
</g>
<!-- n1&#45;&gt;c13 -->
<g id="edge2" class="edge">
<title>n1:e&#45;&gt;c13:w</title>
<path fill="none" stroke="black" d="M54,-223.53C88.88,-223.53 58.96,-159.52 80.18,-146.01"/>
<polygon fill="black" stroke="black" points="81.16,-149.37 90,-143.53 79.45,-142.59 81.16,-149.37"/>
</g>
<!-- c17 -->
<g id="node16" class="node">
<title>c17</title>
<polygon fill="none" stroke="black" points="91.5,-173.53 91.5,-219.53 213.5,-219.53 213.5,-173.53 91.5,-173.53"/>
<text text-anchor="middle" x="104.5" y="-204.33" font-family="Times,serif" font-size="14.00">a</text>
<polyline fill="none" stroke="black" points="91.5,-196.53 117.5,-196.53 "/>
<text text-anchor="middle" x="104.5" y="-181.33" font-family="Times,serif" font-size="14.00">b</text>
<polyline fill="none" stroke="black" points="117.5,-173.53 117.5,-219.53 "/>
<text text-anchor="middle" x="145.5" y="-200.33" font-family="Times,serif" font-size="14.00">xor_0</text>
<text text-anchor="middle" x="145.5" y="-185.33" font-family="Times,serif" font-size="14.00">Xor</text>
<polyline fill="none" stroke="black" points="173.5,-173.53 173.5,-219.53 "/>
<text text-anchor="middle" x="193.5" y="-192.83" font-family="Times,serif" font-size="14.00">out</text>
</g>
<!-- n1&#45;&gt;c17 -->
<g id="edge3" class="edge">
<title>n1:e&#45;&gt;c17:w</title>
<path fill="none" stroke="black" d="M54,-223.53C67.57,-223.53 71.49,-214.56 80.69,-210.49"/>
<polygon fill="black" stroke="black" points="81.38,-213.92 90.5,-208.53 80.01,-207.06 81.38,-213.92"/>
</g>
<!-- n2 -->
<g id="node2" class="node">
<title>n2</title>
<polygon fill="none" stroke="black" points="291.44,-273.53 251.06,-255.53 291.44,-237.53 331.83,-255.53 291.44,-273.53"/>
<text text-anchor="middle" x="291.44" y="-251.83" font-family="Times,serif" font-size="14.00">aAb</text>
</g>
<!-- c15 -->
<g id="node14" class="node">
<title>c15</title>
<polygon fill="none" stroke="black" points="372.39,-168.53 372.39,-214.53 485.39,-214.53 485.39,-168.53 372.39,-168.53"/>
<text text-anchor="middle" x="385.39" y="-199.33" font-family="Times,serif" font-size="14.00">a</text>
<polyline fill="none" stroke="black" points="372.39,-191.53 398.39,-191.53 "/>
<text text-anchor="middle" x="385.39" y="-176.33" font-family="Times,serif" font-size="14.00">b</text>
<polyline fill="none" stroke="black" points="398.39,-168.53 398.39,-214.53 "/>
<text text-anchor="middle" x="421.89" y="-195.33" font-family="Times,serif" font-size="14.00">or_5</text>
<text text-anchor="middle" x="421.89" y="-180.33" font-family="Times,serif" font-size="14.00">Or</text>
<polyline fill="none" stroke="black" points="445.39,-168.53 445.39,-214.53 "/>
<text text-anchor="middle" x="465.39" y="-187.83" font-family="Times,serif" font-size="14.00">out</text>
</g>
<!-- n2&#45;&gt;c15 -->
<g id="edge6" class="edge">
<title>n2:e&#45;&gt;c15:w</title>
<path fill="none" stroke="black" d="M331.89,-255.53C356.71,-255.53 346.34,-217.13 361.26,-206.33"/>
<polygon fill="black" stroke="black" points="362.26,-209.68 370.89,-203.53 360.31,-202.96 362.26,-209.68"/>
</g>
<!-- n3 -->
<g id="node3" class="node">
<title>n3</title>
<polygon fill="none" stroke="black" points="291.44,-152.53 252.73,-134.53 291.44,-116.53 330.15,-134.53 291.44,-152.53"/>
<text text-anchor="middle" x="291.44" y="-130.83" font-family="Times,serif" font-size="14.00">aAc</text>
</g>
<!-- n3&#45;&gt;c15 -->
<g id="edge8" class="edge">
<title>n3:e&#45;&gt;c15:w</title>
<path fill="none" stroke="black" d="M331.44,-134.53C353.88,-134.53 347.6,-166.57 361.07,-176.58"/>
<polygon fill="black" stroke="black" points="360.3,-180 370.89,-179.53 362.32,-173.3 360.3,-180"/>
</g>
<!-- n4 -->
<g id="node4" class="node">
<title>n4</title>
<polygon fill="none" stroke="black" points="584.71,-203.53 526.06,-185.53 584.71,-167.53 643.36,-185.53 584.71,-203.53"/>
<text text-anchor="middle" x="584.71" y="-181.83" font-family="Times,serif" font-size="14.00">aObOc</text>
</g>
<!-- c16 -->
<g id="node15" class="node">
<title>c16</title>
<polygon fill="none" stroke="black" points="679.54,-100.53 679.54,-146.53 792.54,-146.53 792.54,-100.53 679.54,-100.53"/>
<text text-anchor="middle" x="692.54" y="-131.33" font-family="Times,serif" font-size="14.00">a</text>
<polyline fill="none" stroke="black" points="679.54,-123.53 705.54,-123.53 "/>
<text text-anchor="middle" x="692.54" y="-108.33" font-family="Times,serif" font-size="14.00">b</text>
<polyline fill="none" stroke="black" points="705.54,-100.53 705.54,-146.53 "/>
<text text-anchor="middle" x="729.04" y="-127.33" font-family="Times,serif" font-size="14.00">or_6</text>
<text text-anchor="middle" x="729.04" y="-112.33" font-family="Times,serif" font-size="14.00">Or</text>
<polyline fill="none" stroke="black" points="752.54,-100.53 752.54,-146.53 "/>
<text text-anchor="middle" x="772.54" y="-119.83" font-family="Times,serif" font-size="14.00">out</text>
</g>
<!-- n4&#45;&gt;c16 -->
<g id="edge10" class="edge">
<title>n4:e&#45;&gt;c16:w</title>
<path fill="none" stroke="black" d="M643.54,-185.53C666.64,-185.53 656.89,-149.94 669.73,-138.81"/>
<polygon fill="black" stroke="black" points="671.16,-142.02 679.54,-135.53 668.94,-135.38 671.16,-142.02"/>
</g>
<!-- n5 -->
<g id="node5" class="node">
<title>n5</title>
<polygon fill="none" stroke="black" points="291.44,-211.53 251.06,-193.53 291.44,-175.53 331.83,-193.53 291.44,-211.53"/>
<text text-anchor="middle" x="291.44" y="-189.83" font-family="Times,serif" font-size="14.00">aXb</text>
</g>
<!-- c18 -->
<g id="node17" class="node">
<title>c18</title>
<polygon fill="none" stroke="black" points="367.89,-103.53 367.89,-149.53 489.89,-149.53 489.89,-103.53 367.89,-103.53"/>
<text text-anchor="middle" x="380.89" y="-134.33" font-family="Times,serif" font-size="14.00">a</text>
<polyline fill="none" stroke="black" points="367.89,-126.53 393.89,-126.53 "/>
<text text-anchor="middle" x="380.89" y="-111.33" font-family="Times,serif" font-size="14.00">b</text>
<polyline fill="none" stroke="black" points="393.89,-103.53 393.89,-149.53 "/>
<text text-anchor="middle" x="421.89" y="-130.33" font-family="Times,serif" font-size="14.00">xor_1</text>
<text text-anchor="middle" x="421.89" y="-115.33" font-family="Times,serif" font-size="14.00">Xor</text>
<polyline fill="none" stroke="black" points="449.89,-103.53 449.89,-149.53 "/>
<text text-anchor="middle" x="469.89" y="-122.83" font-family="Times,serif" font-size="14.00">out</text>
</g>
<!-- n5&#45;&gt;c18 -->
<g id="edge12" class="edge">
<title>n5:e&#45;&gt;c18:w</title>
<path fill="none" stroke="black" d="M331.89,-193.53C356.76,-193.53 344.19,-153.65 357.95,-141.81"/>
<polygon fill="black" stroke="black" points="359.48,-144.99 367.89,-138.53 357.29,-138.34 359.48,-144.99"/>
</g>
<!-- n6 -->
<g id="node6" class="node">
<title>n6</title>
<polygon fill="none" stroke="black" points="54,-162.07 54,-176.99 38.18,-187.53 15.82,-187.53 0,-176.99 0,-162.07 15.82,-151.53 38.18,-151.53 54,-162.07"/>
<text text-anchor="middle" x="27" y="-165.83" font-family="Times,serif" font-size="14.00">b</text>
</g>
<!-- n6&#45;&gt;c12 -->
<g id="edge13" class="edge">
<title>n6:e&#45;&gt;c12:w</title>
<path fill="none" stroke="black" d="M54,-169.53C88.88,-169.53 58.96,-233.55 80.18,-247.05"/>
<polygon fill="black" stroke="black" points="79.45,-250.47 90,-249.53 81.16,-243.69 79.45,-250.47"/>
</g>
<!-- c14 -->
<g id="node13" class="node">
<title>c14</title>
<polygon fill="none" stroke="black" points="90,-43.53 90,-89.53 215,-89.53 215,-43.53 90,-43.53"/>
<text text-anchor="middle" x="103" y="-74.33" font-family="Times,serif" font-size="14.00">a</text>
<polyline fill="none" stroke="black" points="90,-66.53 116,-66.53 "/>
<text text-anchor="middle" x="103" y="-51.33" font-family="Times,serif" font-size="14.00">b</text>
<polyline fill="none" stroke="black" points="116,-43.53 116,-89.53 "/>
<text text-anchor="middle" x="145.5" y="-70.33" font-family="Times,serif" font-size="14.00">and_4</text>
<text text-anchor="middle" x="145.5" y="-55.33" font-family="Times,serif" font-size="14.00">And</text>
<polyline fill="none" stroke="black" points="175,-43.53 175,-89.53 "/>
<text text-anchor="middle" x="195" y="-62.83" font-family="Times,serif" font-size="14.00">out</text>
</g>
<!-- n6&#45;&gt;c14 -->
<g id="edge14" class="edge">
<title>n6:e&#45;&gt;c14:w</title>
<path fill="none" stroke="black" d="M54,-169.53C93.42,-169.53 55.24,-94.79 80.1,-80.78"/>
<polygon fill="black" stroke="black" points="81.02,-84.16 90,-78.53 79.47,-77.33 81.02,-84.16"/>
</g>
<!-- n6&#45;&gt;c17 -->
<g id="edge15" class="edge">
<title>n6:e&#45;&gt;c17:w</title>
<path fill="none" stroke="black" d="M54,-169.53C67.57,-169.53 71.49,-178.5 80.69,-182.57"/>
<polygon fill="black" stroke="black" points="80.01,-186 90.5,-184.53 81.38,-179.14 80.01,-186"/>
</g>
<!-- n7 -->
<g id="node7" class="node">
<title>n7</title>
<polygon fill="none" stroke="black" points="428.89,-84.53 389.34,-66.53 428.89,-48.53 468.43,-66.53 428.89,-84.53"/>
<text text-anchor="middle" x="428.89" y="-62.83" font-family="Times,serif" font-size="14.00">bAc</text>
</g>
<!-- n7&#45;&gt;c16 -->
<g id="edge17" class="edge">
<title>n7:e&#45;&gt;c16:w</title>
<path fill="none" stroke="black" d="M469.89,-66.53C548.45,-66.53 567.51,-79.73 643.54,-99.53 655.91,-102.75 660.52,-107.98 669.37,-110.33"/>
<polygon fill="black" stroke="black" points="669.2,-113.83 679.54,-111.53 670.02,-106.88 669.2,-113.83"/>
</g>
<!-- n8 -->
<g id="node8" class="node">
<title>n8</title>
<polygon fill="none" stroke="black" points="54,-47.07 54,-61.99 38.18,-72.53 15.82,-72.53 0,-61.99 0,-47.07 15.82,-36.53 38.18,-36.53 54,-47.07"/>
<text text-anchor="middle" x="27" y="-50.83" font-family="Times,serif" font-size="14.00">c</text>
</g>
<!-- n8&#45;&gt;c13 -->
<g id="edge18" class="edge">
<title>n8:e&#45;&gt;c13:w</title>
<path fill="none" stroke="black" d="M54,-54.53C82.9,-54.53 63.5,-104.3 80.33,-116.74"/>
<polygon fill="black" stroke="black" points="79.42,-120.12 90,-119.53 81.36,-113.39 79.42,-120.12"/>
</g>
<!-- n8&#45;&gt;c14 -->
<g id="edge19" class="edge">
<title>n8:e&#45;&gt;c14:w</title>
<path fill="none" stroke="black" d="M54,-54.53C66,-54.53 71.25,-54.53 79.88,-54.53"/>
<polygon fill="black" stroke="black" points="80,-58.03 90,-54.53 80,-51.03 80,-58.03"/>
</g>
<!-- n8&#45;&gt;c18 -->
<g id="edge20" class="edge">
<title>n8:e&#45;&gt;c18:w</title>
<path fill="none" stroke="black" d="M54,-54.53C72.52,-54.53 72.12,-38.36 90,-33.53 143.63,-19.03 161.08,-20.13 215,-33.53 249.33,-42.06 317.34,-103.44 357.95,-113.22"/>
<polygon fill="black" stroke="black" points="357.51,-116.69 367.89,-114.53 358.43,-109.75 357.51,-116.69"/>
</g>
<!-- n9 -->
<g id="node9" class="node">
<title>n9</title>
<polygon fill="none" stroke="black" points="904.5,-116.07 904.5,-130.99 882.26,-141.53 850.8,-141.53 828.55,-130.99 828.55,-116.07 850.8,-105.53 882.26,-105.53 904.5,-116.07"/>
<text text-anchor="middle" x="866.53" y="-119.83" font-family="Times,serif" font-size="14.00">carry</text>
</g>
<!-- n10 -->
<g id="node10" class="node">
<title>n10</title>
<polygon fill="none" stroke="black" points="617.84,-119.07 617.84,-133.99 598.43,-144.53 570.99,-144.53 551.58,-133.99 551.58,-119.07 570.99,-108.53 598.43,-108.53 617.84,-119.07"/>
<text text-anchor="middle" x="584.71" y="-122.83" font-family="Times,serif" font-size="14.00">sum</text>
</g>
<!-- c12&#45;&gt;n2 -->
<g id="edge5" class="edge">
<title>c12:e&#45;&gt;n2:w</title>
<path fill="none" stroke="black" d="M215,-261.53C227.17,-261.53 232.21,-258.16 240.81,-256.47"/>
<polygon fill="black" stroke="black" points="241.36,-259.93 251,-255.53 240.72,-252.96 241.36,-259.93"/>
</g>
<!-- c13&#45;&gt;n3 -->
<g id="edge7" class="edge">
<title>c13:e&#45;&gt;n3:w</title>
<path fill="none" stroke="black" d="M215,-131.53C227.32,-131.53 232.56,-133.25 241.45,-134.09"/>
<polygon fill="black" stroke="black" points="241.3,-137.58 251.44,-134.53 241.61,-130.59 241.3,-137.58"/>
</g>
<!-- c14&#45;&gt;n7 -->
<g id="edge16" class="edge">
<title>c14:e&#45;&gt;n7:w</title>
<path fill="none" stroke="black" d="M215,-66.53C288.39,-66.53 309.21,-66.53 377.87,-66.53"/>
<polygon fill="black" stroke="black" points="377.89,-70.03 387.89,-66.53 377.89,-63.03 377.89,-70.03"/>
</g>
<!-- c15&#45;&gt;n4 -->
<g id="edge9" class="edge">
<title>c15:e&#45;&gt;n4:w</title>
<path fill="none" stroke="black" d="M486.89,-191.53C500.45,-191.53 505.87,-187.94 515.75,-186.32"/>
<polygon fill="black" stroke="black" points="516.19,-189.79 525.89,-185.53 515.65,-182.81 516.19,-189.79"/>
</g>
<!-- c16&#45;&gt;n9 -->
<g id="edge21" class="edge">
<title>c16:e&#45;&gt;n9:w</title>
<path fill="none" stroke="black" d="M792.54,-123.53C804.54,-123.53 809.79,-123.53 818.41,-123.53"/>
<polygon fill="black" stroke="black" points="818.54,-127.03 828.54,-123.53 818.54,-120.03 818.54,-127.03"/>
</g>
<!-- c17&#45;&gt;n5 -->
<g id="edge11" class="edge">
<title>c17:e&#45;&gt;n5:w</title>
<path fill="none" stroke="black" d="M214.5,-196.53C226.83,-196.53 232.09,-194.81 240.99,-193.97"/>
<polygon fill="black" stroke="black" points="241.16,-197.47 251,-193.53 240.86,-190.48 241.16,-197.47"/>
</g>
<!-- c18&#45;&gt;n10 -->
<g id="edge4" class="edge">
<title>c18:e&#45;&gt;n10:w</title>
<path fill="none" stroke="black" d="M489.89,-126.53C513.22,-126.53 521.45,-126.53 540.66,-126.53"/>
<polygon fill="black" stroke="black" points="540.71,-130.03 550.71,-126.53 540.71,-123.03 540.71,-130.03"/>
</g>
</g>
</svg>
