<?xml version="1.0" encoding="UTF-8" standalone="no"?>
<!DOCTYPE svg PUBLIC "-//W3C//DTD SVG 1.1//EN"
 "http://www.w3.org/Graphics/SVG/1.1/DTD/svg11.dtd">
<!-- Generated by graphviz version 2.43.0 (0)
 -->
<!-- Title: Or Pages: 1 -->
<svg width="587pt" height="127pt"
 viewBox="0.00 0.00 586.62 127.00" xmlns="http://www.w3.org/2000/svg" xmlns:xlink="http://www.w3.org/1999/xlink">
<g id="graph0" class="graph" transform="scale(1 1) rotate(0) translate(4 123)">
<title>Or</title>
<polygon fill="white" stroke="transparent" points="-4,4 -4,-123 582.62,-123 582.62,4 -4,4"/>
<text text-anchor="middle" x="289.31" y="-7.8" font-family="Times,serif" font-size="14.00">Or</text>
<!-- n1 -->
<g id="node1" class="node">
<title>n1</title>
<polygon fill="none" stroke="black" points="54,-92.04 54,-106.96 38.18,-117.5 15.82,-117.5 0,-106.96 0,-92.04 15.82,-81.5 38.18,-81.5 54,-92.04"/>
<text text-anchor="middle" x="27" y="-95.8" font-family="Times,serif" font-size="14.00">a</text>
</g>
<!-- c8 -->
<g id="node7" class="node">
<title>c8</title>
<polygon fill="none" stroke="black" points="90,-80.5 90,-118.5 216,-118.5 216,-80.5 90,-80.5"/>
<text text-anchor="middle" x="105" y="-95.8" font-family="Times,serif" font-size="14.00">in</text>
<polyline fill="none" stroke="black" points="120,-80.5 120,-118.5 "/>
<text text-anchor="middle" x="148" y="-103.3" font-family="Times,serif" font-size="14.00">not_0</text>
<text text-anchor="middle" x="148" y="-88.3" font-family="Times,serif" font-size="14.00">Not</text>
<polyline fill="none" stroke="black" points="176,-80.5 176,-118.5 "/>
<text text-anchor="middle" x="196" y="-95.8" font-family="Times,serif" font-size="14.00">out</text>
</g>
<!-- n1&#45;&gt;c8 -->
<g id="edge1" class="edge">
<title>n1:e&#45;&gt;c8:w</title>
<path fill="none" stroke="black" d="M54,-99.5C66,-99.5 71.25,-99.5 79.88,-99.5"/>
<polygon fill="black" stroke="black" points="80,-103 90,-99.5 80,-96 80,-103"/>
</g>
<!-- n2 -->
<g id="node2" class="node">
<title>n2</title>
<polygon fill="none" stroke="black" points="54,-35.04 54,-49.96 38.18,-60.5 15.82,-60.5 0,-49.96 0,-35.04 15.82,-24.5 38.18,-24.5 54,-35.04"/>
<text text-anchor="middle" x="27" y="-38.8" font-family="Times,serif" font-size="14.00">b</text>
</g>
<!-- c9 -->
<g id="node8" class="node">
<title>c9</title>
<polygon fill="none" stroke="black" points="90,-23.5 90,-61.5 216,-61.5 216,-23.5 90,-23.5"/>
<text text-anchor="middle" x="105" y="-38.8" font-family="Times,serif" font-size="14.00">in</text>
<polyline fill="none" stroke="black" points="120,-23.5 120,-61.5 "/>
<text text-anchor="middle" x="148" y="-46.3" font-family="Times,serif" font-size="14.00">not_1</text>
<text text-anchor="middle" x="148" y="-31.3" font-family="Times,serif" font-size="14.00">Not</text>
<polyline fill="none" stroke="black" points="176,-23.5 176,-61.5 "/>
<text text-anchor="middle" x="196" y="-38.8" font-family="Times,serif" font-size="14.00">out</text>
</g>
<!-- n2&#45;&gt;c9 -->
<g id="edge2" class="edge">
<title>n2:e&#45;&gt;c9:w</title>
<path fill="none" stroke="black" d="M54,-42.5C66,-42.5 71.25,-42.5 79.88,-42.5"/>
<polygon fill="black" stroke="black" points="80,-46 90,-42.5 80,-39 80,-46"/>
</g>
<!-- n3 -->
<g id="node3" class="node">
<title>n3</title>
<polygon fill="none" stroke="black" points="284.17,-116.5 253.17,-98.5 284.17,-80.5 315.18,-98.5 284.17,-116.5"/>
<text text-anchor="middle" x="284.17" y="-94.8" font-family="Times,serif" font-size="14.00">na</text>
</g>
<!-- c6 -->
<g id="node6" class="node">
<title>c6</title>
<polygon fill="none" stroke="black" points="352.34,-47.5 352.34,-93.5 486.34,-93.5 486.34,-47.5 352.34,-47.5"/>
<text text-anchor="middle" x="365.34" y="-78.3" font-family="Times,serif" font-size="14.00">a</text>
<polyline fill="none" stroke="black" points="352.34,-70.5 378.34,-70.5 "/>
<text text-anchor="middle" x="365.34" y="-55.3" font-family="Times,serif" font-size="14.00">b</text>
<polyline fill="none" stroke="black" points="378.34,-47.5 378.34,-93.5 "/>
<text text-anchor="middle" x="412.34" y="-74.3" font-family="Times,serif" font-size="14.00">nand_2</text>
<text text-anchor="middle" x="412.34" y="-59.3" font-family="Times,serif" font-size="14.00">Nand</text>
<polyline fill="none" stroke="black" points="446.34,-47.5 446.34,-93.5 "/>
<text text-anchor="middle" x="466.34" y="-66.8" font-family="Times,serif" font-size="14.00">out</text>
</g>
<!-- n3&#45;&gt;c6 -->
<g id="edge4" class="edge">
<title>n3:e&#45;&gt;c6:w</title>
<path fill="none" stroke="black" d="M316.17,-98.5C329.77,-98.5 333.45,-88.93 342.56,-84.59"/>
<polygon fill="black" stroke="black" points="343.29,-88.01 352.34,-82.5 341.83,-81.17 343.29,-88.01"/>
</g>
<!-- n4 -->
<g id="node4" class="node">
<title>n4</title>
<polygon fill="none" stroke="black" points="284.17,-61.5 251.83,-43.5 284.17,-25.5 316.51,-43.5 284.17,-61.5"/>
<text text-anchor="middle" x="284.17" y="-39.8" font-family="Times,serif" font-size="14.00">nb</text>
</g>
<!-- n4&#45;&gt;c6 -->
<g id="edge6" class="edge">
<title>n4:e&#45;&gt;c6:w</title>
<path fill="none" stroke="black" d="M316.34,-43.5C329.61,-43.5 333.5,-52.29 342.38,-56.41"/>
<polygon fill="black" stroke="black" points="341.84,-59.88 352.34,-58.5 343.27,-53.03 341.84,-59.88"/>
</g>
<!-- n5 -->
<g id="node5" class="node">
<title>n5</title>
<polygon fill="none" stroke="black" points="578.76,-63.04 578.76,-77.96 562.19,-88.5 538.77,-88.5 522.2,-77.96 522.2,-63.04 538.77,-52.5 562.19,-52.5 578.76,-63.04"/>
<text text-anchor="middle" x="550.48" y="-66.8" font-family="Times,serif" font-size="14.00">out</text>
</g>
<!-- c6&#45;&gt;n5 -->
<g id="edge7" class="edge">
<title>c6:e&#45;&gt;n5:w</title>
<path fill="none" stroke="black" d="M486.34,-70.5C498.34,-70.5 503.59,-70.5 512.22,-70.5"/>
<polygon fill="black" stroke="black" points="512.34,-74 522.34,-70.5 512.34,-67 512.34,-74"/>
</g>
<!-- c8&#45;&gt;n3 -->
<g id="edge3" class="edge">
<title>c8:e&#45;&gt;n3:w</title>
<path fill="none" stroke="black" d="M216,-99.5C228.06,-99.5 233.33,-98.94 242,-98.66"/>
<polygon fill="black" stroke="black" points="242.23,-102.15 252.17,-98.5 242.12,-95.15 242.23,-102.15"/>
</g>
<!-- c9&#45;&gt;n4 -->
<g id="edge5" class="edge">
<title>c9:e&#45;&gt;n4:w</title>
<path fill="none" stroke="black" d="M216,-42.5C228,-42.5 233.25,-43.06 241.87,-43.34"/>
<polygon fill="black" stroke="black" points="241.95,-46.85 252,-43.5 242.06,-39.85 241.95,-46.85"/>
</g>
</g>
</svg>
