<?xml version="1.0" encoding="UTF-8" standalone="no"?>
<!DOCTYPE svg PUBLIC "-//W3C//DTD SVG 1.1//EN"
 "http://www.w3.org/Graphics/SVG/1.1/DTD/svg11.dtd">
<!-- Generated by graphviz version 2.43.0 (0)
 -->
<!-- Title: HalfAdder Pages: 1 -->
<svg width="2879pt" height="716pt"
 viewBox="0.00 0.00 2879.05 716.00" xmlns="http://www.w3.org/2000/svg" xmlns:xlink="http://www.w3.org/1999/xlink">
<g id="graph0" class="graph" transform="scale(1 1) rotate(0) translate(4 712)">
<title>HalfAdder</title>
<polygon fill="white" stroke="transparent" points="-4,4 -4,-712 2875.05,-712 2875.05,4 -4,4"/>
<text text-anchor="middle" x="1435.52" y="-7.8" font-family="Times,serif" font-size="14.00">HalfAdder</text>
<!-- n1 -->
<g id="node1" class="node">
<title>n1</title>
<polygon fill="none" stroke="black" points="54,-496.54 54,-511.46 38.18,-522 15.82,-522 0,-511.46 0,-496.54 15.82,-486 38.18,-486 54,-496.54"/>
<text text-anchor="middle" x="27" y="-500.3" font-family="Times,serif" font-size="14.00">a</text>
</g>
<!-- c32 -->
<g id="node31" class="node">
<title>c32</title>
<polygon fill="none" stroke="black" points="128,-380 128,-426 308,-426 308,-380 128,-380"/>
<text text-anchor="middle" x="141" y="-410.8" font-family="Times,serif" font-size="14.00">a</text>
<polyline fill="none" stroke="black" points="128,-403 154,-403 "/>
<text text-anchor="middle" x="141" y="-387.8" font-family="Times,serif" font-size="14.00">b</text>
<polyline fill="none" stroke="black" points="154,-380 154,-426 "/>
<text text-anchor="middle" x="211" y="-406.8" font-family="Times,serif" font-size="14.00">and_1.nand_0</text>
<text text-anchor="middle" x="211" y="-391.8" font-family="Times,serif" font-size="14.00">Nand</text>
<polyline fill="none" stroke="black" points="268,-380 268,-426 "/>
<text text-anchor="middle" x="288" y="-399.3" font-family="Times,serif" font-size="14.00">out</text>
</g>
<!-- n1&#45;&gt;c32 -->
<g id="edge1" class="edge">
<title>n1:e&#45;&gt;c32:w</title>
<path fill="none" stroke="black" d="M54,-504C88.59,-504 65.72,-459.64 90,-435 100.35,-424.49 105.77,-418.12 116.77,-415.89"/>
<polygon fill="black" stroke="black" points="117.34,-419.36 127,-415 116.73,-412.38 117.34,-419.36"/>
</g>
<!-- c36 -->
<g id="node35" class="node">
<title>c36</title>
<polygon fill="none" stroke="black" points="129.5,-305 129.5,-351 306.5,-351 306.5,-305 129.5,-305"/>
<text text-anchor="middle" x="142.5" y="-335.8" font-family="Times,serif" font-size="14.00">a</text>
<polyline fill="none" stroke="black" points="129.5,-328 155.5,-328 "/>
<text text-anchor="middle" x="142.5" y="-312.8" font-family="Times,serif" font-size="14.00">b</text>
<polyline fill="none" stroke="black" points="155.5,-305 155.5,-351 "/>
<text text-anchor="middle" x="211" y="-331.8" font-family="Times,serif" font-size="14.00">xor_0.nand_1</text>
<text text-anchor="middle" x="211" y="-316.8" font-family="Times,serif" font-size="14.00">Nand</text>
<polyline fill="none" stroke="black" points="266.5,-305 266.5,-351 "/>
<text text-anchor="middle" x="286.5" y="-324.3" font-family="Times,serif" font-size="14.00">out</text>
</g>
<!-- n1&#45;&gt;c36 -->
<g id="edge2" class="edge">
<title>n1:e&#45;&gt;c36:w</title>
<path fill="none" stroke="black" d="M54,-504C115.67,-504 56.08,-421.5 90,-370 99.71,-355.26 104.58,-344.52 117.9,-341.13"/>
<polygon fill="black" stroke="black" points="118.45,-344.59 128,-340 117.67,-337.63 118.45,-344.59"/>
</g>
<!-- c38 -->
<g id="node37" class="node">
<title>c38</title>
<polygon fill="none" stroke="black" points="90,-445 90,-491 346,-491 346,-445 90,-445"/>
<text text-anchor="middle" x="103" y="-475.8" font-family="Times,serif" font-size="14.00">a</text>
<polyline fill="none" stroke="black" points="90,-468 116,-468 "/>
<text text-anchor="middle" x="103" y="-452.8" font-family="Times,serif" font-size="14.00">b</text>
<polyline fill="none" stroke="black" points="116,-445 116,-491 "/>
<text text-anchor="middle" x="211" y="-471.8" font-family="Times,serif" font-size="14.00">xor_0.or_0.not_0.nand_0</text>
<text text-anchor="middle" x="211" y="-456.8" font-family="Times,serif" font-size="14.00">Nand</text>
<polyline fill="none" stroke="black" points="306,-445 306,-491 "/>
<text text-anchor="middle" x="326" y="-464.3" font-family="Times,serif" font-size="14.00">out</text>
</g>
<!-- n1&#45;&gt;c38 -->
<g id="edge3" class="edge">
<title>n1:e&#45;&gt;c38:w</title>
<path fill="none" stroke="black" d="M54,-504C69.17,-504 70.84,-489.06 80.32,-482.75"/>
<polygon fill="black" stroke="black" points="81.34,-486.1 90,-480 79.42,-479.37 81.34,-486.1"/>
</g>
<!-- n1&#45;&gt;c38 -->
<g id="edge4" class="edge">
<title>n1:e&#45;&gt;c38:w</title>
<path fill="none" stroke="black" d="M54,-504C76.5,-504 67.68,-469.83 80.39,-459.15"/>
<polygon fill="black" stroke="black" points="81.59,-462.44 90,-456 79.41,-455.79 81.59,-462.44"/>
</g>
<!-- x3 -->
<g id="node42" class="node">
<title>x3</title>
<path fill="none" stroke="black" d="M233,-600C233,-600 203,-600 203,-600 197,-600 191,-594 191,-588 191,-588 191,-576 191,-576 191,-570 197,-564 203,-564 203,-564 233,-564 233,-564 239,-564 245,-570 245,-576 245,-576 245,-588 245,-588 245,-594 239,-600 233,-600"/>
<text text-anchor="middle" x="218" y="-578.3" font-family="Times,serif" font-size="14.00">BUF</text>
</g>
<!-- n1&#45;&gt;x3 -->
<g id="edge7" class="edge">
<title>n1:e&#45;&gt;x3:w</title>
<path fill="none" stroke="black" d="M54,-504C81.74,-504 67.26,-539.11 90,-555 124.79,-579.31 141.3,-581.74 179.73,-581.98"/>
<polygon fill="black" stroke="black" points="179.99,-585.48 190,-582 180.01,-578.48 179.99,-585.48"/>
</g>
<!-- x8 -->
<g id="node47" class="node">
<title>x8</title>
<path fill="none" stroke="black" d="M233,-546C233,-546 203,-546 203,-546 197,-546 191,-540 191,-534 191,-534 191,-522 191,-522 191,-516 197,-510 203,-510 203,-510 233,-510 233,-510 239,-510 245,-516 245,-522 245,-522 245,-534 245,-534 245,-540 239,-546 233,-546"/>
<text text-anchor="middle" x="218" y="-524.3" font-family="Times,serif" font-size="14.00">BUF</text>
</g>
<!-- n1&#45;&gt;x8 -->
<g id="edge8" class="edge">
<title>n1:e&#45;&gt;x8:w</title>
<path fill="none" stroke="black" d="M54,-504C111.78,-504 126.9,-525.27 179.69,-527.76"/>
<polygon fill="black" stroke="black" points="179.92,-531.27 190,-528 180.08,-524.27 179.92,-531.27"/>
</g>
<!-- x13 -->
<g id="node52" class="node">
<title>x13</title>
<path fill="none" stroke="black" d="M233,-708C233,-708 203,-708 203,-708 197,-708 191,-702 191,-696 191,-696 191,-684 191,-684 191,-678 197,-672 203,-672 203,-672 233,-672 233,-672 239,-672 245,-678 245,-684 245,-684 245,-696 245,-696 245,-702 239,-708 233,-708"/>
<text text-anchor="middle" x="218" y="-686.3" font-family="Times,serif" font-size="14.00">BUF</text>
</g>
<!-- n1&#45;&gt;x13 -->
<g id="edge5" class="edge">
<title>n1:e&#45;&gt;x13:w</title>
<path fill="none" stroke="black" d="M54,-504C126.46,-504 39.83,-610.73 90,-663 119.45,-693.68 140.54,-690.72 179.88,-690.09"/>
<polygon fill="black" stroke="black" points="180.03,-693.59 190,-690 179.97,-686.59 180.03,-693.59"/>
</g>
<!-- x17 -->
<g id="node56" class="node">
<title>x17</title>
<path fill="none" stroke="black" d="M233,-654C233,-654 203,-654 203,-654 197,-654 191,-648 191,-642 191,-642 191,-630 191,-630 191,-624 197,-618 203,-618 203,-618 233,-618 233,-618 239,-618 245,-624 245,-630 245,-630 245,-642 245,-642 245,-648 239,-654 233,-654"/>
<text text-anchor="middle" x="218" y="-632.3" font-family="Times,serif" font-size="14.00">BUF</text>
</g>
<!-- n1&#45;&gt;x17 -->
<g id="edge6" class="edge">
<title>n1:e&#45;&gt;x17:w</title>
<path fill="none" stroke="black" d="M54,-504C103.33,-504 53.97,-575.3 90,-609 120.99,-637.99 140.7,-636.48 179.66,-636.06"/>
<polygon fill="black" stroke="black" points="180.02,-639.56 190,-636 179.98,-632.56 180.02,-639.56"/>
</g>
<!-- n2 -->
<g id="node2" class="node">
<title>n2</title>
<polygon fill="none" stroke="black" points="521.71,-600 456.69,-582 521.71,-564 586.73,-582 521.71,-600"/>
<text text-anchor="middle" x="521.71" y="-578.3" font-family="Times,serif" font-size="14.00">and_1.a</text>
</g>
<!-- n3 -->
<g id="node3" class="node">
<title>n3</title>
<polygon fill="none" stroke="black" points="521.71,-435 412.45,-417 521.71,-399 630.97,-417 521.71,-435"/>
<text text-anchor="middle" x="521.71" y="-413.3" font-family="Times,serif" font-size="14.00">and_1.aNandb</text>
</g>
<!-- c33 -->
<g id="node32" class="node">
<title>c33</title>
<polygon fill="none" stroke="black" points="697.42,-454 697.42,-500 921.42,-500 921.42,-454 697.42,-454"/>
<text text-anchor="middle" x="710.42" y="-484.8" font-family="Times,serif" font-size="14.00">a</text>
<polyline fill="none" stroke="black" points="697.42,-477 723.42,-477 "/>
<text text-anchor="middle" x="710.42" y="-461.8" font-family="Times,serif" font-size="14.00">b</text>
<polyline fill="none" stroke="black" points="723.42,-454 723.42,-500 "/>
<text text-anchor="middle" x="802.42" y="-480.8" font-family="Times,serif" font-size="14.00">and_1.not_1.nand_0</text>
<text text-anchor="middle" x="802.42" y="-465.8" font-family="Times,serif" font-size="14.00">Nand</text>
<polyline fill="none" stroke="black" points="881.42,-454 881.42,-500 "/>
<text text-anchor="middle" x="901.42" y="-473.3" font-family="Times,serif" font-size="14.00">out</text>
</g>
<!-- n3&#45;&gt;c33 -->
<g id="edge46" class="edge">
<title>n3:e&#45;&gt;c33:w</title>
<path fill="none" stroke="black" d="M631.71,-417C671.14,-417 657.34,-476.64 687.21,-487.36"/>
<polygon fill="black" stroke="black" points="687,-490.87 697.42,-489 688.1,-483.96 687,-490.87"/>
</g>
<!-- n3&#45;&gt;c33 -->
<g id="edge47" class="edge">
<title>n3:e&#45;&gt;c33:w</title>
<path fill="none" stroke="black" d="M631.71,-417C664.06,-417 662.18,-455.41 687.31,-463.51"/>
<polygon fill="black" stroke="black" points="687.02,-467.01 697.42,-465 688.04,-460.08 687.02,-467.01"/>
</g>
<!-- x0 -->
<g id="node39" class="node">
<title>x0</title>
<path fill="none" stroke="black" d="M824.42,-435C824.42,-435 794.42,-435 794.42,-435 788.42,-435 782.42,-429 782.42,-423 782.42,-423 782.42,-411 782.42,-411 782.42,-405 788.42,-399 794.42,-399 794.42,-399 824.42,-399 824.42,-399 830.42,-399 836.42,-405 836.42,-411 836.42,-411 836.42,-423 836.42,-423 836.42,-429 830.42,-435 824.42,-435"/>
<text text-anchor="middle" x="809.42" y="-413.3" font-family="Times,serif" font-size="14.00">BUF</text>
</g>
<!-- n3&#45;&gt;x0 -->
<g id="edge48" class="edge">
<title>n3:e&#45;&gt;x0:w</title>
<path fill="none" stroke="black" d="M631.71,-417C694.74,-417 712.99,-417 771.3,-417"/>
<polygon fill="black" stroke="black" points="771.42,-420.5 781.42,-417 771.42,-413.5 771.42,-420.5"/>
</g>
<!-- n4 -->
<g id="node4" class="node">
<title>n4</title>
<polygon fill="none" stroke="black" points="521.71,-113 455.35,-95 521.71,-77 588.07,-95 521.71,-113"/>
<text text-anchor="middle" x="521.71" y="-91.3" font-family="Times,serif" font-size="14.00">and_1.b</text>
</g>
<!-- n5 -->
<g id="node5" class="node">
<title>n5</title>
<polygon fill="none" stroke="black" points="1106.33,-435 996.23,-417 1106.33,-399 1216.43,-417 1106.33,-435"/>
<text text-anchor="middle" x="1106.33" y="-413.3" font-family="Times,serif" font-size="14.00">and_1.not_1.in</text>
</g>
<!-- n6 -->
<g id="node6" class="node">
<title>n6</title>
<polygon fill="none" stroke="black" points="1106.33,-495 986.85,-477 1106.33,-459 1225.81,-477 1106.33,-495"/>
<text text-anchor="middle" x="1106.33" y="-473.3" font-family="Times,serif" font-size="14.00">and_1.not_1.out</text>
</g>
<!-- x1 -->
<g id="node40" class="node">
<title>x1</title>
<path fill="none" stroke="black" d="M1418.23,-483C1418.23,-483 1388.23,-483 1388.23,-483 1382.23,-483 1376.23,-477 1376.23,-471 1376.23,-471 1376.23,-459 1376.23,-459 1376.23,-453 1382.23,-447 1388.23,-447 1388.23,-447 1418.23,-447 1418.23,-447 1424.23,-447 1430.23,-453 1430.23,-459 1430.23,-459 1430.23,-471 1430.23,-471 1430.23,-477 1424.23,-483 1418.23,-483"/>
<text text-anchor="middle" x="1403.23" y="-461.3" font-family="Times,serif" font-size="14.00">BUF</text>
</g>
<!-- n6&#45;&gt;x1 -->
<g id="edge53" class="edge">
<title>n6:e&#45;&gt;x1:w</title>
<path fill="none" stroke="black" d="M1227.33,-477C1289.8,-477 1307.45,-466.23 1365.2,-465.1"/>
<polygon fill="black" stroke="black" points="1365.26,-468.6 1375.23,-465 1365.2,-461.6 1365.26,-468.6"/>
</g>
<!-- x18 -->
<g id="node57" class="node">
<title>x18</title>
<path fill="none" stroke="black" d="M1418.23,-537C1418.23,-537 1388.23,-537 1388.23,-537 1382.23,-537 1376.23,-531 1376.23,-525 1376.23,-525 1376.23,-513 1376.23,-513 1376.23,-507 1382.23,-501 1388.23,-501 1388.23,-501 1418.23,-501 1418.23,-501 1424.23,-501 1430.23,-507 1430.23,-513 1430.23,-513 1430.23,-525 1430.23,-525 1430.23,-531 1424.23,-537 1418.23,-537"/>
<text text-anchor="middle" x="1403.23" y="-515.3" font-family="Times,serif" font-size="14.00">BUF</text>
</g>
<!-- n6&#45;&gt;x18 -->
<g id="edge54" class="edge">
<title>n6:e&#45;&gt;x18:w</title>
<path fill="none" stroke="black" d="M1227.33,-477C1292.06,-477 1305.55,-514.69 1364.88,-518.66"/>
<polygon fill="black" stroke="black" points="1365.12,-522.17 1375.23,-519 1365.35,-515.18 1365.12,-522.17"/>
</g>
<!-- n7 -->
<g id="node7" class="node">
<title>n7</title>
<polygon fill="none" stroke="black" points="1700.13,-483 1621.04,-465 1700.13,-447 1779.23,-465 1700.13,-483"/>
<text text-anchor="middle" x="1700.13" y="-461.3" font-family="Times,serif" font-size="14.00">and_1.out</text>
</g>
<!-- n8 -->
<g id="node8" class="node">
<title>n8</title>
<polygon fill="none" stroke="black" points="54,-219.54 54,-234.46 38.18,-245 15.82,-245 0,-234.46 0,-219.54 15.82,-209 38.18,-209 54,-219.54"/>
<text text-anchor="middle" x="27" y="-223.3" font-family="Times,serif" font-size="14.00">b</text>
</g>
<!-- n8&#45;&gt;c32 -->
<g id="edge56" class="edge">
<title>n8:e&#45;&gt;c32:w</title>
<path fill="none" stroke="black" d="M54,-227C115.24,-227 57.01,-308.41 90,-360 99.48,-374.83 103.87,-386.19 116.98,-389.79"/>
<polygon fill="black" stroke="black" points="116.65,-393.28 127,-391 117.49,-386.33 116.65,-393.28"/>
</g>
<!-- n8&#45;&gt;c36 -->
<g id="edge57" class="edge">
<title>n8:e&#45;&gt;c36:w</title>
<path fill="none" stroke="black" d="M54,-227C88.2,-227 66.04,-270.6 90,-295 100.77,-305.97 106.25,-312.79 117.8,-315.11"/>
<polygon fill="black" stroke="black" points="117.73,-318.62 128,-316 118.34,-311.64 117.73,-318.62"/>
</g>
<!-- c39 -->
<g id="node38" class="node">
<title>c39</title>
<polygon fill="none" stroke="black" points="90,-240 90,-286 346,-286 346,-240 90,-240"/>
<text text-anchor="middle" x="103" y="-270.8" font-family="Times,serif" font-size="14.00">a</text>
<polyline fill="none" stroke="black" points="90,-263 116,-263 "/>
<text text-anchor="middle" x="103" y="-247.8" font-family="Times,serif" font-size="14.00">b</text>
<polyline fill="none" stroke="black" points="116,-240 116,-286 "/>
<text text-anchor="middle" x="211" y="-266.8" font-family="Times,serif" font-size="14.00">xor_0.or_0.not_1.nand_0</text>
<text text-anchor="middle" x="211" y="-251.8" font-family="Times,serif" font-size="14.00">Nand</text>
<polyline fill="none" stroke="black" points="306,-240 306,-286 "/>
<text text-anchor="middle" x="326" y="-259.3" font-family="Times,serif" font-size="14.00">out</text>
</g>
<!-- n8&#45;&gt;c39 -->
<g id="edge58" class="edge">
<title>n8:e&#45;&gt;c39:w</title>
<path fill="none" stroke="black" d="M54,-227C76.5,-227 67.68,-261.17 80.39,-271.85"/>
<polygon fill="black" stroke="black" points="79.41,-275.21 90,-275 81.59,-268.56 79.41,-275.21"/>
</g>
<!-- n8&#45;&gt;c39 -->
<g id="edge59" class="edge">
<title>n8:e&#45;&gt;c39:w</title>
<path fill="none" stroke="black" d="M54,-227C69.17,-227 70.84,-241.94 80.32,-248.25"/>
<polygon fill="black" stroke="black" points="79.42,-251.63 90,-251 81.34,-244.9 79.42,-251.63"/>
</g>
<!-- x2 -->
<g id="node41" class="node">
<title>x2</title>
<path fill="none" stroke="black" d="M233,-113C233,-113 203,-113 203,-113 197,-113 191,-107 191,-101 191,-101 191,-89 191,-89 191,-83 197,-77 203,-77 203,-77 233,-77 233,-77 239,-77 245,-83 245,-89 245,-89 245,-101 245,-101 245,-107 239,-113 233,-113"/>
<text text-anchor="middle" x="218" y="-91.3" font-family="Times,serif" font-size="14.00">BUF</text>
</g>
<!-- n8&#45;&gt;x2 -->
<g id="edge63" class="edge">
<title>n8:e&#45;&gt;x2:w</title>
<path fill="none" stroke="black" d="M54,-227C103.33,-227 53.97,-155.7 90,-122 120.99,-93.01 140.7,-94.52 179.66,-94.94"/>
<polygon fill="black" stroke="black" points="179.98,-98.44 190,-95 180.02,-91.44 179.98,-98.44"/>
</g>
<!-- x10 -->
<g id="node49" class="node">
<title>x10</title>
<path fill="none" stroke="black" d="M233,-59C233,-59 203,-59 203,-59 197,-59 191,-53 191,-47 191,-47 191,-35 191,-35 191,-29 197,-23 203,-23 203,-23 233,-23 233,-23 239,-23 245,-29 245,-35 245,-35 245,-47 245,-47 245,-53 239,-59 233,-59"/>
<text text-anchor="middle" x="218" y="-37.3" font-family="Times,serif" font-size="14.00">BUF</text>
</g>
<!-- n8&#45;&gt;x10 -->
<g id="edge60" class="edge">
<title>n8:e&#45;&gt;x10:w</title>
<path fill="none" stroke="black" d="M54,-227C126.46,-227 39.83,-120.27 90,-68 119.45,-37.32 140.54,-40.28 179.88,-40.91"/>
<polygon fill="black" stroke="black" points="179.97,-44.41 190,-41 180.03,-37.41 179.97,-44.41"/>
</g>
<!-- x12 -->
<g id="node51" class="node">
<title>x12</title>
<path fill="none" stroke="black" d="M233,-221C233,-221 203,-221 203,-221 197,-221 191,-215 191,-209 191,-209 191,-197 191,-197 191,-191 197,-185 203,-185 203,-185 233,-185 233,-185 239,-185 245,-191 245,-197 245,-197 245,-209 245,-209 245,-215 239,-221 233,-221"/>
<text text-anchor="middle" x="218" y="-199.3" font-family="Times,serif" font-size="14.00">BUF</text>
</g>
<!-- n8&#45;&gt;x12 -->
<g id="edge61" class="edge">
<title>n8:e&#45;&gt;x12:w</title>
<path fill="none" stroke="black" d="M54,-227C111.78,-227 126.9,-205.73 179.69,-203.24"/>
<polygon fill="black" stroke="black" points="180.08,-206.73 190,-203 179.92,-199.73 180.08,-206.73"/>
</g>
<!-- x15 -->
<g id="node54" class="node">
<title>x15</title>
<path fill="none" stroke="black" d="M233,-167C233,-167 203,-167 203,-167 197,-167 191,-161 191,-155 191,-155 191,-143 191,-143 191,-137 197,-131 203,-131 203,-131 233,-131 233,-131 239,-131 245,-137 245,-143 245,-143 245,-155 245,-155 245,-161 239,-167 233,-167"/>
<text text-anchor="middle" x="218" y="-145.3" font-family="Times,serif" font-size="14.00">BUF</text>
</g>
<!-- n8&#45;&gt;x15 -->
<g id="edge62" class="edge">
<title>n8:e&#45;&gt;x15:w</title>
<path fill="none" stroke="black" d="M54,-227C81.74,-227 67.26,-191.89 90,-176 124.79,-151.69 141.3,-149.26 179.73,-149.02"/>
<polygon fill="black" stroke="black" points="180.01,-152.52 190,-149 179.99,-145.52 180.01,-152.52"/>
</g>
<!-- n9 -->
<g id="node9" class="node">
<title>n9</title>
<polygon fill="none" stroke="black" points="1738.11,-511.54 1738.11,-526.46 1715.86,-537 1684.4,-537 1662.16,-526.46 1662.16,-511.54 1684.4,-501 1715.86,-501 1738.11,-511.54"/>
<text text-anchor="middle" x="1700.13" y="-515.3" font-family="Times,serif" font-size="14.00">carry</text>
</g>
<!-- n10 -->
<g id="node10" class="node">
<title>n10</title>
<polygon fill="none" stroke="black" points="2784.68,-228.54 2784.68,-243.46 2765.28,-254 2737.83,-254 2718.43,-243.46 2718.43,-228.54 2737.83,-218 2765.28,-218 2784.68,-228.54"/>
<text text-anchor="middle" x="2751.56" y="-232.3" font-family="Times,serif" font-size="14.00">sum</text>
</g>
<!-- n11 -->
<g id="node11" class="node">
<title>n11</title>
<polygon fill="none" stroke="black" points="521.71,-654 459.21,-636 521.71,-618 584.22,-636 521.71,-654"/>
<text text-anchor="middle" x="521.71" y="-632.3" font-family="Times,serif" font-size="14.00">xor_0.a</text>
</g>
<!-- n12 -->
<g id="node12" class="node">
<title>n12</title>
<polygon fill="none" stroke="black" points="521.71,-332 431.56,-314 521.71,-296 611.87,-314 521.71,-332"/>
<text text-anchor="middle" x="521.71" y="-310.3" font-family="Times,serif" font-size="14.00">xor_0.aNdb</text>
</g>
<!-- c34 -->
<g id="node33" class="node">
<title>c34</title>
<polygon fill="none" stroke="black" points="1291.23,-255 1291.23,-301 1515.23,-301 1515.23,-255 1291.23,-255"/>
<text text-anchor="middle" x="1304.23" y="-285.8" font-family="Times,serif" font-size="14.00">a</text>
<polyline fill="none" stroke="black" points="1291.23,-278 1317.23,-278 "/>
<text text-anchor="middle" x="1304.23" y="-262.8" font-family="Times,serif" font-size="14.00">b</text>
<polyline fill="none" stroke="black" points="1317.23,-255 1317.23,-301 "/>
<text text-anchor="middle" x="1396.23" y="-281.8" font-family="Times,serif" font-size="14.00">xor_0.and_2.nand_0</text>
<text text-anchor="middle" x="1396.23" y="-266.8" font-family="Times,serif" font-size="14.00">Nand</text>
<polyline fill="none" stroke="black" points="1475.23,-255 1475.23,-301 "/>
<text text-anchor="middle" x="1495.23" y="-274.3" font-family="Times,serif" font-size="14.00">out</text>
</g>
<!-- n12&#45;&gt;c34 -->
<g id="edge12" class="edge">
<title>n12:e&#45;&gt;c34:w</title>
<path fill="none" stroke="black" d="M612.71,-314C655.14,-314 656.24,-280.2 697.42,-270 950.22,-207.36 1025.34,-264.45 1280.89,-265.97"/>
<polygon fill="black" stroke="black" points="1281.22,-269.47 1291.23,-266 1281.24,-262.47 1281.22,-269.47"/>
</g>
<!-- x6 -->
<g id="node45" class="node">
<title>x6</title>
<path fill="none" stroke="black" d="M824.42,-315C824.42,-315 794.42,-315 794.42,-315 788.42,-315 782.42,-309 782.42,-303 782.42,-303 782.42,-291 782.42,-291 782.42,-285 788.42,-279 794.42,-279 794.42,-279 824.42,-279 824.42,-279 830.42,-279 836.42,-285 836.42,-291 836.42,-291 836.42,-303 836.42,-303 836.42,-309 830.42,-315 824.42,-315"/>
<text text-anchor="middle" x="809.42" y="-293.3" font-family="Times,serif" font-size="14.00">BUF</text>
</g>
<!-- n12&#45;&gt;x6 -->
<g id="edge13" class="edge">
<title>n12:e&#45;&gt;x6:w</title>
<path fill="none" stroke="black" d="M612.71,-314C684.54,-314 704.25,-298.56 771.19,-297.11"/>
<polygon fill="black" stroke="black" points="771.46,-300.61 781.42,-297 771.39,-293.61 771.46,-300.61"/>
</g>
<!-- n13 -->
<g id="node13" class="node">
<title>n13</title>
<polygon fill="none" stroke="black" points="1700.13,-418 1618.52,-400 1700.13,-382 1781.74,-400 1700.13,-418"/>
<text text-anchor="middle" x="1700.13" y="-396.3" font-family="Times,serif" font-size="14.00">xor_0.aOb</text>
</g>
<!-- n14 -->
<g id="node14" class="node">
<title>n14</title>
<polygon fill="none" stroke="black" points="1106.33,-372 1000.42,-354 1106.33,-336 1212.23,-354 1106.33,-372"/>
<text text-anchor="middle" x="1106.33" y="-350.3" font-family="Times,serif" font-size="14.00">xor_0.and_2.a</text>
</g>
<!-- n14&#45;&gt;c34 -->
<g id="edge16" class="edge">
<title>n14:e&#45;&gt;c34:w</title>
<path fill="none" stroke="black" d="M1213.33,-354C1236.23,-354 1237.55,-338.56 1255.23,-324 1269.03,-312.63 1269.64,-297.29 1281.19,-291.94"/>
<polygon fill="black" stroke="black" points="1282.08,-295.33 1291.23,-290 1280.75,-288.46 1282.08,-295.33"/>
</g>
<!-- x11 -->
<g id="node50" class="node">
<title>x11</title>
<path fill="none" stroke="black" d="M1418.23,-364C1418.23,-364 1388.23,-364 1388.23,-364 1382.23,-364 1376.23,-358 1376.23,-352 1376.23,-352 1376.23,-340 1376.23,-340 1376.23,-334 1382.23,-328 1388.23,-328 1388.23,-328 1418.23,-328 1418.23,-328 1424.23,-328 1430.23,-334 1430.23,-340 1430.23,-340 1430.23,-352 1430.23,-352 1430.23,-358 1424.23,-364 1418.23,-364"/>
<text text-anchor="middle" x="1403.23" y="-342.3" font-family="Times,serif" font-size="14.00">BUF</text>
</g>
<!-- n14&#45;&gt;x11 -->
<g id="edge17" class="edge">
<title>n14:e&#45;&gt;x11:w</title>
<path fill="none" stroke="black" d="M1213.33,-354C1281.85,-354 1301.32,-346.76 1365.05,-346.06"/>
<polygon fill="black" stroke="black" points="1365.25,-349.55 1375.23,-346 1365.21,-342.55 1365.25,-349.55"/>
</g>
<!-- x16 -->
<g id="node55" class="node">
<title>x16</title>
<path fill="none" stroke="black" d="M1418.23,-418C1418.23,-418 1388.23,-418 1388.23,-418 1382.23,-418 1376.23,-412 1376.23,-406 1376.23,-406 1376.23,-394 1376.23,-394 1376.23,-388 1382.23,-382 1388.23,-382 1388.23,-382 1418.23,-382 1418.23,-382 1424.23,-382 1430.23,-388 1430.23,-394 1430.23,-394 1430.23,-406 1430.23,-406 1430.23,-412 1424.23,-418 1418.23,-418"/>
<text text-anchor="middle" x="1403.23" y="-396.3" font-family="Times,serif" font-size="14.00">BUF</text>
</g>
<!-- n14&#45;&gt;x16 -->
<g id="edge18" class="edge">
<title>n14:e&#45;&gt;x16:w</title>
<path fill="none" stroke="black" d="M1213.33,-354C1284.63,-354 1299.14,-395.79 1365.11,-399.71"/>
<polygon fill="black" stroke="black" points="1365.13,-403.21 1375.23,-400 1365.34,-396.21 1365.13,-403.21"/>
</g>
<!-- n15 -->
<g id="node15" class="node">
<title>n15</title>
<polygon fill="none" stroke="black" points="1700.13,-296 1551.33,-278 1700.13,-260 1848.94,-278 1700.13,-296"/>
<text text-anchor="middle" x="1700.13" y="-274.3" font-family="Times,serif" font-size="14.00">xor_0.and_2.aNandb</text>
</g>
<!-- c35 -->
<g id="node34" class="node">
<title>c35</title>
<polygon fill="none" stroke="black" points="1885.04,-267 1885.04,-313 2152.04,-313 2152.04,-267 1885.04,-267"/>
<text text-anchor="middle" x="1898.04" y="-297.8" font-family="Times,serif" font-size="14.00">a</text>
<polyline fill="none" stroke="black" points="1885.04,-290 1911.04,-290 "/>
<text text-anchor="middle" x="1898.04" y="-274.8" font-family="Times,serif" font-size="14.00">b</text>
<polyline fill="none" stroke="black" points="1911.04,-267 1911.04,-313 "/>
<text text-anchor="middle" x="2011.54" y="-293.8" font-family="Times,serif" font-size="14.00">xor_0.and_2.not_1.nand_0</text>
<text text-anchor="middle" x="2011.54" y="-278.8" font-family="Times,serif" font-size="14.00">Nand</text>
<polyline fill="none" stroke="black" points="2112.04,-267 2112.04,-313 "/>
<text text-anchor="middle" x="2132.04" y="-286.3" font-family="Times,serif" font-size="14.00">out</text>
</g>
<!-- n15&#45;&gt;c35 -->
<g id="edge20" class="edge">
<title>n15:e&#45;&gt;c35:w</title>
<path fill="none" stroke="black" d="M1849.04,-278C1864.21,-278 1865.88,-292.94 1875.36,-299.25"/>
<polygon fill="black" stroke="black" points="1874.46,-302.63 1885.04,-302 1876.38,-295.9 1874.46,-302.63"/>
</g>
<!-- n15&#45;&gt;c35 -->
<g id="edge21" class="edge">
<title>n15:e&#45;&gt;c35:w</title>
<path fill="none" stroke="black" d="M1849.04,-278C1861.04,-278 1866.29,-278 1874.91,-278"/>
<polygon fill="black" stroke="black" points="1875.04,-281.5 1885.04,-278 1875.04,-274.5 1875.04,-281.5"/>
</g>
<!-- x4 -->
<g id="node43" class="node">
<title>x4</title>
<path fill="none" stroke="black" d="M2033.54,-248C2033.54,-248 2003.54,-248 2003.54,-248 1997.54,-248 1991.54,-242 1991.54,-236 1991.54,-236 1991.54,-224 1991.54,-224 1991.54,-218 1997.54,-212 2003.54,-212 2003.54,-212 2033.54,-212 2033.54,-212 2039.54,-212 2045.54,-218 2045.54,-224 2045.54,-224 2045.54,-236 2045.54,-236 2045.54,-242 2039.54,-248 2033.54,-248"/>
<text text-anchor="middle" x="2018.54" y="-226.3" font-family="Times,serif" font-size="14.00">BUF</text>
</g>
<!-- n15&#45;&gt;x4 -->
<g id="edge22" class="edge">
<title>n15:e&#45;&gt;x4:w</title>
<path fill="none" stroke="black" d="M1849.04,-278C1867.56,-278 1867.9,-264.03 1885.04,-257 1926.49,-239.99 1940.13,-231.33 1980.33,-230.14"/>
<polygon fill="black" stroke="black" points="1980.59,-233.64 1990.54,-230 1980.49,-226.64 1980.59,-233.64"/>
</g>
<!-- n16 -->
<g id="node16" class="node">
<title>n16</title>
<polygon fill="none" stroke="black" points="1106.33,-315 999.58,-297 1106.33,-279 1213.07,-297 1106.33,-315"/>
<text text-anchor="middle" x="1106.33" y="-293.3" font-family="Times,serif" font-size="14.00">xor_0.and_2.b</text>
</g>
<!-- n17 -->
<g id="node17" class="node">
<title>n17</title>
<polygon fill="none" stroke="black" points="2347.05,-248 2196.07,-230 2347.05,-212 2498.04,-230 2347.05,-248"/>
<text text-anchor="middle" x="2347.05" y="-226.3" font-family="Times,serif" font-size="14.00">xor_0.and_2.not_1.in</text>
</g>
<!-- n18 -->
<g id="node18" class="node">
<title>n18</title>
<polygon fill="none" stroke="black" points="2347.05,-308 2188.02,-290 2347.05,-272 2506.08,-290 2347.05,-308"/>
<text text-anchor="middle" x="2347.05" y="-286.3" font-family="Times,serif" font-size="14.00">xor_0.and_2.not_1.out</text>
</g>
<!-- x5 -->
<g id="node44" class="node">
<title>x5</title>
<path fill="none" stroke="black" d="M2584.07,-362C2584.07,-362 2554.07,-362 2554.07,-362 2548.07,-362 2542.07,-356 2542.07,-350 2542.07,-350 2542.07,-338 2542.07,-338 2542.07,-332 2548.07,-326 2554.07,-326 2554.07,-326 2584.07,-326 2584.07,-326 2590.07,-326 2596.07,-332 2596.07,-338 2596.07,-338 2596.07,-350 2596.07,-350 2596.07,-356 2590.07,-362 2584.07,-362"/>
<text text-anchor="middle" x="2569.07" y="-340.3" font-family="Times,serif" font-size="14.00">BUF</text>
</g>
<!-- n18&#45;&gt;x5 -->
<g id="edge28" class="edge">
<title>n18:e&#45;&gt;x5:w</title>
<path fill="none" stroke="black" d="M2506.07,-290C2530.63,-290 2518.55,-329.16 2532.23,-340.78"/>
<polygon fill="black" stroke="black" points="2531.47,-344.22 2542.07,-344 2533.65,-337.57 2531.47,-344.22"/>
</g>
<!-- x14 -->
<g id="node53" class="node">
<title>x14</title>
<path fill="none" stroke="black" d="M2584.07,-308C2584.07,-308 2554.07,-308 2554.07,-308 2548.07,-308 2542.07,-302 2542.07,-296 2542.07,-296 2542.07,-284 2542.07,-284 2542.07,-278 2548.07,-272 2554.07,-272 2554.07,-272 2584.07,-272 2584.07,-272 2590.07,-272 2596.07,-278 2596.07,-284 2596.07,-284 2596.07,-296 2596.07,-296 2596.07,-302 2590.07,-308 2584.07,-308"/>
<text text-anchor="middle" x="2569.07" y="-286.3" font-family="Times,serif" font-size="14.00">BUF</text>
</g>
<!-- n18&#45;&gt;x14 -->
<g id="edge26" class="edge">
<title>n18:e&#45;&gt;x14:w</title>
<path fill="none" stroke="black" d="M2506.07,-290C2518.07,-290 2523.32,-290 2531.94,-290"/>
<polygon fill="black" stroke="black" points="2532.07,-293.5 2542.07,-290 2532.07,-286.5 2532.07,-293.5"/>
</g>
<!-- x19 -->
<g id="node58" class="node">
<title>x19</title>
<path fill="none" stroke="black" d="M2584.07,-254C2584.07,-254 2554.07,-254 2554.07,-254 2548.07,-254 2542.07,-248 2542.07,-242 2542.07,-242 2542.07,-230 2542.07,-230 2542.07,-224 2548.07,-218 2554.07,-218 2554.07,-218 2584.07,-218 2584.07,-218 2590.07,-218 2596.07,-224 2596.07,-230 2596.07,-230 2596.07,-242 2596.07,-242 2596.07,-248 2590.07,-254 2584.07,-254"/>
<text text-anchor="middle" x="2569.07" y="-232.3" font-family="Times,serif" font-size="14.00">BUF</text>
</g>
<!-- n18&#45;&gt;x19 -->
<g id="edge27" class="edge">
<title>n18:e&#45;&gt;x19:w</title>
<path fill="none" stroke="black" d="M2506.07,-290C2530.63,-290 2518.55,-250.84 2532.23,-239.22"/>
<polygon fill="black" stroke="black" points="2533.65,-242.43 2542.07,-236 2531.47,-235.78 2533.65,-242.43"/>
</g>
<!-- n19 -->
<g id="node19" class="node">
<title>n19</title>
<polygon fill="none" stroke="black" points="2751.56,-362 2632.08,-344 2751.56,-326 2871.04,-344 2751.56,-362"/>
<text text-anchor="middle" x="2751.56" y="-340.3" font-family="Times,serif" font-size="14.00">xor_0.and_2.out</text>
</g>
<!-- n20 -->
<g id="node20" class="node">
<title>n20</title>
<polygon fill="none" stroke="black" points="521.71,-167 458.37,-149 521.71,-131 585.06,-149 521.71,-167"/>
<text text-anchor="middle" x="521.71" y="-145.3" font-family="Times,serif" font-size="14.00">xor_0.b</text>
</g>
<!-- n21 -->
<g id="node21" class="node">
<title>n21</title>
<polygon fill="none" stroke="black" points="521.71,-708 426.03,-690 521.71,-672 617.4,-690 521.71,-708"/>
<text text-anchor="middle" x="521.71" y="-686.3" font-family="Times,serif" font-size="14.00">xor_0.or_0.a</text>
</g>
<!-- n22 -->
<g id="node22" class="node">
<title>n22</title>
<polygon fill="none" stroke="black" points="521.71,-221 426.03,-203 521.71,-185 617.4,-203 521.71,-221"/>
<text text-anchor="middle" x="521.71" y="-199.3" font-family="Times,serif" font-size="14.00">xor_0.or_0.b</text>
</g>
<!-- n23 -->
<g id="node23" class="node">
<title>n23</title>
<polygon fill="none" stroke="black" points="521.71,-489 417.98,-471 521.71,-453 625.44,-471 521.71,-489"/>
<text text-anchor="middle" x="521.71" y="-467.3" font-family="Times,serif" font-size="14.00">xor_0.or_0.na</text>
</g>
<!-- c37 -->
<g id="node36" class="node">
<title>c37</title>
<polygon fill="none" stroke="black" points="703.42,-334 703.42,-380 915.42,-380 915.42,-334 703.42,-334"/>
<text text-anchor="middle" x="716.42" y="-364.8" font-family="Times,serif" font-size="14.00">a</text>
<polyline fill="none" stroke="black" points="703.42,-357 729.42,-357 "/>
<text text-anchor="middle" x="716.42" y="-341.8" font-family="Times,serif" font-size="14.00">b</text>
<polyline fill="none" stroke="black" points="729.42,-334 729.42,-380 "/>
<text text-anchor="middle" x="802.42" y="-360.8" font-family="Times,serif" font-size="14.00">xor_0.or_0.nand_2</text>
<text text-anchor="middle" x="802.42" y="-345.8" font-family="Times,serif" font-size="14.00">Nand</text>
<polyline fill="none" stroke="black" points="875.42,-334 875.42,-380 "/>
<text text-anchor="middle" x="895.42" y="-353.3" font-family="Times,serif" font-size="14.00">out</text>
</g>
<!-- n23&#45;&gt;c37 -->
<g id="edge35" class="edge">
<title>n23:e&#45;&gt;c37:w</title>
<path fill="none" stroke="black" d="M626.71,-471C646.26,-471 648.76,-458.89 661.42,-444 683.45,-418.12 668.48,-378.53 692.27,-370.46"/>
<polygon fill="black" stroke="black" points="693.03,-373.89 702.42,-369 692.03,-366.96 693.03,-373.89"/>
</g>
<!-- x7 -->
<g id="node46" class="node">
<title>x7</title>
<path fill="none" stroke="black" d="M824.42,-555C824.42,-555 794.42,-555 794.42,-555 788.42,-555 782.42,-549 782.42,-543 782.42,-543 782.42,-531 782.42,-531 782.42,-525 788.42,-519 794.42,-519 794.42,-519 824.42,-519 824.42,-519 830.42,-519 836.42,-525 836.42,-531 836.42,-531 836.42,-543 836.42,-543 836.42,-549 830.42,-555 824.42,-555"/>
<text text-anchor="middle" x="809.42" y="-533.3" font-family="Times,serif" font-size="14.00">BUF</text>
</g>
<!-- n23&#45;&gt;x7 -->
<g id="edge36" class="edge">
<title>n23:e&#45;&gt;x7:w</title>
<path fill="none" stroke="black" d="M626.71,-471C662.39,-471 664.67,-494.86 697.42,-509 730.17,-523.13 740.23,-534.65 771.12,-536.68"/>
<polygon fill="black" stroke="black" points="771.32,-540.19 781.42,-537 771.54,-533.19 771.32,-540.19"/>
</g>
<!-- n24 -->
<g id="node24" class="node">
<title>n24</title>
<polygon fill="none" stroke="black" points="521.71,-278 417.98,-260 521.71,-242 625.44,-260 521.71,-278"/>
<text text-anchor="middle" x="521.71" y="-256.3" font-family="Times,serif" font-size="14.00">xor_0.or_0.nb</text>
</g>
<!-- n24&#45;&gt;c37 -->
<g id="edge38" class="edge">
<title>n24:e&#45;&gt;c37:w</title>
<path fill="none" stroke="black" d="M626.71,-260C646.26,-260 647.92,-272.87 661.42,-287 680.5,-306.97 673.42,-336.4 692.49,-343.44"/>
<polygon fill="black" stroke="black" points="692,-346.91 702.42,-345 693.09,-339.99 692,-346.91"/>
</g>
<!-- x9 -->
<g id="node48" class="node">
<title>x9</title>
<path fill="none" stroke="black" d="M824.42,-223C824.42,-223 794.42,-223 794.42,-223 788.42,-223 782.42,-217 782.42,-211 782.42,-211 782.42,-199 782.42,-199 782.42,-193 788.42,-187 794.42,-187 794.42,-187 824.42,-187 824.42,-187 830.42,-187 836.42,-193 836.42,-199 836.42,-199 836.42,-211 836.42,-211 836.42,-217 830.42,-223 824.42,-223"/>
<text text-anchor="middle" x="809.42" y="-201.3" font-family="Times,serif" font-size="14.00">BUF</text>
</g>
<!-- n24&#45;&gt;x9 -->
<g id="edge39" class="edge">
<title>n24:e&#45;&gt;x9:w</title>
<path fill="none" stroke="black" d="M626.71,-260C696.13,-260 707.44,-210.24 771.18,-205.38"/>
<polygon fill="black" stroke="black" points="771.56,-208.87 781.42,-205 771.3,-201.87 771.56,-208.87"/>
</g>
<!-- n25 -->
<g id="node25" class="node">
<title>n25</title>
<polygon fill="none" stroke="black" points="521.71,-546 381.79,-528 521.71,-510 661.64,-528 521.71,-546"/>
<text text-anchor="middle" x="521.71" y="-524.3" font-family="Times,serif" font-size="14.00">xor_0.or_0.not_0.in</text>
</g>
<!-- n26 -->
<g id="node26" class="node">
<title>n26</title>
<polygon fill="none" stroke="black" points="1106.33,-555 957.52,-537 1106.33,-519 1255.13,-537 1106.33,-555"/>
<text text-anchor="middle" x="1106.33" y="-533.3" font-family="Times,serif" font-size="14.00">xor_0.or_0.not_0.out</text>
</g>
<!-- n27 -->
<g id="node27" class="node">
<title>n27</title>
<polygon fill="none" stroke="black" points="521.71,-59 381.79,-41 521.71,-23 661.64,-41 521.71,-59"/>
<text text-anchor="middle" x="521.71" y="-37.3" font-family="Times,serif" font-size="14.00">xor_0.or_0.not_1.in</text>
</g>
<!-- n28 -->
<g id="node28" class="node">
<title>n28</title>
<polygon fill="none" stroke="black" points="1106.33,-223 957.52,-205 1106.33,-187 1255.13,-205 1106.33,-223"/>
<text text-anchor="middle" x="1106.33" y="-201.3" font-family="Times,serif" font-size="14.00">xor_0.or_0.not_1.out</text>
</g>
<!-- n29 -->
<g id="node29" class="node">
<title>n29</title>
<polygon fill="none" stroke="black" points="1700.13,-364 1590.87,-346 1700.13,-328 1809.39,-346 1700.13,-364"/>
<text text-anchor="middle" x="1700.13" y="-342.3" font-family="Times,serif" font-size="14.00">xor_0.or_0.out</text>
</g>
<!-- n30 -->
<g id="node30" class="node">
<title>n30</title>
<polygon fill="none" stroke="black" points="2751.56,-308 2675.48,-290 2751.56,-272 2827.64,-290 2751.56,-308"/>
<text text-anchor="middle" x="2751.56" y="-286.3" font-family="Times,serif" font-size="14.00">xor_0.out</text>
</g>
<!-- c32&#45;&gt;n3 -->
<g id="edge45" class="edge">
<title>c32:e&#45;&gt;n3:w</title>
<path fill="none" stroke="black" d="M309,-403C351.47,-403 363.77,-414.9 401.53,-416.76"/>
<polygon fill="black" stroke="black" points="401.63,-420.26 411.71,-417 401.8,-413.26 401.63,-420.26"/>
</g>
<!-- c33&#45;&gt;n6 -->
<g id="edge52" class="edge">
<title>c33:e&#45;&gt;n6:w</title>
<path fill="none" stroke="black" d="M921.42,-477C946.16,-477 954.74,-477 975.31,-477"/>
<polygon fill="black" stroke="black" points="975.33,-480.5 985.33,-477 975.33,-473.5 975.33,-480.5"/>
</g>
<!-- c34&#45;&gt;n15 -->
<g id="edge19" class="edge">
<title>c34:e&#45;&gt;n15:w</title>
<path fill="none" stroke="black" d="M1515.23,-278C1527.23,-278 1532.48,-278 1541.11,-278"/>
<polygon fill="black" stroke="black" points="1541.23,-281.5 1551.23,-278 1541.23,-274.5 1541.23,-281.5"/>
</g>
<!-- c35&#45;&gt;n18 -->
<g id="edge25" class="edge">
<title>c35:e&#45;&gt;n18:w</title>
<path fill="none" stroke="black" d="M2152.04,-290C2164.04,-290 2169.29,-290 2177.91,-290"/>
<polygon fill="black" stroke="black" points="2178.04,-293.5 2188.04,-290 2178.04,-286.5 2178.04,-293.5"/>
</g>
<!-- c36&#45;&gt;n12 -->
<g id="edge11" class="edge">
<title>c36:e&#45;&gt;n12:w</title>
<path fill="none" stroke="black" d="M308,-328C359.35,-328 373.98,-315.75 420.6,-314.17"/>
<polygon fill="black" stroke="black" points="420.77,-317.66 430.71,-314 420.66,-310.67 420.77,-317.66"/>
</g>
<!-- c37&#45;&gt;n14 -->
<g id="edge15" class="edge">
<title>c37:e&#45;&gt;n14:w</title>
<path fill="none" stroke="black" d="M916.42,-357C949.69,-357 960.4,-354.56 989.27,-354.08"/>
<polygon fill="black" stroke="black" points="989.36,-357.58 999.33,-354 989.3,-350.58 989.36,-357.58"/>
</g>
<!-- c38&#45;&gt;n23 -->
<g id="edge34" class="edge">
<title>c38:e&#45;&gt;n23:w</title>
<path fill="none" stroke="black" d="M346,-468C373.77,-468 383.1,-470.34 406.55,-470.89"/>
<polygon fill="black" stroke="black" points="406.67,-474.39 416.71,-471 406.75,-467.39 406.67,-474.39"/>
</g>
<!-- c39&#45;&gt;n24 -->
<g id="edge37" class="edge">
<title>c39:e&#45;&gt;n24:w</title>
<path fill="none" stroke="black" d="M346,-263C373.77,-263 383.1,-260.66 406.55,-260.11"/>
<polygon fill="black" stroke="black" points="406.75,-263.61 416.71,-260 406.67,-256.61 406.75,-263.61"/>
</g>
<!-- x0&#45;&gt;n5 -->
<g id="edge51" class="edge">
<title>x0:e&#45;&gt;n5:w</title>
<path fill="none" stroke="black" d="M837.42,-417C904.04,-417 923.23,-417 985.03,-417"/>
<polygon fill="black" stroke="black" points="985.33,-420.5 995.33,-417 985.33,-413.5 985.33,-420.5"/>
</g>
<!-- x1&#45;&gt;n7 -->
<g id="edge55" class="edge">
<title>x1:e&#45;&gt;n7:w</title>
<path fill="none" stroke="black" d="M1431.23,-465C1511.74,-465 1534.35,-465 1610.11,-465"/>
<polygon fill="black" stroke="black" points="1610.13,-468.5 1620.13,-465 1610.13,-461.5 1610.13,-468.5"/>
</g>
<!-- x2&#45;&gt;n4 -->
<g id="edge50" class="edge">
<title>x2:e&#45;&gt;n4:w</title>
<path fill="none" stroke="black" d="M246,-95C335.32,-95 360.13,-95 444.67,-95"/>
<polygon fill="black" stroke="black" points="444.71,-98.5 454.71,-95 444.71,-91.5 444.71,-98.5"/>
</g>
<!-- x3&#45;&gt;n2 -->
<g id="edge30" class="edge">
<title>x3:e&#45;&gt;n2:w</title>
<path fill="none" stroke="black" d="M246,-582C335.75,-582 360.68,-582 445.62,-582"/>
<polygon fill="black" stroke="black" points="445.71,-585.5 455.71,-582 445.71,-578.5 445.71,-585.5"/>
</g>
<!-- x4&#45;&gt;n17 -->
<g id="edge24" class="edge">
<title>x4:e&#45;&gt;n17:w</title>
<path fill="none" stroke="black" d="M2046.54,-230C2109.06,-230 2127.17,-230 2185.01,-230"/>
<polygon fill="black" stroke="black" points="2185.05,-233.5 2195.05,-230 2185.05,-226.5 2185.05,-233.5"/>
</g>
<!-- x5&#45;&gt;n19 -->
<g id="edge29" class="edge">
<title>x5:e&#45;&gt;n19:w</title>
<path fill="none" stroke="black" d="M2596.07,-344C2608.07,-344 2613.32,-344 2621.94,-344"/>
<polygon fill="black" stroke="black" points="2622.07,-347.5 2632.07,-344 2622.07,-340.5 2622.07,-347.5"/>
</g>
<!-- x6&#45;&gt;n16 -->
<g id="edge23" class="edge">
<title>x6:e&#45;&gt;n16:w</title>
<path fill="none" stroke="black" d="M837.42,-297C905.44,-297 924.94,-297 988.22,-297"/>
<polygon fill="black" stroke="black" points="988.33,-300.5 998.33,-297 988.33,-293.5 988.33,-300.5"/>
</g>
<!-- x7&#45;&gt;n26 -->
<g id="edge41" class="edge">
<title>x7:e&#45;&gt;n26:w</title>
<path fill="none" stroke="black" d="M837.42,-537C887.22,-537 902.14,-537 947.3,-537"/>
<polygon fill="black" stroke="black" points="947.42,-540.5 957.42,-537 947.42,-533.5 947.42,-540.5"/>
</g>
<!-- x8&#45;&gt;n25 -->
<g id="edge40" class="edge">
<title>x8:e&#45;&gt;n25:w</title>
<path fill="none" stroke="black" d="M246,-528C302.9,-528 319.63,-528 371.82,-528"/>
<polygon fill="black" stroke="black" points="372,-531.5 382,-528 372,-524.5 372,-531.5"/>
</g>
<!-- x9&#45;&gt;n28 -->
<g id="edge43" class="edge">
<title>x9:e&#45;&gt;n28:w</title>
<path fill="none" stroke="black" d="M837.42,-205C887.22,-205 902.14,-205 947.3,-205"/>
<polygon fill="black" stroke="black" points="947.42,-208.5 957.42,-205 947.42,-201.5 947.42,-208.5"/>
</g>
<!-- x10&#45;&gt;n27 -->
<g id="edge42" class="edge">
<title>x10:e&#45;&gt;n27:w</title>
<path fill="none" stroke="black" d="M246,-41C302.9,-41 319.63,-41 371.82,-41"/>
<polygon fill="black" stroke="black" points="372,-44.5 382,-41 372,-37.5 372,-44.5"/>
</g>
<!-- x11&#45;&gt;n29 -->
<g id="edge44" class="edge">
<title>x11:e&#45;&gt;n29:w</title>
<path fill="none" stroke="black" d="M1431.23,-346C1498.27,-346 1517.58,-346 1579.77,-346"/>
<polygon fill="black" stroke="black" points="1580.13,-349.5 1590.13,-346 1580.13,-342.5 1580.13,-349.5"/>
</g>
<!-- x12&#45;&gt;n22 -->
<g id="edge33" class="edge">
<title>x12:e&#45;&gt;n22:w</title>
<path fill="none" stroke="black" d="M246,-203C321.86,-203 343.38,-203 414.36,-203"/>
<polygon fill="black" stroke="black" points="414.71,-206.5 424.71,-203 414.71,-199.5 414.71,-206.5"/>
</g>
<!-- x13&#45;&gt;n21 -->
<g id="edge32" class="edge">
<title>x13:e&#45;&gt;n21:w</title>
<path fill="none" stroke="black" d="M246,-690C321.86,-690 343.38,-690 414.36,-690"/>
<polygon fill="black" stroke="black" points="414.71,-693.5 424.71,-690 414.71,-686.5 414.71,-693.5"/>
</g>
<!-- x14&#45;&gt;n30 -->
<g id="edge49" class="edge">
<title>x14:e&#45;&gt;n30:w</title>
<path fill="none" stroke="black" d="M2596.07,-290C2627.27,-290 2637.54,-290 2664.33,-290"/>
<polygon fill="black" stroke="black" points="2664.56,-293.5 2674.56,-290 2664.56,-286.5 2664.56,-293.5"/>
</g>
<!-- x15&#45;&gt;n20 -->
<g id="edge31" class="edge">
<title>x15:e&#45;&gt;n20:w</title>
<path fill="none" stroke="black" d="M246,-149C336.6,-149 361.77,-149 447.52,-149"/>
<polygon fill="black" stroke="black" points="447.71,-152.5 457.71,-149 447.71,-145.5 447.71,-152.5"/>
</g>
<!-- x16&#45;&gt;n13 -->
<g id="edge14" class="edge">
<title>x16:e&#45;&gt;n13:w</title>
<path fill="none" stroke="black" d="M1431.23,-400C1510.3,-400 1532.62,-400 1606.82,-400"/>
<polygon fill="black" stroke="black" points="1607.13,-403.5 1617.13,-400 1607.13,-396.5 1607.13,-403.5"/>
</g>
<!-- x17&#45;&gt;n11 -->
<g id="edge10" class="edge">
<title>x17:e&#45;&gt;n11:w</title>
<path fill="none" stroke="black" d="M246,-636C336.6,-636 361.77,-636 447.52,-636"/>
<polygon fill="black" stroke="black" points="447.71,-639.5 457.71,-636 447.71,-632.5 447.71,-639.5"/>
</g>
<!-- x18&#45;&gt;n9 -->
<g id="edge64" class="edge">
<title>x18:e&#45;&gt;n9:w</title>
<path fill="none" stroke="black" d="M1431.23,-519C1529.92,-519 1557.12,-519 1650.92,-519"/>
<polygon fill="black" stroke="black" points="1651.13,-522.5 1661.13,-519 1651.13,-515.5 1651.13,-522.5"/>
</g>
<!-- x19&#45;&gt;n10 -->
<g id="edge9" class="edge">
<title>x19:e&#45;&gt;n10:w</title>
<path fill="none" stroke="black" d="M2596.07,-236C2646.48,-236 2661.59,-236 2707.31,-236"/>
<polygon fill="black" stroke="black" points="2707.56,-239.5 2717.56,-236 2707.56,-232.5 2707.56,-239.5"/>
</g>
</g>
</svg>
