<?xml version="1.0" encoding="UTF-8" standalone="no"?>
<!DOCTYPE svg PUBLIC "-//W3C//DTD SVG 1.1//EN"
 "http://www.w3.org/Graphics/SVG/1.1/DTD/svg11.dtd">
<!-- Generated by graphviz version 2.43.0 (0)
 -->
<!-- Title: Bit Pages: 1 -->
<svg width="710pt" height="251pt"
 viewBox="0.00 0.00 710.39 250.63" xmlns="http://www.w3.org/2000/svg" xmlns:xlink="http://www.w3.org/1999/xlink">
<g id="graph0" class="graph" transform="scale(1 1) rotate(0) translate(4 246.63)">
<title>Bit</title>
<polygon fill="white" stroke="transparent" points="-4,4 -4,-246.63 706.39,-246.63 706.39,4 -4,4"/>
<text text-anchor="middle" x="351.2" y="-7.8" font-family="Times,serif" font-size="14.00">Bit</text>
<!-- n1 -->
<g id="node1" class="node">
<title>n1</title>
<polygon fill="none" stroke="black" points="97.91,-195 5.24,-177 97.91,-159 190.58,-177 97.91,-195"/>
<text text-anchor="middle" x="97.91" y="-173.3" font-family="Times,serif" font-size="14.00">_1_out_wire</text>
</g>
<!-- c11 -->
<g id="node8" class="node">
<title>c11</title>
<polygon fill="none" stroke="black" points="226.74,-44.5 226.74,-113.5 366.74,-113.5 366.74,-44.5 226.74,-44.5"/>
<text text-anchor="middle" x="245.24" y="-98.3" font-family="Times,serif" font-size="14.00">a</text>
<polyline fill="none" stroke="black" points="226.74,-90.5 263.74,-90.5 "/>
<text text-anchor="middle" x="245.24" y="-75.3" font-family="Times,serif" font-size="14.00">b</text>
<polyline fill="none" stroke="black" points="226.74,-67.5 263.74,-67.5 "/>
<text text-anchor="middle" x="245.24" y="-52.3" font-family="Times,serif" font-size="14.00">sel</text>
<polyline fill="none" stroke="black" points="263.74,-44.5 263.74,-113.5 "/>
<text text-anchor="middle" x="295.24" y="-82.8" font-family="Times,serif" font-size="14.00">mux_0</text>
<text text-anchor="middle" x="295.24" y="-67.8" font-family="Times,serif" font-size="14.00">Mux</text>
<polyline fill="none" stroke="black" points="326.74,-44.5 326.74,-113.5 "/>
<text text-anchor="middle" x="346.74" y="-75.3" font-family="Times,serif" font-size="14.00">out</text>
</g>
<!-- n1&#45;&gt;c11 -->
<g id="edge2" class="edge">
<title>n1:e&#45;&gt;c11:w</title>
<path fill="none" stroke="black" d="M190.74,-177C223.53,-177 197.4,-118.03 216.84,-104.67"/>
<polygon fill="black" stroke="black" points="218,-107.98 226.74,-102 216.17,-101.22 218,-107.98"/>
</g>
<!-- x0 -->
<g id="node9" class="node">
<title>x0</title>
<path fill="none" stroke="black" d="M311.74,-222C311.74,-222 281.74,-222 281.74,-222 275.74,-222 269.74,-216 269.74,-210 269.74,-210 269.74,-198 269.74,-198 269.74,-192 275.74,-186 281.74,-186 281.74,-186 311.74,-186 311.74,-186 317.74,-186 323.74,-192 323.74,-198 323.74,-198 323.74,-210 323.74,-210 323.74,-216 317.74,-222 311.74,-222"/>
<text text-anchor="middle" x="296.74" y="-200.3" font-family="Times,serif" font-size="14.00">BUF</text>
</g>
<!-- n1&#45;&gt;x0 -->
<g id="edge3" class="edge">
<title>n1:e&#45;&gt;x0:w</title>
<path fill="none" stroke="black" d="M190.74,-177C223.7,-177 230.78,-198.79 258.49,-203.22"/>
<polygon fill="black" stroke="black" points="258.5,-206.73 268.74,-204 259.03,-199.75 258.5,-206.73"/>
</g>
<!-- x1 -->
<g id="node10" class="node">
<title>x1</title>
<path fill="none" stroke="black" d="M311.74,-168C311.74,-168 281.74,-168 281.74,-168 275.74,-168 269.74,-162 269.74,-156 269.74,-156 269.74,-144 269.74,-144 269.74,-138 275.74,-132 281.74,-132 281.74,-132 311.74,-132 311.74,-132 317.74,-132 323.74,-138 323.74,-144 323.74,-144 323.74,-156 323.74,-156 323.74,-162 317.74,-168 311.74,-168"/>
<text text-anchor="middle" x="296.74" y="-146.3" font-family="Times,serif" font-size="14.00">BUF</text>
</g>
<!-- n1&#45;&gt;x1 -->
<g id="edge4" class="edge">
<title>n1:e&#45;&gt;x1:w</title>
<path fill="none" stroke="black" d="M190.74,-177C223.7,-177 230.78,-155.21 258.49,-150.78"/>
<polygon fill="black" stroke="black" points="259.03,-154.25 268.74,-150 258.5,-147.27 259.03,-154.25"/>
</g>
<!-- n2 -->
<g id="node2" class="node">
<title>n2</title>
<polygon fill="none" stroke="black" points="124.91,-87.54 124.91,-102.46 109.09,-113 86.72,-113 70.91,-102.46 70.91,-87.54 86.72,-77 109.09,-77 124.91,-87.54"/>
<text text-anchor="middle" x="97.91" y="-91.3" font-family="Times,serif" font-size="14.00">in</text>
</g>
<!-- n2&#45;&gt;c11 -->
<g id="edge5" class="edge">
<title>n2:e&#45;&gt;c11:w</title>
<path fill="none" stroke="black" d="M125.91,-95C167.74,-95 179.57,-81.4 216.72,-79.28"/>
<polygon fill="black" stroke="black" points="216.84,-82.78 226.74,-79 216.65,-75.78 216.84,-82.78"/>
</g>
<!-- n3 -->
<g id="node3" class="node">
<title>n3</title>
<polygon fill="none" stroke="black" points="131.03,-33.54 131.03,-48.46 111.63,-59 84.18,-59 64.78,-48.46 64.78,-33.54 84.18,-23 111.63,-23 131.03,-33.54"/>
<text text-anchor="middle" x="97.91" y="-37.3" font-family="Times,serif" font-size="14.00">load</text>
</g>
<!-- n3&#45;&gt;c11 -->
<g id="edge6" class="edge">
<title>n3:e&#45;&gt;c11:w</title>
<path fill="none" stroke="black" d="M131.91,-41C170.91,-41 182.19,-53.53 216.43,-55.69"/>
<polygon fill="black" stroke="black" points="216.64,-59.19 226.74,-56 216.85,-52.2 216.64,-59.19"/>
</g>
<!-- n4 -->
<g id="node4" class="node">
<title>n4</title>
<polygon fill="none" stroke="black" points="470.76,-222 427.36,-204 470.76,-186 514.16,-204 470.76,-222"/>
<text text-anchor="middle" x="470.76" y="-200.3" font-family="Times,serif" font-size="14.00">loop</text>
</g>
<!-- n5 -->
<g id="node5" class="node">
<title>n5</title>
<polygon fill="none" stroke="black" points="470.76,-105 402.72,-87 470.76,-69 538.79,-87 470.76,-105"/>
<text text-anchor="middle" x="470.76" y="-83.3" font-family="Times,serif" font-size="14.00">muxOut</text>
</g>
<!-- c7 -->
<g id="node7" class="node">
<title>c7</title>
<polygon fill="none" stroke="black" points="574.78,-149 574.78,-187 695.78,-187 695.78,-149 574.78,-149"/>
<text text-anchor="middle" x="589.78" y="-164.3" font-family="Times,serif" font-size="14.00">in</text>
<polyline fill="none" stroke="black" points="604.78,-149 604.78,-187 "/>
<text text-anchor="middle" x="630.28" y="-171.8" font-family="Times,serif" font-size="14.00">dff_1</text>
<text text-anchor="middle" x="630.28" y="-156.8" font-family="Times,serif" font-size="14.00">DFF</text>
<polyline fill="none" stroke="black" points="655.78,-149 655.78,-187 "/>
<text text-anchor="middle" x="675.78" y="-164.3" font-family="Times,serif" font-size="14.00">out</text>
</g>
<!-- n5&#45;&gt;c7 -->
<g id="edge9" class="edge">
<title>n5:e&#45;&gt;c7:w</title>
<path fill="none" stroke="black" d="M538.78,-87C574.02,-87 543.49,-151.82 564.86,-165.49"/>
<polygon fill="black" stroke="black" points="564.22,-168.94 574.78,-168 565.94,-162.15 564.22,-168.94"/>
</g>
<!-- n6 -->
<g id="node6" class="node">
<title>n6</title>
<polygon fill="none" stroke="black" points="499.04,-142.54 499.04,-157.46 482.47,-168 459.04,-168 442.48,-157.46 442.48,-142.54 459.04,-132 482.47,-132 499.04,-142.54"/>
<text text-anchor="middle" x="470.76" y="-146.3" font-family="Times,serif" font-size="14.00">out</text>
</g>
<!-- c7&#45;&gt;n1 -->
<g id="edge1" class="edge">
<title>c7:e&#45;&gt;n1:w</title>
<path fill="none" stroke="black" d="M697.28,-168C705.95,-168 701.71,-180.73 696.28,-187.5 650.82,-244.14 610.74,-221.24 538.78,-231 401.35,-249.63 364.97,-242.14 226.74,-231 127.18,-222.97 71.72,-269.25 4.91,-195 2.81,-192.67 0.98,-189.42 0,-186.31"/>
<polygon fill="black" stroke="black" points="3.27,-187.58 3.91,-177 -3.19,-184.87 3.27,-187.58"/>
</g>
<!-- c11&#45;&gt;n5 -->
<g id="edge8" class="edge">
<title>c11:e&#45;&gt;n5:w</title>
<path fill="none" stroke="black" d="M366.74,-79C379.16,-79 384.02,-83.59 392.78,-85.82"/>
<polygon fill="black" stroke="black" points="392.4,-89.3 402.74,-87 393.22,-82.35 392.4,-89.3"/>
</g>
<!-- x0&#45;&gt;n4 -->
<g id="edge7" class="edge">
<title>x0:e&#45;&gt;n4:w</title>
<path fill="none" stroke="black" d="M324.74,-204C365.95,-204 378.79,-204 415.35,-204"/>
<polygon fill="black" stroke="black" points="415.76,-207.5 425.76,-204 415.76,-200.5 415.76,-207.5"/>
</g>
<!-- x1&#45;&gt;n6 -->
<g id="edge10" class="edge">
<title>x1:e&#45;&gt;n6:w</title>
<path fill="none" stroke="black" d="M324.74,-150C373.19,-150 387.79,-150 431.61,-150"/>
<polygon fill="black" stroke="black" points="431.76,-153.5 441.76,-150 431.76,-146.5 431.76,-153.5"/>
</g>
</g>
</svg>
