<?xml version="1.0" encoding="UTF-8" standalone="no"?>
<!DOCTYPE svg PUBLIC "-//W3C//DTD SVG 1.1//EN"
 "http://www.w3.org/Graphics/SVG/1.1/DTD/svg11.dtd">
<!-- Generated by graphviz version 2.43.0 (0)
 -->
<!-- Title: Mux8Way16 Pages: 1 -->
<svg width="946pt" height="577pt"
 viewBox="0.00 0.00 946.02 576.77" xmlns="http://www.w3.org/2000/svg" xmlns:xlink="http://www.w3.org/1999/xlink">
<g id="graph0" class="graph" transform="scale(1 1) rotate(0) translate(4 572.77)">
<title>Mux8Way16</title>
<polygon fill="white" stroke="transparent" points="-4,4 -4,-572.77 942.02,-572.77 942.02,4 -4,4"/>
<text text-anchor="middle" x="469.01" y="-7.8" font-family="Times,serif" font-size="14.00">Mux8Way16</text>
<!-- n1 -->
<g id="node1" class="node">
<title>n1</title>
<polygon fill="none" stroke="black" points="576.37,-335.77 501.13,-317.77 576.37,-299.77 651.61,-317.77 576.37,-335.77"/>
<text text-anchor="middle" x="576.37" y="-314.07" font-family="Times,serif" font-size="14.00">MuxaTod</text>
</g>
<!-- c13 -->
<g id="node13" class="node">
<title>c13</title>
<polygon fill="none" stroke="black" points="687.74,-136.27 687.74,-205.27 845.74,-205.27 845.74,-136.27 687.74,-136.27"/>
<text text-anchor="middle" x="706.24" y="-190.07" font-family="Times,serif" font-size="14.00">a</text>
<polyline fill="none" stroke="black" points="687.74,-182.27 724.74,-182.27 "/>
<text text-anchor="middle" x="706.24" y="-167.07" font-family="Times,serif" font-size="14.00">b</text>
<polyline fill="none" stroke="black" points="687.74,-159.27 724.74,-159.27 "/>
<text text-anchor="middle" x="706.24" y="-144.07" font-family="Times,serif" font-size="14.00">sel</text>
<polyline fill="none" stroke="black" points="724.74,-136.27 724.74,-205.27 "/>
<text text-anchor="middle" x="765.24" y="-174.57" font-family="Times,serif" font-size="14.00">mux16_2</text>
<text text-anchor="middle" x="765.24" y="-159.57" font-family="Times,serif" font-size="14.00">Mux16</text>
<polyline fill="none" stroke="black" points="805.74,-136.27 805.74,-205.27 "/>
<text text-anchor="middle" x="825.74" y="-167.07" font-family="Times,serif" font-size="14.00">out</text>
</g>
<!-- n1&#45;&gt;c13 -->
<g id="edge5" class="edge">
<title>n1:e&#45;&gt;c13:w</title>
<path fill="none" stroke="black" stroke-width="3" d="M651.74,-317.77C705.09,-317.77 640.76,-210.59 677.56,-195.52"/>
<polygon fill="black" stroke="black" stroke-width="3" points="678.48,-198.92 687.74,-193.77 677.29,-192.02 678.48,-198.92"/>
</g>
<!-- n2 -->
<g id="node2" class="node">
<title>n2</title>
<polygon fill="none" stroke="black" points="576.37,-188.77 501.13,-170.77 576.37,-152.77 651.61,-170.77 576.37,-188.77"/>
<text text-anchor="middle" x="576.37" y="-167.07" font-family="Times,serif" font-size="14.00">MuxeToh</text>
</g>
<!-- n2&#45;&gt;c13 -->
<g id="edge12" class="edge">
<title>n2:e&#45;&gt;c13:w</title>
<path fill="none" stroke="black" stroke-width="3" d="M651.74,-170.77C663.74,-170.77 668.99,-170.77 677.62,-170.77"/>
<polygon fill="black" stroke="black" stroke-width="3" points="677.74,-174.27 687.74,-170.77 677.74,-167.27 677.74,-174.27"/>
</g>
<!-- n3 -->
<g id="node3" class="node">
<title>n3</title>
<polygon fill="none" stroke="black" points="188.5,-543.31 188.5,-558.23 172.68,-568.77 150.32,-568.77 134.5,-558.23 134.5,-543.31 150.32,-532.77 172.68,-532.77 188.5,-543.31"/>
<text text-anchor="middle" x="161.5" y="-547.07" font-family="Times,serif" font-size="14.00">a</text>
</g>
<!-- c14 -->
<g id="node15" class="node">
<title>c14</title>
<polygon fill="none" stroke="black" points="269,-369.27 269,-484.27 465,-484.27 465,-369.27 269,-369.27"/>
<text text-anchor="middle" x="287.5" y="-469.07" font-family="Times,serif" font-size="14.00">a</text>
<polyline fill="none" stroke="black" points="269,-461.27 306,-461.27 "/>
<text text-anchor="middle" x="287.5" y="-446.07" font-family="Times,serif" font-size="14.00">b</text>
<polyline fill="none" stroke="black" points="269,-438.27 306,-438.27 "/>
<text text-anchor="middle" x="287.5" y="-423.07" font-family="Times,serif" font-size="14.00">c</text>
<polyline fill="none" stroke="black" points="269,-415.27 306,-415.27 "/>
<text text-anchor="middle" x="287.5" y="-400.07" font-family="Times,serif" font-size="14.00">d</text>
<polyline fill="none" stroke="black" points="269,-392.27 306,-392.27 "/>
<text text-anchor="middle" x="287.5" y="-377.07" font-family="Times,serif" font-size="14.00">sel</text>
<polyline fill="none" stroke="black" points="306,-369.27 306,-484.27 "/>
<text text-anchor="middle" x="365.5" y="-430.57" font-family="Times,serif" font-size="14.00">mux4way16_0</text>
<text text-anchor="middle" x="365.5" y="-415.57" font-family="Times,serif" font-size="14.00">Mux4Way16</text>
<polyline fill="none" stroke="black" points="425,-369.27 425,-484.27 "/>
<text text-anchor="middle" x="445" y="-423.07" font-family="Times,serif" font-size="14.00">out</text>
</g>
<!-- n3&#45;&gt;c14 -->
<g id="edge13" class="edge">
<title>n3:e&#45;&gt;c14:w</title>
<path fill="none" stroke="black" stroke-width="3" d="M189.5,-550.77C212.25,-550.77 216.44,-539.38 233,-523.77 250.19,-507.57 244.09,-481.98 259.03,-474.74"/>
<polygon fill="black" stroke="black" stroke-width="3" points="259.87,-478.14 269,-472.77 258.51,-471.27 259.87,-478.14"/>
</g>
<!-- n4 -->
<g id="node4" class="node">
<title>n4</title>
<polygon fill="none" stroke="black" points="188.5,-489.31 188.5,-504.23 172.68,-514.77 150.32,-514.77 134.5,-504.23 134.5,-489.31 150.32,-478.77 172.68,-478.77 188.5,-489.31"/>
<text text-anchor="middle" x="161.5" y="-493.07" font-family="Times,serif" font-size="14.00">b</text>
</g>
<!-- n4&#45;&gt;c14 -->
<g id="edge14" class="edge">
<title>n4:e&#45;&gt;c14:w</title>
<path fill="none" stroke="black" stroke-width="3" d="M189.5,-496.77C207.06,-496.77 237.74,-462.37 259.09,-452.43"/>
<polygon fill="black" stroke="black" stroke-width="3" points="260.25,-455.74 269,-449.77 258.43,-448.98 260.25,-455.74"/>
</g>
<!-- n5 -->
<g id="node5" class="node">
<title>n5</title>
<polygon fill="none" stroke="black" points="188.5,-435.31 188.5,-450.23 172.68,-460.77 150.32,-460.77 134.5,-450.23 134.5,-435.31 150.32,-424.77 172.68,-424.77 188.5,-435.31"/>
<text text-anchor="middle" x="161.5" y="-439.07" font-family="Times,serif" font-size="14.00">c</text>
</g>
<!-- n5&#45;&gt;c14 -->
<g id="edge15" class="edge">
<title>n5:e&#45;&gt;c14:w</title>
<path fill="none" stroke="black" stroke-width="3" d="M189.5,-442.77C221.88,-442.77 231.16,-429.86 258.84,-427.23"/>
<polygon fill="black" stroke="black" stroke-width="3" points="259.17,-430.72 269,-426.77 258.85,-423.73 259.17,-430.72"/>
</g>
<!-- n6 -->
<g id="node6" class="node">
<title>n6</title>
<polygon fill="none" stroke="black" points="188.5,-381.31 188.5,-396.23 172.68,-406.77 150.32,-406.77 134.5,-396.23 134.5,-381.31 150.32,-370.77 172.68,-370.77 188.5,-381.31"/>
<text text-anchor="middle" x="161.5" y="-385.07" font-family="Times,serif" font-size="14.00">d</text>
</g>
<!-- n6&#45;&gt;c14 -->
<g id="edge16" class="edge">
<title>n6:e&#45;&gt;c14:w</title>
<path fill="none" stroke="black" stroke-width="3" d="M189.5,-388.77C221.8,-388.77 231.21,-400.88 258.86,-403.34"/>
<polygon fill="black" stroke="black" stroke-width="3" points="258.86,-406.84 269,-403.77 259.16,-399.85 258.86,-406.84"/>
</g>
<!-- n7 -->
<g id="node7" class="node">
<title>n7</title>
<polygon fill="none" stroke="black" points="188.5,-271.31 188.5,-286.23 172.68,-296.77 150.32,-296.77 134.5,-286.23 134.5,-271.31 150.32,-260.77 172.68,-260.77 188.5,-271.31"/>
<text text-anchor="middle" x="161.5" y="-275.07" font-family="Times,serif" font-size="14.00">e</text>
</g>
<!-- c15 -->
<g id="node17" class="node">
<title>c15</title>
<polygon fill="none" stroke="black" points="269,-113.27 269,-228.27 465,-228.27 465,-113.27 269,-113.27"/>
<text text-anchor="middle" x="287.5" y="-213.07" font-family="Times,serif" font-size="14.00">a</text>
<polyline fill="none" stroke="black" points="269,-205.27 306,-205.27 "/>
<text text-anchor="middle" x="287.5" y="-190.07" font-family="Times,serif" font-size="14.00">b</text>
<polyline fill="none" stroke="black" points="269,-182.27 306,-182.27 "/>
<text text-anchor="middle" x="287.5" y="-167.07" font-family="Times,serif" font-size="14.00">c</text>
<polyline fill="none" stroke="black" points="269,-159.27 306,-159.27 "/>
<text text-anchor="middle" x="287.5" y="-144.07" font-family="Times,serif" font-size="14.00">d</text>
<polyline fill="none" stroke="black" points="269,-136.27 306,-136.27 "/>
<text text-anchor="middle" x="287.5" y="-121.07" font-family="Times,serif" font-size="14.00">sel</text>
<polyline fill="none" stroke="black" points="306,-113.27 306,-228.27 "/>
<text text-anchor="middle" x="365.5" y="-174.57" font-family="Times,serif" font-size="14.00">mux4way16_1</text>
<text text-anchor="middle" x="365.5" y="-159.57" font-family="Times,serif" font-size="14.00">Mux4Way16</text>
<polyline fill="none" stroke="black" points="425,-113.27 425,-228.27 "/>
<text text-anchor="middle" x="445" y="-167.07" font-family="Times,serif" font-size="14.00">out</text>
</g>
<!-- n7&#45;&gt;c15 -->
<g id="edge17" class="edge">
<title>n7:e&#45;&gt;c15:w</title>
<path fill="none" stroke="black" stroke-width="3" d="M189.5,-278.77C212.25,-278.77 215.07,-265.78 233,-251.77 247.29,-240.6 247.39,-224.48 258.9,-218.82"/>
<polygon fill="black" stroke="black" stroke-width="3" points="259.9,-222.19 269,-216.77 258.5,-215.33 259.9,-222.19"/>
</g>
<!-- n8 -->
<g id="node8" class="node">
<title>n8</title>
<polygon fill="none" stroke="black" points="188.5,-217.31 188.5,-232.23 172.68,-242.77 150.32,-242.77 134.5,-232.23 134.5,-217.31 150.32,-206.77 172.68,-206.77 188.5,-217.31"/>
<text text-anchor="middle" x="161.5" y="-221.07" font-family="Times,serif" font-size="14.00">f</text>
</g>
<!-- n8&#45;&gt;c15 -->
<g id="edge18" class="edge">
<title>n8:e&#45;&gt;c15:w</title>
<path fill="none" stroke="black" stroke-width="3" d="M189.5,-224.77C223.72,-224.77 230.04,-199.53 258.81,-194.6"/>
<polygon fill="black" stroke="black" stroke-width="3" points="259.32,-198.07 269,-193.77 258.75,-191.09 259.32,-198.07"/>
</g>
<!-- n9 -->
<g id="node9" class="node">
<title>n9</title>
<polygon fill="none" stroke="black" points="188.5,-163.31 188.5,-178.23 172.68,-188.77 150.32,-188.77 134.5,-178.23 134.5,-163.31 150.32,-152.77 172.68,-152.77 188.5,-163.31"/>
<text text-anchor="middle" x="161.5" y="-167.07" font-family="Times,serif" font-size="14.00">g</text>
</g>
<!-- n9&#45;&gt;c15 -->
<g id="edge19" class="edge">
<title>n9:e&#45;&gt;c15:w</title>
<path fill="none" stroke="black" stroke-width="3" d="M189.5,-170.77C221.24,-170.77 231.6,-170.77 259,-170.77"/>
<polygon fill="black" stroke="black" stroke-width="3" points="259,-174.27 269,-170.77 259,-167.27 259,-174.27"/>
</g>
<!-- n10 -->
<g id="node10" class="node">
<title>n10</title>
<polygon fill="none" stroke="black" points="188.5,-109.31 188.5,-124.23 172.68,-134.77 150.32,-134.77 134.5,-124.23 134.5,-109.31 150.32,-98.77 172.68,-98.77 188.5,-109.31"/>
<text text-anchor="middle" x="161.5" y="-113.07" font-family="Times,serif" font-size="14.00">h</text>
</g>
<!-- n10&#45;&gt;c15 -->
<g id="edge6" class="edge">
<title>n10:e&#45;&gt;c15:w</title>
<path fill="none" stroke="black" stroke-width="3" d="M189.5,-116.77C223.72,-116.77 230.04,-142.01 258.81,-146.94"/>
<polygon fill="black" stroke="black" stroke-width="3" points="258.75,-150.45 269,-147.77 259.32,-143.47 258.75,-150.45"/>
</g>
<!-- n11 -->
<g id="node11" class="node">
<title>n11</title>
<polygon fill="none" stroke="black" points="938.16,-163.31 938.16,-178.23 921.6,-188.77 898.17,-188.77 881.6,-178.23 881.6,-163.31 898.17,-152.77 921.6,-152.77 938.16,-163.31"/>
<text text-anchor="middle" x="909.88" y="-167.07" font-family="Times,serif" font-size="14.00">out</text>
</g>
<!-- n12 -->
<g id="node12" class="node">
<title>n12</title>
<polygon fill="none" stroke="black" points="54,-54.31 54,-69.23 38.18,-79.77 15.82,-79.77 0,-69.23 0,-54.31 15.82,-43.77 38.18,-43.77 54,-54.31"/>
<text text-anchor="middle" x="27" y="-58.07" font-family="Times,serif" font-size="14.00">sel</text>
</g>
<!-- x0 -->
<g id="node14" class="node">
<title>x0</title>
<path fill="none" stroke="black" d="M321,-27.77C321,-27.77 413,-27.77 413,-27.77 419,-27.77 425,-33.77 425,-39.77 425,-39.77 425,-51.77 425,-51.77 425,-57.77 419,-63.77 413,-63.77 413,-63.77 321,-63.77 321,-63.77 315,-63.77 309,-57.77 309,-51.77 309,-51.77 309,-39.77 309,-39.77 309,-33.77 315,-27.77 321,-27.77"/>
<text text-anchor="middle" x="367" y="-42.07" font-family="Times,serif" font-size="14.00">slice [2] to [0]</text>
</g>
<!-- n12&#45;&gt;x0 -->
<g id="edge8" class="edge">
<title>n12:e&#45;&gt;x0:w</title>
<path fill="none" stroke="black" d="M54,-61.77C74.27,-61.77 70.83,-40.35 90,-33.77 150.12,-13.14 169.64,-28.73 233,-33.77 262.97,-36.15 272.27,-43.81 297.79,-45.46"/>
<polygon fill="black" stroke="black" points="297.9,-48.96 308,-45.77 298.11,-41.96 297.9,-48.96"/>
</g>
<!-- x1 -->
<g id="node16" class="node">
<title>x1</title>
<path fill="none" stroke="black" d="M102,-315.77C102,-315.77 221,-315.77 221,-315.77 227,-315.77 233,-321.77 233,-327.77 233,-327.77 233,-339.77 233,-339.77 233,-345.77 227,-351.77 221,-351.77 221,-351.77 102,-351.77 102,-351.77 96,-351.77 90,-345.77 90,-339.77 90,-339.77 90,-327.77 90,-327.77 90,-321.77 96,-315.77 102,-315.77"/>
<text text-anchor="middle" x="161.5" y="-330.07" font-family="Times,serif" font-size="14.00">slice [1:0] to [1:0]</text>
</g>
<!-- n12&#45;&gt;x1 -->
<g id="edge9" class="edge">
<title>n12:e&#45;&gt;x1:w</title>
<path fill="none" stroke="black" stroke-width="3" d="M54,-61.77C111.16,-61.77 39.2,-300.83 80.22,-330.72"/>
<polygon fill="black" stroke="black" stroke-width="3" points="79.41,-334.13 90,-333.77 81.5,-327.45 79.41,-334.13"/>
</g>
<!-- x2 -->
<g id="node18" class="node">
<title>x2</title>
<path fill="none" stroke="black" d="M102,-43.77C102,-43.77 221,-43.77 221,-43.77 227,-43.77 233,-49.77 233,-55.77 233,-55.77 233,-67.77 233,-67.77 233,-73.77 227,-79.77 221,-79.77 221,-79.77 102,-79.77 102,-79.77 96,-79.77 90,-73.77 90,-67.77 90,-67.77 90,-55.77 90,-55.77 90,-49.77 96,-43.77 102,-43.77"/>
<text text-anchor="middle" x="161.5" y="-58.07" font-family="Times,serif" font-size="14.00">slice [1:0] to [1:0]</text>
</g>
<!-- n12&#45;&gt;x2 -->
<g id="edge10" class="edge">
<title>n12:e&#45;&gt;x2:w</title>
<path fill="none" stroke="black" stroke-width="3" d="M54,-61.77C66,-61.77 71.25,-61.77 79.88,-61.77"/>
<polygon fill="black" stroke="black" stroke-width="3" points="80,-65.27 90,-61.77 80,-58.27 80,-65.27"/>
</g>
<!-- c13&#45;&gt;n11 -->
<g id="edge7" class="edge">
<title>c13:e&#45;&gt;n11:w</title>
<path fill="none" stroke="black" stroke-width="3" d="M845.74,-170.77C857.74,-170.77 862.99,-170.77 871.62,-170.77"/>
<polygon fill="black" stroke="black" stroke-width="3" points="871.74,-174.27 881.74,-170.77 871.74,-167.27 871.74,-174.27"/>
</g>
<!-- x0&#45;&gt;c13 -->
<g id="edge1" class="edge">
<title>x0:e&#45;&gt;c13:w</title>
<path fill="none" stroke="black" d="M438.12,-46.85C500.44,-57.05 613.3,-136.49 675.62,-146.69"/>
<polygon fill="none" stroke="black" points="437.95,-46.83 431.62,-50.29 426,-45.77 432.33,-42.32 437.95,-46.83"/>
<polygon fill="none" stroke="black" points="675.79,-146.71 682.12,-143.26 687.74,-147.77 681.41,-151.22 675.79,-146.71"/>
</g>
<!-- c14&#45;&gt;n1 -->
<g id="edge4" class="edge">
<title>c14:e&#45;&gt;n1:w</title>
<path fill="none" stroke="black" stroke-width="3" d="M465,-426.77C512.03,-426.77 459.59,-334.14 491.07,-319.66"/>
<polygon fill="black" stroke="black" stroke-width="3" points="491.83,-323.08 501,-317.77 490.52,-316.2 491.83,-323.08"/>
</g>
<!-- x1&#45;&gt;c14 -->
<g id="edge2" class="edge">
<title>x1:e&#45;&gt;c14:w</title>
<path fill="none" stroke="black" stroke-width="3" d="M244.14,-338.45C251.96,-347.46 250.04,-367.12 257.87,-376.11"/>
<polygon fill="none" stroke="black" stroke-width="3" points="244.06,-338.42 236.98,-339.78 233,-333.77 240.08,-332.4 244.06,-338.42"/>
<polygon fill="none" stroke="black" stroke-width="3" points="257.93,-376.14 265.01,-374.76 269,-380.77 261.92,-382.14 257.93,-376.14"/>
</g>
<!-- c15&#45;&gt;n2 -->
<g id="edge11" class="edge">
<title>c15:e&#45;&gt;n2:w</title>
<path fill="none" stroke="black" stroke-width="3" d="M465,-170.77C477,-170.77 482.25,-170.77 490.88,-170.77"/>
<polygon fill="black" stroke="black" stroke-width="3" points="491,-174.27 501,-170.77 491,-167.27 491,-174.27"/>
</g>
<!-- x2&#45;&gt;c15 -->
<g id="edge3" class="edge">
<title>x2:e&#45;&gt;c15:w</title>
<path fill="none" stroke="black" stroke-width="3" d="M244.5,-66.3C254.99,-77.92 247.01,-108.7 257.53,-120.28"/>
<polygon fill="none" stroke="black" stroke-width="3" points="244.17,-66.17 237.12,-67.69 233,-61.77 240.05,-60.25 244.17,-66.17"/>
<polygon fill="none" stroke="black" stroke-width="3" points="257.83,-120.39 264.87,-118.86 269,-124.77 261.95,-126.31 257.83,-120.39"/>
</g>
</g>
</svg>
